<svg xmlns="http://www.w3.org/2000/svg" fill="none" viewBox="0 0 200 200" height="200" width="200">
<path fill="#452973" d="M111 81.9998L125 53.9998V85.9998L111 114V81.9998Z"></path>
<path fill="#764CA2" d="M76 74.9998L111 81.9998V114L76 107V74.9998Z"></path>
<path fill="#D685FE" d="M90 47L125 53.9998L111 81.9998L76 74.9998L90 47Z"></path>
<path fill="#3D1724" d="M81 96L86 97V101L81 100V96Z"></path>
<path fill="#3D1724" d="M101 100L106 101V105L101 104V100Z"></path>
<path fill="#8D3951" d="M90 97.8L97 99.2V102V104.2L90 102.8V97.8Z"></path>
<path fill="#452973" d="M90 97.8L91 98V100.8L90 102.8V97.8Z"></path>
<path fill="#D685FE" d="M91 100.8L97 102V104.2L90 102.8L91 100.8Z"></path>
</svg>
