<svg xmlns="http://www.w3.org/2000/svg" fill="none" viewBox="0 0 80 120" height="120" width="80">
<path stroke-width="2" stroke="white" fill="#56C6F8" d="M2 117H1V3H2H3V2V1H77V2V3H78H79V117H78H77V118V119H3V118V117H2Z"></path>
<path fill="#2CACE8" d="M2 112H4V114H76V112H78V116H76V118H4V116H2V112Z"></path>
<path fill="#141520" d="M14.0091 52L44.0091 58V62L14.0091 56V52Z"></path>
<path fill="#101018" d="M44.0091 58L48.0091 50V46L52.0091 38V42L56.0091 34V38L44.0091 62V58Z"></path>
<path fill="#2A2E3D" d="M26.0091 28L56.0091 34L52.0091 42V38L48.0091 46V50L44.0091 58L14.0091 52L26.0091 28Z"></path>
<path fill="#22263C" d="M18.5091 42.5L43.5091 47.5V53.5L18.5091 48.5V42.5Z"></path>
<path fill="#1D1D2C" d="M43.5091 47.5L51.5091 31.5V37.5L43.5091 53.5V47.5Z"></path>
<path fill="#485374" d="M26.5091 26.5L51.5091 31.5L43.5091 47.5L18.5091 42.5L26.5091 26.5Z"></path>
<path fill="#444B68" d="M36.5091 28.5L28.5091 44.5L23.5091 43.5L31.5091 27.5L36.5091 28.5Z"></path>
<path fill="#444B68" d="M46.5091 30.5L38.5091 46.5L33.5091 45.5L41.5091 29.5L46.5091 30.5Z"></path>
<path fill="#1B1A28" d="M28.5091 44.5V50.5L23.5091 49.5V43.5L28.5091 44.5Z"></path>
<path fill="#1B1A28" d="M38.5091 46.5V52.5L33.5091 51.5V45.5L38.5091 46.5Z"></path>
<path fill="#141520" d="M45.5091 45.5L48.0091 46V50L45.5091 49.5V45.5Z"></path>
<path fill="#2A2E3D" d="M49.5091 37.5L52.0091 38L48.0091 46L45.5091 45.5L49.5091 37.5Z"></path>
<path fill="#ADB39F" d="M54.5091 38.5L67 41L63.0091 49L50.5091 46.5L54.5091 38.5Z"></path>
<path fill="#453F3F" d="M67 41V49L63.0091 57V49L67 41Z"></path>
<path fill="#535454" d="M63.0091 49V57L50.5091 54.5V46.5L63.0091 49Z"></path>
<path fill="#141620" d="M58.0091 50V52L55.5091 51.5V49.5L58.0091 50Z"></path>
<path fill="#ADB39F" d="M51.0091 42L52.6 42.3182L50.6 46.3182L49.0091 46L51.0091 42Z"></path>
<path fill="#535454" d="M50.6 46.3182L50.5091 46.5V50.3L49.0091 50V46L50.6 46.3182Z"></path>
<path fill="#ADB39F" d="M36.5091 60.5L41.5091 61.5L36.5091 71.5L29.0091 70L30.0091 68L32.5091 68.5L36.5091 60.5Z"></path>
<path fill="#453F3F" d="M41.5091 61.5L42.4182 61.6818L36.5091 73.5V71.5L41.5091 61.5Z"></path>
<path fill="#535454" d="M36.5091 71.5V73.5L29.0091 72V70L36.5091 71.5Z"></path>
<path fill="#ADB39F" d="M51.0091 26L58.5091 27.5L55.3273 33.8636L51.5091 33.1V31.5L51.0546 31.4091L52.5091 28.5L50.0091 28L51.0091 26Z"></path>
<path fill="#453F3F" d="M58.5091 27.5V29.5L56.0091 34.5V34L55.3273 33.8636L58.5091 27.5Z"></path>
<path fill="#535454" d="M52.5091 28.5L51.6 30.3182L50.0091 30V28L52.5091 28.5Z"></path>
<path fill="#ADB39F" d="M14 45L17.1901 45.638L15.1901 49.638L12 49L14 45Z"></path>
<path fill="#535454" d="M15.1901 49.638L14.281 51.4562L12.0004 51L12 49L15.1901 49.638Z"></path>
<path fill="#ADB39F" d="M18 37L20.9628 37.5926L18.9628 41.5926L16 41L18 37Z"></path>
<path fill="#535454" d="M18.9628 41.5926L18.5 42.5L18.5091 43L18.281 43.4562L16.0004 43L16 41L18.9628 41.5926Z"></path>
<path fill="white" d="M33 97V96H32H31V98V102H29V96H27V103H28V104H32V103H33V98V97Z"></path>
<path fill="white" d="M34 96H39V97H40V100H39V101H40V104H38V102H37V101H36V99H38V98H36V99V101V104H34V96Z"></path>
<path fill="white" d="M55 97H56V96H61V98H57V99H59V101H57V102H61V104H56V103H55V97Z"></path>
<path fill="white" d="M20 97V96H21H26V98H24V102V104H22V102V98H20V97Z"></path>
<path fill="white" d="M41 97V96H42H47V98H45V102V104H43V102V98H41V97Z"></path>
<path fill="white" d="M48 97V96H49H50V98V102H54V104H49V103H48V98V97Z"></path>
</svg>
