<svg version="1.1" xmlns="http://www.w3.org/2000/svg" xmlns:xlink="http://www.w3.org/1999/xlink" width="13" height="13.0002" viewBox="0,0,13,13.0002"><g transform="translate(-240,-174)"><g data-paper-data="{&quot;isPaintingLayer&quot;:true}" fill="#f7e84d" fill-rule="nonzero" stroke="#000000" stroke-width="1" stroke-linecap="butt" stroke-linejoin="miter" stroke-miterlimit="10" stroke-dasharray="" stroke-dashoffset="0" style="mix-blend-mode: normal"><path d="M247.99998,174.5h0.00005l2.99997,0.00019l0.5,0.00003v0.49997v0.5h0.5h0.5v0.5v8.99981v0.5h-0.5h-0.5v0.5v0.5h-0.5l-9.99999,0.0002h-0.50001v-0.5v-2v-0.5h0.5h6.5v-1.00001h-5.5h-0.5v-0.5v-0.5h-0.5h-0.5v-0.5v-4v-0.5h0.5h0.5v-1.5v-0.49999l0.49998,-0.00001zM247.5,179.50019v-1.00014l-1,0.00009v1.00005z"/><path d="M246.99998,174.5h0.00005l2.99997,0.00019l0.5,0.00003v0.49997v0.5h0.5h0.5v0.5v7.99981v0.5h-0.5h-0.5v0.5v0.5h-0.5l-8.99999,0.0002h-0.50001v-0.5v-2v-0.50001h0.5h5.5v-1h-4.5h-0.5v-0.5v-0.5h-0.5h-0.5v-0.5v-4v-0.5h0.5h0.5v-0.5v-0.49999l0.49998,-0.00001zM246.5,178.50019v-1.00014l-1,0.00009v1.00005z"/></g></g></svg>