<svg xmlns="http://www.w3.org/2000/svg" fill="none" viewBox="0 0 200 200" height="200" width="200">
<path fill="#70FFEB" d="M92 65.0001L104.5 67.5001V103.5L89.5 100.5V98.4998L92 98.9998V65.0001Z"></path>
<path fill="#51F7A3" d="M104.5 67.5001L110.5 55.5002V91.5L104.5 103.5V67.5001Z"></path>
<path fill="#F1FFFF" d="M98 53L110.5 55.5002L104.5 67.5001L92 65.0001L98 53Z"></path>
<path fill="#F1FFFF" d="M94.5 77.4997L99.5 78.4999L96.5 84.4999L91.5 83.4999L94.5 77.4997Z"></path>
<path fill="#51F7A3" d="M96.5 84.4999L99.5 78.4999V82.4999L98.5 84.4999V88.4999L96.5 92.4998V84.4999Z"></path>
<path fill="#70FFEB" d="M91.5 83.4999L96.5 84.4999V92.4998L104 93.9998V97.9998L91.5 95.4998V83.4999Z"></path>
<path fill="#F1FFFF" d="M98.5 88.4999L106 90L104 93.9998L96.5 92.4998L98.5 88.4999Z"></path>
<path fill="#51F7A3" d="M104 93.9998L106 90V93.9998L104 97.9998V93.9998Z"></path>
<path fill="#70FFEB" d="M110.5 75.4999L113 75.9999V79.9999L110.5 79.4999V75.4999Z"></path>
<path fill="#F1FFFF" d="M110.5 71.1L115 72.0001L113 75.9999L110.5 75.4999V71.1Z"></path>
<path fill="#51F7A3" d="M113 75.9999L115 72.0001V75.9999L113 79.9999V75.9999Z"></path>
<path fill="#7FACFF" d="M101 88.9998L103.5 89.5L101.5 93.4998L99 92.9998L101 88.9998Z"></path>
<path fill="#7FACFF" d="M110.5 71.1L112.5 71.5001L110.5 75.4999V71.1Z"></path>
<path fill="#191F2B" d="M99 92.9998L101.5 93.4998L101.5 101.5L98.9999 101L99 92.9998Z"></path>
<path fill="#000004" d="M101.5 97.4998L102.5 97.6998V99.4998L101.5 101.5L101.5 97.4998Z"></path>
<path fill="#000004" d="M111.5 79.6999L112.318 79.8635L111.5 81.4999L111.5 79.6999Z"></path>
<path fill="#191F2B" d="M110.5 79.4999L111.5 79.6999L111.5 81.4999L110.5 81.2999L110.5 79.4999Z"></path>
<path fill="#F1FFFF" d="M91.5 94.4997V95.4998L92 95.5998V98.9998L89.5 98.4998L91.5 94.4997Z"></path>
</svg>
