<svg xmlns="http://www.w3.org/2000/svg" fill="none" viewBox="0 0 400 400" height="400" width="400">
<path fill="#1D244E" d="M133 220.999L203 234.999V246.999L133 232.999V220.999Z"></path>
<path fill="#1C1C3E" d="M203 234.999L263 114.999V146.999L223 226.999V206.999L203 246.999V234.999Z"></path>
<path fill="#1D244E" d="M223 206.999V226.999L213.909 225.181L223 206.999Z"></path>
<path fill="#4757AF" d="M193 100.999L263 114.999L203 234.999L133 220.999L193 100.999Z"></path>
<path fill="#202253" d="M239 186.999L289 196.999V204.999L239 194.999V186.999Z"></path>
<path fill="#3A4A9B" d="M247 170.999L277 176.999L281 168.999L301 172.999L289 196.999L239 186.999L247 170.999Z"></path>
<path fill="#161E41" d="M289 196.999L301 172.999V180.999L289 204.999V196.999Z"></path>
<path fill="#394261" d="M223 226.999L239 194.999L240.818 195.363L223 230.999V226.999Z"></path>
<path fill="#394261" d="M250.636 171.727L263 146.999V150.999L252.455 172.09L250.636 171.727Z"></path>
<path fill="#656DAB" d="M213.909 225.181L223 226.999V230.999L212.091 228.818L213.909 225.181Z"></path>
<path fill="#656DAB" d="M145 235.399L195 245.399V248.999L145 238.999V235.399Z"></path>
<path fill="#394261" d="M195 245.399L196.636 245.727L195 248.999V245.399Z"></path>
<path fill="#6A75B3" d="M225 198.999L230 199.999V211.999L225 210.999V198.999Z"></path>
<path fill="#D7F8FD" d="M231 186.999L236 187.999L230 199.999L225 198.999L231 186.999Z"></path>
<path fill="#58598F" d="M236 187.999V199.999L230 211.999V199.999L236 187.999Z"></path>
<path fill="black" d="M234 195.999V199.999L232 203.999V199.999L234 195.999Z"></path>
<path fill="#202253" d="M214 105.999L234 109.999V117.999L214 113.999V105.999Z"></path>
<path fill="#3A4A9B" d="M226 81.9994L246 85.9994L234 109.999L214 105.999L226 81.9994Z"></path>
<path fill="#161E41" d="M234 109.999L246 85.9994V93.9994L242 101.999V110.799L238 109.999L234 117.999V109.999Z"></path>
<path fill="#1C1C3E" d="M251.636 112.727L268 79.9995V115.999L263 125.999V114.999L251.636 112.727Z"></path>
<path fill="#4757AF" d="M254 77.1995L268 79.9995L251.636 112.727L242 110.799V101.999L246 93.9994L254 77.1995Z"></path>
<path fill="#4757AF" d="M228 71.9995L254 77.1995L246 93.9994V85.9994L226 81.9994L214.364 105.272L211.636 104.727L228 71.9995Z"></path>
<path fill="#1C1C3E" d="M266.637 79.7268L279 55.0002V71.2002L268 93.0002V79.9995L266.637 79.7268Z"></path>
<path fill="#4757AF" d="M249 49.0002L279 55.0002L266.637 79.7268L236.637 73.7268L249 49.0002Z"></path>
<path fill="#202253" d="M250 36L270 40V62L250 58V36Z"></path>
<path fill="#3A4A9B" d="M262 12L282 16L270 40L250 36L262 12Z"></path>
<path fill="#161E41" d="M270 40L282 16V24L278 32V54.8L274 54L270 62V40Z"></path>
<path fill="#202253" d="M119 163.001L158.09 170.819L154.454 178.092L119 171.001V163.001Z"></path>
<path fill="#3A4A9B" d="M131 139.001L151 143.001L147 151.001L166.09 154.819L158.09 170.819L119 163.001L131 139.001Z"></path>
<path fill="#161E41" d="M147 151.001L151 143.001V151.001L150.636 151.728L147 151.001Z"></path>
<path fill="#6A75B3" d="M150 183.999L151.364 184.272L150 186.999V183.999Z"></path>
<path fill="#D7F8FD" d="M156 171.999L157.364 172.272L151.364 184.272L150 183.999L156 171.999Z"></path>
</svg>
