<svg xmlns="http://www.w3.org/2000/svg" fill="none" viewBox="0 0 80 120" height="120" width="80">
<path stroke-width="2" stroke="white" fill="#56C6F8" d="M2 117H1V3H2H3V2V1H77V2V3H78H79V117H78H77V118V119H3V118V117H2Z"></path>
<path fill="#2CACE8" d="M2 112H4V114H76V112H78V116H76V118H4V116H2V112Z"></path>
<path fill="#721523" d="M44 63.0019L49 64.0019V68.0019L44 67.0019V63.0019Z"></path>
<path fill="#410C18" d="M49 64.0019L51 60.0004V64.0019L49 68.0019V64.0019Z"></path>
<path fill="#8787B7" d="M44 59.0004L49 60.0019V64.0019L44 63.0019V59.0004Z"></path>
<path fill="#4F507E" d="M49 60.0019L51 56.0005V60.0004L49 64.0019V60.0019Z"></path>
<path fill="#204F31" d="M44 55.0004L49 56.0004V60.0019L44 59.0004V55.0004Z"></path>
<path fill="#122E22" d="M49 56.0004L51 52.0005V56.0005L49 60.0019V56.0004Z"></path>
<path fill="#8787B7" d="M44 51.0025L49 51.9998V56.0004L44 55.0004V51.0025Z"></path>
<path fill="#4F507E" d="M49 51.9998L51 47.9999V52.0005L49 56.0004V51.9998Z"></path>
<path fill="#721523" d="M44 47.0025L49 48.0008V51.9998L44 51.0025V47.0025Z"></path>
<path fill="#410C18" d="M49 48.0008L51 43.9993V47.9999L49 51.9998V48.0008Z"></path>
<path fill="#8787B7" d="M44 42.9993L49 44.0008V48.0008L44 47.0025V42.9993Z"></path>
<path fill="#4F507E" d="M49 44.0008L51 39.9994V43.9993L49 48.0008V44.0008Z"></path>
<path fill="#204F31" d="M44 38.9993L49 39.9993V44.0008L44 42.9993V38.9993Z"></path>
<path fill="#122E22" d="M49 39.9993L51 35.9994V39.9994L49 44.0008V39.9993Z"></path>
<path fill="#8787B7" d="M44 35.0011L49 36.0015V39.9993L44 38.9993V35.0011Z"></path>
<path fill="#4F507E" d="M49 36.0015L51 32.0016V35.9994L49 39.9993V36.0015Z"></path>
<path fill="#F7F3FF" d="M44 35.0011L46 31.002L51 32.0016L49 36.0015L44 35.0011Z"></path>
<path fill="#721523" d="M39 33.9983L44 34.9983V38.9993L39 37.9983V33.9983Z"></path>
<path fill="#CD2738" d="M39 33.9983L41 29.9988L46 30.9984L44 34.9983L39 33.9983Z"></path>
<path fill="#F7F3FF" d="M34 32.9971L36 28.9976L41 29.9972L39 33.9971L34 32.9971Z"></path>
<path fill="#8787B7" d="M34 32.9999L39 34.0003V37.9983L34 36.9981V32.9999Z"></path>
<path fill="#204F31" d="M29 31.9995L34 32.9999V36.9995L29 35.9995V31.9995Z"></path>
<path fill="#3A8D4E" d="M29 31.9995L31 28L36 28.9996L34 32.9999L29 31.9995Z"></path>
<path fill="#8787B7" d="M29 35.9976L34 36.9981V40.9959L29 39.9957V35.9976Z"></path>
<path fill="#721523" d="M29 39.9957L34 40.9959V44.9967L29 43.9957V39.9957Z"></path>
<path fill="#410C18" d="M34 40.9959L35.8166 37.3615L36 37.3981V40.9959L34 44.9967V40.9959Z"></path>
<path fill="#4F507E" d="M34 36.9995L35.8166 37.3615L34 40.9972V36.9995Z"></path>
<path fill="white" d="M38 84H40V85H41V86H42V84H44V92H42V89H41V88H40V92H38V84Z"></path>
<path fill="white" d="M42 96H44V97H45V98H46V96H48V104H46V101H45V100H44V104H42V96Z"></path>
<path fill="white" d="M49 97H50V96H55V98H51V99H53V101H51V102H55V104H50V103H49V97Z"></path>
<path fill="white" d="M24 85H25V84H30V86H26V87V89V90H30V92H25V91H24V85Z"></path>
<path fill="white" d="M28 97H29V96H34V98H30V99V101V102H34V104H29V103H28V97Z"></path>
<path fill="white" d="M31 85H32V84H36V85H37V92H35V86H33V87H35V89H33V90V92H32H31V91V85Z"></path>
<path fill="white" d="M35 97H36V96H40V97H41V104H39V98H37V99H39V101H37V102V104H36H35V103V97Z"></path>
<path fill="white" d="M52 85V84H53H54V87H56V84H58V88H57V89H56V92H54V89H53V88H52V85Z"></path>
<path fill="white" d="M45 85V84H46H50V85H51V86H49H47V90H49V86H51V91H50V92H46H45V91V85Z"></path>
</svg>
