<svg xmlns="http://www.w3.org/2000/svg" fill="none" viewBox="0 0 200 200" height="200" width="200">
<path fill="white" d="M96.9971 81.0004L106 82.8009V83.8993L101.003 83.0004L97 91.0029V92.0007L101.997 93.0002L106 84.9977L101.003 83.0004L106 83.8993V82.8009L111.997 84.0004L104.998 98.0004L89.9983 95.0004L96.9971 81.0004Z"></path>
<path fill="#56598C" d="M111.997 86.4005V84.0004L104.998 98.0004V99.0004L100.997 107V108L104 102V103L103.997 104.001V103.001L109.997 91.0004L111.997 86.4005Z"></path>
<path fill="#9498C8" d="M104.998 99.0004V98.0004L89.9983 95.0004V96.0004L104.998 99.0004Z"></path>
<path fill="white" d="M89.9983 96.0004L104.998 99.0004L100.997 107L98.4971 106.5L97.4971 108.5L87.4971 106.5L88.4971 104.5L85.9971 104.001L89.9983 96.0004Z"></path>
<path fill="#56598C" d="M98.4971 107.5V106.5L97.4971 108.5L98.4971 107.5Z"></path>
<path fill="#9498C8" d="M100.997 107L98.4971 106.5V107.5L97.4971 108.5L87.4971 106.5L88.4971 104.5L85.9971 104.001V105L100.997 108V107Z"></path>
<path fill="white" d="M109.997 91.0004L114.996 92.0004L108.997 104.001L103.997 103.001L109.997 91.0004Z"></path>
<path fill="white" d="M90.0054 87.0004L93.6336 87.7287L89.9983 95.0004V96.0004L88.0837 99.8279L84 99.0112L90.0054 87.0004Z"></path>
<path fill="#9498C8" d="M108.999 105.001L108.997 104.001L103.997 103.001V104.001L108.999 105.001Z"></path>
<path fill="#9498C8" d="M85.9971 100.41V104.001L88.0837 99.8279L84 99.0112L84.0005 100.011L85.9971 100.41Z"></path>
<path fill="#56598C" d="M114.996 93.0004V92.0004L108.997 104.001L108.999 105.001L114.996 93.0004Z"></path>
<path fill="#F27257" d="M109.997 81.0024L108.814 83.3638L106 82.8009L103.779 82.3567L105 80L109.997 81.0024Z"></path>
<path fill="#4C2425" d="M109.997 81.0024V83.6004L108.814 83.3667L109.997 81.0024Z"></path>
<path fill="#EC6373" d="M106 83.8993L101.997 92.0023L97 91.0029L101.003 83.0004L106 83.8993Z"></path>
<path fill="#803647" d="M101.997 92.0053V93.0002L97 92.0007V91.0029L101.997 92.0053Z"></path>
<path fill="#4E1F31" d="M106 83.8993V84.9977L101.997 93.0032V92.0053L106 83.8993Z"></path>
<path fill="#F27257" d="M108.999 105.001L108.506 105.498L102.813 104.372L104 102L103.997 103.001V104.001L108.999 105.001Z"></path>
<path fill="#823E35" d="M108.506 105.498V106.501L102.362 105.273L102.813 104.372L108.506 105.498Z"></path>
<path fill="#4C2425" d="M113.5 95.994V96.5032L108.506 106.501V105.498L108.999 105.001L113.5 95.994Z"></path>
</svg>
