<svg xmlns="http://www.w3.org/2000/svg" fill="none" viewBox="0 0 200 200" height="200" width="200">
<path fill="#AC4A3D" d="M116 108L124 92L84 84L76 100L116 108Z"></path>
<path fill="#964237" d="M96.9999 91L98.9999 87L88.9999 85L86.9999 89L96.9999 91Z"></path>
<path fill="#964237" d="M98 100L100 96L85 93L83 97L98 100Z"></path>
<path fill="#964237" d="M113 103.1L115 99.1L105 97.1L103 101.1L113 103.1Z"></path>
<path fill="#5F2A26" d="M116 108V116L76 108V100L116 108Z"></path>
<path fill="#C2615A" d="M116 108L124 92L119 91L111 107L116 108Z"></path>
<path fill="#C2615A" d="M81 101L89 85L84 84L76 100L81 101Z"></path>
<path fill="#3D1F27" d="M116 108L124 92V100L122 104V100L118 108V112L116 116V108Z"></path>
<path fill="#6A3638" d="M116 108V116L111 115V107L116 108Z"></path>
<path fill="#6A3638" d="M81 101V109L76 108V100L81 101Z"></path>
<path fill="#6A3638" d="M122 100V104L120.182 103.636L122 100Z"></path>
<path fill="#522522" d="M96 112V108L86 106V110L96 112Z"></path>
<path fill="#522522" d="M106 114V110L101 109V113L106 114Z"></path>
</svg>
