<svg xmlns="http://www.w3.org/2000/svg" fill="none" viewBox="0 0 14 14" height="14" width="14">
<path stroke="black" fill="#F7E84D" d="M2 1.5H1.5V2V5V5.5H2H8.5V6.5H5H4.5V7V9V9.5H5H8.5V10.5H2H1.5V11V13V13.5H2H12H12.5V13V12.5H13H13.5V12V9V8.5H13H12.5V7.5H13H13.5V7V3V2.5H13H12.5V2V1.5H12H2Z"></path>
<path stroke="black" fill="#F7E84D" d="M2 1.5H1.5V2V4V4.5H2H7.5V5.5H5H4.5V6V8V8.5H5H7.5V9.5H2H1.5V10V12V12.5H2H11H11.5V12V11.5H12H12.5V11V8V7.5H12H11.5V6.5H12H12.5V6V3V2.5H12H11.5V2V1.5H11H2Z"></path>
</svg>
