<svg xmlns="http://www.w3.org/2000/svg" fill="none" viewBox="0 0 300 300" height="300" width="300">
<path fill="#7B7AA2" d="M96.0015 142.999L171.001 157.999V165.999L96.0015 150.999V142.999Z"></path>
<path fill="#655C7A" d="M96.0015 150.999L171.001 165.999V173.999L96.0015 158.999V150.999Z"></path>
<path fill="#E3D4FF" d="M122.001 90.9985L132.001 92.9985L110.001 136.999L165.001 147.999L187.001 103.999L191.001 96.0002L201.001 97.9985L171.001 157.999L96.0015 142.999L122.001 90.9985Z"></path>
<path fill="#89234A" d="M110.001 128.999L120.001 130.999V134.999L125.001 135.999V131.999L135.001 133.999V137.999L140.001 138.999V134.999L150.001 136.999V140.999L155.001 141.999V137.999L165.001 139.999V147.999L110.001 136.999V128.999Z"></path>
<path fill="#541436" d="M165.001 139.999L167.001 135.999V139.999L170.001 133.999V113.999L167.001 119.999V127.999L165.001 131.999V103.999L187.001 59.9997V103.999L165.001 147.999V139.999Z"></path>
<path fill="#89234A" d="M110.001 120.999L120.001 122.999V118.999L125.001 119.999V123.999L135.001 125.999V121.999L140.001 122.999V126.999L150.001 128.999V124.999L155.001 125.999V129.999L165.001 131.999V103.999L110.001 92.9985V120.999Z"></path>
<path fill="#541436" d="M120.001 118.999L122.001 119.399L121.819 119.362L120.001 122.999V118.999Z"></path>
<path fill="#541436" d="M135.001 121.999L137.001 122.399L136.819 122.362L135.001 125.999V121.999Z"></path>
<path fill="#541436" d="M150.001 124.999L152.001 125.399L151.819 125.362L150.001 128.999V124.999Z"></path>
<path fill="#541436" d="M120.001 130.999L122.001 126.999V130.999L120.001 134.999V130.999Z"></path>
<path fill="#541436" d="M135.001 133.999L137.001 129.999V133.999L135.001 137.999V133.999Z"></path>
<path fill="#541436" d="M150.001 136.999L152.001 132.999V136.999L150.001 140.999V136.999Z"></path>
<path fill="#F33E71" d="M112.001 124.999L122.001 126.999L120.001 130.999L110.001 128.999L112.001 124.999Z"></path>
<path fill="#F33E71" d="M127.001 127.999L137.001 129.999L135.001 133.999L125.001 131.999L127.001 127.999Z"></path>
<path fill="#F33E71" d="M142.001 130.999L152.001 132.999L150.001 136.999L140.001 134.999L142.001 130.999Z"></path>
<path fill="#F33E71" d="M157.001 133.999L167.001 135.999L165.001 139.999L155.001 137.999L157.001 133.999Z"></path>
<path fill="#F33E71" d="M167.501 133.5L170.001 133.999L167.001 139.999V135.999L166.319 135.862L167.501 133.5Z"></path>
<path fill="#89234A" d="M167.001 119.999L170.001 113.999V133.999L167.501 133.5V118.999L167.001 119.999Z"></path>
<path fill="#4D466F" d="M171.001 157.999L201.001 97.9985V105.999L171.001 165.999V157.999Z"></path>
<path fill="#3C365A" d="M171.001 165.999L201.001 105.999V113.999L171.001 173.999V165.999Z"></path>
<path fill="#F33E71" d="M132.001 49L187.001 59.9997L165.001 103.999L110.001 92.9985L132.001 49Z"></path>
<path fill="#F33E71" d="M122.001 130.999L125.183 131.635L125.001 131.999V135.999L120.001 134.999L122.001 130.999Z"></path>
<path fill="#F33E71" d="M137.001 133.999L140.183 134.635L140.001 134.999V138.999L135.001 137.999L137.001 133.999Z"></path>
<path fill="#F33E71" d="M152.001 136.999L155.183 137.635L155.001 137.999V141.999L150.001 140.999L152.001 136.999Z"></path>
<path fill="#6B1538" d="M119.001 107L124.001 108V112L129.001 113V117L124.001 116V120L119.001 119V115L114.001 114V110L119.001 111V107Z"></path>
<path fill="#C1205B" d="M120.001 105L125.001 106L124.001 108L119.001 107L120.001 105Z"></path>
<path fill="#C1205B" d="M125.001 110L130.001 111L129.001 113L124.001 112L125.001 110Z"></path>
<path fill="#C1205B" d="M115.001 108L119.001 108.8V111L114.001 110L115.001 108Z"></path>
<path fill="#4A0420" d="M125.001 106V110L124.001 112V108L125.001 106Z"></path>
<path fill="#4A0420" d="M130.001 111V115L129.001 117V113L130.001 111Z"></path>
<path fill="#4A0420" d="M125.001 116.2V118L124.001 120V116L125.001 116.2Z"></path>
<path fill="#9799CC" d="M158.501 120V126L143.501 123V117L158.501 120Z"></path>
<path fill="#FFFEFF" d="M159.501 118L158.501 120L143.501 117L144.501 115L159.501 118Z"></path>
<path fill="#5E5C84" d="M159.501 124L158.501 126V120L159.501 118V124Z"></path>
<path fill="#F33E71" d="M115.001 123.002L117.501 123.5L116.32 125.862L113.82 125.362L115.001 123.002Z"></path>
<path fill="#89234A" d="M115.001 121.999L117.501 122.497V123.5L115.001 123V121.999Z"></path>
<path fill="#9799CC" d="M189.001 97.0003V109L174.001 106V98.0002L184.001 100V96.0002L189.001 97.0003Z"></path>
<path fill="#FFFEFF" d="M193.001 89.0003L189.001 97.0003L184.001 96.0002V100L174.001 98.0002L178.001 90.0002L186.182 91.6366L184.001 96.0002L188.001 88.0003L193.001 89.0003Z"></path>
<path fill="#5E5C84" d="M193.001 101L189.001 109V97.0003L193.001 89.0003V101Z"></path>
<path fill="#9799CC" d="M109.002 81.0002V85.0002L113.546 85.9092L110.001 92.9985V93.2002L104.001 92.0002V84.0002L104.002 80.0002L109.002 81.0002Z"></path>
<path fill="#FFFEFF" d="M113.001 73.0002L109.002 81.0002L104.002 80.0002L108.002 72.0002L113.001 73.0002Z"></path>
<path fill="#5E5C84" d="M113.546 85.9092L109.002 85.0002V81.0002L113.001 73.0002V77.0002L117.546 77.9092L113.546 85.9092Z"></path>
<path fill="#FFFEFF" d="M117.546 77.9092L113.546 85.9092L109.002 85.0002L113.001 77.0002L117.546 77.9092Z"></path>
<path fill="#681D2D" d="M121.728 119.546L124.001 120L124.093 119.817L125.001 119.999V123.999L135.001 125.999L136.819 122.362L140.001 122.999V126.999L150.001 128.999L151.819 125.362L155.001 125.999V129.999L165.001 131.999L167.001 127.999V119.999L167.501 118.999V133.5L166.319 135.862L157.001 133.999L155.183 137.635L152.001 136.999V132.999L142.001 130.999L140.183 134.635L137.001 133.999V129.999L127.001 127.999L125.183 131.635L122.001 130.999V126.999L116.32 125.862L117.501 123.5V122.5L120.001 122.999L121.728 119.546Z"></path>
<path fill="#514961" d="M106.501 161.099L166.501 173.099V186.5L106.501 174.5V161.099Z"></path>
<path fill="#2D243F" d="M166.501 173.099L171.001 173.999L196.501 122.999V126.5L166.501 186.5V173.099Z"></path>
<path fill="#635C7D" d="M190.001 138V162L180.001 160V136L190.001 138Z"></path>
<path fill="#B29FBB" d="M202 114L190.001 138L180.001 136L192.001 112L202 114Z"></path>
<path fill="#393855" d="M202 138L190.001 162V138L202 114V138Z"></path>
<path fill="#565076" d="M199.001 138L193.001 150V138L199.001 126V138Z"></path>
<path fill="#9799CC" d="M224 144V152L194.001 146V138L224 144Z"></path>
<path fill="#FFFEFF" d="M228 136L224 144L194.001 138L198.001 130L228 136Z"></path>
<path fill="#5E5C84" d="M228 144L224 152V144L228 136V144Z"></path>
<path fill="#89234A" d="M239 145V157L224 154V142L239 145Z"></path>
<path fill="#F33E71" d="M243 137L239 145L224 142L228 134L243 137Z"></path>
<path fill="#541436" d="M243 149L239 157V145L243 137V149Z"></path>
<path fill="#7D78A4" d="M236.5 120.5V144.5L226.5 142.5V118.5L236.5 120.5Z"></path>
<path fill="#E1D3FE" d="M240.5 112.5L236.5 120.5L226.5 118.5L230.5 110.5L240.5 112.5Z"></path>
<path fill="#4B4874" d="M240.5 136.5L236.5 144.5V120.5L240.5 112.5V136.5Z"></path>
<path fill="#89234A" d="M240.5 107.5V123.5L220.5 119.5V103.5L240.5 107.5Z"></path>
<path fill="#F33E71" d="M246.5 95.5003L240.5 107.5L220.5 103.5L226.5 91.5002L246.5 95.5003Z"></path>
<path fill="#541436" d="M246.5 111.5L240.5 123.5V107.5L246.5 95.5003V111.5Z"></path>
<path fill="#7D78A4" d="M235.5 110.5V118.5L225.5 116.5V108.5L235.5 110.5Z"></path>
<path fill="#89234A" d="M244 104V110L241.5 109.5V105.5L236.5 104.5V102.5L244 104Z"></path>
<path fill="#F33E71" d="M248 96L244 104L236.5 102.5L240.5 94.5L248 96Z"></path>
<path fill="#541436" d="M248 102L244 110V104L248 96V102Z"></path>
<path fill="#89234A" d="M226.5 100.5L226.5 102.5L221.5 101.5V105.5L219 105V99L226.5 100.5Z"></path>
<path fill="#F33E71" d="M230.5 92.5L226.5 100.5L219 99L223 91L230.5 92.5Z"></path>
<path fill="#541436" d="M230.5 94.5L226.5 102.5L226.5 100.5L230.5 92.5L230.5 94.5Z"></path>
<path fill="#7D78A4" d="M229 93V95L226.5 94.5L226.5 100.5L219 99V91L229 93Z"></path>
<path fill="#4B4874" d="M230.5 92.5L226.5 100.5L226.5 94.5L229 95V93L233 85V87L230.5 92L230.5 92.5Z"></path>
<path fill="#E1D3FE" d="M233 85L229 93L219 91L223 83L233 85Z"></path>
<path fill="#7D78A4" d="M244 96L244 104L236.5 102.5L236.5 96.5L234 96V94L244 96Z"></path>
<path fill="#E1D3FE" d="M248 88L244 96L234 94L238 86L248 88Z"></path>
<path fill="#4B4874" d="M248 96L244 104L244 96L248 88V96Z"></path>
<path fill="#635C7D" d="M105.001 121L105.001 124.999L96.0015 142.999V143.2L95.0015 143V119L105.001 121Z"></path>
<path fill="#B29FBB" d="M110.001 95.6003V111L105.001 121L95.0015 119L107.001 95.0002L110.001 95.6003Z"></path>
<path fill="#393855" d="M110.001 114.999L96.0015 142.999L105.001 124.999L105.001 121L110.001 111V95.6003V114.999Z"></path>
<path fill="#9799CC" d="M95.3651 118.273L95.0015 119V126.2L69.0018 121V113L95.3651 118.273Z"></path>
<path fill="#FFFEFF" d="M99.3651 110.273L95.3651 118.273L69.0018 113L73.0018 105L99.3651 110.273Z"></path>
<path fill="#89234A" d="M68.0006 115V123L53.0008 120V112L68.0006 115Z"></path>
<path fill="#F33E71" d="M74.0005 103L68.0006 115L53.0008 112L59.0007 100L74.0005 103Z"></path>
<path fill="#541436" d="M74.0005 105.2L73.0018 105L69.0018 113V121L68.0006 123V115L74.0005 103V105.2Z"></path>
<path fill="#E1D3FE" d="M65.5013 114.5L53.5015 138.5L43.5017 136.5L55.5016 112.5L65.5013 114.5Z"></path>
<path fill="#4B4874" d="M65.5013 122.5L53.5014 146.5L53.5015 138.5L65.5013 114.5V122.5Z"></path>
<path fill="#89234A" d="M50.5007 153.5V155.5L53.0012 156V164L50.5007 163.5V165.5L30.5009 161.5V159.5L28.0015 159V151L30.5009 151.5V149.5L50.5007 153.5Z"></path>
<path fill="#F33E71" d="M58.5006 137.5L50.5007 153.5L30.5009 149.5L38.5008 133.5L58.5006 137.5Z"></path>
<path fill="#541436" d="M58.5006 149.5L53.0012 160.5V164L51.5016 163.7L50.5007 165.5V163.5L53.0012 164V156L50.5007 155.5V153.5L58.5006 137.5V149.5Z"></path>
<path fill="#E1D3FE" d="M51.5016 140.5L47.5016 148.5L37.5019 146.5L41.5019 138.5L51.5016 140.5Z"></path>
<path fill="#F33E71" d="M57.0011 148L53.0012 156L50.5007 155.5L54.5007 147.5L57.0011 148Z"></path>
<path fill="#F33E71" d="M33.5916 143.319L30.5009 149.5L30.4988 151.5L27.9983 151L31.9983 143L33.5916 143.319Z"></path>
<path fill="#7D78A4" d="M60.5011 157.5L60.5011 165.5L53.0012 164L53.0013 158L53.0012 156L60.5011 157.5Z"></path>
<path fill="#4B4874" d="M67.0003 158L62.0004 168L62.0004 160L67.0003 150V158Z"></path>
<path fill="#E1D3FE" d="M67.0009 150L62.0004 160L59.5004 159.5L60.5011 157.5L53.0012 156L57.0011 148L67.0009 150Z"></path>
<path fill="#7D78A4" d="M62.0004 160L62.0004 168L59.5004 167.5L59.5006 161.5L59.5004 159.5L62.0004 160Z"></path>
<path fill="#E1D3FE" d="M31.9998 143L28.0015 151L25.5015 150.5L20.5001 149.5L19.5022 151.5L17.0001 151L22 141L31.9998 143Z"></path>
<path fill="#7D78A4" d="M27.9983 151L27.9983 159L20.4983 157.5L20.4985 151.5L20.4983 149.5L27.9983 151Z"></path>
<path fill="#7D78A4" d="M19.5022 151.5L19.5022 159.5L17.0001 159L17.0002 153L17.0001 151L19.5022 151.5Z"></path>
<path fill="#4B4874" d="M20.4985 157.503L19.5022 159.5L19.5022 151.5L20.4985 149.503V157.503Z"></path>
<path fill="#993D70" d="M154.008 131V137.4L152.001 136.999V132.999L142.001 130.999L140.183 134.635L137.001 133.999V129.999L127.001 127.999L125.183 131.635L124.008 131.4V125L154.008 131Z"></path>
<path fill="#FE77B2" d="M155.001 129.014L154.008 131L124.008 125L125.001 123.014V123.999L135.001 125.999L136.819 122.362L140.001 122.999V126.999L150.001 128.999L151.801 125.399L155.001 125.999V129.014Z"></path>
<path fill="#632A53" d="M159.099 130.818L157.463 134.091L157.001 134L155.183 137.635L154.008 137.4V131L155.001 129.014V129.999L159.099 130.818Z"></path>
</svg>
