<svg xmlns="http://www.w3.org/2000/svg" fill="none" viewBox="0 0 200 200" height="200" width="200">
<path fill="#151515" d="M119 78L121.5 78.5V86.5L119 86V78Z"></path>
<path fill="black" d="M121.5 78.5L125.5 70.5V78.5L121.5 86.5V78.5Z"></path>
<path fill="#252525" d="M123 70L125.5 70.5L121.5 78.5L119 78L123 70Z"></path>
<path fill="#151515" d="M114.5 77.5L117 78V94L114.5 93.5V77.5Z"></path>
<path fill="black" d="M117 78L124 64V70.2L123 70L119 78V86L120.818 86.3636L117 94V78Z"></path>
<path fill="#252525" d="M121.5 63.5L124 64L117 78L114.5 77.5L121.5 63.5Z"></path>
<path fill="#151515" d="M111 77L113.5 77.5V97.5L111 97V77Z"></path>
<path fill="black" d="M113.5 77.5L122.5 59.5V63.7L121.5 63.5L114.5 77.5V93.5L115.409 93.6818L113.5 97.5V77.5Z"></path>
<path fill="#252525" d="M120 59L122.5 59.5L113.5 77.5L111 77L120 59Z"></path>
<path fill="#151515" d="M105 76L110 77V101L105 100V76Z"></path>
<path fill="black" d="M110 77L121 55V59.2L120 59L111 77V97L111.909 97.1818L110 101V77Z"></path>
<path fill="#252525" d="M116 54L121 55L110 77L105 76L116 54Z"></path>
<path fill="#151515" d="M99 75L104 76V104L99 103V75Z"></path>
<path fill="black" d="M104 76L117 50V54.2L116 54L105 76V100L105.909 100.182L104 104V76Z"></path>
<path fill="#252525" d="M112 49L117 50L104 76L99 75L112 49Z"></path>
<path fill="#151515" d="M48 65L98 75V107L48 97V65Z"></path>
<path fill="black" d="M98 75L113 45V49.2L112 49L99 75V103L99.9091 103.182L98 107V75Z"></path>
<path fill="#252525" d="M63 35L113 45L98 75L48 65L63 35Z"></path>
<path fill="#151515" d="M44 64L48.0909 64.8182L48 65V92.8L44 92V64Z"></path>
<path fill="#252525" d="M57 38L61.0909 38.8182L48.0909 64.8182L44 64L57 38Z"></path>
<path fill="#151515" d="M38 63L43 64V96L38 95V63Z"></path>
<path fill="black" d="M43 64L58 34V38.2L57 38L44 64V92L44.9091 92.1818L43 96V64Z"></path>
<path fill="#252525" d="M53 33L58 34L43 64L38 63L53 33Z"></path>
<path fill="white" d="M63 79L68 80L65 86L70 87L68 91L58 89L63 79Z"></path>
<path fill="#D9D9D9" d="M58 89L68 91V95L58 93V89Z"></path>
<path fill="#9A9A9A" d="M68 91L70 87L65 86L68 80V84L66.8182 86.3636L70 87V91L68 95V91Z"></path>
<path fill="white" d="M70.5 85L80.5 87L77.5 93L67.5 91L70.5 85Z"></path>
<path fill="#D9D9D9" d="M67.5 91L77.5 93V99L67.5 97V91Z"></path>
<path fill="#9A9A9A" d="M77.5 93L80.5 87V93L77.5 99V93Z"></path>
<path fill="#D9D9D9" d="M99 75L101.5 75.5L104 76V86L101.5 85.5V83.5L99 83V75Z"></path>
<path fill="#D9D9D9" d="M105 76L107.5 76.5V78.5L110 79V85L105 84V76Z"></path>
<path fill="#D9D9D9" d="M111 77L113.5 77.5V81.5L111 81V77Z"></path>
<path fill="#9A9A9A" d="M104 76H105V84L104 86V76Z"></path>
<path fill="#9A9A9A" d="M110 79L111 77V81V83L110 85V79Z"></path>
</svg>
