<svg xmlns="http://www.w3.org/2000/svg" fill="none" viewBox="0 0 480 360" height="360" width="480">
<path fill="black" d="M135 89L190 100L200 102L305 123L80 78L78.3333 81.6667L75 81L55 121V169L60 170V174L115 185V233L245 259L180 246L115 233V185L60 174V170L55 169V121L75 81L78.3333 81.6667L80 78L135 89Z"></path>
<path fill="black" d="M200 102L250 112L260 114L305 123L200 102Z"></path>
<path fill="black" d="M380 238L360 274L359.055 273.811L355 281L245 259L115 233V185L60 174V170L55 169V121L75 81L78.3333 81.6667L80 78L305 123L375 137L405 143L445 151V183L425 227L421.25 226.25L420 230L415 229L410 244L380 238Z"></path>
<path fill="black" d="M315 125L320 126L375 137L305 123L315 125Z"></path>
<path fill="black" d="M245 259L235 257L189 248L180 246L245 259Z"></path>
<path fill="black" d="M60 126L65 127V123L120 134V150L90 144V160L120 166V182L65 171V167L60 166V126Z"></path>
<path fill="black" d="M120 134L175 145V149L180 150V166V174V194L155 189V169L145 167V159L155 161V153V189L120 182V134Z"></path>
<path fill="black" d="M185 151V147L235 157V161L240 162V202L235 201V205L215 201L210 200L205 187L210 188V164V200L185 195V191L180 190V150L185 151Z"></path>
<path fill="black" d="M245 211V207L295 217V221L300 222V218V234V238V266L270 260V240L265 239V231L270 232V224V260L240 254V210L245 211Z"></path>
<path fill="black" d="M300 218L310 220L355 229V233L360 234V274L355 273V277L335 273L330 272L325 259L330 260V236V272L310 268L300 266V258V226V218Z"></path>
<path fill="black" d="M245 163V159L290 168L300 170V186L265 179L295 185V189L300 190V214L295 213V217L275 213L240 206V190L275 197L245 191V187L240 186V162L245 163Z"></path>
<path fill="black" d="M375 233V217L365 215V211L360 210V182L390 188L420 194V222L415 221V225L405 223V239L375 233Z"></path>
<path fill="black" d="M305 175V171L350 180L360 182V198L325 191L355 197V201L360 202V226L355 225V229L335 225L300 218V202L335 209L305 203V199L300 198V174L305 175Z"></path>
<path fill="black" d="M120 182L175 193V197L180 198V214V222V242L155 237V217L145 215V207L155 209V201V237L120 230V182Z"></path>
<path fill="black" d="M185 199V195L235 205V209L240 210V254V250L235 249V253L215 249L210 248L205 235L210 236V212V248L185 243V239L180 238V198L185 199Z"></path>
<path fill="white" d="M65 131L70 132V128L115 137V145L85 139V163L115 169V177L70 168V164L65 163V131Z"></path>
<path fill="white" d="M125 139L170 148V152L175 153V165L170 164V172L175 173V189L155 185V169L145 167V159L155 161V153L145 151V183L125 179V139Z"></path>
<path fill="white" d="M190 156V152L230 160V164L235 165V197L230 196V200L215 197L205 195V187L215 189V165L205 163V195L190 192V188L185 187V155L190 156Z"></path>
<path fill="white" d="M250 216V212L290 220V224L295 225V233V237V261L275 257V241L265 239V231L270 232L275 233V225L265 223V255L245 251V215L250 216Z"></path>
<path fill="white" d="M305 223L310 224L350 232V236L355 237V269L350 268V272L335 269L325 267V259L335 261V237L325 235V267L310 264L305 263V259V227V223Z"></path>
<path fill="white" d="M250 168V164L290 172L295 173V181L265 175V183L290 188V192L295 193V209L290 208V212L275 209L245 203V195L275 201V193L250 188V184L245 183V167L250 168Z"></path>
<path fill="white" d="M310 180V176L350 184L355 185V193L325 187V195L350 200V204L355 205V221L350 220V224L335 221L305 215V207L335 213V205L310 200V196L305 195V179L310 180Z"></path>
<path fill="white" d="M380 230V214L370 212V208L365 207V187L385 191V207L395 209V193L415 197V217L410 216V220L400 218V234L380 230Z"></path>
<path fill="white" d="M125 187L170 196V200L175 201V213L170 212V220L175 221V237L155 233V217L145 215V207L155 209V201L145 199V231L125 227V187Z"></path>
<path fill="white" d="M190 204V200L230 208V212L235 213V245L230 244V248L215 245L205 243V235L215 237V213L205 211V243L190 240V236L185 235V203L190 204Z"></path>
</svg>
