<svg xmlns="http://www.w3.org/2000/svg" fill="none" viewBox="0 0 200 200" height="200" width="200">
<path fill="#E3AA00" d="M5.49904 65.4992L25.4992 69.4992V85.4993L5.49904 81.4993V65.4992Z"></path>
<path fill="#997300" d="M25.4992 69.4992L27.4992 65.4992V81.4993L25.4992 85.4993V69.4992Z"></path>
<path fill="#FFBF00" d="M7.49905 61.4991L27.4992 65.4992L25.4992 69.4992L5.49904 65.4992L7.49905 61.4991Z"></path>
<path fill="#E3AA00" d="M7.49905 57.4986L27.4992 61.4986V65.4992L7.49905 61.4991V57.4986Z"></path>
<path fill="#997300" d="M27.4992 61.4986L35.4992 45.4985V49.4986L27.4992 65.4992V61.4986Z"></path>
<path fill="#FFBF00" d="M15.4991 41.4985L35.4992 45.4985L27.4992 61.4986L7.49905 57.4986L15.4991 41.4985Z"></path>
<path fill="#E3AA00" d="M27.4992 65.4992L32.4992 66.4992V82.4999L27.4992 81.4993V65.4992Z"></path>
<path fill="#997300" d="M32.4992 66.4992L40.4993 50.4991V66.4992L32.4992 82.4999V66.4992Z"></path>
<path fill="#FFBF00" d="M35.4992 49.4986L40.4993 50.4991L32.4992 66.4992L27.4992 65.4992L35.4992 49.4986Z"></path>
<path fill="#E3AA00" d="M2.49902 60.4991L7.49905 61.4991L5.49904 65.4992V77.0996L2.49902 76.4992V60.4991Z"></path>
<path fill="#FFBF00" d="M10.4991 44.4985L13.6807 45.1352L7.49905 57.4986V61.4991L2.49902 60.4991L10.4991 44.4985Z"></path>
<path fill="#997300" d="M35.4992 49.4986L37.4992 45.4985V49.8988L35.4992 49.4986Z"></path>
<path fill="#FFBF00" d="M17.4991 41.4985L37.4992 45.4985L35.4992 49.4986V45.4985L17.3173 41.8621L17.4991 41.4985Z"></path>
<path fill="#E3AA00" d="M27.4992 81.4993V85.4999L25.6807 85.1362L27.4992 81.4993Z"></path>
<path fill="#997300" d="M27.4992 81.4993L29.3175 81.8632L27.4992 85.4999V81.4993Z"></path>
<path fill="#E3AA00" d="M35.4992 71.4992L55.4993 75.4993V91.4994L35.4992 87.4993V71.4992Z"></path>
<path fill="#997300" d="M55.4993 75.4993L57.4994 71.4992V87.4993L55.4993 91.4994V75.4993Z"></path>
<path fill="#FFBF00" d="M37.4992 67.4992L57.4994 71.4992L55.4993 75.4993L35.4992 71.4992L37.4992 67.4992Z"></path>
<path fill="#E3AA00" d="M37.4992 63.4986L57.4994 67.4986V71.4992L37.4992 67.4992V63.4986Z"></path>
<path fill="#997300" d="M57.4994 67.4986L65.4994 51.4986V55.4986L57.4994 71.4992V67.4986Z"></path>
<path fill="#FFBF00" d="M45.4993 47.4985L65.4994 51.4986L57.4994 67.4986L37.4992 63.4986L45.4993 47.4985Z"></path>
<path fill="#E3AA00" d="M57.4994 71.4992L62.4994 72.4993V88.4999L57.4994 87.4993V71.4992Z"></path>
<path fill="#997300" d="M62.4994 72.4993L70.4994 56.4992V72.4993L62.4994 88.4999V72.4993Z"></path>
<path fill="#FFBF00" d="M65.4994 55.4986L70.4994 56.4992L62.4994 72.4993L57.4994 71.4992L65.4994 55.4986Z"></path>
<path fill="#E3AA00" d="M32.4992 66.4992L37.4992 67.4992L35.4992 71.4992V83.0996L32.4992 82.4999V66.4992Z"></path>
<path fill="#FFBF00" d="M40.4993 50.4991L43.6809 51.1352L37.4992 63.4986V67.4992L32.4992 66.4992L40.4993 50.4991Z"></path>
<path fill="#997300" d="M65.4994 55.4986L67.4994 51.4986V55.8988L65.4994 55.4986Z"></path>
<path fill="#FFBF00" d="M47.4993 47.4985L67.4994 51.4986L65.4994 55.4986V51.4986L47.3175 47.8621L47.4993 47.4985Z"></path>
<path fill="#E3AA00" d="M57.4994 87.4993V91.4999L55.6809 91.1362L57.4994 87.4993Z"></path>
<path fill="#997300" d="M57.4994 87.4993L59.3177 87.8632L57.4994 91.4999V87.4993Z"></path>
<path fill="#E3AA00" d="M65.4994 77.4993L85.4995 81.4993V97.4994L65.4994 93.4994V77.4993Z"></path>
<path fill="#997300" d="M85.4995 81.4993L87.4995 77.4993V93.4994L85.4995 97.4994V81.4993Z"></path>
<path fill="#FFBF00" d="M67.4994 73.4992L87.4995 77.4993L85.4995 81.4993L65.4994 77.4993L67.4994 73.4992Z"></path>
<path fill="#E3AA00" d="M67.4994 69.4986L87.4995 73.4987V77.4993L67.4994 73.4992V69.4986Z"></path>
<path fill="#997300" d="M87.4995 73.4987L95.4996 57.4986V61.4986L87.4995 77.4993V73.4987Z"></path>
<path fill="#FFBF00" d="M75.4995 53.4985L95.4996 57.4986L87.4995 73.4987L67.4994 69.4986L75.4995 53.4985Z"></path>
<path fill="#E3AA00" d="M87.4995 77.4993L92.4996 78.4993V94.5L87.4995 93.4994V77.4993Z"></path>
<path fill="#997300" d="M92.4996 78.4993L100.5 62.4992V78.4993L92.4996 94.5V78.4993Z"></path>
<path fill="#FFBF00" d="M95.4996 61.4986L100.5 62.4992L92.4996 78.4993L87.4995 77.4993L95.4996 61.4986Z"></path>
<path fill="#E3AA00" d="M62.4994 72.4993L67.4994 73.4992L65.4994 77.4993V89.0996L62.4994 88.4999V72.4993Z"></path>
<path fill="#FFBF00" d="M70.4994 56.4992L73.6811 57.1352L67.4994 69.4986V73.4992L62.4994 72.4993L70.4994 56.4992Z"></path>
<path fill="#997300" d="M95.4996 61.4986L97.4996 57.4986V61.8988L95.4996 61.4986Z"></path>
<path fill="#FFBF00" d="M77.4995 53.4985L97.4996 57.4986L95.4996 61.4986V57.4986L77.3176 53.8622L77.4995 53.4985Z"></path>
<path fill="#E3AA00" d="M87.4995 93.4994V97.5L85.6811 97.1363L87.4995 93.4994Z"></path>
<path fill="#997300" d="M87.4995 93.4994L89.3178 93.8633L87.4995 97.5V93.4994Z"></path>
<path fill="#E3AA00" d="M95.4996 83.4993L115.5 87.4993V103.499L95.4996 99.4994V83.4993Z"></path>
<path fill="#997300" d="M115.5 87.4993L117.5 83.4993V99.4994L115.5 103.499V87.4993Z"></path>
<path fill="#FFBF00" d="M97.4996 79.4992L117.5 83.4993L115.5 87.4993L95.4996 83.4993L97.4996 79.4992Z"></path>
<path fill="#E3AA00" d="M97.4996 75.4987L117.5 79.4987V83.4993L97.4996 79.4992V75.4987Z"></path>
<path fill="#997300" d="M117.5 79.4987L125.5 63.4986V67.4986L117.5 83.4993V79.4987Z"></path>
<path fill="#FFBF00" d="M105.5 59.4985L125.5 63.4986L117.5 79.4987L97.4996 75.4987L105.5 59.4985Z"></path>
<path fill="#E3AA00" d="M117.5 83.4993L122.5 84.4993V100.5L117.5 99.4994V83.4993Z"></path>
<path fill="#997300" d="M122.5 84.4993L130.5 68.4992V84.4993L122.5 100.5V84.4993Z"></path>
<path fill="#FFBF00" d="M125.5 67.4986L130.5 68.4992L122.5 84.4993L117.5 83.4993L125.5 67.4986Z"></path>
<path fill="#E3AA00" d="M92.4996 78.4993L97.4996 79.4992L95.4996 83.4993V95.0997L92.4996 94.5V78.4993Z"></path>
<path fill="#FFBF00" d="M100.5 62.4992L103.681 63.1353L97.4996 75.4987V79.4992L92.4996 78.4993L100.5 62.4992Z"></path>
<path fill="#997300" d="M125.5 67.4986L127.5 63.4986V67.8989L125.5 67.4986Z"></path>
<path fill="#FFBF00" d="M107.5 59.4985L127.5 63.4986L125.5 67.4986V63.4986L107.318 59.8622L107.5 59.4985Z"></path>
<path fill="#E3AA00" d="M117.5 99.4994V103.5L115.681 103.136L117.5 99.4994Z"></path>
<path fill="#997300" d="M117.5 99.4994L119.318 99.8633L117.5 103.5V99.4994Z"></path>
<path fill="#E3AA00" d="M115.5 71.4992L135.5 75.4993V91.4994L115.5 87.4993V71.4992Z"></path>
<path fill="#997300" d="M135.5 75.4993L137.5 71.4992V87.4993L135.5 91.4994V75.4993Z"></path>
<path fill="#FFBF00" d="M117.5 67.4992L137.5 71.4992L135.5 75.4993L115.5 71.4992L117.5 67.4992Z"></path>
<path fill="#E3AA00" d="M117.5 63.4986L137.5 67.4986V71.4992L117.5 67.4992V63.4986Z"></path>
<path fill="#997300" d="M137.5 67.4986L145.5 51.4986V55.4986L137.5 71.4992V67.4986Z"></path>
<path fill="#FFBF00" d="M125.5 47.4985L145.5 51.4986L137.5 67.4986L117.5 63.4986L125.5 47.4985Z"></path>
<path fill="#E3AA00" d="M137.5 71.4992L142.5 72.4993V88.4999L137.5 87.4993V71.4992Z"></path>
<path fill="#997300" d="M142.5 72.4993L150.5 56.4992V72.4993L142.5 88.4999V72.4993Z"></path>
<path fill="#FFBF00" d="M145.5 55.4986L150.5 56.4992L142.5 72.4993L137.5 71.4992L145.5 55.4986Z"></path>
<path fill="#E3AA00" d="M112.5 66.4992L117.5 67.4992L115.5 71.4992V83.0996L112.5 82.4999V66.4992Z"></path>
<path fill="#FFBF00" d="M120.5 50.4991L123.681 51.1352L117.5 63.4986V67.4992L112.5 66.4992L120.5 50.4991Z"></path>
<path fill="#997300" d="M145.5 55.4986L147.5 51.4986V55.8988L145.5 55.4986Z"></path>
<path fill="#FFBF00" d="M127.5 47.4985L147.5 51.4986L145.5 55.4986V51.4986L127.318 47.8621L127.5 47.4985Z"></path>
<path fill="#E3AA00" d="M137.5 87.4993V91.4999L135.681 91.1362L137.5 87.4993Z"></path>
<path fill="#997300" d="M137.5 87.4993L139.318 87.8632L137.5 91.4999V87.4993Z"></path>
<path fill="#C73F00" d="M18.4991 46.497L28.4992 48.4971L24.4992 56.4971L14.4991 54.4971L18.4991 46.497Z"></path>
<path fill="#C73F00" d="M78.4995 58.4971L88.4995 60.4972L84.4995 68.4972L74.4995 66.4972L78.4995 58.4971Z"></path>
<path fill="#B03800" d="M40.4993 76.4972L50.4993 78.4973V86.4973L40.4993 84.4973V76.4972Z"></path>
<path fill="#B03800" d="M100.5 88.4999L110.5 90.5V98.5001L100.5 96.5001V88.4999Z"></path>
<path fill="#FF7B00" d="M19.9991 48.997L24.9992 49.9971L22.9991 53.9971L17.9991 52.9971L19.9991 48.997Z"></path>
<path fill="#FF7B00" d="M79.9995 60.997L84.9995 61.9971L82.9995 65.9971L77.9995 64.9971L79.9995 60.997Z"></path>
<path fill="#CC6200" d="M42.9993 78.9972L47.9993 79.9973V83.9973L42.9993 82.9973V78.9972Z"></path>
<path fill="#CC6200" d="M103 90.9972L108 91.9973V95.9973L103 94.9973V90.9972Z"></path>
<path fill="#C73F00" d="M48.4993 52.497L58.4994 54.4971L54.4993 62.4971L44.4993 60.4971L48.4993 52.497Z"></path>
<path fill="#FF7B00" d="M49.9993 54.997L54.9993 55.9971L52.9993 59.9971L47.9993 58.9971L49.9993 54.997Z"></path>
<path fill="#C73F00" d="M108.5 64.4991L113.045 65.4082L112.5 66.4992V74.0992L104.5 72.4992L108.5 64.4991Z"></path>
<path fill="#FF7B00" d="M110 66.9991L112.5 67.4971V71.8992L108 70.9992L110 66.9991Z"></path>
<path fill="#B03800" d="M10.4991 70.4971L20.4991 72.4972V80.4972L10.4991 78.4972V70.4971Z"></path>
<path fill="#CC6200" d="M12.9991 72.9971L17.9991 73.9972V77.9972L12.9991 76.9972V72.9971Z"></path>
<path fill="#B03800" d="M70.4994 82.4999L80.4995 84.5V92.5L70.4994 90.5V82.4999Z"></path>
<path fill="#CC6200" d="M72.9995 84.9999L77.9995 86V90L72.9995 89V84.9999Z"></path>
<path fill="#CC6200" d="M12.9991 82.9993L17.9991 83.9994V89.9995L12.9991 88.9995V82.9993Z"></path>
<path fill="#B03800" d="M17.9991 83.9994L19.9995 84.3994V85.9988L17.9991 89.9995V83.9994Z"></path>
<path fill="#CE0377" d="M12.9991 88.9995L17.9991 89.9995L19.9995 85.9988V84.3994L23.2265 85.0448L19.4992 92.4994L9.49904 90.4995L12.9993 83.4988L12.9991 88.9995Z"></path>
<path fill="#9F015A" d="M9.49904 90.4995L19.4992 92.4994V94.9994L9.49904 92.9995V90.4995Z"></path>
<path fill="#9F015A" d="M19.4992 92.4994L23.2265 85.0448L23.4995 85.0994V86.9988L19.4992 94.9994V92.4994Z"></path>
<path fill="#9F015A" d="M9.49904 92.9995L19.4992 94.9994L26.9994 96.4991V103L9.49904 99.4997V92.9995Z"></path>
<path fill="#CE0377" d="M23.4995 86.9988L30.9993 88.4989L26.9994 96.4991L19.4992 94.9994L23.4995 86.9988Z"></path>
<path fill="#9F015A" d="M26.9994 96.4991L30.9993 88.4989L30.9997 94.999L26.9994 103V96.4991Z"></path>
<path fill="#CC6200" d="M43 88.9994L48 89.9995V95.9996L43 94.9995V88.9994Z"></path>
<path fill="#B03800" d="M48 89.9995L50.0004 90.3995V91.9989L48 95.9996V89.9995Z"></path>
<path fill="#CE0377" d="M43 94.9995L48 95.9996L50.0004 91.9989V90.3995L53.2275 91.0449L49.5001 98.4996L39.5 96.4996L43.0002 89.4989L43 94.9995Z"></path>
<path fill="#9F015A" d="M39.5 96.4996L49.5001 98.4996V101L39.5 98.9996V96.4996Z"></path>
<path fill="#9F015A" d="M49.5001 98.4996L53.2275 91.0449L53.5005 91.0995V92.9989L49.5001 101V98.4996Z"></path>
<path fill="#9F015A" d="M39.5 98.9996L49.5001 101L57.0003 102.499V109L39.5 105.5V98.9996Z"></path>
<path fill="#CE0377" d="M53.5005 92.9989L61.0002 94.499L57.0003 102.499L49.5001 101L53.5005 92.9989Z"></path>
<path fill="#9F015A" d="M57.0003 102.499L61.0002 94.499L61.0006 100.999L57.0003 109V102.499Z"></path>
<path fill="#CC6200" d="M73.0007 94.9996L78.0008 95.9996V102L73.0007 101V94.9996Z"></path>
<path fill="#B03800" d="M78.0008 95.9996L80.0011 96.3996V97.9991L78.0008 102V95.9996Z"></path>
<path fill="#CE0377" d="M73.0007 101L78.0008 102L80.0011 97.9991V96.3996L83.2282 97.0451L79.5009 104.5L69.5007 102.5L73.0009 95.499L73.0007 101Z"></path>
<path fill="#9F015A" d="M69.5007 102.5L79.5009 104.5V107L69.5007 105V102.5Z"></path>
<path fill="#9F015A" d="M79.5009 104.5L83.2282 97.0451L83.5012 97.0997V98.999L79.5009 107V104.5Z"></path>
<path fill="#9F015A" d="M69.5007 105L79.5009 107L87.001 108.499V115L69.5007 111.5V105Z"></path>
<path fill="#CE0377" d="M83.5012 98.999L91.0009 100.499L87.001 108.499L79.5009 107L83.5012 98.999Z"></path>
<path fill="#9F015A" d="M87.001 108.499L91.0009 100.499L91.0014 106.999L87.001 115V108.499Z"></path>
<path fill="#CC6200" d="M103.002 101L108.002 102V108L103.002 107V101Z"></path>
<path fill="#B03800" d="M108.002 102L110.002 102.4V103.999L108.002 108V102Z"></path>
<path fill="#CE0377" d="M103.002 107L108.002 108L110.002 103.999V102.4L113.229 103.045L109.502 110.5L99.5014 108.5L103.002 101.499L103.002 107Z"></path>
<path fill="#9F015A" d="M99.5014 108.5L109.502 110.5V113L99.5014 111V108.5Z"></path>
<path fill="#9F015A" d="M109.502 110.5L113.229 103.045L113.502 103.1V104.999L109.502 113V110.5Z"></path>
<path fill="#9F015A" d="M99.5014 111L109.502 113L117.002 114.499V121L99.5014 117.5V111Z"></path>
<path fill="#CE0377" d="M113.502 104.999L121.002 106.499L117.002 114.499L109.502 113L113.502 104.999Z"></path>
<path fill="#9F015A" d="M117.002 114.499L121.002 106.499L121.002 112.999L117.002 121V114.499Z"></path>
<path fill="#9F015A" d="M127.637 90.2258L129.002 90.4989V96.9994L124.682 96.1354L127.637 90.2258Z"></path>
<path fill="#CE0377" d="M129.138 90.227L129.002 90.4989L127.637 90.2258L127.773 89.9539L129.138 90.227Z"></path>
<path fill="#9F015A" d="M129.002 90.4989L129.138 90.227L132.093 90.818L129.002 96.9994V90.4989Z"></path>
<path fill="#3B230F" d="M144.5 75.4993L154.5 77.4994V83.4998L144.5 81.4992V75.4993Z"></path>
<path fill="#1E0E0D" d="M154.5 77.4994L158.5 69.4995V75.4993L154.5 83.4998V77.4994Z"></path>
<path fill="#805538" d="M148.5 67.4989L158.5 69.4995L154.5 77.4994L144.5 75.4993L148.5 67.4989Z"></path>
<path fill="black" d="M144 71.9986L145 69.9985V72.9986L144 74.9993V71.9986Z"></path>
<path fill="black" d="M148.003 63.4977L149.003 61.4976V64.4977L148.003 66.4983V63.4977Z"></path>
<path fill="white" d="M144.503 72.9985L145.003 71.9991V72.994L144.503 73.9941V72.9985Z"></path>
<path fill="white" d="M148.503 64.5022L149.003 63.5028V64.4977L148.503 65.4977V64.5022Z"></path>
<path fill="#CDCDCD" d="M119.999 44.5002L127.499 46.0003V48.0006L119.999 46.5V44.5002Z"></path>
<path fill="#1E0E0D" d="M127.499 46.0003L130.499 40.0004L127.499 48.0006V46.0003Z"></path>
<path fill="white" d="M122.999 38.4998L130.499 40.0004L127.499 46.0003L119.999 44.5002L122.999 38.4998Z"></path>
<path fill="#3B230F" d="M130.499 40.0004L137.999 41.5004V43.5008L130.499 40.0004Z"></path>
<path fill="#7E7E7E" d="M137.999 41.5004L140.999 35.5006V37.5003L137.999 43.5008V41.5004Z"></path>
<path fill="white" d="M133.499 34L140.999 35.5006L137.999 41.5004L130.499 40.0004L133.499 34Z"></path>
<path fill="#3B230F" d="M127.499 46.0003L135 47.5009V49.5012L127.499 48.0006V46.0003Z"></path>
<path fill="#1E0E0D" d="M135 47.5009L137.999 41.5004V43.5008L135 49.5012V47.5009Z"></path>
<path fill="#FFBF00" d="M130.499 40.0004L137.999 41.5004L135 47.5009L127.499 46.0003L130.499 40.0004Z"></path>
<path fill="#CDCDCD" d="M124.5 52.0013L132 53.5013V55.5016L124.5 54.001V52.0013Z"></path>
<path fill="#7E7E7E" d="M132 53.5013L135 47.5009V49.5012L132 55.5016V53.5013Z"></path>
<path fill="white" d="M127.499 46.0003L135 47.5009L132 53.5013L124.5 52.0013L127.499 46.0003Z"></path>
<path fill="#CDCDCD" d="M135 47.5009L142.5 49.0015V51.0018L135 49.5012V47.5009Z"></path>
<path fill="#7E7E7E" d="M142.5 49.0015L145.5 43.0016V45.0014L142.5 51.0018V49.0015Z"></path>
<path fill="white" d="M137.999 41.5004L145.5 43.0016L142.5 49.0015L135 47.5009L137.999 41.5004Z"></path>
<path fill="#00FF00" d="M131 55.3015L132 55.5016L133.499 52.502L133.5 59.0006L131 58.5V55.3015Z"></path>
<path fill="#008000" d="M133.499 52.502L134.499 50.5014V57.0003L133.5 59.0006L133.499 52.502Z"></path>
</svg>
