<svg xmlns="http://www.w3.org/2000/svg" fill="none" viewBox="0 0 200 200" height="200" width="200">
<path fill="#3A7A9E" d="M107 68.0003L112 69.0003V85.0003L122 87.0003V91.0003L127 92.0003V100L107 96.0003V68.0003Z"></path>
<path fill="#21476E" d="M127 92.0003L133 80.0003V88.0003L127 100V92.0003Z"></path>
<path fill="#21476E" d="M122 87.0003L128 75.0005V79.0001L122 91.0003V87.0003Z"></path>
<path fill="#21476E" d="M112 69.0003L118 56.9973V60.9969L112 73.0003V69.0003Z"></path>
<path fill="#21476E" d="M112 81.0003L113.813 81.3619L112 85.0003V81.0003Z"></path>
<path fill="#6BD9FC" d="M122 91.0003L128 79.0001L133 80.0003L127 92.0003L122 91.0003Z"></path>
<path fill="#6BD9FC" d="M112 85.0003L113.813 81.3619L117 81.9973L121.18 73.6363L128 75.0005L122 87.0003L112 85.0003Z"></path>
<path fill="#4E588C" d="M117 73.9973L123 61.9975V69.9971L117 81.9973V73.9973Z"></path>
<path fill="#8A95CB" d="M112 73.0003L117 73.9973V81.9973L112 81.0003V73.0003Z"></path>
<path fill="#F9FFFD" d="M118 60.9969L123 61.9939L117 73.9973L112 73.0003L118 60.9969Z"></path>
<path fill="#6BD9FC" d="M102 67.0003L108 54.9988L118 56.999L112 69.0003L102 67.0003Z"></path>
<path fill="#E4DDFF" d="M112 46.997L117 47.994L113 55.9925L108 54.9955L112 46.997Z"></path>
<path fill="#E4DDFF" d="M101.996 67.0034L106.996 68.0004L102.996 75.9988L97.9965 75.0018L101.996 67.0034Z"></path>
<path fill="#7E7BA6" d="M97.9965 75.0018L102.996 75.9988L102.996 79.9988L97.9965 79.0018V75.0018Z"></path>
<path fill="#494872" d="M102.996 75.9988L106.996 68.0004L106.996 72.0004L102.996 79.9988L102.996 75.9988Z"></path>
<path fill="#494872" d="M113 55.9925L117 47.994V51.994L114.816 56.362L113 55.9925Z"></path>
<path fill="#5C567A" d="M92.9966 74.0048L97.9965 75.0018V79.0018L92.9966 78.0048V74.0048Z"></path>
<path fill="#A798BF" d="M94.9966 70.0056L99.9965 71.0026L97.9965 75.0018L92.9966 74.0048L94.9966 70.0056Z"></path>
<path fill="#5C567A" d="M105 49.9992L110 50.9962L108.181 54.6335L105 53.9992V49.9992Z"></path>
<path fill="#A798BF" d="M107 46L112 46.997L110 50.9962L105 49.9992L107 46Z"></path>
<path fill="#256C88" d="M86.9997 92.0033L107 96.0003L127 100V104L86.9997 96.0033V92.0033Z"></path>
<path fill="#143F61" d="M127 100L133 88.0003V91.9999L127 104V100Z"></path>
<path fill="#F9FFFD" d="M103.907 78.1795L107 78.8011L107 91.9969L91.9997 88.9999L97.0901 78.8211L93.4566 78.0965L92.9966 78.0048L102.996 79.9988L103.907 78.1795Z"></path>
<path fill="#8A95CB" d="M91.9997 88.9999L107 91.9969V95.9969L91.9997 92.9999V88.9999Z"></path>
<path fill="#3A7A9E" d="M72.0002 80.9999V77L92 80.9999L91.9997 92.9999L67.0002 87.9999L67 80L72.0002 80.9999Z"></path>
<path fill="#256C88" d="M76.9997 82.0033L86.9997 84.0003V88.0003L76.9997 86.0033V82.0033Z"></path>
<path fill="#5C567A" d="M67.0002 87.9999L86.9997 92.0033V96.0033L67.0002 91.9999V87.9999Z"></path>
<path fill="#733E38" d="M72.0002 73L92 77V80.9999L72.0002 77V73Z"></path>
<path fill="#462321" d="M92 77L92.9966 75V74.0048V78.0048L93.4566 78.0965L92 80.9999V77Z"></path>
<path fill="#462321" d="M95.4503 70.0961L97.9999 64.9969V68.9965L97.2689 70.4587L94.9966 70.0056L95.4503 70.0961Z"></path>
<path fill="#CC7057" d="M78.0002 60.997L97.9999 64.9969L95.4503 70.0961L94.9966 70.0056L92.9966 74.0048V75L92 77L72.0002 73L78.0002 60.997Z"></path>
<path fill="#6BD9FC" d="M67 80L73.0001 67.9998L74.3631 68.2726L72.0002 73V80.9999L67 80Z"></path>
<path fill="#21476E" d="M92 80.9999L93.4566 78.0965L97.0901 78.8211L91.9997 88.9999L92 80.9999Z"></path>
<path fill="#21476E" d="M94.9966 70.0056L97.2689 70.4587L97.9999 68.9965L97.9965 70.6038L99.9965 71.0026L94.9966 70.0056Z"></path>
<path fill="#8F233B" d="M67.0003 83.9999L71.9954 85V88.9999L67.0002 87.9999L67.0003 83.9999Z"></path>
<path fill="#8A95CB" d="M76.9956 93.9999L81.9956 94.9999V98.9999L76.9956 97.9999V93.9999Z"></path>
<path fill="#2F273C" d="M71.9954 92.9998L76.9956 93.9999V97.9999L81.9956 98.9999V94.9999L86.9956 95.9998V104L71.9956 101L71.9954 92.9998Z"></path>
<path fill="#1B1829" d="M86.9956 95.9998L90.6318 96.7271L86.9956 104V95.9998Z"></path>
<path fill="#8A95CB" d="M112 101.002L117 102.002V106.002L112 105.002V101.002Z"></path>
<path fill="#2F273C" d="M107 100.002L112 101.002V105.002L117 106.002V102.002L122 103.002V111.002L107 108.002L107 100.002Z"></path>
<path fill="#1B1829" d="M122 103.002L125.636 103.729L122 111.002V103.002Z"></path>
</svg>
