<svg xmlns="http://www.w3.org/2000/svg" fill="none" viewBox="0 0 14 14" height="14" width="14">
<path stroke="black" fill="#F7E84D" d="M7.00002 13.5H6.99998L2.99998 13.4998L2.5 13.4998V12.9998V12.4998H2H1.5V11.9998V8.99981V8.49972L2.00009 8.49981L2.5 8.49991V7.5H2H1.5V7V4V3.5H2H2.5V2V1.5H3H12H12.5V2V2.5H13H13.5V3V5V7V7.5H13H12.5V8.49991L12.9999 8.49981L13.5 8.49972V8.99981V11.9998V12.4998H13H12.5V12.9998V13.4998L12 13.4998L7.00002 13.5ZM8.5 5.49986L7.5 5.49983V6.49986L8.5 6.49995V5.49986ZM7.5 9.49981V10.5L8.5 10.4999V9.49981H7.5Z"></path>
<path stroke="black" fill="#F7E84D" d="M6.00002 12.5H5.99997L2.99997 12.4998L2.5 12.4998V11.9998V11.4998H2H1.5V10.9998V7.99981V7.49972L2.00009 7.49981L2.5 7.49991V6.5H2H1.5V6V3V2.5H2H2.5V2V1.5H3H11H11.5V2V2.5H12H12.5V3V4V6V6.5H12H11.5V7.49991L11.9999 7.49981L12.5 7.49972V7.99981V10.9998V11.4998H12H11.5V11.9998V12.4998L11 12.4998L6.00002 12.5ZM7.5 4.49986L6.5 4.49983V5.49986L7.5 5.49995V4.49986ZM6.5 8.49981V9.49995L7.5 9.49986V8.49981H6.5Z"></path>
</svg>
