<svg xmlns="http://www.w3.org/2000/svg" fill="none" viewBox="0 0 200 200" height="200" width="200">
<path fill="#2C2E47" d="M109 95.0006L121 71.0008L111 69.0008L115 61.0006V69.8008L121 71.0008V87.0006L109 111.001V95.0006Z"></path>
<path fill="#4A4F65" d="M79 89.0006L94 92.0006V84.0008L104 86.0008V94.0006L109 95.0006V111.001L79 105.001V89.0006Z"></path>
<path fill="#878DA3" d="M90 56.0008L115 61.0006L111 69.0008L121 71.0008L109 95.0006L104 94.0006V86.0008L94 84.0008V92.0006L79 89.0006L90 56.0008Z"></path>
<path fill="#2C2E47" d="M104 86.0008L108 78.0013V86.0006L104 94.0006V86.0008Z"></path>
<path fill="#2381CB" d="M79 49.0005L94.0002 52.0004L94 92.0006L79 89.0006V49.0005Z"></path>
<path fill="#144B8B" d="M94.0002 52.0004L98.0002 44.0002L97.9999 76.0011L94 84.0008L94.0002 52.0004Z"></path>
<path fill="#144B8B" d="M108 34.0002L112 25.9998L112 78.0008L108 86.0006L108 34.0002Z"></path>
<path fill="#2381CB" d="M98.0002 44.0002L88 42.0002V30.0002L108 34.0002L108 78.0013L97.9999 76.0011L98.0002 44.0002Z"></path>
<path fill="#6DFFFF" d="M79 49.0005L88 31.0004V42.0002L98.0002 44.0002L94.0002 52.0004L79 49.0005Z"></path>
<path fill="#22578B" d="M108 62.0014L112 54.0019V62.0012L108 70.0012V62.0014Z"></path>
<path fill="#22578B" d="M94.0001 68.0008L98.0001 60.0013V68.0006L94.0001 76.0006V68.0008Z"></path>
<path fill="#3C92CB" d="M98.0001 60.0013L108 62.0014V70.0012L98.0001 68.0006V60.0013Z"></path>
<path fill="#3C92CB" d="M79.0001 65.0008L94.0001 68.0008V76.0006L79.0001 73.0001V65.0008Z"></path>
<path fill="#3C92CB" d="M79 49.0005L94.0002 52.0004V60.0002L79.0002 56.9997L79 49.0005Z"></path>
<path fill="#3C92CB" d="M88 30.0002L108 34.0002L108 42L88.0002 37.9994L88 30.0002Z"></path>
<path fill="#22578B" d="M94.0002 52.0004L98.0002 44.0002V51.9995L94.0002 60.0002V52.0004Z"></path>
<path fill="#22578B" d="M108 34.0002L112 25.9998L112 33.9993L108 42L108 34.0002Z"></path>
<path fill="#6DFFFF" d="M88 30.0002L92 22L112 25.9998L108 34.0002L88 30.0002Z"></path>
</svg>
