<svg xmlns="http://www.w3.org/2000/svg" fill="none" viewBox="0 0 200 200" height="200" width="200">
<path fill="#141520" d="M74.0091 90L104.009 96V100L74.0091 94V90Z"></path>
<path fill="#101018" d="M104.009 96L108.009 88V84L112.009 76V80L116.009 72V76L104.009 100V96Z"></path>
<path fill="#2A2E3D" d="M86.0091 66L116.009 72L112.009 80V76L108.009 84V88L104.009 96L74.0091 90L86.0091 66Z"></path>
<path fill="#22263C" d="M78.5091 80.5L103.509 85.5V91.5L78.5091 86.5V80.5Z"></path>
<path fill="#1D1D2C" d="M103.509 85.5L111.509 69.5V75.5L103.509 91.5V85.5Z"></path>
<path fill="#485374" d="M86.5091 64.5L111.509 69.5L103.509 85.5L78.5091 80.5L86.5091 64.5Z"></path>
<path fill="#444B68" d="M96.5091 66.5L88.5091 82.5L83.5091 81.5L91.5091 65.5L96.5091 66.5Z"></path>
<path fill="#444B68" d="M106.509 68.5L98.5091 84.5L93.5091 83.5L101.509 67.5L106.509 68.5Z"></path>
<path fill="#1B1A28" d="M88.5091 82.5V88.5L83.5091 87.5V81.5L88.5091 82.5Z"></path>
<path fill="#1B1A28" d="M98.5091 84.5V90.5L93.5091 89.5V83.5L98.5091 84.5Z"></path>
<path fill="#141520" d="M105.509 83.5L108.009 84V88L105.509 87.5V83.5Z"></path>
<path fill="#2A2E3D" d="M109.509 75.5L112.009 76L108.009 84L105.509 83.5L109.509 75.5Z"></path>
<path fill="#ADB39F" d="M114.509 76.5L127 79L123.009 87L110.509 84.5L114.509 76.5Z"></path>
<path fill="#453F3F" d="M127 79V87L123.009 95V87L127 79Z"></path>
<path fill="#535454" d="M123.009 87V95L110.509 92.5V84.5L123.009 87Z"></path>
<path fill="#141620" d="M118.009 88V90L115.509 89.5V87.5L118.009 88Z"></path>
<path fill="#ADB39F" d="M111.009 80L112.6 80.3182L110.6 84.3182L109.009 84L111.009 80Z"></path>
<path fill="#535454" d="M110.6 84.3182L110.509 84.5V88.3L109.009 88V84L110.6 84.3182Z"></path>
<path fill="#ADB39F" d="M96.5091 98.5L101.509 99.5L96.5091 109.5L89.0091 108L90.0091 106L92.5091 106.5L96.5091 98.5Z"></path>
<path fill="#453F3F" d="M101.509 99.5L102.418 99.6818L96.5091 111.5V109.5L101.509 99.5Z"></path>
<path fill="#535454" d="M96.5091 109.5V111.5L89.0091 110V108L96.5091 109.5Z"></path>
<path fill="#ADB39F" d="M111.009 64L118.509 65.5L115.327 71.8636L111.509 71.1V69.5L111.055 69.4091L112.509 66.5L110.009 66L111.009 64Z"></path>
<path fill="#453F3F" d="M118.509 65.5V67.5L116.009 72.5V72L115.327 71.8636L118.509 65.5Z"></path>
<path fill="#535454" d="M112.509 66.5L111.6 68.3182L110.009 68V66L112.509 66.5Z"></path>
<path fill="#ADB39F" d="M74 83L77.1901 83.638L75.1901 87.638L72 87L74 83Z"></path>
<path fill="#535454" d="M75.1901 87.638L74.281 89.4562L72.0004 89L72 87L75.1901 87.638Z"></path>
<path fill="#ADB39F" d="M78 75L80.9628 75.5926L78.9628 79.5926L76 79L78 75Z"></path>
<path fill="#535454" d="M78.9628 79.5926L78.5 80.5L78.5091 81L78.281 81.4562L76.0004 81L76 79L78.9628 79.5926Z"></path>
</svg>
