<svg xmlns="http://www.w3.org/2000/svg" fill="none" viewBox="0 0 300 300" height="300" width="300">
<path fill="#D0B324" d="M198 221L201 222V252L198 253V221Z"></path>
<path fill="#FFE12C" d="M198 253L201 252L210 255V257L198 253Z"></path>
<path fill="#FDD92D" d="M195 222L198 221V253L210 257L204 259L195 256V222Z"></path>
<path fill="#CB2741" d="M201 222L210 225V255L201 252V222Z"></path>
<path fill="#BFA197" d="M177 250L195 256L204 259L183 266L171 262V252L177 250Z"></path>
<path fill="#B89C93" d="M177 228L195 222V256L177 250V228Z"></path>
<path fill="#594139" d="M171 230L177 228V250L171 252V230Z"></path>
<path fill="black" d="M152.992 168L215.992 147V163L152.992 184V168Z"></path>
<path fill="#1B1B1B" d="M92.9971 148L152.995 168V184L92.9971 164V148Z"></path>
<path fill="#BFA195" d="M92.9971 164L152.995 184L215.992 163V161L222 163L152.995 186L87 164L92.9971 162V164Z"></path>
<path fill="#262626" d="M155.994 127L215.992 147L152.992 168L92.9938 148L155.994 127Z"></path>
<path fill="#1B1B1B" d="M146.997 62.0001L152.995 64.0001V150L146.997 148V62.0001Z"></path>
<path fill="black" d="M152.995 64.0001L161.995 61V147L152.995 150V64.0001Z"></path>
</svg>
