<svg xmlns="http://www.w3.org/2000/svg" fill="none" viewBox="0 0 80 116" height="116" width="80">
<path stroke-width="2" stroke="white" fill="#56C6F8" d="M2 113H1V3H2H3V2V1H77V2V3H78H79V113H78H77V114V115H3V114V113H2Z"></path>
<path fill="#8C702F" d="M34 41L44 43V45L49 46V48L51.5 48.5V50.5L49 50V52L41.5 50.5V52.5L36.5 51.5V55.5L41.5 56.5V58.5L49 60V62L51.5 62.5V64.5L49 64V66L44 65V67L34 65V63L29 62V60L26.5 59.5V55.5L24 55V47L26.5 47.5V43.5L29 44V42L34 43V41Z"></path>
<path fill="#FDC94F" d="M38 33L48 35L44 43L34 41L38 33Z"></path>
<path fill="#FDC94F" d="M48 37L53 38L49 46L44 45L48 37Z"></path>
<path fill="#FDC94F" d="M33 34L37.0909 34.8182L34 41V43L29 42L33 34Z"></path>
<path fill="#FDC94F" d="M30.5 35.5L32.0909 35.8182L29 42V44L26.5 43.5L30.5 35.5Z"></path>
<path fill="#FDC94F" d="M53 40L55.5 40.5L51.5 48.5L49 48L53 40Z"></path>
<path fill="#514221" d="M55.5 40.5L55.5 42.5L51.5 50.5V48.5L55.5 40.5Z"></path>
<path fill="#514221" d="M53 38V40L49 48V46L53 38Z"></path>
<path fill="#514221" d="M48 35V37L44 45V43L48 35Z"></path>
<path fill="#514221" d="M51.5 62.5L55.5 54.5V56.5L51.5 64.5V62.5Z"></path>
<path fill="#514221" d="M49 64L49.9091 64.1818L49 66V64Z"></path>
<path fill="#514221" d="M44 65L44.9091 65.1818L44 67V65Z"></path>
<path fill="#FDC94F" d="M28 39L28.6818 39.1364L26.5 43.5V47.5L24 47L28 39Z"></path>
<path fill="#514221" d="M49 60L53 52V54L49 62V60Z"></path>
<path fill="#514221" d="M41.5 56.5L44.2273 51.0455L45.1364 51.2273L41.5 58.5V56.5Z"></path>
<path fill="#514221" d="M41.5 50.5L42.4091 50.6818L41.5 52.5V50.5Z"></path>
<path fill="#FDC94F" d="M53 54L55.5 54.5L51.5 62.5L49 62L53 54Z"></path>
<path fill="#FDC94F" d="M49 51.2L53 52L49 60L41.5 58.5L45.1364 51.2273L49 52V51.2Z"></path>
<path fill="#FDC94F" d="M42.4091 50.6818L44.2273 51.0455L41.5 56.5L36.5 55.5V51.5L41.5 52.5L42.4091 50.6818Z"></path>
<path fill="#514221" d="M36.5 51.5L38.3182 51.8636L36.5 55.5V51.5Z"></path>
<path fill="white" d="M40 96H42V97H43V98H44V97H45V96H47V104H45V100H44V101H43V100H42V104H40V96Z"></path>
<path fill="white" d="M55 96H57V97H58V98H59V96H61V104H59V101H58V100H57V104H55V96Z"></path>
<path fill="white" d="M33 97H34V96H39V98H35V99V101V102H39V104H34V103H33V97Z"></path>
<path fill="white" d="M26 97H27V96H31V97H32V104H30V98H28V99H30V101H28V102V104H27H26V103V97Z"></path>
<path fill="white" d="M48 97H49V96H53V97H54V104H52V98H50V99H52V101H50V102V104H49H48V103V97Z"></path>
<path fill="white" d="M19 96H24V97H25V100H24V101H21V99H23V98H21V99V101V104H19V96Z"></path>
</svg>
