<svg xmlns="http://www.w3.org/2000/svg" fill="none" viewBox="0 0 200 200" height="200" width="200">
<path fill="#B31E1E" d="M146 36.0016L171 41.0016V45.0016L166 44.0016V52.0016L171 53.0016V57.0016L166 56.0016V64.0016L171 65.0016V69.0016L146 64.0016V36.0016Z"></path>
<path fill="#FF4B4B" d="M148 32.0016L173 37.0016L171 41.0016L146 36.0016L148 32.0016Z"></path>
<path fill="#FF4B4B" d="M168 48.0016L173 49.0016L171 53.0016L166 52.0016L168 48.0016Z"></path>
<path fill="#FF4B4B" d="M168 60.0016L173 61.0016L171 65.0016L166 64.0016L168 60.0016Z"></path>
<path fill="#770000" d="M173 65.0016V61.0016L171 65.0016V69.0016L173 65.0016Z"></path>
<path fill="#770000" d="M173 53.0016V49.0016L171 53.0016V57.0016L173 53.0016Z"></path>
<path fill="#770000" d="M173 41.0016V37.0016L171 41.0016V45.0016L173 41.0016Z"></path>
<path fill="#770000" d="M168 48.0016V44.4016L166 44.0016V52.0016L168 48.0016Z"></path>
<path fill="#770000" d="M168 60.0016V56.4016L166 56.0016V64.0016L168 60.0016Z"></path>
<path fill="#B31E1E" d="M133 29L148 32.0016V32L146 36.0016V59.6L133 57V29Z"></path>
<path fill="#FF4B4B" d="M135 25L150 28L146 36.0016L148 32V32.0016L133 29L135 25Z"></path>
<path fill="#770000" d="M146 64.0016V36.0016V59.6V64.0016Z"></path>
<path fill="#770000" d="M150 32.4016V28L148 32L150 32.4016Z"></path>
</svg>
