<svg xmlns="http://www.w3.org/2000/svg" fill="none" viewBox="0 0 200 200" height="200" width="200">
<path fill="#DFE3E4" d="M79 81L109 87V111L79 105V81Z"></path>
<path fill="#B0B3B8" d="M109 87L121 63V87L109 111V87Z"></path>
<path fill="#FFF4D9" d="M91 57L121 63L109 87L79 81L91 57Z"></path>
<path fill="#0B1419" d="M95.6667 89L97.3333 89.3333V102.667L95.6667 102.333V103.667L90.6667 102.667V101.333L89 101V97L90.6667 97.3333V96L95.6667 97V89Z"></path>
<path fill="#0B1419" d="M105.333 65L107 65.3333L100.333 78.6667L98.6667 78.3333L98 79.6667L93 78.6667L93.6667 77.3333L92 77L94 73L95.6667 73.3333L96.3333 72L101.333 73L105.333 65Z"></path>
<path fill="#0B1419" d="M116 77.6667L116.667 76V89.3333L116 91V92.3333L114 96.3333V95L113.333 96.3333V92.3333L114 91V89.6667L116 85.6667V77.6667Z"></path>
</svg>
