<svg xmlns="http://www.w3.org/2000/svg" fill="none" viewBox="0 0 14 14" height="14" width="14">
<path stroke="black" fill="white" d="M7.00002 13.5H6.99998L2.99998 13.4998L2.5 13.4998V12.9998V12.4998H2H1.5V11.9998V4V3.5H2H2.5V2V1.50001L2.99999 1.5L13 1.49981L13.5 1.4998V1.99981V4.99981V5.49981H13H12.5V5.99981V6.49981H13H13.5V6.99981V11.9998V12.4998H13H12.5V12.9998V13.4998L12 13.4998L7.00002 13.5ZM7.5 9.49981V10.5L8.5 10.4999V9.49981H7.5Z"></path>
<path stroke="black" fill="white" d="M6.00002 12.5H5.99997L2.99997 12.4998L2.5 12.4998V11.9998V11.4998H2H1.5V10.9998V3V2.5H2H2.5V2V1.50001L2.99999 1.5L12 1.49981L12.5 1.4998V1.99981V3.99981V4.49981H12H6.5V5.49981H11H11.5V5.99981V6.49981H12H12.5V6.99981V10.9998V11.4998H12H11.5V11.9998V12.4998L11 12.4998L6.00002 12.5ZM6.5 8.49981V9.49995L7.5 9.49986V8.49981H6.5Z"></path>
</svg>
