<svg xmlns="http://www.w3.org/2000/svg" fill="none" viewBox="0 0 480 360" height="360" width="480">
<path stroke-width="2" stroke="white" fill="#56C6F8" d="M87.0667 78.1H88.0667V77.1V76H391.933V77.1V78.1H392.933H394V281.9H392.933H391.933V282.9V284H88.0667V282.9V281.9H87.0667H86V78.1H87.0667Z"></path>
<path stroke-width="2" stroke="white" fill="#56C6F8" d="M141 242H142V241V240H338V241V242H339H340V248H339H338V249V250H142V249V248H141H140V242H141Z"></path>
<path fill="white" d="M192 196L189.143 196L189.143 194.5L187.714 194.5L187.714 193L186.286 193L186.286 194.5L184.857 194.5L184.857 196L182 196L182 184L184.857 184L184.857 190L186.286 190L186.286 188.5L187.714 188.5L187.714 190L189.143 190L189.143 184L192 184L192 196Z"></path>
<path fill="white" d="M194 185.5H195.5V184H201.5V185.5H203V187H200H197V193H200V187H203V194.5H201.5V196H195.5V194.5H194V185.5Z"></path>
<path fill="white" d="M204 185.5H205.5V184H211.5V185.5H213V187H210H207V193H210V187H213V194.5H211.5V196H205.5V194.5H204V185.5Z"></path>
<path fill="white" d="M215 185.5V184H216.5H222.5V185.5H224V187H221H218V193H221V187H224V194.5H222.5V196H216.5H215V194.5V185.5Z"></path>
<path fill="white" d="M246.5 185.5H248V184H254V185.5H255.5V187H252.5H249.5V193H252.5V187H255.5V194.5H254V196H248V194.5H246.5V185.5Z"></path>
<path fill="white" d="M267.5 184H275V185.5H276.5V190H275V191.5H276.5V196H273.5V193H272V191.5H270.5V188.5H273.5V187H270.5V188.5V191.5V196H267.5V184Z"></path>
<path fill="white" d="M257 185.5H258.5V184H264.5V185.5H266V196H263V187H260V188.5H263V191.5H260V193V196H258.5H257V194.5V185.5Z"></path>
<path fill="white" d="M278 185.5V184H279.5H285.5V185.5H287V187H284H281V193H284V187H287V194.5H285.5V196H279.5H278V194.5V185.5Z"></path>
<path fill="white" d="M236 184H243.5V185.5H245V188.5H243.5V191.5H245V194.5H243.5V196H239V193H242V191.5H240.5H239V188.5H242V187H239V188.5V191.5V196H236V184Z"></path>
<path fill="white" d="M293.5 165.5H295V164H302.5V167H296.5V168.5H299.5V171.5H296.5V173H302.5V176H295V174.5H293.5V165.5Z"></path>
<path fill="white" d="M272.5 165.5V164H274H281.5V167H278.5V173V176H275.5V173V167H272.5V165.5Z"></path>
<path fill="white" d="M290.5 164L292 164L292 165.5L292 176L289 176L289 171.5L286 171.5L286 176L283 176L283 164L286 164L286 168.5L289 168.5L289 164L290.5 164Z"></path>
<path fill="white" d="M198 165.5H199.5V164H207V167H201V168.5H204V171.5H201V173H207V176H199.5V174.5H198V165.5Z"></path>
<path fill="white" d="M208.5 165.5H210V164H217.5V167H211.5V168.5H214.5V171.5H211.5V173H217.5V176H210V174.5H208.5V165.5Z"></path>
<path fill="white" d="M177 165.5H178.5V164H186V167H180V168.5H184.5V170H186V174.5H184.5V176H177V173H183V171.5H178.5V170H177V165.5Z"></path>
<path fill="white" d="M288.5 185.5H290V184H297.5V187H291.5V188.5H296V190H297.5V194.5H296V196H288.5V193H294.5V191.5H290V190H288.5V185.5Z"></path>
<path fill="white" d="M219 165.5V164H220.5H226.5V165.5H228V167H225H222V173H225V167H228V174.5H226.5V176H220.5H219V174.5V165.5Z"></path>
<path fill="white" d="M187.5 164H195V165.5H196.5V170H195V171.5H190.5V168.5H193.5V167H190.5V168.5V171.5V176H187.5V164Z"></path>
<path fill="white" d="M251 165.5H252.5V164H260V167H254V168.5H257V171.5H254V173V176H252.5H251V174.5V165.5Z"></path>
<path fill="white" d="M240.5 165.5H242V164H248V165.5H249.5V167H246.5H243.5V173H246.5V167H249.5V174.5H248V176H242V174.5H240.5V165.5Z"></path>
<path fill="white" d="M234 99H236V97H246V101H238V103H242V107H238V109H246V113H236V111H234V99Z"></path>
<path fill="white" d="M248 99H250V97H260V101H252V103H256V107H252V109H260V113H250V111H248V99Z"></path>
<path fill="white" d="M206 99H208V97H218V101H210V103H216V105H218V111H216V113H206V109H214V107H208V105H206V99Z"></path>
<path fill="white" d="M262 99V97H264H272V99H274V101H270H266V109H270V101H274V111H272V113H264H262V111V99Z"></path>
<path fill="white" d="M220 97H230V99H232V105H230V107H224V103H228V101H224V103V107V113H220V97Z"></path>
<path fill="white" d="M105 103H107V99H111V97H119V99H123V103H125V111H123V113H121V109H123V105H121V101H117V99H113V101H109V105H107V109H109V113H107V111H105V103Z"></path>
<path fill="white" d="M114 106H116V108H114V106Z"></path>
<path fill="white" d="M115 105H117V107H115V105Z"></path>
<path fill="white" d="M116 104H118V106H116V104Z"></path>
<path fill="white" d="M117 103H119V105H117V103Z"></path>
<path fill="white" d="M357 241H359V249H357V241Z"></path>
<path fill="white" d="M115 241H117V249H115V241Z"></path>
<path fill="white" d="M110 244H114V246H110V244Z"></path>
<path fill="white" d="M360 242H361V241H365V242H366V243H364H362V247H364V243H366V248H365V249H361V248H360V242Z"></path>
<path fill="white" d="M118 242H119V241H123V242H124V243H122H120V247H122V243H124V248H123V249H119V248H118V242Z"></path>
</svg>
