<svg xmlns="http://www.w3.org/2000/svg" fill="none" viewBox="0 0 480 360" height="360" width="480">
<rect fill-opacity="0.9" fill="#6ACDEC" height="360" width="480"></rect>
<path stroke-width="2" stroke="white" fill="#56C6F8" d="M12 17H13V16V15H57V16V17H58H59V47H58H57V48V49H13V48V47H12H11V17H12Z"></path>
<path fill="white" d="M38 42L38 22L37 22L36 22L36 23L36 24L35 24L34 24L34 25L34 26L33 26L32 26L32 27L32 28L31 28L30 28L30 29L30 30L29 30L28 30L28 31L28 32L28 33L28 34L29 34L30 34L30 35L30 36L31 36L32 36L32 37L32 38L33 38L34 38L34 39L34 40L35 40L36 40L36 41L36 42L37 42L38 42Z"></path>
<path fill="white" d="M156 52H166V54H168V60H166V62H160V58H164V56H160V58V62V68H156V52Z"></path>
<path fill="white" d="M184 52H194V54H196V60H194V62H196V68H192V64H190V62H188V58H192V56H188V58V62V68H184V52Z"></path>
<path fill="white" d="M226 52H236V54H238V60H236V62H238V68H234V64H232V62H230V58H234V56H230V58V62V68H226V52Z"></path>
<path fill="white" d="M170 54H172V52H182V56H174V58H178V62H174V64H182V68H172V66H170V54Z"></path>
<path fill="white" d="M298 54H300V52H310V56H302V58H306V62H302V64H310V68H300V66H298V54Z"></path>
<path fill="white" d="M284 54H286V52H296V56H288V58V62V64H296V68H286V66H284V54Z"></path>
<path fill="white" d="M312 54H314V52H324V56H316V58H322V60H324V66H322V68H312V64H320V62H314V60H312V54Z"></path>
<path fill="white" d="M198 54H200V52H210V56H202V58H206V62H202V64V68H200H198V66V54Z"></path>
<path fill="white" d="M256 54H258V52H266V54H268V68H264V56H260V58H264V62H260V64V68H258H256V66V54Z"></path>
<path fill="white" d="M240 52H244V54H246V56H248V54H250V52H254V68H250V60H248V62H246V60H244V68H240V52Z"></path>
<path fill="white" d="M270 52H274V54H276V56H278V52H282V68H278V62H276V60H274V68H270V52Z"></path>
<path fill="white" d="M212 54H214V52H222V54H224V56H220H216V64H220V56H224V66H222V68H214V66H212V54Z"></path>
<path fill="white" d="M131.5 104H139V105.5H140.5V110H139V111.5H134.5V108.5H137.5V107H134.5V108.5V111.5V116H131.5V104Z"></path>
<path fill="white" d="M121 105.5H122.5V104H130V107H124V108.5H128.5V110H130V114.5H128.5V116H121V113H127V111.5H122.5V110H121V105.5Z"></path>
<path fill="white" d="M110.5 105.5V104H112H119.5V107H116.5V113H119.5V116H110.5V113H113.5V107H110.5V105.5Z"></path>
<path fill="white" d="M142 105.5V104H143.5H145V107V113H151V116H143.5V114.5H142V107V105.5Z"></path>
<path fill="white" d="M163 105.5V104H164.5H166V108.5H169V104H172V110H170.5V111.5H169V116H166V111.5H164.5V110H163V105.5Z"></path>
<path fill="white" d="M185 105.5V104H186.5H188V107H191V104H194V108.5H192.5V111.5H194V116H191V113H188V116H185V111.5H186.5V108.5H185V105.5Z"></path>
<path fill="white" d="M152.5 105.5H154V104H160V105.5H161.5V116H158.5V107H155.5V108.5H158.5V111.5H155.5V113V116H154H152.5V114.5V105.5Z"></path>
<path fill="white" d="M100 105.5V104H101.5H107.5V105.5H109V107H106H103V113H106V107H109V114.5H107.5V116H101.5H100V114.5V105.5Z"></path>
<path stroke-width="2" stroke="white" fill="#56C6F8" d="M210 107H211V106V105H377V106V107H378H379V113H378H377V114V115H211V114V113H210H209V107H210Z"></path>
<path fill="#FEA27D" d="M212 108V106H244V114H212V112H210V108H212Z"></path>
<path fill="white" d="M131.5 134H139V135.5H140.5V140H139V141.5H134.5V138.5H137.5V137H134.5V138.5V141.5V146H131.5V134Z"></path>
<path fill="white" d="M121 135.5H122.5V134H130V137H124V138.5H128.5V140H130V144.5H128.5V146H121V143H127V141.5H122.5V140H121V135.5Z"></path>
<path fill="white" d="M110.5 135.5V134H112H119.5V137H116.5V143H119.5V146H110.5V143H113.5V137H110.5V135.5Z"></path>
<path fill="white" d="M142 135.5V134H143.5H145V137V143H151V146H143.5V144.5H142V137V135.5Z"></path>
<path fill="white" d="M163 135.5V134H164.5H166V138.5H169V134H172V140H170.5V141.5H169V146H166V141.5H164.5V140H163V135.5Z"></path>
<path fill="white" d="M185 135.5V134H186.5H188V138.5H191V134H194V140H192.5V141.5H191V146H188V141.5H186.5V140H185V135.5Z"></path>
<path fill="white" d="M152.5 135.5H154V134H160V135.5H161.5V146H158.5V137H155.5V138.5H158.5V141.5H155.5V143V146H154H152.5V144.5V135.5Z"></path>
<path fill="white" d="M100 135.5V134H101.5H107.5V135.5H109V137H106H103V143H106V137H109V144.5H107.5V146H101.5H100V144.5V135.5Z"></path>
<path stroke-width="2" stroke="white" fill="#56C6F8" d="M210 137H211V136V135H377V136V137H378H379V143H378H377V144V145H211V144V143H210H209V137H210Z"></path>
<path fill="#FEA27D" d="M212 138V136H244V144H212V142H210V138H212Z"></path>
<path fill="white" d="M206 212H216V214H218V220H216V222H218V228H214V224H212V222H210V218H214V216H210V218V222V228H206V212Z"></path>
<path fill="white" d="M220 214H222V212H232V216H224V218H228V222H224V224H232V228H222V226H220V214Z"></path>
<path fill="white" d="M192 214H194V212H204V216H196V218V222V224H204V228H194V226H192V214Z"></path>
<path fill="white" d="M276 214H278V212H288V216H280V218H286V220H288V226H286V228H276V224H284V222H278V220H276V214Z"></path>
<path fill="white" d="M234 214V212H236H244V214H246V216H242H238V224H242V216H246V226H244V228H236H234V226V214Z"></path>
<path fill="white" d="M248 214V212H250H260V216H256V224H260V228H248V224H252V216H248V214Z"></path>
<path fill="white" d="M262 214V212H264H274V216H270V224V228H266V224V216H262V214Z"></path>
<path fill="white" d="M336 267.5V266H337.5H345V269H342V275V278H339V275V269H336V267.5Z"></path>
<path fill="white" d="M62 297.5V296H63.5H71V299H68V305V308H65V305V299H62V297.5Z"></path>
<path fill="white" d="M176.5 297.5V296H178H185.5V299H182.5V305V308H179.5V305V299H176.5V297.5Z"></path>
<path fill="white" d="M325.5 267.5H327V266H334.5V269H328.5V270.5H333V272H334.5V276.5H333V278H325.5V275H331.5V273.5H327V272H325.5V267.5Z"></path>
<path fill="white" d="M93.5 297.5H95V296H102.5V299H96.5V300.5H101V302H102.5V306.5H101V308H93.5V305H99.5V303.5H95V302H93.5V297.5Z"></path>
<path fill="white" d="M208 297.5H209.5V296H217V299H211V300.5H215.5V302H217V306.5H215.5V308H208V305H214V303.5H209.5V302H208V297.5Z"></path>
<path fill="white" d="M315 266H322.5V267.5H324V272H322.5V273.5H318V270.5H321V269H318V270.5V273.5V278H315V266Z"></path>
<path fill="white" d="M113.5 296H121V297.5H122.5V302H121V303.5H116.5V300.5H119.5V299H116.5V300.5V303.5V308H113.5V296Z"></path>
<path fill="white" d="M231 267.5V266H232.5H238.5V267.5H240V269H237H234V275H237V269H240V276.5H238.5V278H232.5H231V276.5V267.5Z"></path>
<path fill="white" d="M301 297.5V296H302.5H308.5V297.5H310V299H307H304V305H307V299H310V306.5H308.5V308H302.5H301V306.5V297.5Z"></path>
<path fill="white" d="M187.5 267.5H189V266H196.5V269H190.5V270.5H193.5V273.5H190.5V275H196.5V278H189V276.5H187.5V267.5Z"></path>
<path fill="white" d="M155.5 297.5H157V296H164.5V299H158.5V300.5H161.5V303.5H158.5V305H164.5V308H157V306.5H155.5V297.5Z"></path>
<path fill="white" d="M241.5 267.5H243V266H250.5V269H244.5V270.5H247.5V273.5H244.5V275H250.5V278H243V276.5H241.5V267.5Z"></path>
<path fill="white" d="M311.5 297.5H313V296H320.5V299H314.5V300.5H317.5V303.5H314.5V305H320.5V308H313V306.5H311.5V297.5Z"></path>
<path fill="white" d="M346.5 267.5H348V266H355.5V269H349.5V270.5H352.5V273.5H349.5V275H355.5V278H348V276.5H346.5V267.5Z"></path>
<path fill="white" d="M421.5 267.5H423V266H430.5V269H424.5V270.5H427.5V273.5H424.5V275H430.5V278H423V276.5H421.5V267.5Z"></path>
<path fill="white" d="M175.5 266H178.5V267.5H180V269H181.5V267.5H183V266H186V278H183V272H181.5V273.5H180V272H178.5V278H175.5V266Z"></path>
<path fill="white" d="M208.5 266H211.5V267.5H213V269H214.5V267.5H216V266H219V278H216V272H214.5V273.5H213V272H211.5V278H208.5V266Z"></path>
<path fill="white" d="M278.5 296H281.5V297.5H283V299H284.5V297.5H286V296H289V308H286V302H284.5V303.5H283V302H281.5V308H278.5V296Z"></path>
<path fill="white" d="M388.5 278L385.5 278L385.5 276.5L384 276.5L384 275L382.5 275L382.5 276.5L381 276.5L381 278L378 278L378 266L381 266L381 272L382.5 272L382.5 270.5L384 270.5L384 272L385.5 272L385.5 266L388.5 266L388.5 278Z"></path>
<path fill="white" d="M133.5 267.5V266H135H136.5V269V275H142.5V278H135V276.5H133.5V269V267.5Z"></path>
<path fill="white" d="M388 297.5V296H389.5H391V299V305H397V308H389.5V306.5H388V299V297.5Z"></path>
<path fill="white" d="M154 297.5V296H152.5H151V299V305H148V303.5H145V306.5H146.5V308H152.5V306.5H154V299V297.5Z"></path>
<path fill="white" d="M428.5 297.5V296H427H425.5V299V305H422.5V296H419.5V306.5H421V308H427V306.5H428.5V299V297.5Z"></path>
<path fill="white" d="M386.5 297.5V296H385H383.5V299V305H380.5V303.5H377.5V306.5H379V308H385V306.5H386.5V299V297.5Z"></path>
<path fill="white" d="M411 267.5V266H412.5H414V269V275H420V278H412.5V276.5H411V269V267.5Z"></path>
<path fill="white" d="M123 267.5H124.5V266H130.5V267.5H132V278H129V269H126V270.5H129V273.5H126V275V278H124.5H123V276.5V267.5Z"></path>
<path fill="white" d="M165 267.5H166.5V266H172.5V267.5H174V278H171V269H168V270.5H171V273.5H168V275V278H166.5H165V276.5V267.5Z"></path>
<path fill="white" d="M220.5 267.5H222V266H228V267.5H229.5V278H226.5V269H223.5V270.5H226.5V273.5H223.5V275V278H222H220.5V276.5V267.5Z"></path>
<path fill="white" d="M290.5 297.5H292V296H298V297.5H299.5V308H296.5V299H293.5V300.5H296.5V303.5H293.5V305V308H292H290.5V306.5V297.5Z"></path>
<path fill="white" d="M400.5 267.5H402V266H408V267.5H409.5V278H406.5V269H403.5V270.5H406.5V273.5H403.5V275V278H402H400.5V276.5V267.5Z"></path>
<path fill="white" d="M409 297.5H410.5V296H416.5V297.5H418V308H415V299H412V300.5H415V303.5H412V305V308H410.5H409V306.5V297.5Z"></path>
<path fill="white" d="M112.5 266H115.5V267.5H117V269H118.5V266H121.5V278H118.5V273.5H117V272H115.5V278H112.5V266Z"></path>
<path fill="white" d="M91.5 267.5H93V266H100.5V269H94.5V270.5V273.5V275H97.5V273.5H96V270.5H100.5V276.5V278H99H93V276.5H91.5V267.5Z"></path>
<path fill="white" d="M154.5 267.5H156V266H163.5V269H157.5V270.5V273.5V275H160.5V273.5H159V270.5H163.5V276.5V278H162H156V276.5H154.5V267.5Z"></path>
<path fill="white" d="M81 267.5V266H82.5H90V269H87V275H90V278H81V275H84V269H81V267.5Z"></path>
<path fill="white" d="M304.5 267.5V266H306H313.5V269H310.5V275H313.5V278H304.5V275H307.5V269H304.5V267.5Z"></path>
<path fill="white" d="M263.5 296H266.5V299H265V300.5H263.5L263.5 302H262V303.5H260.5L260.5 305L259 305V306.5H257.5V308H254.5V305L256 305V303.5H257.5V302H259V300.5L260.5 300.5L260.5 299H262V297.5H263.5V296Z"></path>
<path fill="white" d="M254.5 296H257.5V299H254.5L254.5 296Z"></path>
<path fill="white" d="M263.5 305L266.5 305L266.5 308L263.5 308L263.5 305Z"></path>
<path fill="white" d="M83 297.5V296H84.5H92V299H89V305H92V308H83V305H86V299H83V297.5Z"></path>
<path fill="white" d="M229 297.5L229 296H232L232 299V305L232 308H229V305V299V297.5Z"></path>
<path fill="white" d="M197.5 297.5V296H199H206.5V299H203.5V305H206.5V308H197.5V305H200.5V299H197.5V297.5Z"></path>
<path fill="white" d="M301.5 266L303 266L303 267.5L303 278L300 278L300 273.5L297 273.5L297 278L294 278L294 266L297 266L297 270.5L300 270.5L300 266L301.5 266Z"></path>
<path fill="white" d="M80 296L81.5 296L81.5 297.5L81.5 308L78.5 308L78.5 303.5L75.5 303.5L75.5 308L72.5 308L72.5 296L75.5 296L75.5 300.5L78.5 300.5L78.5 296L80 296Z"></path>
<path fill="white" d="M397.5 266L399 266L399 267.5L399 278L396 278L396 273.5L393 273.5L393 278L390 278L390 266L393 266L393 270.5L396 270.5L396 266L397.5 266Z"></path>
<path fill="white" d="M102 267.5V266H103.5H111V269H108V275H111V278H102V275H105V269H102V267.5Z"></path>
<path fill="white" d="M70.5 266H78V267.5H79.5V272H78V273.5H79.5V278H76.5V275H75V273.5H73.5V270.5H76.5V269H73.5V270.5V273.5V278H70.5V266Z"></path>
<path fill="white" d="M124 296H131.5V297.5H133V302H131.5V303.5H133V308H130V305H128.5V303.5H127V300.5H130V299H127V300.5V303.5V308H124V296Z"></path>
<path fill="white" d="M357 266H364.5V267.5H366V272H364.5V273.5H366V278H363V275H361.5V273.5H360V270.5H363V269H360V270.5V273.5V278H357V266Z"></path>
<path fill="white" d="M262.5 266H270V267.5H271.5V270.5H270V273.5H271.5V276.5H270V278H265.5V275H268.5V273.5H267H265.5V270.5H268.5V269H265.5V270.5V273.5V278H262.5V266Z"></path>
<path fill="white" d="M332.5 296H340V297.5H341.5V300.5H340V303.5H341.5V306.5H340V308H335.5V305H338.5V303.5H337H335.5V300.5H338.5V299H335.5V300.5V303.5V308H332.5V296Z"></path>
<path fill="white" d="M273 267.5V266H274.5H276V270.5H279V266H282V272H280.5V273.5H279V278H276V273.5H274.5V272H273V267.5Z"></path>
<path fill="white" d="M343 297.5V296H344.5H346V300.5H349V296H352V302H350.5V303.5H349V308H346V303.5H344.5V302H343V297.5Z"></path>
<path fill="white" d="M60 267.5H61.5V266H67.5V267.5H69V269H66H63V275H66V269H69V276.5H67.5V278H61.5V276.5H60V267.5Z"></path>
<path fill="white" d="M134.5 297.5H136V296H142V297.5H143.5V299H140.5H137.5V305H140.5V299H143.5V306.5H142V308H136V306.5H134.5V297.5Z"></path>
<path fill="white" d="M244 297.5H245.5V296H251.5V297.5H253V299H250H247V305H250V299H253V306.5H251.5V308H245.5V306.5H244V297.5Z"></path>
<path fill="white" d="M398.5 297.5H400V296H406V297.5H407.5V299H404.5H401.5V305H404.5V299H407.5V306.5H406V308H400V306.5H398.5V297.5Z"></path>
<path fill="white" d="M368.5 302H370V300.5H373V299H367V308H364V297.5H365.5V296H374.5L374.5 297.5H376V302V303.5H373H371.5V305H373V303.5H376V306.5H374.5V308H370V306.5H368.5V302Z"></path>
<path fill="white" d="M233.5 297.5H235V296H241V297.5H242.5V299H239.5H236.5V305H239.5V299H242.5V306.5H241V308H235V306.5H233.5V297.5Z"></path>
<path fill="white" d="M166 297.5H167.5V296H175V299H169V300.5V303.5V305H175V308H167.5V306.5H166V297.5Z"></path>
</svg>
