<svg xmlns="http://www.w3.org/2000/svg" fill="none" viewBox="0 0 480 360" height="360" width="480">
<rect fill-opacity="0.9" fill="#6ACDEC" height="360" width="480"></rect>
<path stroke-width="2" stroke="white" fill="#56C6F8" d="M12 13H13V12V11H57V12V13H58H59V47H58H57V48V49H13V48V47H12H11V13H12Z"></path>
<path fill="#2CACE8" d="M12 42H14V44H56V42H58V46H56V48H14V46H12V42Z"></path>
<path fill="white" d="M38 38L38 18L37 18L36 18L36 19L36 20L35 20L34 20L34 21L34 22L33 22L32 22L32 23L32 24L31 24L30 24L30 25L30 26L29 26L28 26L28 27L28 28L28 29L28 30L29 30L30 30L30 31L30 32L31 32L32 32L32 33L32 34L33 34L34 34L34 35L34 36L35 36L36 36L36 37L36 38L37 38L38 38Z"></path>
<path stroke-width="2" stroke="white" fill="#56C6F8" d="M82 149H83V148V147H177V148V149H178H179V243H178H177V244V245H83V244V243H82H81V149H82Z"></path>
<path fill="white" d="M140 192L120 192L120 196L140 196L140 192Z"></path>
<path fill="white" d="M132 204L132 184L128 184L128 204L132 204Z"></path>
<path fill="#2CACE8" d="M82 238H84V240H176V238H178V242H176V244H84V242H82V238Z"></path>
<path stroke-width="2" stroke="white" fill="#56C6F8" d="M302 149H303V148V147H397V148V149H398H399V243H398H397V244V245H303V244V243H302H301V149H302Z"></path>
<path fill="#2CACE8" d="M302 238H304V240H396V238H398V242H396V244H304V242H302V238Z"></path>
<path fill="white" d="M340 184V204H342H344V203V202H346H348V201V200H350H352V199V198H354H356V197V196H358H360V195V194V193V192H358H356V191V190H354H352V189V188H350H348V187V186H346H344V185V184H342H340Z"></path>
<path stroke-width="2" stroke="white" fill="#56C6F8" d="M192 153H193V152V151H287V152V153H288H289V243H288H287V244V245H193V244V243H192H191V153H192Z"></path>
<path fill="white" d="M241 198L241 188L239 188L239 198L235 198L235 200L237 200L237 202L239 202L239 204L241 204L241 202L243 202L243 200L245 200L245 198L241 198Z"></path>
<path fill="white" d="M247 206L233 206L233 208L247 208L247 206Z"></path>
<path fill="white" d="M124.5 261.5H126V260H133.5V263H127.5V264.5H130.5V267.5H127.5V269H133.5V272H126V270.5H124.5V261.5Z"></path>
<path fill="white" d="M114 260H117V261.5H118.5V263H120V260H123V272H120V267.5H118.5V266H117V272H114V260Z"></path>
<path fill="white" d="M145.5 272L142.5 272L142.5 270.5L141 270.5L141 269L139.5 269L139.5 270.5L138 270.5L138 272L135 272L135 260L138 260L138 266L139.5 266L139.5 264.5L141 264.5L141 266L142.5 266L142.5 260L145.5 260L145.5 272Z"></path>
<path fill="white" d="M231.5 260H239V261.5H240.5V266H239V267.5H234.5V264.5H237.5V263H234.5V264.5V267.5V272H231.5V260Z"></path>
<path fill="white" d="M252.5 260H260V261.5H261.5V266H260V267.5H261.5V272H258.5V269H257V267.5H255.5V264.5H258.5V263H255.5V264.5V267.5V272H252.5V260Z"></path>
<path fill="white" d="M219.5 260H222.5V261.5H224V263H225.5V261.5H227V260H230V272H227V266H225.5V267.5H224V266H222.5V272H219.5V260Z"></path>
<path fill="white" d="M242 261.5H243.5V260H249.5V261.5H251V263H248H245V269H248V263H251V270.5H249.5V272H243.5V270.5H242V261.5Z"></path>
<path fill="white" d="M209 261.5V260H210.5H218V263H215V269H218V272H209V269H212V263H209V261.5Z"></path>
<path fill="white" d="M263 261.5V260H264.5H272V263H269V269V272H266V269V263H263V261.5Z"></path>
<path fill="white" d="M311 88H321V90H323V96H321V98H323V104H319V100H317V98H315V94H319V92H315V94V98V104H311V88Z"></path>
<path fill="white" d="M297 90H299V88H307V90H309V92H305H301V100H305V92H309V102H307V104H299V102H297V90Z"></path>
<path fill="white" d="M171 90H173V88H183V92H175V94H179V98H175V100H183V104H173V102H171V90Z"></path>
<path fill="white" d="M199 90H201V88H211V92H203V94H207V98H203V100H211V104H201V102H199V90Z"></path>
<path fill="white" d="M241 90H243V88H253V92H245V94H249V98H245V100H253V104H243V102H241V90Z"></path>
<path fill="white" d="M269 90V88H271H281V92H277V100H281V104H269V100H273V92H269V90Z"></path>
<path fill="white" d="M283 90V88H285H295V92H291V100V104H287V100V92H283V90Z"></path>
<path fill="white" d="M255 90V88H257H265V90H267V92H263H259V100H263V92H267V102H265V104H257H255V102V90Z"></path>
<path fill="white" d="M157 90V88H159H161V92V100H169V104H159V102H157V92V90Z"></path>
<path fill="white" d="M213 90V88H215H217V92V100H225V104H215V102H213V92V90Z"></path>
<path fill="white" d="M197 90V88H195H193V92V98H189V88H185V100H187V102H189V104H193V102H195V100H197V92V90Z"></path>
<path fill="white" d="M351 261.5H352.5V260H358.5V261.5H360V272H357V263H354V264.5H357V267.5H354V269V272H352.5H351V270.5V261.5Z"></path>
<path fill="white" d="M340.5 261.5V260H342H343.5V263V269H349.5V272H342V270.5H340.5V263V261.5Z"></path>
<path fill="white" d="M361.5 261.5V260H363H364.5V264.5H367.5V260H370.5V266H369V267.5H367.5V272H364.5V267.5H363V266H361.5V261.5Z"></path>
<path fill="white" d="M330 260H337.5V261.5H339V266H337.5V267.5H333V264.5H336V263H333V264.5V267.5V272H330V260Z"></path>
</svg>
