<svg xmlns="http://www.w3.org/2000/svg" fill="none" viewBox="0 0 200 200" height="200" width="200">
<path fill="#946A52" d="M80.5 82.4998L108 87.9999V111L80.5 105.5V82.4998Z"></path>
<path fill="#553D38" d="M108 87.9999L123 58V81L108 111V87.9999Z"></path>
<path fill="#FFBF81" d="M95.5 52.5L123 58L108 87.9999L80.5 82.4998L95.5 52.5Z"></path>
<path fill="#D46841" d="M113.5 81.0002L117.25 81.7502L114.25 87.7501L110.5 87.0001L113.5 81.0002Z"></path>
<path fill="#763927" d="M110.5 87.0001L114.25 87.7501V95.7501L110.5 95.0001V87.0001Z"></path>
<path fill="#43221B" d="M114.25 87.7501L117.25 81.7502V89.7502L114.25 95.7501V87.7501Z"></path>
<path fill="#763927" d="M84 106.2L89 107.2V109L84 108V106.2Z"></path>
<path fill="#43221B" d="M89 107.2L89.8183 107.364L89 109V107.2Z"></path>
<path fill="#763927" d="M101.5 109.7L106.5 110.7V112.5L101.5 111.5V109.7Z"></path>
<path fill="#43221B" d="M106.5 110.7L107.318 110.864L106.5 112.5V110.7Z"></path>
<path fill="#D46841" d="M108.75 54.7505L113.75 55.7505L113.568 56.1137L108.568 55.1137L108.75 54.7505Z"></path>
<path fill="#43221B" d="M113.568 56.1137L113.75 55.7505V56.15L113.568 56.1137Z"></path>
<path fill="#D46841" d="M82.25 74.7504L84.1816 75.1367L81.1817 81.1366L79.25 80.7502L82.25 74.7504Z"></path>
<path fill="#763927" d="M79.25 80.7502L81.1817 81.1366L80.5 82.4998V89.0002L79.25 88.7502V80.7502Z"></path>
<path fill="#D46841" d="M90.5 85.5L98 87L97 89L89.5 87.5L90.5 85.5Z"></path>
<path fill="#43221B" d="M97 89L98 87V91.0001L97 92.75V89Z"></path>
<path fill="#832B21" d="M92.5 87.0506L95 87.5506L94.5 88.5L92 88L92.5 87.0506Z"></path>
<path fill="#763927" d="M89.5 87.5L97 89V92.75L89.5 91.25V87.5Z"></path>
<path fill="#450E25" d="M92 88L94.5 88.5V90.5L92 90V88Z"></path>
<path fill="#481818" d="M103 89.0002L105.5 89.5002V91.5002L103 91.0002V89.0002Z"></path>
<path fill="#481818" d="M83 85L85.5 85.5V87.5L83 87V85Z"></path>
<path fill="#FFFFFE" d="M83 90.0505L105.5 94.5505L104.5 96.4999L82 91.9998L83 90.0505Z"></path>
<path fill="#5A577A" d="M104.5 96.4999L105.5 94.5505V106.5L104.5 108.25V96.4999Z"></path>
<path fill="#9794A9" d="M82 91.9998L104.5 96.4999V108.25L97.5 106.85L82 103.75V91.9998Z"></path>
<path fill="#481818" d="M84.5 96.5L87 97V99L84.5 98.5V96.5Z"></path>
<path fill="#481818" d="M99.5 99.5L102 100V102L99.5 101.5V99.5Z"></path>
<path fill="#F8B775" d="M89.5 96.5L97 98L96 100L88.5 98.5L89.5 96.5Z"></path>
<path fill="#503937" d="M96 100L97 98V101.25L96 103V100Z"></path>
<path fill="#832B21" d="M91.5 98.0506L94 98.5506L93.5 99.5L91 99L91.5 98.0506Z"></path>
<path fill="#9A6B37" d="M88.5 98.5L96 100V103L88.5 101.5V98.5Z"></path>
<path fill="#450E25" d="M91 99L93.5 99.5V101.5L91 101V99Z"></path>
<path fill="#8F8579" d="M82 96L84.5 96.5V98.5L87 99V97L82 96V94L89.5 95.5V96.5L88.5 98.5V101.3L82 100V96Z"></path>
<path fill="#9A6B37" d="M90.25 101.85L95.25 102.85V104.75L90.25 103.75V101.85Z"></path>
<path fill="#503937" d="M95.25 102.85L95.75 102.95V104L95.25 104.75V102.85Z"></path>
<path fill="#9C374F" d="M91.5 102.1L94 102.6V103.5L91.5 103V102.1Z"></path>
<path fill="#5D5D75" d="M92 105.75L94.5 106.25V108.25L92 107.75V105.75Z"></path>
<path fill="#40405A" d="M94.5 106.25L95 106.35V107.25L94.5 108.25V106.25Z"></path>
<path fill="#717092" d="M90 105.35L92 105.75V107.75L94.5 108.25L95 107.25V106.35L97.5 106.85V112.75L96.25 112.5V109.5L91.25 108.5V110.5L96.25 111.5V112.5L90 111.25V105.35Z"></path>
<path fill="#40405A" d="M97.5 106.85L98 106.95V111.75L97.5 112.75V106.85Z"></path>
<path fill="#40405A" d="M91.25 108.5L91.75 108.6V109.5L91.25 110.5V108.5Z"></path>
<path fill="#CFC6E3" d="M91.75 109.5L96.25 110.4V111.5L91.25 110.5L91.75 109.5Z"></path>
</svg>
