<svg xmlns="http://www.w3.org/2000/svg" fill="none" viewBox="0 0 300 300" height="300" width="300">
<path fill="#6E343D" d="M26.0004 130L166 158L166 166L26 137.986L26.0004 130Z"></path>
<path fill="#C55E62" d="M34.0004 114L174 142L166 158L26.0004 130L34.0004 114Z"></path>
<path fill="#3F1E2A" d="M174 142V150L172 154V150L168 158V162L166 166L166 158L174 142Z"></path>
<path fill="#6E343D" d="M172 150V154L170.182 153.622L172 150Z"></path>
<path fill="#F7A393" d="M164 139.986L169 140.986L161 156.986L156 155.986L164 139.986Z"></path>
<path fill="#875C5E" d="M156 155.986L161 156.986L161.001 164.986L156.001 163.986L156 155.986Z"></path>
<path fill="#F7A393" d="M143.998 135.986L153.998 137.986L145.998 153.986L135.998 151.986L143.998 135.986Z"></path>
<path fill="#875C5E" d="M135.998 151.986L145.998 153.986L145.998 161.986L135.998 159.986L135.998 151.986Z"></path>
<path fill="#F7A393" d="M103.998 127.986L113.998 129.986L105.998 145.986L95.998 143.986L103.998 127.986Z"></path>
<path fill="#875C5E" d="M95.998 143.986L105.998 145.986L105.999 153.986L95.9987 151.986L95.998 143.986Z"></path>
<path fill="#F7A393" d="M123.999 131.986L128.999 132.986L120.999 148.986L115.999 147.986L123.999 131.986Z"></path>
<path fill="#875C5E" d="M115.999 147.986L120.999 148.986L121 156.986L116 155.986L115.999 147.986Z"></path>
<path fill="#F7A393" d="M83.9993 123.995L88.9993 124.995L80.9993 140.995L75.9993 139.995L83.9993 123.995Z"></path>
<path fill="#875C5E" d="M75.9993 139.995L80.9993 140.995L81 148.995L76 147.995L75.9993 139.995Z"></path>
<path fill="#F7A393" d="M63.9993 119.986L73.9993 121.986L65.9993 137.986L55.9994 135.986L63.9993 119.986Z"></path>
<path fill="#875C5E" d="M55.9994 135.986L65.9993 137.986L66 145.986L56 143.986L55.9994 135.986Z"></path>
<path fill="#F7A393" d="M39.0611 115L49.0611 117L41.0611 133L31.0612 131L39.0611 115Z"></path>
<path fill="#875C5E" d="M31.0612 131L41.0611 133L41.0618 141L31.0618 139L31.0612 131Z"></path>
</svg>
