<svg xmlns="http://www.w3.org/2000/svg" fill="none" viewBox="0 0 200 200" height="200" width="200">
<path fill="#721523" d="M97.4987 91.4996L102.499 92.4996V96.4996L97.4987 95.4996V91.4996Z"></path>
<path fill="#410C18" d="M102.499 92.4996L104.499 88.4981V92.4996L102.499 96.4996V92.4996Z"></path>
<path fill="#8787B7" d="M97.4987 87.4981L102.499 88.4996V92.4996L97.4987 91.4996V87.4981Z"></path>
<path fill="#4F507E" d="M102.499 88.4996L104.499 84.4982V88.4981L102.499 92.4996V88.4996Z"></path>
<path fill="#204F31" d="M97.4987 83.4981L102.499 84.4981V88.4996L97.4987 87.4981V83.4981Z"></path>
<path fill="#122E22" d="M102.499 84.4981L104.499 80.4982V84.4982L102.499 88.4996V84.4981Z"></path>
<path fill="#8787B7" d="M97.4987 79.5002L102.499 80.4975V84.4981L97.4987 83.4981V79.5002Z"></path>
<path fill="#4F507E" d="M102.499 80.4975L104.499 76.4976V80.4982L102.499 84.4981V80.4975Z"></path>
<path fill="#721523" d="M97.4987 75.5002L102.499 76.4985V80.4975L97.4987 79.5002V75.5002Z"></path>
<path fill="#410C18" d="M102.499 76.4985L104.499 72.4969V76.4976L102.499 80.4975V76.4985Z"></path>
<path fill="#8787B7" d="M97.4987 71.4969L102.499 72.4985V76.4985L97.4987 75.5002V71.4969Z"></path>
<path fill="#4F507E" d="M102.499 72.4985L104.499 68.497V72.4969L102.499 76.4985V72.4985Z"></path>
<path fill="#204F31" d="M97.4987 67.4969L102.499 68.4969V72.4985L97.4987 71.4969V67.4969Z"></path>
<path fill="#122E22" d="M102.499 68.4969L104.499 64.497V68.497L102.499 72.4985V68.4969Z"></path>
<path fill="#8787B7" d="M97.4987 63.4988L102.499 64.4992V68.4969L97.4987 67.4969V63.4988Z"></path>
<path fill="#4F507E" d="M102.499 64.4992L104.499 60.4993V64.497L102.499 68.4969V64.4992Z"></path>
<path fill="#F7F3FF" d="M97.4987 63.4988L99.4987 59.4997L104.499 60.4993L102.499 64.4992L97.4987 63.4988Z"></path>
<path fill="#8787B7" d="M97.4987 63.4988L102.499 64.4992V68.4969L97.4987 67.4969V63.4988Z"></path>
<path fill="#410C18" d="M100.499 68.4955L102.499 64.4956V68.4933L100.499 72.4932V68.4955Z"></path>
<path fill="#CD2738" d="M95.4988 67.4955L97.4987 63.496L102.499 64.4956L100.499 68.4955L95.4988 67.4955Z"></path>
<path fill="#4F507E" d="M98.4996 72.4954L100.499 68.4955V72.4932L98.4996 76.4931V72.4954Z"></path>
<path fill="#F7F3FF" d="M93.4996 71.4958L95.4988 67.4955L100.499 68.4955L98.4996 72.4954L93.4996 71.4958Z"></path>
<path fill="#122E22" d="M96.5 76.4958L98.4996 72.4954V76.4931L96.5 80.4935V76.4958Z"></path>
<path fill="#3A8D4E" d="M91.5 75.4962L93.4996 71.4958L98.4996 72.4954L96.5 76.4958L91.5 75.4962Z"></path>
<path fill="#204F31" d="M91.5039 75.4962L96.5039 76.4962V80.4977L91.5039 79.4962V75.4962Z"></path>
<path fill="#8787B7" d="M91.5068 79.5005L96.5068 80.4977V84.4983L91.5068 83.4983V79.5005Z"></path>
<path fill="#4F507E" d="M96.5068 80.4977L98.5068 76.4978V80.4984L96.5068 84.4983V80.4977Z"></path>
<path fill="#721523" d="M91.502 83.4983L96.502 84.4983V88.4983L91.502 87.4983V83.4983Z"></path>
<path fill="#410C18" d="M96.502 84.4983L98.502 80.4968V84.4983L96.502 88.4983V84.4983Z"></path>
</svg>
