<svg xmlns="http://www.w3.org/2000/svg" fill="none" viewBox="0 0 200 200" height="200" width="200">
<path fill="#0762CB" d="M74 88L78.9998 88.9969V76.9969L99 80.9969V108.997L74 103.997V100V96V88Z"></path>
<path fill="#8768BB" d="M74 100L99 104.997V108.997L74 103.997V100Z"></path>
<path fill="#0053AF" d="M74 96L99 100.997V104.997L74 100V96Z"></path>
<path fill="#003587" d="M111 56.9971V84.9971L99 108.997V80.9969L111 56.9971Z"></path>
<path fill="#00307A" d="M99 100.997L111 76.9971V80.9971L99 104.997V100.997Z"></path>
<path fill="#4F3C83" d="M99 104.997L111 80.9971V84.9971L99 108.997V104.997Z"></path>
<path fill="#0DAFFF" d="M78.9998 76.9969L90.9998 52.9971L111 56.9971L99 80.9969L78.9998 76.9969Z"></path>
<path fill="#0DAFFF" d="M74 88L78.9998 77.9974V88.9969L74 88Z"></path>
<path fill="#8F7223" d="M79 80.9969L89 82.9969V90.9969L78.9998 88.9969L79 80.9969Z"></path>
<path fill="#391D20" d="M89 82.9969L98.9998 84.9969L98.9997 92.9968L89 90.9969V82.9969Z"></path>
<path fill="#391D20" d="M79 96.9969L93.9998 99.9968L93.9997 111.997L78.9998 108.997L79 96.9969Z"></path>
<path fill="#832630" d="M83.9998 101.994L86.9997 102.594L88.9997 102.997V106.994L83.9998 105.994V101.994Z"></path>
<path fill="#201116" d="M93.9997 107.994L95.8193 108.358L93.9997 111.997V107.994Z"></path>
<path fill="#8995CB" d="M86 69.9952L90.9998 70.9969V66.9969L101 68.9952L101 76.9953L85.9999 73.9952L86 69.9952Z"></path>
<path fill="#4F588B" d="M109 52.9954L109 60.9972L101 76.9971L101 68.9952L109 52.9954Z"></path>
<path fill="#F9FFFF" d="M94 53.9962L97.1817 54.633L90.9998 66.9969L98.9998 50.9969L109 52.9954L101 68.9952L90.9998 66.9969V70.9969L86 69.9952L94 53.9962Z"></path>
<path fill="#FFB993" d="M99.9998 59.9984L105 60.9953L103 64.9984L97.9999 64.0016L99.9998 59.9984Z"></path>
<path fill="#FFB993" d="M91.9999 57.9926L95.1845 58.6275L93.1847 62.6307L90 61.9957L91.9999 57.9926Z"></path>
<path fill="#002E76" d="M87 95L89.0001 91V99L87 103V95Z"></path>
<path fill="#0050AB" d="M82 94.0031L87 95V103L82 102.003V94.0031Z"></path>
<path fill="#028FFF" d="M83.9999 90L89 90.9969L87 95L82 94.0031L83.9999 90Z"></path>
<path fill="#784731" d="M109.023 63L159.028 72.9971V112.997L109.023 103V63Z"></path>
<path fill="#452922" d="M159.028 72.9971L171.028 48.9971V89L167.028 97L163.028 104.999L159.028 112.997V72.9971Z"></path>
<path fill="#D97F4E" d="M121.024 39L171.028 48.9971L159.028 72.9971L109.023 63L121.024 39Z"></path>
<path fill="#93432F" d="M117.024 47L167.024 57L163.024 65L113.023 55L117.024 47Z"></path>
<path fill="#2F1514" d="M167.024 57L167.028 97L163.036 105.001L163.024 65L167.024 57Z"></path>
<path fill="#52251D" d="M124.036 77.9961L144.036 81.9965V97.9963L124.036 93.9964V77.9961Z"></path>
<path fill="#DF9358" d="M124.036 93.9964L144.036 97.9963V93.5963L126.036 89.9964L124.036 93.9964Z"></path>
<path fill="#452922" d="M124.036 77.9961L124.034 93.9964L126.036 89.9964V78.3961L124.036 77.9961Z"></path>
<path fill="#7B5338" d="M124.036 97.9963L144.036 101.996V97.9963L124.036 93.9964V97.9963Z"></path>
<path fill="#533F9B" d="M149.024 110.997L164.008 113.992L164.023 125.997L149.023 122.997L149.024 110.997Z"></path>
<path fill="#8D7F87" d="M154.023 115.997L159.024 116.994V120.994L154.023 119.994V115.997Z"></path>
<path fill="#2F256A" d="M164.008 113.992L166.008 109.992V121.992L164.023 125.997L164.008 113.992Z"></path>
<path fill="#04398B" d="M166.017 109.996L168.017 105.996V117.996L166.032 122.001L166.017 109.996Z"></path>
<path fill="#154248" d="M168.017 105.996L170.017 101.996V113.996L168.032 118.001L168.017 105.996Z"></path>
<path fill="#9573F7" d="M161.008 108.996L166.008 109.992L164.008 113.992L159.008 112.992L161.008 108.996Z"></path>
<path fill="#0DAFFF" d="M163.008 104.999L168.017 105.996L166.008 109.992L161.008 108.996L163.008 104.999Z"></path>
<path fill="#44CBA7" d="M165.028 100.999L170.017 101.996L168.017 105.996L163.008 104.996L165.028 100.999Z"></path>
<path fill="#154248" d="M170.037 102L172.037 98V110L170.053 114.005L170.037 102Z"></path>
<path fill="#44CBA7" d="M167.048 97.0031L172.037 98L170.037 102L165.028 100.999L167.048 97.0031Z"></path>
<path fill="#04398B" d="M172.057 98.0038L174.057 94.0038V106.004L172.073 110.008L172.057 98.0038Z"></path>
<path fill="#0DAFFF" d="M169.048 93.0062L174.057 94.0038L172.049 97.9999L167.048 97.0031L169.048 93.0062Z"></path>
<path fill="#2F256A" d="M174.028 93.9969L176 90V102L174.043 106.001L174.028 93.9969Z"></path>
<path fill="#9573F7" d="M171.028 89L176 90L174.028 93.9969L169.028 92.9968L171.028 89Z"></path>
<path fill="#533F9B" d="M129.015 107.001L143.999 109.996L144.015 122.001L129.015 119.001L129.015 107.001Z"></path>
<path fill="#8D7F87" d="M134.015 112.001L139.015 112.998V116.998L134.015 115.998V112.001Z"></path>
<path fill="#2F256A" d="M143.999 109.996L145.999 110.4V117.996L144.015 122.001L143.999 109.996Z"></path>
<path fill="#04398B" d="M145.999 110.4L148.008 110.801V114L146.023 118.005L145.999 110.4Z"></path>
<path fill="#154248" d="M148.008 110.801L149.024 111.005L149.023 111.986L148.023 114.005L148.008 110.801Z"></path>
<path fill="#533F9B" d="M109.023 103L124.008 105.996L124.024 118L109.023 115V103Z"></path>
<path fill="#8D7F87" d="M114.023 108L119.024 108.997V112.997L114.023 111.997V108Z"></path>
<path fill="#2F256A" d="M124.008 105.996L126.008 106.399V113.996L124.024 118L124.008 105.996Z"></path>
<path fill="#04398B" d="M126.008 106.399L128.017 106.8V109.999L126.032 114.004L126.008 106.399Z"></path>
<path fill="#154248" d="M128.017 106.8L129.032 107.004L129.032 107.986L128.032 110.004L128.017 106.8Z"></path>
<path fill="#99482B" d="M109.023 77V94.6066L101 93L109.023 77Z"></path>
<path fill="#55281B" d="M101 93L109.023 94.6066V102.606L101 101V93Z"></path>
<path fill="#154248" d="M91.9998 75.9969L93.9997 71.9938L93.9998 95.9969L91.9998 99.9969V75.9969Z"></path>
<path fill="#25726A" d="M86.9999 74.9985L91.9998 75.9969V99.9969L86.9999 99.0001V78.9985V74.9985Z"></path>
<path fill="#0D93B7" d="M88.9997 70.9969L93.9997 71.9938L91.9998 75.9969L86.9999 75L88.9997 70.9969Z"></path>
<path fill="#075372" d="M86.9999 75L91.9998 75.9969L91.9998 79.9969L86.9999 79.0001V75Z"></path>
<path fill="#075372" d="M86.9999 83.0001L91.9998 83.9969V87.9969L86.9999 87.0001V83.0001Z"></path>
<path fill="#04304E" d="M91.9998 83.9969L93.9997 79.9938L93.9997 83.9938L91.9998 87.9969V83.9969Z"></path>
<path fill="#075372" d="M87 91.0033L91.9999 92.0002L91.9999 96.0002L87 95.0033V91.0033Z"></path>
<path fill="#04304E" d="M91.9999 92.0002L93.9998 87.9971L93.9998 91.9971L91.9999 96.0002L91.9999 92.0002Z"></path>
<path fill="#0D93B7" d="M98.9999 73L104 73.9969L102 78.0001L97.0001 77.0032L98.9999 73Z"></path>
<path fill="#075372" d="M97.0001 77.0032L102 78.0001V82.0001L97.0001 81.0032V77.0032Z"></path>
<path fill="#44CBA7" d="M94 72.0031L98.9999 73L97.0001 77.0032L92.0001 76.0063L94 72.0031Z"></path>
<path fill="#25726A" d="M92.0001 76.0063L97.0001 77.0032V81.0032L92.0001 80.0063V76.0063Z"></path>
<path fill="#04304E" d="M102 78.0001L104 73.9969L104 77.9969L102 82.0001V78.0001Z"></path>
<path fill="#154248" d="M106 47.9969L108 43.9937V52.7954L106 52.3956L106 47.9969Z"></path>
<path fill="#25726A" d="M101 46.9984L106 47.9969L106 52.3956L101 51.3987V50.9984V46.9984Z"></path>
<path fill="#0D93B7" d="M103 42.9968L108 43.9937L106 47.9969L101 47L103 42.9968Z"></path>
<path fill="#075372" d="M101 47L106 47.9969L106 51.9969L101 51V47Z"></path>
<path fill="#0D93B7" d="M113 45L117.568 45.9108L115.568 49.9139L111 49.0031L113 45Z"></path>
<path fill="#075372" d="M111 49.0031L115.568 49.9139L113.748 53.551L111 53.0031V49.0031Z"></path>
<path fill="#44CBA7" d="M108 44.0031L113 45L111 49.0031L106 48.0062L108 44.0031Z"></path>
<path fill="#25726A" d="M106 48.0062L111 49.0031V53.0031L106 52.0062V48.0062Z"></path>
<path fill-opacity="0.1" fill="black" d="M124.057 44.0031L134.057 46L132.057 50.0031L122.058 48.0062L124.057 44.0031Z"></path>
<path fill-opacity="0.1" fill="black" d="M127.058 49.0047L137.058 51.0016L135.058 55.0047L125.058 53.0078L127.058 49.0047Z"></path>
<path fill-opacity="0.1" fill="black" d="M118.058 56.0065L128.058 58.0034L126.058 62.0065L116.058 60.0097L118.058 56.0065Z"></path>
<path fill-opacity="0.1" fill="black" d="M140.058 56.0065L150.058 58.0034L148.058 62.0065L138.058 60.0097L140.058 56.0065Z"></path>
<path fill-opacity="0.1" fill="black" d="M157.048 55.0047L167.048 57.0016L165.049 61.0048L155.049 59.0079L157.048 55.0047Z"></path>
<path fill-opacity="0.1" fill="black" d="M149.048 49.0031L164.048 52L162.048 56.0032L147.049 53.0063L149.048 49.0031Z"></path>
<path fill-opacity="0.1" fill="black" d="M143.058 61.0065L158.058 64.0033L156.058 68.0065L141.058 65.0096L143.058 61.0065Z"></path>
</svg>
