<svg xmlns="http://www.w3.org/2000/svg" fill="none" viewBox="0 0 300 300" height="300" width="300">
<path fill="#BE6EC6" d="M266 178L274 162L174 142L166 158L266 178Z"></path>
<path fill="#4D2A6E" d="M266 186L274 170V162L266 178V186Z"></path>
<path fill="#5A3262" d="M166 166L266 186V178L166 158V166Z"></path>
<path fill="#5C4094" d="M166 166L186 170V162L166 158V166Z"></path>
<path fill="#5C4094" d="M206 174L226 178V170L206 166V174Z"></path>
<path fill="#5C4094" d="M246 182L266 186V178L246 174V182Z"></path>
<path fill="#C086FE" d="M246 174L266 178L274 162L254 158L246 174Z"></path>
<path fill="#C086FE" d="M206 166L226 170L234 154L214 150L206 166Z"></path>
<path fill="#C086FE" d="M166 158L186 162L194 146L174 142L166 158Z"></path>
<path fill-opacity="0.1" fill="white" d="M173 155L183 157L187 149L177 147L173 155Z"></path>
<path fill-opacity="0.1" fill="white" d="M193 159L203 161L207 153L197 151L193 159Z"></path>
<path fill-opacity="0.1" fill="white" d="M213 163L223 165L227 157L217 155L213 163Z"></path>
<path fill-opacity="0.1" fill="white" d="M233 167L243 169L247 161L237 159L233 167Z"></path>
<path fill-opacity="0.1" fill="white" d="M253 171L263 173L267 165L257 163L253 171Z"></path>
<path fill="#493C82" d="M271 188L273 184V172L271 176V188Z"></path>
<path fill="#5D52A2" d="M268 187.4L271 188V176L268 182V187.4Z"></path>
<path fill="#493C82" d="M251 203L253 199V183.4L251 183V203Z"></path>
<path fill="#5D52A2" d="M246 202L251 203V183L246 182V202Z"></path>
<path fill="#493C82" d="M257 191L259 187V184.6L257 184.2V191Z"></path>
<path fill="#5D52A2" d="M253 190.2L257 191V184.2L253 183.4V190.2Z"></path>
<path fill="#493C82" d="M266 198L268 194V182L266 186V198Z"></path>
<path fill="#5D52A2" d="M261 197L266 198V186L261 185V197Z"></path>
<path fill="#493C82" d="M231 180L231.455 179.091L231 179V180Z"></path>
<path fill="#5D52A2" d="M228 179.4L231 180V179L228 178.4V179.4Z"></path>
<path fill="#493C82" d="M211 195L213 191V175.4L211 175V195Z"></path>
<path fill="#5D52A2" d="M206 194L211 195V175L206 174V194Z"></path>
<path fill="#493C82" d="M217 183L219 179V176.6L217 176.2V183Z"></path>
<path fill="#5D52A2" d="M213 182.2L217 183V176.2L213 175.4V182.2Z"></path>
<path fill="#493C82" d="M226 190L228 186V178.4L226 178V190Z"></path>
<path fill="#5D52A2" d="M221 189L226 190V178L221 177V189Z"></path>
<path fill="#493C82" d="M191 172L191.455 171.091L191 171V172Z"></path>
<path fill="#5D52A2" d="M188 171.4L191 172V171L188 170.4V171.4Z"></path>
<path fill="#493C82" d="M171 187L173 183V167.4L171 167V187Z"></path>
<path fill="#5D52A2" d="M166 186L171 187V167L166 166L166 186Z"></path>
<path fill="#493C82" d="M177 175L179 171V168.6L177 168.2V175Z"></path>
<path fill="#5D52A2" d="M173 174.2L177 175V168.2L173 167.4V174.2Z"></path>
<path fill="#493C82" d="M186 182L188 178V170.4L186 170L186 182Z"></path>
<path fill="#5D52A2" d="M181 181L186 182L186 170L181 169V181Z"></path>
<path fill="#61497D" d="M241.001 193L246.001 194L246 182L241.001 181V193Z"></path>
<path fill="#513765" d="M253 192L254 190L253 190.2V192Z"></path>
<path fill="#513765" d="M231 195L233 191V179.4L231 179V195Z"></path>
<path fill="#61497D" d="M226 194L231 195V179L226 178V194Z"></path>
<path fill="#513765" d="M234.001 185L236.001 181V180L234.001 179.6V185Z"></path>
<path fill="#61497D" d="M233 184.8L234.001 185V179.6L233 179.4V184.8Z"></path>
<path fill="#61497D" d="M201.001 185L206.001 186L206 174L201.001 173V185Z"></path>
<path fill="#513765" d="M191 187L193 183V171.4L191 171L191 187Z"></path>
<path fill="#61497D" d="M186 186L191 187L191 171L186 170V186Z"></path>
<path fill="#513765" d="M194.001 177L196.001 173V172L194.001 171.6V177Z"></path>
<path fill="#61497D" d="M193 176.8L194.001 177V171.6L193 171.4V176.8Z"></path>
<path fill="#5C4094" d="M126 158L146 162V154L126 150V158Z"></path>
<path fill="#C086FE" d="M126 150L146 154L154 138L134 134L126 150Z"></path>
<path fill-opacity="0.1" fill="white" d="M133 147L143 149L147 141L137 139L133 147Z"></path>
<path fill="#493C82" d="M131 179L133 175V159.4L131 159V179Z"></path>
<path fill="#5D52A2" d="M126 178L131 179V159L126 158L126 178Z"></path>
<path fill="#493C82" d="M137 167L139 163V160.6L137 160.2V167Z"></path>
<path fill="#5D52A2" d="M133 166.2L137 167V160.2L133 159.4V166.2Z"></path>
<path fill="#5D52A2" d="M141 173L146 174L146 162L141 161V173Z"></path>
<path fill="#61497D" d="M161.001 177L166.001 178L166 166L161.001 165V177Z"></path>
<path fill="#513765" d="M151 179L153 175V163.4L151 163L151 179Z"></path>
<path fill="#61497D" d="M146 178L151 179L151 163L146 162V178Z"></path>
<path fill="#513765" d="M154.001 169L156.001 165V164L154.001 163.6V169Z"></path>
<path fill="#61497D" d="M153 168.8L154.001 169V163.6L153 163.4V168.8Z"></path>
<path fill="#5A3262" d="M146 162L166 166V158L146 154V162Z"></path>
<path fill="#BE6EC6" d="M146 154L166 158L174 142L154 138L146 154Z"></path>
<path fill-opacity="0.1" fill="white" d="M153 151L163 153L167 145L157 143L153 151Z"></path>
</svg>
