<svg xmlns="http://www.w3.org/2000/svg" fill="none" viewBox="0 0 200 200" height="200" width="200">
<path fill="#F1FFFF" d="M95.5003 84.5002L110.5 87.5003L105.5 97.5001L90.5004 94.5002L95.5003 84.5002Z"></path>
<path fill="#51F7A3" d="M105.5 97.5001L110.5 87.5003V91.5001L104.5 103.5V101.5L105.5 99.4999V97.5001Z"></path>
<path fill="#70FFEB" d="M90.5004 94.5002L105.5 97.5001V99.4999L104.5 101.5V103.5L89.5004 100.5V98.4999L90.5004 96.5V94.5002Z"></path>
<path fill="#F1FFFF" d="M108.5 92.9999L111 93.5001L113.996 87.5001L119 88.5L114 98.5L106.5 97.0001L108.5 92.9999Z"></path>
<path fill="#70FFEB" d="M106.5 97.0001L114 98.5V98.9999L106.5 97.4999V97.0001Z"></path>
<path fill="#51F7A3" d="M114 98.5L119 88.5V89.0005L114 98.9999V98.5Z"></path>
<path fill="#7FACFF" d="M112.996 89.5027L118 90.4999L117 92.4997L111.996 91.4997L112.996 89.5027Z"></path>
<path fill="#000004" d="M117 92.4997L118 90.4999L118 91.5002L117 93.5001L117 92.4997Z"></path>
<path fill="#191F2B" d="M116.988 93.0239L116.738 93.5239L117 93.5001L116.988 93.0239Z"></path>
<path fill="#F1FFFF" d="M90.5004 96.5L105.5 99.4999L104.5 101.5L89.5004 98.4999L90.5004 96.5Z"></path>
<path fill="#F1FFFF" d="M84.0006 92.5L88.9965 82.5L94.0004 83.5L90.9972 89.4996L92.8185 89.8639L90.8217 93.8642L84.0006 92.5Z"></path>
<path fill="#70FFEB" d="M84.0006 92.5L90.8217 93.8642L90.5914 94.318L84.0005 92.9999L84.0006 92.5Z"></path>
<path fill="#51F7A3" d="M90.9972 89.4996L94.0004 83.5032V84.0036L91.2248 89.5451L90.9972 89.4996Z"></path>
<path fill="#7FACFF" d="M87.9972 84.5002L93.0011 85.4974L92.0012 87.4971L86.9972 86.4972L87.9972 84.5002Z"></path>
<path fill="#000004" d="M92.0012 87.4971L93.0011 85.4974L93.0012 85.9986L92.0012 87.9986L92.0012 87.4971Z"></path>
</svg>
