<svg xmlns="http://www.w3.org/2000/svg" fill="none" viewBox="0 0 200 200" height="200" width="200">
<path fill="#946A52" d="M77.5003 77.4999L115 84.9999V108L77.5003 100.5V77.4999Z"></path>
<path fill="#553D38" d="M115 84.9999L126 63V86L115 108V84.9999Z"></path>
<path fill="#FFBF81" d="M88.5003 55.5L126 63L115 84.9999L77.5003 77.4999L88.5003 55.5Z"></path>
<path fill="#D46841" d="M81.25 82.25L88.75 83.75L87.25 86.7499L79.75 85.2499L81.25 82.25Z"></path>
<path fill="#763927" d="M79.75 85.2499L87.25 86.7499V94.7499L79.75 93.2499V85.2499Z"></path>
<path fill="#43221B" d="M87.25 86.7499L88.75 83.75V91.75L87.25 94.7499V86.7499Z"></path>
<path fill="#763927" d="M108.5 106.7L113.5 107.7V109.5L108.5 108.5V106.7Z"></path>
<path fill="#43221B" d="M113.5 107.7L114.318 107.864L113.5 109.5V107.7Z"></path>
<path fill="#763927" d="M80 101L85 102V103.8L80 102.8V101Z"></path>
<path fill="#43221B" d="M85 102L85.8183 102.164L85 103.8V102Z"></path>
<path fill="#D46841" d="M121.5 76.0001L126.5 77.0001L124.5 81L119.5 80L121.5 76.0001Z"></path>
<path fill="#763927" d="M119.5 80L124.5 81V85L119.5 84V80Z"></path>
<path fill="#43221B" d="M124.5 81L126.5 77.0001V81.0001L124.5 85V81Z"></path>
<path fill="#D46841" d="M82 64.0015L84.0451 64.4105L81.045 70.4104L79 70.0013L82 64.0015Z"></path>
<path fill="#763927" d="M79 70.0013L81.045 70.4104L79.2269 74.0467L79 74.0013V70.0013Z"></path>
<path fill="#832B21" d="M80 68.0015L81 66.0016L82.25 66.2516L81.25 68.2515L80 68.0015Z"></path>
<path fill="#FFFFFE" d="M77.5003 82.3014L76 82.0014L77.5003 79.0008V82.3014Z"></path>
<path fill="#9794A9" d="M76 82.0014L77.5003 82.3014V94.3014L76 94.0014V82.0014Z"></path>
<path fill="#F8B775" d="M79.0001 73.5015L79 74.0013L79.2269 74.0467L77.5003 77.4999V78.7014L76.5001 78.5014L79.0001 73.5015Z"></path>
<path fill="#9A6B37" d="M76.5001 78.5014L77.5003 78.7014V79.0008L76.5001 81.0011V78.5014Z"></path>
<path fill="#832B21" d="M77.5002 76.501L78.5002 74.5011L78.9543 74.5919L77.9543 76.5918L77.5002 76.501Z"></path>
</svg>
