<svg xmlns="http://www.w3.org/2000/svg" fill="none" viewBox="0 0 200 200" height="200" width="200">
<path fill="#FBD103" d="M79 81L109 87V111L79 105V81Z"></path>
<path fill="#D2A702" d="M109 87L121 63V87L109 111V87Z"></path>
<path fill="#FDE20A" d="M91 57L121 63L109 87L79 81L91 57Z"></path>
<path fill="#735700" d="M81.5 83.5L84 84V86L81.5 85.5V83.5Z"></path>
<path fill="#735700" d="M81.5 101.5L84 102V104L81.5 103.5V101.5Z"></path>
<path fill="#735700" d="M104 88L106.5 88.5V90.5L104 90V88Z"></path>
<path fill="#735700" d="M104 106L106.5 106.5V108.5L104 108V106Z"></path>
<path fill="#473600" d="M110 87L111 85V87L110 89V87Z"></path>
<path fill="#473600" d="M110 105L111 103V105L110 107V105Z"></path>
<path fill="#473600" d="M119 69L120 66.9999V68.9999L119 71V69Z"></path>
<path fill="#473600" d="M119 87L120 84.9999V86.9999L119 89V87Z"></path>
<path fill="#B08500" d="M92.5 59.5L95 60L94 62L91.5 61.5L92.5 59.5Z"></path>
<path fill="#B08500" d="M115 64L117.5 64.5L116.5 66.5L114 66L115 64Z"></path>
<path fill="#B08500" d="M83.5 77.5L86 78L85 80L82.5 79.5L83.5 77.5Z"></path>
<path fill="#B08500" d="M106 82L108.5 82.5L107.5 84.5L105 84L106 82Z"></path>
<path fill="#E4E4E4" d="M88 87.6667L99.6667 90V98L95.5 97.1667V99.8333L92.1667 99.1667V93.8333L96.3333 94.6667V92L91.3333 91V93.6667L88 93V87.6667Z"></path>
<path fill="#E7E7E7" d="M92.1667 100.5L95.5 101.167V103.833L92.1667 103.167V100.5Z"></path>
<path fill="white" d="M97.6667 63.3333L109.333 65.6667L105.333 73.6667L101.167 72.8333L99.8333 75.5L96.5 74.8333L99.1667 69.5L103.333 70.3333L104.667 67.6667L99.6667 66.6667L98.3333 69.3333L95 68.6667L97.6667 63.3333Z"></path>
<path fill="white" d="M95.8333 76.1667L99.1667 76.8333L97.8333 79.5L94.5 78.8333L95.8333 76.1667Z"></path>
<path fill="#808080" d="M112.667 84.3333L117.333 75V83L115.667 86.3333V89L114.333 91.6667V86.3333L116 83V80.3333L114 84.3333V87L112.667 89.6667V84.3333Z"></path>
<path fill="#808080" d="M114.333 93L115.667 90.3333V93L114.333 95.6667V93Z"></path>
</svg>
