<svg xmlns="http://www.w3.org/2000/svg" fill="none" viewBox="0 0 200 200" height="200" width="200">
<path fill="#4F5065" d="M68.9978 55L113.998 64V100L68.9978 91.0001V55Z"></path>
<path fill="#26263E" d="M113.998 64L131.998 28V64L113.998 100V64Z"></path>
<path fill="#7D8093" d="M86.9978 19L131.998 28L113.998 64L68.9978 55L86.9978 19Z"></path>
<path fill="#4F5065" d="M75.9978 48.0006L110.998 55.0006V59.0006L75.9978 52.0006V48.0006Z"></path>
<path fill="#26263E" d="M110.998 55.0006L124.998 27.0006V31.0006L110.998 59.0006V55.0006Z"></path>
<path fill="#7D8093" d="M89.9978 20.0006L124.998 27.0006L110.998 55.0006L75.9978 48.0006L89.9978 20.0006Z"></path>
<path fill="#4F5065" d="M71.9972 64.001L106.997 71.001V99.001L71.9972 92.001V64.001Z"></path>
<path fill="#26263E" d="M106.997 71.001L108.997 67.001V95.001L106.997 99.001V71.001Z"></path>
<path fill="#7D8093" d="M73.9972 60.001L108.997 67.001L106.997 71.001L71.9972 64.001L73.9972 60.001Z"></path>
<path fill="#4F5065" d="M115.997 64.001L120.997 65.001V93.001L115.997 92.001V64.001Z"></path>
<path fill="#26263E" d="M120.997 65.001L134.997 37.001V65.001L120.997 93.001V65.001Z"></path>
<path fill="#7D8093" d="M129.997 36.001L134.997 37.001L120.997 65.001L115.997 64.001L129.997 36.001Z"></path>
<path fill="#4F5065" d="M66 54L69.1798 54.636L68.9978 55V82.5996L66 82.0001V54Z"></path>
<path fill="#7D8093" d="M80 26L83.1798 26.636L69.1798 54.636L66 54L80 26Z"></path>
<path fill="#26263E" d="M128.814 27.3632L128.997 26.9967V27.3999L128.814 27.3632Z"></path>
<path fill="#7D8093" d="M93.9973 19.9967L128.997 26.9967L128.814 27.3632L93.814 20.3632L93.9973 19.9967Z"></path>
<path fill="#4F5065" d="M108.005 27.9994L118 29.9984L116.186 33.6356L108.005 31.9994V27.9994Z"></path>
<path fill="#26263E" d="M104.005 36.0023L108.005 28.0018V32.0018L105.823 36.3646L104.005 36.0023Z"></path>
<path fill="#4E505D" d="M108.005 32.0018L116.186 33.6356L114.005 38L105.823 36.3646L108.005 32.0018Z"></path>
<path fill="#4F5065" d="M85.0049 41.002L90 42.001L88.1859 45.6381L85.0049 45.002V41.002Z"></path>
<path fill="#26263E" d="M83.0049 45.0049L85.0049 41.0043V45.0043L84.8235 45.3672L83.0049 45.0049Z"></path>
<path fill="#4E505D" d="M85.0049 45.0043L88.1859 45.6381L88.0049 46.0025L84.8235 45.3672L85.0049 45.0043Z"></path>
<path fill="#7D8093" d="M129.364 64.2747L133 65.002L129 73.002V65.002L129.364 64.2747Z"></path>
<path fill="#4F5065" d="M129.364 64.2747L129 65.002L133 57.0039V65.002L129.364 64.2747Z"></path>
<path fill="#7D8093" d="M125.182 68.6365L127 69L125 73V69L125.182 68.6365Z"></path>
<path fill="#4F5065" d="M125.182 68.6365L125 69L127 65.002V69L125.182 68.6365Z"></path>
<path fill="#26263E" d="M97 85L102 86.002V86.0001L98.8179 85.3643L97 89.0001V85Z"></path>
<path fill="#7D8093" d="M97 89.0001L98.8179 85.3643L102 86.0001V90.0001L97 89.0001Z"></path>
<path fill="#26263E" d="M82 74L83.8179 74.3643L84 74.4007V78.002L82 82.0001V74Z"></path>
<path fill="#7D8093" d="M82 82.0001L84 78.002V74.4007L83.8179 74.3643L92 76.002V84.0001L82 82.0001Z"></path>
<path fill="#333240" d="M84 74.4007L92 76.002V79.602L84 78.002V74.4007Z"></path>
</svg>
