<svg xmlns="http://www.w3.org/2000/svg" fill="none" viewBox="0 0 200 200" height="200" width="200">
<path fill="#4C1621" d="M99.9999 49L102 44.9969L102 69L99.9999 73.0001V49Z"></path>
<path fill="#832630" d="M95 48.0016L99.9999 49V73.0001L95 72.0032V52.0016V48.0016Z"></path>
<path fill="#48BD9F" d="M96.9999 44L102 44.9969L99.9999 49L95 48.0031L96.9999 44Z"></path>
<path fill="#276964" d="M95 48.0031L99.9999 49L99.9999 53.0001L95 52.0032V48.0031Z"></path>
<path fill="#276964" d="M95 56.0032L99.9999 57.0001V61.0001L95 60.0032V56.0032Z"></path>
<path fill="#173D44" d="M99.9999 57.0001L102 52.9969L102 56.9969L99.9999 61.0001V57.0001Z"></path>
<path fill="#276964" d="M95.0001 64.0064L100 65.0033L100 69.0033L95.0001 68.0064V64.0064Z"></path>
<path fill="#173D44" d="M100 65.0033L102 61.0002L102 65.0002L100 69.0033L100 65.0033Z"></path>
<path fill="#48BD9F" d="M107 46.0031L112 47L110 51.0032L105 50.0063L107 46.0031Z"></path>
<path fill="#276964" d="M105 50.0063L110 51.0032V55.0032L105 54.0063V50.0063Z"></path>
<path fill="#ED454C" d="M102 45.0063L107 46.0031L105 50.0063L100 49.0094L102 45.0063Z"></path>
<path fill="#832630" d="M100 49.0094L105 50.0063V54.0063L100 53.0094V49.0094Z"></path>
<path fill="#173D44" d="M110 51.0032L112 47L112 51L110 55.0032V51.0032Z"></path>
<path fill="#5A7D97" d="M65 95.9897L95 101.991L95.0001 106.003L65 99.9905V95.9897Z"></path>
<path fill="#34496A" d="M95 101.991L105 81.9869V85.9877L95.0001 106.003L95 101.991Z"></path>
<path fill="#1E35A7" d="M65 91.9893L95 97.9905V101.991L65 95.9897V91.9893Z"></path>
<path fill="#111F74" d="M95 97.9905L105 77.9865V81.9869L95 101.991V97.9905Z"></path>
<path fill="#243AAB" d="M65 83.9947L70 84.9949V72.9925L95 77.9935V97.997L65 91.9958V83.9947Z"></path>
<path fill="#152276" d="M95 77.9935L105 57.9895V77.9931L95 97.997V77.9935Z"></path>
<path fill="#4369FF" d="M70 72.9925L80.0001 52.9888L105 57.9927L95 77.9967L70 72.9925Z"></path>
<path fill="#4369FF" d="M65 83.9947L69.9999 73.993L70 84.9949L65 83.9947Z"></path>
<path fill="#8F7223" d="M69.9999 77.0005L79.9998 79.0009V86.9953L70 84.9949L69.9999 77.0005Z"></path>
<path fill="#391D20" d="M75 93.9962L90 96.9761L90.0152 109L75 105.971V93.9962Z"></path>
<path fill="#832630" d="M80.0239 102.999V98.9982L85.0152 99.9935L84.9987 103.985L80.0239 102.999Z"></path>
<path fill="#201116" d="M90 104.992L91.8038 105.352L90.0152 109L90 104.992Z"></path>
<path fill="#111F74" d="M78.0035 91.0082L79.9998 86.9953V94.9969L78.0035 99.0026V91.0082Z"></path>
<path fill="#375FFF" d="M72.9999 89.9959L74.9995 85.9951L79.9998 86.9953L78.0035 91.0082L72.9999 89.9959Z"></path>
<path fill="#1E35A7" d="M72.9999 97.9975V89.9959L78.0035 91.0082L77.9999 98.9977L72.9999 97.9975Z"></path>
<path fill="#4F588B" d="M96.999 66.003L102.999 54.0006V61.9949L96.999 73.9973V66.003Z"></path>
<path fill="#F9FFFF" d="M81.9859 63.0024L87.9859 51L102.999 54.0006L96.999 66.003L81.9859 63.0024Z"></path>
<path fill="#8995CB" d="M77.0038 66.003L81.9859 67.0032V63.0024L96.999 66.003V73.9973L77.0038 70.0185V66.003Z"></path>
<path fill="#F9FFFF" d="M77.0038 66.003L83.0038 54.0006L86.1683 54.6359L81.9859 63.0024V67.0032L77.0038 66.003Z"></path>
<path fill="#FFFFA7" d="M95.9991 57.0012L97.9987 53.0004L102.999 54.0006L101.003 58.0135L95.9991 57.0012Z"></path>
<path fill="#FFFFA7" d="M78.9982 62.0143L80.9978 58.0135L84.1564 58.6411L82.16 62.654L78.9982 62.0143Z"></path>
<path fill="#A3DFF3" d="M86.999 64.0043L88.9987 60.0035L93.9989 61.0037L92.0026 65.0167L86.999 64.0043Z"></path>
<path fill="#5A7D97" d="M86.999 68.0173L87.0023 64.0165L92.0026 65.0167V69.0296L86.999 68.0173Z"></path>
<path fill="#565548" d="M101.003 58.0135L103.002 54.0127L102.999 57.9978L101.003 62.0107V58.0135Z"></path>
<path fill="#391D20" d="M79.9998 79.0009L95 81.9869V89.9812L79.9998 86.9953V79.0009Z"></path>
<path fill="#5F2C1D" d="M97 82.0008L102 83.0012V99.0008L97 98.0004V82.0008Z"></path>
<path fill="#AB502F" d="M103 70L108 71.0004L102 83.0012L97 82.0008L103 70Z"></path>
<path fill="#361A14" d="M108 71.0004V87L102 99.0008V83.0012L108 71.0004Z"></path>
<path fill="#492830" d="M98 98.9963L118 102.997V118.996L98 114.996V98.9963Z"></path>
<path fill="#23131B" d="M122 94.9959V110.995L118 118.996V102.997L122 94.9959Z"></path>
<path fill="#83494C" d="M102 91.0014L122 95.0017L118 102.998L98 98.9974L102 91.0014Z"></path>
<path fill="#4D568B" d="M124 91.0022V107.002L122 111.003V95.0029L124 91.0022Z"></path>
<path fill="#F1FFFF" d="M104 87.0077L124 91.008L122 95.004L102 91.0037L104 87.0077Z"></path>
<path fill="#23131B" d="M128 83.0047V99.0043L124 107.005V91.0055L128 83.0047Z"></path>
<path fill="#83494C" d="M108 79.0102L128 83.0106L124 91.0066L104 87.0062L108 79.0102Z"></path>
<path fill="#4D568B" d="M132 74.9945V90.9941L128 98.9949V82.9953L132 74.9945Z"></path>
<path fill="#F1FFFF" d="M112 71L132 75.0004L128 82.9964L108 78.996L112 71Z"></path>
<path fill="#83494C" d="M103 103.994L113 105.994V113.994L103 111.993V103.994Z"></path>
<path fill="#23131B" d="M103 103.994L106.636 104.721L103 111.993V103.994Z"></path>
<path fill="#492830" d="M128 104.996L148 108.997V124.996L128 120.996V104.996Z"></path>
<path fill="#23131B" d="M152 100.996V116.995L148 124.996V108.997L152 100.996Z"></path>
<path fill="#83494C" d="M132 97.0014L152 101.002L148 108.998L128 104.997L132 97.0014Z"></path>
<path fill="#4D568B" d="M154 97.0022V113.002L152 117.003V101.003L154 97.0022Z"></path>
<path fill="#F1FFFF" d="M134 93.0077L154 97.008L152 101.004L132 97.0037L134 93.0077Z"></path>
<path fill="#23131B" d="M158 89.0047V105.004L154 113.005V97.0055L158 89.0047Z"></path>
<path fill="#83494C" d="M138 85.0102L158 89.0106L154 97.0066L134 93.0062L138 85.0102Z"></path>
<path fill="#4D568B" d="M162 80.9945V96.9941L158 104.995V88.9953L162 80.9945Z"></path>
<path fill="#F1FFFF" d="M142 77L162 81.0004L158 88.9964L138 84.996L142 77Z"></path>
<path fill="#83494C" d="M133 109.994L143 111.994V119.994L133 117.993V109.994Z"></path>
<path fill="#23131B" d="M133 109.994L136.636 110.721L133 117.993V109.994Z"></path>
<path fill="#492830" d="M153 109.996L173 113.997V129.996L153 125.996V109.996Z"></path>
<path fill="#23131B" d="M177 105.996V121.995L173 129.996V113.997L177 105.996Z"></path>
<path fill="#83494C" d="M157 102.001L177 106.002L173 113.998L153 109.997L157 102.001Z"></path>
<path fill="#4D568B" d="M179 102.002V118.002L177 122.003V106.003L179 102.002Z"></path>
<path fill="#F1FFFF" d="M159 98.0077L179 102.008L177 106.004L157 102.004L159 98.0077Z"></path>
<path fill="#23131B" d="M183 94.0047V110.004L179 118.005V102.005L183 94.0047Z"></path>
<path fill="#83494C" d="M163 90.0102L183 94.0106L179 102.007L159 98.0062L163 90.0102Z"></path>
<path fill="#4D568B" d="M187 85.9945V101.994L183 109.995V93.9953L187 85.9945Z"></path>
<path fill="#F1FFFF" d="M167 82L187 86.0004L183 93.9964L163 89.996L167 82Z"></path>
<path fill="#83494C" d="M158 114.994L168 116.994V124.994L158 122.993V114.994Z"></path>
<path fill="#23131B" d="M158 114.994L161.636 115.721L158 122.993V114.994Z"></path>
<path fill="#344497" d="M98 94.9996L168 109V113L98 98.9996V94.9996Z"></path>
<path fill="#1E276A" d="M168 109L182 80.9996V84.9996L168 113V109Z"></path>
<path fill="#5F7AF3" d="M112 66.9996L182 80.9996L168 109L98 94.9996L112 66.9996Z"></path>
<path fill-opacity="0.1" fill="black" d="M115 71.9996L170 82.9996L160 103L105 91.9996L105.035 92.001L115 71.9996Z"></path>
<path fill="#936B30" d="M105 63.9996L160 74.9996V103L105 91.9996V63.9996Z"></path>
<path fill="#8D611A" d="M105 56L160 67V74.9996L105 63.9996V56Z"></path>
<path fill="#997739" d="M105 76L150 85V101L105 91.9996V76Z"></path>
<path fill="#917C76" d="M105 48L160 59V67L105 56V48Z"></path>
<path fill="#564A52" d="M160 59L170 39V47L160 67V59Z"></path>
<path fill="#543A13" d="M160 67L170 47V54.9996L160 74.9996V67Z"></path>
<path fill="#584022" d="M160 74.9996L170 54.9996V82.9996L160 103V74.9996Z"></path>
<path fill="#FFDBB7" d="M115 28L170 39L160 59L105 48L115 28Z"></path>
<path fill-opacity="0.1" fill="white" d="M110.035 49.007L120.035 29.007L155.035 35.9996L145.035 56.0114V60.001L115.035 54.001V94.0054L110.035 93.001V49.007Z"></path>
<path fill-opacity="0.1" fill="white" d="M150 57L160 37L165.035 38.007L155 58V61.9939H155.035L150.035 60.9895L150 57Z"></path>
<path fill-opacity="0.1" fill="black" d="M160 103L170 82.9996L175.035 84.0067L165 104L165 104.004L160 103Z"></path>
<path fill="#4C1621" d="M87.9999 73L89.9998 68.9969L89.9999 93L87.9999 97.0001V73Z"></path>
<path fill="#832630" d="M83 72.0016L87.9999 73V97.0001L83 96.0032V76.0016V72.0016Z"></path>
<path fill="#48BD9F" d="M84.9999 68L89.9998 68.9969L87.9999 73L83 72.0031L84.9999 68Z"></path>
<path fill="#276964" d="M83 72.0031L87.9999 73L87.9999 77.0001L83 76.0032V72.0031Z"></path>
<path fill="#276964" d="M83 80.0032L87.9999 81.0001V85.0001L83 84.0032V80.0032Z"></path>
<path fill="#173D44" d="M87.9999 81.0001L89.9998 76.9969L89.9998 80.9969L87.9999 85.0001V81.0001Z"></path>
<path fill="#276964" d="M83.0001 88.0064L88 89.0033L88 93.0033L83.0001 92.0064V88.0064Z"></path>
<path fill="#173D44" d="M88 89.0033L89.9999 85.0002L89.9999 89.0002L88 93.0033L88 89.0033Z"></path>
<path fill="#48BD9F" d="M95.0001 70.0031L100 71L98.0001 75.0032L93.0002 74.0063L95.0001 70.0031Z"></path>
<path fill="#276964" d="M93.0002 74.0063L98.0001 75.0032V79.0032L93.0002 78.0063V74.0063Z"></path>
<path fill="#ED454C" d="M90.0001 69.0063L95.0001 70.0031L93.0002 74.0063L88.0003 73.0094L90.0001 69.0063Z"></path>
<path fill="#832630" d="M88.0003 73.0094L93.0002 74.0063V78.0063L88.0003 77.0094V73.0094Z"></path>
<path fill="#173D44" d="M98.0001 75.0032L100 71L100 75L98.0001 79.0032V75.0032Z"></path>
</svg>
