<svg xmlns="http://www.w3.org/2000/svg" fill="none" viewBox="0 0 200 200" height="200" width="200">
<path fill="#25252D" d="M65 116L115 126L135 86V85L85 75L66 113L65 115V116Z"></path>
<path fill="#14151A" d="M115 129L135 89V85L115 125L65 115V119L115 129Z"></path>
<path fill="#CC0101" d="M110 120L115 121V125L110 124V120Z"></path>
<path fill="#FF0000" d="M110 120L115 121L135 81L130 80L110 120Z"></path>
<path fill="#810000" d="M135 81L115 121V125L135 85V81Z"></path>
<path fill="#20202C" d="M67 103L117 113L119 109V113L117 117L67 107V103Z"></path>
<path fill="#3A3A44" d="M67 103L117 113L119 109L69 99L67 103Z"></path>
<path fill="#20202C" d="M81 75L131 85L133 81V85L131 89L81 79V75Z"></path>
<path fill="#3A3A44" d="M81 75L131 85L133 81L83 71L81 75Z"></path>
</svg>
