<svg xmlns="http://www.w3.org/2000/svg" fill="none" viewBox="0 0 400 300" height="300" width="400">
<path fill="#100E14" d="M206.997 153L204.997 157V161L206.997 157V153Z"></path>
<path fill="#100E14" d="M186.997 149L184.997 153V157L186.997 153V149Z"></path>
<path fill="#100E14" d="M62.0002 124L60.0002 128V132L62.0002 128V124Z"></path>
<path fill="#100E14" d="M42.0002 120L40.0002 124V128L42.0002 124V120Z"></path>
<path fill="black" d="M25.0004 117L214.996 155L230.996 123V127L214.996 159L25.0004 121V117Z"></path>
<path fill="#1A191E" d="M199.996 156L204.996 157V161L199.996 160V156Z"></path>
<path fill="#1A191E" d="M179.996 152L184.996 153V157L179.996 156V152Z"></path>
<path fill="#1A191E" d="M55.0001 127L60.0001 128V132L55.0001 131V127Z"></path>
<path fill="#1A191E" d="M35.0001 123L40.0001 124V128L35.0001 127V123Z"></path>
<path fill="#3572CB" d="M25.0001 85L214.996 123V151L25.0001 113V85Z"></path>
<path fill="#898FCB" d="M99.9965 100L139.996 108V136L99.9965 128V100Z"></path>
<path fill="#417FCA" d="M159.996 112L174.996 115V143L159.996 140V112Z"></path>
<path fill="#417FCA" d="M139.996 108L154.996 111V139L139.996 136V132V108Z"></path>
<path fill="#417FCA" d="M85.0021 96.9999L100.002 99.9999V124L139.996 132V136L85.0021 125V96.9999Z"></path>
<path fill="#417FCA" d="M65.002 93L80.002 96V124L65.002 121V93Z"></path>
<path fill="#2C95FF" d="M25.0004 85L214.997 123L230.997 91.0001L41.0004 53L40.7444 53.3488L39.0004 53L27.0004 77V81L25.0004 85Z"></path>
<path fill="#1954A0" d="M199.996 120L214.996 123V151L199.996 148V120Z"></path>
<path fill="#1954A0" d="M27.0018 77L216.996 115V119L27.0018 81V77Z"></path>
<path fill="#1954A0" d="M25.0001 85L40.0001 88V116L25.0001 113V85Z"></path>
<path fill="#0E3270" d="M214.997 123L216.997 119V115L228.997 91V95L230.997 91V119L228.997 123L216.997 147L214.997 151V123Z"></path>
<path fill="black" d="M174.996 119L189.996 122V130L174.996 127V119Z"></path>
<path fill="black" d="M204.996 125L209.996 126V134L204.996 133V125Z"></path>
<path fill="black" d="M144.996 113L169.996 118V126L144.996 121V113Z"></path>
<path fill="black" d="M129.997 110L139.997 112V120L129.997 118V110Z"></path>
<path fill="black" d="M99.9966 104L109.997 106V114L99.9966 112V104Z"></path>
<path fill="black" d="M114.997 107L124.997 109V117L114.997 115V107Z"></path>
<path fill="black" d="M70.0016 98.0002L95.0016 103V111L70.0016 106V98.0002Z"></path>
<path fill="black" d="M50.002 94.0001L65.002 97.0001V105L50.002 102V94.0001Z"></path>
<path fill="black" d="M25 89L35 91V99L25 97V89Z"></path>
<path fill="#A4BBFF" d="M191.997 87.9999L221.997 93.9999L213.997 110L183.997 104L191.997 87.9999Z"></path>
<path fill="#A4BBFF" d="M157.002 76.9998L191.997 83.9999L183.997 99.9999L149.002 92.9998L157.002 76.9998Z"></path>
<path fill="#A4BBFF" d="M191.997 83.9999V87.9999L183.997 104V99.9999L191.997 83.9999Z"></path>
<path fill="#A4BBFF" d="M107.002 70.9998L157.002 80.9998L149.002 96.9998L99.0021 86.9998L107.002 70.9998Z"></path>
<path fill="#A4BBFF" d="M72.0018 60L107.002 66.9998L99.0021 82.9998L64.0018 76L72.0018 60Z"></path>
<path fill="#A4BBFF" d="M42.0014 58L72.0015 64L64.0014 80L34.0014 74L42.0014 58Z"></path>
<path fill="#363D74" d="M230.997 119L214.997 151V155L230.997 123V119Z"></path>
<path fill="#363D74" d="M214.997 93.0002L210.997 101V105L214.997 97.0002V93.0002Z"></path>
<path fill="#363D74" d="M191.997 84.0002L183.997 100V104L191.997 88.0002V84.0002Z"></path>
<path fill="#363D74" d="M107.002 67.0002L99.002 83.0002V87.0002L107.002 71.0002V67.0002Z"></path>
<path fill="#363D74" d="M63 63L59 71V75L63 67V63Z"></path>
<path fill="#5B69A6" d="M25.0004 113L214.996 151V155L25.0004 117V113Z"></path>
<path fill="#5B69A6" d="M149.002 93L183.996 100V104L149.002 97V93Z"></path>
<path fill="#5B69A6" d="M200.996 99.0001L210.996 101V105L200.996 103V99.0001Z"></path>
<path fill="#5B69A6" d="M64.0018 76L98.9965 83V87L64.0018 80V76Z"></path>
<path fill="#5B69A6" d="M49.0001 69L58.9948 71V75L49.0001 73V69Z"></path>
<path fill="#95875A" d="M139.997 132L174.997 139V143L139.997 136V132Z"></path>
<path fill="#95875A" d="M65.0019 117L100.002 124V128L65.0019 121V117Z"></path>
<path fill="#95875A" d="M217 119L222 120V152L217 151V119Z"></path>
<path fill="#95875A" d="M227 99L232 100V128L227 127V99Z"></path>
<path fill="#101012" d="M193.997 93.9999L195.997 89.9999V97.9999L193.997 102V93.9999Z"></path>
<path fill="#101012" d="M199.997 82L201.997 78V86L199.997 90V82Z"></path>
<path fill="#101012" d="M205.997 92L209.997 84V92L205.997 100V92Z"></path>
<path fill="#101012" d="M59.0002 75L63.0002 67V71L59.0002 79V75Z"></path>
<path fill="#1A191E" d="M188.997 93L193.997 94V102L188.997 101V93Z"></path>
<path fill="#1A191E" d="M195.997 90.0001L205.997 92.0001V100L200.997 99.0001V95.0001L195.997 94V90.0001Z"></path>
<path fill="#1A191E" d="M49.0001 73L59.0001 75V79L49.0001 77V73Z"></path>
<path fill="#2F2F31" d="M188.997 93L196.997 77L201.997 78L199.997 82L209.997 84L205.997 92L195.997 90L193.997 94L188.997 93Z"></path>
<path fill="#77E3FF" d="M141.996 104.001L176.996 111.001L174.996 115.001L139.996 108.001L141.996 104.001Z"></path>
<path fill="#77E3FF" d="M66.9968 89L101.997 96L99.9967 100L64.9968 93L66.9968 89Z"></path>
<path fill="#62CCFF" d="M176.996 111.002L201.997 116.001L199.997 120.001L174.996 115.002L176.996 111.002Z"></path>
<path fill="#62CCFF" d="M156.996 107.001L161.996 108.002L159.996 112.002L154.996 111.001L156.996 107.001Z"></path>
<path fill="#62CCFF" d="M82.0019 92.0017L87.0019 93.002L85.0019 97.002L80.0019 96.0017L82.0019 92.0017Z"></path>
<path fill="#62CCFF" d="M42.0018 84L67.0019 89.0005L65.0019 93.0005L40.0018 88L42.0018 84Z"></path>
<path fill="#F9FFFF" d="M102.002 96L142.002 104L140.002 108L100.002 100L102.002 96Z"></path>
<path fill="#FFF38F" d="M217 119L222 120L234 96L229 95L217 119Z"></path>
<path fill="#FFF38F" d="M224 129V140L232 124L227 123L224 129Z"></path>
<path fill="#5B4E3E" d="M222 152V120L234 96V99.9999V128L232 124V104L224 120V140L232 124L234 128L222 152Z"></path>
<path fill="#898FCB" d="M35.0001 99L25.0001 97V101L30.0001 102V106L25.0001 105V109L35.0001 111V99Z"></path>
</svg>
