<svg xmlns="http://www.w3.org/2000/svg" fill="none" viewBox="0 0 200 200" height="200" width="200">
<path fill="#8C593E" d="M40 86.9993L115 101.999V109.999L40 94.9993V86.9993Z"></path>
<path fill="#91754B" d="M40 82.9993L55 85.9993L50 84.9993V72.9993L95 81.9993V93.9993L120 98.9993V102.999L115 101.999L40 86.9993V82.9993Z"></path>
<path fill="#FFD477" d="M54 54.9993L58.5455 55.9084L50 72.9993V84.9993L55 85.9993L40 82.9993L54 54.9993Z"></path>
<path fill="#FFD477" d="M64 45L109 54L95 81.9993L50 72.9993L64 45Z"></path>
<path fill="#FFD477" d="M109 66L134 71L120 98.9993L95 93.9993L109 66Z"></path>
<path fill="#5C4615" d="M109 54V66L95 93.9993V81.9993L109 54Z"></path>
<path fill="#5C4615" d="M134 71V75L120 102.999V98.9993L134 71Z"></path>
<path fill="#543229" d="M134 75V79L120 106.999V102.999L134 75Z"></path>
<path fill="#3D3758" d="M134 79V83L120 110.999V106.999L134 79Z"></path>
<path fill="#6B6082" d="M120 106.999V110.999L115 109.999V105.999L120 106.999Z"></path>
<path fill="#8C593E" d="M120 102.999V106.999L115 105.999V101.999L120 102.999Z"></path>
<path fill="#5A3322" d="M122 98.9993V102.999L120 106.999V102.999L122 98.9993Z"></path>
<path fill="#5A3322" d="M134 75V79L132 83V79L134 75Z"></path>
<path fill="#6B6082" d="M45 91.9993V95.9993L40 94.9993V90.9994L45 91.9993Z"></path>
<path fill="#438F9F" d="M95 85.9994V93.9993L70 88.9993V80.9993L95 85.9994Z"></path>
<path fill="#438F9F" d="M65 80V88L55 85.9993L55 78L65 80Z"></path>
<path fill="#E3DDFF" d="M95 89.9993L93 93.9993L88 92.9993L90 88.9993L95 89.9993Z"></path>
<path fill="#7E7BA7" d="M93 93.9993V101.999L88 100.999V92.9993L93 93.9993Z"></path>
<path fill="#484874" d="M95 89.9993V97.9993L93 101.999V93.9993L95 89.9993Z"></path>
<path fill="#275471" d="M109 57.9999V66L95 93.9993V85.9994L109 57.9999Z"></path>
<path fill="#7E7BA6" d="M55.0018 97.9997L60.0018 98.9997V103L55.0018 102V97.9997Z"></path>
<path fill="#2F283A" d="M50.0016 96.9997L55.0018 97.9997V102L60.0018 103V98.9997L65.0018 99.9997V108L50.0018 105L50.0016 96.9997Z"></path>
<path fill="#191828" d="M65.0018 99.9997L68.638 100.727L65.0018 108V99.9997Z"></path>
<path fill="#7E7BA6" d="M100 107L105 108V112L100 111V107Z"></path>
<path fill="#2F283A" d="M95 106L100 107V111L105 112V108L110 109V117L95.0002 114L95 106Z"></path>
<path fill="#191828" d="M110 109L113.636 109.727L110 117V109Z"></path>
<path fill="#E3DDFF" d="M97 51.9993L87 71.9993L82 70.9994L92 50.9994L97 51.9993Z"></path>
<path fill="#7E7BA7" d="M87 71.9993V75.9993L82 74.9993V70.9994L87 71.9993Z"></path>
<path fill="#484874" d="M97 51.9993V55.9993L87 75.9993V71.9993L97 51.9993Z"></path>
<path fill="#8F233B" d="M45 87.9993V91.9993L40 90.9994V86.9993L45 87.9993Z"></path>
<path fill="#505887" d="M124 94.9994V98.9993L122 102.999V98.9993L124 94.9994Z"></path>
<path fill="#505887" d="M132 79V83L130 87V83L132 79Z"></path>
</svg>
