<svg xmlns="http://www.w3.org/2000/svg" fill="none" viewBox="0 0 200 200" height="200" width="200">
<path fill="#514221" d="M99 110.575L100 108.575V108.15L101 106.15V105.65L103 101.65V101.15L107 93.15V93.65L109 90.15V90.65L110 89L110 90.0015L109 92.0017L109 92.5018L107 96.5022L107 97.0022L103 105.003L103 104.503L101 108.503L101 108.003L100 110.004L100 109L99 111V110.575Z"></path>
<path fill="#8C702F" d="M89 108.575L99 110.575V111L100 109L100 110.004L99 111L89 109V108.575Z"></path>
<path fill="#8C702F" d="M89.9996 106.15L100 108.15V108.575L89.9996 106.575V106.15Z"></path>
<path fill="#8C702F" d="M90.9996 103.65L101 105.65V106.15L90.9996 104.15V103.65Z"></path>
<path fill="#8C702F" d="M92.9996 99.15L103 101.15V101.65L92.9996 99.65V99.15Z"></path>
<path fill="#8C702F" d="M101 108.003L101 108.503L100.091 109.822L101 108.003Z"></path>
<path fill="#FDC94F" d="M92.9996 99.65L103 101.65L101 105.65L90.9996 103.65L92.9996 99.65Z"></path>
<path fill="#FDC94F" d="M96.9996 91.15L107 93.15L103 101.15L92.9996 99.15L96.9996 91.15Z"></path>
<path fill="#FDC94F" d="M90.9996 104.15L101 106.15L100 108.15L89.9996 106.15L90.9996 104.15Z"></path>
<path fill="#FDC94F" d="M89.9996 106.575L100 108.575L99 110.575L89 108.575L89.9996 106.575Z"></path>
<path fill="#FDC94F" d="M98.5 89L109 90.15L107 93.65V93.15L97.3341 91.2169L98.5 89Z"></path>
<path fill="#FDC94F" d="M100 87L110 89L109 90.65V90.15L98.5 89L98.8578 89.0392L100 87Z"></path>
<path fill="#8C702F" d="M103 104.503L103 105.003L102.773 104.958L103 104.503Z"></path>
</svg>
