<svg xmlns="http://www.w3.org/2000/svg" fill="none" viewBox="0 0 80 116" height="116" width="80">
<path stroke-width="2" stroke="white" fill="#56C6F8" d="M2 113H1V3H2H3V2V1H77V2V3H78H79V113H78H77V114V115H3V114V113H2Z"></path>
<path fill="white" d="M34 97H35V96H40V98H36V99H38V101H36V102H40V104H35V103H34V97Z"></path>
<path fill="white" d="M41 97H42V96H47V98H43V99H45V101H43V102H47V104H42V103H41V97Z"></path>
<path fill="white" d="M55 97H56V96H61V98H57V99H59V101H57V102H61V104H56V103H55V97Z"></path>
<path fill="white" d="M32 96L33 96L33 97L33 104L31 104L31 101L29 101L29 104L27 104L27 96L29 96L29 99L31 99L31 96L32 96Z"></path>
<path fill="white" d="M20 97H21V96H26V98H22V99V101V102H26V104H21V103H20V97Z"></path>
<path fill="white" d="M48 97H49V96H54V98H50V99H53V100H54V103H53V104H48V102H52V101H49V100H48V97Z"></path>
<path fill="#CC9F34" d="M22 48L49.5 53.5V67.5L22 62V48Z"></path>
<path fill="#806320" d="M49.5 53.5L57.5 37.5V51.5L49.5 67.5V53.5Z"></path>
<path fill="#FFC641" d="M30 32L57.5 37.5L49.5 53.5L22 48L30 32Z"></path>
<path fill="#FFC741" d="M33 54L37 54.8V57L32 56L33 54Z"></path>
<path fill="#7F6320" d="M33 52.2V54L32 56V52L33 52.2Z"></path>
<path fill="#FFC741" d="M42.9091 60.1818L44.5 60.5V62.5L42 62L42.9091 60.1818Z"></path>
<path fill="#7F6320" d="M42.9091 60.1818L42 62V60L42.9091 60.1818Z"></path>
<path fill="#FFC741" d="M30.5 59.5L34.5 60.3V62.5L29.5 61.5L30.5 59.5Z"></path>
<path fill="#7F6320" d="M30.5 57.7V59.5L29.5 61.5V57.5L30.5 57.7Z"></path>
<path fill="#FFC741" d="M25.4091 52.6818L27 53V55L24.5 54.5L25.4091 52.6818Z"></path>
<path fill="#7F6320" d="M25.4091 52.6818L24.5 54.5V52.5L25.4091 52.6818Z"></path>
<path fill="#FFC641" d="M54.6818 51.1364L56.5 51.5L54.5 55.5V51.5L54.6818 51.1364Z"></path>
<path fill="#CC9F34" d="M54.6818 51.1364L56.5 47.5V51.5L54.6818 51.1364Z"></path>
<path fill="#FFC641" d="M51.6818 51.1364L53.5 51.5L51.5 55.5V51.5L51.6818 51.1364Z"></path>
<path fill="#CC9F34" d="M51.6818 51.1364L53.5 47.5V51.5L51.6818 51.1364Z"></path>
<path fill="#FFC641" d="M50.5909 59.3182L51.5 59.5L50.5 61.5V59.5L50.5909 59.3182Z"></path>
<path fill="#CC9F34" d="M50.5909 59.3182L51.5 57.5V59.5L50.5909 59.3182Z"></path>
<path fill="#CC9F34" d="M36.0038 42L41.0038 43L40.0871 44.8167L36.0038 44V42Z"></path>
<path fill="#806320" d="M36.0038 42L34.0038 45.9818L34.9167 46.1644L36.0038 44V42Z"></path>
<path fill="#CC9F34" d="M46.5 37.5L51.5 38.5L50.5834 40.3167L46.5 39.5V37.5Z"></path>
<path fill="#806320" d="M46.5 37.5L44.5 41.4818L45.4129 41.6644L46.5 39.5V37.5Z"></path>
<path fill="#CC9F34" d="M33 37L35.5 37.5L34.5833 39.3167L33 39V37Z"></path>
<path fill="#806320" d="M33 37L32 38.9818L32.9129 39.1644L33 39V37Z"></path>
<path fill="#FFC741" d="M43 56L47 56.8V59L42 58L43 56Z"></path>
<path fill="#7F6320" d="M43 54.2V56L42 58V54L43 54.2Z"></path>
<path fill="#FFC641" d="M54.5909 47.3182L55.5 47.5L54.5 49.5V47.5L54.5909 47.3182Z"></path>
<path fill="#CC9F34" d="M54.5909 47.3182L55.5 45.5V47.5L54.5909 47.3182Z"></path>
<path fill="#CC9F34" d="M46.5038 48.5189L49.0038 49.0189L48.0872 50.8356L46.5038 50.5189V48.5189Z"></path>
<path fill="#806320" d="M46.5038 48.5189L45.5038 50.5008L46.4167 50.6833L46.5038 50.5189V48.5189Z"></path>
<path fill="#CC9F34" d="M27.5024 42.5L32.5024 43.5L31.5858 45.3167L27.5024 44.5V42.5Z"></path>
<path fill="#806320" d="M27.5024 42.5L25.5024 46.4818L26.4153 46.6644L27.5024 44.5V42.5Z"></path>
</svg>
