<svg xmlns="http://www.w3.org/2000/svg" fill="none" viewBox="0 0 480 360" height="360" width="480">
<path stroke-width="2" stroke="white" fill="#56C6F8" d="M87.0667 78.1H88.0667V77.1V76H391.933V77.1V78.1H392.933H394V281.9H392.933H391.933V282.9V284H88.0667V282.9V281.9H87.0667H86V78.1H87.0667Z"></path>
<path stroke-width="2" stroke="white" fill="#56C6F8" d="M141 242H142V241V240H338V241V242H339H340V248H339H338V249V250H142V249V248H141H140V242H141Z"></path>
<path fill="white" d="M309 174H316.5V175.5H318V180H316.5V181.5H318V186H315V183H313.5V181.5H312V178.5H315V177H312V178.5V181.5V186H309V174Z"></path>
<path fill="white" d="M267.5 175.5H269V174H276.5V177H270.5V178.5H273.5V181.5H270.5V183H276.5V186H269V184.5H267.5V175.5Z"></path>
<path fill="white" d="M298.5 175.5H300V174H306V175.5H307.5V186H304.5V177H301.5V178.5H304.5V181.5H301.5V183V186H300H298.5V184.5V175.5Z"></path>
<path fill="white" d="M288 175.5H289.5V174H297V177H291V178.5V181.5V183H297V186H289.5V184.5H288V175.5Z"></path>
<path fill="white" d="M246.5 175.5V174H248H255.5V177H252.5V183V186H249.5V183V177H246.5V175.5Z"></path>
<path fill="white" d="M264.5 174L266 174L266 175.5L266 186L263 186L263 181.5L260 181.5L260 186L257 186L257 174L260 174L260 178.5L263 178.5L263 174L264.5 174Z"></path>
<path fill="white" d="M172 175.5H173.5V174H181V177H175V178.5H178V181.5H175V183H181V186H173.5V184.5H172V175.5Z"></path>
<path fill="white" d="M182.5 175.5H184V174H191.5V177H185.5V178.5H188.5V181.5H185.5V183H191.5V186H184V184.5H182.5V175.5Z"></path>
<path fill="white" d="M151 175.5H152.5V174H160V177H154V178.5H158.5V180H160V184.5H158.5V186H151V183H157V181.5H152.5V180H151V175.5Z"></path>
<path fill="white" d="M320 175.5H321.5V174H329V177H323V178.5H327.5V180H329V184.5H327.5V186H320V183H326V181.5H321.5V180H320V175.5Z"></path>
<path fill="white" d="M193 175.5V174H194.5H200.5V175.5H202V177H199H196V183H199V177H202V184.5H200.5V186H194.5H193V184.5V175.5Z"></path>
<path fill="white" d="M161.5 174H169V175.5H170.5V180H169V181.5H164.5V178.5H167.5V177H164.5V178.5V181.5V186H161.5V174Z"></path>
<path fill="white" d="M225 175.5H226.5V174H234V177H228V178.5H231V181.5H228V183V186H226.5H225V184.5V175.5Z"></path>
<path fill="white" d="M214.5 175.5H216V174H222V175.5H223.5V177H220.5H217.5V183H220.5V177H223.5V184.5H222V186H216V184.5H214.5V175.5Z"></path>
<path fill="white" d="M357 241H359V249H357V241Z"></path>
<path fill="white" d="M115 241H117V249H115V241Z"></path>
<path fill="white" d="M110 244H114V246H110V244Z"></path>
<path fill="white" d="M360 242H361V241H365V242H366V243H364H362V247H364V243H366V248H365V249H361V248H360V242Z"></path>
<path fill="white" d="M118 242H119V241H123V242H124V243H122H120V247H122V243H124V248H123V249H119V248H118V242Z"></path>
<path fill="white" d="M234 99H236V97H246V101H238V103H242V107H238V109H246V113H236V111H234V99Z"></path>
<path fill="white" d="M248 99H250V97H260V101H252V103H256V107H252V109H260V113H250V111H248V99Z"></path>
<path fill="white" d="M206 99H208V97H218V101H210V103H216V105H218V111H216V113H206V109H214V107H208V105H206V99Z"></path>
<path fill="white" d="M262 99V97H264H272V99H274V101H270H266V109H270V101H274V111H272V113H264H262V111V99Z"></path>
<path fill="white" d="M220 97H230V99H232V105H230V107H224V103H228V101H224V103V107V113H220V97Z"></path>
<path fill="white" d="M105 103H107V99H111V97H119V99H123V103H125V111H123V113H121V109H123V105H121V101H117V99H113V101H109V105H107V109H109V113H107V111H105V103Z"></path>
<path fill="white" d="M114 106H116V108H114V106Z"></path>
<path fill="white" d="M115 105H117V107H115V105Z"></path>
<path fill="white" d="M116 104H118V106H116V104Z"></path>
<path fill="white" d="M117 103H119V105H117V103Z"></path>
</svg>
