<svg xmlns="http://www.w3.org/2000/svg" fill="none" viewBox="0 0 200 200" height="200" width="200">
<path fill="#3B799E" d="M102 83.0006L122 87.0006V91.0006L127 92.0006V96.0006L122 95.0006V99.0006L102 95.0006V83.0006Z"></path>
<path fill="#3B799E" d="M72 77.0005L82 79.0005V63.0005L92 65.0005V69.001L87 68.0005V92.0005L107 96.0006L67 88.0005V80.0005L72 81.0005V77.0005Z"></path>
<path fill="#256C88" d="M67 88.0005L107 96.0006V100.001L67 92.0005V88.0005Z"></path>
<path fill="#256C88" d="M107 88.0005L117 90.0006V94.0006L107 92.0005V88.0005Z"></path>
<path fill="#5C567A" d="M107 96.0006L127 100.001V104.001L107 100.001V96.0006Z"></path>
<path fill="#8F233B" d="M122 95.0006L127 96.0006V100.001L122 99.0006V95.0006Z"></path>
<path fill="#53152A" d="M127 96.0006L133 84.0005V88.0005L127 100.001V96.0006Z"></path>
<path fill="#373252" d="M127 100.001L133 88.0005V92.0005L127 104.001V100.001Z"></path>
<path fill="#134D73" d="M127 92.0006L133 80.0005V84.0005L127 96.0006V92.0006Z"></path>
<path fill="#134D73" d="M122 87.0006L128 75.0005V79.0005L122 91.0006V87.0006Z"></path>
<path fill="#134D73" d="M87 68.0005L92 69.001L93 67.001V76.0004L87 88.0005V68.0005Z"></path>
<path fill="#6BD9FC" d="M122 91.0006L128 79.0005L133 80.0005L127 92.0006L122 91.0006Z"></path>
<path fill="#6BD9FC" d="M72 77.0005L78 65.0004L82 65.8004V79.0005L72 77.0005Z"></path>
<path fill="#6BD9FC" d="M67 80.0005L73 68.0004L76.1818 68.6368L72 77.0005V81.0005L67 80.0005Z"></path>
<path fill="#6BD9FC" d="M82 63.0005L88 51.001L98 53.001L92 65.0005L82 63.0005Z"></path>
<path fill="#134D73" d="M92 65.0005L98 53.001V57.0013L92 69.001V65.0005Z"></path>
<path fill="#F9FFFD" d="M87 88.0005L93 76.0004L102.546 77.9099L102 79.001L102 91.0005L87 88.0005Z"></path>
<path fill="#8A95CB" d="M87 88.0005L102 91.0005L102 95.0006L87 92.0005V88.0005Z"></path>
<path fill="#733E38" d="M102 79.001L122 83.0006V87.0006L102 83.0006V79.001Z"></path>
<path fill="#462321" d="M122 83.0006L128 71.0005V75.0005L122 87.0006V83.0006Z"></path>
<path fill="#CC7057" d="M102 79.001L108 67.0009L128 71.0005L122 83.0006L102 79.001Z"></path>
<path fill="#8A95CB" d="M77 66.0006L82 67.0006L82 75.0007L77 74.0006V66.0006Z"></path>
<path fill="#F9FFFD" d="M77 66.0006L83 54.0005L86.1818 54.6368L82 63.0005V67.0006L77 66.0006Z"></path>
<path fill="#E4DDFF" d="M83 72.0006L87 64.0005L92 65.0005L88 73.0006L83 72.0006Z"></path>
<path fill="#E4DDFF" d="M93 52.0001L97 44L102 45L98 53.001L93 52.0001Z"></path>
<path fill="#7E7BA6" d="M83 72.0006L88 73.0006L88 77.0006L83 76.0006V72.0006Z"></path>
<path fill="#5C567A" d="M88 73.0006L93 74.0006L92.9999 78.0007L88 77.0006L88 73.0006Z"></path>
<path fill="#A798BF" d="M90 69.0005L95 70.0006L93 74.0006L88 73.0006L90 69.0005Z"></path>
<path fill="#373153" d="M93 74.0006L95 70.0006L95 74.0006L92.9999 78.0007L93 74.0006Z"></path>
<path fill="#5C567A" d="M100 49L105 50.0001L105 54.0002L100 53.0001L100 49Z"></path>
<path fill="#A798BF" d="M102 45L107 46L105 50.0001L100 49L102 45Z"></path>
<path fill="#373153" d="M105 50.0001L107 46L107 50.0001L105 54.0002L105 50.0001Z"></path>
<path fill="#494872" d="M98 53.001L100 49.0012L100 53.0013L98 57.0013V53.001Z"></path>
<path fill="#494872" d="M90 69.0005L92 65.0005V69.001L91.8184 69.3642L90 69.0005Z"></path>
<path fill="#8A95CB" d="M77.0002 93.9985L82.0002 94.9985V98.9985L77.0002 97.9985V93.9985Z"></path>
<path fill="#2F273C" d="M72 92.9984L77.0002 93.9985V97.9985L82.0002 98.9985V94.9985L87.0002 95.9984V103.999L72.0002 100.998L72 92.9984Z"></path>
<path fill="#1B1829" d="M87.0002 95.9984L90.6365 96.7257L87.0002 103.999V95.9984Z"></path>
<path fill="#8A95CB" d="M112.005 101L117.005 102V106L112.005 105V101Z"></path>
<path fill="#2F273C" d="M107.004 100L112.005 101V105L117.005 106V102L122.005 103V111L107.005 108L107.004 100Z"></path>
<path fill="#1B1829" d="M122.005 103L125.641 103.728L122.005 111V103Z"></path>
</svg>
