<svg xmlns="http://www.w3.org/2000/svg" fill="none" viewBox="0 0 200 200" height="200" width="200">
<path fill="black" d="M86 94.4L109 99L106 98.4V106L86 102V94.4Z"></path>
<path fill="black" d="M109 99L114 89V90L106 106V98.4L109 99Z"></path>
<path fill="black" d="M79 77L109 83V99L79 93V77Z"></path>
<path fill="black" d="M109 83L121 58.9999V74.9999L109 99V83Z"></path>
<path fill="black" d="M91.0001 53L121 58.9999L109 83L79 77L91.0001 53Z"></path>
<path fill="#CC0000" d="M79 89L79.0001 81.0001L81.5 79.5V91.5001L106.5 96.5V84.5L109 87.0001L109 95L109 99L79 93L79 89Z"></path>
<path fill="#CC0000" d="M79 77L109 83L109 87.0001L106.5 84.5L81.5 79.5L79.0001 81.0001L79 77Z"></path>
<path fill="#800000" d="M121 70.9999L121 63L120 63V75L110 95V83L109 87.0001L109 95L109 99L121 74.9999L121 70.9999Z"></path>
<path fill="#800000" d="M121 58.9999L109 83L109 87.0001L110 83L120 63L121 63L121 58.9999Z"></path>
<path fill="#FF0000" d="M91.0001 53L121 58.9999L109 83L107.5 80.5L117.5 60.5L92.5 55.5L82.5 75.5L107.5 80.5L109 83L79 77L91.0001 53Z"></path>
<path fill="#800000" d="M107 104V98.6L106 98.4V106L107 104Z"></path>
<path fill="#CD0000" d="M106 106V98.4L103.5 97.9V105.5L106 106Z"></path>
<path fill="#CD0000" d="M88.5001 102.5V94.9L86 94.4V102L88.5001 102.5Z"></path>
<path fill="#800000" d="M114 90V89L113 91V92L114 90Z"></path>
</svg>
