<svg xmlns="http://www.w3.org/2000/svg" fill="none" viewBox="0 0 200 200" height="200" width="200">
<path fill="#BFA946" d="M88 101L90.5 101.5L89.5 103.5L89.5909 103.318L88 103V101Z"></path>
<path fill="#BFA946" d="M89.5 103.5L102 106V108L89.5 105.5V103.5Z"></path>
<path fill="#BFA946" d="M103 104L105.5 104.5V106.5L103 106V104Z"></path>
<path fill="#9B8C39" d="M102 106L103 104V106L102 108V106Z"></path>
<path fill="#9B8C39" d="M105.5 104.5L110.5 94.5V96.5L105.5 106.5V104.5Z"></path>
<path fill="#9B8C39" d="M108 94L109 92V94L108.909 94.1818L110.5 94.5L108 94Z"></path>
<path fill="#FFFF6A" d="M93 91L95.5 91.5L96.5 89.5L109 92L108 94L110.5 94.5L105.5 104.5L103 104L102 106L89.5 103.5L90.5 101.5L88 101L93 91Z"></path>
<path fill="#FF190A" d="M97 94L104.5 95.5L103.5 97.5L98.5 96.5L97.5 98.5L102.5 99.5L101.5 101.5L94 100L97 94Z"></path>
</svg>
