<svg xmlns="http://www.w3.org/2000/svg" fill="none" viewBox="0 0 200 200" height="200" width="200">
<path fill="#9395AA" d="M80.5 72.5L110.5 78.5V98.5L80.5 92.5V72.5Z"></path>
<path fill="white" d="M90 53.5L120 59.5002L110.5 78.5L80.5 72.5L90 53.5Z"></path>
<path fill="#575876" d="M120 59.5002V79.5002L110.5 98.5V78.5L120 59.5002Z"></path>
<path fill="#9395AA" d="M104.25 60.2476L114.25 62.2476V68.2476L104.25 66.2476V60.2476Z"></path>
<path fill="white" d="M105.75 57.2478L115.75 59.2478L114.25 62.2476L104.25 60.2476L105.75 57.2478Z"></path>
<path fill="#575876" d="M115.75 59.2478V65.2478L114.25 68.2476V62.2476L115.75 59.2478Z"></path>
<path fill="#9395AA" d="M86.75 56.7476L96.75 58.7476V64.7476L86.75 62.7476V56.7476Z"></path>
<path fill="white" d="M88.25 53.7478L98.25 55.7478L96.75 58.7476L86.75 56.7476L88.25 53.7478Z"></path>
<path fill="#575876" d="M98.25 55.7478V61.7478L96.75 64.7476V58.7476L98.25 55.7478Z"></path>
<path fill="#9395AA" d="M100 58.9975L104.432 59.8838L104.25 60.2476V61.8475L100 60.9975V58.9975Z"></path>
<path fill="white" d="M101.5 55.9977L106.5 56.9977L106.319 57.3616L105.75 57.2478L104.432 59.8838L100 58.9975L101.5 55.9977Z"></path>
<path fill="#575876" d="M106.5 56.9977V57.3978L105.75 57.2478L104.432 59.8838L104.25 60.25V61.8475V60.2476L104.432 59.8838L105.75 57.2478L106.319 57.3616L106.5 56.9977Z"></path>
<path fill="#FFDB9F" d="M104.25 66.2476L114.25 68.2476L115.75 65.2478V59.2478L108.478 57.7935L108.75 57.25L120 59.5002L115 69.4973L103.75 67.2473L104.25 66.2476Z"></path>
<path fill="#564845" d="M120 59.5002V66.4868L115 76.4973V69.4973L120 59.5002Z"></path>
<path fill="#9395AA" d="M117.5 72.4998L122.5 73.4998V78.4998L117.5 77.4998V72.4998Z"></path>
<path fill="white" d="M119 69.5L124 70.5L122.5 73.4998L117.5 72.4998L119 69.5Z"></path>
<path fill="#575876" d="M124 70.5V75.5L122.5 78.4998V73.4998L124 70.5Z"></path>
<path fill="#9395AA" d="M117.5 78.4998L121.25 79.2498V82.2498L117.5 81.4998V78.4998Z"></path>
<path fill="white" d="M117.955 77.5907L121.705 78.3407L121.25 79.2498L117.5 78.4998L117.955 77.5907Z"></path>
<path fill="#575876" d="M122.75 77.9998V79.25L121.25 82.2498V79.2498L121.705 78.3407L122.5 78.4998L122.75 77.9998Z"></path>
<path fill="#9395AA" d="M90 94.3866L105 97.3866V103L90 99.9995V94.3866Z"></path>
<path fill="#575876" d="M107.551 97.8969L105 103V97.3866L107.551 97.8969Z"></path>
<path fill="#9395AA" d="M82.5 65.4998L83.8577 65.7713L82.4933 68.5L82.5 65.4998Z"></path>
<path fill="white" d="M84 62.5L85.3576 62.7715L83.8577 65.7713L82.5 65.4998L84 62.5Z"></path>
<path fill="#9395AA" d="M95.75 102.25L98.25 102.75V104.75L95.75 104.25V102.25Z"></path>
<path fill="white" d="M96.2503 101.25L98.7502 101.75L98.25 102.75L95.75 102.25L96.2503 101.25Z"></path>
<path fill="#575876" d="M98.7502 101.75L99.6594 101.931L98.25 104.75V102.75L98.7502 101.75Z"></path>
<path fill="#957B64" d="M93.75 100.25L96.25 100.75V108.75L93.75 108.25V100.25Z"></path>
<path fill="#FFDB9F" d="M97.25 98.75V102.55L98.25 102.75L97.25 104.75V98.75L96.25 100.75L93.75 100.25L94.75 98.25L97.25 98.75Z"></path>
<path fill="#58483F" d="M98.25 102.75V104.75L96.25 108.75V100.75L97.25 98.75V104.75L98.25 102.75Z"></path>
</svg>
