<svg xmlns="http://www.w3.org/2000/svg" fill="none" viewBox="0 0 200 200" height="200" width="200">
<path fill="#946A52" d="M77.5002 77.4998L115 84.9997V108L77.5002 100.5V77.4998Z"></path>
<path fill="#553D38" d="M115 84.9997L126 63V85.9999L115 108V84.9997Z"></path>
<path fill="#FFBF81" d="M88.5002 55.5L126 63L115 84.9997L77.5002 77.4998L88.5002 55.5Z"></path>
<path fill="#D46841" d="M101.25 86.2501L108.75 87.7501L107.25 90.75L99.7501 89.25L101.25 86.2501Z"></path>
<path fill="#763927" d="M99.7501 89.25L107.25 90.75V98.7499L99.7501 97.2499V89.25Z"></path>
<path fill="#43221B" d="M107.25 90.75L108.75 87.7501V95.7501L107.25 98.7499V90.75Z"></path>
<path fill="#D46841" d="M79.0002 67.5002L82.1819 68.1365L80.182 72.1364L77.0002 71.5L79.0002 67.5002Z"></path>
<path fill="#763927" d="M77.0002 71.5L80.182 72.1364L78.3638 75.7727L77.0002 75.5V71.5Z"></path>
<path fill="#43221B" d="M80.182 72.1364L82.1819 68.1365L78.3638 75.7727L80.182 72.1364Z"></path>
<path fill="#2A0806" d="M116 84.9997L117 82.9998V84.9998L116 86.9997V84.9997Z"></path>
<path fill="#43221B" d="M124.5 68.0001L125.5 66.0002V68.0002L124.5 70.0001V68.0001Z"></path>
<path fill="#D46841" d="M122 72L124.5 72.5L121.5 78.4999L119 77.9999L122 72Z"></path>
<path fill="#763927" d="M119 77.9999L121.5 78.4999V82.4999L119 81.9998V77.9999Z"></path>
<path fill="#43221B" d="M121.5 78.4999L124.5 72.5V76.5L121.5 82.4999V78.4999Z"></path>
<path fill="#FFFFFE" d="M125 72.0002L127.5 72.5002L118.5 90.5L116 90L119.909 82.1817L121.5 82.4999L124.5 76.5V73.0002L125 72.0002Z"></path>
<path fill="#9794A9" d="M116 90L118.5 90.5V102.5L116 102V90Z"></path>
<path fill="#5A577A" d="M118.5 90.5L127.5 72.5002V84.5001L118.5 102.5V90.5Z"></path>
<path fill="#F8B775" d="M124.5 81.5003L127 82.0002L124 88.0001L121.5 87.5001L124.5 81.5003Z"></path>
<path fill="#9A6B37" d="M121.5 87.5001L124 88.0001V92.0001L121.5 91.5001V87.5001Z"></path>
<path fill="#503937" d="M124 88.0001L127 82.0002V86.0002L124 92.0001V88.0001Z"></path>
<path fill="#2A0806" d="M119.5 92.4999L120.5 90.5V92.5L119.5 94.4998V92.4999Z"></path>
<path fill="#2A0806" d="M125.5 80.5L126.5 78.5001V80.5001L125.864 81.773L125.5 81.7003V80.5Z"></path>
<path fill="#564E5B" d="M118.5 92.4997L121.5 86.4999V92.5001L118.5 98.5V94.4997L119.5 92.4999V94.4998L120.5 92.5V90.5L119.5 92.4999L118.5 94.4997V92.4997Z"></path>
<path fill="#380114" d="M122.5 76.5L123.5 74.5001V76.5001L122.5 78.5V76.5Z"></path>
<path fill="#832B21" d="M121.25 76.25L122.25 74.2502L123.5 74.5001L122.5 76.5L121.25 76.25Z"></path>
<path fill="#380114" d="M125 85.9998L126 83.9999V85.9999L125 87.9997V85.9998Z"></path>
<path fill="#832B21" d="M123.75 85.7498L124.75 83.7499L126 83.9999L125 85.9998L123.75 85.7498Z"></path>
<path fill="#717092" d="M119 101.5L120.25 98.9999V102.25L119 102V101.5Z"></path>
<path fill="#40405A" d="M120.25 98.9999L122.75 94.0001V94.2501L120.75 98.25V100.25L122.75 96.25V94.0001L123.25 93V96.25L120.25 102.25V98.9999Z"></path>
<path fill="#717092" d="M121.841 96.0682L122.75 94.2501V96.25L121.841 96.0682Z"></path>
<path fill="#CFC6E3" d="M121.841 96.0682L122.75 96.25L120.75 100.25V98.25L121.841 96.0682Z"></path>
<path fill="#9A6B37" d="M122 91.6001L123.25 91.8501V93.7501L122 93.5001V91.6001Z"></path>
<path fill="#503937" d="M123.25 91.8501L124 92.0001L125.25 89.5002V89.7502L123.25 93.7501V91.8501Z"></path>
<path fill="#763927" d="M108.5 106.7L113.5 107.7V109.5L108.5 108.5V106.7Z"></path>
<path fill="#43221B" d="M113.5 107.7L114.318 107.864L113.5 109.5V107.7Z"></path>
<path fill="#763927" d="M80.0002 101L85.0002 102V103.8L80.0002 102.8V101Z"></path>
<path fill="#43221B" d="M85.0002 102L85.8185 102.164L85.0002 103.8V102Z"></path>
</svg>
