<svg xmlns="http://www.w3.org/2000/svg" fill="none" viewBox="0 0 200 200" height="200" width="200">
<path fill="#49282F" d="M86 94.4L109 99L106 98.4V106L86 102V94.4Z"></path>
<path fill="#28151B" d="M109 99L114 89V90L106 106V98.4L109 99Z"></path>
<path fill="#65761A" d="M79 77L109 83V99L79 93V77Z"></path>
<path fill="#3A4410" d="M109 83L121 58.9999V74.9999L109 99V83Z"></path>
<path fill="#A3C121" d="M91.0001 53L121 58.9999L109 83L79 77L91.0001 53Z"></path>
<path fill="#5D6D15" d="M79 89L109 95L109 99L79 93L79 89Z"></path>
<path fill="#5D6D15" d="M79 77L109 83L109 87.0001L79.0001 81.0001L79 77Z"></path>
<path fill="#333D0B" d="M121 70.9999L109 95L109 99L121 74.9999L121 70.9999Z"></path>
<path fill="#333D0B" d="M121 58.9999L109 83L109 87.0001L121 63L121 58.9999Z"></path>
</svg>
