<svg xmlns="http://www.w3.org/2000/svg" fill="none" viewBox="0 0 480 360" height="360" width="480">
<path stroke-width="2" stroke="white" fill="#56C6F8" d="M282 227H281V113H282H283V112V111H437V112V113H438H439V227H438H437V228V229H283V228V227H282Z"></path>
<path stroke="white" fill-opacity="0.1" fill="white" d="M281.5 162.59V146.01L438.5 177.41V193.99L281.5 162.59Z"></path>
<path stroke="white" fill="#56C6F8" d="M291 201.5H291.5V201V200.5H314.5V201V201.5H315H315.5V218.5H315H314.5V219V219.5H291.5V219V218.5H291H290.5V201.5H291Z"></path>
<path stroke-width="2" stroke="white" fill="#56C6F8" d="M405 202H406V201H428V202H429V218H428V219H406V218H405V202Z"></path>
<path stroke-width="2" stroke="white" fill="#56C6F8" d="M405 172H406V171H428V172H429V188H428V189H406V188H405V172Z"></path>
<path stroke="white" fill="#56C6F8" d="M405 121.5H405.5V121V120.5H428.5V121V121.5H429H429.5V138.5H429H428.5V139V139.5H405.5V139V138.5H405H404.5V121.5H405Z"></path>
<path stroke="white" fill="#56C6F8" d="M369 121.5H369.5V121V120.5H392.5V121V121.5H393H393.5V138.5H393H392.5V139V139.5H369.5V139V138.5H369H368.5V121.5H369Z"></path>
<path fill="white" d="M179.5 96L176.5 96L176.5 94.5L175 94.5L175 93L173.5 93L173.5 94.5L172 94.5L172 96L169 96L169 84L172 84L172 90L173.5 90L173.5 88.5L175 88.5L175 90L176.5 90L176.5 84L179.5 84L179.5 96Z"></path>
<path fill="white" d="M181 85.5H182.5V84H188.5V85.5H190V96H187V87H184V88.5H187V91.5H184V93V96H182.5H181V94.5V85.5Z"></path>
<path fill="white" d="M146.5 85.5H148V84H154V85.5H155.5V96H152.5V87H149.5V88.5H152.5V91.5H149.5V93V96H148H146.5V94.5V85.5Z"></path>
<path fill="white" d="M191.5 85.5V84H193H194.5V88.5H197.5V84H200.5V90H199V91.5H197.5V96H194.5V91.5H193V90H191.5V85.5Z"></path>
<path fill="white" d="M125.5 85.5H127V84H134.5V87H128.5V88.5H131.5V91.5H128.5V93H134.5V96H127V94.5H125.5V85.5Z"></path>
<path fill="white" d="M61 85.5H62.5V84H70V87H64V88.5H68.5V90H70V94.5H68.5V96H61V93H67V91.5H62.5V90H61V85.5Z"></path>
<path fill="white" d="M92.5 84H95.5V85.5H97V87H98.5V85.5H100V84H103V96H100V90H98.5V91.5H97V90H95.5V96H92.5V84Z"></path>
<path fill="white" d="M82 85.5H83.5V84H89.5V85.5H91V87H88H85V93H88V87H91V94.5H89.5V96H83.5V94.5H82V85.5Z"></path>
<path fill="white" d="M71.5 85.5V84H73H80.5V87H77.5V93V96H74.5V93V87H71.5V85.5Z"></path>
<path fill="white" d="M59.5 85.5V84H58H56.5V87V93H53.5V84H50.5V94.5H52V96H58V94.5H59.5V87V85.5Z"></path>
<path fill="white" d="M40 85.5H41.5V84H49V87H43V88.5V91.5V93H49V96H41.5V94.5H40V85.5Z"></path>
<path fill="white" d="M104.5 85.5V84H106H113.5V87H110.5V93H113.5V96H104.5V93H107.5V87H104.5V85.5Z"></path>
<path fill="white" d="M115 85.5V84H116.5H124V88.5H122.5V90H121V91.5H119.5V93H124V96H115V91.5H116.5V90H118V88.5H119.5V87H115V85.5Z"></path>
<path fill="white" d="M82 317H83V316H88V318H84V319H87V320H88V323H87V324H82V322H86V321H83V320H82V317Z"></path>
<path fill="white" d="M89 317H90V316H95V318H91V319H94V320H95V323H94V324H89V322H93V321H90V320H89V317Z"></path>
<path fill="white" d="M61 317H62V316H67V318H63V319V321V322H65V321H64V319H67V323V324H66H62V323H61V317Z"></path>
<path fill="white" d="M75 317H76V316H80V317H81V324H79V318H77V319H79V321H77V322V324H76H75V323V317Z"></path>
<path fill="white" d="M68 316H73V317H74V320H73V321H74V324H72V322H71V321H70V319H72V318H70V319V321V324H68V316Z"></path>
<path fill="white" d="M159 317H160V316H164V317H165V324H163V318H161V319H163V321H161V322V324H160H159V323V317Z"></path>
<path fill="white" d="M131 317V316H132H137V318H135V322H137V324H131V322H133V318H131V317Z"></path>
<path fill="white" d="M166 317V316H167H171V317H172V318H170H168V322H170V318H172V323H171V324H167H166V323V317Z"></path>
<path fill="white" d="M124 317V316H125H126V318V322H130V324H125V323H124V318V317Z"></path>
<path fill="white" d="M138 317V316H139H140V318V322H144V324H139V323H138V318V317Z"></path>
<path fill="white" d="M145 317V316H146H147V319H149V316H151V320H150V321H149V324H147V321H146V320H145V317Z"></path>
<path fill="white" d="M152 316H157V317H158V320H157V321H154V319H156V318H154V319V321V324H152V316Z"></path>
<path fill="white" d="M173 317H174V316H179V318H175V319H178V320H179V323H178V324H173V322H177V321H174V320H173V317Z"></path>
<path fill="white" d="M110 316H115V317H116V320H115V321H116V324H114V322H113V321H112V319H114V318H112V319V321V324H110V316Z"></path>
<path fill="white" d="M103 317H104V316H108V317H109V318H107H105V322H107V318H109V323H108V324H104V323H103V317Z"></path>
<path fill="white" d="M106 240H108V241H109V242H110V240H112V248H110V245H109V244H108V248H106V240Z"></path>
<path fill="white" d="M96 280H98V281H99V282H100V280H102V288H100V285H99V284H98V288H96V280Z"></path>
<path fill="white" d="M170 260H172V261H173V262H174V260H176V268H174V265H173V264H172V268H170V260Z"></path>
<path fill="white" d="M99 241H100V240H104V241H105V242H103H101V246H103V242H105V247H104V248H100V247H99V241Z"></path>
<path fill="white" d="M176 241H177V240H181V241H182V242H180H178V246H180V242H182V247H181V248H177V247H176V241Z"></path>
<path fill="white" d="M128 261H129V260H133V261H134V262H132H130V266H132V262H134V267H133V268H129V267H128V261Z"></path>
<path fill="white" d="M100 261H101V260H105V261H106V262H104H102V266H104V262H106V267H105V268H101V267H100V261Z"></path>
<path fill="white" d="M110 281H111V280H115V281H116V282H114H112V286H114V282H116V287H115V288H111V287H110V281Z"></path>
<path fill="white" d="M57 241H58V240H63V242H59V243V245V246H63V248H58V247H57V241Z"></path>
<path fill="white" d="M78 241H79V240H84V242H80V243V245V246H84V248H79V247H78V241Z"></path>
<path fill="white" d="M138 281H139V280H144V282H140V283V285V286H144V288H139V287H138V281Z"></path>
<path fill="white" d="M149 261H150V260H155V262H151V263V265V266H155V268H150V267H149V261Z"></path>
<path fill="white" d="M134 241V240H135H140V242H138V246V248H136V246V242H134V241Z"></path>
<path fill="white" d="M145 281V280H146H151V282H149V286V288H147V286V282H145V281Z"></path>
<path fill="white" d="M169 241V240H170H175V242H173V246V248H171V246V242H169V241Z"></path>
<path fill="white" d="M114 261H115V260H120V262H116V263H118V265H116V266H120V268H115V267H114V261Z"></path>
<path fill="white" d="M131 281H132V280H137V282H133V283H135V285H133V286H137V288H132V287H131V281Z"></path>
<path fill="white" d="M85 261H86V260H91V262H87V263H89V265H87V266H91V268H86V267H85V261Z"></path>
<path fill="white" d="M155 241H156V240H161V242H157V243H159V245H157V246H161V248H156V247H155V241Z"></path>
<path fill="white" d="M184 261H185V260H190V262H186V263H188V265H186V266H190V268H185V267H184V261Z"></path>
<path fill="white" d="M71 241V240H72H77V242H75V246H77V248H71V246H73V242H71V241Z"></path>
<path fill="white" d="M161 260L162 260L162 261L162 268L160 268L160 265L158 265L158 268L156 268L156 260L158 260L158 263L160 263L160 260L161 260Z"></path>
<path fill="white" d="M64 241V240H65H66V242V246H70V248H65V247H64V242V241Z"></path>
<path fill="white" d="M148 241V240H149H150V242V246H154V248H149V247H148V242V241Z"></path>
<path fill="white" d="M117 280H122V281H123V283H122V285H123V287H122V288H119V286H121V285H120H119V283H121V282H119V283V285V288H117V280Z"></path>
<path fill="white" d="M91 240L91 242L90 242L90 243L89 243L89 245L90 245L90 246L91 246L91 248L89 248L89 247L88 247L88 246L87 246L87 248L85 248L85 240L87 240L87 242L88 242L88 241L89 241L89 240L91 240Z"></path>
<path fill="white" d="M78 260H83V261H84V264H83V265H84V268H82V266H81V265H80V263H82V262H80V263V265V268H78V260Z"></path>
<path fill="white" d="M135 260H140V261H141V264H140V265H141V268H139V266H138V265H137V263H139V262H137V263V265V268H135V260Z"></path>
<path fill="white" d="M177 261H178V260H183V262H179V263V265V266H181V265H180V263H183V267V268H182H178V267H177V261Z"></path>
<path fill="white" d="M141 241V240H142H147V242H145V246H147V248H141V246H143V242H141V241Z"></path>
<path fill="white" d="M120 241H121V240H125V241H126V248H124V242H122V243H124V245H122V246V248H121H120V247V241Z"></path>
<path fill="white" d="M50 261H51V260H55V261H56V268H54V262H52V263H54V265H52V266V268H51H50V267V261Z"></path>
<path fill="white" d="M89 281H90V280H94V281H95V288H93V282H91V283H93V285H91V286V288H90H89V287V281Z"></path>
<path fill="white" d="M163 261H164V260H168V261H169V268H167V262H165V263H167V265H165V266V268H164H163V267V261Z"></path>
<path fill="white" d="M57 261V260H58H62V261H63V262H61H59V266H61V262H63V267H62V268H58H57V267V261Z"></path>
<path fill="white" d="M64 261V260H65H69V261H70V262H68H66V266H68V262H70V267H69V268H65H64V267V261Z"></path>
<path fill="white" d="M92 260H94V261H95V262H96V261H97V260H99V268H97V264H96V265H95V264H94V268H92V260Z"></path>
<path fill="white" d="M113 261V260H112H111V262V265H109V260H107V266H108V267H109V268H111V267H112V266H113V262V261Z"></path>
<path fill="white" d="M130 281V280H129H128V282V286H126V285H124V287H125V288H129V287H130V282V281Z"></path>
<path stroke-width="2" stroke="white" fill="#56C6F8" d="M42 227H41V113H42H43V112V111H197V112V113H198H199V227H198H197V228V229H43V228V227H42Z"></path>
<path stroke="white" fill-opacity="0.1" fill="white" d="M41.5 162.59V146.01L198.5 177.41V193.99L41.5 162.59Z"></path>
<path stroke="white" fill="#56C6F8" d="M51 201.5H51.5V201V200.5H74.5V201V201.5H75H75.5V218.5H75H74.5V219V219.5H51.5V219V218.5H51H50.5V201.5H51Z"></path>
<path stroke="white" fill="#56C6F8" d="M165 201.5H165.5V201V200.5H188.5V201V201.5H189H189.5V218.5H189H188.5V219V219.5H165.5V219V218.5H165H164.5V201.5H165Z"></path>
<path stroke="white" fill="#56C6F8" d="M165 121.5H165.5V121V120.5H188.5V121V121.5H189H189.5V138.5H189H188.5V139V139.5H165.5V139V138.5H165H164.5V121.5H165Z"></path>
<path stroke="white" fill="#56C6F8" d="M129 121.5H129.5V121V120.5H152.5V121V121.5H153H153.5V138.5H153H152.5V139V139.5H129.5V139V138.5H129H128.5V121.5H129Z"></path>
<path fill="white" d="M340 240H342V241H343V242H344V240H346V248H344V245H343V244H342V248H340V240Z"></path>
<path fill="white" d="M326 260H328V261H329V262H330V260H332V268H330V265H329V264H328V268H326V260Z"></path>
<path fill="white" d="M417 240H419V241H420V242H421V240H423V248H421V245H420V244H419V248H417V240Z"></path>
<path fill="white" d="M333 241H334V240H338V241H339V242H337H335V246H337V242H339V247H338V248H334V247H333V241Z"></path>
<path fill="white" d="M319 261H320V260H324V261H325V262H323H321V266H323V262H325V267H324V268H320V267H319V261Z"></path>
<path fill="white" d="M410 241H411V240H415V241H416V242H414H412V246H414V242H416V247H415V248H411V247H410V241Z"></path>
<path fill="white" d="M291 241H292V240H297V242H293V243V245V246H297V248H292V247H291V241Z"></path>
<path fill="white" d="M312 241H313V240H318V242H314V243V245V246H318V248H313V247H312V241Z"></path>
<path fill="white" d="M354 241V240H355H360V242H358V246V248H356V246V242H354V241Z"></path>
<path fill="white" d="M340 261V260H341H346V262H344V266V268H342V266V262H340V261Z"></path>
<path fill="white" d="M395 241V240H394H393V242V246H391V240H389V247H390V248H394V247H395V242V241Z"></path>
<path fill="white" d="M368 241H369V240H374V242H370V243H372V245H370V246H374V248H369V247H368V241Z"></path>
<path fill="white" d="M354 261H355V260H360V262H356V263H358V265H356V266H360V268H355V267H354V261Z"></path>
<path fill="white" d="M305 241V240H306H311V242H309V246H311V248H305V246H307V242H305V241Z"></path>
<path fill="white" d="M366 240L367 240L367 241L367 248L365 248L365 245L363 245L363 248L361 248L361 240L363 240L363 243L365 243L365 240L366 240Z"></path>
<path fill="white" d="M352 260L353 260L353 261L353 268L351 268L351 265L349 265L349 268L347 268L347 260L349 260L349 263L351 263L351 260L352 260Z"></path>
<path fill="white" d="M396 241V240H397H402V242H400V246V248H398V246V242H396V241Z"></path>
<path fill="white" d="M403 241V240H404H409V242H407V246V248H405V246V242H403V241Z"></path>
<path fill="white" d="M298 241V240H299H300V242V246H304V248H299V247H298V242V241Z"></path>
<path fill="white" d="M382 240H387V241H388V243H387V245H388V247H387V248H384V246H386V245H385H384V243H386V242H384V243V245V248H382V240Z"></path>
<path fill="white" d="M325 240L325 242L324 242L324 243L323 243L323 245L324 245L324 246L325 246L325 248L323 248L323 247L322 247L322 246L321 246L321 248L319 248L319 240L321 240L321 242L322 242L322 241L323 241L323 240L325 240Z"></path>
<path fill="white" d="M424 241H425V240H430V242H426V243H429V244H430V247H429V248H424V246H428V245H425V244H424V241Z"></path>
<path fill="white" d="M368 260H373V261H374V264H373V265H374V268H372V266H371V265H370V263H372V262H370V263V265V268H368V260Z"></path>
<path fill="white" d="M396 261V260H397H402V262H400V266V268H398V266V262H396V261Z"></path>
<path fill="white" d="M382 261H383V260H388V262H384V263V265V266H386V265H385V263H388V267V268H387H383V267H382V261Z"></path>
<path fill="white" d="M375 261V260H376H381V262H379V266H381V268H375V266H377V262H375V261Z"></path>
<path fill="white" d="M394 260L395 260L395 261L395 268L393 268L393 265L391 265L391 268L389 268L389 260L391 260L391 263L393 263L393 260L394 260Z"></path>
<path fill="white" d="M325 317H326V316H330V317H331V318H329H327V322H329V318H331V323H330V324H326V323H325V317Z"></path>
<path fill="white" d="M332 317V316H333H338V318H336V322V324H334V322V318H332V317Z"></path>
<path fill="white" d="M346 317H347V316H352V318H348V319H350V321H348V322H352V324H347V323H346V317Z"></path>
<path fill="white" d="M353 316H358V317H359V320H358V321H359V324H357V322H356V321H355V319H357V318H355V319V321V324H353V316Z"></path>
<path fill="white" d="M344 316L345 316L345 317L345 324L343 324L343 321L341 321L341 324L339 324L339 316L341 316L341 319L343 319L343 316L344 316Z"></path>
<path fill="white" d="M374 324L372 324L372 323L371 323L371 322L370 322L370 323L369 323L369 324L367 324L367 316L369 316L369 320L370 320L370 319L371 319L371 320L372 320L372 316L374 316L374 324Z"></path>
<path fill="white" d="M375 317H376V316H380V317H381V324H379V318H377V319H379V321H377V322V324H376H375V323V317Z"></path>
<path fill="white" d="M382 317V316H383H384V319H386V316H388V320H387V321H386V324H384V321H383V320H382V317Z"></path>
<path fill="white" d="M389 317H390V316H395V318H391V319H394V320H395V323H394V324H389V322H393V321H390V320H389V317Z"></path>
</svg>
