<svg xmlns="http://www.w3.org/2000/svg" fill="none" viewBox="0 0 200 200" height="200" width="200">
<path fill="#3446A8" d="M99 101L109 103V111L84 106V89.9996L99 92.9996V101Z"></path>
<path fill="#3446A8" d="M113 86.9996V94.9996L103 92.9996V84.9996L113 86.9996Z"></path>
<path fill="#2B337D" d="M103 84.9996V92.9996L99 101V92.9996L103 84.9996Z"></path>
<path fill="#2B337D" d="M113 94.9996V86.9996L119 74.9996V82.9997L121 78.9996V86.9996L109 111V103L113 94.9996Z"></path>
<path fill="#7198FF" d="M103 84.9996L99 92.9996L84 89.9996L93 71.9996V82.9996L103 84.9996Z"></path>
<path fill="#7198FF" d="M113 94.9996L109 103L99 101L103 92.9996L113 94.9996Z"></path>
<path fill="#7198FF" d="M119 74.9996L113 86.9996L103 84.9996L109 72.9996L119 74.9996Z"></path>
<path fill="#7198FF" d="M121 78.9996L119 82.9997V74.9996V78.5997L121 78.9996Z"></path>
<path fill="#3446A8" d="M103 72.9996V84.9996L93 82.9996V70.9996L103 72.9996Z"></path>
<path fill="#2B337D" d="M109 68.9997V72.9996L103 84.9996V72.9996L107 65V73L109 68.9997Z"></path>
<path fill="#7198FF" d="M109 68.9997L107 73V65L103 72.9996L93 70.9996L97 63L107 65V68.5997L109 68.9997Z"></path>
<path fill="#3446A8" d="M84.1819 89.6359L84 89.9996V101.599L81 100.999V88.9995L84.1819 89.6359Z"></path>
<path fill="#7198FF" d="M93 71.9996L84.1819 89.6359L81 88.9995L88 74.9999L91.1818 75.6361L93 71.9996Z"></path>
<path fill="#7C8E7E" d="M110 77.9996L110 81.9993L105 80.9996V76.9996L110 77.9996Z"></path>
<path fill="#666C62" d="M112 73.9998V78L110 81.9993L110 77.9996L112 73.9998Z"></path>
<path fill="#FFFFF7" d="M112 73.9998L110 77.9996L105 76.9996L107 73L112 73.9998Z"></path>
<path fill="#7C8E7E" d="M114 69.9996L114 73.9993L109 72.9996V68.9997L114 69.9996Z"></path>
<path fill="#666C62" d="M116 65.9998V70L114 73.9993L114 69.9996L116 65.9998Z"></path>
<path fill="#FFFFF7" d="M116 65.9998L114 69.9996L109 68.9997L111 65L116 65.9998Z"></path>
<path fill="#7C8E7E" d="M117 75L117 78.9996L112 78V73.9998L117 75Z"></path>
<path fill="#666C62" d="M119 71.0001V74.9996L117 78.9996L117 75L119 71.0001Z"></path>
<path fill="#FFFFF7" d="M119 71.0001L117 75L112 73.9998L114 69.9996L119 71.0001Z"></path>
<path fill="#7C8E7E" d="M112 70V73.9998L107 73V68.9998L112 70Z"></path>
<path fill="#666C62" d="M114 66.0002V69.9996L112 73.9998V70L114 66.0002Z"></path>
<path fill="#FFFFF7" d="M114 66.0002L112 70L107 68.9998L109 64.9997L114 66.0002Z"></path>
<path fill="#7C8E7E" d="M96 84V87.9998L91 87V82.9998L96 84Z"></path>
<path fill="#666C62" d="M98 80.0002V83.9996L96 87.9998V84L98 80.0002Z"></path>
<path fill="#FFFFF7" d="M98 80.0002L96 84L91 82.9998L93 78.9996L98 80.0002Z"></path>
<path fill="#7C8E7E" d="M86 82V85.9998L81 85V80.9998L86 82Z"></path>
<path fill="#666C62" d="M88 78.0002V81.9996L86 85.9998V82L88 78.0002Z"></path>
<path fill="#FFFFF7" d="M88 78.0002L86 82L81 80.9998L83 76.9996L88 78.0002Z"></path>
<path fill="#7C8E7E" d="M89 86.9996V90.9994L84 89.9996V85.9994L89 86.9996Z"></path>
<path fill="#666C62" d="M91 82.9998V87L89 90.9994V86.9996L91 82.9998Z"></path>
<path fill="#FFFFF7" d="M91 82.9998L89 86.9996L84 85.9994L86 82L91 82.9998Z"></path>
<path fill="#7C8E7E" d="M91 78.9992V82.9998L86 82V77.999L91 78.9992Z"></path>
<path fill="#666C62" d="M93 74.9995V78.9996L91 82.9998V78.9992L93 74.9995Z"></path>
<path fill="#FFFFF7" d="M93 74.9995L91 78.9992L86 77.999L88 73.9996L93 74.9995Z"></path>
</svg>
