<svg xmlns="http://www.w3.org/2000/svg" fill="none" viewBox="0 0 300 300" height="300" width="300">
<path fill="#ADBDD7" d="M170 150L174 142L99 127L97 131L82 128L84 124L29 113L21 129L156 156L160 148L170 150Z"></path>
<path fill="#606986" d="M21 137L166 166V162L170 154V150L160 148L156 156L21 129V137Z"></path>
<path fill="#383E5E" d="M166 166L174 150V142L170 150V154L166 162V166Z"></path>
<path fill="#2C334D" d="M166 174L174 158V150L166 166V174Z"></path>
<path fill="#2C334D" d="M69 159L71 155V143L69 147V159Z"></path>
<path fill="#4E5871" d="M71 155L166 174V166L71 147V155Z"></path>
<path fill="#4E5871" d="M49 155L69 159V147L49 143V155Z"></path>
<path fill="#8C9DAF" d="M69 147L71 143L51 139L49 143L69 147Z"></path>
<path fill="#4E5871" d="M21 145L49 150.6V143L49.1818 142.636L49 142.6L21 137V145Z"></path>
<path fill="#606986" d="M49 147L69 151V147L49 143V147Z"></path>
<path fill="#383E5E" d="M69 151L71 147V143L69 147V151Z"></path>
<path fill="#2C334D" d="M173 171L177 163V151L173 159V171Z"></path>
<path fill="#4E5871" d="M168 170L173 171V159L168 158V170Z"></path>
<path fill="#8C9DAF" d="M173 159L177 151L172 150L168 158L173 159Z"></path>
<path fill="#606986" d="M168 162L173 163V159L168 158V162Z"></path>
<path fill="#383E5E" d="M173 163L177 155V151L173 159V163Z"></path>
<path fill="#383E5E" d="M156 160L160 152V148L156 156V160Z"></path>
<path fill="#8C9DAF" d="M166 162L170 154L160 152L156 160L166 162Z"></path>
<path fill="#383E5E" d="M83.8182 128.364L84 128V124L82 128L83.8182 128.364Z"></path>
<path fill="#8C9DAF" d="M97 131L97.1644 130.671L84 128L83.8182 128.364L97 131Z"></path>
</svg>
