<svg xmlns="http://www.w3.org/2000/svg" fill="none" viewBox="0 0 200 200" height="200" width="200">
<path fill="#CC9F34" d="M85 105L105 109V113L85 109V105Z"></path>
<path fill="#806320" d="M105 109L116 87V91L105 113V109Z"></path>
<path fill="#FFC641" d="M96 83L116 87L105 109L85 105L96 83Z"></path>
<path fill="#CC9F34" d="M96.5 87.5182L101.5 88.5182L100.583 90.3348L96.5 89.5182V87.5182Z"></path>
<path fill="#806320" d="M96.5 87.5182L94.5 91.5L95.4129 91.6826L96.5 89.5182V87.5182Z"></path>
<path fill="#CC9F34" d="M101 95.0182L106 96.0182L105.083 97.8348L101 97.0182V95.0182Z"></path>
<path fill="#806320" d="M101 95.0182L99 99L99.9129 99.1826L101 97.0182V95.0182Z"></path>
<path fill="#CC9F34" d="M100.5 101.5L105.5 102.5L104.583 104.317L100.5 103.5V101.5Z"></path>
<path fill="#806320" d="M100.5 101.5L98.5 105.482L99.4129 105.664L100.5 103.5V101.5Z"></path>
<path fill="#CC9F34" d="M93 100.018L95.5 100.518L94.5833 102.335L93 102.018V100.018Z"></path>
<path fill="#806320" d="M93 100.018L92 102L92.9129 102.183L93 102.018V100.018Z"></path>
<path fill="#CC9F34" d="M110 88.0303L112.5 88.5303L111.583 90.347L110 90.0303V88.0303Z"></path>
<path fill="#806320" d="M110 88.0303L109 90.0121L109.913 90.1947L110 90.0303V88.0303Z"></path>
</svg>
