<svg xmlns="http://www.w3.org/2000/svg" fill="none" viewBox="0 0 200 200" height="200" width="200">
<path fill="#9395AA" d="M82 80.0001L112 86.0002V106L82 100V80.0001Z"></path>
<path fill="white" d="M91.5001 61L121.5 67.0003L112 86.0002L82 80.0001L86.2501 71.5001L91.5001 61Z"></path>
<path fill="#575876" d="M121.5 67.0003V87.0004L112 106V86.0002L121.5 67.0003Z"></path>
<path fill="#9395AA" d="M103.75 71.7476L113.75 73.7477V79.7477L103.75 77.7477V71.7476Z"></path>
<path fill="white" d="M105.25 68.7479L115.25 70.7479L113.75 73.7477L103.75 71.7476L105.25 68.7479Z"></path>
<path fill="#575876" d="M115.25 70.7479V76.7479L113.75 79.7477V73.7477L115.25 70.7479Z"></path>
<path fill="#9395AA" d="M86.2501 68.2476L96.2501 70.2476V76.2477L86.2501 74.2477V68.2476Z"></path>
<path fill="white" d="M87.7501 65.2478L97.7502 67.2478L96.2501 70.2476L86.2501 68.2476L87.7501 65.2478Z"></path>
<path fill="#575876" d="M97.7502 67.2478V73.2479L96.2501 76.2477V70.2476L97.7502 67.2478Z"></path>
<path fill="#9395AA" d="M113 92L118 93V98L113 97V92Z"></path>
<path fill="white" d="M114.5 89.0002L119.5 90.0002L118 93L113 92L114.5 89.0002Z"></path>
<path fill="#575876" d="M119.5 90.0002V95.0003L118 98V93L119.5 90.0002Z"></path>
<path fill="#9395AA" d="M113 98L116.75 98.75V101.75L113 101V98Z"></path>
<path fill="white" d="M113.455 97.0909L117.205 97.8409L116.75 98.75L113 98L113.455 97.0909Z"></path>
<path fill="#575876" d="M118.25 97.5001V98.7503L116.75 101.75V98.75L117.205 97.8409L118 98L118.25 97.5001Z"></path>
<path fill="#9395AA" d="M91.0001 101.8L106 104.8V111.5L91.0001 108.5V101.8Z"></path>
<path fill="#575876" d="M109.046 105.409L106 111.5V104.8L109.046 105.409Z"></path>
<path fill="#9395AA" d="M95.5001 78.5001L100.5 79.5001V81.5002L95.5001 80.5001V78.5001Z"></path>
<path fill="white" d="M97.0002 75.5004L102 76.5004L100.5 79.5001L95.5001 78.5001L97.0002 75.5004Z"></path>
<path fill="#575876" d="M102 76.5004V78.5004L100.5 81.5002V79.5001L102 76.5004Z"></path>
<path fill="#957B63" d="M93.2501 82.2502V89.2368L82 87.0002V80.0001L93.2501 82.2502Z"></path>
<path fill="#957B63" d="M93.7623 71.7501V75.7501L88.7501 74.7456V70.7322L93.7623 71.7501Z"></path>
<path fill="#957B63" d="M111.262 75.2501V79.2501L106.25 78.2457V74.2322L111.262 75.2501Z"></path>
<path fill="#FFDB9F" d="M96.2501 76.2477L93.2501 82.2502L82 80.0001L86.2501 71.5001V74.2477L96.2501 76.2477Z"></path>
<path fill="#FFDB9F" d="M97.7502 71.0481L98.7502 71.2481L97.7502 73.2479V71.0481Z"></path>
<path fill="#9395AA" d="M78 84.9999L82 85.7999V90.8L78 90V84.9999Z"></path>
<path fill="white" d="M79.5 82.0002L82 82.5002V85.7999L78 84.9999L79.5 82.0002Z"></path>
<path fill="#9395AA" d="M79.25 91.25L82 91.8V94.8L79.25 94.25V91.25Z"></path>
<path fill="white" d="M79.7046 90.3409L82 90.8V91.8L79.25 91.25L79.7046 90.3409Z"></path>
<path fill="#4B2031" d="M87.0001 83.0002L89.5001 83.5002V85.5002L87.0001 85.0002V83.0002Z"></path>
<path fill="#4B2031" d="M104.5 86.5002L107 87.0002V89.0002L104.5 88.5002V86.5002Z"></path>
<path fill="#4B2031" d="M95.2501 86.7502L97.7501 87.2502V89.2502L95.2501 88.7502V86.7502Z"></path>
<path fill="#843B4E" d="M95.7501 85.7503L98.2501 86.2503L97.7501 87.2502L95.2501 86.7502L95.7501 85.7503Z"></path>
<path fill="#261326" d="M98.2501 86.2503V88.2503L97.7501 89.2502V87.2502L98.2501 86.2503Z"></path>
<path fill="#957B63" d="M109.5 93.5136V103.5L84.5 98.5137V88.5136L109.5 93.5136Z"></path>
<path fill="#5B5869" d="M85.0001 88.6136V97.5137L84.5 98.5137V88.5136L85.0001 88.6136Z"></path>
<path fill="#FFFEFF" d="M85.0001 97.5137L109.5 102.401V103.5L84.5 98.5137L85.0001 97.5137Z"></path>
<path fill="#4B2031" d="M88.7501 90.2503L91.2501 90.7503V93.7503L88.7501 93.2503V90.2503Z"></path>
<path fill="#4B2031" d="M103.75 93.2503L106.25 93.7503V96.7504L103.75 96.2503V93.2503Z"></path>
<path fill="#4B2031" d="M95.0001 92.5003L96.2501 92.7502V93.7502L98.7502 94.2503V93.2502L100 93.5003V95.5003L95.0001 94.5003V92.5003Z"></path>
<path fill="#5F6075" d="M94.7501 101.75L97.2501 102.25V104.25L94.7501 103.75V101.75Z"></path>
<path fill="#ACABBB" d="M95.7501 99.7504L98.2501 100.25L97.2501 102.25L94.7501 101.75L95.7501 99.7504Z"></path>
<path fill="#373950" d="M98.2501 100.25V102.25L97.2501 104.25V102.25L98.2501 100.25Z"></path>
<path fill="#5F6075" d="M97.7502 102.25L100.25 102.75V109.75L99.0002 109.5V106.5L94.0001 105.5V107.5L99.0002 108.5V109.5L92.7501 108.25V101.25L94.7956 101.659L94.7501 101.75V103.75L97.2501 104.25L97.7501 103.25L97.7502 102.25Z"></path>
<path fill="#373950" d="M100.75 101.75V108.751L100.25 109.75V102.75L100.75 101.75Z"></path>
<path fill="#373950" d="M94.5001 105.6V106.5L94.0001 107.5V105.5L94.5001 105.6Z"></path>
<path fill="#ACABBB" d="M94.5001 106.5L99.0002 107.4V108.5L94.0001 107.5L94.5001 106.5Z"></path>
<path fill="#ACABBB" d="M93.2501 100.25L95.2922 100.666L94.7956 101.659L92.7501 101.25L93.2501 100.25Z"></path>
<path fill="#ACABBB" d="M98.2502 101.25L100.75 101.75L100.25 102.75L97.7502 102.25L98.2502 101.25Z"></path>
<path fill="#957B63" d="M103.5 104.3V110.987L93.5001 109V108.4L100.25 109.75L100.75 108.751V103.75L103.5 104.3Z"></path>
<path fill="#957B63" d="M94.5001 105.6L99.0002 106.5V107.4L94.5001 106.5V105.6Z"></path>
<path fill="#9395AA" d="M106 111.5L106.25 111V111.25L106.136 111.227L106 111.5Z"></path>
<path fill="white" d="M106 111.5L107.25 109L106.25 111L106 111.5Z"></path>
<path fill="#575876" d="M107.25 109V110.25L105.75 113.25V112.25L106.25 111.25V111L107.25 109Z"></path>
<path fill="#9395AA" d="M103.25 111.75L105.75 112.25V113.25L103.25 112.75V111.75Z"></path>
<path fill="white" d="M103.614 111.023L106 111.5L106.136 111.227L106.25 111.25L105.75 112.25L103.25 111.75L103.614 111.023Z"></path>
<path fill="#575876" d="M96.5701 109.61L95.7499 111.25V110.25L96.1153 109.519L96.5701 109.61Z"></path>
<path fill="#9395AA" d="M93.2499 109.75L95.7499 110.25V111.25L93.2499 110.75V109.75Z"></path>
<path fill="white" d="M93.6137 109.023L96.1153 109.519L95.7499 110.25L93.2499 109.75L93.6137 109.023Z"></path>
<path fill="white" d="M93 130H94V129H99V131H95V132H97V134H95V135V137H94H93V136V130Z"></path>
<path fill="white" d="M100 130H101V129H106V131H102V132H104V134H102V135V137H101H100V136V130Z"></path>
<path fill="white" d="M107 130V129H108H109V131V135H113V137H108V136H107V131V130Z"></path>
<path fill="white" d="M79 129H84V130H85V133H84V134H81V132H83V131H81V132V134V137H79V129Z"></path>
<path fill="white" d="M114 130H115V129H120V131H116V132H118V134H116V135H120V137H115V136H114V130Z"></path>
<path fill="white" d="M86 130V129H87H92V131H90V135H92V137H86V135H88V131H86V130Z"></path>
</svg>
