<svg xmlns="http://www.w3.org/2000/svg" fill="none" viewBox="0 0 200 200" height="200" width="200">
<path fill="#F1FFFF" d="M95.5039 52.5L110.504 55.5002L105.504 65.5001L90.504 62.5002L95.5039 52.5Z"></path>
<path fill="#51F7A3" d="M105.504 65.5001L110.504 55.5002V91.4998L104.504 103.5V101.5L105.504 99.4998V65.5001Z"></path>
<path fill="#70FFEB" d="M90.504 62.5002L105.504 65.5001V99.4998L104.504 101.5V103.5L89.504 100.5V98.4998L90.504 96.4998V62.5002Z"></path>
<path fill="#F1FFFF" d="M108.504 71.5001L116.004 73.0003L114.004 77.0003L106.504 75.5003L108.504 71.5001Z"></path>
<path fill="#70FFEB" d="M106.504 75.5003L114.004 77.0003V88.9999L109.004 87.9997V80.0001L106.504 79.5003V75.5003Z"></path>
<path fill="#51F7A3" d="M114.004 77.0003L116.004 73.0003V81.0003L119.004 75.0001V79.0003L114.004 88.9999V77.0003Z"></path>
<path fill="#F1FFFF" d="M87.0039 65.0001L90.504 65.7003V70.1003L85.0039 69.0001L87.0039 65.0001Z"></path>
<path fill="#70FFEB" d="M85.0039 69.0001L90.504 70.1003V74.1002L90.0039 74.0003L90 82.0007L85 81.0005L85.0039 73.0001V69.0001Z"></path>
<path fill="#51F7A3" d="M90.504 70.1003V65.7003V75.5001V81.0001L90 82.0007L90.0039 74.0003L90.504 74.1002V70.1003Z"></path>
<path fill="#F1FFFF" d="M116.004 74.4L119.004 75.0001L116.004 81.0003V74.4Z"></path>
<path fill="#7FACFF" d="M116.004 76.6L118.004 77.0001L117.004 78.9999L116.004 78.8V76.6Z"></path>
<path fill="#000004" d="M117.004 78.9999L118.004 77.0001L118.004 85L117.004 87L117.004 78.9999Z"></path>
<path fill="#191F2B" d="M117.004 83L115.186 86.6363L117.004 87L117.004 83Z"></path>
<path fill="#F1FFFF" d="M90.504 96.4998L105.504 99.4998L104.504 101.5L89.504 98.4998L90.504 96.4998Z"></path>
</svg>
