<svg xmlns="http://www.w3.org/2000/svg" fill="none" viewBox="0 0 200 200" height="200" width="200">
<path fill="black" d="M76 100L116 108V116L76 108V100Z"></path>
<path fill="black" d="M116 108L124 91.9999V99.9999L116 116V108Z"></path>
<path fill="black" d="M84.0001 84L124 91.9999L116 108L76 100L84.0001 84Z"></path>
<path fill="#CC0000" d="M76 100L116 108V116L113.5 115.5V109.5L78.5 102.5V108.5L76 108V100Z"></path>
<path fill="#800000" d="M124 91.9999L116 108V116L117 114V108L123 96V102L124 99.9999V91.9999Z"></path>
<path fill="#FF0000" d="M84.0001 84L124 91.9999L116 108L114.5 105.5L120.5 93.5L85.5 86.5L79.5 98.5L114.5 105.5L116 108L76 100L84.0001 84Z"></path>
</svg>
