<svg xmlns="http://www.w3.org/2000/svg" fill="none" viewBox="0 0 200 200" height="200" width="200">
<path fill="#4F5065" d="M68.9978 55L113.998 64V100L68.9978 91.0001V55Z"></path>
<path fill="#26263E" d="M113.998 64L131.998 28V64L113.998 100V64Z"></path>
<path fill="#7D8093" d="M86.9978 19L131.998 28L113.998 64L68.9978 55L86.9978 19Z"></path>
<path fill="#4F5065" d="M75.9978 48.0006L110.998 55.0006V59.0006L75.9978 52.0006V48.0006Z"></path>
<path fill="#26263E" d="M110.998 55.0006L124.998 27.0006V31.0006L110.998 59.0006V55.0006Z"></path>
<path fill="#7D8093" d="M89.9978 20.0006L124.998 27.0006L110.998 55.0006L75.9978 48.0006L89.9978 20.0006Z"></path>
<path fill="#4F5065" d="M71.9972 64.001L106.997 71.001V99.001L71.9972 92.001V64.001Z"></path>
<path fill="#26263E" d="M106.997 71.001L108.997 67.001V95.001L106.997 99.001V71.001Z"></path>
<path fill="#7D8093" d="M73.9972 60.001L108.997 67.001L106.997 71.001L71.9972 64.001L73.9972 60.001Z"></path>
<path fill="#4F5065" d="M115.997 64.001L120.997 65.001V93.001L115.997 92.001V64.001Z"></path>
<path fill="#26263E" d="M120.997 65.001L134.997 37.001V65.001L120.997 93.001V65.001Z"></path>
<path fill="#7D8093" d="M129.997 36.001L134.997 37.001L120.997 65.001L115.997 64.001L129.997 36.001Z"></path>
<path fill="#4F5065" d="M66 54L69.1798 54.636L68.9978 55V82.5996L66 82.0001V54Z"></path>
<path fill="#7D8093" d="M80 26L83.1798 26.636L69.1798 54.636L66 54L80 26Z"></path>
<path fill="#26263E" d="M128.814 27.3632L128.997 26.9967V27.3999L128.814 27.3632Z"></path>
<path fill="#7D8093" d="M93.9973 19.9967L128.997 26.9967L128.814 27.3632L93.814 20.3632L93.9973 19.9967Z"></path>
<path fill="#4F5065" d="M91 29.0014L100.995 31.0004L99.181 34.6376L91 33.0014V29.0014Z"></path>
<path fill="#26263E" d="M87 37.0043L91 29.0037V33.0037L88.8186 37.3666L87 37.0043Z"></path>
<path fill="#4E505D" d="M91 33.0037L99.181 34.6376L97 39.002L88.8186 37.3666L91 33.0037Z"></path>
<path fill="#4F5065" d="M102.005 40.002L107 41.001L105.186 44.6381L102.005 44.002V40.002Z"></path>
<path fill="#26263E" d="M100.005 44.0049L102.005 40.0043V44.0043L101.823 44.3672L100.005 44.0049Z"></path>
<path fill="#4E505D" d="M102.005 44.0043L105.186 44.6381L105.005 45.0025L101.823 44.3672L102.005 44.0043Z"></path>
<path fill="#7D8093" d="M129.364 52.2747L133 53.002L129 61.002V53.002L129.364 52.2747Z"></path>
<path fill="#4F5065" d="M129.364 52.2747L129 53.002L133 45.0039V53.002L129.364 52.2747Z"></path>
<path fill="#7D8093" d="M127.182 72.6365L129 73L127 77V73L127.182 72.6365Z"></path>
<path fill="#4F5065" d="M127.182 72.6365L127 73L129 69.002V73L127.182 72.6365Z"></path>
<path fill="#26263E" d="M77 85L82 86.002V86.0001L78.8179 85.3643L77 89.0001V85Z"></path>
<path fill="#7D8093" d="M77 89.0001L78.8179 85.3643L82 86.0001V90.0001L77 89.0001Z"></path>
<path fill="#26263E" d="M92 72L93.8179 72.3643L94 72.4007V76.002L92 80.0001V72Z"></path>
<path fill="#7D8093" d="M92 80.0001L94 76.002V72.4007L93.8179 72.3643L102 74.002V82.0001L92 80.0001Z"></path>
<path fill="#333240" d="M94 72.4007L102 74.002V77.602L94 76.002V72.4007Z"></path>
</svg>
