<svg xmlns="http://www.w3.org/2000/svg" fill="none" viewBox="0 0 200 200" height="200" width="200">
<path fill="#4E3B31" d="M176 80.0005L183.996 64.0005V100L176.025 116L176 80.0005Z"></path>
<path fill="#876548" d="M101.003 65.0005L176 80.0005L176.025 116L101.003 101V78.0005V66.0005V65.0005Z"></path>
<path fill="#F5B572" d="M109 49.0005L183.996 64.0005L176 80.0005L101.003 65.0005L109 49.0005Z"></path>
<path fill="#FFEDAB" d="M107.001 53.0005L182.03 68.0005L178.027 76.0005L103 61.0005L107.001 53.0005Z"></path>
<path fill="#896F5A" d="M106.025 70.0288L171.043 83.0317L171.025 111.029L106.025 98.0288V70.0288Z"></path>
<path fill="#938B97" d="M111.025 75.0288L166.043 86.0317L166.025 98.0288L116.043 88.0317V92.0317L166.043 102.029V106.032L111.025 95.0317V83.0317L161.043 93.0317V89.0317L111.025 79.0288V75.0288Z"></path>
<path fill="#564E4A" d="M182.03 68.0005V104.008L178.027 112.022V76.0005L182.03 68.0005Z"></path>
<path fill="#958BBB" d="M108.025 102.396L123.025 105.398V113L108.025 109.999V102.396Z"></path>
<path fill="#607A4C" d="M113.025 103.396L118.025 104.398V107.999L113.025 106.997V103.396Z"></path>
<path fill="#56527F" d="M123.025 105.398L126.479 106.089L123.025 113V105.398Z"></path>
<path fill="#8F4A7A" d="M158.025 112.396L173.025 115.398V123L158.025 119.999V112.396Z"></path>
<path fill="#607A4C" d="M163.025 113.396L168.025 114.398V117.999L163.025 116.997V113.396Z"></path>
<path fill="#542B54" d="M173.025 115.398L176.025 116L176.996 114.058V115L173.025 123V115.398Z"></path>
<path fill="#8F6536" d="M94.0029 100L94.0028 96.0021H96.0001L101.003 97.0004L101.003 101L96.0189 100L96.0001 96.0021L94.0029 100Z"></path>
<path fill="#8F6536" d="M98.0131 83.9993L101.019 84.5782L101.003 92.6004L97.9971 91.9993L98.0131 83.9993Z"></path>
<path fill="#FFB356" d="M97.9971 91.9993L101.003 92.6004L101.003 97.0004L96.0001 96.0021H94.0028L94.0029 100L96.0001 96.0021L97.9971 91.9993Z"></path>
<path fill="#FFB356" d="M101.003 78.0005L101.019 84.5782L98.0131 83.9993L101.003 78.0005Z"></path>
<path fill="#8F6536" d="M64.0033 98.0004L94.0034 104V108L64.0033 102V98.0004Z"></path>
<path fill="#533B25" d="M94.0034 104L96.0189 100L97.8371 100.364L94.0034 108V104Z"></path>
<path fill="#1C428F" d="M64.0029 94.0004L94.0029 100L94.0034 104L64.0033 98.0004L64.0029 94.0004Z"></path>
<path fill="#1A3178" d="M94.0029 100L96.0001 96.0021L96.0189 100L94.0034 104L94.0029 100Z"></path>
<path fill="#2D54AB" d="M64.0027 86.0004L69.0027 87.0005V75.0005L94.0028 80.0004L94.0029 100L64.0029 94.0004L64.0027 86.0004Z"></path>
<path fill="#8F7223" d="M69.0027 78.9985L84.0028 82.0005V90.0024L69.0027 87.0005V78.9985Z"></path>
<path fill="#6D392A" d="M84.0028 82.0005L94.0028 84.0018V92.0037L84.0028 90.0024V82.0005Z"></path>
<path fill="#5297FF" d="M64 86.0005L69.0027 75.9951L69 87.0005L64 86.0005Z"></path>
<path fill="#5297FF" d="M69.0027 75.0005L81.0027 50.9995L105.546 55.9098L101.003 65.0005V66.0005L94.0028 80.0004L69.0027 75.0005Z"></path>
<path fill="#1A3178" d="M94.0028 80.0004L101.003 66.0005V78.0005L98.0131 83.9993L97.9971 91.9993L96.0001 96.0021L94.0029 100L94.0028 96.0021L94.0028 92.0037V80.0004Z"></path>
<path fill="#8995CB" d="M81.0208 64.9913L96.0208 67.9914L96.0241 67.9849L96.0209 75.9951L76.0208 71.9932V67.9922L81.0208 68.9951V64.9913Z"></path>
<path fill="#F9FFFF" d="M89.0209 48.9932L104.021 51.9933L96.0208 67.9914L81.0208 64.9913L89.0209 48.9932Z"></path>
<path fill="#F9FFFF" d="M104.021 51.9933L104.024 51.9868L96.0241 67.9849L96.0208 67.9914L104.021 51.9933Z"></path>
<path fill="#4F588B" d="M104.024 51.9868L104 59.0005L101.003 65.0005V66.0005L96.0209 75.9951L96.0241 67.9849L104.024 51.9868Z"></path>
<path fill="#F9FFFF" d="M84.0209 51.997L87.2007 52.633L81.0208 64.9913V68.9951L76.0208 67.9951L84.0209 51.997Z"></path>
<path fill="#FF83C3" d="M97.0241 54.9859L102.024 55.9877L100.024 59.9858L95.0241 58.9841L97.0241 54.9859Z"></path>
<path fill="#ADDB7C" d="M87.9971 61.9867L92.9971 62.9885L90.9971 66.9866L85.9971 65.9849L87.9971 61.9867Z"></path>
<path fill="#607A4C" d="M85.9971 65.9849L90.9971 66.9866L90.9971 70.9848L85.9971 69.983V65.9849Z"></path>
<path fill="#FF83C3" d="M80.0209 59.9961L83.2009 60.6332L81.2008 64.6313L78.0208 63.9942L80.0209 59.9961Z"></path>
<path fill="#142E76" d="M79.0047 89.0023V97.003L77.0047 101.001V93.0005L79.0047 89.0023Z"></path>
<path fill="#428BFF" d="M74.0047 88.0006L79.0047 89.0023L77.0047 93.0005L72.0047 91.9987L74.0047 88.0006Z"></path>
<path fill="#244EA7" d="M72.0047 91.9987L77.0047 93.0005V101.001L72.0047 99.9997V91.9987Z"></path>
<path fill="#391D20" d="M73.9971 100.399L77.0047 101.001L79.0047 97.003L88.9971 99.0013L88.9816 110.972L73.9971 108.001V100.399Z"></path>
<path fill="#832630" d="M78.9971 101.001L83.997 102.003V106.001L78.9971 105V101.001Z"></path>
<path fill="#201116" d="M88.9971 107.005L90.8153 107.365L88.9816 110.972L88.9971 107.005Z"></path>
<path fill="#48061F" d="M113.003 45.0018V48.9998L111.003 53.002L112.639 49.7283L111.003 49.4011L103.003 47.002L103.003 51.002V51.7897L101.003 51.3897V51.002L111.003 53.002L107.364 52.2742L109 49.0005L111.003 49.4011V48.9998L113.003 45.0018Z"></path>
<path fill="#E1144A" d="M98.0027 42L113.003 45.0018L111.003 48.9998L96.0027 45.9981L98.0027 42Z"></path>
<path fill="#7D0B2E" d="M96.0027 45.9981L111.003 48.9998V49.4011L109 49.0005L107.364 52.2742L111.003 53.002L101.003 51.002V51.3897L96.0027 50.3896L96.0027 45.9981Z"></path>
<path fill="#607A4C" d="M96.0027 50.0006L101.003 51.002V51.3897L96.0027 50.3896V50.0006Z"></path>
<path fill="#374735" d="M101.003 51.002L102.821 51.3656L103.003 51.002V51.7897L101.003 51.3897V51.002Z"></path>
<path fill="#607A4C" d="M101.003 47.0038L106.003 48.0056V52.0037L101.003 51.002V47.0038Z"></path>
<path fill="#ADDB7C" d="M103.003 43.0057L108.003 44.0075L106.003 48.0056L101.003 47.0038L103.003 43.0057Z"></path>
<path fill="#48061F" d="M99.0027 73.0022V77.0003L97.0028 81.0024L89.0027 75.0024V95.0029L87.0028 99.0013V79.0024L97.0028 81.0024V77.0003L99.0027 73.0022Z"></path>
<path fill="#E1144A" d="M84.0027 70.0005L99.0027 73.0022L97.0028 77.0003L82.0027 73.9986L84.0027 70.0005Z"></path>
<path fill="#7D0B2E" d="M82.0027 73.9986L97.0028 77.0003V81.0024L87.0028 79.0024V99.0013L82.0027 97.9996V73.9986Z"></path>
<path fill="#607A4C" d="M82.0027 94.0015L87.0028 95.0032V99.0013L82.0027 97.9996V94.0015Z"></path>
<path fill="#374735" d="M87.0028 95.0032L89.0027 91.0048V95.0029L87.0028 99.0013V95.0032Z"></path>
<path fill="#607A4C" d="M82.0027 86.0011L87.0028 87.0028V91.001L82.0027 89.9992V86.0011Z"></path>
<path fill="#374735" d="M87.0028 87.0028L89.0028 83.0044V87.0025L87.0028 91.001V87.0028Z"></path>
<path fill="#607A4C" d="M82.0027 78.0011L87.0028 79.0024L87.0028 83.001L82.0027 81.9992V78.0011Z"></path>
<path fill="#374735" d="M87.0028 79.0024L88.8209 79.3661L89.0028 79.0025L87.0028 83.001L87.0028 79.0024Z"></path>
<path fill="#607A4C" d="M87.0028 75.0043L92.0028 76.0061V80.0042L87.0028 79.0024V75.0043Z"></path>
<path fill="#ADDB7C" d="M89.0028 71.0062L94.0028 72.008L92.0028 76.0061L87.0028 75.0043L89.0028 71.0062Z"></path>
</svg>
