<svg xmlns="http://www.w3.org/2000/svg" fill="none" viewBox="0 0 200 200" height="200" width="200">
<path fill="#FF80E3" d="M88 75.5L128 83.5L112 115.5L72 107.5L88 75.5Z"></path>
<path fill="#CC66B6" d="M82.4977 91L107.498 96V108L82.4977 103V91Z"></path>
<path fill="#804071" d="M107.498 96L117.498 76V88L107.498 108V96Z"></path>
<path fill="#FF80E3" d="M92.4977 71L117.498 76L107.498 96L82.4977 91L92.4977 71Z"></path>
<path fill="#CC66B6" d="M85.9977 87.5L105.998 91.5V93.5L85.9977 89.5V87.5Z"></path>
<path fill="#804071" d="M105.998 91.5L113.998 75.5002V77.4993L105.998 93.4993V91.5Z"></path>
<path fill="#CC66B6" d="M108.498 96L110.998 96.5V106.5L108.498 106V96Z"></path>
<path fill="#FF80E3" d="M116.498 80L118.998 80.5L110.998 96.5L108.498 96L116.498 80Z"></path>
<path fill="#804071" d="M110.998 96.5L118.998 80.5V90.5L110.998 106.5V96.5Z"></path>
<path fill="#FF80E3" d="M84.9974 93.5L104.997 97.5L103.997 99.5L83.9974 95.5L84.9974 93.5Z"></path>
<path fill="#CC66B6" d="M83.9974 95.5L103.997 99.5V109.5L83.9974 105.5V95.5Z"></path>
<path fill="#804071" d="M103.997 99.5L104.997 97.5V107.5L103.997 109.5V99.5Z"></path>
<path fill="#CC66B6" d="M81 90.4995L82.589 90.8173L82.4977 91V100.799L81 100.5V90.4995Z"></path>
<path fill="#FF80E3" d="M89 74.4995L90.589 74.8173L82.589 90.8173L81 90.4995L89 74.4995Z"></path>
<path fill="#FF80E3" d="M95.9977 71.5033L115.998 75.5033L115.908 75.6821L95.9083 71.6821L95.9977 71.5033Z"></path>
<path fill="#804071" d="M115.908 75.6821L115.998 75.5033V75.7L115.908 75.6821Z"></path>
<path fill="#FF80E3" d="M82.5 101L84 101.3V103.5L104 107.5L105 105.5L107.5 106L108.5 104L111 104.5L120 86.5L122.502 87L112.5 107L110 106.5L108.998 108.5L106.5 108L105.5 110L80.5 105L81.5 103L79 102.5L80 100.5L77.5 100L79 97L81 97.4V98.5L82.5 98.8V101Z"></path>
<path fill="#CC66B6" d="M80.5 105L105.5 110V112L80.5 107V105Z"></path>
<path fill="#804071" d="M105.5 110L106.5 108V110L105.5 112V110Z"></path>
<path fill="#CC66B6" d="M106.5 108L108.998 108.5V110.5L106.5 110V108Z"></path>
<path fill="#804071" d="M108.998 108.5L110 106.5V108.5L108.998 110.5V108.5Z"></path>
<path fill="#CC66B6" d="M110.002 106.5L112.5 107V109L110.002 108.5V106.5Z"></path>
<path fill="#804071" d="M112.5 107L122.502 87V89L112.5 109V107Z"></path>
<path fill="#CC66B6" d="M79 102.5L81.4977 103L80.5908 104.818L79 104.5V102.5Z"></path>
<path fill="#CC66B6" d="M77.5 100L79.9977 100.5L79.0908 102.318L77.5 102V100Z"></path>
<path fill="#804071" d="M120 86.5L121.002 84.5V86.5L120.911 86.682L120 86.5Z"></path>
<path fill="#804071" d="M118.498 84L119.5 82V84L119.409 84.182L118.498 84Z"></path>
</svg>
