<svg xmlns="http://www.w3.org/2000/svg" fill="none" viewBox="0 0 200 200" height="200" width="200">
<path fill="#295489" d="M86.0001 50.0001L106 54V106L101 105L91.0001 103L86.0001 102V50.0001Z"></path>
<path fill="#1F3B62" d="M106 54L114 38V90L106 106V54Z"></path>
<path fill="#5EC2FE" d="M86.0001 50.0001L94.0001 34.0001L114 38L106 54L86.0001 50.0001Z"></path>
<path fill="#19426E" d="M96.0001 80.0001L106 82.0001V90.0001L96.0001 88.0001V80.0001Z"></path>
<path fill="#19426E" d="M91.0001 99.0001L101 101V105L91.0001 103V99.0001Z"></path>
<path fill="#173456" d="M106 82.0001L108 78V86L106 90.0001V82.0001Z"></path>
<path fill="#173456" d="M108 66L112 58V66L108 74V66Z"></path>
<path fill="#602360" d="M103 45L118 48V56L108 54V50.0001L103 49.0001V45Z"></path>
<path fill="#4B1B43" d="M118 48L122 40V48.0001L118 56V48Z"></path>
<path fill="#BE4CAD" d="M103 45L97.0001 57L87.0001 55L93.0001 43.0001L78.0001 40.0001L82.0001 32.0001L97.0001 35.0001L103 23.0001L113 25.0001L107 37.0001L122 40L118 48L103 45Z"></path>
<path fill="#4B1B43" d="M97.0001 57L103 45V49.0001L101 53V57.0001L97.0001 65.0001V57Z"></path>
<path fill="#602360" d="M87.0001 55L97.0001 57V65.0001L86.9999 63L87.0001 55Z"></path>
<path fill="#602360" d="M78.0001 40.0001L93.0001 43.0001L91.1819 46.6365L88 46.0002L86.1819 49.6365L78 48.0001L78.0001 40.0001Z"></path>
<path fill="#4B1B43" d="M107 37.0001L113 25.0001L113 33.0001L110.818 37.3637L109 37.0001L108.818 37.3637L107 37.0001Z"></path>
<path fill="#8148BB" d="M103 41L103 45L101.182 44.6365L103 41Z"></path>
<path fill="#6A338E" d="M103 41L104.818 41.3636L103 45L103 41Z"></path>
<path fill="#8148BB" d="M103 37L108 37.9999V41.9999L103 41L103 37Z"></path>
<path fill="#6A338E" d="M108 37.9999L112 29.9997V33.9997L108 41.9999V37.9999Z"></path>
<path fill="#8148BB" d="M91.0001 39.0002L101 41.0001V45.0001L90.9999 43.0003L91.0001 39.0002Z"></path>
<path fill="#6A338E" d="M101 41.0001L103 37L103 41L101 45.0001V41.0001Z"></path>
<path fill="#FF98FE" d="M93.0003 35.0001L103 37L101 41.0001L91.0001 39.0002L93.0003 35.0001Z"></path>
<path fill="#FF98FE" d="M107 28.9998L112 29.9997L108 37.9999L103 37L107 28.9998Z"></path>
<path fill="#8148BB" d="M88.0002 34.0006L93.0003 35.0001L91.1819 38.6366L88 38.0006L88.0002 34.0006Z"></path>
<path fill="#FF98FE" d="M92.0001 26.0004L97.0001 27.0003L93.0003 35.0001L88.0002 34.0006L92.0001 26.0004Z"></path>
<path fill="#FF98FE" d="M99.0004 23.0004L109 25.0002L107 28.9998L97.0001 27.0003L99.0004 23.0004Z"></path>
<path fill="#6A338E" d="M107 28.9998L109 25.0002L109 29.0003L108.819 29.3634L107 28.9998Z"></path>
<path fill="#8B7BFF" d="M93.0008 31.0001L103.001 33L103 37L93.0003 35.0001L93.0008 31.0001Z"></path>
<path fill="#755BC0" d="M103.001 33L107.001 24.9999L107 28.9998L103 37L103.001 33Z"></path>
<path fill="white" d="M97.001 23L107.001 24.9999L103.001 33L93.0008 31.0001L97.001 23Z"></path>
<path fill="#173456" d="M110 86L114 78.0001V90L110 98.0001V86Z"></path>
<path fill="#19426E" d="M86.0001 62.0001L86.9999 62.2L86.9999 63L96.0001 64.8001V72.0001L86.0001 70V62.0001Z"></path>
</svg>
