<svg xmlns="http://www.w3.org/2000/svg" fill="none" viewBox="0 0 200 200" height="200" width="200">
<path fill="#9585BB" d="M96.5 61.5006L101.5 62.5006V98.5006L96.5 97.5006V61.5006Z"></path>
<path fill="#564F7F" d="M101.5 62.5006L103.5 58.5006V94.5006L101.5 98.5006V62.5006Z"></path>
<path fill="#3D7162" d="M79.5 34.5006L114.5 41.5006V69.5006L79.5 62.5006V34.5006Z"></path>
<path fill="#234244" d="M114.5 41.5006L120.5 29.5006V57.5006L114.5 69.5006V41.5006Z"></path>
<path fill="#6FC99B" d="M79.5 34.5006L85.5 22.5L120.5 29.5006L114.5 41.5006L79.5 34.5006Z"></path>
<path fill="#15372E" d="M114.5 45.5006L120.5 33.5006V57.5006L114.5 69.5006V45.5006Z"></path>
<path fill="#255F42" d="M84.4956 39.4997L114.5 45.5006V69.5006L109.496 68.4997V48.4997L89.5 44.4997V56.4997L99.5 58.5006V54.5001L94.5 53.4997V49.4997L104.5 51.4997V63.4997L84.4956 59.4997V39.4997Z"></path>
<path fill="#734AC3" d="M101.5 74.5006L106.5 75.5006V87.5006L101.5 86.5006V74.5006Z"></path>
<path fill="#422B87" d="M106.5 75.5006L108.5 71.5006V83.5006L106.5 87.5006V75.5006Z"></path>
<path fill="#CF83FF" d="M103.5 70.5006L108.5 71.5006L106.5 75.5006L101.5 74.5006L103.5 70.5006Z"></path>
<path fill="#734AC3" d="M91.5 72.5L96.5 73.5V85.5L91.5 84.5V72.5Z"></path>
<path fill="#CF83FF" d="M93.5 68.5L96.5 69.1V73.5L91.5 72.5L93.5 68.5Z"></path>
<path fill="#734AC3" d="M99.5 74.5006L109.5 76.5006V84.5006L99.5 82.5006V74.5006Z"></path>
<path fill="#422B87" d="M109.5 76.5006L111.5 72.5006V80.5006L109.5 84.5006V76.5006Z"></path>
<path fill="#CF83FF" d="M101.5 70.5006L111.5 72.5006L109.5 76.5006L99.5 74.5006L101.5 70.5006Z"></path>
<path fill="#734AC3" d="M84.5 71.5006L94.5 73.5006V81.5006L84.5 79.5006V71.5006Z"></path>
<path fill="#422B87" d="M94.5 73.5006L96.5 69.5006V77.5006L94.5 81.5006V73.5006Z"></path>
<path fill="#CF83FF" d="M86.5 67.5006L96.5 69.5006L94.5 73.5006L84.5 71.5006L86.5 67.5006Z"></path>
<path fill="#7B59CB" d="M94.5 73.5006L99.5 74.5006V78.5006L94.5 77.5006V73.5006Z"></path>
<path fill="#DF9FFF" d="M96.5 69.5006L101.5 70.5006L99.5 74.5006L94.5 73.5006L96.5 69.5006Z"></path>
</svg>
