<svg xmlns="http://www.w3.org/2000/svg" fill="none" viewBox="0 0 200 200" height="200" width="200">
<path fill="#5C4D62" d="M86.0001 69.9999L106 73.9999V106L86.0001 102V69.9999Z"></path>
<path fill="#4F3C4F" d="M106 73.9999L114 57.9999V89.9999L106 106V73.9999Z"></path>
<path fill="#C9AECB" d="M86.0001 69.9999L94.0001 54L114 57.9999L106 73.9999L86.0001 69.9999Z"></path>
<path fill="#584352" d="M91.0001 83L106 86V98L91.0001 95V83Z"></path>
<path fill="#584352" d="M86.0001 97.9999L96.0001 99.9999V104L86.0001 102V97.9999Z"></path>
<path fill="#47333F" d="M106 86L108 81.9999V93.9998L106 98V86Z"></path>
<path fill="#47333F" d="M108 97.9999L112 89.9999V93.9998L108 102V97.9999Z"></path>
<path fill="#47333F" d="M110 66L114 57.9999V70L110 78.0001V66Z"></path>
<path fill="#1357A2" d="M103 64.9999L118 67.9999V75.9999L108 73.9999V69.9999L103 69V64.9999Z"></path>
<path fill="#10417C" d="M118 67.9999L122 59.9999V68L118 75.9999V67.9999Z"></path>
<path fill="#28B7FF" d="M103 64.9999L97.0001 76.9999L87.0001 74.9999L93.0001 63L78.0001 60L82.0001 52L97.0001 55L103 43L113 45L107 57L122 59.9999L118 67.9999L103 64.9999Z"></path>
<path fill="#10417C" d="M97.0001 76.9999L103 64.9999V69L101 72.9999V77L97.0001 85V76.9999Z"></path>
<path fill="#1357A2" d="M87.0001 74.9999L97.0001 76.9999V85L86.9999 82.9999L87.0001 74.9999Z"></path>
<path fill="#1357A2" d="M78.0001 60L93.0001 63L91.1819 66.6364L88 66.0001L86.1819 69.6364L78 68L78.0001 60Z"></path>
<path fill="#10417C" d="M107 57L113 45L113 53L110.818 57.3636L109 57L108.818 57.3636L107 57Z"></path>
<path fill="#6088FF" d="M103 60.9999L103 64.9999L101.182 64.6363L103 60.9999Z"></path>
<path fill="#5069C3" d="M103 60.9999L104.818 61.3635L103 64.9999L103 60.9999Z"></path>
<path fill="#6088FF" d="M103 56.9999L108 57.9998V61.9998L103 60.9999L103 56.9999Z"></path>
<path fill="#5069C3" d="M108 57.9998L112 49.9996V53.9996L108 61.9998V57.9998Z"></path>
<path fill="#6088FF" d="M91.0001 59.0001L101 61V65L90.9999 63.0002L91.0001 59.0001Z"></path>
<path fill="#5069C3" d="M101 61L103 56.9999L103 60.9999L101 65V61Z"></path>
<path fill="#C9FFFF" d="M93.0003 55L103 56.9999L101 61L91.0001 59.0001L93.0003 55Z"></path>
<path fill="#C9FFFF" d="M107 48.9997L112 49.9996L108 57.9998L103 56.9999L107 48.9997Z"></path>
<path fill="#6088FF" d="M88.0002 54.0005L93.0003 55L91.1819 58.6365L88 58.0005L88.0002 54.0005Z"></path>
<path fill="#C9FFFF" d="M92.0001 46.0003L97.0001 47.0002L93.0003 55L88.0002 54.0005L92.0001 46.0003Z"></path>
<path fill="#C9FFFF" d="M99.0004 43.0003L109 45.0001L107 48.9997L97.0001 47.0002L99.0004 43.0003Z"></path>
<path fill="#5069C3" d="M107 48.9997L109 45.0001L109 49.0002L108.819 49.3633L107 48.9997Z"></path>
<path fill="#899A8A" d="M93.0008 51L103.001 52.9999L103 56.9999L93.0003 55L93.0008 51Z"></path>
<path fill="#757569" d="M103.001 52.9999L107.001 44.9998L107 48.9997L103 56.9999L103.001 52.9999Z"></path>
<path fill="white" d="M97.001 42.9999L107.001 44.9998L103.001 52.9999L93.0008 51L97.001 42.9999Z"></path>
</svg>
