<svg xmlns="http://www.w3.org/2000/svg" fill="none" viewBox="0 0 200 200" height="200" width="200">
<path fill="#F1FFFF" d="M94.5001 54.5L109.5 57.5002L104.5 67.5001L89.5001 64.5002L94.5001 54.5Z"></path>
<path fill="#51F7A3" d="M104.5 67.5001L109.5 57.5002V91.5L110.5 89.5001V91.5L104.5 103.5V67.5001Z"></path>
<path fill="#70FFEB" d="M89.5001 64.5002L104.5 67.5001V103.5L89.5001 100.5V64.5002Z"></path>
<path fill="#F1FFFF" d="M109.5 89.3L110.5 89.5001L109.5 91.5V89.3Z"></path>
<path fill="#F1FFFF" d="M108.5 71.5001L116 73.0003L114 77.0003L106.5 75.5003L108.5 71.5001Z"></path>
<path fill="#70FFEB" d="M106.5 75.5003L114 77.0003V85.0003L109 84.0001V80.0001L106.5 79.5003V75.5003Z"></path>
<path fill="#51F7A3" d="M114 77.0003L116 73.0003V85.0003L111 95V91L114 85.0003V77.0003Z"></path>
<path fill="#F1FFFF" d="M109 84.0001L114 85.0003L111 91L106 90.0002L109 84.0001Z"></path>
<path fill="#70FFEB" d="M106 90.0002L111 91V95L106 93.9998V90.0002Z"></path>
<path fill="#7FACFF" d="M108 86.0002L113 87.0004L112 89.0002L107 88.0002L108 86.0002Z"></path>
<path fill="#000004" d="M112 89.0002L113 87.0004L113 95.0002L112 97.0002L112 89.0002Z"></path>
<path fill="#191F2B" d="M109.5 94.7L111 95L112 93.0002L112 97.0002L109.5 96.5003L109.5 94.7Z"></path>
<path fill="#F1FFFF" d="M86 67.0001L89.5001 67.7002V72.1003L84 71.0001L86 67.0001Z"></path>
<path fill="#70FFEB" d="M84 71.0001L89.5001 72.1003V76.1002L89 76.0003V80.0003L84 79.0001V75.0001V71.0001Z"></path>
<path fill="#51F7A3" d="M89.5001 72.1003V67.7002V77.5001V83.0001L86 90V86.0001L89 80.0003V76.0003L89.5001 76.1002V72.1003Z"></path>
<path fill="#F1FFFF" d="M84 79.0001L89 80.0003L86 86.0001L81.0001 85.0003L84 79.0001Z"></path>
<path fill="#70FFEB" d="M81.0001 85.0003L86 86.0001V90L81.0001 88.9999V85.0003Z"></path>
<path fill="#7FACFF" d="M83 81.0001L87.9999 82.0003L87 84.0001L82.0001 83.0001L83 81.0001Z"></path>
<path fill="#000004" d="M87 84.0001L87.9999 82.0003L88 86.0002L87 88.0002L87 84.0001Z"></path>
<path fill="#191F2B" d="M84.5 89.7001L81.0001 88.9999L82 89.1999L81.9999 91.0004L84.4999 91.5004L84.5 89.7001Z"></path>
<path fill="#000004" d="M84.5 89.7001L85.3183 89.8637L84.4999 91.5004L84.5 89.7001Z"></path>
</svg>
