<svg xmlns="http://www.w3.org/2000/svg" fill="none" viewBox="0 0 400 400" height="400" width="400">
<path fill="#035E93" d="M168 185L178 165L233 176V188L223 208L168 197V185Z"></path>
<path fill="#0D73A4" d="M168 185L223 196V204L173 194V190L168 189V185Z"></path>
<path fill="#857AB6" d="M183 184L188 185L186 189L181 188L183 184Z"></path>
<path fill="#55588F" d="M213 182L223 162V174L221 178V170L215 182V190L213 194V182Z"></path>
<path fill="#000100" d="M215 182L221 170V178L215 190V182Z"></path>
<path fill="#000100" d="M203 192V184L188 181V189L203 192Z"></path>
<path fill="#000100" d="M203 200L218 203V211H220L218 215L203 212V200Z"></path>
<path fill="#000100" d="M173 194L188 197V205H190L188 209L173 206V194Z"></path>
<path fill="#282750" d="M186 189L188 185V193L186 197V189Z"></path>
<path fill="#181319" d="M208 193V185L203 184V192L208 193Z"></path>
<path fill="#4B4575" d="M181 188L186 189V197L181 196V188Z"></path>
<path fill="#4B4575" d="M168 197L173 198V202L168 201V197Z"></path>
<path fill="#4B4575" d="M188 201L203 204V208L188 205V201Z"></path>
<path fill="#4B4575" d="M218 207L223 208V212L218 211V207Z"></path>
<path fill="#033A63" d="M225 200L231 188L233 184V188L223 208V204L225 200Z"></path>
<path fill="#05426F" d="M233 176V184L223 204V196L233 176Z"></path>
<path fill="#2D294E" d="M223 208L233 188V192L223 212V208Z"></path>
<path fill="#14D0FF" d="M223 174L233 176L223 196L213 194L223 174Z"></path>
<path fill="#14D0FF" d="M178 165L188 167L183 184L181.182 187.636L168 185L178 165Z"></path>
<path fill="#05A9EC" d="M221 178L231 180L225 192L215 190L221 178Z"></path>
<path fill="#05A9EC" d="M176 169L191 172L185 184L170 181L176 169Z"></path>
<path fill="#879DD4" d="M168 189L173 190V194L168 193V189Z"></path>
<path fill="#879DD4" d="M178 199L183 200V204L178 203V199Z"></path>
<path fill="#879DD4" d="M208 205L213 206V210L208 209V205Z"></path>
<path fill="#8C95CE" d="M183 176L213 182V194L208 193V185L188 181V185L183 184V176Z"></path>
<path fill="#055283" d="M220 187L225 188V192L220 191V187Z"></path>
<path fill="#012F67" d="M225 188L231 176V180L225 192V188Z"></path>
<path fill="#0495DB" d="M226 175L231 176L225 188L220 187L226 175Z"></path>
<path fill="#F9FFFF" d="M193 156L223 162L213 182L183 176L193 156Z"></path>
</svg>
