<svg xmlns="http://www.w3.org/2000/svg" fill="none" viewBox="0 0 200 200" height="200" width="200">
<path fill="#DAE6FF" d="M96 92L111 95L105 107L90 104L96 92Z"></path>
<path fill="#A0AAD5" d="M90 104L105 107V115L90 112V104Z"></path>
<path fill="#5A5D88" d="M105 107L111 95V103L105 115V107Z"></path>
<path fill="#979CC2" d="M100 114L105 115V119L100 118V114Z"></path>
<path fill="#535880" d="M105 115L107 111V115L105 119V115Z"></path>
<path fill="#888EB0" d="M100 118L105 119V123L100 122V118Z"></path>
<path fill="#4A4F6F" d="M105 119L107 115V119L105 123V119Z"></path>
<path fill="#535880" d="M98 118L100 114V118L98 122V118Z"></path>
<path fill="#979CC2" d="M83 115L98 118V122L83 119V115Z"></path>
<path fill="#DBE2FE" d="M89 103L90.3636 103.273L90 104V112L100 114L98 118L83 115L89 103Z"></path>
<path fill="#888EB0" d="M83 119L98 122V130L83 127V119Z"></path>
<path fill="#4A4F6F" d="M98 122L100 118V122L101.818 122.364L98 130V122Z"></path>
<path fill="#888EB0" d="M107 111L112 112V120L107 119V115V111Z"></path>
<path fill="#4A4F6F" d="M112 112L116 104V112L112 120V112Z"></path>
<path fill="#B3BDE0" d="M111 103L116 104L112 112L107 111L111 103Z"></path>
<path fill="#AEBDDA" d="M99 97L104 98L102 102L97 101L99 97Z"></path>
</svg>
