<svg xmlns="http://www.w3.org/2000/svg" fill="none" viewBox="0 0 200 200" height="200" width="200">
<path fill="#ADBDD7" d="M116 108L120 100L125 101L129 93L78.9998 83L70.9998 99L116 108Z"></path>
<path fill="#ADBDD7" d="M126 114L130 106L125 105L120 104L116 112L126 114Z"></path>
<path fill="#383E5E" d="M116 112L120 104V100L116 108V112Z"></path>
<path fill="#383E5E" d="M126.818 105.364L129 101V93L125 101V105L126.818 105.364Z"></path>
<path fill="#606986" d="M120 104L125 105V101L120 100V104Z"></path>
<path fill="#606986" d="M70.9998 107L126 118V114L116 112V108L70.9998 99V107Z"></path>
<path fill="#383E5E" d="M126 118L130 110V106L126 114V118Z"></path>
<path fill="#2C334D" d="M126 126L130 118V110L126 118V126Z"></path>
<path fill="#2C334D" d="M126.818 105.364L129 105.8V101L126.818 105.364Z"></path>
<path fill="#2C334D" d="M109 127L111 123V111L109 115V127Z"></path>
<path fill="#4E5871" d="M111 123L126 126V118L111 115V123Z"></path>
<path fill="#4E5871" d="M88.9998 123L109 127V115L88.9998 111V123Z"></path>
<path fill="#8C9DAF" d="M109 115L111 111L90.9998 107L88.9998 111L109 115Z"></path>
<path fill="#4E5871" d="M70.9998 115L88.9998 118.6V111L89.1816 110.636L88.9998 110.6L70.9998 107V115Z"></path>
<path fill="#4E5871" d="M68 106L70.9998 106.6V99L71.1816 98.6363L68 98V106Z"></path>
<path fill="#8C9DAF" d="M71.1816 98.6363L75.1816 90.6363L72 90L68 98L71.1816 98.6363Z"></path>
</svg>
