<svg xmlns="http://www.w3.org/2000/svg" fill="none" viewBox="0 0 200 200" height="200" width="200">
<path fill="#D9D9D9" d="M71.4999 79.2498L116.5 88.2499V100.25L71.4999 91.2499V79.2498Z"></path>
<path fill="white" d="M72.5 77.2497L117.5 86.2498L116.5 88.2499L71.4999 79.2498L72.5 77.2497Z"></path>
<path fill="#9A9A9A" d="M117.5 86.2498V98.25L116.5 100.25V88.2499L117.5 86.2498Z"></path>
<path fill="#D9D9D9" d="M72.5 75.2498L117.5 84.2499V86.2498L72.5 77.2497V75.2498Z"></path>
<path fill="#D9D9D9" d="M117.5 86.2498L120 86.7499V98.75L117.5 98.25V86.2498Z"></path>
<path fill="white" d="M125.5 70.2497L128.001 70.7497L120 86.7499L117.5 86.2498L125.5 70.2497Z"></path>
<path fill="#9A9A9A" d="M128.001 70.7497V82.7498L120 98.75V86.7499L128.001 70.7497Z"></path>
<path fill="#9A9A9A" d="M125.5 68.2496V70.2497L117.5 86.2498V84.2499L125.5 68.2496Z"></path>
<path fill="white" d="M80.5 59.2494L125.5 68.2496L117.5 84.2499L72.5 75.2498L80.5 59.2494Z"></path>
<path fill="#D9D9D9" d="M70 76.7497L72.5 77.2497L71.4999 79.2498V89.0499L70 88.7499V76.7497Z"></path>
<path fill="white" d="M78.0001 60.7496L79.5909 61.0678L72.5 75.2498V77.2497L70 76.7497L78.0001 60.7496Z"></path>
<path fill="#D9D9D9" d="M78.0001 54.7496L128.001 64.7497L128.001 70.7497L125.5 70.2497V68.2496L80.5 59.2494L79.5909 61.0678L78.0001 60.7496V54.7496Z"></path>
<path fill="#9A9A9A" d="M129.001 62.7495V80.7507L128.001 82.7498V70.7497L128.001 64.7497L129.001 62.7495Z"></path>
<path fill="white" d="M79.0001 52.7504L129.001 62.7495L128.001 64.7497L78.0001 54.7496L79.0001 52.7504Z"></path>
<path fill="#D9D9D9" d="M79.0001 50.7504L129.001 60.7505V62.7495L79.0001 52.7504V50.7504Z"></path>
<path fill="#9A9A9A" d="M135.001 48.7503V50.7504L129.001 62.7495V60.7505L135.001 48.7503Z"></path>
<path fill="white" d="M85.0002 38.7501L135.001 48.7503L129.001 60.7505L79.0001 50.7504L85.0002 38.7501Z"></path>
<path fill="#D9D9D9" d="M129.001 62.7505L131.501 63.2506V81.2508L129.001 80.7507V62.7505Z"></path>
<path fill="white" d="M135.001 50.7504L137.501 51.2504L131.501 63.2506L129.001 62.7505L135.001 50.7504Z"></path>
<path fill="#9A9A9A" d="M137.501 51.2504V69.2506L131.501 81.2508V63.2506L137.501 51.2504Z"></path>
<path fill="white" d="M86.0002 38.7502L136.001 48.7503L135.001 50.7504V48.7503L85.9093 38.9319L86.0002 38.7502Z"></path>
<path fill="#9A9A9A" d="M136.001 48.7503V50.9504L135.001 50.7504L136.001 48.7503Z"></path>
<path fill="#CAAE67" d="M92.5052 56.2504L107.505 59.2505V71.2506L92.5052 68.2505V56.2504Z"></path>
<path fill="#FFFB00" d="M98.5053 44.2503L113.505 47.2504L107.505 59.2505L92.5052 56.2504L98.5053 44.2503Z"></path>
<path fill="#A78D4C" d="M113.505 47.2504V53.2504L111.504 57.2513V59.2505L110.505 61.2507V65.2506L107.505 71.2506V59.2505L113.505 47.2504Z"></path>
<path fill="#EDB800" d="M90.2502 38.0002L107.75 41.5002L107.75 49.5002L105.5 51.2502L108.005 51.7506V59.7506L88.0051 55.7505V47.7502L90.5002 48.2502L90.2503 46.0001L90.2502 38.0002Z"></path>
<path fill="#FFFB00" d="M96.7503 25L114.25 28.5001L107.75 41.5002L90.2502 38.0002L96.7503 25Z"></path>
<path fill="#C19E00" d="M114.25 28.5001L114.245 36.4999L116.005 35.7501V43.7505L108.005 59.7506V51.7506L105.5 51.2502L107.75 49.5002L107.75 41.5002L114.25 28.5001Z"></path>
<path fill="#FFFB00" d="M90.2503 43.2599L90.2503 46.0001L107.75 49.5002L114.245 36.4999L114.246 35.399L116.005 35.7507L108.005 51.7506L88.0051 47.7502L90.2503 43.2599Z"></path>
<path fill="#EDB800" d="M95.7551 51.5004L98.2552 52.0005V54.0005L95.7551 53.5005V51.5004Z"></path>
<path fill="#FFFB00" d="M96.7552 49.5004L99.2552 50.0005L98.2552 52.0005L95.7551 51.5004L96.7552 49.5004Z"></path>
<path fill="#C19E00" d="M99.2552 50.0005V52.0005L98.2552 54.0005V52.0005L99.2552 50.0005Z"></path>
<path fill="#C09F42" d="M92.5052 62.2506L107.505 65.2507V71.2506L92.5052 68.2505V62.2506Z"></path>
<path fill="#8D7530" d="M107.505 65.2507L111.504 57.2513V59.2505L110.505 61.2507V65.2506L107.505 71.2506V65.2507Z"></path>
<path fill="black" d="M94.0002 43.7492L95.2503 43.9993V45.9993L94.0002 45.7493V43.7492Z"></path>
<path fill="black" d="M102.75 45.4994L104 45.7494V47.7495L102.75 47.4994V45.4994Z"></path>
<path fill="black" d="M102.5 31.2501L103 31.3501L103.75 31.5001V33.5001L102.5 33.2501V32.1501V31.2501Z"></path>
<path fill="black" d="M100 30.7501L101.25 31.0001V33.0001L100 32.7501V30.7501Z"></path>
<path fill="black" d="M101.75 30.0001L103 30.2501V31.3501L102.5 31.2501V32.1501L101.75 32.0001V30.0001Z"></path>
<path fill="#D9D9D9" d="M76.0001 71.7497L93.5002 75.2498V77.2497L76.0001 73.7497V71.7497Z"></path>
<path fill="#9A9A9A" d="M97.5003 67.2504V69.2505V69.2496L93.5002 77.2497V75.2498L97.5003 67.2504Z"></path>
<path fill="white" d="M83.0001 57.7494L92.5052 59.6504L92.5002 66.2504L97.5003 67.2504L93.5002 75.2498L76.0001 71.7497L83.0001 57.7494Z"></path>
<path fill="#D9D9D9" d="M98.5003 76.2498L116 79.7498V81.7498L98.5003 78.2497V76.2498Z"></path>
<path fill="#9A9A9A" d="M123.001 65.7504V67.7505L116 81.7498V79.7498L123.001 65.7504Z"></path>
<path fill="white" d="M107.5 69.2505L110.505 63.2506L123.001 65.7504L116 79.7498L98.5003 76.2498L102.5 68.2504L107.5 69.2505Z"></path>
<path fill="#CD9F00" d="M95.5054 53.7503L100.505 54.7504V55.7504L95.5054 54.7503V53.7503Z"></path>
<path fill="#D9D9D9" d="M116.001 41.7504V53.7505L113.5 53.2505V48.7505L116 43.7504L116.001 41.7504Z"></path>
<path fill="white" d="M116 36.25L118.501 36.7503L116.001 41.7504L116 36.25Z"></path>
<path fill="#9A9A9A" d="M118.501 36.7503V48.7504L116.001 53.7505V41.7504L118.501 36.7503Z"></path>
<path fill="#EDB800" d="M104.5 65.2507L109.5 66.2507V70.2508L104.5 69.2507V65.2507Z"></path>
<path fill="#FFFB00" d="M111.5 51.2505L116.5 52.2506L109.5 66.2507L104.5 65.2507L111.5 51.2505Z"></path>
<path fill="#C19E00" d="M116.5 52.2506V56.2506L109.5 70.2508V66.2507L116.5 52.2506Z"></path>
<path fill="#EDB800" d="M84.5 61.2506L89.5001 62.2507V66.2507L84.5 65.2507V61.2506Z"></path>
<path fill="#FFFB00" d="M88 54.2505V55.7505L92.3183 56.6142L89.5001 62.2507L84.5 61.2506L88 54.2505Z"></path>
<path fill="#C19E00" d="M88 55.7505L92.5001 56.6505V60.2506L89.5001 66.2507V62.2507L92.3183 56.6142L88 55.7505Z"></path>
<path fill="#1B1B1B" d="M88 41.2503L89.25 41.5003V41.0003L95.5001 42.2503V42.7503L100.5 43.7503V43.2503L106.75 44.5003V45.5003L101.75 44.5003V45.0003L94.2501 43.5003V43.0003L89.25 42.0003V48.0003L94.2501 49.0004V48.0003L101.75 49.5004V50.5004L106.75 51.5004V44.5003V45.0003L108 45.2503V52.2504L106.75 52.0004V52.5004L100.5 51.2504V50.2504L95.5001 49.2504V50.2504L89.25 49.0004V48.5003L88 48.2503V41.2503Z"></path>
<path fill="#282828" d="M88 41.2503L88.5 40.25L89.5227 40.4546L89.75 40L96.0001 41.2503L95.5001 42.2503L89.25 41.0003V41.5003L88 41.2503Z"></path>
<path fill="#282828" d="M95.5001 42.7503L96.0001 41.75L100.773 42.7046L101 42.25L107.25 43.5003L106.75 44.5003L100.5 43.2503V43.7503L95.5001 42.7503Z"></path>
<path fill="#282828" d="M106.75 45.0003L107.25 44.0001L108.5 44.2501L108 45.2503L106.75 45.0003Z"></path>
<path fill="#282828" d="M89.25 48.0003L89.75 47.0001L94.2955 47.9092L94.7501 47.0001L102.25 48.5003L101.75 49.5004L94.2501 48.0003V49.0004L89.25 48.0003Z"></path>
<path fill="#282828" d="M101.75 50.5004L102.25 49.5001L106.75 50.4001V51.5004L101.75 50.5004Z"></path>
<path fill="black" d="M89.25 42.0003L89.75 42.1003V47.0001L89.25 48.0003V42.0003Z"></path>
<path fill="black" d="M101.75 49.5004L102.25 48.5003V49.5001L101.75 50.5004V49.5004Z"></path>
<path fill="black" d="M106.75 44.5003L107.25 43.5003V44.0001L106.75 45.0003V44.5003Z"></path>
<path fill="black" d="M95.5001 42.2503L96.0001 41.2503V41.75L95.5001 42.7503V42.2503Z"></path>
<path fill="black" d="M95.5001 49.2504L95.9545 49.3412L95.5001 50.2504V49.2504Z"></path>
<path fill="black" d="M106.75 52.0004L106.977 52.0458L106.75 52.5004V52.0004Z"></path>
<path fill="black" d="M108 45.2503L108.5 44.2501V47.2501L115 34.25V35.25L108.5 48.2501V51.2501L108 52.2504V45.2503Z"></path>
<path fill="#282828" d="M108.5 44.5003L113.75 34L115 34.25L108.5 47.2501V44.5003Z"></path>
</svg>
