<svg xmlns="http://www.w3.org/2000/svg" fill="none" viewBox="0 0 200 206" height="206" width="200">
<path fill="#067B09" d="M79.0046 94.9917L109.004 100.992L108.994 117L79.0046 110.991V94.9917Z"></path>
<path fill="#054D07" d="M109.004 100.992L121.003 76.9923V92.9918L108.994 117L109.004 100.992Z"></path>
<path fill="#067B09" d="M75.5047 88.4905L110.504 95.4903V103.49L75.5047 96.4902V88.4905Z"></path>
<path fill="#054D07" d="M110.504 95.4903L124.503 67.4911V75.4909L110.504 103.49V95.4903Z"></path>
<path fill="#01FB06" d="M89.5044 60.4909L124.503 67.4911L110.504 95.4903L75.5047 88.4905L89.5044 60.4909Z"></path>
<path fill="#1B1B1B" d="M92.5044 65.491L117.503 70.4911L107.504 90.4903L82.5048 85.4905L92.5044 65.491Z"></path>
<path fill="#067B09" d="M93.0046 56.9908L103.004 58.9906V82.9902L93.0046 80.9903V56.9908Z"></path>
<path fill="#054D07" d="M103.004 58.9906L107.003 50.9913V74.9909L103.004 82.9902V58.9906Z"></path>
<path fill="#B80E0C" d="M75.5047 36.4904L80.4989 37.4915L85.4989 38.4915V42.4915L90.4989 43.4915V47.4915L93.6803 48.1277L95.4979 44.4925L98.6811 45.1292L100.5 41.492L103.69 42.13L110.504 43.4902V71.49L75.5047 64.4902V36.4904Z"></path>
<path fill="#910A08" d="M110.504 43.4902L124.503 15.491V43.4908L110.504 71.49V43.4902Z"></path>
<path fill="#F10A07" d="M89.5044 8.4908L94.4996 9.49016L81.495 35.4992L86.5 36.491V40.491L91.5 41.4912V45.4904L94.6805 46.1272L95.4979 44.4925L98.6811 45.1292L100.5 41.492L103.69 42.13L117.69 14.1285L124.503 15.491L110.504 43.4902L103.69 42.13L100.5 41.492L98.6811 45.1292L95.4979 44.4925L93.6803 48.1277L90.4989 47.4915V43.4915L85.4989 42.4915V38.4915L80.4989 37.4915L75.5047 36.4904L89.5044 8.4908Z"></path>
<path fill="#999999" d="M78.499 37.4915L96.4986 1.49229V5.49206L78.499 41.4912V37.4915Z"></path>
<path fill="white" d="M73.5 36.4992L91.4941 0.5L96.4986 1.49229L78.499 37.4915L73.5 36.4992Z"></path>
<path fill="#CACACA" d="M73.5 40.499V36.4992L78.499 37.4915V41.4912L73.5 40.499Z"></path>
<path fill="#999999" d="M108.5 43.5002L126.499 7.50105V11.5008L108.5 47.5V43.5002Z"></path>
<path fill="white" d="M103.501 42.5079L121.5 6.50876L126.499 7.50105L108.5 43.5002L103.501 42.5079Z"></path>
<path fill="#CACACA" d="M103.502 46.4905L103.501 42.5079L108.5 43.5002V47.5L103.502 46.4905Z"></path>
<path fill="#999999" d="M83.4983 42.4915L85.4989 38.4915V42.4915L83.4989 46.4915L83.4983 42.4915Z"></path>
<path fill="white" d="M78.499 41.4912L80.4989 37.4915L85.4989 38.4915L83.4983 42.4915L78.499 41.4912Z"></path>
<path fill="#CACACA" d="M78.4993 45.4904L78.499 41.4912L83.4983 42.4915L83.4989 46.4915L78.4993 45.4904Z"></path>
<path fill="#999999" d="M88.4983 47.4915L90.4989 43.4915V47.4915L88.4989 51.4915L88.4983 47.4915Z"></path>
<path fill="white" d="M83.4989 46.4915L85.4989 42.4915L90.4989 43.4915L88.4983 47.4915L83.4989 46.4915Z"></path>
<path fill="#CACACA" d="M83.4993 50.4904L83.4989 46.4915L88.4983 47.4915L88.4989 51.4915L83.4993 50.4904Z"></path>
<path fill="#999999" d="M93.4983 52.4915L95.4989 48.4915V52.4915L93.4989 56.4915L93.4983 52.4915Z"></path>
<path fill="white" d="M88.4989 51.4915L90.4989 47.4915L95.4989 48.4915L93.4983 52.4915L88.4989 51.4915Z"></path>
<path fill="#CACACA" d="M88.4993 55.4904L88.4989 51.4915L93.4983 52.4915L93.4989 56.4915L88.4993 55.4904Z"></path>
<path fill="#999999" d="M98.5001 49.491L100.498 45.4925V49.4925L98.4979 53.4925L98.5001 49.491Z"></path>
<path fill="white" d="M93.4979 48.4925L95.4979 44.4925L100.498 45.4925L98.5001 49.491L93.4979 48.4925Z"></path>
<path fill="#CACACA" d="M93.4983 52.4915L93.4979 48.4925L98.5001 49.491L98.4979 53.4925L93.4983 52.4915Z"></path>
<path fill="#999999" d="M103.502 46.4905L105.317 46.8571L103.5 50.492L103.502 46.4905Z"></path>
<path fill="white" d="M98.4996 45.492L100.5 41.492L103.69 42.13L103.501 42.5079L103.502 46.4905L98.4996 45.492Z"></path>
<path fill="#CACACA" d="M98.5001 49.491L98.4996 45.492L103.502 46.4905L103.5 50.492L98.5001 49.491Z"></path>
<path fill="#910A08" d="M85.4989 38.4915L86.5 36.491V40.4921L85.4989 42.4933V38.4915Z"></path>
<path fill="#910A08" d="M90.4989 43.4915L91.5 41.4912V45.4924L90.4989 47.4936V43.4915Z"></path>
<path fill="#9B0A08" d="M93.493 11.494L98.493 12.494V16.494L103.493 17.494V21.494L108.5 22.4934L108.492 18.495L113.5 19.4934L113.494 15.4945L116.684 16.1325L104.871 39.7672L90.9989 36.9928V16.4915L93.493 11.494Z"></path>
<path fill="#F10A07" d="M93.493 11.494L94.4996 9.49016L99.5003 10.4899L98.493 12.494L93.493 11.494Z"></path>
<path fill="#F10A07" d="M98.493 16.494L99.4996 14.4902L104.5 15.4899L103.493 17.494L98.493 16.494Z"></path>
<path fill="#F10A07" d="M103.5 21.4934L104.507 19.4896L108.496 20.2871L108.5 22.4934L103.5 21.4934Z"></path>
<path fill="#F10A07" d="M108.492 18.495L109.498 16.4912L113.488 17.2887L113.492 19.495L108.492 18.495Z"></path>
<path fill="#F10A07" d="M113.494 15.4945L114.5 13.4907L117.69 14.1285L116.684 16.1325L113.494 15.4945Z"></path>
<path fill="#910A08" d="M103.505 17.4896L104.507 15.4884V19.4896L103.505 21.4908V17.4896Z"></path>
<path fill="#910A08" d="M98.493 12.494L99.4942 10.4929V14.494L98.493 16.4952V12.494Z"></path>
<path fill="#540605" d="M81.495 35.4992L90.9989 16.4915V36.9928L88.9978 40.9939L86.5 40.491V36.491L81.495 35.4992Z"></path>
<path fill="#B60B08" d="M88.9978 40.9939L90.9989 36.9928L104.871 39.7672L103.69 42.13L100.5 41.492L98.6811 45.1292L95.4979 44.4925L94.6805 46.1272L91.5 45.4924V41.4912L88.9978 40.9939Z"></path>
<path fill="white" d="M94.4987 9.49183L96.4986 5.49206L101.499 6.49206L99.498 10.4921L94.4987 9.49183Z"></path>
<path fill="white" d="M99.4986 14.4921L101.499 10.4921L106.499 11.4921L104.498 15.4921L99.4986 14.4921Z"></path>
<path fill="white" d="M104.499 19.4921L106.499 15.4921L109.68 16.1283L108.492 18.495L108.496 20.2871L104.499 19.4921Z"></path>
<path fill="white" d="M109.498 16.4931L111.498 12.4931L114.681 13.1297L113.494 15.4945L113.488 17.2887L109.498 16.4931Z"></path>
<path fill="white" d="M114.499 13.4926L116.499 9.49261L119.689 10.1306L119.5 10.5085L117.69 14.1285L114.499 13.4926Z"></path>
<path fill="#999999" d="M99.5003 10.4899L101.501 6.48993V10.4899L99.5009 14.4899L99.5003 10.4899Z"></path>
<path fill="#999999" d="M104.5 15.4899L106.501 11.4899V15.4899L104.501 19.4899L104.5 15.4899Z"></path>
<path fill="#B14E52" d="M104.503 37.4899L110.501 25.4915V28.5074L105.501 38.5074L103.69 42.13L104.503 40.503V37.4899Z"></path>
<path fill="#FFB3C9" d="M99.5009 36.4915L105.501 24.4915L110.501 25.4915L104.503 37.4899L99.5009 36.4915Z"></path>
<path fill="#E77887" d="M98.6811 45.1292L99.4996 43.492L99.5009 36.4915L104.503 37.4899V40.503L103.69 42.13L100.5 41.492L99.4996 43.492L98.6811 45.1292Z"></path>
<path fill="#999999" d="M91.493 26.494L93.5046 22.494V25.494L91.5038 29.494L91.493 26.494Z"></path>
<path fill="white" d="M86.494 25.494L88.493 21.494L93.5046 22.494L91.493 26.494L86.494 25.494Z"></path>
<path fill="#CACACA" d="M85.0854 28.3185L86.494 25.494L91.493 26.494L91.5038 29.494L85.0854 28.3185Z"></path>
<path fill="#999999" d="M93.4932 16.9939L94.5048 14.9939V16.9939L93.504 18.9939L93.4932 16.9939Z"></path>
<path fill="white" d="M90.9942 16.4939L91.9932 14.4939L94.5048 14.9939L93.4932 16.9939L90.9942 16.4939Z"></path>
<path fill="#CACACA" d="M90.0854 18.3185L90.9942 16.4939L93.4932 16.9939L93.504 18.9939L90.0854 18.3185Z"></path>
<path fill="#999999" d="M85.4932 32.9939L86.5048 30.9939V32.9939L85.5039 34.9939L85.4932 32.9939Z"></path>
<path fill="white" d="M82.9942 32.4939L83.9932 30.4939L86.5048 30.9939L85.4932 32.9939L82.9942 32.4939Z"></path>
<path fill="#CACACA" d="M82.0854 34.3185L82.9942 32.4939L85.4932 32.9939L85.5039 34.9939L82.0854 34.3185Z"></path>
<path fill="white" d="M106.494 29.4939L108.494 25.4939L111.686 26.1322L109.686 30.1322L106.494 29.4939Z"></path>
<path fill="#CACACA" d="M106.494 32.4939V29.4939L109.686 30.1322L108.323 32.8597L106.494 32.4939Z"></path>
<path fill="white" d="M113.494 20.9939L114.494 18.9939L115.186 19.1322L114.186 21.1322L113.494 20.9939Z"></path>
<path fill="#CACACA" d="M113.494 22.5207V20.9939L114.186 21.1322L113.494 22.5207Z"></path>
<path fill="white" d="M105.494 36.9939L106.494 34.9939L107.186 35.1322L106.186 37.1322L105.494 36.9939Z"></path>
<path fill="#CACACA" d="M105.494 38.5207V36.9939L106.186 37.1322L105.494 38.5207Z"></path>
<path fill="white" d="M80.4995 61.4902V57.4902L85.5005 58.4902L85.4991 62.4902L80.4995 61.4902Z"></path>
<path fill="white" d="M103 63.9902V59.9902L108.001 60.9902L107.999 64.9902L103 63.9902Z"></path>
<path fill="white" d="M95.4996 56.4902V52.8922L98.4996 53.5L98.6809 53.1264L95.4996 52.4902L100.501 53.4902L100.499 57.4902L95.4996 56.4902Z"></path>
<path fill="white" d="M75.4995 48.4902V44.4902L78.4992 45.098L78.4993 45.4904L80.499 45.8908V49.4902L75.4995 48.4902Z"></path>
<path fill="white" d="M112.5 47.4902V43.4902L114.501 39.4902L114.5 43.4902L112.5 47.4902Z"></path>
<path fill="white" d="M117.5 53.4902V49.4902L119.501 45.4902L119.5 49.4902L117.5 53.4902Z"></path>
<path fill="white" d="M120.5 37.4902V33.4902L122.501 29.4902L122.5 33.4902L120.5 37.4902Z"></path>
<path fill="white" d="M112.498 63.4911V59.4911L114.499 55.4911L114.498 59.4911L112.498 63.4911Z"></path>
<path fill="#067B09" d="M101.004 76.9903L116.003 79.9901V81.9899L101.004 78.9901V76.9903Z"></path>
<path fill="#054D07" d="M116.003 79.9901L124.002 63.991V65.9907L116.003 81.9899V79.9901Z"></path>
<path fill="#01FB06" d="M115.14 62.2182L124.002 63.991L116.003 79.9901L101.004 76.9903L104.367 70.2627L110.504 71.49L115.14 62.2182Z"></path>
<path fill="#067B09" d="M76.0034 71.9904L91.0024 74.9902V76.9899L76.0034 73.9902V71.9904Z"></path>
<path fill="#054D07" d="M91.0024 74.9902L93.0046 71V73L91.0024 76.9899V74.9902Z"></path>
<path fill="#01FB06" d="M93.0042 67.9901L93.0046 71L91.0024 74.9902L76.0034 71.9904L79.3671 65.2628L93.0042 67.9901Z"></path>
</svg>
