<svg xmlns="http://www.w3.org/2000/svg" fill="none" viewBox="0 0 200 200" height="200" width="200">
<path fill="#871B00" d="M93 10.9998L128 17.9998V37.9998L118 35.9998V23.9998L103 20.9998V101L93 98.9998V10.9998Z"></path>
<path fill="#F53002" d="M96.9996 3L132 10L128 17.9998L93 10.9998L96.9996 3Z"></path>
<path fill="#4E0F00" d="M132 10L132 30L128 37.9998V17.9998L132 10Z"></path>
<path fill="#4E0F00" d="M107 21.7998V93L103 101V20.9998L107 21.7998Z"></path>
<path fill="#957397" d="M103 93L103 97L93 94.9998L93 90.9998L103 93Z"></path>
<path fill="#56436A" d="M107 85L107 89L103 97L103 93L107 85Z"></path>
<path fill="#957397" d="M103 81L103 85L93 82.9998L93 78.9998L103 81Z"></path>
<path fill="#56436A" d="M107 73L107 77L103 85L103 81L107 73Z"></path>
<path fill="#957397" d="M103 73L103 77L93 74.9998L93 70.9998L103 73Z"></path>
<path fill="#56436A" d="M107 65L107 69L103 77L103 73L107 65Z"></path>
<path fill="#957397" d="M103 61L103 65L93 62.9998L93 58.9998L103 61Z"></path>
<path fill="#56436A" d="M107 53L107 57L103 65L103 61L107 53Z"></path>
<path fill="#957397" d="M103 53L103 57L93 54.9998L93 50.9998L103 53Z"></path>
<path fill="#56436A" d="M107 45L107 49L103 57L103 53L107 45Z"></path>
<path fill="#957397" d="M103 41L103 45L93 42.9998L93 38.9998L103 41Z"></path>
<path fill="#56436A" d="M107 33L107 37L103 45L103 41L107 33Z"></path>
<path fill="#957397" d="M103 33L103 37L93 34.9998L93 30.9998L103 33Z"></path>
<path fill="#56436A" d="M107 25L107 29L103 37L103 33L107 25Z"></path>
<path fill="#957397" d="M103 20.9998L103 25L93 22.9998L93 18.9998L103 20.9998Z"></path>
<path fill="#56436A" d="M104.818 21.3634L103 25L103 20.9998L104.818 21.3634Z"></path>
<path fill="#957397" d="M108 13.9998L108 21.9999L103 20.9998L103 12.9999L108 13.9998Z"></path>
<path fill="#FFCDF3" d="M112 5.99996L108 13.9998L103 12.9999L107 5.00008L112 5.99996Z"></path>
<path fill="#957397" d="M118 15.9997L118 23.9998L113 22.9997L113 14.9998L118 15.9997Z"></path>
<path fill="#FFCDF3" d="M122 7.99984L118 15.9997L113 14.9998L117 6.99996L122 7.99984Z"></path>
<path fill="#957397" d="M128 26V30L118 27.9998L118 23.9998L128 26Z"></path>
<path fill="#56436A" d="M132 18L132 22L128 30V26L132 18Z"></path>
</svg>
