<svg xmlns="http://www.w3.org/2000/svg" fill="none" viewBox="0 0 100 100" height="100" width="100">
<path fill="#FB3D83" d="M23.0002 27.4992L50.0003 36.4992V88.4994L23.0002 79.4993V27.4992Z"></path>
<path fill="#C82E62" d="M50.0003 36.4992L77.0004 27.4993V79.4994L50.0003 88.4994V36.4992Z"></path>
<path fill="#7DC9FB" d="M35.0014 31.4991L38.0002 32.4989V84.4988L35.0014 83.499V31.4991Z"></path>
<path fill="#66A3CF" d="M65.0002 31.4994L61.999 32.4992V84.4992L65.0002 83.4994V31.4994Z"></path>
<path fill="#FFFEFF" d="M20 21.4993L50.0001 31.4994V37.4995L20 27.4994V21.4993Z"></path>
<path fill="#ECD1E0" d="M50.0001 31.4994L80.0003 21.4994V27.4996L50.0001 37.4995V31.4994Z"></path>
<path fill="#F0EFFB" d="M50.0001 11.4995L80.0003 21.4994L50.0001 31.4994L20 21.4993L50.0001 11.4995Z"></path>
<path fill="#7DC9FB" d="M33.5015 25.9997L36.5002 26.9995V33L33.5015 32.0002V25.9997Z"></path>
<path fill="#66A3CF" d="M66.5 25.9997L63.4988 26.9995V32.9998L66.5 32V25.9997Z"></path>
<path fill="#82D0FF" d="M63.5002 16L66.499 16.9998L53.0002 21.5L66.5 25.9997L63.4988 26.9995L50.0001 22.5L36.5002 26.9995L33.5015 25.9997L47.0002 21.5L33.5015 16.9989L36.5002 15.9993L48.5002 20V18L47.0002 17.5L48.5002 17L50.0002 17.5L51.5002 17L53.0002 17.5L51.5002 18V20L63.5002 16Z"></path>
<path fill="#7DC9FB" d="M36.5002 13.0004L42.5002 15.0004V21.0004L36.5002 19.0004V13.0004Z"></path>
<path fill="#82D0FF" d="M42.5002 11.0004L48.5002 13.0004L42.5002 15.0004L36.5002 13.0004L42.5002 11.0004Z"></path>
<path fill="#66A3CF" d="M42.5002 15.0004L48.5002 13.0004V17L47.0002 17.5V19.5L42.5002 21.0004V15.0004Z"></path>
<path fill="#7DC9FB" d="M51.5002 13L57.5002 15V21L53.0002 19.5V17.5L51.5002 17V13Z"></path>
<path fill="#82D0FF" d="M57.5002 11L63.5002 13L57.5002 15L51.5002 13L57.5002 11Z"></path>
<path fill="#66A3CF" d="M57.5002 15L63.5002 13V19L57.5002 21V15Z"></path>
<path fill="#7DC9FB" d="M58.499 15.667L61.499 14.6674V17.6674L58.499 18.6671V15.667Z"></path>
<path fill="#66A3CF" d="M38.5002 14.667L41.5002 15.6674V18.6674L38.5002 17.6671V14.667Z"></path>
<path fill="#7DC9FB" d="M36.5002 18.0004L42.5002 20.0004V26.0004L36.5002 24.0004V18.0004Z"></path>
<path fill="#82D0FF" d="M42.5002 16.0004L48.5002 18.0004L42.5002 20.0004L36.5002 18.0004L42.5002 16.0004Z"></path>
<path fill="#66A3CF" d="M42.5002 20.0004L48.5002 18.0004V22L50.0002 21.5V23.5L42.5002 26.0004V20.0004Z"></path>
<path fill="#7DC9FB" d="M51.5002 18L57.5002 20V26L50.0002 23.5V21.5L51.5002 22V18Z"></path>
<path fill="#82D0FF" d="M57.5002 16L63.5002 18L57.5002 20L51.5002 18L57.5002 16Z"></path>
<path fill="#66A3CF" d="M57.5002 20L63.5002 18V24L57.5002 26V20Z"></path>
<path fill="#7DC9FB" d="M44.5002 20.3337L47.5002 19.3341V22.3341L44.5002 23.3337V20.3337Z"></path>
<path fill="#66A3CF" d="M52.5002 19.3337L55.5002 20.3341V23.3341L52.5002 22.3337V19.3337Z"></path>
</svg>
