<svg xmlns="http://www.w3.org/2000/svg" fill="none" viewBox="0 0 400 300" height="300" width="400">
<path fill="black" d="M206.997 153L204.997 157V161L206.997 157V153Z"></path>
<path fill="black" d="M186.997 149L184.997 153V157L186.997 153V149Z"></path>
<path fill="black" d="M62.0002 124L60.0002 128V132L62.0002 128V124Z"></path>
<path fill="black" d="M42.0002 120L40.0002 124V128L42.0002 124V120Z"></path>
<path fill="black" d="M25.0005 111L214.997 149L230.997 123V127L214.997 159L25.0005 121V111Z"></path>
<path fill="black" d="M199.997 156L204.997 157V161L199.997 160V156Z"></path>
<path fill="black" d="M179.997 152L184.997 153V157L179.997 156V152Z"></path>
<path fill="black" d="M55.0002 127L60.0002 128V132L55.0002 131V127Z"></path>
<path fill="black" d="M35.0002 123L40.0002 124V128L35.0002 127V123Z"></path>
<path fill="black" d="M25.0002 85L214.997 123V151L25.0002 113V85Z"></path>
<path fill="black" d="M25.0002 85L214.996 123L230.996 91.0001L41.0002 53L40.7443 53.3488L39.0002 53L27.0002 77V81L25.0002 85Z"></path>
<path fill="black" d="M27.002 77.0002L216.997 115V119L27.002 81.0002V77.0002Z"></path>
<path fill="black" d="M214.997 123L216.997 119V115L228.997 91.0002V95.0002L230.997 91.0002V119L228.997 123L216.997 147L214.997 151V123Z"></path>
<path fill="black" d="M217 119L222 120V152L217 151V119Z"></path>
<path fill="black" d="M227 98.9998L232 99.9997V128L227 127V98.9998Z"></path>
<path fill="black" d="M217 119L222 120L234 96L229 95L217 119Z"></path>
<path fill="black" d="M224 129V140L232 124L227 123L224 129Z"></path>
<path fill="black" d="M222 152V120L234 96V99.9999V128L232 124V104L224 120V140L232 124L234 128L222 152Z"></path>
<path fill="black" d="M22 80.0002L27 81.0002L25 85.0001V112.6L22 112V80.0002Z"></path>
<path fill="black" d="M22 80.0001L27 81V77L37.1862 56.6372L34 56L22 80.0001Z"></path>
<path fill="#CD0000" d="M47.5017 93.5001L97.5 103.5V101.5L27.5 87.5V111.5L97.5 125.5V127.5L27.5 113.5V119.5L215 157V159L25 121V85L140 108V110L100 102V104L140 112V110V108L215 123V157L212.5 156.5V150.5L142.5 136.5V134.5L212.5 148.5V124.5L142.5 110.5V112.5L192.502 122.5V134.5L142.5 124.5V136.5L140 136V124L100 116V126L140 134V136L97.5 127.5V115.5L47.5017 105.5V93.5001Z"></path>
<path fill="#CD0000" d="M30 90L40 92.0001V104L30 102V90Z"></path>
<path fill="#CD0000" d="M200 124L210 126V138L200 136V124Z"></path>
<path fill="#FF0000" d="M27 81.0001L29.5 81.4999L28.5 83.5L213.5 120.5L214.5 118.5L217 119L215 123L25 85L27 81.0001Z"></path>
<path fill="#CC0000" d="M27 81.0001L29.5 81.4999V79.4998L214.5 116.5V118.5L217 119V115L27 76.9999V81.0001Z"></path>
<path fill="#FF0000" d="M39 53L229 91L228 93L40.5 55.5L30.5 75.4999L215.5 112.5L225.5 92.5L228 93L217 115L27 76.9999L39 53Z"></path>
<path fill="#800000" d="M215 123L217 119V121L216 123V155L217.909 151.182L218.818 151.364L215 159V123Z"></path>
<path fill="#800000" d="M217 115L229 91V95L228 97V95L218 115V117L217 119V115Z"></path>
<path fill="#800000" d="M229 95L231 91V95.4L229 95Z"></path>
<path fill="#CC0000" d="M217 151L222 152V148V146V120L217 119V121L219.5 121.5V149.5L217 149V151Z"></path>
<path fill="#FF0000" d="M217 119L222 120L234 95.9999L229 95L228 97L230.5 97.5L220.5 117.5L218 117L217 119Z"></path>
<path fill="#800000" d="M222 120L234 95.9999V128L233 130V100L223 120V148L233 128V130L222 152V120Z"></path>
<path fill="#CC0000" d="M181.5 103.5L184 104V100L149 93.0001V97L151.5 97.5V95.5L181.5 101.5V103.5Z"></path>
<path fill="#800000" d="M191 90L192 88V84L184 100V104L185 102V100L191 88V90Z"></path>
<path fill="#FF0000" d="M182.5 97.5L184 100L192 84L157 77L149 93.0001L184 100L182.5 97.5L152.5 91.5L158.5 79.5L188.5 85.5L182.5 97.5Z"></path>
<path fill="#CC0000" d="M96.5 86.5L99 86.9999V83L64 76.0001V80L66.5 80.5V78.5L96.5 84.5V86.5Z"></path>
<path fill="#800000" d="M106 73L107 71V67L99 83V86.9999L100 85V83L106 71V73Z"></path>
<path fill="#FF0000" d="M97.5 80.5L99 83L107 67L72 60L64 76.0001L99 83L97.5 80.5L67.5 74.5L73.5 62.5L103.5 68.5L97.5 80.5Z"></path>
<path fill="#FF0000" d="M27 81.0001L21.9999 80L33.9999 55.9999L37.1818 56.6363L36.1818 58.6363L35.4999 58.5L25.4999 78.5L27 78.8001V81.0001Z"></path>
<path fill="#CC0000" d="M25 112.6L21.9998 112L21.9999 80L27 81.0001L26.0909 82.8182L24.5 82.5V110.5L25 110.6V112.6Z"></path>
<path fill="#CC0000" d="M208.5 104.5L211 105V101L201 99V103L203.5 103.5V101.5L208.5 102.5V104.5Z"></path>
<path fill="#800000" d="M214 98.9999L215 96.9999V92.9999L211 101V105L212 103V101L214 96.9999V98.9999Z"></path>
<path fill="#FF0000" d="M209.5 98.4999L211 101L215 92.9999L210 91.9998L206 99.9999L211 101L209.5 98.4999L207 97.9999L209 93.9999L211.5 94.4999L209.5 98.4999Z"></path>
<path fill="#CC0000" d="M58.5 74.5001L61 75V67.0001L51 65.0002V73.0001L53.5 73.5001V67.5001L58.5 68.5001V74.5001Z"></path>
<path fill="#800000" d="M64 69.0001L65 67.0001V59.0001L61 67.0001V75L62 73.0001V67.0001L64 63.0001V69.0001Z"></path>
<path fill="#FF0000" d="M59.5 64.5001L61 67.0001L65 59.0001L55 56.9999L51 65.0002L61 67.0001L59.5 64.5001L54.5 63.5L56.5 59.5L61.5 60.5001L59.5 64.5001Z"></path>
<path fill="black" d="M174.996 121L189.996 124V132L174.996 129V121Z"></path>
<path fill="black" d="M202.496 126.5L207.496 127.5V135.5L202.496 134.5V126.5Z"></path>
<path fill="black" d="M144.996 115L169.996 120V128L144.996 123V115Z"></path>
<path fill="black" d="M129.997 112L139.997 114V122L129.997 120V112Z"></path>
<path fill="black" d="M99.9966 106L109.997 108V116L99.9966 114V106Z"></path>
<path fill="black" d="M114.997 109L124.997 111V119L114.997 117V109Z"></path>
<path fill="black" d="M70.0016 100L95.0016 105V113L70.0016 108V100Z"></path>
<path fill="black" d="M50.0019 96L65.0019 99V107L50.0019 104V96Z"></path>
<path fill="black" d="M32.5 92.5L37.5 93.5V101.5L32.5 100.5V92.5Z"></path>
<path fill="#7E0000" d="M193.996 93.9999L195.996 89.9999V97.9999L193.996 102V93.9999Z"></path>
<path fill="#7E0000" d="M199.996 82L201.996 78V86L199.996 90V82Z"></path>
<path fill="#7E0000" d="M205.996 92L209.996 84V92L205.996 100V92Z"></path>
<path fill="#CC0000" d="M188.996 92.9999L193.996 93.9999V102L188.996 101V92.9999Z"></path>
<path fill="#CC0000" d="M195.996 90L205.996 92V100L200.996 99V95L195.996 93.9999V90Z"></path>
<path fill="#FF0000" d="M188.996 93L196.996 77L201.996 78L199.996 82L209.996 84L205.996 92L195.996 90L193.996 94L188.996 93Z"></path>
</svg>
