<svg xmlns="http://www.w3.org/2000/svg" fill="none" viewBox="0 0 200 200" height="200" width="200">
<path fill="#D9D9D9" d="M79 77L109 83V107L79 101V77Z"></path>
<path fill="#999999" d="M109 83L121 59V83L109 107V83Z"></path>
<path fill="white" d="M91.0001 52.9951L121 58.9951L109 83L79 77L91.0001 52.9951Z"></path>
<path fill="#999999" d="M96 100.991L97 98.9912V102.996L99 98.9912V100.987L96 106.987V100.991Z"></path>
<path fill="#D9D9D9" d="M86 98.9956L96 100.991V106.987L86 104.996V98.9956Z"></path>
<path fill="white" d="M89 96.9956L99 98.9912L97 102.996V98.9912L96 100.991L86 98.9956L87 96.9956L97 98.9912L88.8182 97.3584L89 96.9956Z"></path>
<path fill="#A37F00" d="M102 68.9912L108 56.9868V62.9868L102 74.9956V68.9912Z"></path>
<path fill="#DBB803" d="M87 65.9912L102 68.9912V74.9912L87 71.9912V65.9912Z"></path>
<path fill="#FFE600" d="M105.5 56.4956L108 56.9868L102 68.9912L87 65.9912L93 53.9956L105.5 56.4956L104.5 58.4956L94.5 56.4956L90.5 64.4956L100.5 66.4956L105.5 56.4956Z"></path>
<path fill="#A37F00" d="M90.5 64.4956L94.5 56.4956V62.4956L93.2274 65.0411L90.5 64.4956Z"></path>
<path fill="#DBB803" d="M94.5 56.4956L104.5 58.4956L101.772 63.9512L94.5 62.5V56.4956Z"></path>
<path fill="#DBB803" d="M87 63.9956L89.5 64.4956V66.4912L87 65.9912V63.9956Z"></path>
<path fill="#A37F00" d="M89.5 64.4956L90.5 62.5V64.4956L89.5 66.4912V64.4956Z"></path>
<path fill="#FFE500" d="M88 61.9956L90.5 62.4956L89.5 64.4956L87 63.9956L88 61.9956Z"></path>
<path fill="#DBB803" d="M92 54L94.5 54.5V56.4956L92 55.9956V54Z"></path>
<path fill="#A37F00" d="M94.5 54.5L95.5 52.5044V54.5L94.5 56.4956V54.5Z"></path>
<path fill="#FFE500" d="M93 52L95.5 52.5L94.5 54.5L92 54L93 52Z"></path>
<path fill="#DBB803" d="M104.5 56.5L107 57V58.9956L104.5 58.4956V56.5Z"></path>
<path fill="#A37F00" d="M107 57L108 55.0044V57L107 58.9956V57Z"></path>
<path fill="#FFE500" d="M105.5 54.5L108 55L107 57L104.5 56.5L105.5 54.5Z"></path>
<path fill="#DBB803" d="M99.5 66.4956L102 66.9956V68.9912L99.5 68.4912V66.4956Z"></path>
<path fill="#A37F00" d="M102 66.9956L103 65V66.9956L102 68.9912V66.9956Z"></path>
<path fill="#FFE500" d="M100.5 64.4956L103 64.9956L102 66.9956L99.5 66.4956L100.5 64.4956Z"></path>
<path fill="#DBB803" d="M93.2274 65.2411L95.7274 65.7411V67.7367L93.2274 67.2367V65.2411Z"></path>
<path fill="#A37F00" d="M95.7274 65.7411L96.7274 63.7455V65.7411L95.7274 67.7367V65.7411Z"></path>
<path fill="#FFE500" d="M94.2274 63.2411L96.7274 63.7411L95.7274 65.7411L93.2274 65.2411L94.2274 63.2411Z"></path>
<path fill="#DBB803" d="M102 61.5L104.5 62V63.9956L102 63.4956V61.5Z"></path>
<path fill="#A37F00" d="M104.5 62L105.5 60.0044V62L104.5 63.9956V62Z"></path>
<path fill="#FFE500" d="M103 59.5L105.5 60L104.5 62L102 61.5L103 59.5Z"></path>
<path fill="#DBB803" d="M89.4978 59L91.9978 59.5V61.4956L89.4978 60.9956V59Z"></path>
<path fill="#A37F00" d="M91.9978 59.5L92.9978 57.5044V59.5L91.9978 61.4956V59.5Z"></path>
<path fill="#FFE500" d="M90.4978 57L92.9978 57.5L91.9978 59.5L89.4978 59L90.4978 57Z"></path>
<path fill="#DBB803" d="M98.2722 55.25L100.772 55.75V57.7456L98.2722 57.2456V55.25Z"></path>
<path fill="#A37F00" d="M100.772 55.75L101.772 53.7544V55.75L100.772 57.7456V55.75Z"></path>
<path fill="#FFE500" d="M99.2722 53.25L101.772 53.75L100.772 55.75L98.2722 55.25L99.2722 53.25Z"></path>
<path fill="white" d="M113.001 90.9977L117.002 82.9976L127.002 84.9976L123.002 92.9951L113.001 90.9977Z"></path>
<path fill="#D9D9D9" d="M113.001 90.9977L123.002 92.9951V100.995L113 98.9999L113.001 90.9977Z"></path>
<path fill="#999999" d="M123.003 92.9929L127.002 84.9976V92.9976L123.002 100.995L123.003 92.9929Z"></path>
</svg>
