<svg xmlns="http://www.w3.org/2000/svg" fill="none" viewBox="0 0 200 200" height="200" width="200">
<path fill="#8393CB" d="M13 81.9963L33 85.9966V101.996L13 97.9959V81.9963Z"></path>
<path fill="#4D568B" d="M37 77.9959V93.9955L33 101.996V85.9966L37 77.9959Z"></path>
<path fill="#F1FFFF" d="M17 74.0014L37 78.0017L33 85.9977L13 81.9974L17 74.0014Z"></path>
<path fill="#23131B" d="M39 74.0022V90.0018L37 94.0025V78.0029L39 74.0022Z"></path>
<path fill="#83494C" d="M19 70.0077L39 74.008L37 78.004L17 74.0037L19 70.0077Z"></path>
<path fill="#4D568B" d="M43 66.0047V82.0043L39 90.0051V74.0055L43 66.0047Z"></path>
<path fill="#F1FFFF" d="M23 62.0102L43 66.0106L39 74.0066L19 70.0062L23 62.0102Z"></path>
<path fill="#23131B" d="M47 57.9945V73.9941L43 81.9949V65.9953L47 57.9945Z"></path>
<path fill="#83494C" d="M27 54L47 58.0004L43 65.9964L23 61.996L27 54Z"></path>
<path fill="#C7FBFF" d="M18 86.9938L28 88.9941V96.9937L18 94.9934V86.9938Z"></path>
<path fill="#4D568B" d="M18 86.9938L21.6363 87.7212L18 94.9934V86.9938Z"></path>
<path fill="#8393CB" d="M38 86.9963L58 90.9966V106.996L38 102.996V86.9963Z"></path>
<path fill="#4D568B" d="M62 82.9959V98.9955L58 106.996V90.9966L62 82.9959Z"></path>
<path fill="#F1FFFF" d="M42 79.0014L62 83.0017L58 90.9977L38 86.9974L42 79.0014Z"></path>
<path fill="#23131B" d="M64 79.0022V95.0018L62 99.0025V83.0029L64 79.0022Z"></path>
<path fill="#83494C" d="M44 75.0077L64 79.008L62 83.004L42 79.0037L44 75.0077Z"></path>
<path fill="#4D568B" d="M68 71.0047V87.0043L64 95.0051V79.0055L68 71.0047Z"></path>
<path fill="#F1FFFF" d="M48 67.0102L68 71.0106L64 79.0066L44 75.0062L48 67.0102Z"></path>
<path fill="#23131B" d="M72 62.9945V78.9941L68 86.9949V70.9953L72 62.9945Z"></path>
<path fill="#83494C" d="M52 59L72 63.0004L68 70.9964L48 66.996L52 59Z"></path>
<path fill="#C7FBFF" d="M43 91.9938L53 93.9941V101.994L43 99.9934V91.9938Z"></path>
<path fill="#4D568B" d="M43 91.9938L46.6363 92.7212L43 99.9934V91.9938Z"></path>
<path fill="#8393CB" d="M68 92.9963L88 96.9966V112.996L68 108.996V92.9963Z"></path>
<path fill="#4D568B" d="M92 88.9959V104.995L88 112.996V96.9966L92 88.9959Z"></path>
<path fill="#F1FFFF" d="M72 85.0014L92 89.0017L88 96.9977L68 92.9974L72 85.0014Z"></path>
<path fill="#23131B" d="M94 85.0022V101.002L92 105.003V89.0029L94 85.0022Z"></path>
<path fill="#83494C" d="M74 81.0077L94 85.008L92 89.004L72 85.0037L74 81.0077Z"></path>
<path fill="#4D568B" d="M98 77.0047V93.0043L94 101.005V85.0055L98 77.0047Z"></path>
<path fill="#F1FFFF" d="M78 73.0102L98 77.0106L94 85.0066L74 81.0062L78 73.0102Z"></path>
<path fill="#23131B" d="M102 68.9945V84.9941L98 92.9949V76.9953L102 68.9945Z"></path>
<path fill="#83494C" d="M82 65L102 69.0004L98 76.9964L78 72.996L82 65Z"></path>
<path fill="#C7FBFF" d="M73 97.9938L83 99.9941V107.994L73 105.993V97.9938Z"></path>
<path fill="#4D568B" d="M73 97.9938L76.6363 98.7212L73 105.993V97.9938Z"></path>
<path fill="#344497" d="M18 78.9996L88 92.9996V96.9996L18 82.9996V78.9996Z"></path>
<path fill="#1E276A" d="M88 92.9996L102 64.9996V68.9996L88 96.9996V92.9996Z"></path>
<path fill="#5F7AF3" d="M32 50.9996L102 64.9996L88 92.9996L18 78.9996L32 50.9996Z"></path>
<path fill-opacity="0.1" fill="black" d="M35 55.9996L95 67.9996L85 87.9996L30 76.9996L25.0352 76.001L35 55.9996Z"></path>
<path fill="#936B30" d="M30 48.9996L85 59.9996V87.9996L30 76.9996V48.9996Z"></path>
<path fill="#8D611A" d="M30 41L85 52V59.9996L30 48.9996V41Z"></path>
<path fill="#997739" d="M30 61L75 70V85.9996L30 76.9996V61Z"></path>
<path fill="#917C76" d="M30 33L85 44V52L30 41V33Z"></path>
<path fill="#564A52" d="M85 44L95 24V32L85 52V44Z"></path>
<path fill="#543A13" d="M85 52L95 32V39.9996L85 59.9996V52Z"></path>
<path fill="#584022" d="M85 59.9996L95 39.9996V67.9996L85 87.9996V59.9996Z"></path>
<path fill="#FFDBB7" d="M40 13L95 24L85 44L30 33L40 13Z"></path>
<path fill-opacity="0.1" fill="white" d="M35.0352 34.007L45.0352 14.007L80.0352 20.9996L70.0352 41.0114V45.001L40.0352 39.001V79.0054L35.0352 78.001V34.007Z"></path>
<path fill-opacity="0.1" fill="white" d="M75 42L85 22L90.0352 23.007L80 43V46.9939H80.0352L75.0352 45.9895L75 42Z"></path>
<path fill="#5F2C1D" d="M92 81.0008L97 82.0012V98.0008L92 97.0004V81.0008Z"></path>
<path fill="#AB502F" d="M98 69L103 70.0004L97 82.0012L92 81.0008L98 69Z"></path>
<path fill="#5A7D97" d="M94.9899 101.993L110 105L124.985 107.986V111.986L110 109L94.9899 105.993V101.993Z"></path>
<path fill="#1E35A7" d="M94.9845 97.9859L124.985 103.986V107.986L110 105L94.9899 101.993L94.9845 97.9859Z"></path>
<path fill="#243AAB" d="M94.9845 77.9785L119.985 82.9785V94.9785L124.985 95.9931V103.986L94.9845 97.9859V77.9785Z"></path>
<path fill="#34496A" d="M124.985 107.986L135 88V92L124.985 111.986V107.986Z"></path>
<path fill="#111F74" d="M124.985 103.986L135 84V88L124.985 107.986V103.986Z"></path>
<path fill="#152276" d="M124.985 95.9931L135 76V84L124.985 103.986V95.9931Z"></path>
<path fill="#4369FF" d="M119.985 94.9785L129.985 74.9785L135 76L124.985 95.9931L119.985 94.9785Z"></path>
<path fill="#4369FF" d="M94.9845 77.9785L104.985 57.9785L129.985 62.982L119.985 82.9785L94.9845 77.9785Z"></path>
<path fill="#152276" d="M119.985 82.9785L129.985 62.982V74.9785L119.985 94.9785V82.9785Z"></path>
<path fill="#534218" d="M119.985 86.9858L129.985 66.9857V74.9785L119.985 94.9785V86.9858Z"></path>
<path fill="#8F7223" d="M109.985 84.9858L119.985 86.9858V94.9785L109.985 92.9785V84.9858Z"></path>
<path fill="#391D20" d="M94.9845 81.9858L109.985 84.9858V92.9785L94.9845 89.9785V81.9858Z"></path>
<path fill="#4F588B" d="M126.988 95.9859L128.985 91.9931V95.9859L126.988 99.9786V95.9859Z"></path>
<path fill="#4F588B" d="M130.988 87.9859L132.985 83.9931V87.9859L130.988 91.9786V87.9859Z"></path>
<path fill="#832630" d="M88 72.9955L102.998 75.9955L103 99.9834L98 98.9906V78.9906L88 76.9834V72.9955Z"></path>
<path fill="#4C1621" d="M102.998 75.9955L104.978 71.9854L104.996 95.9906L103 99.9834L102.998 75.9955Z"></path>
<path fill="#ED454C" d="M88 72.9955L89.9941 68.9996L104.978 71.9854L102.998 75.9955L88 72.9955Z"></path>
<path fill="#832630" d="M100 48.9959L114.998 51.9959L114.999 59.9829L109.999 58.9901L110 54.9911L100 52.9838V48.9959Z"></path>
<path fill="#4C1621" d="M114.998 51.9959L116.996 47.9983V60.3826L114.999 59.9829L114.998 51.9959Z"></path>
<path fill="#ED454C" d="M100 48.9959L101.994 45L116.996 48.0015L114.998 51.9959L100 48.9959Z"></path>
<path fill="#173D44" d="M102.982 75.9975L104.978 71.9854V75.9975L102.982 79.9902V75.9975Z"></path>
<path fill="#48BD9F" d="M98.0036 74.9942L100 71.0014L104.978 71.9854L102.982 75.9975L98.0036 74.9942Z"></path>
<path fill="#276964" d="M98 78.9906L98.0036 74.9942L102.982 75.9975L102.978 79.9939L98 78.9906Z"></path>
<path fill="#48BD9F" d="M88.0054 72.987L90.0018 68.9942L94.9803 69.9975L92.9839 73.9902L88.0054 72.987Z"></path>
<path fill="#276964" d="M88.0018 76.9834L88.0054 72.987L92.9839 73.9902L92.9803 77.9867L88.0018 76.9834Z"></path>
<path fill="#173D44" d="M102.999 83.9967L104.995 80.0039V83.9967L102.999 87.9895V83.9967Z"></path>
<path fill="#276964" d="M98.0168 86.9899L98.0204 82.9934L102.999 83.9967L102.995 87.9931L98.0168 86.9899Z"></path>
<path fill="#173D44" d="M103 91.9809L104.996 87.9881V91.9809L103 95.9737V91.9809Z"></path>
<path fill="#276964" d="M98.0179 94.9741L98.0216 90.9776L103 91.9809L102.996 95.9773L98.0179 94.9741Z"></path>
<path fill="#48BD9F" d="M100 48.9959L101.996 45.0033L106.975 46.0066L104.978 49.9994L100 48.9959Z"></path>
<path fill="#276964" d="M99.9964 52.9925L100 48.9959L104.978 49.9994L104.975 53.9958L99.9964 52.9925Z"></path>
<path fill="#173D44" d="M114.998 51.9959L116.994 48.0032V51.9959L114.998 55.9887V51.9959Z"></path>
<path fill="#48BD9F" d="M110.019 50.9927L112.016 46.9999L116.994 48.0032L114.998 51.9959L110.019 50.9927Z"></path>
<path fill="#276964" d="M110.016 54.9891L110.019 50.9927L114.998 51.9959L114.994 55.9924L110.016 54.9891Z"></path>
<path fill="#173D44" d="M114.999 59.9829L116.996 55.9901L116.996 60.3826L114.999 59.9829Z"></path>
<path fill="#4F588B" d="M116.996 73.9854L122.996 61.9853V65.9781L116.996 77.9781V73.9854Z"></path>
<path fill="#4F588B" d="M111.982 68.9854L117.982 56.9854V60.9854L111.982 72.9854V68.9854Z"></path>
<path fill="#F9FFFF" d="M96.9824 65.9854L102.982 53.9854L117.982 56.9854L111.982 68.9854L96.9824 65.9854Z"></path>
<path fill="#F9FFFF" d="M111.982 72.9854L117.982 60.9854L122.996 61.9853L116.996 73.9854L111.982 72.9854Z"></path>
<path fill="#8995CB" d="M96.9824 70.3977V65.9854L111.982 68.9854V72.9841L116.996 73.9854V77.9781L104.996 75.5877L104.978 71.9854L96.9824 70.3977Z"></path>
<path fill="#FFFFA7" d="M96.9824 65.9854L98.9788 61.9926L103.957 62.9959L101.961 66.9886L96.9824 65.9854Z"></path>
<path fill="#938F6A" d="M96.9788 69.9818L96.9824 65.9854L101.961 66.9886L101.957 70.9851L96.9788 69.9818Z"></path>
<path fill="#FFFFA7" d="M113.982 68.9854L115.979 64.9926L120.957 65.9959L118.961 69.9886L113.982 68.9854Z"></path>
<path fill="#565548" d="M118.961 69.9886L120.957 65.9959V70.0547L118.961 74.0475V69.9886Z"></path>
<path fill="#A3DFF3" d="M106.043 58.9819L108.039 54.9891L113.018 55.9924L111.021 59.9852L106.043 58.9819Z"></path>
<path fill="#5A7D97" d="M101.961 71.389L101.957 70.9851L106.936 71.9883L106.932 75.9848L104.996 75.5877L104.978 71.9854L101.961 71.389Z"></path>
<path fill="#111F74" d="M112.988 97.9906L114.985 93.9785V101.979L112.988 105.983V97.9906Z"></path>
<path fill="#375FFF" d="M107.985 96.9785L109.985 92.9785L114.985 93.9785L112.988 97.9906L107.985 96.9785Z"></path>
<path fill="#1E35A7" d="M107.985 104.979V96.9785L112.988 97.9906L112.985 105.979L107.985 104.979Z"></path>
<path fill="#391D20" d="M99.9848 99.3847L103 99.9834L103.179 99.6248L107.985 100.586V104.979L112.988 105.983L114.985 101.979L115 114L99.9848 110.971V99.3847Z"></path>
<path fill="#832630" d="M105.009 108V104L107.985 104.596V104.979L110 105.383L109.984 108.986L105.009 108Z"></path>
<path fill="#201116" d="M114.985 109.993L116.789 110.353L115 114L114.985 109.993Z"></path>
</svg>
