<svg xmlns="http://www.w3.org/2000/svg" fill="none" viewBox="0 0 80 116" height="116" width="80">
<path stroke-width="2" stroke="white" fill="#56C6F8" d="M2 113H1V3H2H3V2V1H77V2V3H78H79V113H78H77V114V115H3V114V113H2Z"></path>
<path fill="#CCBC29" d="M37.4977 72L42.4977 73V81L37.4977 80V72Z"></path>
<path fill="#807519" d="M42.4977 73L44.4977 69V77L42.4977 81V73Z"></path>
<path fill="#CCBC29" d="M33.9977 65.5L43.9977 67.5V75.5L33.9977 73.5V65.5Z"></path>
<path fill="#807519" d="M43.9977 67.5L47.9977 59.5V67.5L43.9977 75.5V67.5Z"></path>
<path fill="#CCBC29" d="M30.4977 61L45.4977 64V70L30.4977 67V61Z"></path>
<path fill="#807519" d="M45.4977 64L51.4977 52V58L45.4977 70V64Z"></path>
<path fill="#CCBC29" d="M26.9977 56.5L46.9977 60.5V64.5L26.9977 60.5V56.5Z"></path>
<path fill="#807519" d="M46.9977 60.5L54.9977 44.5V48.5L46.9977 64.5V60.5Z"></path>
<path fill="#FFEB33" d="M34.9977 40.5L54.9977 44.5L46.9977 60.5L26.9977 56.5L34.9977 40.5Z"></path>
<path fill="#CC66B6" d="M26.9977 54.5L46.9977 58.5V60.5L26.9977 56.5V54.5Z"></path>
<path fill="#804071" d="M46.9977 58.5L54.9977 42.5V44.5L46.9977 60.5V58.5Z"></path>
<path fill="#CC66B6" d="M23.4977 36L48.4977 41V61L23.4977 56V36Z"></path>
<path fill="#804071" d="M48.4977 41L58.4977 21V41L48.4977 61V41Z"></path>
<path fill="#FF80E3" d="M33.4977 16L58.4977 21L48.4977 41L23.4977 36L33.4977 16Z"></path>
<path fill="#CC66B6" d="M26.9977 32.5L46.9977 36.5V38.5L26.9977 34.5V32.5Z"></path>
<path fill="#804071" d="M46.9977 36.5L54.9977 20.5002V22.4993L46.9977 38.4993V36.5Z"></path>
<path fill="#CC66B6" d="M49.4977 41L51.9977 41.5V57.5L49.4977 57V41Z"></path>
<path fill="#FF80E3" d="M57.4977 25L59.9977 25.5L51.9977 41.5L49.4977 41L57.4977 25Z"></path>
<path fill="#804071" d="M51.9977 41.5L59.9977 25.5V41.5L51.9977 57.5V41.5Z"></path>
<path fill="#FF80E3" d="M25.9974 38.5L45.9974 42.5L44.9974 44.5L24.9974 40.5L25.9974 38.5Z"></path>
<path fill="#CC66B6" d="M24.9974 40.5L44.9974 44.5V60.5L24.9974 56.5V40.5Z"></path>
<path fill="#804071" d="M44.9974 44.5L45.9974 42.5V58.4998L44.9974 60.5V44.5Z"></path>
<path fill="#CC66B6" d="M22 35.4995L23.589 35.8173L23.4977 36V51.799L22 51.4995V35.4995Z"></path>
<path fill="#FF80E3" d="M30 19.4995L31.589 19.8173L23.589 35.8173L22 35.4995L30 19.4995Z"></path>
<path fill="#FF80E3" d="M36.9977 16.5033L56.9977 20.5033L56.9083 20.6821L36.9083 16.6821L36.9977 16.5033Z"></path>
<path fill="#804071" d="M56.9083 20.6821L56.9977 20.5033V20.7L56.9083 20.6821Z"></path>
<path fill="white" d="M44 96H49V97H50V100H49V101H50V104H48V102H47V101H46V99H48V98H46V99V101V104H44V96Z"></path>
<path fill="white" d="M23 97H24V96H29V98H25V99H27V101H25V102H29V104H24V103H23V97Z"></path>
<path fill="white" d="M51 97H52V96H57V98H53V99H55V101H53V102H57V104H52V103H51V97Z"></path>
<path fill="white" d="M16 97H17V96H22V98H18V99V101V102H22V104H17V103H16V97Z"></path>
<path fill="white" d="M37 97H38V96H43V98H39V99V101V102H43V104H38V103H37V97Z"></path>
<path fill="white" d="M58 97H59V96H63V97H64V104H62V98H60V99H62V101H60V102V104H59H58V103V97Z"></path>
<path fill="white" d="M65 96H67V97H68V98H69V97H70V96H72V104H70V100H69V101H68V100H67V104H65V96Z"></path>
<path fill="white" d="M9 97V96H10H15V98H13V102H15V104H9V102H11V98H9V97Z"></path>
<path fill="#FF3232" d="M37 2H76V4H78V16H37H31V14H33V12H35V10H37V8H35V6H33V4H31V2H37Z"></path>
<path fill="white" d="M59.5 7.5H60V7H62.5V8H60.5V8.5H62V9H62.5V10.5H62V11H59.5V10H61.5V9.5H60V9H59.5V7.5Z"></path>
<path fill="white" d="M45.5 7.5V7H46H46.5V8H47.5V7H48.5V8.5H48V9.5H48.5V11H47.5V10H46.5V11H45.5V9.5H46V8.5H45.5V7.5Z"></path>
<path fill="white" d="M52.5 7.5V7H53H53.5V8V10H55.5V11H53V10.5H52.5V8V7.5Z"></path>
<path fill="white" d="M63 7.5V7H63.5H66V8H65V10H66V11H63V10H64V8H63V7.5Z"></path>
<path fill="white" d="M59 7.5V7H58.5H58V8V10H57V7H56V10.5H56.5V11H58.5V10.5H59V8V7.5Z"></path>
<path fill="white" d="M69.5 7.5V7H69H68.5V8V9.5H67.5V7H66.5V10H67V10.5H67.5V11H68.5V10.5H69V10H69.5V8V7.5Z"></path>
<path fill="white" d="M70 7.5H70.5V7H73V8H71V8.5H72V9.5H71V10H73V11H70.5V10.5H70V7.5Z"></path>
<path fill="white" d="M49 7.5H49.5V7H52V8H50V8.5V9.5V10H52V11H49.5V10.5H49V7.5Z"></path>
<path fill="white" d="M42 7.5H42.5V7H45V8H43V8.5H44V9.5H43V10H45V11H42.5V10.5H42V7.5Z"></path>
</svg>
