<svg xmlns="http://www.w3.org/2000/svg" fill="none" viewBox="0 0 14 14" height="14" width="14">
<path stroke="black" fill="#F7E84D" d="M3 3.5H2.79289L2.64645 3.64645L1.64645 4.64645L1.5 4.79289V5V12V12.5H2H2.5V13V13.5H3H12H12.5V13V12.5H13H13.5V12V3V2.5H13H12.5V2V1.5H12H4H3.5V2V3.5H3ZM7.5 5.5H8.5V10.5H7.5V5.5Z"></path>
<path stroke="black" fill="#F7E84D" d="M2 2.5H1.5V3V4V11V11.5H2H2.5V12V12.5H3H11H11.5V12V11.5H12H12.5V11V3V2.5H12H11.5V2V1.5H11H3H2.5V2V2.5H2ZM6.5 4.5H7.5V9.5H6.5V4.5Z"></path>
</svg>
