<svg xmlns="http://www.w3.org/2000/svg" fill="none" viewBox="0 0 200 200" height="200" width="200">
<path fill="#6373B1" d="M69.5075 88.5L102.001 94.9993V98.9993L69.5075 92.5V88.5Z"></path>
<path fill="#2C3C81" d="M69.5075 78.5L102.001 84.9993V94.9993L69.5075 88.5V78.5Z"></path>
<path fill="#212D61" d="M102.001 84.9993L108.001 72.9993V82.9993L102.001 94.9993V84.9993Z"></path>
<path fill="#4F5380" d="M102.001 94.9993L108.001 82.9993V86.9993L102.001 98.9993V94.9993Z"></path>
<path fill="#5E83F8" d="M75.5074 66.5L108.001 72.9993L102.001 84.9993L69.5075 78.5L75.5074 66.5Z"></path>
<path fill="#1F3173" d="M76.5012 94.5L86.5012 96.5V100.5L76.5012 98.5V94.5Z"></path>
<path fill="#192354" d="M86.5012 96.5L87.4949 94.5V96.5L89.5012 92.5V94.5L86.5012 100.5V96.5Z"></path>
<path fill="#4169DB" d="M79.5012 90.5L89.5012 92.5L87.4949 96.5V94.5L86.5012 96.5L76.5012 94.5L77.4949 92.5L78.4066 92.6823L79.5012 90.5Z"></path>
<path fill="#6776B6" d="M94.5012 89.5L97.0012 90V92L94.5012 91.5V89.5Z"></path>
<path fill="#1F3173" d="M76.5012 71.5125L86.5012 73.5125V77.5125L76.5012 75.5125V71.5125Z"></path>
<path fill="#192354" d="M86.5012 73.5125L88.5012 69.5125V73.5125L86.5012 77.5125V73.5125Z"></path>
<path fill="#4169DB" d="M78.5012 67.5125L88.5012 69.5125L86.5012 73.5125L76.5012 71.5125L78.5012 67.5125Z"></path>
<path fill="#2C3C81" d="M103.001 86.9993L115.501 89.5V95.5L103.001 92.9993V86.9993Z"></path>
<path fill="#5E83F8" d="M107.001 78.9993L119.501 81.5L115.501 89.5L103.001 86.9993L107.001 78.9993Z"></path>
<path fill="#1F3173" d="M103.001 90.9993L115.501 93.5V95.5L103.001 92.9993V90.9993Z"></path>
<path fill="#212D61" d="M115.501 89.5L119.501 81.5V85.5L115.501 93.5V89.5Z"></path>
<path fill="#192354" d="M115.501 93.5L119.501 85.5V87.5L115.501 95.5V93.5Z"></path>
<path fill="#2C3C81" d="M57.9921 76L69.5975 78.3199L69.5075 78.5V88.3018L57.9921 86L57.9978 81.8012L57.9921 76Z"></path>
<path fill="#5E83F8" d="M62.9921 66L74.5975 68.3199L69.5975 78.3199L57.9921 76L62.9921 66Z"></path>
<path fill="#6373B1" d="M62.9921 82.9997L69.5075 84.3018V88.3018L62.9921 86.9997V82.9997Z"></path>
<path fill="#2C3C81" d="M43.9921 73L58.083 75.8182L57.9921 76L57.9978 81.8012L43.9921 79V73Z"></path>
<path fill="#5E83F8" d="M46.9921 67L61.083 69.8182L58.083 75.8182L43.9921 73L46.9921 67Z"></path>
<path fill="#1F3173" d="M35 61L47.5 63.5V71.5L44.9921 71L43.9921 73L44 79L47.5 79.7012V85.5L35 83V79L40 80V66L35 65V61Z"></path>
<path fill="#192354" d="M47.5 63.5L48.5 61.5V69.5L47.5 71.5L44.9921 71L43.9921 73L44 79L48.5 79.9016V83.5L47.5 85.5V79.7012L44 79L43.9921 73L44.9921 71L47.5 71.5V63.5Z"></path>
<path fill="#4169DB" d="M36 59L48.5 61.5L47.5 63.5L35 61L36 59Z"></path>
<path fill="#4169DB" d="M36 77L40 77.8V80L35 79L36 77Z"></path>
</svg>
