<svg xmlns="http://www.w3.org/2000/svg" fill="none" viewBox="0 0 200 200" height="200" width="200">
<path fill="#721523" d="M104 102.002L109 103.002V107.002L104 106.002V102.002Z"></path>
<path fill="#410C18" d="M109 103.002L111 99.0004V103.002L109 107.002V103.002Z"></path>
<path fill="#8787B7" d="M104 98.0004L109 99.0019V103.002L104 102.002V98.0004Z"></path>
<path fill="#4F507E" d="M109 99.0019L111 95.0005V99.0004L109 103.002V99.0019Z"></path>
<path fill="#204F31" d="M104 94.0004L109 95.0004V99.0019L104 98.0004V94.0004Z"></path>
<path fill="#122E22" d="M109 95.0004L111 91.0005V95.0005L109 99.0019V95.0004Z"></path>
<path fill="#8787B7" d="M104 90.0025L109 90.9998V95.0004L104 94.0004V90.0025Z"></path>
<path fill="#4F507E" d="M109 90.9998L111 86.9999V91.0005L109 95.0004V90.9998Z"></path>
<path fill="#721523" d="M104 86.0025L109 87.0008V90.9998L104 90.0025V86.0025Z"></path>
<path fill="#410C18" d="M109 87.0008L111 82.9993V86.9999L109 90.9998V87.0008Z"></path>
<path fill="#8787B7" d="M104 81.9993L109 83.0008V87.0008L104 86.0025V81.9993Z"></path>
<path fill="#4F507E" d="M109 83.0008L111 78.9994V82.9993L109 87.0008V83.0008Z"></path>
<path fill="#204F31" d="M104 77.9993L109 78.9993V83.0008L104 81.9993V77.9993Z"></path>
<path fill="#122E22" d="M109 78.9993L111 74.9994V78.9994L109 83.0008V78.9993Z"></path>
<path fill="#8787B7" d="M104 74.0011L109 75.0015V78.9993L104 77.9993V74.0011Z"></path>
<path fill="#4F507E" d="M109 75.0015L111 71.0016V74.9994L109 78.9993V75.0015Z"></path>
<path fill="#F7F3FF" d="M104 74.0011L106 70.002L111 71.0016L109 75.0015L104 74.0011Z"></path>
<path fill="#721523" d="M99 72.9983L104 73.9983V77.9993L99 76.9983V72.9983Z"></path>
<path fill="#CD2738" d="M99 72.9983L101 68.9988L106 69.9984L104 73.9983L99 72.9983Z"></path>
<path fill="#F7F3FF" d="M94 71.9971L96 67.9976L101 68.9972L99 72.9971L94 71.9971Z"></path>
<path fill="#8787B7" d="M94 71.9999L99 73.0003V76.9983L94 75.9981V71.9999Z"></path>
<path fill="#204F31" d="M89 70.9995L94 71.9999V75.9995L89 74.9995V70.9995Z"></path>
<path fill="#3A8D4E" d="M89 70.9995L91 67L96 67.9996L94 71.9999L89 70.9995Z"></path>
<path fill="#8787B7" d="M89 74.9976L94 75.9981V79.9959L89 78.9957V74.9976Z"></path>
<path fill="#721523" d="M89 78.9957L94 79.9959V83.9967L89 82.9957V78.9957Z"></path>
<path fill="#410C18" d="M94 79.9959L95.8166 76.3615L96 76.3981V79.9959L94 83.9967V79.9959Z"></path>
<path fill="#4F507E" d="M94 75.9995L95.8166 76.3615L94 79.9972V75.9995Z"></path>
<path fill="white" d="M80 129H82V130H83V131H84V129H86V137H84V134H83V133H82V137H80V129Z"></path>
<path fill="white" d="M122 129H124V130H125V131H126V129H128V137H126V134H125V133H124V137H122V129Z"></path>
<path fill="white" d="M129 130H130V129H135V131H131V132H133V134H131V135H135V137H130V136H129V130Z"></path>
<path fill="white" d="M66 130H67V129H72V131H68V132V134V135H72V137H67V136H66V130Z"></path>
<path fill="white" d="M108 130H109V129H114V131H110V132V134V135H114V137H109V136H108V130Z"></path>
<path fill="white" d="M73 130H74V129H78V130H79V137H77V131H75V132H77V134H75V135V137H74H73V136V130Z"></path>
<path fill="white" d="M115 130H116V129H120V130H121V137H119V131H117V132H119V134H117V135V137H116H115V136V130Z"></path>
<path fill="white" d="M94 130V129H95H96V132H98V129H100V133H99V134H98V137H96V134H95V133H94V130Z"></path>
<path fill="white" d="M87 130V129H88H92V130H93V131H91H89V135H91V131H93V136H92V137H88H87V136V130Z"></path>
</svg>
