<svg xmlns="http://www.w3.org/2000/svg" fill="none" viewBox="0 0 200 200" height="200" width="200">
<path fill="#312C41" d="M80.0005 91L110.001 97V101L80.0005 95V91Z"></path>
<path fill="#2B2742" d="M80.0005 89L110.001 95V97L80.0005 91V89Z"></path>
<path fill="#211F2C" d="M83.5005 83.5L108.501 88.5V92.5L83.5005 87.5V83.5Z"></path>
<path fill="#191526" d="M108.501 88.5L116.501 72.5V76.5L108.501 92.5V88.5Z"></path>
<path fill="#434459" d="M83.5005 83.5L91.5005 67.5L116.501 72.5L108.501 88.5L83.5005 83.5Z"></path>
<path fill="#59536D" d="M80.0005 89L90.0005 69L90.6824 69.1364L83.5005 83.5V87.5L108.501 92.5L116.501 76.5V74.3L120.001 75L110.001 95L80.0005 89Z"></path>
<path fill="#221E35" d="M110.001 95L120.001 75V77L110.001 97V95Z"></path>
<path fill="#2B283B" d="M110.001 97L120.001 77V81L110.001 101V97Z"></path>
<path fill="#395B76" d="M113.001 91L128.001 94V102L113.001 99V91Z"></path>
<path fill="#244964" d="M128.001 94L132.001 86V94L128.001 102V94Z"></path>
<path fill="#7BC8E6" d="M113.001 91L117.001 83L132.001 86L128.001 94L113.001 91Z"></path>
<path fill="#798FDC" d="M123.001 95L125.501 95.5V97.5L123.001 97V95Z"></path>
<path fill="#263646" d="M97.5005 109.5L110.001 112V116L97.5005 113.5V109.5Z"></path>
<path fill="#1E273B" d="M110.001 112L115.001 102V106L110.001 116V112Z"></path>
<path fill="#4E768F" d="M97.5005 109.5L99.5005 105.5L102.001 106L105.001 100L115.001 102L110.001 112L97.5005 109.5Z"></path>
<path fill="#263646" d="M120.001 81L125.001 82V84.6L118.819 83.3636L120.001 81Z"></path>
<path fill="#1E273B" d="M125.001 82L130.001 72V76L125.637 84.7272L125.001 84.6V82Z"></path>
<path fill="#4E768F" d="M120.001 75L117.729 74.5457L118.001 74L116.501 73.7V72.5L116.046 72.4091L117.501 69.5L130.001 72L125.001 82L120.001 81V75Z"></path>
<path fill="#263646" d="M116.501 73.7L118.001 74L117.729 74.5457L116.501 74.3V73.7Z"></path>
<path fill="#263E58" d="M110.001 101L113.001 95V99L111.819 101.364L110.001 101Z"></path>
<path fill="#35556C" d="M80.0005 95V99L85.0006 100V96L80.0005 95Z"></path>
<path fill="#263E58" d="M85.0006 96V100L86.8187 96.3636L85.0006 96Z"></path>
<path fill="#263646" d="M64 94L79 97V101L64 98V94Z"></path>
<path fill="#1E273B" d="M79 97L80.0005 95V90.6001V99L79 101V97Z"></path>
<path fill="#4E768F" d="M64 94L67 88L80.0005 90.6001V95L79 97L64 94Z"></path>
<path fill="#263646" d="M73 76L85.2732 78.4546L83.455 82.091L73 80V76Z"></path>
<path fill="#4E768F" d="M73 76L76 70L88.2732 72.4546L85.2732 78.4546L73 76Z"></path>
</svg>
