<svg xmlns="http://www.w3.org/2000/svg" fill="none" viewBox="0 0 200 200" height="200" width="200">
<path fill="#CC9F34" d="M85 95L105 99V113L85 109V95Z"></path>
<path fill="#806320" d="M105 99L116 77V91L105 113V99Z"></path>
<path fill="#FFC641" d="M96 73L116 77L105 99L85 95L96 73Z"></path>
<path fill="#FFC741" d="M91 106L95 106.8V109L90 108L91 106Z"></path>
<path fill="#7F6320" d="M91 104.2V106L90 108V104L91 104.2Z"></path>
<path fill="#FFC741" d="M98.4091 105.664L100 105.982V107.982L97.5 107.482L98.4091 105.664Z"></path>
<path fill="#7F6320" d="M98.4091 105.664L97.5 107.482V105.482L98.4091 105.664Z"></path>
<path fill="#FFC741" d="M98.5 101.517L102.5 102.317V104.517L97.5 103.517L98.5 101.517Z"></path>
<path fill="#7F6320" d="M98.5 99.7174V101.517L97.5 103.517V99.5174L98.5 99.7174Z"></path>
<path fill="#FFC741" d="M88.4091 97.6818L90 98V100L87.5 99.5L88.4091 97.6818Z"></path>
<path fill="#7F6320" d="M88.4091 97.6818L87.5 99.5V97.5L88.4091 97.6818Z"></path>
<path fill="#FFC641" d="M113.182 84.6545L115 85.0182L113 89.0182V85.0182L113.182 84.6545Z"></path>
<path fill="#CC9F34" d="M113.182 84.6545L115 81.0182V85.0182L113.182 84.6545Z"></path>
<path fill="#FFC641" d="M108.182 100.636L110 101L108 105V101L108.182 100.636Z"></path>
<path fill="#CC9F34" d="M108.182 100.636L110 97V101L108.182 100.636Z"></path>
<path fill="#FFC641" d="M109.182 92.6364L111 93L109 97V93L109.182 92.6364Z"></path>
<path fill="#CC9F34" d="M109.182 92.6364L111 89V93L109.182 92.6364Z"></path>
<path fill="#FFC641" d="M106.091 100.818L107 101L106 103V101L106.091 100.818Z"></path>
<path fill="#CC9F34" d="M106.091 100.818L107 99V101L106.091 100.818Z"></path>
<path fill="#FFC641" d="M114.091 88.8182L115 89L114 91V89L114.091 88.8182Z"></path>
<path fill="#CC9F34" d="M114.091 88.8182L115 87V89L114.091 88.8182Z"></path>
<path fill="#CC9F34" d="M96.5 77.5182L101.5 78.5182L100.583 80.3348L96.5 79.5182V77.5182Z"></path>
<path fill="#806320" d="M96.5 77.5182L94.5 81.5L95.4129 81.6826L96.5 79.5182V77.5182Z"></path>
<path fill="#CC9F34" d="M101 85.0182L106 86.0182L105.083 87.8348L101 87.0182V85.0182Z"></path>
<path fill="#806320" d="M101 85.0182L99 89L99.9129 89.1826L101 87.0182V85.0182Z"></path>
<path fill="#CC9F34" d="M100.5 91.5L105.5 92.5L104.583 94.3167L100.5 93.5V91.5Z"></path>
<path fill="#806320" d="M100.5 91.5L98.5 95.4818L99.4129 95.6644L100.5 93.5V91.5Z"></path>
<path fill="#CC9F34" d="M93 90.0182L95.5 90.5182L94.5833 92.3348L93 92.0182V90.0182Z"></path>
<path fill="#806320" d="M93 90.0182L92 92L92.9129 92.1826L93 92.0182V90.0182Z"></path>
<path fill="#CC9F34" d="M110 78.0303L112.5 78.5303L111.583 80.347L110 80.0303V78.0303Z"></path>
<path fill="#806320" d="M110 78.0303L109 80.0121L109.913 80.1947L110 80.0303V78.0303Z"></path>
</svg>
