<svg xmlns="http://www.w3.org/2000/svg" fill="none" viewBox="0 0 480 360" height="360" width="480">
<path fill="#56C6F8" d="M42 227H41V113H42H43V112V111H197V112V113H198H199V227H198H197V228V229H43V228V227H42Z"></path>
<path fill-opacity="0.2" fill="white" d="M42 227H41V113H42H43V112V111H197V112V113H198H199V227H198H197V228V229H43V228V227H42Z"></path>
<path stroke-width="2" stroke="white" d="M42 227H41V113H42H43V112V111H197V112V113H198H199V227H198H197V228V229H43V228V227H42Z"></path>
<path stroke="white" fill-opacity="0.25" fill="white" d="M41.5 162.59V146.01L198.5 177.41V193.99L41.5 162.59Z"></path>
<path stroke="white" fill="#56C6F8" d="M51 201.5H51.5V201V200.5H74.5V201V201.5H75H75.5V218.5H75H74.5V219V219.5H51.5V219V218.5H51H50.5V201.5H51Z"></path>
<path stroke="white" fill="#56C6F8" d="M165 201.5H165.5V201V200.5H188.5V201V201.5H189H189.5V218.5H189H188.5V219V219.5H165.5V219V218.5H165H164.5V201.5H165Z"></path>
<path stroke="white" fill="#56C6F8" d="M165 171.5H165.5V171V170.5H188.5V171V171.5H189H189.5V188.5H189H188.5V189V189.5H165.5V189V188.5H165H164.5V171.5H165Z"></path>
<path stroke="white" fill="#56C6F8" d="M165 121.5H165.5V121V120.5H188.5V121V121.5H189H189.5V138.5H189H188.5V139V139.5H165.5V139V138.5H165H164.5V121.5H165Z"></path>
<path stroke="white" fill="#56C6F8" d="M129 121.5H129.5V121V120.5H152.5V121V121.5H153H153.5V138.5H153H152.5V139V139.5H129.5V139V138.5H129H128.5V121.5H129Z"></path>
<path fill="#56C6F8" d="M282 227H281V113H282H283V112V111H437V112V113H438H439V227H438H437V228V229H283V228V227H282Z"></path>
<path fill-opacity="0.3" fill="white" d="M282 227H281V113H282H283V112V111H437V112V113H438H439V227H438H437V228V229H283V228V227H282Z"></path>
<path stroke-width="2" stroke="white" d="M282 227H281V113H282H283V112V111H437V112V113H438H439V227H438H437V228V229H283V228V227H282Z"></path>
<path stroke="white" fill-opacity="0.5" fill="#56C6F8" d="M281.5 162.59V146.01L438.5 177.41V193.99L281.5 162.59Z"></path>
<path stroke="white" fill="#56C6F8" d="M291 201.5H291.5V201V200.5H314.5V201V201.5H315H315.5V218.5H315H314.5V219V219.5H291.5V219V218.5H291H290.5V201.5H291Z"></path>
<path stroke="white" fill="#56C6F8" d="M405 201.5H405.5V201V200.5H428.5V201V201.5H429H429.5V218.5H429H428.5V219V219.5H405.5V219V218.5H405H404.5V201.5H405Z"></path>
<path stroke="white" fill="#56C6F8" d="M405 171.5H405.5V171V170.5H428.5V171V171.5H429H429.5V188.5H429H428.5V189V189.5H405.5V189V188.5H405H404.5V171.5H405Z"></path>
<path stroke="white" fill="#56C6F8" d="M405 121.5H405.5V121V120.5H428.5V121V121.5H429H429.5V138.5H429H428.5V139V139.5H405.5V139V138.5H405H404.5V121.5H405Z"></path>
<path stroke="white" fill="#56C6F8" d="M369 121.5H369.5V121V120.5H392.5V121V121.5H393H393.5V138.5H393H392.5V139V139.5H369.5V139V138.5H369H368.5V121.5H369Z"></path>
<path fill="white" d="M109 241H110V240H115V242H111V243V245V246H115V248H110V247H109V241Z"></path>
<path fill="white" d="M53 241V240H54H59V242H57V246V248H55V246V242H53V241Z"></path>
<path fill="white" d="M116 241V240H117H122V242H120V246V248H118V246V242H116V241Z"></path>
<path fill="white" d="M138 261V260H139H144V262H142V266V268H140V266V262H138V261Z"></path>
<path fill="white" d="M67 241H68V240H73V242H69V243H71V245H69V246H73V248H68V247H67V241Z"></path>
<path fill="white" d="M88 241H89V240H94V242H90V243H92V245H90V246H94V248H89V247H88V241Z"></path>
<path fill="white" d="M123 241H124V240H129V242H125V243H127V245H125V246H129V248H124V247H123V241Z"></path>
<path fill="white" d="M102 241H103V240H108V242H104V243H106V245H104V246H108V248H103V247H102V241Z"></path>
<path fill="white" d="M174 241V240H175H180V242H178V246H180V248H174V246H176V242H174V241Z"></path>
<path fill="white" d="M65 240L66 240L66 241L66 248L64 248L64 245L62 245L62 248L60 248L60 240L62 240L62 243L64 243L64 240L65 240Z"></path>
<path fill="white" d="M95 241V240H96H97V242V246H101V248H96V247H95V242V241Z"></path>
<path fill="white" d="M152 248L150 248L150 247L149 247L149 246L148 246L148 247L147 247L147 248L145 248L145 240L147 240L147 244L148 244L148 243L149 243L149 244L150 244L150 240L152 240L152 248Z"></path>
<path fill="white" d="M153 241H154V240H158V241H159V248H157V242H155V243H157V245H155V246V248H154H153V247V241Z"></path>
<path fill="white" d="M160 241V240H161H162V243H164V240H166V244H165V245H164V248H162V245H161V244H160V241Z"></path>
<path fill="white" d="M81 241H82V240H87V242H83V243H86V244H87V247H86V248H81V246H85V245H82V244H81V241Z"></path>
<path fill="white" d="M181 241H182V240H187V242H183V243H186V244H187V247H186V248H181V246H185V245H182V244H181V241Z"></path>
<path fill="white" d="M130 241V240H131H135V241H136V242H134H132V246H134V242H136V247H135V248H131H130V247V241Z"></path>
<path fill="white" d="M152 261V260H153H157V261H158V262H156H154V266H156V262H158V267H157V268H153H152V267V261Z"></path>
<path fill="white" d="M96 261H97V260H102V262H98V263V265V266H100V265H99V263H102V267V268H101H97V267H96V261Z"></path>
<path fill="white" d="M124 261H125V260H130V262H126V263V265V266H128V265H127V263H130V267V268H129H125V267H124V261Z"></path>
<path fill="white" d="M145 261H146V260H151V262H147V263H149V265H147V266H151V268H146V267H145V261Z"></path>
<path fill="white" d="M89 261V260H90H95V262H93V266H95V268H89V266H91V262H89V261Z"></path>
<path fill="white" d="M117 261V260H118H123V262H121V266H123V268H117V266H119V262H117V261Z"></path>
<path fill="white" d="M87 260L88 260L88 261L88 268L86 268L86 265L84 265L84 268L82 268L82 260L84 260L84 263L86 263L86 260L87 260Z"></path>
<path fill="white" d="M108 260L109 260L109 261L109 268L107 268L107 265L105 265L105 268L103 268L103 260L105 260L105 263L107 263L107 260L108 260Z"></path>
<path fill="white" d="M136 260L137 260L137 261L137 268L135 268L135 265L133 265L133 268L131 268L131 260L133 260L133 263L135 263L135 260L136 260Z"></path>
<path fill="white" d="M110 261V260H111H112V262V266H116V268H111V267H110V262V261Z"></path>
<path fill="white" d="M325 241H326V240H330V241H331V242H329H327V246H329V242H331V247H330V248H326V247H325V241Z"></path>
<path fill="white" d="M333 261H334V260H338V261H339V262H337H335V266H337V262H339V267H338V268H334V267H333V261Z"></path>
<path fill="white" d="M388 291H389V290H393V291H394V292H392H390V296H392V292H394V297H393V298H389V297H388V291Z"></path>
<path fill="white" d="M410 291H411V290H415V291H416V292H414H412V296H414V292H416V297H415V298H411V297H410V291Z"></path>
<path fill="white" d="M283 241H284V240H289V242H285V243V245V246H289V248H284V247H283V241Z"></path>
<path fill="white" d="M304 241H305V240H310V242H306V243V245V246H310V248H305V247H304V241Z"></path>
<path fill="white" d="M342 311H343V310H348V312H344V313V315V316H348V318H343V317H342V311Z"></path>
<path fill="white" d="M338 241V240H337H336V242V246H334V240H332V247H333V248H337V247H338V242V241Z"></path>
<path fill="white" d="M367 261V260H366H365V262V265H363V260H361V266H362V267H363V268H365V267H366V266H367V262V261Z"></path>
<path fill="white" d="M297 241V240H298H303V242H301V246H303V248H297V246H299V242H297V241Z"></path>
<path fill="white" d="M353 241V240H354H359V242H357V246H359V248H353V246H355V242H353V241Z"></path>
<path fill="white" d="M339 241V240H340H345V242H343V246V248H341V246V242H339V241Z"></path>
<path fill="white" d="M326 261V260H327H332V262H330V266V268H328V266V262H326V261Z"></path>
<path fill="white" d="M381 291V290H382H387V292H385V296V298H383V296V292H381V291Z"></path>
<path fill="white" d="M381 241V240H382H387V242H385V246V248H383V246V242H381V241Z"></path>
<path fill="white" d="M395 241V240H396H401V242H399V246H401V248H395V246H397V242H395V241Z"></path>
<path fill="white" d="M393 240L394 240L394 241L394 248L392 248L392 245L390 245L390 248L388 248L388 240L390 240L390 243L392 243L392 240L393 240Z"></path>
<path fill="white" d="M402 241H403V240H408V242H404V243H407V244H408V247H407V248H402V246H406V245H403V244H402V241Z"></path>
<path fill="white" d="M290 241V240H291H292V242V246H296V248H291V247H290V242V241Z"></path>
<path fill="white" d="M317 240L317 242L316 242L316 243L315 243L315 245L316 245L316 246L317 246L317 248L315 248L315 247L314 247L314 246L313 246L313 248L311 248L311 240L313 240L313 242L314 242L314 241L315 241L315 240L317 240Z"></path>
<path fill="white" d="M355 310L355 312L354 312L354 313L353 313L353 315L354 315L354 316L355 316L355 318L353 318L353 317L352 317L352 316L351 316L351 318L349 318L349 310L351 310L351 312L352 312L352 311L353 311L353 310L355 310Z"></path>
<path fill="white" d="M346 241H347V240H352V242H348V243H351V244H352V247H351V248H346V246H350V245H347V244H346V241Z"></path>
<path fill="white" d="M367 241H368V240H373V242H369V243H371V245H369V246H373V248H368V247H367V241Z"></path>
<path fill="white" d="M423 248L421 248L421 247L420 247L420 246L419 246L419 247L418 247L418 248L416 248L416 240L418 240L418 244L419 244L419 243L420 243L420 244L421 244L421 240L423 240L423 248Z"></path>
<path fill="white" d="M363 318L361 318L361 317L360 317L360 316L359 316L359 317L358 317L358 318L356 318L356 310L358 310L358 314L359 314L359 313L360 313L360 314L361 314L361 310L363 310L363 318Z"></path>
<path fill="white" d="M424 241H425V240H429V241H430V248H428V242H426V243H428V245H426V246V248H425H424V247V241Z"></path>
<path fill="white" d="M364 311H365V310H369V311H370V318H368V312H366V313H368V315H366V316V318H365H364V317V311Z"></path>
<path fill="white" d="M335 311H336V310H340V311H341V318H339V312H337V313H339V315H337V316V318H336H335V317V311Z"></path>
<path fill="white" d="M431 241V240H432H433V243H435V240H437V244H436V245H435V248H433V245H432V244H431V241Z"></path>
<path fill="white" d="M360 241V240H361H365V241H366V242H364H362V246H364V242H366V247H365V248H361H360V247V241Z"></path>
<path fill="white" d="M375 260H377V261H378V262H379V260H381V268H379V265H378V264H377V268H375V260Z"></path>
<path fill="white" d="M352 291H353V290H357V291H358V292H356H354V296H356V292H358V297H357V298H353V297H352V291Z"></path>
<path fill="white" d="M317 291V290H318H323V292H321V296H323V298H317V296H319V292H317V291Z"></path>
<path fill="white" d="M310 291V290H311H312V292V296H316V298H311V297H310V292V291Z"></path>
<path fill="white" d="M303 291H304V290H309V292H305V293H308V294H309V297H308V298H303V296H307V295H304V294H303V291Z"></path>
<path fill="white" d="M385 311H386V310H391V312H387V313H390V314H391V317H390V318H385V316H389V315H386V314H385V311Z"></path>
<path fill="white" d="M331 291H332V290H337V292H333V293H335V295H333V296H337V298H332V297H331V291Z"></path>
<path fill="white" d="M366 298L364 298L364 297L363 297L363 296L362 296L362 297L361 297L361 298L359 298L359 290L361 290L361 294L362 294L362 293L363 293L363 294L364 294L364 290L366 290L366 298Z"></path>
<path fill="white" d="M324 291V290H325H329V291H330V292H328H326V296H328V292H330V297H329V298H325H324V297V291Z"></path>
<path fill="white" d="M378 311V310H379H383V311H384V312H382H380V316H382V312H384V317H383V318H379H378V317V311Z"></path>
<path fill="white" d="M345 291V290H346H350V291H351V292H349H347V296H349V292H351V297H350V298H346H345V297V291Z"></path>
<path fill="white" d="M367 290H369V291H370V292H371V290H373V298H371V295H370V294H369V298H367V290Z"></path>
<path fill="white" d="M389 261H390V260H395V262H391V263H393V265H391V266H395V268H390V267H389V261Z"></path>
<path fill="white" d="M382 261H383V260H388V262H384V263V265V266H388V268H383V267H382V261Z"></path>
<path fill="white" d="M347 261H348V260H352V261H353V268H351V262H349V263H351V265H349V266V268H348H347V267V261Z"></path>
<path fill="white" d="M368 261H369V260H373V261H374V268H372V262H370V263H372V265H370V266V268H369H368V267V261Z"></path>
<path fill="white" d="M354 261V260H355H359V261H360V262H358H356V266H358V262H360V267H359V268H355H354V267V261Z"></path>
<path fill="white" d="M328 310H333V311H334V313H333V315H334V317H333V318H330V316H332V315H331H330V313H332V312H330V313V315V318H328V310Z"></path>
<path fill="white" d="M403 291H404V290H409V292H405V293V295V296H407V295H406V293H409V297V298H408H404V297H403V291Z"></path>
<path fill="white" d="M371 310H376V311H377V314H376V315H377V318H375V316H374V315H373V313H375V312H373V313V315V318H371V310Z"></path>
</svg>
