<svg xmlns="http://www.w3.org/2000/svg" fill="none" viewBox="0 0 54 54" height="54" width="54">
<path fill="#B3BFBF" d="M53.9996 8.99999L26.9998 18L27.0002 54L54 45L53.9996 8.99999Z"></path>
<path fill="#ADFDFA" d="M26.9998 18L0 8.99999L0.000400543 45L27.0002 54L26.9998 18Z"></path>
<path fill="#FDFDFB" d="M26.9998 0L0 8.99999L26.9998 18L53.9996 8.99999L26.9998 0Z"></path>
<path fill="#6FA9BF" d="M26.9998 18L41.9994 13L41.9998 49L27.0002 54L26.9998 18Z"></path>
<path fill="#B5FFFC" d="M0 8.99999L14.9996 4.00033L23.9998 7.00066L27 6.00098L35.9999 9.00098L32.9999 10.001L41.9994 13L26.9998 18L0 8.99999Z"></path>
<path fill="#5D94B3" d="M38.9999 14.0007L41.9994 13L41.9996 25.0007L42 37.0007L41.9998 49L39.0003 50.0007L38.9999 14.0007Z"></path>
<path fill="#96E9FB" d="M12.0001 5.0011L14.9996 4.00033L23.9998 7.00066L27 6.00098L35.9999 9.00098L32.9999 10.001L41.9994 13L38.9999 14.0007L12.0001 5.0011Z"></path>
</svg>
