<svg xmlns="http://www.w3.org/2000/svg" fill="none" viewBox="0 0 200 200" height="200" width="200">
<path fill="#571E62" d="M110 83.9988L124 55.9988V85.9988L110 113.999V83.9988Z"></path>
<path fill="#95318B" d="M75 76.9988L110 83.9988V113.999L75 106.999V76.9988Z"></path>
<path fill="#9AEBFF" d="M89 48.999L124 55.9988L110 83.9988L75 76.9988L89 48.999Z"></path>
<path fill="#5580B3" d="M75 76.9988L110 83.9988V93.9988L75 86.9988V76.9988Z"></path>
<path fill="#9A8518" d="M75 96.9988L110 103.999V113.999L75 106.999V96.9988Z"></path>
<path fill="#314C7B" d="M110 83.9988L124 55.9988V65.9988L110 93.9988V83.9988Z"></path>
<path fill="#524E0E" d="M110 103.999L124 75.9988V85.9988L110 113.999V103.999Z"></path>
<path fill="#452973" d="M89.4997 71.5L91.4997 67.5V71.5L89.4997 75.5V71.5Z"></path>
<path fill="#764CA2" d="M82 70L89.4997 71.5V75.5L82 74V70Z"></path>
<path fill="#D685FE" d="M84 66.0002L91.4997 67.5L89.4997 71.5L82 70L84 66.0002Z"></path>
<path fill="#452973" d="M107 74.9998L109 70.9998V74.9998L107 78.9998V74.9998Z"></path>
<path fill="#764CA2" d="M99.5011 73.5L107 74.9998V78.9998L99.5011 77.5V73.5Z"></path>
<path fill="#D685FE" d="M101.501 69.5002L109 70.9998L107 74.9998L99.5011 73.5L101.501 69.5002Z"></path>
<path fill="#452973" d="M99.0001 101.4L101 97.3998V105.4L99.0001 109.4V101.4Z"></path>
<path fill="#764CA2" d="M82 97.9998L99.0001 101.4V109.4L82 106V97.9998Z"></path>
<path fill="#D685FE" d="M84 94L101 97.3998L99.0001 101.4L82 97.9998L84 94Z"></path>
<path fill="#3D1724" d="M77.5 90L81 90.7V95.7L77.5 95V90Z"></path>
<path fill="#3D1724" d="M104 95.3L107.5 96V101L104 100.3V95.3Z"></path>
<path fill="#3D1724" d="M92.5 102.1L96.5001 102.9V106.9L92.5 106.1V102.1Z"></path>
<path fill="#3D1724" d="M84 100.4L88 101.2V105.2L84 104.4V100.4Z"></path>
</svg>
