<svg xmlns="http://www.w3.org/2000/svg" fill="none" viewBox="0 0 200 200" height="200" width="200">
<path fill="#2C3864" d="M79 85L109 91V115L79 109V107L81.5 107.5V105.5L84 106V104L86.5 104.5V102.5L89 103V101L91.5 101.5V99.3V97.5L89 97V95L86.5 94.5V92.5L84 92V90L81.5 89.5V87.5L79 87V85Z"></path>
<path fill="#202841" d="M121 67V91L109 115V91L121 67Z"></path>
<path fill="#35467E" d="M79 85L91 61L121 67L109 91L79 85Z"></path>
<path fill="#D9D9D9" d="M91.5 95.5V89.5L96.5 90.5V96.5L91.5 95.5Z"></path>
<path fill="#1B1B1B" d="M92.75 94.75V90.75L94 91L95.25 91.25V95.25L92.75 94.75Z"></path>
<path fill="#D9D9D9" d="M92.75 91.75V90.75L94 91V92L92.75 91.75Z"></path>
<path fill="#35467E" d="M79 107L86.2727 92.4545L86.5 92.5V94.5L86.9545 94.5909L81.5 105.5V107.5L79 107Z"></path>
<path fill="#35467E" d="M81.5 105.5L82.5 103.5L84.0909 103.818L84 104V106L81.5 105.5Z"></path>
<path fill="#35467E" d="M84 104L85 102L86.5909 102.318L86.5 102.5V104.5L84 104Z"></path>
<path fill="#35467E" d="M86.5 102.5L87.5 100.5L89.0909 100.818L89 101V103L86.5 102.5Z"></path>
<path fill="#35467E" d="M89 101L90 99L91.5 99.3V101.5L89 101Z"></path>
<path fill="#2E0000" d="M82.5 103.5L86.9545 94.5909L88 94.8L89 95V97L91.5 97.5V99.3L90 99L89.0909 100.818L87.5 100.5L86.5909 102.318L85 102L84.0909 103.818L82.5 103.5Z"></path>
<path fill="white" d="M84.5 99.5L85 98.5V95.5L85.5 94.5V92.3L86.5 92.5V94.5L88 94.8V95L87.5 96V99L87 100L84.5 99.5Z"></path>
<path fill="#989898" d="M87.5 100.5L87 100L87.5 99V96L88 95V94.8L89 95V97L89.4545 97.0909L87.7273 100.545L87.5 100.5Z"></path>
<path fill="#D8D8D8" d="M88 95V94.8L86.5 94.5V92.5L85.5 92.3V94.5L88 95Z"></path>
<path fill="#D8D8D8" d="M87.5 99V96L85 95.5V98.5L87.5 99Z"></path>
<path fill="#989898" d="M85 102L84.0909 103.818L84.5909 102.818L85 102L85.5 102.1V101L86.5 99V101L87 100L87.5 100.5L86.5909 102.318L85 102Z"></path>
<path fill="white" d="M82.5 103.5L83 102.5V100.5L84 98.5L86.5 99V99.9L87 100L86.5 101V99L85.5 101V102.1L85 102L84.5909 102.818L84.0909 103.818L82.5 103.5Z"></path>
<path fill="#D8D8D8" d="M84.5909 102.818L85 102L85.5 102.1V101L83 100.5V102.5L84.5909 102.818Z"></path>
<path fill="#545A5D" d="M114.5 98L127 100.5V106.5L124.5 106V102L117 100.5V102.5L124.5 104V106L114.5 104V98Z"></path>
<path fill="#B4B4B4" d="M115.5 96L128 98.5L127 100.5L114.5 98L115.5 96Z"></path>
<path fill="#B4B4B4" d="M117.909 100.682L124.5 102V104L117 102.5L117.909 100.682Z"></path>
<path fill="#2E2E36" d="M128 98.5V104.5L127 106.5V100.5L128 98.5Z"></path>
<path fill="#2E2E36" d="M117.909 100.682L117 102.5V100.5L117.909 100.682Z"></path>
<path fill="#545A5D" d="M122 101.5L132 103.5L133 101.5L128 100.5V98.5L123.909 97.6818L124 97.5L136.5 100L133.5 106L121 103.5L122 101.5Z"></path>
<path fill="#2E2E36" d="M136.5 100V102L133.5 108V106L136.5 100Z"></path>
<path fill="#B4B4B4" d="M133.5 106V108L121 105.5V103.5L133.5 106Z"></path>
<path fill="#B4B4B4" d="M133 101.5L132.091 103.318L128 102.5V100.5L133 101.5Z"></path>
<path fill="#545A5D" d="M129.5 101L142 103.5V109.5L139.5 109V105L135.409 104.182L134.5 106L139.5 107V109L133.591 107.818L134.5 106L135.409 104.182L132 103.5L129.5 103V101Z"></path>
<path fill="#B4B4B4" d="M130.5 99L143 101.5L142 103.5L129.5 101L130.5 99Z"></path>
<path fill="#B4B4B4" d="M135.409 104.182L139.5 105V107L134.5 106L135.409 104.182Z"></path>
<path fill="#2E2E36" d="M143 101.5V107.5L142 109.5V103.5L143 101.5Z"></path>
<path fill="#545A5D" d="M137 104.5L147 106.5L148 104.5L143 103.5V101.5L138.909 100.682L139 100.5L151.5 103L148.5 109L136 106.5L137 104.5Z"></path>
<path fill="#2E2E36" d="M151.5 103V105L148.5 111V109L151.5 103Z"></path>
<path fill="#B4B4B4" d="M148.5 109V111L136 108.5V106.5L148.5 109Z"></path>
<path fill="#B4B4B4" d="M148 104.5L147.091 106.318L143 105.5V103.5L148 104.5Z"></path>
<path fill="#545A5D" d="M144.5 104L157 106.5V112.5L154.5 112V108L150.409 107.182L149.5 109L154.5 110V112L148.591 110.818L149.5 109L150.409 107.182L147 106.5L144.5 106V104Z"></path>
<path fill="#B4B4B4" d="M145.5 102L158 104.5L157 106.5L144.5 104L145.5 102Z"></path>
<path fill="#B4B4B4" d="M150.409 107.182L154.5 108V110L149.5 109L150.409 107.182Z"></path>
<path fill="#2E2E36" d="M158 104.5V110.5L157 112.5V106.5L158 104.5Z"></path>
<path fill="#545A5D" d="M152 107.5L162 109.5L163 107.5L158 106.5V104.5L153.909 103.682L154 103.5L166.5 106L163.5 112L151 109.5L152 107.5Z"></path>
<path fill="#2E2E36" d="M166.5 106V108L163.5 114V112L166.5 106Z"></path>
<path fill="#B4B4B4" d="M163.5 112V114L151 111.5V109.5L163.5 112Z"></path>
<path fill="#B4B4B4" d="M163 107.5L162.091 109.318L158 108.5V106.5L163 107.5Z"></path>
<path fill="#545A5D" d="M159.5 107L172 109.5V115.5L169.5 115V111L165.409 110.182L164.5 112L169.5 113V115L163.591 113.818L164.5 112L165.409 110.182L162 109.5L159.5 109V107Z"></path>
<path fill="#B4B4B4" d="M160.5 105L173 107.5L172 109.5L159.5 107L160.5 105Z"></path>
<path fill="#B4B4B4" d="M165.409 110.182L169.5 111V113L164.5 112L165.409 110.182Z"></path>
<path fill="#2E2E36" d="M173 107.5V113.5L172 115.5V109.5L173 107.5Z"></path>
</svg>
