<svg xmlns="http://www.w3.org/2000/svg" fill="none" viewBox="0 0 200 200" height="200" width="200">
<path fill="#928F96" d="M39 82.9972L109 96.997V108.997L39 94.9972V82.9972Z"></path>
<path fill="#93764A" d="M39 86.9972L44.0003 87.997V91.997L39 90.9972V86.9972Z"></path>
<path fill="#93764A" d="M104 99.9973L109 100.997V104.997L104 103.997V99.9973Z"></path>
<path fill="#407994" d="M39 62.9977L109 76.9975V96.997L39 82.9972V62.9977Z"></path>
<path fill="#6A8FAA" d="M44.0003 71.9978L59.0006 74.9977V82.9972L44.0003 79.9973V71.9978Z"></path>
<path fill="#6A8FAA" d="M64 75.9978L74.0003 77.9977V85.9972L64 83.9973V75.9978Z"></path>
<path fill="#6A8FAA" d="M79 78.9982L104 83.998V91.9975L79 86.9977V78.9982Z"></path>
<path fill="#254667" d="M109 76.9975L127 44.9977V60.9972L109 96.997V76.9975Z"></path>
<path fill="#3D5577" d="M111 80.9975L125 52.9977V60.9972L111 88.997V80.9975Z"></path>
<path fill="white" d="M56.9997 27L127 40.9999L109 76.9975L39 62.9977L56.9997 27Z"></path>
<path fill="#9497A8" d="M39 62.9977L109 76.9975V80.9975L39 66.9977V62.9977Z"></path>
<path fill="#545871" d="M109 76.9975L127 40.9999V44.9999L109 80.9975V76.9975Z"></path>
<path fill="#8A95CB" d="M109 96.997L114.001 97.997V101.997L109 100.997V96.997Z"></path>
<path fill="#8A95CB" d="M122.999 69L127.999 70V74L122.999 73.0001V69Z"></path>
<path fill="#F9FFFF" d="M113 88.9976L118 89.9976L114.001 97.997L109 96.997L113 88.9976Z"></path>
<path fill="#F9FFFF" d="M126.998 61.0005L131.999 62.0005L127.999 70L122.999 69L126.998 61.0005Z"></path>
<path fill="#4F598C" d="M114.001 97.997L118 89.9976L118 93.9981L114.001 101.997V97.997Z"></path>
<path fill="#4F598C" d="M127.999 70L131.999 62.0005V66.0005L127.999 74V70Z"></path>
<path fill="#565469" d="M113 88.9976L122.999 69V73.0001L114.818 89.3612L113 88.9976Z"></path>
<path fill="#494874" d="M116 97.9973L129.999 70.0003V73.5999V78.0003L127.999 81.9989V77.9996L125.999 81.9989V85.9982L124 89.9976V85.9982L122 89.9976V93.9976L120 97.997V93.9976L118 97.9973L118 102L116 105.997V97.9973Z"></path>
<path fill="#E4DDFF" d="M122.999 73.0001L127.999 74L118 93.9981V90L114.818 89.3612L122.999 73.0001Z"></path>
<path fill="#7E7BA6" d="M111 101.397L114 102L116 97.9973V105.997L111 104.997V101.397Z"></path>
<path fill="#7E7BA6" d="M118.182 97.6335L120 93.9976V97.997L118.182 97.6335Z"></path>
<path fill="#7E7BA6" d="M122.182 89.6342L124 85.9982V89.9976L122.182 89.6342Z"></path>
<path fill="#7E7BA6" d="M126.181 81.6356L127.999 77.9996V81.9989L126.181 81.6356Z"></path>
<path fill="#57462C" d="M109 100.997L110.818 101.361L109 104.997V100.997Z"></path>
<path fill="#565469" d="M109 104.997L110.818 101.361L111 101.397V104.997L109 108.997V104.997Z"></path>
<path fill="#C0ABCA" d="M111 104.997L116 105.997L114.001 109.997L109 108.997L111 104.997Z"></path>
<path fill="#C0ABCA" d="M118.182 97.6335L120 98.0003L118 102L118 97.9973L118.182 97.6335Z"></path>
<path fill="#C0ABCA" d="M122.182 89.6342L124 90.0009L122 94.0007L122 89.9976L122.182 89.6342Z"></path>
<path fill="#C0ABCA" d="M126.181 81.6356L127.999 82.0023L125.999 86.002L125.999 81.9989L126.181 81.6356Z"></path>
<path fill="#6B6080" d="M34 93.997L114.001 109.997V113.997L34 97.997V93.997Z"></path>
<path fill="#C0ABCA" d="M129.999 73.5999L131.999 74.0005L129.999 78.0003V73.5999Z"></path>
<path fill="#3E3758" d="M114.001 109.997L131.999 74.0005V78.0005L114.001 113.997V109.997Z"></path>
<path fill="#C0ABCA" d="M35.999 89.9975L39 90.5976V94.9972L34 93.997L35.999 89.9975Z"></path>
<path fill="#8A95CB" d="M35.997 85.9974L39 86.5976V90.5976L35.997 89.9975V85.9974Z"></path>
<path fill="#F9FFFF" d="M39 82.2006V86.5976L35.997 85.9974L37.9971 82L39 82.2006Z"></path>
<path fill="#7D7AA5" d="M49.0005 100.997L54.0005 101.997V105.997L49.0005 104.997V100.997Z"></path>
<path fill="#2F283A" d="M44.0003 99.9971L49.0005 100.997V104.997L54.0005 105.997V101.997L59.0005 102.997V110.997L44.0005 107.997L44.0003 99.9971Z"></path>
<path fill="#1A1728" d="M59.0005 102.997L62.6368 103.724L59.0005 110.997V102.997Z"></path>
<path fill="#7D7AA5" d="M94.0006 105.997V113.997L89.0006 112.997V108.997L94.0006 109.997V105.997Z"></path>
<path fill="#2F283A" d="M84.0004 103.997L94.0006 105.997V109.997L89.0006 108.997V112.997L94.0006 113.997V105.997L99.0006 106.997V118.997L84.0006 115.997L84.0004 103.997Z"></path>
<path fill="#1A1728" d="M99.0006 106.997V110.997L102.637 111.724L99.0006 118.997V106.997Z"></path>
<path fill="#9497A8" d="M86 63.9956L101 66.9956V70.9956L86 67.9957V63.9956Z"></path>
<path fill="#F9FFFF" d="M87.9999 59.9958L103 62.9958L101 66.9956L86 63.9956L87.9999 59.9958Z"></path>
<path fill="#555972" d="M101 66.9956L103 62.9958L103 66.9964L101 70.9956V66.9956Z"></path>
<path fill="#9497A8" d="M98 39.9997L113 42.9997V46.9997L98 43.9998V39.9997Z"></path>
<path fill="#F9FFFF" d="M99.9999 36L115 39L113 42.9997L98 39.9997L99.9999 36Z"></path>
<path fill="#555972" d="M113 42.9997L115 39L115 43.0005L113 46.9997V42.9997Z"></path>
</svg>
