<svg xmlns="http://www.w3.org/2000/svg" fill="none" viewBox="0 0 480 360" height="360" width="480">
<path stroke-width="2" stroke="white" fill="#56C6F8" d="M87.0667 78.1H88.0667V77.1V76H391.933V77.1V78.1H392.933H394V281.9H392.933H391.933V282.9V284H88.0667V282.9V281.9H87.0667H86V78.1H87.0667Z"></path>
<path stroke-width="2" stroke="white" fill="#56C6F8" d="M141 242H142V241V240H338V241V242H339H340V248H339H338V249V250H142V249V248H141H140V242H141Z"></path>
<path fill="white" d="M262 99V97H264H266V103H270V97H274V105H272V107H270V113H266V107H264V105H262V99Z"></path>
<path fill="white" d="M248 99H250V97H258V99H260V113H256V101H252V103H256V107H252V109V113H250H248V111V99Z"></path>
<path fill="white" d="M220 99H222V97H232V101H224V103H228V107H224V109H232V113H222V111H220V99Z"></path>
<path fill="white" d="M206 99V97H208H216V99H218V101H214H210V109H214V101H218V111H216V113H208H206V111V99Z"></path>
<path fill="white" d="M234 99V97H236H238V101V109H246V113H236V111H234V101V99Z"></path>
<path fill="white" d="M342 174H349.5V175.5H351V180H349.5V181.5H351V186H348V183H346.5V181.5H345V178.5H348V177H345V178.5V181.5V186H342V174Z"></path>
<path fill="white" d="M162 175.5H163.5V174H171V177H165V178.5H168V181.5H165V183H171V186H163.5V184.5H162V175.5Z"></path>
<path fill="white" d="M193.5 175.5H195V174H202.5V177H196.5V178.5H199.5V181.5H196.5V183H202.5V186H195V184.5H193.5V175.5Z"></path>
<path fill="white" d="M268.5 175.5H270V174H277.5V177H271.5V178.5H274.5V181.5H271.5V183H277.5V186H270V184.5H268.5V175.5Z"></path>
<path fill="white" d="M226.5 175.5H228V174H235.5V177H229.5V178.5H232.5V181.5H229.5V183H235.5V186H228V184.5H226.5V175.5Z"></path>
<path fill="white" d="M237 175.5H238.5V174H246V177H240V178.5H243V181.5H240V183H246V186H238.5V184.5H237V175.5Z"></path>
<path fill="white" d="M279 175.5H280.5V174H286.5V175.5H288V186H285V177H282V178.5H285V181.5H282V183V186H280.5H279V184.5V175.5Z"></path>
<path fill="white" d="M331.5 175.5H333V174H339V175.5H340.5V186H337.5V177H334.5V178.5H337.5V181.5H334.5V183V186H333H331.5V184.5V175.5Z"></path>
<path fill="white" d="M150 174H153V175.5H154.5V177H156V175.5H157.5V174H160.5V186H157.5V180H156V181.5H154.5V180H153V186H150V174Z"></path>
<path fill="white" d="M247.5 174H250.5V175.5H252V177H253.5V174H256.5V186H253.5V181.5H252V180H250.5V186H247.5V174Z"></path>
<path fill="white" d="M289.5 175.5H291V174H298.5V177H292.5V178.5V181.5V183H298.5V186H291V184.5H289.5V175.5Z"></path>
<path fill="white" d="M321 175.5H322.5V174H330V177H324V178.5V181.5V183H330V186H322.5V184.5H321V175.5Z"></path>
<path fill="white" d="M139.5 175.5V174H141H148.5V177H145.5V183H148.5V186H139.5V183H142.5V177H139.5V175.5Z"></path>
<path fill="white" d="M129 175.5V174H130.5H138V177H135V183V186H132V183V177H129V175.5Z"></path>
<path fill="white" d="M204 175.5V174H205.5H213V177H210V183V186H207V183V177H204V175.5Z"></path>
<path fill="white" d="M225 186L222 186L222 184.5L220.5 184.5L220.5 183L219 183L219 184.5L217.5 184.5L217.5 186L214.5 186L214.5 174L217.5 174L217.5 180L219 180L219 178.5L220.5 178.5L220.5 180L222 180L222 174L225 174L225 186Z"></path>
<path fill="white" d="M183 174H190.5V175.5H192V178.5H190.5V181.5H192V184.5H190.5V186H186V183H189V181.5H187.5H186V178.5H189V177H186V178.5V181.5V186H183V174Z"></path>
<path fill="white" d="M307.5 174L309 174L309 175.5L309 186L306 186L306 181.5L303 181.5L303 186L300 186L300 174L303 174L303 178.5L306 178.5L306 174L307.5 174Z"></path>
<path fill="white" d="M112 242H113V241H117V242H118V243H116H114V247H116V243H118V248H117V249H113V248H112V242Z"></path>
<path fill="white" d="M122 246V241H127V243H124V244H126V245H127L127 248H126V249H122V247H125V246H122Z"></path>
<rect fill="white" height="2" width="2" y="247" x="119"></rect>
<path fill="white" d="M357 241H359V249H357V241Z"></path>
<path fill="white" d="M360 242H361V241H365V242H366V243H364H362V247H364V243H366V248H365V249H361V248H360V242Z"></path>
<path fill="white" d="M105 101H107V97H111V95H114V106H120V104H116V97H114V95H116H119V97H123V101H125V109H123V113H119V115H111V113H107V109H105V101Z"></path>
</svg>
