<svg xmlns="http://www.w3.org/2000/svg" fill="none" viewBox="0 0 400 400" height="400" width="400">
<path fill="#8E7638" d="M176 191L190 163L265 178V190L251 218L176 203V191Z"></path>
<path fill="#92813C" d="M176 191L251 206V214L211 206L214 206.6V203L204 201V204.6L211 206L176 199V191Z"></path>
<path fill="#55588F" d="M243 188L253 168V180L251 184V176L245 188V196L243 200V188Z"></path>
<path fill="#F9FFFF" d="M213 160L253 168L243 188L203 180L213 160Z"></path>
<path fill="#000100" d="M245 188L251 176V184L245 196V188Z"></path>
<path fill="#000100" d="M228 197V189L208 185V193L228 197Z"></path>
<path fill="#000100" d="M231 210L246 213V221H248L246 225L231 222V210Z"></path>
<path fill="#000100" d="M186 201L201 204V212H203L201 216L186 213V201Z"></path>
<path fill="#181319" d="M238 199V191L233 190V198L238 199Z"></path>
<path fill="#4B4575" d="M176 203L186 205V209L176 207V203Z"></path>
<path fill="#4B4575" d="M201 208L231 214V218L201 212V208Z"></path>
<path fill="#4B4575" d="M246 217L251 218V222L246 221V217Z"></path>
<path fill="#524525" d="M255 206L261 194L265 186V190L251 218V214L255 206Z"></path>
<path fill="#524525" d="M255 198L261 186V194L255 206V198Z"></path>
<path fill="#544C28" d="M255 198V202V206L253 210L251 214V206L255 198Z"></path>
<path fill="#544C28" d="M265 178V186L263 190L261 194V190V186L265 178Z"></path>
<path fill="#504525" d="M214 203L216 199V203L214 207V203Z"></path>
<path fill="#2D294E" d="M251 218L265 190V194L251 222V218Z"></path>
<path fill="#FFE75F" d="M253 175.6L265 178L251 206L241 204L253 180V175.6Z"></path>
<path fill="#FFE75F" d="M200 187L203 181V192L243 200L241 204L176 191L180 183L200 187Z"></path>
<path fill="#FFE75F" d="M209.545 166.909L206.5 173L205.545 174.909L186 171L190 163L209.545 166.909Z"></path>
<path fill="#FFD358" d="M251 184L261 186L255 198L245 196L251 184Z"></path>
<path fill="#FFD358" d="M186 171L205.545 174.909L203 180L205 188L180 183L186 171Z"></path>
<path fill="#FFD358" d="M206 197L216 199L214 203L204 201L206 197Z"></path>
<path fill="#879DD4" d="M191 206L196 207V211L191 210V206Z"></path>
<path fill="#879DD4" d="M236 215L241 216V220L236 219V215Z"></path>
<path fill="#8C95CE" d="M203 180L243 188V200L238 199V191L233 190V198L228 197V189L208 185V193L203 192V180Z"></path>
<path fill="#713E43" d="M241 212V208L221 204V208L241 212Z"></path>
<path fill="#FFD358" d="M236 165L241 166L235 178L230 177L236 165Z"></path>
<path fill="#FFE75F" d="M236 165L230 177L225 176L231 164L236 165Z"></path>
<path fill="#8E7638" d="M230 177L235 178V182L230 181V177Z"></path>
<path fill="#92813C" d="M225 176L230 177V181L225 180V176Z"></path>
<path fill="#544C28" d="M241 166V170L235 182V178L241 166Z"></path>
</svg>
