<svg xmlns="http://www.w3.org/2000/svg" fill="none" viewBox="0 0 400 300" height="300" width="400">
<path fill="#A0A0A0" d="M183.336 119.941L185.003 120.278V118.931L190.003 119.941V121.288L200.003 123.309V121.962L205.003 122.972V124.319L206.67 124.656V126.003L208.336 126.34V127.687L210.003 128.024V154.965L208.336 154.629V155.976L198.336 153.955V152.608L191.67 151.261V152.608L181.67 150.587V149.24L180.003 148.904V121.962L181.67 122.299V120.952L183.336 121.288V119.941Z"></path>
<path fill="#535353" d="M211.336 125.33V149.577V152.269L210.003 154.965V128.024L211.336 125.33Z"></path>
<path fill="#535353" d="M209.67 123.646V124.993L208.336 127.687V126.34L209.67 123.646Z"></path>
<path fill="#535353" d="M208.003 121.962V123.309L206.67 126.003V124.656L208.003 121.962Z"></path>
<path fill="#535353" d="M206.336 120.278V121.625L205.003 124.319V122.972L206.336 120.278Z"></path>
<path fill="#535353" d="M191.336 117.247V118.594L190.003 121.288V119.941L191.336 117.247Z"></path>
<path fill="#535353" d="M192.276 151.383L191.67 152.608V151.261L192.276 151.383Z"></path>
<path fill="#535353" d="M208.942 154.751L208.336 155.976V154.629L208.942 154.751Z"></path>
<path fill="#D9D9D9" d="M186.336 116.237L191.336 117.247L190.003 119.941L185.003 118.931L186.336 116.237Z"></path>
<path fill="#D9D9D9" d="M201.336 119.268L206.336 120.278L205.003 122.972L200.003 121.962L201.336 119.268Z"></path>
<path fill="#D9D9D9" d="M191.336 118.594L200.73 120.492L200.003 121.962V123.309L190.003 121.288L191.336 118.594Z"></path>
<path fill="#D9D9D9" d="M184.669 117.247L185.73 117.461L185.003 118.931V120.278L183.336 119.941L184.669 117.247Z"></path>
<path fill="#D9D9D9" d="M183.003 118.258L184.063 118.472L183.336 119.941V121.288L181.67 120.952L183.003 118.258Z"></path>
<path fill="#D9D9D9" d="M181.336 119.268L182.397 119.482L181.67 120.952V122.299L180.003 121.962L181.336 119.268Z"></path>
<path fill="#D9D9D9" d="M206.336 121.625L208.003 121.962L206.67 124.656L205.003 124.319L206.336 121.625Z"></path>
<path fill="#D9D9D9" d="M208.003 123.309L209.67 123.646L208.336 126.34L206.67 126.003L208.003 123.309Z"></path>
<path fill="#D9D9D9" d="M209.67 124.993L211.336 125.33L210.003 128.024L208.336 127.687L209.67 124.993Z"></path>
<path fill="#BBBBBB" d="M184.669 111.859L186.336 112.196V116.237L185.73 117.461L184.669 117.247L184.063 118.472L183.003 118.258L182.397 119.482L181.336 119.268V117.921L179.669 117.584V116.237L178.003 115.9V109.165L184.669 110.512L184.669 111.859Z"></path>
<path fill="#535353" d="M194.336 96.031V100.072L188.003 112.87L186.336 116.237V112.196L194.336 96.031Z"></path>
<path fill="#535353" d="M192.669 94.3471L192.67 95.6915L184.669 111.856L184.669 110.512L192.669 94.3471Z"></path>
<path fill="#D9D9D9" d="M186 93L192.669 94.3471L184.669 110.512L178.003 109.165L186 93Z"></path>
<path fill="#D9D9D9" d="M192.67 95.6943L194.336 96.031L186.336 112.196L184.669 111.859L192.67 95.6943Z"></path>
<path fill="#BBBBBB" d="M208.003 115.224L214.67 116.571V123.306L213.003 122.969V124.319L211.336 123.98L211.336 125.33L209.669 124.99V123.643L208.003 123.306V121.959L206.336 121.623L206.336 116.237L208.003 116.571V115.224Z"></path>
<path fill="#D9D9D9" d="M216.003 99.0589L222.667 100.409L214.67 116.571L208.003 115.224L216.003 99.0589Z"></path>
<path fill="#D9D9D9" d="M214.336 100.069L215.397 100.284L208.003 115.224V116.571L206.336 116.237L214.336 100.069Z"></path>
<path fill="#535353" d="M222.667 100.409V107.144L214.67 123.306V116.571L222.667 100.409Z"></path>
<path fill="#535353" d="M213.609 123.092L213.003 124.316V122.969L213.609 123.092Z"></path>
<path fill="#535353" d="M211.942 124.102L211.336 125.327V123.98L211.942 124.102Z"></path>
<path fill="#BBBBBB" d="M194.67 112.533V117.921L198.003 118.592V113.203L204.669 114.55V119.941L201.336 119.268L200.73 120.492L191.336 118.594V117.247L188.003 116.574V111.186L194.67 112.533Z"></path>
<path fill="#D9D9D9" d="M206.003 97.0383L212.669 98.3854L204.669 114.55L198.003 113.203L206.003 97.0383Z"></path>
<path fill="#D9D9D9" d="M196.003 95.0178L202.669 96.3649L194.67 112.533L188.003 111.186L196.003 95.0178Z"></path>
<path fill="#535353" d="M202.669 96.3649L202.67 101.756L194.67 117.921L194.669 112.53L202.669 96.3649Z"></path>
<path fill="#535353" d="M212.669 98.3854L212.67 103.776L204.669 119.941V114.55L212.669 98.3854Z"></path>
<path fill="#D9D9D9" d="M202.67 101.756L203.577 101.939L198.003 113.203V118.592L194.67 117.921L202.67 101.756Z"></path>
<path fill="#D9D9D9" d="M188.003 112.87V116.574L186.336 116.237L188.003 112.87Z"></path>
<path fill="#D9D9D9" d="M212.67 103.776L206.336 116.237L206.336 120.278L204.669 119.941L212.67 103.776Z"></path>
<path fill="#BBBBBB" d="M214.67 144.862V148.904L213.003 148.567V149.914L211.336 149.577V142.842L213.003 143.179V144.526L214.67 144.862Z"></path>
<path fill="#D9D9D9" d="M212.67 140.148L214.336 140.484L213.003 143.179L211.336 142.842L212.67 140.148Z"></path>
<path fill="#D9D9D9" d="M221.003 128.361L222.667 128.698L214.67 144.862L213.003 144.526L221.003 128.361Z"></path>
<path fill="#535353" d="M213.609 148.69L213.003 149.914V148.567L213.609 148.69Z"></path>
<path fill="#535353" d="M222.667 128.698V132.739L214.67 148.904V144.862L222.667 128.698Z"></path>
<path fill="#535353" d="M214.336 140.484L214.67 140.822L221.003 128.024V128.361L213.003 144.526V143.179L214.336 140.484Z"></path>
<path fill="#BBBBBB" d="M214.67 127.35V131.392L213.003 131.055V132.402L211.336 132.065V125.33L213.003 125.666V127.014L214.67 127.35Z"></path>
<path fill="#D9D9D9" d="M211.942 124.102L213.003 124.319L213.609 123.092L214.216 123.215L213.003 125.666L211.336 125.33L211.942 124.102Z"></path>
<path fill="#D9D9D9" d="M221.003 110.849L222.667 111.186L214.67 127.35L213.003 127.014L221.003 110.849Z"></path>
<path fill="#535353" d="M213.609 131.177L213.003 132.402V131.055L213.609 131.177Z"></path>
<path fill="#535353" d="M222.667 111.186V115.227L214.67 131.392V127.35L222.667 111.186Z"></path>
<path fill="#535353" d="M214.336 123.239L214.67 123.306L221.003 110.509V110.849L213.003 127.014V125.666L214.216 123.215L214.336 123.239Z"></path>
<path fill="#BBBBBB" d="M214.67 135.433V140.822L213.003 140.485V141.832L211.336 141.495V133.413L213.003 133.749V135.097L214.67 135.433Z"></path>
<path fill="#D9D9D9" d="M211.942 132.187L213.003 132.402L213.609 131.177L214.215 131.3L213.003 133.749L211.336 133.413L211.942 132.187Z"></path>
<path fill="#D9D9D9" d="M221.003 118.932L222.667 119.268L214.67 135.433L213.003 135.097L221.003 118.932Z"></path>
<path fill="#535353" d="M213.609 140.607L213.003 141.832V140.485L213.609 140.607Z"></path>
<path fill="#535353" d="M222.667 119.268V124.656L214.67 140.822V135.433L222.667 119.268Z"></path>
<path fill="#535353" d="M214.215 131.3L214.336 131.324L214.67 131.392L221.003 118.594V118.932L213.003 135.097V133.749L214.215 131.3Z"></path>
<path fill="#535353" d="M211.942 132.187L211.336 133.413V132.065L211.942 132.187Z"></path>
<path fill="#535353" d="M211.942 141.617L211.336 142.842V141.495L211.942 141.617Z"></path>
<path fill="#BBBBBB" d="M181.335 119.268L180.003 121.962V125.731L179.668 125.663V124.316L178.002 123.979L178.002 119.939L179.668 120.276V118.928L181.335 119.268Z"></path>
<path fill="#D9D9D9" d="M180.273 117.706L181.336 117.921L181.335 119.265L179.668 118.928L180.273 117.706Z"></path>
<path fill="#D9D9D9" d="M179.669 116.574L179.664 117.581L180.273 117.706L179.668 118.928V120.276L178.002 119.939L179.669 116.574Z"></path>
<path fill="#BBBBBB" d="M180.003 127.079V135.16L179.664 135.093L179.669 133.746L178.002 133.409L178.002 128.021L179.668 128.358V127.011L180.003 127.079Z"></path>
<path fill="#D9D9D9" d="M180.003 126.335V127.079L179.668 127.011L180.003 126.335Z"></path>
<path fill="#D9D9D9" d="M179.668 124.656L179.664 125.664L180.003 125.731V126.335L179.668 127.011V128.358L178.002 128.021L179.668 124.656Z"></path>
<path fill="#BBBBBB" d="M180.003 136.508V143.243L179.668 143.175V141.828L178.002 141.491L178.002 137.451L179.668 137.788V136.44L180.003 136.508Z"></path>
<path fill="#D9D9D9" d="M180.003 135.764V136.508L179.668 136.44L180.003 135.764Z"></path>
<path fill="#D9D9D9" d="M179.667 134.086L179.664 135.093L180.003 135.16V135.764L179.668 136.44V137.788L178.002 137.451L179.667 134.086Z"></path>
<path fill="#BBBBBB" d="M214.67 152.944V156.985L214.667 158.333L207.998 156.983V155.907L208.336 155.976L208.942 154.751L210.003 154.965L211.336 152.269V150.923L213.003 151.26V152.607L214.67 152.944Z"></path>
<path fill="#D9D9D9" d="M211.942 149.7L213.003 149.914L213.609 148.69L214.215 148.812L213.003 151.261L211.336 150.925L211.942 149.7Z"></path>
<path fill="#535353" d="M211.942 149.698L211.336 150.923V149.577L211.942 149.698Z"></path>
<path fill="#D9D9D9" d="M221.003 136.442L222.667 136.78L214.67 152.944L213.003 152.607L221.003 136.442Z"></path>
<path fill="#535353" d="M214.215 148.812L214.336 148.837L214.67 148.904L221.003 136.107V136.442L213.003 152.609V151.261L214.215 148.812Z"></path>
<path fill="#535353" d="M222.667 136.78V142.168L214.667 158.333L214.67 152.944L222.667 136.78Z"></path>
<path fill="#BBBBBB" d="M204.67 155.235V156.312L198.003 154.965V152.541L198.336 152.608V153.955L204.67 155.235Z"></path>
<path fill="#535353" d="M205.154 155.333L204.67 156.312V155.235L205.154 155.333Z"></path>
<path fill="#BBBBBB" d="M194.669 151.867V154.291L188.003 152.944V151.867L191.67 152.608L192.276 151.383L194.669 151.867Z"></path>
<path fill="#BBBBBB" d="M184.669 151.194V152.271L178.003 150.923V145.533L179.664 145.87V144.523L180.003 144.591V148.904L181.67 149.24V150.587L184.669 151.194Z"></path>
<path fill="#D9D9D9" d="M179.668 142.168L179.663 143.176L180.001 143.243L180.003 144.591L179.667 144.523L179.667 145.87L178 145.533L179.668 142.168Z"></path>
<path fill="#535353" d="M185.154 151.291L184.669 152.271V151.194L185.154 151.291Z"></path>
<path fill="#535353" d="M195.757 152.087L194.669 154.291V151.867L195.757 152.087Z"></path>
<path fill="#D9D9D9" d="M212.669 100.814L213.849 101.053L206.336 116.237L212.67 103.776L212.669 100.814Z"></path>
<path fill="#D9D9D9" d="M202.67 101.756L202.669 100.14L204.304 100.47L203.577 101.939L202.67 101.756Z"></path>
<path fill="#A0A0A0" d="M33.3362 89.9413L35.0028 90.2781V88.931L40.0028 89.9413V91.2884L50.0029 93.309V91.962L55.0029 92.9723V94.3194L56.6695 94.6561V96.0032L58.3362 96.34V97.6871L60.0029 98.0238V124.965L58.3362 124.629V125.976L48.3362 123.955V122.608L41.6695 121.261V122.608L31.6695 120.587V119.24L30.0028 118.904V91.962L31.6695 92.2987V90.9517L33.3362 91.2884V89.9413Z"></path>
<path fill="#535353" d="M61.3362 95.3297V119.577V122.269L60.0029 124.965V98.0238L61.3362 95.3297Z"></path>
<path fill="#535353" d="M59.6695 93.6458V94.9929L58.3362 97.6871V96.34L59.6695 93.6458Z"></path>
<path fill="#535353" d="M58.0029 91.962V93.309L56.6695 96.0032V94.6561L58.0029 91.962Z"></path>
<path fill="#535353" d="M56.3362 90.2781V91.6252L55.0029 94.3194V92.9723L56.3362 90.2781Z"></path>
<path fill="#535353" d="M41.3362 87.2472V88.5943L40.0028 91.2884V89.9413L41.3362 87.2472Z"></path>
<path fill="#535353" d="M42.2756 121.383L41.6695 122.608V121.261L42.2756 121.383Z"></path>
<path fill="#535353" d="M58.9422 124.751L58.3362 125.976V124.629L58.9422 124.751Z"></path>
<path fill="#D9D9D9" d="M36.3362 86.2369L41.3362 87.2472L40.0028 89.9413L35.0028 88.931L36.3362 86.2369Z"></path>
<path fill="#D9D9D9" d="M51.3362 89.2678L56.3362 90.2781L55.0029 92.9723L50.0029 91.962L51.3362 89.2678Z"></path>
<path fill="#D9D9D9" d="M41.3362 88.5943L50.7301 90.4924L50.0029 91.962V93.309L40.0028 91.2884L41.3362 88.5943Z"></path>
<path fill="#D9D9D9" d="M34.6694 87.2472L35.7299 87.4613L35.0028 88.931V90.2781L33.3362 89.9413L34.6694 87.2472Z"></path>
<path fill="#D9D9D9" d="M33.0028 88.2575L34.0632 88.4716L33.3362 89.9413V91.2884L31.6695 90.9517L33.0028 88.2575Z"></path>
<path fill="#D9D9D9" d="M31.3361 89.2678L32.3965 89.4819L31.6695 90.9517V92.2987L30.0028 91.962L31.3361 89.2678Z"></path>
<path fill="#D9D9D9" d="M56.3362 91.6252L58.0029 91.962L56.6695 94.6561L55.0029 94.3194L56.3362 91.6252Z"></path>
<path fill="#D9D9D9" d="M58.0029 93.309L59.6695 93.6458L58.3362 96.34L56.6695 96.0032L58.0029 93.309Z"></path>
<path fill="#D9D9D9" d="M59.6695 94.9929L61.3362 95.3297L60.0029 98.0238L58.3362 97.6871L59.6695 94.9929Z"></path>
<path fill="black" d="M36.6702 98.6974L41.6692 99.7075V101.055L43.3358 101.391V102.738L46.6692 103.412V102.065L48.3369 102.402V101.055L53.3369 102.065V107.453L51.6692 107.116V108.464L46.6692 107.453V106.106L43.3358 105.433L43.3369 106.78L38.3358 105.769V104.422L36.6702 104.086V98.6974Z"></path>
<path fill="#E4E4E4" d="M40.0025 103.412L43.3358 104.086L43.3369 106.78L40.0036 106.106L40.0025 103.412Z"></path>
<path fill="#E4E4E4" d="M46.6681 104.759L50.0015 105.433L50.0025 108.127L46.6692 107.453L46.6681 104.759Z"></path>
<path fill="black" d="M53.3359 100.718L55.0025 101.055L55.0036 102.402L53.3369 102.065L53.3359 100.718Z"></path>
<path fill="black" d="M35.0025 97.0135L36.6692 97.3503L36.6702 98.6974L35.0036 98.3606L35.0025 97.0135Z"></path>
<path fill="black" d="M36.6692 106.78L41.6692 107.79V109.137L48.3369 110.484V109.137L53.3359 110.147V111.494L55.0036 111.831V118.567L53.3359 118.23V119.577L50.0025 118.904V117.556L40.0036 115.536L40.0046 116.883L36.6692 116.209V114.862L35.0036 114.526V107.79L36.6692 108.127V106.78Z"></path>
<path fill="#E4E4E4" d="M36.6692 108.127L40.0025 108.8L40.0036 110.147L36.6692 109.474V108.127Z"></path>
<path fill="#E4E4E4" d="M36.6692 113.515L40.0025 114.189L40.0036 115.536L36.6692 114.862V113.515Z"></path>
<path fill="#E4E4E4" d="M50.0015 116.209L53.3348 116.883L53.3359 118.23L50.0015 117.556V116.209Z"></path>
<path fill="#E4E4E4" d="M50.0025 110.821L53.3359 111.494L53.3369 112.842L50.0025 112.168V110.821Z"></path>
<path fill="#E4E4E4" d="M41.6695 113.178L45.0028 113.852L45.0039 115.199L41.6695 114.526V113.178Z"></path>
<path fill="#E4E4E4" d="M46.667 114.189L50.0004 114.862L50.0015 116.209L46.667 115.536V114.189Z"></path>
<path fill="#E4E4E4" d="M41.6692 110.484L45.0025 111.158L45.0036 112.505L41.6692 111.831V110.484Z"></path>
<path fill="#E4E4E4" d="M46.6702 111.494L48.3369 111.831L48.338 113.178L46.6702 112.842V111.494Z"></path>
<path fill="#BBBBBB" d="M34.6695 81.8592L36.3362 82.196V86.2369L35.7299 87.4613L34.6694 87.2472L34.0632 88.4716L33.0028 88.2575L32.3965 89.4819L31.3361 89.2678V87.9207L29.6692 87.5843V86.2372L28.0028 85.9004V79.1651L34.6694 80.5122L34.6695 81.8592Z"></path>
<path fill="#535353" d="M44.3362 66.031V70.0719L38.0025 82.8698L36.3362 86.2369V82.196L44.3362 66.031Z"></path>
<path fill="#535353" d="M42.6694 64.3471L42.6695 65.6915L34.6695 81.8564L34.6694 80.5122L42.6694 64.3471Z"></path>
<path fill="#D9D9D9" d="M36 63L42.6694 64.3471L34.6694 80.5122L28.0028 79.1651L36 63Z"></path>
<path fill="#D9D9D9" d="M42.6695 65.6943L44.3362 66.031L36.3362 82.196L34.6695 81.8592L42.6695 65.6943Z"></path>
<path fill="#BBBBBB" d="M58.0029 85.224L64.6695 86.5711V93.3065L63.0028 92.9694V94.3194L61.3361 93.9797L61.3362 95.3297L59.6694 94.99V93.6429L58.0025 93.3065V91.9594L56.3362 91.6225L56.3355 86.2371L58.0029 86.5711V85.224Z"></path>
<path fill="#D9D9D9" d="M66.0029 69.0589L72.6667 70.4089L64.6695 86.5711L58.0029 85.224L66.0029 69.0589Z"></path>
<path fill="#D9D9D9" d="M64.3361 70.0694L65.3965 70.2835L58.0029 85.224V86.5711L56.3355 86.2371L64.3361 70.0694Z"></path>
<path fill="#535353" d="M72.6667 70.4089V77.1443L64.6695 93.3065V86.5711L72.6667 70.4089Z"></path>
<path fill="#535353" d="M63.6088 93.0918L63.0028 94.3164V92.9694L63.6088 93.0918Z"></path>
<path fill="#535353" d="M61.9422 94.1021L61.3361 95.3267V93.9797L61.9422 94.1021Z"></path>
<path fill="#BBBBBB" d="M44.6695 82.5327V87.9207L48.0025 88.5917V83.2034L54.6692 84.5505V89.9413L51.3362 89.2678L50.7301 90.4924L41.3362 88.5943V87.2472L38.0025 86.5736V81.1856L44.6695 82.5327Z"></path>
<path fill="#D9D9D9" d="M56.0026 67.0383L62.6692 68.3854L54.6692 84.5505L48.0025 83.2034L56.0026 67.0383Z"></path>
<path fill="#D9D9D9" d="M46.0025 65.0178L52.6692 66.3649L44.6695 82.5327L38.0025 81.1856L46.0025 65.0178Z"></path>
<path fill="#535353" d="M52.6692 66.3649L52.6695 71.7558L44.6695 87.9207L44.6692 82.5299L52.6692 66.3649Z"></path>
<path fill="#535353" d="M62.6692 68.3854L62.6695 73.7763L54.6692 89.9413V84.5505L62.6692 68.3854Z"></path>
<path fill="#D9D9D9" d="M52.6695 71.7558L53.5772 71.9391L48.0025 83.2034V88.5917L44.6695 87.9207L52.6695 71.7558Z"></path>
<path fill="#D9D9D9" d="M38.0025 82.8698V86.5736L36.3362 86.2369L38.0025 82.8698Z"></path>
<path fill="#D9D9D9" d="M62.6695 73.7763L56.3355 86.2371V90.278L54.6692 89.9413L62.6695 73.7763Z"></path>
<path fill="#BBBBBB" d="M64.6695 114.862V118.904L63.0029 118.567V119.914L61.3362 119.577V112.842L63.0029 113.179V114.526L64.6695 114.862Z"></path>
<path fill="#D9D9D9" d="M62.6695 110.148L64.3362 110.484L63.0029 113.179L61.3362 112.842L62.6695 110.148Z"></path>
<path fill="#D9D9D9" d="M71.0028 98.361L72.6667 98.6976L64.6695 114.862L63.0029 114.526L71.0028 98.361Z"></path>
<path fill="#535353" d="M63.6089 118.69L63.0029 119.914V118.567L63.6089 118.69Z"></path>
<path fill="#535353" d="M72.6667 98.6976V102.739L64.6695 118.904V114.863L72.6667 98.6976Z"></path>
<path fill="#535353" d="M64.3362 110.484L64.6695 110.822L71.0028 98.0244V98.361L63.0029 114.526V113.179L64.3362 110.484Z"></path>
<path fill="#BBBBBB" d="M64.6695 97.3503V101.392L63.0029 101.055V102.402L61.3362 102.065V95.3297L63.0029 95.6663V97.0137L64.6695 97.3503Z"></path>
<path fill="#D9D9D9" d="M61.9422 94.1021L63.0028 94.3194L63.6088 93.0918L64.2161 93.2148L63.0029 95.6663L61.3362 95.3297L61.9422 94.1021Z"></path>
<path fill="#D9D9D9" d="M71.0028 80.8488L72.6667 81.1856L64.6695 97.3503L63.0029 97.0137L71.0028 80.8488Z"></path>
<path fill="#535353" d="M63.6089 101.177L63.0029 102.402V101.055L63.6089 101.177Z"></path>
<path fill="#535353" d="M72.6667 81.1856V85.2268L64.6695 101.392V97.3506L72.6667 81.1856Z"></path>
<path fill="#535353" d="M64.3362 93.2391L64.6695 93.3065L71.0028 80.5092V80.8488L63.0029 97.0137V95.6663L64.2161 93.2148L64.3362 93.2391Z"></path>
<path fill="#BBBBBB" d="M64.6695 105.433V110.822L63.0029 110.485V111.832L61.3362 111.495V103.413L63.0029 103.749V105.097L64.6695 105.433Z"></path>
<path fill="#D9D9D9" d="M61.9425 102.187L63.0029 102.402L63.6089 101.177L64.2151 101.3L63.0029 103.749L61.3362 103.413L61.9425 102.187Z"></path>
<path fill="#D9D9D9" d="M71.0028 88.9317L72.6667 89.268L64.6695 105.433L63.0029 105.097L71.0028 88.9317Z"></path>
<path fill="#535353" d="M63.6089 110.607L63.0029 111.832V110.485L63.6089 110.607Z"></path>
<path fill="#535353" d="M72.6667 89.268V94.6564L64.6695 110.822V105.433L72.6667 89.268Z"></path>
<path fill="#535353" d="M64.2151 101.3L64.3362 101.324L64.6695 101.392L71.0028 88.5944V88.9317L63.0029 105.097V103.749L64.2151 101.3Z"></path>
<path fill="#535353" d="M61.9422 102.188L61.3362 103.413V102.066L61.9422 102.188Z"></path>
<path fill="#535353" d="M61.9422 111.617L61.3362 112.842V111.495L61.9422 111.617Z"></path>
<path fill="#BBBBBB" d="M31.3349 89.2678L30.0028 91.962V95.7308L29.6682 95.6632V94.316L28.0015 93.979L28.0015 89.9388L29.6682 90.2756V88.9285L31.3349 89.2678Z"></path>
<path fill="#D9D9D9" d="M30.2731 87.7062L31.3361 87.9207L31.3349 89.2652L29.6682 88.9285L30.2731 87.7062Z"></path>
<path fill="#D9D9D9" d="M29.6692 86.5739L29.6643 87.5814L30.2731 87.7062L29.6682 88.9285V90.2756L28.0015 89.9388L29.6692 86.5739Z"></path>
<path fill="#BBBBBB" d="M30.0028 97.0785V105.16L29.6643 105.093L29.6692 103.746L28.0015 103.409L28.0015 98.0212L29.6682 98.358V97.0109L30.0028 97.0785Z"></path>
<path fill="#D9D9D9" d="M30.0028 96.3347V97.0785L29.6682 97.0109L30.0028 96.3347Z"></path>
<path fill="#D9D9D9" d="M29.6682 94.6564L29.6643 95.6638L30.0028 95.7308V96.3347L29.6682 97.0109V98.358L28.0015 98.0212L29.6682 94.6564Z"></path>
<path fill="#BBBBBB" d="M30.0028 106.508V113.243L29.6682 113.175V111.828L28.0015 111.491L28.0015 107.451L29.6682 107.788V106.44L30.0028 106.508Z"></path>
<path fill="#D9D9D9" d="M30.0028 105.764V106.508L29.6682 106.44L30.0028 105.764Z"></path>
<path fill="#D9D9D9" d="M29.6667 104.086L29.6643 105.093L30.0028 105.16V105.764L29.6682 106.44V107.788L28.0015 107.451L29.6667 104.086Z"></path>
<path fill="#BBBBBB" d="M64.6695 122.944V126.985L64.6667 128.333L57.9976 126.983V125.907L58.3362 125.976L58.9422 124.751L60.0029 124.965L61.3362 122.269V120.923L63.0029 121.26V122.607L64.6695 122.944Z"></path>
<path fill="#D9D9D9" d="M61.9425 119.7L63.0029 119.914L63.6089 118.69L64.2151 118.812L63.0029 121.261L61.3362 120.925L61.9425 119.7Z"></path>
<path fill="#535353" d="M61.9422 119.698L61.3362 120.923V119.576L61.9422 119.698Z"></path>
<path fill="#D9D9D9" d="M71.0028 106.442L72.6667 106.78L64.6695 122.944L63.0029 122.607L71.0028 106.442Z"></path>
<path fill="#535353" d="M64.2151 118.812L64.3362 118.837L64.6695 118.904L71.0028 106.107V106.442L63.0029 122.609V121.261L64.2151 118.812Z"></path>
<path fill="#535353" d="M72.6667 106.78V112.168L64.6667 128.333L64.6695 122.944L72.6667 106.78Z"></path>
<path fill="#BBBBBB" d="M54.6695 125.235V126.312L48.0028 124.965V122.541L48.3362 122.608V123.955L54.6695 125.235Z"></path>
<path fill="#535353" d="M55.1541 125.333L54.6695 126.312V125.235L55.1541 125.333Z"></path>
<path fill="#BBBBBB" d="M44.6695 121.867V124.291L38.0028 122.944V121.867L41.6695 122.608L42.2756 121.383L44.6695 121.867Z"></path>
<path fill="#BBBBBB" d="M34.6695 121.194V122.271L28.0028 120.923V115.533L29.6643 115.87V114.523L30.0028 114.591V118.904L31.6695 119.24V120.587L34.6695 121.194Z"></path>
<path fill="#D9D9D9" d="M29.6682 112.168L29.6628 113.176L30.0013 113.243L30.0028 114.591L29.6667 114.523L29.6667 115.87L28 115.533L29.6682 112.168Z"></path>
<path fill="#535353" d="M35.1541 121.291L34.6695 122.271V121.194L35.1541 121.291Z"></path>
<path fill="#535353" d="M45.7573 122.087L44.6695 124.291V121.867L45.7573 122.087Z"></path>
<path fill="#D9D9D9" d="M62.6693 70.8141L63.8492 71.0533L56.3355 86.2371L62.6695 73.7763L62.6693 70.8141Z"></path>
<path fill="#D9D9D9" d="M52.6695 71.7558L52.6694 70.1395L54.3042 70.4701L53.5772 71.9391L52.6695 71.7558Z"></path>
<path fill="#A0A0A0" d="M83.3362 99.9413L85.0028 100.278V98.931L90.0028 99.9413V101.288L100.003 103.309V101.962L105.003 102.972V104.319L106.67 104.656V106.003L108.336 106.34V107.687L110.003 108.024V134.965L108.336 134.629V135.976L98.3362 133.955V132.608L91.6695 131.261V132.608L81.6695 130.587V129.24L80.0028 128.904V101.962L81.6695 102.299V100.952L83.3362 101.288V99.9413Z"></path>
<path fill="#535353" d="M111.336 105.33V129.577V132.269L110.003 134.965V108.024L111.336 105.33Z"></path>
<path fill="#535353" d="M109.67 103.646V104.993L108.336 107.687V106.34L109.67 103.646Z"></path>
<path fill="#535353" d="M108.003 101.962V103.309L106.67 106.003V104.656L108.003 101.962Z"></path>
<path fill="#535353" d="M106.336 100.278V101.625L105.003 104.319V102.972L106.336 100.278Z"></path>
<path fill="#535353" d="M91.3362 97.2472V98.5943L90.0028 101.288V99.9413L91.3362 97.2472Z"></path>
<path fill="#535353" d="M92.2756 131.383L91.6695 132.608V131.261L92.2756 131.383Z"></path>
<path fill="#535353" d="M108.942 134.751L108.336 135.976V134.629L108.942 134.751Z"></path>
<path fill="#D9D9D9" d="M86.3362 96.2369L91.3362 97.2472L90.0028 99.9413L85.0028 98.931L86.3362 96.2369Z"></path>
<path fill="#D9D9D9" d="M101.336 99.2678L106.336 100.278L105.003 102.972L100.003 101.962L101.336 99.2678Z"></path>
<path fill="#D9D9D9" d="M91.3362 98.5943L100.73 100.492L100.003 101.962V103.309L90.0028 101.288L91.3362 98.5943Z"></path>
<path fill="#D9D9D9" d="M84.6694 97.2472L85.7299 97.4613L85.0028 98.931V100.278L83.3362 99.9413L84.6694 97.2472Z"></path>
<path fill="#D9D9D9" d="M83.0028 98.2575L84.0632 98.4716L83.3362 99.9413V101.288L81.6695 100.952L83.0028 98.2575Z"></path>
<path fill="#D9D9D9" d="M81.3361 99.2678L82.3965 99.4819L81.6695 100.952V102.299L80.0028 101.962L81.3361 99.2678Z"></path>
<path fill="#D9D9D9" d="M106.336 101.625L108.003 101.962L106.67 104.656L105.003 104.319L106.336 101.625Z"></path>
<path fill="#D9D9D9" d="M108.003 103.309L109.67 103.646L108.336 106.34L106.67 106.003L108.003 103.309Z"></path>
<path fill="#D9D9D9" d="M109.67 104.993L111.336 105.33L110.003 108.024L108.336 107.687L109.67 104.993Z"></path>
<path fill="#BBBBBB" d="M84.6695 91.8592L86.3362 92.196V96.2369L85.7299 97.4613L84.6694 97.2472L84.0632 98.4716L83.0028 98.2575L82.3965 99.4819L81.3361 99.2678V97.9207L79.6692 97.5843V96.2372L78.0028 95.9004V89.1651L84.6694 90.5122L84.6695 91.8592Z"></path>
<path fill="#535353" d="M94.3362 76.031V80.0719L88.0025 92.8698L86.3362 96.2369V92.196L94.3362 76.031Z"></path>
<path fill="#535353" d="M92.6694 74.3471L92.6695 75.6915L84.6695 91.8564L84.6694 90.5122L92.6694 74.3471Z"></path>
<path fill="#D9D9D9" d="M86 73L92.6694 74.3471L84.6694 90.5122L78.0028 89.1651L86 73Z"></path>
<path fill="#D9D9D9" d="M92.6695 75.6943L94.3362 76.031L86.3362 92.196L84.6695 91.8592L92.6695 75.6943Z"></path>
<path fill="#BBBBBB" d="M108.003 95.224L114.67 96.5711V103.306L113.003 102.969V104.319L111.336 103.98L111.336 105.33L109.669 104.99V103.643L108.003 103.306V101.959L106.336 101.623L106.336 96.2371L108.003 96.5711V95.224Z"></path>
<path fill="#D9D9D9" d="M116.003 79.0589L122.667 80.4089L114.67 96.5711L108.003 95.224L116.003 79.0589Z"></path>
<path fill="#D9D9D9" d="M114.336 80.0694L115.397 80.2835L108.003 95.224V96.5711L106.336 96.2371L114.336 80.0694Z"></path>
<path fill="#535353" d="M122.667 80.4089V87.1443L114.67 103.306V96.5711L122.667 80.4089Z"></path>
<path fill="#535353" d="M113.609 103.092L113.003 104.316V102.969L113.609 103.092Z"></path>
<path fill="#535353" d="M111.942 104.102L111.336 105.327V103.98L111.942 104.102Z"></path>
<path fill="#BBBBBB" d="M94.6695 92.5327V97.9207L98.0025 98.5917V93.2034L104.669 94.5505V99.9413L101.336 99.2678L100.73 100.492L91.3362 98.5943V97.2472L88.0025 96.5736V91.1856L94.6695 92.5327Z"></path>
<path fill="#D9D9D9" d="M106.003 77.0383L112.669 78.3854L104.669 94.5505L98.0025 93.2034L106.003 77.0383Z"></path>
<path fill="#D9D9D9" d="M96.0025 75.0178L102.669 76.3649L94.6695 92.5327L88.0025 91.1856L96.0025 75.0178Z"></path>
<path fill="#535353" d="M102.669 76.3649L102.67 81.7558L94.6695 97.9207L94.6692 92.5299L102.669 76.3649Z"></path>
<path fill="#535353" d="M112.669 78.3854L112.67 83.7763L104.669 99.9413V94.5505L112.669 78.3854Z"></path>
<path fill="#D9D9D9" d="M102.67 81.7558L103.577 81.9391L98.0025 93.2034V98.5917L94.6695 97.9207L102.67 81.7558Z"></path>
<path fill="#D9D9D9" d="M88.0025 92.8698V96.5736L86.3362 96.2369L88.0025 92.8698Z"></path>
<path fill="#D9D9D9" d="M112.67 83.7763L106.336 96.2371L106.336 100.278L104.669 99.9413L112.67 83.7763Z"></path>
<path fill="#BBBBBB" d="M114.67 124.862V128.904L113.003 128.567V129.914L111.336 129.577V122.842L113.003 123.179V124.526L114.67 124.862Z"></path>
<path fill="#D9D9D9" d="M112.67 120.148L114.336 120.484L113.003 123.179L111.336 122.842L112.67 120.148Z"></path>
<path fill="#D9D9D9" d="M121.003 108.361L122.667 108.698L114.67 124.862L113.003 124.526L121.003 108.361Z"></path>
<path fill="#535353" d="M113.609 128.69L113.003 129.914V128.567L113.609 128.69Z"></path>
<path fill="#535353" d="M122.667 108.698V112.739L114.67 128.904V124.862L122.667 108.698Z"></path>
<path fill="#535353" d="M114.336 120.484L114.67 120.822L121.003 108.024V108.361L113.003 124.526V123.179L114.336 120.484Z"></path>
<path fill="#BBBBBB" d="M114.67 107.35V111.392L113.003 111.055V112.402L111.336 112.065V105.33L113.003 105.666V107.014L114.67 107.35Z"></path>
<path fill="#D9D9D9" d="M111.942 104.102L113.003 104.319L113.609 103.092L114.216 103.215L113.003 105.666L111.336 105.33L111.942 104.102Z"></path>
<path fill="#D9D9D9" d="M121.003 90.8488L122.667 91.1856L114.67 107.35L113.003 107.014L121.003 90.8488Z"></path>
<path fill="#535353" d="M113.609 111.177L113.003 112.402V111.055L113.609 111.177Z"></path>
<path fill="#535353" d="M122.667 91.1856V95.2268L114.67 111.392V107.35L122.667 91.1856Z"></path>
<path fill="#535353" d="M114.336 103.239L114.67 103.306L121.003 90.5092V90.8488L113.003 107.014V105.666L114.216 103.215L114.336 103.239Z"></path>
<path fill="#BBBBBB" d="M114.67 115.433V120.822L113.003 120.485V121.832L111.336 121.495V113.413L113.003 113.749V115.097L114.67 115.433Z"></path>
<path fill="#D9D9D9" d="M111.942 112.187L113.003 112.402L113.609 111.177L114.215 111.3L113.003 113.749L111.336 113.413L111.942 112.187Z"></path>
<path fill="#D9D9D9" d="M121.003 98.9317L122.667 99.268L114.67 115.433L113.003 115.097L121.003 98.9317Z"></path>
<path fill="#535353" d="M113.609 120.607L113.003 121.832V120.485L113.609 120.607Z"></path>
<path fill="#535353" d="M122.667 99.268V104.656L114.67 120.822V115.433L122.667 99.268Z"></path>
<path fill="#535353" d="M114.215 111.3L114.336 111.324L114.67 111.392L121.003 98.5944V98.9317L113.003 115.097V113.749L114.215 111.3Z"></path>
<path fill="#535353" d="M111.942 112.187L111.336 113.413V112.065L111.942 112.187Z"></path>
<path fill="#535353" d="M111.942 121.617L111.336 122.842V121.495L111.942 121.617Z"></path>
<path fill="#BBBBBB" d="M81.3349 99.2678L80.0028 101.962V105.731L79.6682 105.663V104.316L78.0015 103.979L78.0015 99.9388L79.6682 100.276V98.9285L81.3349 99.2678Z"></path>
<path fill="#D9D9D9" d="M80.2731 97.7062L81.3361 97.9207L81.3349 99.2652L79.6682 98.9285L80.2731 97.7062Z"></path>
<path fill="#D9D9D9" d="M79.6692 96.5739L79.6643 97.5814L80.2731 97.7062L79.6682 98.9285V100.276L78.0015 99.9388L79.6692 96.5739Z"></path>
<path fill="#BBBBBB" d="M80.0028 107.079V115.16L79.6643 115.093L79.6692 113.746L78.0015 113.409L78.0015 108.021L79.6682 108.358V107.011L80.0028 107.079Z"></path>
<path fill="#D9D9D9" d="M80.0028 106.335V107.079L79.6682 107.011L80.0028 106.335Z"></path>
<path fill="#D9D9D9" d="M79.6682 104.656L79.6643 105.664L80.0028 105.731V106.335L79.6682 107.011V108.358L78.0015 108.021L79.6682 104.656Z"></path>
<path fill="#BBBBBB" d="M80.0028 116.508V123.243L79.6682 123.175V121.828L78.0015 121.491L78.0015 117.451L79.6682 117.788V116.44L80.0028 116.508Z"></path>
<path fill="#D9D9D9" d="M80.0028 115.764V116.508L79.6682 116.44L80.0028 115.764Z"></path>
<path fill="#D9D9D9" d="M79.6667 114.086L79.6643 115.093L80.0028 115.16V115.764L79.6682 116.44V117.788L78.0015 117.451L79.6667 114.086Z"></path>
<path fill="#BBBBBB" d="M114.67 132.944V136.985L114.667 138.333L107.998 136.983V135.907L108.336 135.976L108.942 134.751L110.003 134.965L111.336 132.269V130.923L113.003 131.26V132.607L114.67 132.944Z"></path>
<path fill="#D9D9D9" d="M111.942 129.7L113.003 129.914L113.609 128.69L114.215 128.812L113.003 131.261L111.336 130.925L111.942 129.7Z"></path>
<path fill="#535353" d="M111.942 129.698L111.336 130.923V129.577L111.942 129.698Z"></path>
<path fill="#D9D9D9" d="M121.003 116.442L122.667 116.78L114.67 132.944L113.003 132.607L121.003 116.442Z"></path>
<path fill="#535353" d="M114.215 128.812L114.336 128.837L114.67 128.904L121.003 116.107V116.442L113.003 132.609V131.261L114.215 128.812Z"></path>
<path fill="#535353" d="M122.667 116.78V122.168L114.667 138.333L114.67 132.944L122.667 116.78Z"></path>
<path fill="#BBBBBB" d="M104.67 135.235V136.312L98.0028 134.965V132.541L98.3362 132.608V133.955L104.67 135.235Z"></path>
<path fill="#535353" d="M105.154 135.333L104.67 136.312V135.235L105.154 135.333Z"></path>
<path fill="#BBBBBB" d="M94.6695 131.867V134.291L88.0028 132.944V131.867L91.6695 132.608L92.2756 131.383L94.6695 131.867Z"></path>
<path fill="#BBBBBB" d="M84.6695 131.194V132.271L78.0028 130.923V125.533L79.6643 125.87V124.523L80.0028 124.591V128.904L81.6695 129.24V130.587L84.6695 131.194Z"></path>
<path fill="#D9D9D9" d="M79.6682 122.168L79.6628 123.176L80.0013 123.243L80.0028 124.591L79.6667 124.523L79.6667 125.87L78 125.533L79.6682 122.168Z"></path>
<path fill="#535353" d="M85.1541 131.291L84.6695 132.271V131.194L85.1541 131.291Z"></path>
<path fill="#535353" d="M95.7573 132.087L94.6695 134.291V131.867L95.7573 132.087Z"></path>
<path fill="#D9D9D9" d="M112.669 80.8141L113.849 81.0533L106.336 96.2371L112.67 83.7763L112.669 80.8141Z"></path>
<path fill="#D9D9D9" d="M102.67 81.7558L102.669 80.1395L104.304 80.4701L103.577 81.9391L102.67 81.7558Z"></path>
<path fill="#A0A0A0" d="M133.336 109.941L135.003 110.278V108.931L140.003 109.941V111.288L150.003 113.309V111.962L155.003 112.972V114.319L156.67 114.656V116.003L158.336 116.34V117.687L160.003 118.024V144.965L158.336 144.629V145.976L148.336 143.955V142.608L141.67 141.261V142.608L131.67 140.587V139.24L130.003 138.904V111.962L131.67 112.299V110.952L133.336 111.288V109.941Z"></path>
<path fill="#535353" d="M161.336 115.33V139.577V142.269L160.003 144.965V118.024L161.336 115.33Z"></path>
<path fill="#535353" d="M159.67 113.646V114.993L158.336 117.687V116.34L159.67 113.646Z"></path>
<path fill="#535353" d="M158.003 111.962V113.309L156.67 116.003V114.656L158.003 111.962Z"></path>
<path fill="#535353" d="M156.336 110.278V111.625L155.003 114.319V112.972L156.336 110.278Z"></path>
<path fill="#535353" d="M141.336 107.247V108.594L140.003 111.288V109.941L141.336 107.247Z"></path>
<path fill="#535353" d="M142.276 141.383L141.67 142.608V141.261L142.276 141.383Z"></path>
<path fill="#535353" d="M158.942 144.751L158.336 145.976V144.629L158.942 144.751Z"></path>
<path fill="#D9D9D9" d="M136.336 106.237L141.336 107.247L140.003 109.941L135.003 108.931L136.336 106.237Z"></path>
<path fill="#D9D9D9" d="M151.336 109.268L156.336 110.278L155.003 112.972L150.003 111.962L151.336 109.268Z"></path>
<path fill="#D9D9D9" d="M141.336 108.594L150.73 110.492L150.003 111.962V113.309L140.003 111.288L141.336 108.594Z"></path>
<path fill="#D9D9D9" d="M134.669 107.247L135.73 107.461L135.003 108.931V110.278L133.336 109.941L134.669 107.247Z"></path>
<path fill="#D9D9D9" d="M133.003 108.258L134.063 108.472L133.336 109.941V111.288L131.67 110.952L133.003 108.258Z"></path>
<path fill="#D9D9D9" d="M131.336 109.268L132.397 109.482L131.67 110.952V112.299L130.003 111.962L131.336 109.268Z"></path>
<path fill="#D9D9D9" d="M156.336 111.625L158.003 111.962L156.67 114.656L155.003 114.319L156.336 111.625Z"></path>
<path fill="#D9D9D9" d="M158.003 113.309L159.67 113.646L158.336 116.34L156.67 116.003L158.003 113.309Z"></path>
<path fill="#D9D9D9" d="M159.67 114.993L161.336 115.33L160.003 118.024L158.336 117.687L159.67 114.993Z"></path>
<path fill="black" d="M136.67 118.697L141.669 119.708V121.055L143.336 121.391V122.738L146.669 123.412V122.065L148.337 122.402V121.055L153.337 122.065V127.453L151.669 127.116V128.464L146.669 127.453V126.106L143.336 125.433L143.337 126.78L138.336 125.769V124.422L136.67 124.086V118.697Z"></path>
<path fill="#E4E4E4" d="M140.003 123.412L143.336 124.086L143.337 126.78L140.004 126.106L140.003 123.412Z"></path>
<path fill="#E4E4E4" d="M146.668 124.759L150.001 125.433L150.003 128.127L146.669 127.453L146.668 124.759Z"></path>
<path fill="black" d="M153.336 120.718L155.003 121.055L155.004 122.402L153.337 122.065L153.336 120.718Z"></path>
<path fill="black" d="M135.003 117.014L136.669 117.35L136.67 118.697L135.004 118.361L135.003 117.014Z"></path>
<path fill="black" d="M136.669 126.78L141.669 127.79V129.137L148.337 130.484V129.137L153.336 130.147V131.494L155.004 131.831V138.567L153.336 138.23V139.577L150.003 138.904V137.556L140.004 135.536L140.005 136.883L136.669 136.209V134.862L135.004 134.526V127.79L136.669 128.127V126.78Z"></path>
<path fill="#E4E4E4" d="M136.669 128.127L140.003 128.8L140.004 130.147L136.669 129.474V128.127Z"></path>
<path fill="#E4E4E4" d="M136.669 133.515L140.003 134.189L140.004 135.536L136.669 134.862V133.515Z"></path>
<path fill="#E4E4E4" d="M150.001 136.209L153.335 136.883L153.336 138.23L150.001 137.556V136.209Z"></path>
<path fill="#E4E4E4" d="M150.003 130.821L153.336 131.494L153.337 132.842L150.003 132.168V130.821Z"></path>
<path fill="#E4E4E4" d="M141.67 133.178L145.003 133.852L145.004 135.199L141.67 134.526V133.178Z"></path>
<path fill="#E4E4E4" d="M146.667 134.189L150 134.862L150.001 136.209L146.667 135.536V134.189Z"></path>
<path fill="#E4E4E4" d="M141.669 130.484L145.003 131.158L145.004 132.505L141.669 131.831V130.484Z"></path>
<path fill="#E4E4E4" d="M146.67 131.494L148.337 131.831L148.338 133.178L146.67 132.842V131.494Z"></path>
<path fill="#BBBBBB" d="M134.669 101.859L136.336 102.196V106.237L135.73 107.461L134.669 107.247L134.063 108.472L133.003 108.258L132.397 109.482L131.336 109.268V107.921L129.669 107.584V106.237L128.003 105.9V99.1651L134.669 100.512L134.669 101.859Z"></path>
<path fill="#535353" d="M144.336 86.031V90.0719L138.003 102.87L136.336 106.237V102.196L144.336 86.031Z"></path>
<path fill="#535353" d="M142.669 84.3471L142.67 85.6915L134.669 101.856L134.669 100.512L142.669 84.3471Z"></path>
<path fill="#D9D9D9" d="M136 83L142.669 84.3471L134.669 100.512L128.003 99.1651L136 83Z"></path>
<path fill="#D9D9D9" d="M142.67 85.6943L144.336 86.031L136.336 102.196L134.669 101.859L142.67 85.6943Z"></path>
<path fill="#BBBBBB" d="M158.003 105.224L164.67 106.571V113.306L163.003 112.969V114.319L161.336 113.98L161.336 115.33L159.669 114.99V113.643L158.003 113.306V111.959L156.336 111.623L156.336 106.237L158.003 106.571V105.224Z"></path>
<path fill="#D9D9D9" d="M166.003 89.0589L172.667 90.4089L164.67 106.571L158.003 105.224L166.003 89.0589Z"></path>
<path fill="#D9D9D9" d="M164.336 90.0694L165.397 90.2835L158.003 105.224V106.571L156.336 106.237L164.336 90.0694Z"></path>
<path fill="#535353" d="M172.667 90.4089V97.1443L164.67 113.306V106.571L172.667 90.4089Z"></path>
<path fill="#535353" d="M163.609 113.092L163.003 114.316V112.969L163.609 113.092Z"></path>
<path fill="#535353" d="M161.942 114.102L161.336 115.327V113.98L161.942 114.102Z"></path>
<path fill="#BBBBBB" d="M144.67 102.533V107.921L148.003 108.592V103.203L154.669 104.55V109.941L151.336 109.268L150.73 110.492L141.336 108.594V107.247L138.003 106.574V101.186L144.67 102.533Z"></path>
<path fill="#D9D9D9" d="M156.003 87.0383L162.669 88.3854L154.669 104.55L148.003 103.203L156.003 87.0383Z"></path>
<path fill="#D9D9D9" d="M146.003 85.0178L152.669 86.3649L144.67 102.533L138.003 101.186L146.003 85.0178Z"></path>
<path fill="#535353" d="M152.669 86.3649L152.67 91.7558L144.67 107.921L144.669 102.53L152.669 86.3649Z"></path>
<path fill="#535353" d="M162.669 88.3854L162.67 93.7763L154.669 109.941V104.55L162.669 88.3854Z"></path>
<path fill="#D9D9D9" d="M152.67 91.7558L153.577 91.9391L148.003 103.203V108.592L144.67 107.921L152.67 91.7558Z"></path>
<path fill="#D9D9D9" d="M138.003 102.87V106.574L136.336 106.237L138.003 102.87Z"></path>
<path fill="#D9D9D9" d="M162.67 93.7763L156.336 106.237V110.278L154.669 109.941L162.67 93.7763Z"></path>
<path fill="#BBBBBB" d="M164.67 134.862V138.904L163.003 138.567V139.914L161.336 139.577V132.842L163.003 133.179V134.526L164.67 134.862Z"></path>
<path fill="#D9D9D9" d="M162.67 130.148L164.336 130.484L163.003 133.179L161.336 132.842L162.67 130.148Z"></path>
<path fill="#D9D9D9" d="M171.003 118.361L172.667 118.698L164.67 134.862L163.003 134.526L171.003 118.361Z"></path>
<path fill="#535353" d="M163.609 138.69L163.003 139.914V138.567L163.609 138.69Z"></path>
<path fill="#535353" d="M172.667 118.698V122.739L164.67 138.904V134.863L172.667 118.698Z"></path>
<path fill="#535353" d="M164.336 130.484L164.67 130.822L171.003 118.024V118.361L163.003 134.526V133.179L164.336 130.484Z"></path>
<path fill="#BBBBBB" d="M164.67 117.35V121.392L163.003 121.055V122.402L161.336 122.065V115.33L163.003 115.666V117.014L164.67 117.35Z"></path>
<path fill="#D9D9D9" d="M161.942 114.102L163.003 114.319L163.609 113.092L164.216 113.215L163.003 115.666L161.336 115.33L161.942 114.102Z"></path>
<path fill="#D9D9D9" d="M171.003 100.849L172.667 101.186L164.67 117.35L163.003 117.014L171.003 100.849Z"></path>
<path fill="#535353" d="M163.609 121.177L163.003 122.402V121.055L163.609 121.177Z"></path>
<path fill="#535353" d="M172.667 101.186V105.227L164.67 121.392V117.351L172.667 101.186Z"></path>
<path fill="#535353" d="M164.336 113.239L164.67 113.306L171.003 100.509V100.849L163.003 117.014V115.666L164.216 113.215L164.336 113.239Z"></path>
<path fill="#BBBBBB" d="M164.67 125.433V130.822L163.003 130.485V131.832L161.336 131.495V123.413L163.003 123.749V125.097L164.67 125.433Z"></path>
<path fill="#D9D9D9" d="M161.942 122.187L163.003 122.402L163.609 121.177L164.215 121.3L163.003 123.749L161.336 123.413L161.942 122.187Z"></path>
<path fill="#D9D9D9" d="M171.003 108.932L172.667 109.268L164.67 125.433L163.003 125.097L171.003 108.932Z"></path>
<path fill="#535353" d="M163.609 130.607L163.003 131.832V130.485L163.609 130.607Z"></path>
<path fill="#535353" d="M172.667 109.268V114.656L164.67 130.822V125.433L172.667 109.268Z"></path>
<path fill="#535353" d="M164.215 121.3L164.336 121.324L164.67 121.392L171.003 108.594V108.932L163.003 125.097V123.749L164.215 121.3Z"></path>
<path fill="#535353" d="M161.942 122.188L161.336 123.413V122.066L161.942 122.188Z"></path>
<path fill="#535353" d="M161.942 131.617L161.336 132.842V131.495L161.942 131.617Z"></path>
<path fill="#BBBBBB" d="M131.335 109.268L130.003 111.962V115.731L129.668 115.663V114.316L128.002 113.979L128.002 109.939L129.668 110.276V108.928L131.335 109.268Z"></path>
<path fill="#D9D9D9" d="M130.273 107.706L131.336 107.921L131.335 109.265L129.668 108.928L130.273 107.706Z"></path>
<path fill="#D9D9D9" d="M129.669 106.574L129.664 107.581L130.273 107.706L129.668 108.928V110.276L128.002 109.939L129.669 106.574Z"></path>
<path fill="#BBBBBB" d="M130.003 117.079V125.16L129.664 125.093L129.669 123.746L128.002 123.409L128.002 118.021L129.668 118.358V117.011L130.003 117.079Z"></path>
<path fill="#D9D9D9" d="M130.003 116.335V117.079L129.668 117.011L130.003 116.335Z"></path>
<path fill="#D9D9D9" d="M129.668 114.656L129.664 115.664L130.003 115.731V116.335L129.668 117.011V118.358L128.002 118.021L129.668 114.656Z"></path>
<path fill="#BBBBBB" d="M130.003 126.508V133.243L129.668 133.175V131.828L128.002 131.491L128.002 127.451L129.668 127.788V126.44L130.003 126.508Z"></path>
<path fill="#D9D9D9" d="M130.003 125.764V126.508L129.668 126.44L130.003 125.764Z"></path>
<path fill="#D9D9D9" d="M129.667 124.086L129.664 125.093L130.003 125.16V125.764L129.668 126.44V127.788L128.002 127.451L129.667 124.086Z"></path>
<path fill="#BBBBBB" d="M164.67 142.944V146.985L164.667 148.333L157.998 146.983V145.907L158.336 145.976L158.942 144.751L160.003 144.965L161.336 142.269V140.923L163.003 141.26V142.607L164.67 142.944Z"></path>
<path fill="#D9D9D9" d="M161.942 139.7L163.003 139.914L163.609 138.69L164.215 138.812L163.003 141.261L161.336 140.925L161.942 139.7Z"></path>
<path fill="#535353" d="M161.942 139.698L161.336 140.923V139.576L161.942 139.698Z"></path>
<path fill="#D9D9D9" d="M171.003 126.442L172.667 126.78L164.67 142.944L163.003 142.607L171.003 126.442Z"></path>
<path fill="#535353" d="M164.215 138.812L164.336 138.837L164.67 138.904L171.003 126.107V126.442L163.003 142.609V141.261L164.215 138.812Z"></path>
<path fill="#535353" d="M172.667 126.78V132.168L164.667 148.333L164.67 142.944L172.667 126.78Z"></path>
<path fill="#BBBBBB" d="M154.67 145.235V146.312L148.003 144.965V142.541L148.336 142.608V143.955L154.67 145.235Z"></path>
<path fill="#535353" d="M155.154 145.333L154.67 146.312V145.235L155.154 145.333Z"></path>
<path fill="#BBBBBB" d="M144.669 141.867V144.291L138.003 142.944V141.867L141.67 142.608L142.276 141.383L144.669 141.867Z"></path>
<path fill="#BBBBBB" d="M134.669 141.194V142.271L128.003 140.923V135.533L129.664 135.87V134.523L130.003 134.591V138.904L131.67 139.24V140.587L134.669 141.194Z"></path>
<path fill="#D9D9D9" d="M129.668 132.168L129.663 133.176L130.001 133.243L130.003 134.591L129.667 134.523L129.667 135.87L128 135.533L129.668 132.168Z"></path>
<path fill="#535353" d="M135.154 141.291L134.669 142.271V141.194L135.154 141.291Z"></path>
<path fill="#535353" d="M145.757 142.087L144.669 144.291V141.867L145.757 142.087Z"></path>
<path fill="#D9D9D9" d="M162.669 90.8141L163.849 91.0533L156.336 106.237L162.67 93.7763L162.669 90.8141Z"></path>
<path fill="#D9D9D9" d="M152.67 91.7558L152.669 90.1395L154.304 90.4701L153.577 91.9391L152.67 91.7558Z"></path>
</svg>
