<svg xmlns="http://www.w3.org/2000/svg" fill="none" viewBox="0 0 200 200" height="200" width="200">
<path fill="#141520" d="M75.0091 89L105.009 95V99L75.0091 93V89Z"></path>
<path fill="#101018" d="M105.009 95L109.009 87V83L113.009 75V79L117.009 71V75L105.009 99V95Z"></path>
<path fill="#2A2E3D" d="M87.0091 65L117.009 71L113.009 79V75L109.009 83V87L105.009 95L75.0091 89L87.0091 65Z"></path>
<path fill="#22263C" d="M79.5091 79.5L104.509 84.5V90.5L79.5091 85.5V79.5Z"></path>
<path fill="#1D1D2C" d="M104.509 84.5L112.509 68.5V74.5L104.509 90.5V84.5Z"></path>
<path fill="#485374" d="M87.5091 63.5L112.509 68.5L104.509 84.5L79.5091 79.5L87.5091 63.5Z"></path>
<path fill="#444B68" d="M97.5091 65.5L89.5091 81.5L84.5091 80.5L92.5091 64.5L97.5091 65.5Z"></path>
<path fill="#444B68" d="M107.509 67.5L99.5091 83.5L94.5091 82.5L102.509 66.5L107.509 67.5Z"></path>
<path fill="#1B1A28" d="M89.5091 81.5V87.5L84.5091 86.5V80.5L89.5091 81.5Z"></path>
<path fill="#1B1A28" d="M99.5091 83.5V89.5L94.5091 88.5V82.5L99.5091 83.5Z"></path>
<path fill="#141520" d="M106.509 82.5L109.009 83V87L106.509 86.5V82.5Z"></path>
<path fill="#2A2E3D" d="M110.509 74.5L113.009 75L109.009 83L106.509 82.5L110.509 74.5Z"></path>
<path fill="#ADB39F" d="M115.509 75.5L128 78L124.009 86L111.509 83.5L115.509 75.5Z"></path>
<path fill="#453F3F" d="M128 78V86L124.009 94V86L128 78Z"></path>
<path fill="#535454" d="M124.009 86V94L111.509 91.5V83.5L124.009 86Z"></path>
<path fill="#141620" d="M119.009 87V89L116.509 88.5V86.5L119.009 87Z"></path>
<path fill="#ADB39F" d="M112.009 79L113.6 79.3182L111.6 83.3182L110.009 83L112.009 79Z"></path>
<path fill="#535454" d="M111.6 83.3182L111.509 83.5V87.3L110.009 87V83L111.6 83.3182Z"></path>
<path fill="#ADB39F" d="M97.5091 97.5L102.509 98.5L97.5091 108.5L90.0091 107L91.0091 105L93.5091 105.5L97.5091 97.5Z"></path>
<path fill="#453F3F" d="M102.509 98.5L103.418 98.6818L97.5091 110.5V108.5L102.509 98.5Z"></path>
<path fill="#535454" d="M97.5091 108.5V110.5L90.0091 109V107L97.5091 108.5Z"></path>
<path fill="#ADB39F" d="M112.009 63L119.509 64.5L116.327 70.8636L112.509 70.1V68.5L112.055 68.4091L113.509 65.5L111.009 65L112.009 63Z"></path>
<path fill="#453F3F" d="M119.509 64.5V66.5L117.009 71.5V71L116.327 70.8636L119.509 64.5Z"></path>
<path fill="#535454" d="M113.509 65.5L112.6 67.3182L111.009 67V65L113.509 65.5Z"></path>
<path fill="#ADB39F" d="M75 82L78.1901 82.638L76.1901 86.638L73 86L75 82Z"></path>
<path fill="#535454" d="M76.1901 86.638L75.281 88.4562L73.0004 88L73 86L76.1901 86.638Z"></path>
<path fill="#ADB39F" d="M79 74L81.9628 74.5926L79.9628 78.5926L77 78L79 74Z"></path>
<path fill="#535454" d="M79.9628 78.5926L79.5 79.5L79.5091 80L79.281 80.4562L77.0004 80L77 78L79.9628 78.5926Z"></path>
<path fill="white" d="M93 130V129H92H91V131V135H89V129H87V136H88V137H92V136H93V131V130Z"></path>
<path fill="white" d="M94 129H99V130H100V133H99V134H100V137H98V135H97V134H96V132H98V131H96V132V134V137H94V129Z"></path>
<path fill="white" d="M115 130H116V129H121V131H117V132H119V134H117V135H121V137H116V136H115V130Z"></path>
<path fill="white" d="M80 130V129H81H86V131H84V135V137H82V135V131H80V130Z"></path>
<path fill="white" d="M101 130V129H102H107V131H105V135V137H103V135V131H101V130Z"></path>
<path fill="white" d="M108 130V129H109H110V131V135H114V137H109V136H108V131V130Z"></path>
</svg>
