<svg xmlns="http://www.w3.org/2000/svg" fill="none" viewBox="0 0 200 200" height="200" width="200">
<path fill="#4F5065" d="M68.9978 55L113.998 64V100L68.9978 91.0001V55Z"></path>
<path fill="#26263E" d="M113.998 64L131.998 28V64L113.998 100V64Z"></path>
<path fill="#7D8093" d="M86.9978 19L131.998 28L113.998 64L68.9978 55L86.9978 19Z"></path>
<path fill="#4F5065" d="M75.9978 48.0006L110.998 55.0006V59.0006L75.9978 52.0006V48.0006Z"></path>
<path fill="#26263E" d="M110.998 55.0006L124.998 27.0006V31.0006L110.998 59.0006V55.0006Z"></path>
<path fill="#7D8093" d="M89.9978 20.0006L124.998 27.0006L110.998 55.0006L75.9978 48.0006L89.9978 20.0006Z"></path>
<path fill="#4F5065" d="M71.9972 64.001L106.997 71.001V99.001L71.9972 92.001V64.001Z"></path>
<path fill="#26263E" d="M106.997 71.001L108.997 67.001V95.001L106.997 99.001V71.001Z"></path>
<path fill="#7D8093" d="M73.9972 60.001L108.997 67.001L106.997 71.001L71.9972 64.001L73.9972 60.001Z"></path>
<path fill="#4F5065" d="M115.997 64.001L120.997 65.001V93.001L115.997 92.001V64.001Z"></path>
<path fill="#26263E" d="M120.997 65.001L134.997 37.001V65.001L120.997 93.001V65.001Z"></path>
<path fill="#7D8093" d="M129.997 36.001L134.997 37.001L120.997 65.001L115.997 64.001L129.997 36.001Z"></path>
<path fill="#4F5065" d="M66 54L69.1798 54.636L68.9978 55V82.5996L66 82.0001V54Z"></path>
<path fill="#7D8093" d="M80 26L83.1798 26.636L69.1798 54.636L66 54L80 26Z"></path>
<path fill="#26263E" d="M128.814 27.3632L128.997 26.9967V27.3999L128.814 27.3632Z"></path>
<path fill="#7D8093" d="M93.9973 19.9967L128.997 26.9967L128.814 27.3632L93.814 20.3632L93.9973 19.9967Z"></path>
<path fill="#4F5065" d="M87 37.0014L96.9951 39.0004L95.181 42.6376L87 41.0014V37.0014Z"></path>
<path fill="#26263E" d="M83 45.0043L87 37.0037V41.0037L84.8186 45.3666L83 45.0043Z"></path>
<path fill="#4E505D" d="M87 41.0037L95.181 42.6376L93 47.002L84.8186 45.3666L87 41.0037Z"></path>
<path fill="#4F5065" d="M108.005 28.002L113 29.001L111.186 32.6381L108.005 32.002V28.002Z"></path>
<path fill="#26263E" d="M106.005 32.0049L108.005 28.0043V32.0043L107.823 32.3672L106.005 32.0049Z"></path>
<path fill="#4E505D" d="M108.005 32.0043L111.186 32.6381L111.005 33.0025L107.823 32.3672L108.005 32.0043Z"></path>
<path fill="#7D8093" d="M129.364 60.2747L133 61.002L129 69.002V61.002L129.364 60.2747Z"></path>
<path fill="#4F5065" d="M129.364 60.2747L129 61.002L133 53.0039V61.002L129.364 60.2747Z"></path>
<path fill="#7D8093" d="M125.182 60.6365L127 61L125 65V61L125.182 60.6365Z"></path>
<path fill="#4F5065" d="M125.182 60.6365L125 61L127 57.002V61L125.182 60.6365Z"></path>
<path fill="#26263E" d="M87 75L92 76.002V76.0001L88.8179 75.3643L87 79.0001V75Z"></path>
<path fill="#7D8093" d="M87 79.0001L88.8179 75.3643L92 76.0001V80.0001L87 79.0001Z"></path>
<path fill="#26263E" d="M77 81L78.8179 81.3643L79 81.4007V85.002L77 89.0001V81Z"></path>
<path fill="#7D8093" d="M77 89.0001L79 85.002V81.4007L78.8179 81.3643L87 83.002V91.0001L77 89.0001Z"></path>
<path fill="#333240" d="M79 81.4007L87 83.002V86.602L79 85.002V81.4007Z"></path>
</svg>
