<svg xmlns="http://www.w3.org/2000/svg" fill="none" viewBox="0 0 300 300" height="300" width="300">
<path fill="#45292C" d="M126 150L266 178L266 186L126 157.986L126 150Z"></path>
<path fill="#7E4A46" d="M134 134L274 162L266 178L126 150L134 134Z"></path>
<path fill="#28181E" d="M274 162V170L272 174V170L268 178V182L266 186L266 178L274 162Z"></path>
<path fill="#45292C" d="M272 170V174L270.182 173.622L272 170Z"></path>
<path fill="#C97964" d="M264 159.986L269 160.986L261 176.986L256 175.986L264 159.986Z"></path>
<path fill="#70433F" d="M256 175.986L261 176.986L261.001 184.986L256.001 183.986L256 175.986Z"></path>
<path fill="#C97964" d="M243.998 155.986L253.998 157.986L245.998 173.986L235.998 171.986L243.998 155.986Z"></path>
<path fill="#70433F" d="M235.998 171.986L245.998 173.986L245.998 181.986L235.998 179.986L235.998 171.986Z"></path>
<path fill="#C97964" d="M203.998 147.986L213.998 149.986L205.998 165.986L195.998 163.986L203.998 147.986Z"></path>
<path fill="#70433F" d="M195.998 163.986L205.998 165.986L205.999 173.986L195.999 171.986L195.998 163.986Z"></path>
<path fill="#C97964" d="M223.999 151.986L228.999 152.986L220.999 168.986L215.999 167.986L223.999 151.986Z"></path>
<path fill="#70433F" d="M215.999 167.986L220.999 168.986L221 176.986L216 175.986L215.999 167.986Z"></path>
<path fill="#C97964" d="M183.999 143.995L188.999 144.995L180.999 160.995L175.999 159.995L183.999 143.995Z"></path>
<path fill="#70433F" d="M175.999 159.995L180.999 160.995L181 168.995L176 167.995L175.999 159.995Z"></path>
<path fill="#C97964" d="M163.999 139.986L173.999 141.986L165.999 157.986L155.999 155.986L163.999 139.986Z"></path>
<path fill="#70433F" d="M155.999 155.986L165.999 157.986L166 165.986L156 163.986L155.999 155.986Z"></path>
<path fill="#C97964" d="M139.061 135L149.061 137L141.061 153L131.061 151L139.061 135Z"></path>
<path fill="#70433F" d="M131.061 151L141.061 153L141.062 161L131.062 159L131.061 151Z"></path>
</svg>
