<svg xmlns="http://www.w3.org/2000/svg" fill="none" viewBox="0 0 960 60" height="60" width="960">
<rect fill="#EC5B2E" height="60" width="960"></rect>
<path stroke-width="2" stroke="white" fill="#56C6F8" d="M279 17H280V16V15H344V16V17H345H346V47H345H344V48V49H280V48V47H279H278V17H279Z"></path>
<path fill="white" d="M335 25L325 25L325 27L323 27L323 37L325 37L325 39L335 39L335 37L337 37L337 27L335 27L335 25Z"></path>
<path fill="#56C6F8" d="M333 28.999L327 28.999L327 34.999L333 34.999L333 32.999L329 32.999L329 30.999L333 30.999L333 28.999Z"></path>
<path fill="white" d="M298 24L296 24L296 30L289 30L289 26L294 26L294 27L296 27L296 26L296 24L296 22L292 22L292 24L287 24L287 30L296 30L296 31L289 31L289 30L287 30L287 33L289 33L289 41L296 41L296 39L291 39L291 33L296 33L296 41L298 41L298 33L303 33L303 39L298 39L298 41L305 41L305 33L307 33L307 30L305 30L305 31L298 31L298 30L307 30L307 24L302 24L302 22L298 22L298 24L298 26L298 27L300 27L300 26L305 26L305 30L298 30L298 26L298 24Z"></path>
<path fill="white" d="M312 27L317 32L312 37V27Z"></path>
<path fill="white" d="M245 24V22H247H257V26H253V34V38H249V34V26H245V24Z"></path>
<path fill="white" d="M217 24V22H219H229V26H225V34H229V38H217V34H221V26H217V24Z"></path>
<path fill="white" d="M203 24H205V22H215V26H207V28V32V34H211V32H209V28H215V36V38H213H205V36H203V24Z"></path>
<path fill="white" d="M161 24H163V22H173V26H165V28H169V32H165V34H173V38H163V36H161V24Z"></path>
<path fill="white" d="M175 24H177V22H187V26H179V28H183V32H179V34H187V38H177V36H175V24Z"></path>
<path fill="white" d="M147 22H157V24H159V30H157V32H159V38H155V34H153V32H151V28H155V26H151V28V32V38H147V22Z"></path>
<path fill="white" d="M133 24H135V22H145V26H137V28H141V32H137V34V38H135H133V36V24Z"></path>
<path fill="white" d="M231 24H233V22H243V26H235V28H239V32H235V34V38H233H231V36V24Z"></path>
</svg>
