<svg xmlns="http://www.w3.org/2000/svg" fill="none" viewBox="0 0 200 200" height="200" width="200">
<path fill="#FEFA4D" d="M171 119L179 103L79 83L71 99L171 119Z"></path>
<path fill="#CCC93E" d="M71 103L171 123V119L71 99V103Z"></path>
<path fill="#807D27" d="M171 123L179 107V103L171 119V123Z"></path>
<path fill="#997A22" d="M171 127L179 111V107L171 123V127Z"></path>
<path fill="#D2A730" d="M81 109L171 127V123L71 103L81 105V109Z"></path>
<path fill="#AA7B25" d="M81 109L91 111V107L71 103L81 105V109Z"></path>
<path fill="#AA7B25" d="M101 113L111 115V111L101 109V113Z"></path>
<path fill="#AA7B25" d="M121 117L131 119V115L121 113V117Z"></path>
<path fill="#AA7B25" d="M141 121L151 123V119L141 117V121Z"></path>
<path fill="#AA7B25" d="M161 125L171 127V123L161 121V125Z"></path>
<path fill="#D2A730" d="M71 107L81 109V105L71 103V107Z"></path>
</svg>
