<svg xmlns="http://www.w3.org/2000/svg" fill="none" viewBox="0 0 200 200" height="200" width="200">
<rect fill="url(#paint0_radial_217_18)" height="88.5" width="32.5" y="72" x="84"></rect>
<rect fill="url(#paint1_radial_217_18)" height="88.5" width="32.5" y="72" x="84"></rect>
<path fill="#645B86" d="M46 101L123.5 116.5V124.5L46 109V101Z"></path>
<path fill="#393561" d="M123.5 116.5L154.5 54.5V62.5L123.5 124.5V116.5Z"></path>
<path fill="#AFA1D6" d="M77 39L154.5 54.5L123.5 116.5L46 101L77 39Z"></path>
<path fill="#80739E" d="M78.5 41.5001L151 56.0001L122 114L49.5 99.5002L78.5 41.5001Z"></path>
<path fill="#7A54B6" d="M52.9995 96.0011L57.9995 97.0011V99.0011L52.9995 98.0011V96.0011Z"></path>
<path fill="#4E2F8D" d="M57.9995 97.0011L59.9995 93.0011V95.0011L57.9995 99.0011V97.0011Z"></path>
<path fill="#D991FF" d="M54.9995 92.0011L59.9995 93.0011L57.9995 97.0011L52.9995 96.0011L54.9995 92.0011Z"></path>
<path fill="#7A54B6" d="M140.499 58.5L145.499 59.5V61.5L140.499 60.5V58.5Z"></path>
<path fill="#4E2F8D" d="M145.499 59.5L147.499 55.5V57.5L145.499 61.5V59.5Z"></path>
<path fill="#D991FF" d="M142.499 54.5L147.499 55.5L145.499 59.5L140.499 58.5L142.499 54.5Z"></path>
<path fill="#789366" d="M115.499 108.5L120.499 109.5V111.5L115.499 110.5V108.5Z"></path>
<path fill="#4B5946" d="M120.499 109.5L122.499 105.5V107.5L120.499 111.5V109.5Z"></path>
<path fill="#D6FEA0" d="M117.499 104.5L122.499 105.5L120.499 109.5L115.499 108.5L117.499 104.5Z"></path>
<path fill="#789366" d="M78 46.0001L83 47.0001V49.0001L78 48.0001V46.0001Z"></path>
<path fill="#4B5946" d="M83 47.0001L85 43.0001V45.0001L83 49.0001V47.0001Z"></path>
<path fill="#D6FEA0" d="M80 42.0001L85 43.0001L83 47.0001L78 46.0001L80 42.0001Z"></path>
<path fill="#645B86" d="M66.9995 90.0011L114.5 99.5012V101.501L66.9995 92.0012V90.0011Z"></path>
<path fill="#393561" d="M114.5 99.5012L133.5 61.5011V63.5011L114.5 101.501V99.5012Z"></path>
<path fill="#AFA1D6" d="M85.9995 52.0011L133.5 61.5011L114.5 99.5012L66.9995 90.0011L85.9995 52.0011Z"></path>
<path fill="#3C3556" d="M70.4995 80.5012L113 89.0012V97.0012L70.4995 88.5013V80.5012Z"></path>
<path fill="#25213C" d="M113 89.0012L130 55.0012V63.0012L113 97.0012V89.0012Z"></path>
<path fill="#6C6088" d="M87.4995 46.5012L130 55.0012L113 89.0012L70.4995 80.5012L87.4995 46.5012Z"></path>
<path fill="#665A8B" d="M81.0001 74L108.5 79.5V81.5L81.0001 76V74Z"></path>
<path fill="#3C335E" d="M108.5 79.5L119.5 57.5V59.5L108.5 81.5V79.5Z"></path>
<path fill="#AEA1D7" d="M92.0001 52L119.5 57.5L108.5 79.5L81.0001 74L92.0001 52Z"></path>
<path fill="#8B92A0" d="M84.5 62.5L107 67V77L84.5 72.5V62.5Z"></path>
<path fill="#54596C" d="M107 67L116 49L116 59L107 77V67Z"></path>
<path fill="#FAFEFF" d="M93.5 44.5L116 49L107 67L84.5 62.5L93.5 44.5Z"></path>
<path fill="#D7FF9F" d="M95 47L112.5 50.5L105.5 64.5L88 61L95 47Z"></path>
<path fill="#799366" d="M87 65L104.5 68.5V76.5L87 73V65Z"></path>
<path fill="#485949" d="M108 67L115 53L115 61L108 75V67Z"></path>
<path fill="#6C6088" d="M73.9995 85.0013L80.4995 86.3013V88.5013L72.9995 87.0013L73.9995 85.0013Z"></path>
<path fill="#25213C" d="M73.9995 83.2003V85.0013L72.9995 87.0013V83.0013L73.9995 83.2003Z"></path>
<path fill="#7A54B6" d="M73.9995 83.2003L80.4995 84.5003V86.3013L73.9995 85.0013V83.2003Z"></path>
<path fill="#6C6088" d="M88.9995 88.0012L95.4995 89.3012V91.5012L87.9995 90.0012L88.9995 88.0012Z"></path>
<path fill="#25213C" d="M88.9995 86.2002V88.0012L87.9995 90.0012V86.0012L88.9995 86.2002Z"></path>
<path fill="#7A54B6" d="M88.9995 86.2002L95.4995 87.5002V89.3012L88.9995 88.0012V86.2002Z"></path>
<path fill="#6C6088" d="M104 91.0012L110.5 92.3012V94.5012L103 93.0012L104 91.0012Z"></path>
<path fill="#25213C" d="M104 89.2002V91.0012L103 93.0012V89.0012L104 89.2002Z"></path>
<path fill="#7A54B6" d="M104 89.2002L110.5 90.5002V92.3012L104 91.0012V89.2002Z"></path>
<path fill="#6C6088" d="M117 87L115.182 86.6364L114 89.0012V93.0012L117 87Z"></path>
<path fill="#3C3556" d="M117 83V87L115.182 86.6364L117 83Z"></path>
<path fill="#6C6088" d="M122.999 75L121.181 74.6364L120 77.0012V81.0012L122.999 75Z"></path>
<path fill="#3C3556" d="M122.999 71V75L121.181 74.6364L122.999 71Z"></path>
<path fill="#6C6088" d="M128.999 63L127.181 62.6364L126 65.0012V69.0012L128.999 63Z"></path>
<path fill="#3C3556" d="M128.999 59V63L127.181 62.6364L128.999 59Z"></path>
<defs>
<radialGradient gradientTransform="translate(100 72) rotate(84.8348) scale(88.8609 16.0652)" gradientUnits="userSpaceOnUse" r="1" cy="0" cx="0" id="paint0_radial_217_18">
<stop stop-color="#D991FF"></stop>
<stop stop-opacity="0.296875" stop-color="#D991FF" offset="0.149656"></stop>
<stop stop-opacity="0" stop-color="#D991FF" offset="1"></stop>
</radialGradient>
<radialGradient gradientTransform="translate(100 72) rotate(94.844) scale(88.8172 16.0574)" gradientUnits="userSpaceOnUse" r="1" cy="0" cx="0" id="paint1_radial_217_18">
<stop stop-color="#D991FF"></stop>
<stop stop-opacity="0.296875" stop-color="#D991FF" offset="0.149656"></stop>
<stop stop-opacity="0" stop-color="#D991FF" offset="1"></stop>
</radialGradient>
</defs>
</svg>
