<svg xmlns="http://www.w3.org/2000/svg" fill="none" viewBox="0 0 200 200" height="200" width="200">
<path fill="#9498C8" d="M94.5 71.5L112 75V101L84.5 95.5V85L94.5 87V71.5Z"></path>
<path fill="white" d="M100.5 59.5L118 63L112 75L94.5 71.5L100.5 59.5Z"></path>
<path fill="#56598C" d="M118 63V89L112 101V75L118 63Z"></path>
<path fill="white" d="M90.5 73L94.5 73.8V87L84.5 85L85.5 83L83 82.5L87 74.5L89.5 75L90.5 73Z"></path>
<path fill="#9498C8" d="M83 82.5L85.5 83L84.5 85V88.3L83 88L83 82.5Z"></path>
<path fill="#0A0A26" d="M107 78L109.5 78.5V80.5L107 80V78Z"></path>
<path fill="#9498C8" d="M105 95.5V101.5L90 98.5V92.5L105 95.5Z"></path>
<path fill="#56598C" d="M107 91.5V97.5L105 101.5V95.5L107 91.5Z"></path>
<path fill="white" d="M92.0001 88.5L107 91.5L105 95.5L90 92.5L92.0001 88.5Z"></path>
<path fill="#803647" d="M111.5 66.5V70.5L101.5 68.5V64.5L111.5 66.5Z"></path>
<path fill="#4E1F31" d="M113.5 62.5V66.5L111.5 70.5V66.5L113.5 62.5Z"></path>
<path fill="#EC6373" d="M113.5 62.5L111.5 66.5L101.5 64.5L103.5 60.5L113.5 62.5Z"></path>
<path fill="#F27257" d="M123.5 72.5L121.5 76.5L114 75L116 71L123.5 72.5Z"></path>
<path fill="#823E35" d="M121.5 76.5V80.5L114 79V75L121.5 76.5Z"></path>
<path fill="#4C2425" d="M123.5 72.5V76.5L121.5 80.5V76.5L123.5 72.5Z"></path>
<path fill="#803647" d="M119.5 80.1V84.1L114 83V79L119.5 80.1Z"></path>
<path fill="#4E1F31" d="M121.318 80.4636L119.5 84.1V80.1L121.318 80.4636Z"></path>
<path fill="#823E35" d="M97 99.9V104L94.5 103.5V99.4L97 99.9Z"></path>
<path fill="#4C2425" d="M98.0001 100.1V102L97 104V99.9L98.0001 100.1Z"></path>
<path fill="#F27257" d="M104.5 105.5L103.5 107.5L91.0001 105L93.8637 99.2727L94.5 99.4V103.5L97 104L98.0001 102V100.1L105 101.5L105.136 101.227L106.5 101.5L105.5 103.5L100.5 102.5L99.5001 104.5L104.5 105.5Z"></path>
<path fill="#823E35" d="M103.5 107.5V109.5L91.0001 107V105L103.5 107.5Z"></path>
<path fill="#823E35" d="M105.5 103.5V105.5L100.5 104.5L100.5 102.5L105.5 103.5Z"></path>
<path fill="#4C2425" d="M104.5 105.5V107.5L103.5 109.5V107.5L104.5 105.5Z"></path>
<path fill="#4C2425" d="M106.5 101.5L106.5 103.5L105.5 105.5V103.5L106.5 101.5Z"></path>
<path fill="#4C2425" d="M100.5 102.5L100.5 104.5L100.414 104.683L99.5001 104.5L100.5 102.5Z"></path>
</svg>
