<svg xmlns="http://www.w3.org/2000/svg" fill="none" viewBox="0 0 200 200" height="200" width="200">
<path fill="#8C702F" d="M93 78L103 80V82L108 83V85L110.5 85.5V87.5L108 87V89L100.5 87.5V89.5L95.5 88.5V92.5L100.5 93.5V95.5L108 97V99L110.5 99.5V101.5L108 101V103L103 102V104L93 102V100L88 99V97L85.5 96.5V92.5L83 92V84L85.5 84.5V80.5L88 81V79L93 80V78Z"></path>
<path fill="#FDC94F" d="M97 70L107 72L103 80L93 78L97 70Z"></path>
<path fill="#FDC94F" d="M107 74L112 75L108 83L103 82L107 74Z"></path>
<path fill="#FDC94F" d="M92 71L96.0909 71.8182L93 78V80L88 79L92 71Z"></path>
<path fill="#FDC94F" d="M89.5 72.5L91.0909 72.8182L88 79V81L85.5 80.5L89.5 72.5Z"></path>
<path fill="#FDC94F" d="M112 77L114.5 77.5L110.5 85.5L108 85L112 77Z"></path>
<path fill="#514221" d="M114.5 77.5L114.5 79.5L110.5 87.5V85.5L114.5 77.5Z"></path>
<path fill="#514221" d="M112 75V77L108 85V83L112 75Z"></path>
<path fill="#514221" d="M107 72V74L103 82V80L107 72Z"></path>
<path fill="#514221" d="M110.5 99.5L114.5 91.5V93.5L110.5 101.5V99.5Z"></path>
<path fill="#514221" d="M108 101L108.909 101.182L108 103V101Z"></path>
<path fill="#514221" d="M103 102L103.909 102.182L103 104V102Z"></path>
<path fill="#FDC94F" d="M87 76L87.6818 76.1364L85.5 80.5V84.5L83 84L87 76Z"></path>
<path fill="#514221" d="M108 97L112 89V91L108 99V97Z"></path>
<path fill="#514221" d="M100.5 93.5L103.227 88.0455L104.136 88.2273L100.5 95.5V93.5Z"></path>
<path fill="#514221" d="M100.5 87.5L101.409 87.6818L100.5 89.5V87.5Z"></path>
<path fill="#FDC94F" d="M112 91L114.5 91.5L110.5 99.5L108 99L112 91Z"></path>
<path fill="#FDC94F" d="M108 88.2L112 89L108 97L100.5 95.5L104.136 88.2273L108 89V88.2Z"></path>
<path fill="#FDC94F" d="M101.409 87.6818L103.227 88.0455L100.5 93.5L95.5 92.5V88.5L100.5 89.5L101.409 87.6818Z"></path>
<path fill="#514221" d="M95.5 88.5L97.3182 88.8636L95.5 92.5V88.5Z"></path>
<path fill="white" d="M100 129H102V130H103V131H104V130H105V129H107V137H105V133H104V134H103V133H102V137H100V129Z"></path>
<path fill="white" d="M115 129H117V130H118V131H119V129H121V137H119V134H118V133H117V137H115V129Z"></path>
<path fill="white" d="M93 130H94V129H99V131H95V132V134V135H99V137H94V136H93V130Z"></path>
<path fill="white" d="M86 130H87V129H91V130H92V137H90V131H88V132H90V134H88V135V137H87H86V136V130Z"></path>
<path fill="white" d="M108 130H109V129H113V130H114V137H112V131H110V132H112V134H110V135V137H109H108V136V130Z"></path>
<path fill="white" d="M79 129H84V130H85V133H84V134H81V132H83V131H81V132V134V137H79V129Z"></path>
</svg>
