<svg xmlns="http://www.w3.org/2000/svg" fill="none" viewBox="0 0 300 300" height="300" width="300">
<path fill="#AC4A3D" d="M166 158L174 142L34 114L26 130L166 158Z"></path>
<path fill="#964237" d="M162 144L164 140L149 137L147 141L162 144Z"></path>
<path fill="#964237" d="M163 153L165 149L150 146L148 150L163 153Z"></path>
<path fill="#964237" d="M132 138L134 134L124 132L122 136L132 138Z"></path>
<path fill="#964237" d="M115 139L117 135L102 132L100 136L115 139Z"></path>
<path fill="#964237" d="M143 149L145 145L125 141L123 145L143 149Z"></path>
<path fill="#964237" d="M121 149L123 145L113 143L111 147L121 149Z"></path>
<path fill="#964237" d="M97.9999 140L100 136L94.9999 135L92.9999 139L97.9999 140Z"></path>
<path fill="#964237" d="M82.9999 137L84.9999 133L74.9999 131L72.9999 135L82.9999 137Z"></path>
<path fill="#964237" d="M87 129L89 125L69 121L67 125L57 123L55 127L70 130L72 126L87 129Z"></path>
<path fill="#964237" d="M66 138L68 134L58 132L56 136L66 138Z"></path>
<path fill="#964237" d="M41 133L43 129L33 127L31 131L41 133Z"></path>
<path fill="#964237" d="M38 128L40.0001 124L35 123L33 127L38 128Z"></path>
<path fill="#964237" d="M52 122L54.0001 118L49 117L47 121L52 122Z"></path>
<path fill="#5F2A26" d="M166 158V166L26 138V130L166 158Z"></path>
<path fill="#C2615A" d="M166 158L174 142L169 141L161 157L166 158Z"></path>
<path fill="#C2615A" d="M31 131L39 115L34 114L26 130L31 131Z"></path>
<path fill="#3D1F27" d="M166 158L174 142V150L172 154V150L168 158V162L166 166V158Z"></path>
<path fill="#6A3638" d="M166 158V166L161 165V157L166 158Z"></path>
<path fill="#6A3638" d="M31 131V139L26 138V130L31 131Z"></path>
<path fill="#6A3638" d="M172 150V154L170.182 153.636L172 150Z"></path>
<path fill="#522522" d="M121 153V149L111 147V151L121 153Z"></path>
<path fill="#522522" d="M106 154V150L91 147V151L106 154Z"></path>
<path fill="#522522" d="M151 163V159L136 156V160L151 163Z"></path>
<path fill="#522522" d="M81.0001 149V145L66.0001 142V146L81.0001 149Z"></path>
<path fill="#522522" d="M66.0001 142V138L56 136V140L51 139L66.0001 142Z"></path>
<path fill="#522522" d="M41.0001 137V133L31 131V135L41.0001 137Z"></path>
<path fill="#522522" d="M51 143V139L46 138V142L51 143Z"></path>
</svg>
