<svg xmlns="http://www.w3.org/2000/svg" fill="none" viewBox="0 0 200 200" height="200" width="200">
<path fill="#28577F" d="M72.0003 92.0135L77.0003 93.0135V109.013L72.0003 108.013V92.0135Z"></path>
<path fill="#2E6393" d="M77.0003 93.0135L82.0003 94.0135V110.013L77.0003 109.013V93.0135Z"></path>
<path fill="#28577F" d="M82.0003 94.0135L87.0003 95.0135V111.013L82.0003 110.013V94.0135Z"></path>
<path fill="#2E6393" d="M87.0003 95.0135L92.0003 96.0135V112.013L87.0003 111.013V95.0135Z"></path>
<path fill="#28577F" d="M92.0003 96.0135L97.0003 97.0135V113.013L92.0003 112.013V96.0135Z"></path>
<path fill="#2E6393" d="M97.0003 97.0135L102 98.0135V114.013L97.0003 113.013V97.0135Z"></path>
<path fill="#28577F" d="M102 98.0135L107 99.0135V115.013L102 114.013V98.0135Z"></path>
<path fill="#2E6393" d="M107 99.0135L112 100.013V116.013L107 115.013V99.0135Z"></path>
<path fill="#1B3966" d="M112 100.013L114 96.0135V112.013L112 116.013V100.013Z"></path>
<path fill="#17335A" d="M114 96.0135L116 92.0135V108.013L114 112.013V96.0135Z"></path>
<path fill="#1B3966" d="M116 92.0135L118 88.0135V104.013L116 108.013V92.0135Z"></path>
<path fill="#17335A" d="M118 88.0135L120 84.0135V100.013L118 104.013V88.0135Z"></path>
<path fill="#1B3966" d="M120 84.0135L122 80.0135V96.0135L120 100.013V84.0135Z"></path>
<path fill="#17335A" d="M122 80.0135L124 76.0135L124 84L124 92.0135L122 96.0135V80.0135Z"></path>
<path fill="#1B3966" d="M124 76.0135L126 72.0135V88.0135L124 92.0135L124 84L124 76.0135Z"></path>
<path fill="#17335A" d="M126 72.0135L128 68.0135V84.0135L126 88.0135V72.0135Z"></path>
<path fill="#56AFE7" d="M74.0003 88.0135L79.0003 89.0135L77.0003 93.0135L72.0003 92.0135L74.0003 88.0135Z"></path>
<path fill="#6CBDF7" d="M79.0003 89.0135L84.0003 90.0135L82.0003 94.0135L77.0003 93.0135L79.0003 89.0135Z"></path>
<path fill="#56AFE7" d="M84.0003 90.0135L89.0003 91.0135L87.0003 95.0135L82.0003 94.0135L84.0003 90.0135Z"></path>
<path fill="#6CBDF7" d="M89.0003 91.0135L94.0003 92.0135L92.0003 96.0135L87.0003 95.0135L89.0003 91.0135Z"></path>
<path fill="#56AFE7" d="M94.0003 92.0135L99.0003 93.0135L97.0003 97.0135L92.0003 96.0135L94.0003 92.0135Z"></path>
<path fill="#6CBDF7" d="M99.0003 93.0135L104 94.0135L102 98.0135L97.0003 97.0135L99.0003 93.0135Z"></path>
<path fill="#56AFE7" d="M104 94.0135L109 95.0135L107 99.0135L102 98.0135L104 94.0135Z"></path>
<path fill="#6CBDF7" d="M109 95.0135L114 96.0135L112 100.013L107 99.0135L109 95.0135Z"></path>
<path fill="#56AFE7" d="M111 91.0135L116 92.0135L114 96.0135L109 95.0135L111 91.0135Z"></path>
<path fill="#6CBDF7" d="M113 87.0135L118 88.0135L116 92.0135L111 91.0135L113 87.0135Z"></path>
<path fill="#56AFE7" d="M115 83.0135L120 84.0135L118 88.0135L113 87.0135L115 83.0135Z"></path>
<path fill="#6CBDF7" d="M117 79.0135L122 80.0135L120 84.0135L115 83.0135L117 79.0135Z"></path>
<path fill="#56AFE7" d="M119 75.0135L124 76.0135L122 80.0135L117 79.0135L119 75.0135Z"></path>
<path fill="#6CBDF7" d="M121 71.0138L126 72.0135L124 76.0135L119 75.0135L121 71.0138Z"></path>
<path fill="#56AFE7" d="M123 67.0138L128 68.0135L126 72.0135L121 71.0138L123 67.0138Z"></path>
<path fill="#6CBDF7" d="M118 66.0166L123 67.0163L121 71.0163L116 70.0163L118 66.0166Z"></path>
<path fill="#6CBDF7" d="M76.0003 84.0138L81.0003 85.0135L79.0003 89.0135L74.0003 88.0135L76.0003 84.0138Z"></path>
<path fill="#56AFE7" d="M78.0003 80.0138L83.0003 81.0135L81.0003 85.0135L76.0003 84.0138L78.0003 80.0138Z"></path>
<path fill="#6CBDF7" d="M80.0003 76.0138L85.0003 77.0135L83.0003 81.0135L78.0003 80.0138L80.0003 76.0138Z"></path>
<path fill="#7C5344" d="M79.0003 85.0135L109 91.0135V95.0135L79.0003 89.0135V85.0135Z"></path>
<path fill="#47302E" d="M109 91.0135L121 67.0011V71.0011L109 95.0135V91.0135Z"></path>
<path fill="#8B878F" d="M79.0003 81.014L109 87.0139V91.0135L79.0003 85.0135V81.014Z"></path>
<path fill="#514F64" d="M109 87.0139L121 63.0016V67.0011L109 91.0135V87.0139Z"></path>
<path fill="#8D8B9F" d="M79.0003 77.0128L109 83.0128V87.0123L79.0003 81.0124V77.0128Z"></path>
<path fill="#52526E" d="M109 83.0128L121 59.0004V63L109 87.0123V83.0128Z"></path>
<path fill="#FFFBFF" d="M91.0003 53L121 59.0004L109 83.0128L79.0003 77.0128L91.0003 53Z"></path>
<path fill="#5E0C22" d="M93.0003 63.0135L103 65.0135V73.0128L93.0003 71.0128V63.0135Z"></path>
<path fill="#360717" d="M103 65.0135L107 57.017V65.0163L103 73.0128V65.0135Z"></path>
<path fill="#A91637" d="M93.0003 63.0135L97.0003 55.0188L107 57.0298L103 65.0264L93.0003 63.0135Z"></path>
<path fill="#BD173C" d="M95.0003 59.0168L97.0003 55.0188L102 56.0347L100 60.0342L95.0003 59.0168Z"></path>
<path fill="#8D4254" d="M67 99.0047L82 102.005V114.005L67 111.005V99.0047Z"></path>
<path fill="#95836C" d="M72.0003 108.013L72 104.013L77 105.013L77.0003 109.013L72.0003 108.013Z"></path>
<path fill="#783E31" d="M102 106.005L117 109.005V121.005L102 118.005V106.005Z"></path>
<path fill="#452422" d="M117 109.005L121 101.013V113.013L117 121.005V109.005Z"></path>
<path fill="#D9714E" d="M112 108.005L116 100.013L121 101.013L117 109.005L112 108.005Z"></path>
<path fill="#95836C" d="M107 115.013V111.013L112 112.013V116.013L107 115.013Z"></path>
<path fill="#FF7883" d="M67 99.0047L71 91.0135L72.3639 91.2863L72.0003 92.0135L72 100.005L67 99.0047Z"></path>
<path fill="#52273A" d="M82 102.005L82.0003 110.013L83.816 110.377L82 114.005V102.005Z"></path>
<path fill="#8D4254" d="M124 84.0135L129 85V97L122.182 95.6498L124 92.0135V84.0135Z"></path>
<path fill="#FF7883" d="M124 84.0135L128 76.0223L133 77.0223L129 85.0135L124 84.0135Z"></path>
<path fill="#52273A" d="M129 85.0135L133 77.0223V89.0223L129 97.0135L129 85.0135Z"></path>
</svg>
