<svg xmlns="http://www.w3.org/2000/svg" fill="none" viewBox="0 0 480 360" height="360" width="480">
<path stroke-width="2" stroke="white" fill="#56C6F8" d="M207 313H208V312V311H272V312V313H273H274V347H273H272V348V349H208V348V347H207H206V313H207Z"></path>
<path fill="#2CACE8" d="M207 342H209V344H271V342H273V346H271V348H209V346H207V342Z"></path>
<path fill="white" d="M230 318V338H232H234V337V336H236H238V335V334H240H242V333V332H244H246V331V330H248H250V329V328V327V326H248H246V325V324H244H242V323V322H240H238V321V320H236H234V319V318H232H230Z"></path>
</svg>
