<svg xmlns="http://www.w3.org/2000/svg" fill="none" viewBox="0 0 200 200" height="200" width="200">
<path fill="#946A52" d="M77.5 105.5L105 111V115L77.5 109.5V105.5Z"></path>
<path fill="#553D38" d="M105 111L120 81V85L105 115V111Z"></path>
<path fill="#FFBF81" d="M92.5 75.5L120 81L105 111L77.5 105.5L92.5 75.5Z"></path>
<path fill="#D46841" d="M88.7499 108.75L93.7499 109.75L91.7499 113.75L86.7499 112.75L88.7499 108.75Z"></path>
<path fill="#763927" d="M86.7499 112.75L91.7499 113.75V114.75L86.7499 113.75V112.75Z"></path>
<path fill="#43221B" d="M91.7499 113.75L93.7499 109.75V110.75L91.7499 114.75V113.75Z"></path>
<path fill="#D46841" d="M118.5 85.0002L122.25 85.7502L119.25 91.7501L115.5 91.0001L118.5 85.0002Z"></path>
<path fill="#763927" d="M115.5 91.0001L119.25 91.7501V93.7501L115.5 93.0001V91.0001Z"></path>
<path fill="#43221B" d="M119.25 91.7501L122.25 85.7502V87.7502L119.25 93.7501V91.7501Z"></path>
<path fill="#D46841" d="M89.0683 78.1137L91 78.5L88 84.4999L86.0683 84.1135L89.0683 78.1137Z"></path>
<path fill="#763927" d="M86.0683 84.1135L88 84.4999L86.0683 88.3633L87.0342 86.4316L86.0683 86.2384V84.1135Z"></path>
<path fill="#D46841" d="M103.5 76.5005L111 78.0005L110.455 79.091L102.955 77.5909L103.5 76.5005Z"></path>
<path fill="#43221B" d="M110.455 79.091L111 78.0005V79.2L110.455 79.091Z"></path>
<path fill="#832B21" d="M106 77.0005L108.5 77.5005L107.955 78.591L105.455 78.0909L106 77.0005Z"></path>
</svg>
