<svg xmlns="http://www.w3.org/2000/svg" fill="none" viewBox="0 0 200 200" height="200" width="200">
<path fill="#BE6EC6" d="M121 109L129 93L29.0003 73L21.0003 89L121 109Z"></path>
<path fill="#4D2A6E" d="M121 117L129 101V93L121 109V117Z"></path>
<path fill="#5A3262" d="M21.0003 97L121 117V109L21.0003 89V97Z"></path>
<path fill="#5C4094" d="M21.0003 97L41.0003 101V93L21.0003 89V97Z"></path>
<path fill="#5C4094" d="M61.0003 105L81.0003 109V101L61.0003 97V105Z"></path>
<path fill="#5C4094" d="M101 113L121 117V109L101 105V113Z"></path>
<path fill="#C086FE" d="M101 105L121 109L129 93L109 89L101 105Z"></path>
<path fill="#C086FE" d="M61.0003 97L81.0003 101L89.0003 85L69.0003 81L61.0003 97Z"></path>
<path fill="#C086FE" d="M21.0003 89L41.0003 93L49.0003 77L29.0003 73L21.0003 89Z"></path>
<path fill-opacity="0.1" fill="white" d="M28.0003 86L38.0003 88L42.0003 80L32.0003 78L28.0003 86Z"></path>
<path fill-opacity="0.1" fill="white" d="M48.0003 90L58.0003 92L62.0003 84L52.0003 82L48.0003 90Z"></path>
<path fill-opacity="0.1" fill="white" d="M68.0003 94L78.0003 96L82.0003 88L72.0003 86L68.0003 94Z"></path>
<path fill-opacity="0.1" fill="white" d="M88.0003 98L98.0003 100L102 92L92.0003 90L88.0003 98Z"></path>
<path fill-opacity="0.1" fill="white" d="M108 102L118 104L122 96L112 94L108 102Z"></path>
<path fill="#493C82" d="M126 119L128 115V103L126 107V119Z"></path>
<path fill="#5D52A2" d="M123 118.4L126 119V107L123 113V118.4Z"></path>
<path fill="#493C82" d="M106 134L108 130V114.4L106 114V134Z"></path>
<path fill="#5D52A2" d="M101 133L106 134V114L101 113V133Z"></path>
<path fill="#493C82" d="M112 122L114 118V115.6L112 115.2V122Z"></path>
<path fill="#5D52A2" d="M108 121.2L112 122V115.2L108 114.4V121.2Z"></path>
<path fill="#493C82" d="M121 129L123 125V113L121 117V129Z"></path>
<path fill="#5D52A2" d="M116 128L121 129V117L116 116V128Z"></path>
<path fill="#493C82" d="M86.0003 111L86.4549 110.091L86.0003 110V111Z"></path>
<path fill="#5D52A2" d="M83.0003 110.4L86.0003 111V110L83.0003 109.4V110.4Z"></path>
<path fill="#493C82" d="M66.0003 126L68.0003 122V106.4L66.0003 106V126Z"></path>
<path fill="#5D52A2" d="M61.0003 125L66.0003 126V106L61.0003 105V125Z"></path>
<path fill="#493C82" d="M72.0003 114L74.0003 110V107.6L72.0003 107.2V114Z"></path>
<path fill="#5D52A2" d="M68.0003 113.2L72.0003 114V107.2L68.0003 106.4V113.2Z"></path>
<path fill="#493C82" d="M81.0003 121L83.0003 117V109.4L81.0003 109V121Z"></path>
<path fill="#5D52A2" d="M76.0003 120L81.0003 121V109L76.0003 108V120Z"></path>
<path fill="#493C82" d="M46 103L46.4545 102.091L46 102V103Z"></path>
<path fill="#5D52A2" d="M43 102.4L46 103V102L43 101.4V102.4Z"></path>
<path fill="#493C82" d="M26 118L28 114V98.4L26 98V118Z"></path>
<path fill="#5D52A2" d="M21 117L26 118V98L21.0003 97L21 117Z"></path>
<path fill="#493C82" d="M32 106L34 102V99.6L32 99.2V106Z"></path>
<path fill="#5D52A2" d="M28 105.2L32 106V99.2L28 98.4V105.2Z"></path>
<path fill="#493C82" d="M41 113L43 109V101.4L41.0003 101L41 113Z"></path>
<path fill="#5D52A2" d="M36 112L41 113L41.0003 101L36 100V112Z"></path>
<path fill="#61497D" d="M96.0007 124L101.001 125L101 113L96.0007 112V124Z"></path>
<path fill="#513765" d="M108 123L109 121L108 121.2V123Z"></path>
<path fill="#513765" d="M86.0003 126L88.0003 122V110.4L86.0003 110V126Z"></path>
<path fill="#61497D" d="M81.0003 125L86.0003 126V110L81.0003 109V125Z"></path>
<path fill="#513765" d="M89.0007 116L91.0007 112V111L89.0007 110.6V116Z"></path>
<path fill="#61497D" d="M88.0003 115.8L89.0007 116V110.6L88.0003 110.4V115.8Z"></path>
<path fill="#61497D" d="M56.0007 116L61.0007 117L61.0003 105L56.0007 104V116Z"></path>
<path fill="#513765" d="M46.0003 118L48.0003 114V102.4L46 102L46.0003 118Z"></path>
<path fill="#61497D" d="M41.0003 117L46.0003 118L46 102L41.0003 101V117Z"></path>
<path fill="#513765" d="M49.0007 108L51.0007 104V103L49.0007 102.6V108Z"></path>
<path fill="#61497D" d="M48.0003 107.8L49.0007 108V102.6L48.0003 102.4V107.8Z"></path>
</svg>
