<svg xmlns="http://www.w3.org/2000/svg" fill="none" viewBox="0 0 200 200" height="200" width="200">
<path fill="#2E1E76" d="M82 75L102 79V99L82 95V75Z"></path>
<path fill="#281658" d="M102 79L108 67V87L102 99V79Z"></path>
<path fill="#633FE1" d="M88 63L108 67L102 79L82 75L88 63Z"></path>
<path fill="#2E5C93" d="M85 92L95 94V98L85 96V92Z"></path>
<path fill="#234674" d="M95 94L97 90V94L95 98V94Z"></path>
<path fill="#63C3FF" d="M87 88L97 90L95 94L85 92L87 88Z"></path>
<path fill="#606EAB" d="M87 80L92 81V85L87 84V80Z"></path>
<path fill="#2E5C93" d="M89.001 64L109.001 68V84L119.001 86V90L114.001 89V93L119.001 94V98L104.001 94.9981V74.9981L89.001 72V64Z"></path>
<path fill="#234674" d="M109.001 68L111.001 64V80L109.001 84V68Z"></path>
<path fill="#63C3FF" d="M91.001 60L111.001 64L109.001 68L89.001 64L91.001 60Z"></path>
<path fill="#63C3FF" d="M111.001 80L121.001 82L119.001 86L109.001 84L111.001 80Z"></path>
<path fill="#63C3FF" d="M115.819 89.3636L119.001 90L119.183 89.6364L121.001 90L119.001 94L114.001 93L115.819 89.3636Z"></path>
<path fill="#234674" d="M119.001 86L121.001 82V86L119.001 90V86Z"></path>
<path fill="#234674" d="M119.001 94L121.001 90V94L119.001 98V94Z"></path>
<path fill="#234674" d="M114.001 89L115.819 89.3636L114.001 93V89Z"></path>
<path fill="#2E1E76" d="M104.001 87L109.001 88V92L104.001 91V87Z"></path>
</svg>
