<svg xmlns="http://www.w3.org/2000/svg" fill="none" viewBox="0 0 200 200" height="200" width="200">
<path fill="#8F6536" d="M94.0154 104.029L124.016 110.029V114.029L94.0154 108.029V104.029Z"></path>
<path fill="#1C428F" d="M94.0154 100.029L124.016 106.029V110.029L94.0154 104.029V100.029Z"></path>
<path fill="#2D54AB" d="M94.0154 80.0289L119.015 85.0289V97.029L124.016 98.029V106.029L94.0154 100.029V80.0289Z"></path>
<path fill="#533B25" d="M124.016 110.029L136 86V90L124.016 114.029V110.029Z"></path>
<path fill="#102664" d="M124.016 106.029L128.016 98.029V102.029L132.016 94.029V90.0289L136 82V86L124.016 110.029V106.029Z"></path>
<path fill="#1A3178" d="M124.016 98.029L136 74V82L132.016 90.0289V94.029L128.016 102.029V98.029L124.016 106.029V98.029Z"></path>
<path fill="#1A3178" d="M119.015 85.0289L131.016 61.0289V73.029L119.015 97.029V85.0289Z"></path>
<path fill="#5297FF" d="M94.0154 80.0289L106.015 56.028L131.016 61.0289L119.015 85.0289L94.0154 80.0289Z"></path>
<path fill="#5297FF" d="M119.015 97.029L131.016 73.029L136 74L124.016 98.029L119.015 97.029Z"></path>
<path fill="#534218" d="M119.015 89.027L131.016 65.027V73.029L119.015 97.029V89.027Z"></path>
<path fill="#8F7223" d="M104.015 86.0251L119.015 89.027V97.029L104.015 94.027V86.0251Z"></path>
<path fill="#8995CB" d="M96.0154 68.0269L111.015 71.0288V75.028L116.015 76.0297V80.0307L96.0154 76.0288V68.0269Z"></path>
<path fill="#F9FFFF" d="M104.015 52.0288L119.015 55.0307L111.015 71.0288L96.0154 68.0269L104.015 52.0288Z"></path>
<path fill="#F9FFFF" d="M119.015 59.0299L124.016 60.0316L116.015 76.0297L111.015 75.028L119.015 59.0299Z"></path>
<path fill="#4F588B" d="M124.016 60.0316V64.0326L116.015 80.0307V76.0297L124.016 60.0316Z"></path>
<path fill="#4F588B" d="M119.015 55.0289V59.0299L111.015 75.028V71.027L119.015 55.0289Z"></path>
<path fill="#4F588B" d="M128.016 94.028V98.029L126.016 102.027V98.0261L128.016 94.028Z"></path>
<path fill="#4F588B" d="M134.016 82.0298V86.0308L132.016 90.0289V86.028L134.016 82.0298Z"></path>
<path fill="#542B54" d="M122.016 64.0326V68.0335L120.016 72.0317V68.0307L122.016 64.0326Z"></path>
<path fill="#FF83C3" d="M117.015 63.0308L122.016 64.0326L120.016 68.0307L115.015 67.0289L117.015 63.0308Z"></path>
<path fill="#FF83C3" d="M100.015 60.0278L105.015 61.0296L103.015 65.0277L98.0154 64.0259L100.015 60.0278Z"></path>
<path fill="#4F6EBF" d="M100.015 72.8298L105.015 73.8316V77.8296L100.015 76.8279V72.8298Z"></path>
<path fill="#ADDB7C" d="M109.015 53.0283L114.015 54.0301L112.015 58.0282L107.015 57.0264L109.015 53.0283Z"></path>
<path fill="#391D20" d="M99.0155 101.027L114.015 104.029L114 116L99.0155 113.029V101.027Z"></path>
<path fill="#832630" d="M104.015 106.029L109.015 107.031V111.029L104.015 110.027V106.029Z"></path>
<path fill="#201116" d="M114.015 112.033L115.834 112.393L114 116L114.015 112.033Z"></path>
<path fill="#142E76" d="M114.015 96.0283V104.029L112.015 108.027V100.026L114.015 96.0283Z"></path>
<path fill="#428BFF" d="M109.015 95.0266L114.015 96.0283L112.015 100.026L107.015 99.0247L109.015 95.0266Z"></path>
<path fill="#244EA7" d="M107.015 99.0247L112.015 100.026V108.027L107.015 107.026V99.0247Z"></path>
<path fill="#6D392A" d="M94.0154 84.0238L104.015 86.0251V94.027L94.0154 92.0257V84.0238Z"></path>
<path fill="#48061F" d="M104.006 74.028V98.0286L102.006 102.027V78.0261L104.006 74.028Z"></path>
<path fill="#E1144A" d="M89.0061 71.0262L104.006 74.028L102.006 78.0261L87.0061 75.0244L89.0061 71.0262Z"></path>
<path fill="#7D0B2E" d="M87.0061 75.0244L102.006 78.0261V102.027L97.0061 101.025V81.0194L87.0061 79.0243V75.0244Z"></path>
<path fill="#607A4C" d="M97.0061 97.0272L102.006 98.029V102.027L97.0061 101.025V97.0272Z"></path>
<path fill="#374735" d="M102.006 98.029L104.006 94.0305V98.0286L102.006 102.027V98.029Z"></path>
<path fill="#607A4C" d="M97.0061 89.025L102.006 90.0268V94.0249L97.0061 93.0231V89.025Z"></path>
<path fill="#374735" d="M102.006 90.0268L104.006 86.0283V90.0264L102.006 94.0249V90.0268Z"></path>
<path fill="#607A4C" d="M97.0061 81.0194L102.006 82.0212V86.0193L97.0061 85.0175V81.0194Z"></path>
<path fill="#374735" d="M102.006 82.0212L104.006 78.0227V82.0208L102.006 86.0193V82.0212Z"></path>
<path fill="#607A4C" d="M92.0061 76.0195L97.0061 77.0213V81.0194L92.0061 80.0176V76.0195Z"></path>
<path fill="#ADDB7C" d="M94.0061 72.0214L99.0061 73.0232L97.0061 77.0213L92.0061 76.0195L94.0061 72.0214Z"></path>
<path fill="#48061F" d="M118.016 46.039V54.8306L116.016 54.4303V50.0371L118.016 46.039Z"></path>
<path fill="#E1144A" d="M103.015 43.0373L118.016 46.039L116.016 50.0371L101.015 47.0354L103.015 43.0373Z"></path>
<path fill="#7D0B2E" d="M101.015 47.0354L116.016 50.0371V54.4303L111.015 53.4297V53.0304L101.015 51.0354V47.0354Z"></path>
<path fill="#607A4C" d="M106.015 48.0306L111.015 49.0323V53.0304L106.015 52.0287V48.0306Z"></path>
<path fill="#ADDB7C" d="M108.015 44.0324L113.015 45.0342L111.015 49.0323L106.015 48.0306L108.015 44.0324Z"></path>
<path fill="#607A4C" d="M111.015 53.0304L116.016 54.0322V54.4303L111.015 53.4297V53.0304Z"></path>
<path fill="#374735" d="M116.016 54.0322L118.016 50.0337V54.8306L116.016 54.4303V54.0322Z"></path>
<path fill="#8F6536" d="M90.9976 95.0289L94.0154 95.6325V99.6325L90.9976 99.0289V95.0289Z"></path>
<path fill="#8F6536" d="M93.0074 83.0267L94.0154 83.2283V91.2283L93.0074 91.0267V83.0267Z"></path>
<path fill="#FFB356" d="M93.0074 91.0267L94.0154 91.2283V95.6325L90.9976 95.0289L93.0074 91.0267Z"></path>
<path fill="#FFB356" d="M94.0154 81.015V83.2283L93.0074 83.0267L94.0154 81.015Z"></path>
<path fill="#4E3B31" d="M91.0005 63.0286L99.0005 47.0286V62.0286L96.0154 68.0269V72.424L89.0061 71.0262L87.0186 75.0312L87.0061 79.0243L94.0154 80.4227V81.015L93.0074 83.0267V91.0267L90.9976 95.0289L91.0005 99.0286V79.8212L87.0061 79.0243L87.0186 75.0312L89.0061 71.0262L91.0005 71.4239V63.0286Z"></path>
<path fill="#876548" d="M16 48L91.0005 63.0286V71.4239L89.0061 71.0262L87.0186 75.0312L87.0061 79.0243L91.0005 79.8212V99.0286L16 84V48Z"></path>
<path fill="#F5B572" d="M24 32L99.0005 47.0286L91.0005 63.0286L16 48L24 32Z"></path>
<path fill="#FFEDAB" d="M22 36L97.0005 51.0286L93.0005 59.0286L18 44.0286L22 36Z"></path>
<path fill="#564E4A" d="M97.0005 51.0286L97.1007 65.8315L96.0154 68.0269V72.4289L93.0005 71.8228V59.0286L97.0005 51.0286Z"></path>
<path fill="#896F5A" d="M21 53.0283L86.0186 66.0312L86.0005 94.0283L21 81.0283V53.0283Z"></path>
<path fill="#938B97" d="M26 58.0283L81.0186 69.0312L81.0005 81.0283L31.0186 71.0312V75.0312L81.0186 85.0289V89.0312L26 78.0312V66.0312L76.0186 76.0312V72.0312L26 62.0283V58.0283Z"></path>
<path fill="#958BBB" d="M73.0186 95.4303L88.0186 98.4323V106.035L73.0186 103.033V95.4303Z"></path>
<path fill="#607A4C" d="M78.0185 96.4305L83.0185 97.4323V101.033L78.0185 100.031V96.4305Z"></path>
<path fill="#56527F" d="M88.0186 98.4323L91.4733 99.1241L88.0186 106.035V98.4323Z"></path>
<path fill="#8F4A7A" d="M23.0234 85.4264L38.0235 88.4283V96.0312L23.0234 93.0293V85.4264Z"></path>
<path fill="#607A4C" d="M28.0234 86.4266L33.0234 87.4283V91.0293L28.0234 90.0275V86.4266Z"></path>
<path fill="#542B54" d="M38.0235 88.4283L41.4781 89.1201L38.0235 96.0312V88.4283Z"></path>
</svg>
