<svg xmlns="http://www.w3.org/2000/svg" fill="none" viewBox="0 0 960 60" height="60" width="960">
<rect fill="#EC5B2E" height="60" width="960"></rect>
<path stroke-width="2" stroke="white" fill="#56C6F8" d="M279 13H280V12V11H344V12V13H345H346V47H345H344V48V49H280V48V47H279H278V13H279Z"></path>
<path fill="white" d="M335 21L325 21L325 23L323 23L323 33L325 33L325 35L335 35L335 33L337 33L337 23L335 23L335 21Z"></path>
<path fill="#56C6F8" d="M333 24.999L327 24.999L327 30.999L333 30.999L333 28.999L329 28.999L329 26.999L333 26.999L333 24.999Z"></path>
<path fill="white" d="M298 20L296 20L296 26L289 26L289 22L294 22L294 23L296 23L296 22L296 20L296 18L292 18L292 20L287 20L287 26L296 26L296 27L289 27L289 26L287 26L287 29L289 29L289 37L296 37L296 35L291 35L291 29L296 29L296 37L298 37L298 29L303 29L303 35L298 35L298 37L305 37L305 29L307 29L307 26L305 26L305 27L298 27L298 26L307 26L307 20L302 20L302 18L298 18L298 20L298 22L298 23L300 23L300 22L305 22L305 26L298 26L298 22L298 20Z"></path>
<path fill="#2CACE8" d="M279 42H281V44H343V42H345V46H343V48H281V46H279V42Z"></path>
<path fill="white" d="M312 23L317 28L312 33V23Z"></path>
<path fill="white" d="M245 24V22H247H257V26H253V34V38H249V34V26H245V24Z"></path>
<path fill="white" d="M217 24V22H219H229V26H225V34H229V38H217V34H221V26H217V24Z"></path>
<path fill="white" d="M203 24H205V22H215V26H207V28V32V34H211V32H209V28H215V36V38H213H205V36H203V24Z"></path>
<path fill="white" d="M161 24H163V22H173V26H165V28H169V32H165V34H173V38H163V36H161V24Z"></path>
<path fill="white" d="M175 24H177V22H187V26H179V28H183V32H179V34H187V38H177V36H175V24Z"></path>
<path fill="white" d="M147 22H157V24H159V30H157V32H159V38H155V34H153V32H151V28H155V26H151V28V32V38H147V22Z"></path>
<path fill="white" d="M133 24H135V22H145V26H137V28H141V32H137V34V38H135H133V36V24Z"></path>
<path fill="white" d="M231 24H233V22H243V26H235V28H239V32H235V34V38H233H231V36V24Z"></path>
</svg>
