<svg xmlns="http://www.w3.org/2000/svg" fill="none" viewBox="0 0 200 200" height="200" width="200">
<path fill="#151515" d="M141.5 86L146.5 87V119L141.5 118V86Z"></path>
<path fill="black" d="M146.5 87L161.5 57V89L146.5 119V87Z"></path>
<path fill="#252525" d="M156.5 56L161.5 57L146.5 87L141.5 86L156.5 56Z"></path>
<path fill="#151515" d="M137.5 85L141.591 85.8182L141.5 86V113.8L137.5 113V85Z"></path>
<path fill="#252525" d="M150.5 59L154.591 59.8182L141.591 85.8182L137.5 85L150.5 59Z"></path>
<path fill="#151515" d="M86.5 75L136.5 85V117L86.5 107V75Z"></path>
<path fill="black" d="M136.5 85L151.5 55V59.2L150.5 59L137.5 85V113L138.409 113.182L136.5 117V85Z"></path>
<path fill="#252525" d="M101.5 45L151.5 55L136.5 85L86.5 75L101.5 45Z"></path>
<path fill="#151515" d="M82.5 74L86.5909 74.8182L86.5 75V102.8L82.5 102V74Z"></path>
<path fill="#252525" d="M95.5 48L99.5909 48.8182L86.5909 74.8182L82.5 74L95.5 48Z"></path>
<path fill="#151515" d="M78.5 73L82.5909 73.8182L82.5 74V97.8L78.5 97V73Z"></path>
<path fill="#252525" d="M89.5 51L93.5909 51.8182L82.5909 73.8182L78.5 73L89.5 51Z"></path>
<path fill="#151515" d="M77 72.5L78.5909 72.8182L78.5 73V92.8L77 92.5V72.5Z"></path>
<path fill="#252525" d="M86 54.5L87.5909 54.8182L78.5909 72.8182L77 72.5L86 54.5Z"></path>
<path fill="#151515" d="M75.5 72L77.0909 72.3182L77 72.5V88.3L75.5 88V72Z"></path>
<path fill="#252525" d="M82.5 58L84.0909 58.3182L77.0909 72.3182L75.5 72L82.5 58Z"></path>
<path fill="#151515" d="M75 71.5L75.6818 71.6364L75.5 72V79.6V79.75L75 79.5V71.5Z"></path>
<path fill="#252525" d="M79 63.5L79.6818 63.6364L75.6818 71.6364L75 71.5L79 63.5Z"></path>
<path fill="#252525" d="M159.5 89L154.5 88L148.5 100V111L159.5 89Z"></path>
<path fill="#151515" d="M154.5 75L159.5 65V89L154.5 88V75Z"></path>
<path fill="white" d="M116.5 92L121.5 93L116.5 103L106.5 101L108.5 97L113.5 98L116.5 92Z"></path>
<path fill="#D9D9D9" d="M106.5 101L116.5 103V107L106.5 105V101Z"></path>
<path fill="#9A9A9A" d="M116.5 103L121.5 93V97L116.5 107V103Z"></path>
<path fill="white" d="M99 93L109 95L106 101L96 99L99 93Z"></path>
<path fill="#D9D9D9" d="M96 99L106 101V107L96 105V99Z"></path>
<path fill="#9A9A9A" d="M106 101L109 95V97.1L108.5 97L106.5 101V105L106.955 105.091L106 107V101Z"></path>
<path fill="#D9D9D9" d="M82.5 74.0001L86.5909 74.8183L86.5 75V82.8001L85 82.5001V84.5001L82.5 84.0001V74.0001Z"></path>
<path fill="#D9D9D9" d="M78.5 75.0001L81 75.5001V73.5001L82.5909 73.8183L82.5 74.0001V81.8001L78.5 81.0001V75.0001Z"></path>
<path fill="#D9D9D9" d="M77 76.5V72.5L78.5909 72.8182L78.5 73V76.8L77 76.5Z"></path>
</svg>
