<svg xmlns="http://www.w3.org/2000/svg" fill="none" viewBox="0 0 200 200" height="200" width="200">
<path fill="#50F539" d="M92.0005 90.9995L104.5 93.4995V101.499L92.0005 98.9995V90.9995Z"></path>
<path fill="#3BC52A" d="M104.5 93.4995L107.5 87.4995V95.4995L104.5 101.499V93.4995Z"></path>
<path fill="#50F539" d="M86.0005 75.9995L108.5 80.4995V96.4995L86.0005 91.9995V75.9995Z"></path>
<path fill="#3BC52A" d="M108.5 80.4995L113.5 70.4995V86.4995L108.5 96.4995V80.4995Z"></path>
<path fill="#7CFF57" d="M91.0005 66.0001L113.5 70.4995L108.5 80.4982L86.0005 75.9995L91.0005 66.0001Z"></path>
<path fill="#3BC52A" d="M88.5005 86.4996L89.4096 86.6814L88.5005 88.4996V86.4996Z"></path>
<path fill="#7CFF57" d="M88.5005 88.4996L89.4096 86.6814L88.5005 86.4996L106 89.9996L106 91.9996L88.5005 88.4996Z"></path>
<path fill="#ECFFFB" d="M91.0005 86.9996L96.0005 87.9996V89.9996L91.0005 88.9996V86.9996Z"></path>
<path fill="#ECFFFB" d="M98.5004 88.4996L103.5 89.4996V91.4996L98.5004 90.4996V88.4996Z"></path>
<path fill="#B5FABF" d="M96.0005 87.9996L96.9095 88.1814L96.0005 89.9996V87.9996Z"></path>
<path fill="#B5FABF" d="M103.5 89.4996L104.409 89.6814L103.5 91.4996V89.4996Z"></path>
<path fill="#ECFFFB" d="M87.5005 80.4996L95.0005 81.9996V87.9996L87.5005 86.4996V80.4996Z"></path>
<path fill="#ECFFFB" d="M97.5005 82.4996L105 83.9996V89.9996L97.5005 88.4996V82.4996Z"></path>
<path fill="white" d="M88.5005 78.4996L96.0005 79.9996L95.0005 81.9996L87.5005 80.4996L88.5005 78.4996Z"></path>
<path fill="white" d="M98.5005 80.4996L106 81.9996L105 83.9996L97.5005 82.4996L98.5005 80.4996Z"></path>
<path fill="#B5FABF" d="M96.0005 79.9996V85.9996L95.0005 87.9996V81.9996L96.0005 79.9996Z"></path>
<path fill="#B5FABF" d="M106 81.9996V87.9996L105 89.9996V83.9996L106 81.9996Z"></path>
<path fill="#3ABF25" d="M92.0005 98.9995L104.5 101.499V99.4996L92.0005 96.9996V98.9995Z"></path>
<path fill="#279D15" d="M104.5 101.499L107.5 95.4995L107.137 96.2267L106.228 96.0449L104.5 99.4996V101.499Z"></path>
<path fill="#423522" d="M90.0005 82.9996L92.5005 83.4996V85.4996L90.0005 84.9996V82.9996Z"></path>
<path fill="#423522" d="M100 84.9995L102.5 85.4995V87.4995L100 86.9995V84.9995Z"></path>
<path fill="#3ABF25" d="M98.0005 70.0032L100.5 70.5032V74.5032L98.0005 74.0032V70.0032Z"></path>
<path fill="#279D15" d="M100.5 70.5032L101.5 68.5032V72.5032L100.5 74.5032V70.5032Z"></path>
<path fill="#7FFF4A" d="M94.5005 65.5027L102 67.0027V73.0027L94.5005 71.5027V65.5027Z"></path>
<path fill="#5DD536" d="M102 67.0027L105 61.0027V67.0027L102 73.0027V67.0027Z"></path>
<path fill="#C1FF6E" d="M97.5005 59.5L105 61L102 67.0027L94.5005 65.5027L97.5005 59.5Z"></path>
<path fill="#5DD536" d="M105.5 99.4996L106.501 97.4991V99.4996L105.5 101.5V99.4996Z"></path>
<path fill="#7FFF4A" d="M105.5 99.4996V101.5L104.591 101.318L105.5 99.4996Z"></path>
</svg>
