<svg xmlns="http://www.w3.org/2000/svg" fill="none" viewBox="0 0 480 360" height="360" width="480">
<path stroke-width="2" stroke="white" fill="#56C6F8" d="M282 227H281V113H282H283V112V111H437V112V113H438H439V227H438H437V228V229H283V228V227H282Z"></path>
<path stroke="white" fill="#56C6F8" d="M341 151.5H341.5V151V150.5H378.5V151V151.5H379H379.5V188.5H379H378.5V189V189.5H341.5V189V188.5H341H340.5V151.5H341Z"></path>
<path stroke-width="2" stroke="white" fill="#56C6F8" d="M391 152H392V151H428V152H429V188H428V189H392V188H391V152Z"></path>
<path fill="white" d="M405 165V175H406H407V174.5V174H408H409V173.5V173H410H411V172.5V172H412H413V171.5V171H414H415V170.5V170V169.5V169H414H413V168.5V168H412H411V167.5V167H410H409V166.5V166H408H407V165.5V165H406H405Z"></path>
<path stroke="white" fill="#56C6F8" d="M291 151.5H291.5V151V150.5H328.5V151V151.5H329H329.5V188.5H329H328.5V189V189.5H291.5V189V188.5H291H290.5V151.5H291Z"></path>
<path stroke-width="2" stroke="white" fill="#56C6F8" d="M42 227H41V113H42H43V112V111H197V112V113H198H199V227H198H197V228V229H43V228V227H42Z"></path>
<path stroke="white" fill="#56C6F8" d="M51 201.5H51.5V201V200.5H74.5V201V201.5H75H75.5V218.5H75H74.5V219V219.5H51.5V219V218.5H51H50.5V201.5H51Z"></path>
<path stroke="white" fill="#56C6F8" d="M165 201.5H165.5V201V200.5H188.5V201V201.5H189H189.5V218.5H189H188.5V219V219.5H165.5V219V218.5H165H164.5V201.5H165Z"></path>
<path stroke="white" fill="#56C6F8" d="M165 121.5H165.5V121V120.5H188.5V121V121.5H189H189.5V138.5H189H188.5V139V139.5H165.5V139V138.5H165H164.5V121.5H165Z"></path>
<path stroke-width="2" stroke="white" fill="#56C6F8" d="M129 122H130V121H152V122H153V138H152V139H130V138H129V122Z"></path>
<path fill="white" d="M140 128L140 133L141 133L141 128L143 128L143 127L142 127L142 126L141 126L141 125L140 125L140 126L139 126L139 127L138 127L138 128L140 128Z"></path>
<path fill="white" d="M137 135L144 135L144 134L137 134L137 135Z"></path>
<path stroke="white" fill="#56C6F8" d="M165 171.5H165.5V171V170.5H188.5V171V171.5H189H189.5V188.5H189H188.5V189V189.5H165.5V189V188.5H165H164.5V171.5H165Z"></path>
<path fill="white" d="M133.5 84H141V85.5H142.5V90H141V91.5H136.5V88.5H139.5V87H136.5V88.5V91.5V96H133.5V84Z"></path>
<path fill="white" d="M102.5 84H105.5V85.5H107V87H108.5V84H111.5V96H108.5V91.5H107V90H105.5V96H102.5V84Z"></path>
<path fill="white" d="M165 85.5V84H166.5H168V88.5H171V84H174V90H172.5V91.5H171V96H168V91.5H166.5V90H165V85.5Z"></path>
<path fill="white" d="M50.5 85.5H52V84H58V85.5H59.5V96H56.5V87H53.5V88.5H56.5V91.5H53.5V93V96H52H50.5V94.5V85.5Z"></path>
<path fill="white" d="M92 85.5H93.5V84H99.5V85.5H101V96H98V87H95V88.5H98V91.5H95V93V96H93.5H92V94.5V85.5Z"></path>
<path fill="white" d="M154.5 85.5H156V84H162V85.5H163.5V96H160.5V87H157.5V88.5H160.5V91.5H157.5V93V96H156H154.5V94.5V85.5Z"></path>
<path fill="white" d="M71.5 85.5H73V84H80.5V87H74.5V88.5H77.5V91.5H74.5V93H80.5V96H73V94.5H71.5V85.5Z"></path>
<path fill="white" d="M113 85.5V84H114.5H120.5V85.5H122V87H119H116V93H119V87H122V94.5H120.5V96H114.5H113V94.5V85.5Z"></path>
<path fill="white" d="M144 85.5V84H145.5H147V87V93H153V96H145.5V94.5H144V87V85.5Z"></path>
<path fill="white" d="M40 85.5H41.5V84H49V87H43V88.5H47.5V90H49V94.5H47.5V96H40V93H46V91.5H41.5V90H40V85.5Z"></path>
<path fill="white" d="M70 85.5V84H68.5H67V87V91.5H64V84H61V93H62.5V94.5H64V96H67V94.5H68.5V93H70V87V85.5Z"></path>
<path fill="white" d="M132 258H134V259H135V260H136V258H138V266H136V263H135V262H134V266H132V258Z"></path>
<path fill="white" d="M103 238H105V239H106V240H107V238H109V246H107V243H106V242H105V246H103V238Z"></path>
<path fill="white" d="M125 259H126V258H130V259H131V260H129H127V264H129V260H131V265H130V266H126V265H125V259Z"></path>
<path fill="white" d="M96 239H97V238H101V239H102V240H100H98V244H100V240H102V245H101V246H97V245H96V239Z"></path>
<path fill="white" d="M54 239H55V238H60V240H56V241V243V244H60V246H55V245H54V239Z"></path>
<path fill="white" d="M75 239H76V238H81V240H77V241V243V244H81V246H76V245H75V239Z"></path>
<path fill="white" d="M110 259V258H109H108V260V264H106V258H104V265H105V266H109V265H110V260V259Z"></path>
<path fill="white" d="M117 239V238H118H123V240H121V244V246H119V244V240H117V239Z"></path>
<path fill="white" d="M131 239H132V238H137V240H133V241H135V243H133V244H137V246H132V245H131V239Z"></path>
<path fill="white" d="M68 239V238H69H74V240H72V244H74V246H68V244H70V240H68V239Z"></path>
<path fill="white" d="M111 259V258H112H117V260H115V264V266H113V264V260H111V259Z"></path>
<path fill="white" d="M118 259V258H119H124V260H122V264V266H120V264V260H118V259Z"></path>
<path fill="white" d="M139 258H141V260V263H139V260V258Z"></path>
<path fill="white" d="M139 264H141V266H139V264Z"></path>
<path fill="white" d="M129 238L130 238L130 239L130 246L128 246L128 243L126 243L126 246L124 246L124 238L126 238L126 241L128 241L128 238L129 238Z"></path>
<path fill="white" d="M97 258H102V259H103V261H102V263H103V265H102V266H99V264H101V263H100H99V261H101V260H99V261V263V266H97V258Z"></path>
<path fill="white" d="M61 239V238H62H63V240V244H67V246H62V245H61V240V239Z"></path>
<path fill="white" d="M88 238L88 240L87 240L87 241L86 241L86 243L87 243L87 244L88 244L88 246L86 246L86 245L85 245L85 244L84 244L84 246L82 246L82 238L84 238L84 240L85 240L85 239L86 239L86 238L88 238Z"></path>
<path fill="white" d="M152 239V238H153H154V240H156V238H158V241H157V243H158V246H156V244H154V246H152V243H153V241H152V239Z"></path>
<path fill="white" d="M159 238H164V239H165V242H164V243H161V241H163V240H161V241V243V246H159V238Z"></path>
<path fill="white" d="M180 239V238H181H186V240H184V244V246H182V244V240H180V239Z"></path>
<path fill="white" d="M145 239H146V238H151V240H147V241H149V243H147V244H151V246H146V245H145V239Z"></path>
<path fill="white" d="M173 238H178V239H179V242H178V243H179V246H177V244H176V243H175V241H177V240H175V241V243V246H173V238Z"></path>
<path fill="white" d="M166 239H167V238H171V239H172V240H170H168V244H170V240H172V245H171V246H167V245H166V239Z"></path>
<path fill="white" d="M437 258H439V259H440V260H441V258H443V266H441V263H440V262H439V266H437V258Z"></path>
<path fill="white" d="M325 258H327V259H328V260H329V258H331V266H329V263H328V262H327V266H325V258Z"></path>
<path fill="white" d="M430 259H431V258H435V259H436V260H434H432V264H434V260H436V265H435V266H431V265H430V259Z"></path>
<path fill="white" d="M318 259H319V258H323V259H324V260H322H320V264H322V260H324V265H323V266H319V265H318V259Z"></path>
<path fill="white" d="M276 259H277V258H282V260H278V261V263V264H282V266H277V265H276V259Z"></path>
<path fill="white" d="M297 259H298V258H303V260H299V261V263V264H303V266H298V265H297V259Z"></path>
<path fill="white" d="M415 259V258H414H413V260V264H411V258H409V265H410V266H414V265H415V260V259Z"></path>
<path fill="white" d="M339 259V258H340H345V260H343V264V266H341V264V260H339V259Z"></path>
<path fill="white" d="M353 259H354V258H359V260H355V261H357V263H355V264H359V266H354V265H353V259Z"></path>
<path fill="white" d="M290 259V258H291H296V260H294V264H296V266H290V264H292V260H290V259Z"></path>
<path fill="white" d="M416 259V258H417H422V260H420V264V266H418V264V260H416V259Z"></path>
<path fill="white" d="M423 259V258H424H429V260H427V264V266H425V264V260H423V259Z"></path>
<path fill="white" d="M351 258L352 258L352 259L352 266L350 266L350 263L348 263L348 266L346 266L346 258L348 258L348 261L350 261L350 258L351 258Z"></path>
<path fill="white" d="M402 258H407V259H408V261H407V263H408V265H407V266H404V264H406V263H405H404V261H406V260H404V261V263V266H402V258Z"></path>
<path fill="white" d="M283 259V258H284H285V260V264H289V266H284V265H283V260V259Z"></path>
<path fill="white" d="M310 258L310 260L309 260L309 261L308 261L308 263L309 263L309 264L310 264L310 266L308 266L308 265L307 265L307 264L306 264L306 266L304 266L304 258L306 258L306 260L307 260L307 259L308 259L308 258L310 258Z"></path>
<path fill="white" d="M367 258H372V259H373V262H372V263H369V261H371V260H369V261V263V266H367V258Z"></path>
<path fill="white" d="M388 259V258H389H390V261H392V258H394V262H393V263H392V266H390V263H389V262H388V259Z"></path>
<path fill="white" d="M381 259H382V258H386V259H387V266H385V260H383V261H385V263H383V264V266H382H381V265V259Z"></path>
<path fill="white" d="M374 259V258H375H376V260V264H380V266H375V265H374V260V259Z"></path>
<path fill="white" d="M360 279H361V278H366V280H362V281H364V283H362V284H366V286H361V285H360V279Z"></path>
<path fill="white" d="M381 279H382V278H387V280H383V281H385V283H383V284H387V286H382V285H381V279Z"></path>
<path fill="white" d="M283.5 278H285.5V279H286.5V280H287.5V278H289.5V286H287.5V283H286.5V282H285.5V286H283.5V278Z"></path>
<path fill="white" d="M277 279H278V278H282V279H283V286H281V280H279V281H281V283H279V284V286H278H277V285V279Z"></path>
<path fill="white" d="M290 279V278H291H295V279H296V280H294H292V284H294V280H296V285H295V286H291H290V285V279Z"></path>
<path fill="white" d="M332 279H333V278H338V280H334V281H336V283H334V284H338V286H333V285H332V279Z"></path>
<path fill="white" d="M395 279H396V278H401V280H397V281H399V283H397V284H401V286H396V285H395V279Z"></path>
<path fill="white" d="M346 279V278H347H352V280H350V284V286H348V284V280H346V279Z"></path>
<path fill="white" d="M325 279V278H326H331V280H329V284V286H327V284V280H325V279Z"></path>
<path fill="white" d="M430 279V278H431H436V280H434V284V286H432V284V280H430V279Z"></path>
<path fill="white" d="M394 279V278H393H392V280V283H390V278H388V284H389V285H390V286H392V285H393V284H394V280V279Z"></path>
<path fill="white" d="M423 279H424V278H428V279H429V286H427V280H425V281H427V283H425V284V286H424H423V285V279Z"></path>
<path fill="white" d="M437 279H438V278H442V279H443V286H441V280H439V281H441V283H439V284V286H438H437V285V279Z"></path>
<path fill="white" d="M417 239H418V238H422V239H423V246H421V240H419V241H421V243H419V244V246H418H417V245V239Z"></path>
<path fill="white" d="M311 279H312V278H316V279H317V286H315V280H313V281H315V283H313V284V286H312H311V285V279Z"></path>
<path fill="white" d="M358 278L359 278L359 279L359 286L357 286L357 283L355 283L355 286L353 286L353 278L355 278L355 281L357 281L357 278L358 278Z"></path>
<path fill="white" d="M374 279V278H375H376V280V284H380V286H375V285H374V280V279Z"></path>
<path fill="white" d="M402 279V278H403H404V280V284H408V286H403V285H402V280V279Z"></path>
<path fill="white" d="M416 279V278H417H421V279H422V280H420H418V284H420V280H422V285H421V286H417H416V285V279Z"></path>
<path fill="white" d="M367 238H372V239H373V242H372V243H373V246H371V244H370V243H369V241H371V240H369V241V243V246H367V238Z"></path>
<path fill="white" d="M360 239H361V238H365V239H366V240H364H362V244H364V240H366V245H365V246H361V245H360V239Z"></path>
<path fill="white" d="M332 239H333V238H338V240H334V241H336V243H334V244H338V246H333V245H332V239Z"></path>
<path fill="white" d="M346 239V238H347H352V240H350V244H352V246H346V244H348V240H346V239Z"></path>
<path fill="white" d="M353 239V238H354H359V240H357V244V246H355V244V240H353V239Z"></path>
<path fill="white" d="M339 239V238H340H344V239H345V240H343H341V244H343V240H345V245H344V246H340H339V245V239Z"></path>
<path fill="white" d="M388 239H389V238H393V239H394V240H392H390V244H392V240H394V245H393V246H389V245H388V239Z"></path>
<path fill="white" d="M403 239H404V238H409V240H405V241H407V243H405V244H409V246H404V245H403V239Z"></path>
<path fill="white" d="M386 238L387 238L387 239L387 246L385 246L385 243L383 243L383 246L381 246L381 238L383 238L383 241L385 241L385 238L386 238Z"></path>
<path fill="white" d="M395 238H397V239H398V240H399V239H400V238H402V246H400V242H399V243H398V242H397V246H395V238Z"></path>
<path fill="white" d="M410 238H415V239H416V242H415V243H412V241H414V240H412V241V243V246H410V238Z"></path>
<path fill="white" d="M304 278H309V279H310V282H309V283H306V281H308V280H306V281V283V286H304V278Z"></path>
<path fill="white" d="M431 239H432V238H437V240H433V241H435V243H433V244H437V246H432V245H431V239Z"></path>
<path fill="white" d="M424 239H425V238H430V240H426V241V243V244H428V243H427V241H430V245V246H429H425V245H424V239Z"></path>
<path fill="white" d="M318 279H319V278H324V280H320V281H323V282H324V285H323V286H318V284H322V283H319V282H318V279Z"></path>
<path fill="white" d="M290 238H292V239H293V240H294V238H296V246H294V243H293V242H292V246H290V238Z"></path>
<path fill="white" d="M283 239H284V238H288V239H289V240H287H285V244H287V240H289V245H288V246H284V245H283V239Z"></path>
<path fill="white" d="M304 239V238H305H310V240H308V244V246H306V244V240H304V239Z"></path>
<path fill="white" d="M318 239H319V238H324V240H320V241H322V243H320V244H324V246H319V245H318V239Z"></path>
<path fill="white" d="M316 238L317 238L317 239L317 246L315 246L315 243L313 243L313 246L311 246L311 238L313 238L313 241L315 241L315 238L316 238Z"></path>
</svg>
