<svg xmlns="http://www.w3.org/2000/svg" fill="none" viewBox="0 0 300 300" height="300" width="300">
<path fill="#ADBDD7" d="M270 170L274 162L199 147L197 151L182 148L184 144L129 133L121 149L256 176L260 168L270 170Z"></path>
<path fill="#606986" d="M121 157L266 186V182L270 174V170L260 168L256 176L121 149V157Z"></path>
<path fill="#383E5E" d="M266 186L274 170V162L270 170V174L266 182V186Z"></path>
<path fill="#2C334D" d="M266 194L274 178V170L266 186V194Z"></path>
<path fill="#2C334D" d="M169 179L171 175V163L169 167V179Z"></path>
<path fill="#4E5871" d="M171 175L266 194V186L171 167V175Z"></path>
<path fill="#4E5871" d="M149 175L169 179V167L149 163V175Z"></path>
<path fill="#8C9DAF" d="M169 167L171 163L151 159L149 163L169 167Z"></path>
<path fill="#4E5871" d="M121 165L149 170.6V163L149.182 162.636L149 162.6L121 157V165Z"></path>
<path fill="#606986" d="M149 167L169 171V167L149 163V167Z"></path>
<path fill="#383E5E" d="M169 171L171 167V163L169 167V171Z"></path>
<path fill="#2C334D" d="M273 191L277 183V171L273 179V191Z"></path>
<path fill="#4E5871" d="M268 190L273 191V179L268 178V190Z"></path>
<path fill="#8C9DAF" d="M273 179L277 171L272 170L268 178L273 179Z"></path>
<path fill="#606986" d="M268 182L273 183V179L268 178V182Z"></path>
<path fill="#383E5E" d="M273 183L277 175V171L273 179V183Z"></path>
<path fill="#383E5E" d="M256 180L260 172V168L256 176V180Z"></path>
<path fill="#8C9DAF" d="M266 182L270 174L260 172L256 180L266 182Z"></path>
<path fill="#383E5E" d="M183.818 148.364L184 148V144L182 148L183.818 148.364Z"></path>
<path fill="#8C9DAF" d="M197 151L197.164 150.671L184 148L183.818 148.364L197 151Z"></path>
</svg>
