<svg xmlns="http://www.w3.org/2000/svg" fill="none" viewBox="0 0 200 200" height="200" width="200">
<path fill="#2F170D" d="M100 102.666L105 103.666V106.333L100 105.333V102.666Z"></path>
<path fill="#130907" d="M105 103.666L105.667 102.333V105L105 106.333V103.666Z"></path>
<path fill="#2F170D" d="M105.667 102.333L107.333 102.666V105.333L105.667 105V102.333Z"></path>
<path fill="#130907" d="M107.333 102.666L110 97.3332V99.9999L107.333 105.333V102.666Z"></path>
<path fill="#D9D9D9" d="M108.333 96.9998L109 95.6665V97.1332L108.333 96.9998Z"></path>
<path fill="#452824" d="M104 94.6665L109 95.6665V97.1332L108.333 96.9998V95.6665L103.939 94.7878L104 94.6665Z"></path>
<path fill="#2F170D" d="M99 101L100.667 101.333L100 102.666V103.866L99 103.666V101Z"></path>
<path fill="#D9D9D9" d="M100 102.666V103.866V105.333V102.666Z"></path>
<path fill="#2F170D" d="M100.667 99.9998L105.667 101V102.333L100.667 101.333V99.9998Z"></path>
<path fill="#130907" d="M105.667 101L108.333 95.6665V96.9998L105.667 102.333V101Z"></path>
<path fill="#452824" d="M100.667 99.9998L103.333 94.6665L108.333 95.6665L105.667 101L100.667 99.9998Z"></path>
<path fill="#452824" d="M100 102.666L100.667 101.333L105.667 102.333L105 103.666L100 102.666Z"></path>
<path fill="#452824" d="M105.667 102.333L108.333 96.9998L109 97.1332L110 97.3332L107.333 102.666L105.667 102.333Z"></path>
<path fill="#452824" d="M99 101L101.667 95.6665L102.727 95.8786L100.667 99.9998V101.333L99 101Z"></path>
<path fill="#2F170D" d="M105.667 105V106.333L105.061 106.212L105.667 105Z"></path>
<path fill="#130907" d="M105.667 105L106.273 105.121L105.667 106.333V105Z"></path>
<path fill="#2F170D" d="M86.667 100L91.667 101V103.667L86.667 102.667V100Z"></path>
<path fill="#130907" d="M91.667 101L92.3337 99.6666V102.333L91.667 103.667V101Z"></path>
<path fill="#2F170D" d="M92.3337 99.6666L94.0003 100V102.667L92.3337 102.333V99.6666Z"></path>
<path fill="#130907" d="M94.0003 100L96.667 94.6667V97.3333L94.0003 102.667V100Z"></path>
<path fill="#D9D9D9" d="M95.0003 94.3333L95.667 93V94.4667L95.0003 94.3333Z"></path>
<path fill="#452824" d="M90.667 92L95.667 93V94.4667L95.0003 94.3333V93L90.6064 92.1213L90.667 92Z"></path>
<path fill="#2F170D" d="M85.667 98.3333L87.3337 98.6666L86.667 100V101.2L85.667 101V98.3333Z"></path>
<path fill="#D9D9D9" d="M86.667 100V101.2V102.667V100Z"></path>
<path fill="#2F170D" d="M87.3337 97.3333L92.3337 98.3333V99.6666L87.3337 98.6666V97.3333Z"></path>
<path fill="#130907" d="M92.3337 98.3333L95.0003 93V94.3333L92.3337 99.6666V98.3333Z"></path>
<path fill="#452824" d="M87.3337 97.3333L90.0003 92L95.0003 93L92.3337 98.3333L87.3337 97.3333Z"></path>
<path fill="#452824" d="M86.667 100L87.3337 98.6666L92.3337 99.6666L91.667 101L86.667 100Z"></path>
<path fill="#452824" d="M92.3337 99.6666L95.0003 94.3333L95.667 94.4667L96.667 94.6667L94.0003 100L92.3337 99.6666Z"></path>
<path fill="#452824" d="M85.667 98.3333L88.3337 93L89.3943 93.2121L87.3337 97.3333V98.6666L85.667 98.3333Z"></path>
<path fill="#2F170D" d="M92.3337 102.333V103.667L91.7276 103.545L92.3337 102.333Z"></path>
<path fill="#130907" d="M92.3337 102.333L92.9397 102.455L92.3337 103.667V102.333Z"></path>
<path fill="#765D48" d="M90.333 92.3333L91.9997 92.6666L91.333 94L92.9997 94.3333L92.333 95.6666L98.9997 97L99.6664 95.6666L101.333 96L102 94.6666L103.666 94.9999V100.333L102 100L101.333 101.333L99.6664 101L98.9997 102.333L92.333 101V95.6666V99.5334L91.333 99.3334V94V97.8667L90.333 97.6667V92.3333Z"></path>
<path fill="#1C0E00" d="M103.666 94.9999L106.333 89.6667V95L103.666 100.333V94.9999Z"></path>
<path fill="#824100" d="M97.6664 85L104.333 86.3333L103 89L104.333 89.2667L106.333 89.6667L103.666 94.9999L102 94.6666L101.333 96L99.6664 95.6666L98.9997 97L92.333 95.6666L92.9997 94.3333L91.333 94L91.9997 92.6666L90.333 92.3333L92.9997 87L96.333 87.6666L97.6664 85Z"></path>
<path fill="#1C0E00" d="M103 89L104.333 86.3333V89.2667L103 89Z"></path>
<path fill="#663300" d="M83 88.3335L84.6667 88.6668L83.3333 91.3335L85 91.6668L84.3333 93.0002L101 96.3335L104.333 97.0002L105 95.6669L106.667 96.0002L108 93.3335L109.667 93.6669V97.6669L108 97.3335L106.667 100L105 99.6669L104.333 101L101 100.334L100.333 101.667L87 99.0002V97.5335L84.3333 97.0002V95.5335L83.3333 95.3335V92.4002L83 92.3335V88.3335Z"></path>
<path fill="#1C0E00" d="M109.667 93.6669L113.667 85.6668L112 85.3335L113.333 82.6668L111.667 82.3335L112.333 81.0002L110.667 80.6668L111.333 79.3335L108 78.6668L108.667 77.3335V78.8002L111.333 79.3335V80.8002L112.333 81.0002V82.4668L113.333 82.6668V85.6002L113.667 85.6668V89.6668L109.667 97.6669V93.6669Z"></path>
<path fill="#824100" d="M98.6667 75.3335L108.667 77.3335L108 78.6668L111.333 79.3335L110.667 80.6668L112.333 81.0002L111.667 82.3335L113.333 82.6668L112 85.3335L113.667 85.6668L109.667 93.6669L108 93.3335L106.667 96.0002L105 95.6669L104.333 97.0002L101 96.3335L84.3333 93.0002L85 91.6668L83.3333 91.3335L84.6667 88.6668L83 88.3335L87 80.3335L88.6667 80.6668L90 78.0002L91.6667 78.3335L92.3333 77.0002L94 77.3335L94.6667 76.0002L98 76.6668L98.6667 75.3335Z"></path>
<path fill="#1C0E00" d="M106.667 96.0002L108 93.3335V97.3335L106.667 100V96.0002Z"></path>
<path fill="#1C0E00" d="M104.333 97.0002L105 95.6669V99.6669L104.333 101V97.0002Z"></path>
<path fill="#1C0E00" d="M100.333 97.6669L101 96.3335V100.334L100.333 101.667V97.6669Z"></path>
<path fill="#663300" d="M84.667 86L86.3337 86.3333L85.0003 89L86.667 89.3334L86.0003 90.6667L102.667 94L103.334 92.6667L105 93L106.334 90.3334L108 90.6667V93.3334L106.334 93L105 95.6667L103.334 95.3334L102.667 96.6667L86.0003 93.3334V91.8667L85.0003 91.6667V89L85.1215 88.7576L84.667 88.6667V86Z"></path>
<path fill="#1C0E00" d="M108 90.6667L112 82.6667L110.334 82.3333L111.667 79.6667L110 79.3333L110.667 78L107.334 77.3333L108 76V77.4667L110.667 78V79.4667L111.667 79.6667V82.3333L111.546 82.5758L112 82.6667V85.3333L108 93.3334V90.6667Z"></path>
<path fill="#824100" d="M98.0003 74L108 76L107.334 77.3333L110.667 78L110 79.3333L111.667 79.6667L110.334 82.3333L112 82.6667L108 90.6667L106.334 90.3334L105 93L103.334 92.6667L102.667 94L86.0003 90.6667L86.667 89.3334L85.0003 89L86.3337 86.3333L84.667 86L88.667 78L90.3337 78.3333L91.667 75.6667L93.3337 76L94.0003 74.6667L97.3337 75.3333L98.0003 74Z"></path>
<path fill="#1C0E00" d="M105 93L106.334 90.3334V93L105 95.6667V93Z"></path>
<path fill="#1C0E00" d="M102.667 94L103.334 92.6667V95.3334L102.667 96.6667V94Z"></path>
<path fill="#663300" d="M86.333 85L87.9997 85.3333L87.333 86.6667L88.9997 87L88.333 88.3334L89.9997 88.6667L89.333 90L99.333 92L99.9997 90.6667L101.666 91L102.333 89.6667L104 90L104.666 88.6667L106.333 89V90.3334L104.666 90L104 91.3334L102.333 91L101.666 92.3334L99.9997 92L99.333 93.3334L89.333 91.3334V89.8667L88.333 89.6667V88.2L87.333 88V86.6667L87.3936 86.5455L86.333 86.3333V85Z"></path>
<path fill="#1C0E00" d="M106.333 89L110.333 81L108.666 80.6667L109.333 79.3333L107.666 79L108.333 77.6667L106.666 77.3333L107.333 76V77.4667L108.333 77.6667V79.1333L109.333 79.3333V80.6667L109.272 80.7879L110.333 81V82.3333L106.333 90.3334V89Z"></path>
<path fill="#824100" d="M97.333 74L107.333 76L106.666 77.3333L108.333 77.6667L107.666 79L109.333 79.3333L108.666 80.6667L110.333 81L106.333 89L104.666 88.6667L104 90L102.333 89.6667L101.666 91L99.9997 90.6667L99.333 92L89.333 90L89.9997 88.6667L88.333 88.3334L88.9997 87L87.333 86.6667L87.9997 85.3333L86.333 85L90.333 77L91.9997 77.3333L92.6663 76L94.333 76.3333L94.9997 75L96.6664 75.3333L97.333 74Z"></path>
<path fill="#1C0E00" d="M104 90L104.666 88.6667V90L104 91.3334V90Z"></path>
<path fill="#1C0E00" d="M101.666 91L102.333 89.6667V91L101.666 92.3334V91Z"></path>
<path fill="#1C0E00" d="M99.333 92L99.9997 90.6667V92L99.333 93.3334V92Z"></path>
<path fill="#663300" d="M88 84L89.6667 84.3333L89 85.6666L90.6667 86L90 87.3333L100 89.3333L100.667 88L102.333 88.3333L103 87L104.667 87.3333V88.6666L103 88.3333L102.333 89.6666L100.667 89.3333L100 90.6666L90 88.6666V87.3333V87.2L89 87V85.6666L89.0606 85.5454L88 85.3333V84Z"></path>
<path fill="#1C0E00" d="M104.667 87.3333L108.667 79.3333V80.6666L104.667 88.6666V87.3333Z"></path>
<path fill="#824100" d="M96.6667 74L106.667 75.9999L106 77.3333L107.667 77.6666L107 78.9999L108.667 79.3333L104.667 87.3333L103 87L102.333 88.3333L100.667 88L100 89.3333L90 87.3333L90.6667 86L89 85.6666L89.6667 84.3333L88 84L92 75.9999L93.6667 76.3333L94.3333 74.9999L96 75.3333L96.6667 74Z"></path>
<path fill="#1C0E00" d="M107 78.9999L107.667 77.6666V79.1333L107 78.9999Z"></path>
<path fill="#1C0E00" d="M106 77.3333L106.667 75.9999V77.4666L106 77.3333Z"></path>
<path fill="#1C0E00" d="M102.333 88.3333L103 87V88.3333L102.333 89.6666V88.3333Z"></path>
<path fill="#1C0E00" d="M100 89.3333L100.667 88V89.3333L100 90.6666V89.3333Z"></path>
<path fill="#663300" d="M89.667 82.9999L91.3337 83.3333L90.667 84.6666L100.667 86.6666L101.334 85.3333L103 85.6666V87L101.334 86.6666L100.667 88L90.667 86V84.6666L90.7276 84.5455L89.667 84.3333V82.9999Z"></path>
<path fill="#1C0E00" d="M103 85.6666L107 77.6667V79L103 87V85.6666Z"></path>
<path fill="#824100" d="M96.0003 74L106 76L105.334 77.3333L106 77.4667L107 77.6667L103 85.6666L101.334 85.3333L100.667 86.6666L90.667 84.6666L91.3337 83.3333L89.667 82.9999L93.667 75L95.3337 75.3333L96.0003 74Z"></path>
<path fill="#1C0E00" d="M105.334 77.3333L106 76V77.4667L105.334 77.3333Z"></path>
<path fill="#1C0E00" d="M100.667 86.6666L101.334 85.3333V86.6666L100.667 88V86.6666Z"></path>
<path fill="#663300" d="M92 80.6668L93.6667 81.0001L93 82.3334L99.6667 83.6668L100.333 82.3334L102 82.6668V84.0001L100.333 83.6668L99.6667 85.0001L93 83.6668V82.3334L93.0606 82.2123L92 82.0002V80.6668Z"></path>
<path fill="#1C0E00" d="M102 82.6668L104.667 77.3335V78.6668L102 84.0001V82.6668Z"></path>
<path fill="#824100" d="M97 74.3335L103.667 75.6668L103 77.0002L103.667 77.1335L104.667 77.3335L102 82.6668L100.333 82.3334L99.6667 83.6668L93 82.3334L93.6667 81.0001L92 80.6668L94.6667 75.3335L96.3333 75.6668L97 74.3335Z"></path>
<path fill="#1C0E00" d="M103 77.0002L103.667 75.6668V77.1335L103 77.0002Z"></path>
<path fill="#1C0E00" d="M99.6667 83.6668L100.333 82.3334V83.6668L99.6667 85.0001V83.6668Z"></path>
<path fill="#663300" d="M94.333 78.3331L95.9997 78.6664L95.333 79.9998L98.6663 80.6664L99.333 79.3331L101 79.6664V80.9998L99.333 80.6664L98.6663 81.9998L95.333 81.3331V79.9998L95.3936 79.8786L94.333 79.6665V78.3331Z"></path>
<path fill="#1C0E00" d="M101 79.6664L102.333 76.9998V78.3332L101 80.9998V79.6664Z"></path>
<path fill="#824100" d="M97.9997 74.6665L101.333 75.3332L100.666 76.6665L101.333 76.7998L102.333 76.9998L101 79.6664L99.333 79.3331L98.6663 80.6664L95.333 79.9998L95.9997 78.6664L94.333 78.3331L95.6663 75.6665L97.333 75.9998L97.9997 74.6665Z"></path>
<path fill="#1C0E00" d="M100.666 76.6665L101.333 75.3332V76.7998L100.666 76.6665Z"></path>
<path fill="#1C0E00" d="M98.6663 80.6664L99.333 79.3331V80.6664L98.6663 81.9998V80.6664Z"></path>
<path fill="#CDCDCD" d="M95.3333 96.6678L97 97V98.3332L98.6666 98.6665V94.6669L100.333 94.9999V100.333L95.3333 99.3332V96.6678Z"></path>
<path fill="#CDCDCD" d="M87 92.3344L88.6666 92.6665L88.6666 96.6677L90.3333 96.9997L90.3333 95.6665L92 95.9992L92.0001 98.6665L87 97.6665L87 92.3344Z"></path>
<path fill="#999999" d="M100.333 94.9999L101 93.6665V98.9998L100.333 100.333V94.9999Z"></path>
<path fill="white" d="M95.3333 96.6678L96.0001 95.3344L97.6667 95.6665V97L98.6666 97.1997V94.6669L99.3334 93.3331L101 93.6658L100.333 94.9993L98.6666 94.6669V98.6665L97 98.3332V97L95.3333 96.6678Z"></path>
<path fill="white" d="M87 92.3344L87.6667 91.001L89.3333 91.3332V95.3344L90.3938 95.5457L90.3333 95.6665L91.0001 94.3335L92.6668 94.6666L92 95.9992L90.3333 95.6665L90.3333 96.9997L88.6666 96.6677L88.6666 92.6665L87 92.3344Z"></path>
<path fill="#999999" d="M97 97L97.6667 95.6665V97L97 98.3332V97Z"></path>
<path fill="#999999" d="M88.6666 92.6658L89.3333 91.3332V95.3344L88.6666 96.6677L88.6666 92.6658Z"></path>
<path fill="#0E0E0E" d="M88.6667 92.6684L90.3333 93.0018V94.3351L97 95.6684V94.3351L98.6667 94.6684V97.3351L90.3333 95.6684V97.0018L88.6667 96.6665V92.6684Z"></path>
<path fill="black" d="M90.3333 93.0018L91 91.6665V93.0008L90.3333 94.3351V93.0018Z"></path>
<path fill="#323232" d="M88.6667 92.6684L89.3333 91.3353L91 91.6665L90.3333 93.0018L88.6667 92.6684Z"></path>
<path fill="#323232" d="M97 94.3351L97.6667 92.9998L98.7273 93.2122L98.6667 93.3335V94.6684L97 94.3351Z"></path>
<path fill="#323232" d="M90.3333 94.3351L91 93.0008L97.0606 94.2129L97 94.3351V95.6684L90.3333 94.3351Z"></path>
<path fill="black" d="M100.333 93.6668L101 92.3335V93.6669L100.333 95.0002V93.6668Z"></path>
<path fill="#323232" d="M98.6667 93.3335L99.3334 92.0003L101 92.3335L100.333 93.6668L98.6667 93.3335Z"></path>
<path fill="#0E0E0E" d="M98.6667 93.3351L100.333 93.6668V95.0002L98.6667 94.6684V93.3351Z"></path>
<path fill="black" d="M102.667 92.6651L103.333 91.3318V92.6651L102.667 93.9984V92.6651Z"></path>
<path fill="#323232" d="M101 92.3317L101.667 90.9986L103.333 91.3318L102.667 92.6651L101 92.3317Z"></path>
<path fill="#0E0E0E" d="M101 92.3335L102.667 92.6651V93.9984L101 93.6669V92.3335Z"></path>
<path fill="black" d="M87.6667 89.665L88.3333 88.3317V89.6651L87.6667 90.9984V89.665Z"></path>
<path fill="#323232" d="M86 89.3317L86.6667 87.9985L88.3333 88.3317L87.6667 89.665L86 89.3317Z"></path>
<path fill="#0E0E0E" d="M86 89.3335L87.6667 89.665V90.9984L86 90.6668V89.3335Z"></path>
<path fill="black" d="M88.6667 91.3353L89.3333 90.002V91.3353L88.6667 92.6684V91.3353Z"></path>
<path fill="#323232" d="M87 91.0019L87.6667 89.6688L89.3333 90.002L88.6667 91.3353L87 91.0019Z"></path>
<path fill="#0E0E0E" d="M87 91.0037L88.6667 91.3353V92.6684L87 92.3371V91.0037Z"></path>
<path fill="#0E0E0E" d="M98.6667 97.3351V98.6685L97 98.3332V97.0018L98.6667 97.3351Z"></path>
</svg>
