<svg xmlns="http://www.w3.org/2000/svg" fill="none" viewBox="0 0 80 120" height="120" width="80">
<path stroke-width="2" stroke="white" fill="#56C6F8" d="M2 117H1V3H2H3V2V1H77V2V3H78H79V117H78H77V118V119H3V118V117H2Z"></path>
<path fill="#2CACE8" d="M2 112H4V114H76V112H78V116H76V118H4V116H2V112Z"></path>
<path fill="#F1FFFF" d="M36.5 24L51.5 27.0002L46.5 37.0001L31.5 34.0002L36.5 24Z"></path>
<path fill="#51F7A3" d="M46.5 37.0001L51.5 27.0002V61L52.5 59.0001V61L46.5 73V37.0001Z"></path>
<path fill="#70FFEB" d="M31.5 34.0002L46.5 37.0001V73L31.5 70V34.0002Z"></path>
<path fill="#F1FFFF" d="M51.5 58.8L52.5 59.0001L51.5 61V58.8Z"></path>
<path fill="#F1FFFF" d="M50.5 41.0001L57.9999 42.5003L55.9999 46.5003L48.5 45.0003L50.5 41.0001Z"></path>
<path fill="#70FFEB" d="M48.5 45.0003L55.9999 46.5003V54.5003L51 53.5001V49.5001L48.5 49.0003V45.0003Z"></path>
<path fill="#51F7A3" d="M55.9999 46.5003L57.9999 42.5003V54.5003L53 64.5V60.5L55.9999 54.5003V46.5003Z"></path>
<path fill="#F1FFFF" d="M51 53.5001L55.9999 54.5003L53 60.5L48 59.5002L51 53.5001Z"></path>
<path fill="#70FFEB" d="M48 59.5002L53 60.5V64.5L48 63.4998V59.5002Z"></path>
<path fill="#7FACFF" d="M49.9999 55.5002L54.9998 56.5004L53.9999 58.5002L49 57.5002L49.9999 55.5002Z"></path>
<path fill="#000004" d="M53.9999 58.5002L54.9998 56.5004L54.9998 64.5002L53.9998 66.5002L53.9999 58.5002Z"></path>
<path fill="#191F2B" d="M51.5 64.2L53 64.5L53.9999 62.5002L53.9998 66.5002L51.4998 66.0003L51.5 64.2Z"></path>
<path fill="#F1FFFF" d="M28 36.5001L31.5 37.2002V41.6003L26 40.5001L28 36.5001Z"></path>
<path fill="#70FFEB" d="M26 40.5001L31.5 41.6003V45.6002L31 45.5003V49.5003L26 48.5001V44.5001V40.5001Z"></path>
<path fill="#51F7A3" d="M31.5 41.6003V37.2002V47.0001V52.5001L28 59.5001V55.5001L31 49.5003V45.5003L31.5 45.6002V41.6003Z"></path>
<path fill="#F1FFFF" d="M26 48.5001L31 49.5003L28 55.5001L23 54.5003L26 48.5001Z"></path>
<path fill="#70FFEB" d="M23 54.5003L28 55.5001V59.5001L23 58.4999V54.5003Z"></path>
<path fill="#7FACFF" d="M25 50.5001L29.9999 51.5003L29 53.5001L24.0001 52.5001L25 50.5001Z"></path>
<path fill="#000004" d="M29 53.5001L29.9999 51.5003L29.9999 55.5002L28.9999 57.5002L29 53.5001Z"></path>
<path fill="#191F2B" d="M26.5 59.2001L23 58.4999L23.9999 58.6999L23.9999 60.5004L26.4999 61.0004L26.5 59.2001Z"></path>
<path fill="#000004" d="M26.5 59.2001L27.3183 59.3637L26.4999 61.0004L26.5 59.2001Z"></path>
<path fill="white" d="M51 97V96H52H57V98H55V102V104H53V102V98H51V97Z"></path>
<path fill="white" d="M44 97H45V96H50V98H46V99H49V100H50V103H49V104H44V102H48V101H45V100H44V97Z"></path>
<path fill="white" d="M23 97H24V96H29V98H25V99V101V102H27V101H26V99H29V103V104H28H24V103H23V97Z"></path>
<path fill="white" d="M35 96L36 96L36 97L36 104L34 104L34 101L32 101L32 104L30 104L30 96L32 96L32 99L34 99L34 96L35 96Z"></path>
<path fill="white" d="M37 97H38V96H42V97H43V98H41H39V102H41V98H43V103H42V104H38V103H37V97Z"></path>
</svg>
