<svg xmlns="http://www.w3.org/2000/svg" fill="none" viewBox="0 0 100 100" height="100" width="100">
<path fill="#F7D044" d="M23.0002 33.4992L50.0003 42.4992V82.4994L23.0002 73.4993V33.4992Z"></path>
<path fill="#CAAD37" d="M50.0003 42.4992L77.0004 33.4993V73.4994L50.0003 82.4994V42.4992Z"></path>
<path fill="#7DC9FB" d="M35.0014 37.4991L38.0002 38.4989V78.4988L35.0014 77.499V37.4991Z"></path>
<path fill="#66A3CF" d="M65.0002 37.4994L61.999 38.4992V78.4992L65.0002 77.4994V37.4994Z"></path>
<path fill="#3C3724" d="M20 27.4993L50.0001 37.4994V43.4995L20 33.4994V27.4993Z"></path>
<path fill="#322F1E" d="M50.0001 37.4994L80.0003 27.4994V33.4996L50.0001 43.4995V37.4994Z"></path>
<path fill="#3E3926" d="M50.0001 17.4995L80.0003 27.4994L50.0001 37.4994L20 27.4993L50.0001 17.4995Z"></path>
<path fill="#7DC9FB" d="M33.5015 31.9997L36.5002 32.9995V39L33.5015 38.0002V31.9997Z"></path>
<path fill="#66A3CF" d="M66.5 31.9997L63.4988 32.9995V38.9998L66.5 38V31.9997Z"></path>
<path fill="#82D0FF" d="M63.5002 22L66.499 22.9998L53.0002 27.5L66.5 31.9997L63.4988 32.9995L50.0001 28.5L36.5002 32.9995L33.5015 31.9997L47.0002 27.5L33.5015 22.9989L36.5002 21.9993L48.5002 26V24L47.0002 23.5L48.5002 23L50.0002 23.5L51.5002 23L53.0002 23.5L51.5002 24V26L63.5002 22Z"></path>
<path fill="#7DC9FB" d="M36.5002 19.0004L42.5002 21.0004V27.0004L36.5002 25.0004V19.0004Z"></path>
<path fill="#82D0FF" d="M42.5002 17.0004L48.5002 19.0004L42.5002 21.0004L36.5002 19.0004L42.5002 17.0004Z"></path>
<path fill="#66A3CF" d="M42.5002 21.0004L48.5002 19.0004V23L47.0002 23.5V25.5L42.5002 27.0004V21.0004Z"></path>
<path fill="#7DC9FB" d="M51.5002 19L57.5002 21V27L53.0002 25.5V23.5L51.5002 23V19Z"></path>
<path fill="#82D0FF" d="M57.5002 17L63.5002 19L57.5002 21L51.5002 19L57.5002 17Z"></path>
<path fill="#66A3CF" d="M57.5002 21L63.5002 19V25L57.5002 27V21Z"></path>
<path fill="#7DC9FB" d="M58.499 21.667L61.499 20.6674V23.6674L58.499 24.6671V21.667Z"></path>
<path fill="#66A3CF" d="M38.5002 20.667L41.5002 21.6674V24.6674L38.5002 23.6671V20.667Z"></path>
<path fill="#7DC9FB" d="M36.5002 24.0004L42.5002 26.0004V32.0004L36.5002 30.0004V24.0004Z"></path>
<path fill="#82D0FF" d="M42.5002 22.0004L48.5002 24.0004L42.5002 26.0004L36.5002 24.0004L42.5002 22.0004Z"></path>
<path fill="#66A3CF" d="M42.5002 26.0004L48.5002 24.0004V28L50.0002 27.5V29.5L42.5002 32.0004V26.0004Z"></path>
<path fill="#7DC9FB" d="M51.5002 24L57.5002 26V32L50.0002 29.5V27.5L51.5002 28V24Z"></path>
<path fill="#82D0FF" d="M57.5002 22L63.5002 24L57.5002 26L51.5002 24L57.5002 22Z"></path>
<path fill="#66A3CF" d="M57.5002 26L63.5002 24V30L57.5002 32V26Z"></path>
<path fill="#7DC9FB" d="M44.5002 26.3337L47.5002 25.3341V28.3341L44.5002 29.3337V26.3337Z"></path>
<path fill="#66A3CF" d="M52.5002 25.3337L55.5002 26.3341V29.3341L52.5002 28.3337V25.3337Z"></path>
</svg>
