<svg xmlns="http://www.w3.org/2000/svg" fill="none" viewBox="0 0 200 200" height="200" width="200">
<path fill="#5C4D2E" d="M106 114L114 98V90L106 106V114Z"></path>
<path fill="#C1A363" d="M86 110L106 114V106L86 102V110Z"></path>
<path fill="#CEB067" d="M86 102L106 106L114 90L94 86L86 102Z"></path>
<path fill="#5F2F45" d="M111 116L113 112V100L111 104V116Z"></path>
<path fill="#A46182" d="M108 115.4L111 116V104L108 110V115.4Z"></path>
<path fill="#5F2F45" d="M91 127L93 123V111.4L91 111V127Z"></path>
<path fill="#A46182" d="M86 126L91 127V111L86 110V126Z"></path>
<path fill="#5F2F45" d="M97 127L99 123V112.6L97 112.2V127Z"></path>
<path fill="#A46182" d="M92 126L97 127V112.2L93 111.4V123L92 125V126Z"></path>
<path fill="#5F2F45" d="M106 126L108 122V110L106 114V126Z"></path>
<path fill="#A46182" d="M101 125L106 126V114L101 113V125Z"></path>
<path fill-opacity="0.1" fill="white" d="M93 99L103 101L107 93L97 91L93 99Z"></path>
<path fill="#BD9361" d="M86 110L106 114V110L86 106V110Z"></path>
<path fill="#594431" d="M106 114L114 98V94L106 110V114Z"></path>
</svg>
