<svg xmlns="http://www.w3.org/2000/svg" fill="none" viewBox="0 0 200 200" height="200" width="200">
<path fill="#DAE6FF" d="M94 90L114 94L108 106L88 102L94 90Z"></path>
<path fill="#A0AAD5" d="M88 102L108 106V114L88 110V102Z"></path>
<path fill="#5A5D88" d="M108 106L114 94V102L108 114V106Z"></path>
<path fill="#535880" d="M108 114L114 102V106L108 118V114Z"></path>
<path fill="#4A4F6F" d="M108 118L114 106V110L108 122V118Z"></path>
<path fill="#AEBDDA" d="M97 95L107 97L105 101L95 99L97 95Z"></path>
<path fill="#979CC2" d="M88 110L108 114V118V122L88 118V110Z"></path>
<path fill="#888EB0" d="M88 114L96 115.6L108 118V122L88 118V114Z"></path>
<path fill="#DAE6FF" d="M98 108L108 110L110 106L115 107L111 115L96 112L98 108Z"></path>
<path fill="#A0AAD5" d="M96 112L111 115V119L96 116V112Z"></path>
<path fill="#5A5D88" d="M111 115L115 107V111L111 119V115Z"></path>
<path fill="#535880" d="M111 119L115 111V115L111 123V119Z"></path>
<path fill="#979CC2" d="M96 116L111 119V123L96 120V116Z"></path>
<path fill="#888EB0" d="M91 119L116 124V132L91 127V119Z"></path>
<path fill="#4A4F6F" d="M116 124L122 112V120L116 132V124Z"></path>
<path fill="#B2BCDF" d="M111 123L115 115V111V110.6L122 112L116 124L111 123Z"></path>
<path fill="#B2BCDF" d="M91 119L93 115L96 115.6V120L91 119Z"></path>
</svg>
