<svg xmlns="http://www.w3.org/2000/svg" fill="none" viewBox="0 0 200 200" height="200" width="200">
<path fill="#CCBC29" d="M96.4977 110L101.498 111V119L96.4977 118V110Z"></path>
<path fill="#807519" d="M101.498 111L103.498 107V115L101.498 119V111Z"></path>
<path fill="#CCBC29" d="M92.9977 103.5L102.998 105.5V113.5L92.9977 111.5V103.5Z"></path>
<path fill="#807519" d="M102.998 105.5L106.998 97.5V105.5L102.998 113.5V105.5Z"></path>
<path fill="#CCBC29" d="M89.4977 99L104.498 102V108L89.4977 105V99Z"></path>
<path fill="#807519" d="M104.498 102L110.498 90V96L104.498 108V102Z"></path>
<path fill="#CCBC29" d="M85.9977 94.5L105.998 98.5V102.5L85.9977 98.5V94.5Z"></path>
<path fill="#807519" d="M105.998 98.5L113.998 82.5V86.5L105.998 102.5V98.5Z"></path>
<path fill="#FFEB33" d="M93.9977 78.5L113.998 82.5L105.998 98.5L85.9977 94.5L93.9977 78.5Z"></path>
<path fill="#CC66B6" d="M85.9977 92.5L105.998 96.5V98.5L85.9977 94.5V92.5Z"></path>
<path fill="#804071" d="M105.998 96.5L113.998 80.5V82.5L105.998 98.5V96.5Z"></path>
<path fill="#CC66B6" d="M82.4977 74L107.498 79V99L82.4977 94V74Z"></path>
<path fill="#804071" d="M107.498 79L117.498 59V79L107.498 99V79Z"></path>
<path fill="#FF80E3" d="M92.4977 54L117.498 59L107.498 79L82.4977 74L92.4977 54Z"></path>
<path fill="#CC66B6" d="M85.9977 70.5L105.998 74.5V76.5L85.9977 72.5V70.5Z"></path>
<path fill="#804071" d="M105.998 74.5L113.998 58.5002V60.4993L105.998 76.4993V74.5Z"></path>
<path fill="#CC66B6" d="M108.498 79L110.998 79.5V95.5L108.498 95V79Z"></path>
<path fill="#FF80E3" d="M116.498 63L118.998 63.5L110.998 79.5L108.498 79L116.498 63Z"></path>
<path fill="#804071" d="M110.998 79.5L118.998 63.5V79.5L110.998 95.5V79.5Z"></path>
<path fill="#FF80E3" d="M84.9974 76.5L104.997 80.5L103.997 82.5L83.9974 78.5L84.9974 76.5Z"></path>
<path fill="#CC66B6" d="M83.9974 78.5L103.997 82.5V98.5L83.9974 94.5V78.5Z"></path>
<path fill="#804071" d="M103.997 82.5L104.997 80.5V96.4998L103.997 98.5V82.5Z"></path>
<path fill="#CC66B6" d="M81 73.4995L82.589 73.8173L82.4977 74V89.799L81 89.4995V73.4995Z"></path>
<path fill="#FF80E3" d="M89 57.4995L90.589 57.8173L82.589 73.8173L81 73.4995L89 57.4995Z"></path>
<path fill="#FF80E3" d="M95.9977 54.5033L115.998 58.5033L115.908 58.6821L95.9083 54.6821L95.9977 54.5033Z"></path>
<path fill="#804071" d="M115.908 58.6821L115.998 58.5033V58.7L115.908 58.6821Z"></path>
<path fill="white" d="M104 129H109V130H110V133H109V134H110V137H108V135H107V134H106V132H108V131H106V132V134V137H104V129Z"></path>
<path fill="white" d="M83 130H84V129H89V131H85V132H87V134H85V135H89V137H84V136H83V130Z"></path>
<path fill="white" d="M111 130H112V129H117V131H113V132H115V134H113V135H117V137H112V136H111V130Z"></path>
<path fill="white" d="M76 130H77V129H82V131H78V132V134V135H82V137H77V136H76V130Z"></path>
<path fill="white" d="M97 130H98V129H103V131H99V132V134V135H103V137H98V136H97V130Z"></path>
<path fill="white" d="M118 130H119V129H123V130H124V137H122V131H120V132H122V134H120V135V137H119H118V136V130Z"></path>
<path fill="white" d="M125 129H127V130H128V131H129V130H130V129H132V137H130V133H129V134H128V133H127V137H125V129Z"></path>
<path fill="white" d="M69 130V129H70H75V131H73V135H75V137H69V135H71V131H69V130Z"></path>
</svg>
