<svg version="1.1" xmlns="http://www.w3.org/2000/svg" xmlns:xlink="http://www.w3.org/1999/xlink" width="13" height="13.00021" viewBox="0,0,13,13.00021"><g transform="translate(-240,-173.99979)"><g data-paper-data="{&quot;isPaintingLayer&quot;:true}" fill="#f7e84d" fill-rule="nonzero" stroke="#000000" stroke-width="1" stroke-linecap="butt" stroke-linejoin="miter" stroke-miterlimit="10" stroke-dasharray="" stroke-dashoffset="0" style="mix-blend-mode: normal"><path d="M246.00002,186.5h-0.00004l-4,-0.0002h-0.49998v-0.5v-0.5h-0.5h-0.5v-0.5v-7.9998v-0.5h0.5h0.5v-1.5v-0.49999l0.49999,-0.00001l10.00001,-0.00019l0.5,-0.00001v0.50001v3v0.5h-0.5h-0.5v0.5v0.5h0.5h0.5v0.5v4.99999v0.5h-0.5h-0.5v0.5v0.5h-0.5zM246.5,182.49981v1.00019l1,-0.0001v-1.00009z"/><path d="M245.00002,185.5h-0.00005l-3,-0.0002h-0.49997v-0.5v-0.5h-0.5h-0.5v-0.5v-7.9998v-0.5h0.5h0.5v-0.5v-0.49999l0.49999,-0.00001l9.00001,-0.00019l0.5,-0.00001v0.50001v2v0.5h-0.5h-5.5v1h4.5h0.5v0.5v0.5h0.5h0.5v0.5v3.99999v0.5h-0.5h-0.5v0.5v0.5h-0.5zM245.5,181.49981v1.00014l1,-0.00009v-1.00005z"/></g></g></svg>