<svg version="1.1" xmlns="http://www.w3.org/2000/svg" xmlns:xlink="http://www.w3.org/1999/xlink" width="13" height="13" viewBox="0,0,13,13"><g transform="translate(-240,-174)"><g data-paper-data="{&quot;isPaintingLayer&quot;:true}" fill="#f7e84d" fill-rule="nonzero" stroke="#000000" stroke-width="1" stroke-linecap="butt" stroke-linejoin="miter" stroke-miterlimit="10" stroke-dasharray="" stroke-dashoffset="0" style="mix-blend-mode: normal"><path d="M246,174.5h0.5v0.5v4.5h1v-4.5v-0.5h0.5h4h0.5v0.5v11v0.5h-0.5h-5h-0.5v-0.5v-3.5h-4.5h-0.5v-0.5v-0.5h-0.5h-0.5v-0.5v-6v-0.5h0.5z"/><path d="M245,174.5h0.5v0.5v3.5h1v-3.5v-0.5h0.5h4h0.5v0.5v10v0.5h-0.5h-4h-0.5v-0.5v-3.5h-4.5h-0.5v-0.5v-0.5h-0.5h-0.5v-0.5v-5v-0.5h0.5z"/></g></g></svg>