<svg xmlns="http://www.w3.org/2000/svg" fill="none" viewBox="0 0 400 400" height="400" width="400">
<path fill="#791D36" d="M171 190L185 162L215 168V180L201 208L171 202V190Z"></path>
<path fill="#851F2A" d="M171 178L201 184V204L171 198V178Z"></path>
<path fill="#4B4575" d="M171 202L181 204V208L171 206V202Z"></path>
<path fill="#4B4575" d="M196 207L201 208V212L196 211V207Z"></path>
<path fill="#4B4575" d="M206 209L291 226V230L206 213V209Z"></path>
<path fill="#4B4575" d="M203 204L204 204.2V208.2L203 208V204Z"></path>
<path fill="#000100" d="M216 207L231 210V218L232.818 218.364L231 222L216 219V207Z"></path>
<path fill="#000100" d="M181 200L196 203V211L197.818 211.364L196 215L181 212V200Z"></path>
<path fill="#000100" d="M171 182L186 185V193L171 190V182Z"></path>
<path fill="#000100" d="M271 218L286 221V229L287.818 229.364L286 233L271 230V218Z"></path>
<path fill="#334D29" d="M260 207L266 195L270 187V191L256 219V215L260 207Z"></path>
<path fill="#334D29" d="M260 199L266 187V191L260 203V199Z"></path>
<path fill="#344A1F" d="M260 199V203V207L258 211L256 215V207L260 199Z"></path>
<path fill="#344A1F" d="M270 179V187L268 191L266 195V191V187L270 179Z"></path>
<path fill="#264420" d="M260 199L266 187V195L260 207V199Z"></path>
<path fill="#264420" d="M219 204L221 200V204L219 208V204Z"></path>
<path fill="#2D294E" d="M291 226L305 198V202L291 230V226Z"></path>
<path fill="#F23845" d="M185 150L215 156L201 184L171 178L185 150Z"></path>
<path fill="#F23845" d="M176 191L181 192L179 196L174 195L176 191Z"></path>
<path fill="#4E588B" d="M213 160L203 180V172L213 152V160Z"></path>
<path fill="#4E588B" d="M312 191L294 227V195L312 159V191Z"></path>
<path fill="#451225" d="M211 188L201 208V204L211 184V188Z"></path>
<path fill="#451225" d="M211 188L201 208V204L211 184V188Z"></path>
<path fill="#2B2950" d="M211 192L201 212V208L211 188V192Z"></path>
<path fill="#4E121E" d="M211 184L201 204V184L211 164V184Z"></path>
<path fill="#879DD4" d="M186 205L191 206V210L186 209V205Z"></path>
<path fill="#879DD4" d="M221 212L226 213V217L221 216V212Z"></path>
<path fill="#879DD4" d="M276 223L281 224V228L276 227V223Z"></path>
<path fill="#F9FFFF" d="M222 141L312 159L294 195L204 177L222 141Z"></path>
<path fill="#F9FFFF" d="M203 150L213 152L203 172L193 170L203 150Z"></path>
<path fill="#F9FFFF" d="M198 153L203 154L193 174L188 173L198 153Z"></path>
<path fill="#8A95CB" d="M204 209L294 227V195L204 177L204 209Z"></path>
<path fill="#8A95CB" d="M188 177L203 180V172L193 170L193 174L188 173V177Z"></path>
<path fill="#7B85B8" d="M204 181L294 199L294 195L204 177L204 181Z"></path>
<path fill="#7B85B8" d="M204 209L294 227L294 223L204 205L204 209Z"></path>
<path fill="#474F7E" d="M312 163L294 199L294 195L312 159V163Z"></path>
<path fill="#474F7E" d="M312 191L294 227L294 223L296 219L296 195L298 191L298 215L308 195V191L298 211L298 207L308 187V171L310 167V191L312 187V191Z"></path>
<path fill="#771D36" d="M174 195L179 196V204L174 203V195Z"></path>
<path fill="#430E20" d="M179 196L181 192V200L179 204V196Z"></path>
</svg>
