<svg xmlns="http://www.w3.org/2000/svg" fill="none" viewBox="0 0 300 300" height="300" width="300">
<path fill="#FDD92D" d="M72 253.003L150 279.003V287.003L72 261V253.003Z"></path>
<path fill="#D0B324" d="M150 279.003L225 254.002V262.003L150 287.003V279.003Z"></path>
<path fill="#F63250" d="M93 172.005L153 192.012V276.003L93 256.003V172.005Z"></path>
<path fill="#FDD92D" d="M105 186.005L138 197.004V225.005L105 214.002V186.005Z"></path>
<path fill="#FFE12C" d="M108 185.002L141 196.002L138 197.007L105 186.005L108 185.002Z"></path>
<path fill="#D0B324" d="M138 197.007L141 196.002V224.002L138 225.005V197.007Z"></path>
<path fill="#6B4F46" d="M114 193.002L129 198.002V218.002L114 213V193.002Z"></path>
<path fill="#BFA195" d="M132 199L135 199.998L132 201.002L129 200.002L132 199Z"></path>
<path fill="#978076" d="M135 199.998V203.997L132 205.002V201L135 199.998Z"></path>
<path fill="#B89C93" d="M132 201.002V205.002L129 204.004L129 200.002L132 201.002Z"></path>
<path fill="#BFA195" d="M132 215L135 215.998L132 217.003L129 216.002L132 215Z"></path>
<path fill="#978076" d="M135 215.998V219.997L132 221.002V217L135 215.998Z"></path>
<path fill="#B89C93" d="M132 217.003V221.002L129 220.005L129 216.002L132 217.003Z"></path>
<path fill="#BFA195" d="M114 198.998L123 201.995L120 203L111 200L114 198.998Z"></path>
<path fill="#978076" d="M123 201.995V213.995L120 215V202.998L123 201.995Z"></path>
<path fill="#6E5348" d="M117 197.993L126 200.99L123 201.995L114 198.995L117 197.993Z"></path>
<path fill="#594139" d="M126 200.99V212.99L123 213.995V201.993L126 200.99Z"></path>
<path fill="#D0B324" d="M120 203V215L111 218.005V206.003L120 203Z"></path>
<path fill="#FDD92D" d="M111 206.005V218.005L102 215.01V203.007L111 206.005Z"></path>
<path fill="#FDD92D" d="M120 203.002L111 206.003L102 203.007L111 200.005L120 203.002Z"></path>
<path fill="#FDD92D" d="M111 148.004V204.004L108 203.007V147.005L111 148.004Z"></path>
<path fill="#D0B324" d="M114 147.001V203L111 204.004V148.001L114 147.001Z"></path>
<path fill="#BFA195" d="M108 191.004V193.005V193.007L105 192.007L108 191.004Z"></path>
<path fill="#B89C93" d="M108 193.007V197.007L105 196.009L105 192.007L108 193.007Z"></path>
<path fill="#FDD92D" d="M117 208V211.998L114 213V209L117 208Z"></path>
<path fill="#BFA195" d="M84 247.005L90 249.002L84 251.005L78.0001 249.007L84 247.005Z"></path>
<path fill="#978076" d="M90 249.002V253.002L84 255.007V251.005L90 249.002Z"></path>
<path fill="#B89C93" d="M84 251.005V255.007L78.0003 253.009L78.0001 249.007L84 251.005Z"></path>
<path fill="#D0B324" d="M171 196.002L204 185.002V213.002L171 224V196.002Z"></path>
<path fill="#FDD92D" d="M168 195.005L171 196V224L168 223.002V195.005Z"></path>
<path fill="#FFE12C" d="M201 184.009L204 185.002L171 196L168 195.005L201 184.009Z"></path>
<path fill="#BFA195" d="M177 197.998L180 198.995L177 200L174 199L177 197.998Z"></path>
<path fill="#978076" d="M180 198.995V202.995L177 204V199.998L180 198.995Z"></path>
<path fill="#B89C93" d="M177 200V204L174 203.002L174 199L177 200Z"></path>
<path fill="#BFA195" d="M177 214.005L180 215.002L177 216.007L174 215.007L177 214.005Z"></path>
<path fill="#978076" d="M180 215.002V219.002L177 220.007V216.005L180 215.002Z"></path>
<path fill="#B89C93" d="M177 216.007V220.007L174 219.009L174 215.007L177 216.007Z"></path>
<path fill="#BFA195" d="M201 206.005L204 207.002L201 208.007L198 207.007L201 206.005Z"></path>
<path fill="#978076" d="M204 207.002V211.002L201 212.007V208.005L204 207.002Z"></path>
<path fill="#B89C93" d="M201 208.007V212.007L198 211.009L198 207.007L201 208.007Z"></path>
<path fill="#BFA195" d="M201 190.007L204 191.005L201 192.01L198 191.01L201 190.007Z"></path>
<path fill="#978076" d="M204 191.005V195.005L201 196.01V192.007L204 191.005Z"></path>
<path fill="#B89C93" d="M201 192.01V196.01L198 195.012L198 191.01L201 192.01Z"></path>
<path fill="#594139" d="M180 197.005L195 192.005V212.005L180 217.002V197.005Z"></path>
<path fill="#BFA195" d="M192 197.002L195 198L186 201.005L183 200.005L192 197.002Z"></path>
<path fill="#978076" d="M195 198V202.002L198 203.002L198 207.007L195 208.001V210L186 213.005V209.004L189 210V206.005L186 205.002V201.005L195 198Z"></path>
<path fill="#B89C93" d="M186 201.005V205.002L189 206.005V210L186 209.004V213.005L183 212.007L183 200.005L186 201.005Z"></path>
<path fill="#BFA195" d="M195 202L198 202.997L189 206.002L186 205.002L195 202Z"></path>
<path fill="#D0B324" d="M168 227.005L201 216.005V220.005V222L198 221.002L171 230.002V262.003L168 263.003V227.005Z"></path>
<path fill="#FFE12C" d="M213 256L216 256.999L213 258.003L183 268.003L168 263.003L171 262.003L183 266.003L210 257.003V255.003L213 256Z"></path>
<path fill="#FDD92D" d="M183 268.003V276L168 271.003V263.003L183 268.003Z"></path>
<path fill="#CB2741" d="M153 192.005L216 171.002V254.993L213 256L210 255.003V225L204 213.002V185.002L201 184.009L168 195.005V223.002L171 224L204 213.002L210 225L201 222V220.005V216.005L168 227.005V271.003L153 276.003V192.005Z"></path>
<path fill="#FFE02A" d="M93 246.002V256.003L153 276.003L168 271.003L171 272.003L150 279.005L72 253.003L78.0002 251.008L78.0003 253.009L84 255.007L90 253.002V249.002L87 248.004L93 246.002Z"></path>
<path fill="#FFE12C" d="M222 253.01L225 254.002L216 256.999L213 256L216 255.007L216 251.002L222 253.01Z"></path>
<path fill="#B89C93" d="M87 164.009L108 171.016V179.007L87 172.007V164.009Z"></path>
<path fill="#B89C93" d="M114 173.003L153 186.01V194.001L114 181.001V173.003Z"></path>
<path fill="#978078" d="M153 186.003L222 163.01V171.001L153 194.001V186.003Z"></path>
<path fill-opacity="0.5" fill="#32AFF4" d="M81.0001 43.9998L153 68.0069V187.997L114 174.997V121L108 121.001V173L81 164.009L81.0001 43.9998Z"></path>
<path fill="#978076" d="M114 138.997V146.996L111 148.001V139.999L114 138.997Z"></path>
<path fill="#B89C93" d="M111 140.002V148.001L108 147.004L108 139.001L111 140.002Z"></path>
<path fill="#CB2741" d="M120 122.995V134.995L114 137L114 138.997L111 139.999V125.998L120 122.995Z"></path>
<path fill="#F63250" d="M111 126V139.999L108 139.001L108 137L102 135.005V123.002L111 126Z"></path>
<path fill="#FF3251" d="M120 122.997L111 125.998L102 123.002L111 120L120 122.997Z"></path>
<path fill-opacity="0.5" fill="#31A2DE" d="M153 67.9882L228 42.9952V162.986L153 187.997L153 67.9882Z"></path>
<path fill="#F63250" d="M87 36L153 58.0092V66L87 43.9998V36Z"></path>
<path fill="#CB2741" d="M153 58.0021L222 35.0043V42.9952L153 66V58.0021Z"></path>
<path fill="#FF3251" d="M156 13L222 35.0043L153 58.0092L87 36L156 13Z"></path>
<path fill-opacity="0.5" fill="#32ADF3" d="M87 42V43.9998L153 66L222 42.9952V41L228 42.9952L153 68.0069L81.0001 43.9998L87 42Z"></path>
</svg>
