<svg xmlns="http://www.w3.org/2000/svg" fill="none" viewBox="0 0 200 200" height="200" width="200">
<path fill="#FFCDBF" d="M65 116L115 126L135 86V85L85 75L66 113L65 115V116Z"></path>
<path fill="#745E57" d="M115 129L135 89V85L115 125L65 115V119L115 129Z"></path>
<path fill="#FFA455" d="M85 75L135 85L115 125L65 115L85 75Z"></path>
<path fill="#44252A" d="M110 120L115 121V125L110 124V120Z"></path>
<path fill="#7C4444" d="M110 120L115 121L135 81L130 80L110 120Z"></path>
<path fill="#27161D" d="M135 81L115 121V125L135 85V81Z"></path>
<path fill="#6D2E1F" d="M67 103L117 113L119 109V113L117 117L67 107V103Z"></path>
<path fill="#C35432" d="M67 103L117 113L119 109L69 99L67 103Z"></path>
<path fill="#6D2E1F" d="M81 75L131 85L133 81V85L131 89L81 79V75Z"></path>
<path fill="#C35432" d="M81 75L131 85L133 81L83 71L81 75Z"></path>
</svg>
