<svg xmlns="http://www.w3.org/2000/svg" fill="none" viewBox="0 0 400 400" height="400" width="400">
<path fill="#96451A" d="M172 194.991L182 196.991V220.991L172 218.991V194.991Z"></path>
<path fill="#FF7626" d="M184 170.991L194 172.991L182 196.991L172 194.991L184 170.991Z"></path>
<path fill="#572617" d="M194 172.991V196.991L182 220.991V196.991L194 172.991Z"></path>
<path fill="#FF7626" d="M186.364 196.264L190 196.991L186 204.992V196.991L186.364 196.264Z"></path>
<path fill="#96451A" d="M186.364 196.264L190 188.991V196.991L186.364 196.264Z"></path>
<path fill="#5950A9" d="M174 200.995L199 205.995V225.995L174 220.995V200.995Z"></path>
<path fill="#534CAC" d="M179 205.995L194 208.995V220.995L179 217.995V205.995Z"></path>
<path fill="#9B8FFD" d="M178 192.995L203 197.995L199 205.995L174 200.995L178 192.995Z"></path>
<path fill="#332F83" d="M203 197.995V217.995L199 225.995V205.995L203 197.995Z"></path>
<path fill="#E966CE" d="M182 184.997L207 189.997L203 197.997L178 192.997L182 184.997Z"></path>
<path fill="#4A235E" d="M207 189.997V209.997L203 217.997V197.997L207 189.997Z"></path>
<path fill="#9B8FFD" d="M186 176.997L211 181.997L207 189.997L182 184.997L186 176.997Z"></path>
<path fill="#332F83" d="M211 181.997V201.997L207 209.997V189.997L211 181.997Z"></path>
<path fill="#9B8FFD" d="M190 168.996L215 173.996L211 181.996L186 176.996L190 168.996Z"></path>
<path fill="#332F83" d="M215 173.996V193.996L211 201.996V181.996L215 173.996Z"></path>
<path fill="#9B8FFD" d="M194 160.996L219 165.996L215 173.996L190 168.996L194 160.996Z"></path>
<path fill="#332F83" d="M219 165.996V185.996L215 193.996V173.996L219 165.996Z"></path>
<path fill="#9B8FFD" d="M198 152.993L223 157.993L219 165.993L194 160.993L198 152.993Z"></path>
<path fill="#332F83" d="M223 157.993V177.993L219 185.994V165.993L223 157.993Z"></path>
<path fill="#9B8FFD" d="M202 144.992L227 149.992L223 157.992L198 152.992L202 144.992Z"></path>
<path fill="#332F83" d="M227 149.992V169.992L223 177.992V157.992L227 149.992Z"></path>
<path fill="#FFB2D4" d="M206 136.992L231 141.992L227 149.992L202 144.992L206 136.992Z"></path>
<path fill="#543054" d="M231 141.992V161.992L227 169.992V149.992L231 141.992Z"></path>
<path fill="#FA8DFF" d="M210 128.993L235 133.993L231 141.992L206 136.992L210 128.993Z"></path>
<path fill="#542E78" d="M235 133.993V153.993L231 161.992V141.992L235 133.993Z"></path>
<path fill="#9C8FFE" d="M214 120.993L239 125.993L235 133.993L210 128.993L214 120.993Z"></path>
<path fill="#35317B" d="M239 125.993V145.993L235 153.993V133.993L239 125.993Z"></path>
<path fill="#E966CE" d="M218 112.992L243 117.992L239 125.992L214 120.992L218 112.992Z"></path>
<path fill="#4A235E" d="M243 117.992V137.992L239 145.992V125.992L243 117.992Z"></path>
<path fill="#735AFE" d="M231 102L246 105L242 113L227 110L231 102Z"></path>
<path fill="#272071" d="M246 105V113L243 119V118L242 117.792V113L246 105Z"></path>
<path fill="#3F30A5" d="M227 110L242 113V117.792L243 118V119V117.992L242 117.792L227 114.792V110Z"></path>
<path fill="#735AFE" d="M232 115L237 116L236.64 116.72L231.64 115.72L232 115Z"></path>
<path fill="#272071" d="M237 116V116.792L236.64 116.72L237 116Z"></path>
<path fill="#96451A" d="M207 201.991L217 203.991V227.991L207 225.991V201.991Z"></path>
<path fill="#FF7626" d="M219 177.991L229 179.991L217 203.991L207 201.991L219 177.991Z"></path>
<path fill="#572617" d="M229 179.991V203.991L217 227.991V203.991L229 179.991Z"></path>
<path fill="#FF7626" d="M221.364 203.264L225 203.991L221 211.992V203.991L221.364 203.264Z"></path>
<path fill="#96451A" d="M221.364 203.264L225 195.991V203.991L221.364 203.264Z"></path>
<path fill="#6D1928" d="M120 168.991L265 197.991V201.991L120 172.991V168.991Z"></path>
<path fill="#811D29" d="M125 165.991L260 192.991V196.991L125 169.991V165.991Z"></path>
<path fill="#811D29" d="M125 173.991L260 200.991V204.991L125 177.991V173.991Z"></path>
<path fill="#E33347" d="M141 133.991L276 160.991L260 192.991L125 165.991L141 133.991Z"></path>
<path fill="#C72940" d="M276 164.991L281 165.991L265 197.991L260 196.991L276 164.991Z"></path>
<path fill="#510914" d="M276 160.991V164.991L260 196.991V192.991L276 160.991Z"></path>
<path fill="#3F080E" d="M281 165.991V169.991L265 201.991V197.991L281 165.991Z"></path>
<path fill="#510914" d="M261.818 201.355L260 204.991V200.991L261.818 201.355Z"></path>
<path fill="#C72940" d="M136 136.991L139.182 137.628L125 165.991V169.991L120 168.991L136 136.991Z"></path>
<path fill="#B43548" d="M138 150.991L148 152.991L144 160.991L134 158.991L138 150.991Z"></path>
<path fill="#FFDF7C" d="M252 164.991L262 166.991L254 182.991L244 180.991L252 164.991Z"></path>
<path fill="#F9F8FD" d="M155 149.991L240 166.991L234 178.991L219 175.991L221 171.991L206 168.991L204 172.991L179 167.991L181 163.991L176 162.991L174 166.991L159 163.991L161 159.991L151 157.991L155 149.991Z"></path>
<path fill="#514059" d="M157 145.991L242 162.991L240 166.991L155 149.991L157 145.991Z"></path>
<path fill="#FFDF7C" d="M221 149.991L226 150.991L210 182.991L205 181.991L221 149.991Z"></path>
<path fill="#FFDF7C" d="M191 143.991L196 144.991L180 176.991L175 175.991L191 143.991Z"></path>
<path fill="#947445" d="M175 175.991L180 176.991V188.991L175 187.991V175.991Z"></path>
<path fill="#947445" d="M205 181.991L210 182.991V194.991L205 193.991V181.991Z"></path>
<path fill="#FFDF7C" d="M184.009 210.991L189.009 211.991L183.009 223.991L178.009 222.991L184.009 210.991Z"></path>
<path fill="#5D3D16" d="M189.009 211.991V215.991L183.009 227.991V223.991L189.009 211.991Z"></path>
<path fill="#997246" d="M183 223.991V227.991L178.009 226.991L178.009 222.991L183 223.991Z"></path>
<path fill="#4034A2" d="M183.002 223.991L188.002 224.991V220.991L208.002 224.991V237L188.002 232.991V228.991L183.002 227.991V223.991Z"></path>
<path fill="#4034A2" d="M153 225.991V213.991L173 217.991V221.991L178 222.991V226.991L173 225.991V229.991L153 225.991Z"></path>
<path fill="#7258FD" d="M153 213.991L155 209.991L175 213.991L173 217.991L153 213.991Z"></path>
<path fill="#7258FD" d="M188.002 220.991L190.002 216.991L210.002 220.991L208.002 224.991L188.002 220.991Z"></path>
<path fill="#7258FD" d="M173 221.991L175 217.991L180 218.991L178 222.991L173 221.991Z"></path>
<path fill="#23167F" d="M173 217.991L175 213.991V217.991L173 221.991V217.991Z"></path>
<path fill="#23167F" d="M173 225.991L174.818 226.355L173 229.991V225.991Z"></path>
<path fill="#7258FD" d="M183.002 223.991L185.002 219.991L188.183 220.628L188.002 220.991V224.991L183.002 223.991Z"></path>
<path fill="#23167F" d="M208.002 224.991L210.002 220.991V232.991L208.002 237V224.991Z"></path>
</svg>
