<svg xmlns="http://www.w3.org/2000/svg" fill="none" viewBox="0 0 200 200" height="200" width="200">
<path fill="#905700" d="M93.5 71.5L103.5 73.5V75.5L108.5 76.5V78.5L111 79L111 81L113.5 81.5L113.5 87.5L116 88L116 104L113.5 103.5V101.5L111 101V99L108.5 98.5V100.5L106 100V102L101 101V97L96 96V100L91 99V97L88.5 96.5V94.5L86 94V96L83.5 95.5V97.5L81 97V81L83.5 81.5V75.5L86 76V74L88.5 74.5V72.5L93.5 73.5V71.5Z"></path>
<path fill="#FE9901" d="M97.5 63.5L107.5 65.5L103.5 73.5L93.5 71.5L97.5 63.5Z"></path>
<path fill="#FE9901" d="M107.5 67.5L112.5 68.5L108.5 76.5L103.5 75.5L107.5 67.5Z"></path>
<path fill="#FE9901" d="M115 73L117.5 73.5L113.5 81.5L111 81L115 73Z"></path>
<path fill="#FE9901" d="M92.5 64.5L96.5909 65.3182L93.5 71.5V73.5L88.5 72.5L92.5 64.5Z"></path>
<path fill="#FE9901" d="M90 66L91.5909 66.3182L88.5 72.5V74.5L86 74L90 66Z"></path>
<path fill="#FE9901" d="M112.5 70.5L115 71L111 79L108.5 78.5L112.5 70.5Z"></path>
<path fill="#533200" d="M115 71L115 73L111 81L111 79L115 71Z"></path>
<path fill="#533200" d="M117.5 73.5V79.5L120 80V96L116 104L116 88L113.5 87.5L113.5 81.5L117.5 73.5Z"></path>
<path fill="#533200" d="M112.5 68.5V70.5L108.5 78.5V76.5L112.5 68.5Z"></path>
<path fill="#533200" d="M107.5 65.5V67.5L103.5 75.5V73.5L107.5 65.5Z"></path>
<path fill="#FE9901" d="M117.5 79.5L120 80L116 88L113.5 87.5L117.5 79.5Z"></path>
<path fill="#FE9901" d="M87.5 67.5L89.0909 67.8182L86 74V76L83.5 75.5L87.5 67.5Z"></path>
<path fill="#FE9901" d="M83.5 76V75.5V81.5L81 81L83.5 76Z"></path>
<path fill="#533200" d="M84.4091 95.6818L83.5 97.5V95.5L84.4091 95.6818Z"></path>
<path fill="#533200" d="M86.9091 94.1818L86 96V94L86.9091 94.1818Z"></path>
<path fill="#533200" d="M106.909 100.182L106 102V100L106.909 100.182Z"></path>
<path fill="#533200" d="M109.409 98.6818L108.5 100.5V98.5L109.409 98.6818Z"></path>
<path fill="#533200" d="M97.8182 96.3636L96 100V96L97.8182 96.3636Z"></path>
<path fill="#8083AE" d="M86 76L91 77V79L93.5 79.5V85.5L91 85V87L86 86L86 84L83.5 83.5V77.5L86 78L86 76Z"></path>
<path fill="#8083AE" d="M101 79L106 80V82L108.5 82.5V86.5L108.5 88.5L106 88V90L101 89L101 87L98.5 86.5V80.5L101 81V79Z"></path>
<path fill="#1322BB" d="M83.5 79.5L88.5 80.5L88.5 84.5L83.5 83.5L83.5 79.5Z"></path>
<path fill="#1322BB" d="M98.5 82.5L103.5 83.5L103.5 87.5L98.5 86.5L98.5 82.5Z"></path>
</svg>
