<svg xmlns="http://www.w3.org/2000/svg" fill="none" viewBox="0 0 200 200" height="200" width="200">
<path fill="#721523" d="M99 94.0019L104 95.0019V99.0019L99 98.0019V94.0019Z"></path>
<path fill="#410C18" d="M104 95.0019L106 91.0004V95.0019L104 99.0019V95.0019Z"></path>
<path fill="#8787B7" d="M99 90.0004L104 91.0019V95.0019L99 94.0019V90.0004Z"></path>
<path fill="#4F507E" d="M104 91.0019L106 87.0005V91.0004L104 95.0019V91.0019Z"></path>
<path fill="#204F31" d="M99 86.0004L104 87.0004V91.0019L99 90.0004V86.0004Z"></path>
<path fill="#122E22" d="M104 87.0004L106 83.0005V87.0005L104 91.0019V87.0004Z"></path>
<path fill="#8787B7" d="M99 82.0025L104 82.9998V87.0004L99 86.0004V82.0025Z"></path>
<path fill="#4F507E" d="M104 82.9998L106 78.9999V83.0005L104 87.0004V82.9998Z"></path>
<path fill="#721523" d="M99 78.0025L104 79.0008V82.9998L99 82.0025V78.0025Z"></path>
<path fill="#410C18" d="M104 79.0008L106 74.9993V78.9999L104 82.9998V79.0008Z"></path>
<path fill="#8787B7" d="M99 73.9993L104 75.0008V79.0008L99 78.0025V73.9993Z"></path>
<path fill="#4F507E" d="M104 75.0008L106 70.9994V74.9993L104 79.0008V75.0008Z"></path>
<path fill="#204F31" d="M99 69.9993L104 70.9993V75.0008L99 73.9993V69.9993Z"></path>
<path fill="#122E22" d="M104 70.9993L106 66.9994V70.9994L104 75.0008V70.9993Z"></path>
<path fill="#8787B7" d="M99 66.0011L104 67.0015V70.9993L99 69.9993V66.0011Z"></path>
<path fill="#4F507E" d="M104 67.0015L106 63.0016V66.9994L104 70.9993V67.0015Z"></path>
<path fill="#F7F3FF" d="M99 66.0011L101 62.002L106 63.0016L104 67.0015L99 66.0011Z"></path>
<path fill="#721523" d="M94 64.9983L99 65.9983V69.9993L94 68.9983V64.9983Z"></path>
<path fill="#CD2738" d="M94 64.9983L96 60.9988L101 61.9984L99 65.9983L94 64.9983Z"></path>
<path fill="#F7F3FF" d="M89 63.9971L91 59.9976L96 60.9972L94 64.9971L89 63.9971Z"></path>
<path fill="#8787B7" d="M89 63.9999L94 65.0003V68.9983L89 67.9981V63.9999Z"></path>
<path fill="#204F31" d="M84 62.9995L89 63.9999V67.9995L84 66.9995V62.9995Z"></path>
<path fill="#3A8D4E" d="M84 62.9995L86 59L91 59.9996L89 63.9999L84 62.9995Z"></path>
<path fill="#8787B7" d="M84 66.9976L89 67.9981V71.9959L84 70.9957V66.9976Z"></path>
<path fill="#721523" d="M84 70.9957L89 71.9959V75.9967L84 74.9957V70.9957Z"></path>
<path fill="#410C18" d="M89 71.9959L90.8166 68.3615L91 68.3981V71.9959L89 75.9967V71.9959Z"></path>
<path fill="#4F507E" d="M89 67.9995L90.8166 68.3615L89 71.9972V67.9995Z"></path>
</svg>
