<svg xmlns="http://www.w3.org/2000/svg" fill="none" viewBox="0 0 300 300" height="300" width="300">
<path fill="black" d="M126 150L266 178V186L126 158V150Z"></path>
<path fill="black" d="M266 178L274 162V170L266 186V178Z"></path>
<path fill="black" d="M134 134L274 162L266 178L126 150L134 134Z"></path>
<path fill="#CC0000" d="M126 150L266 178V186L263.5 185.5V179.5L128.5 152.5V158.5L126 158V150Z"></path>
<path fill="#800000" d="M274 162L266 178V186L267 184V178L273 166V172L274 170V162Z"></path>
<path fill="#FF0000" d="M134 134L274 162L266 178L264.5 175.5L270.5 163.5L135.5 136.5L129.5 148.5L264.5 175.5L266 178L126 150L134 134Z"></path>
</svg>
