<svg xmlns="http://www.w3.org/2000/svg" fill="none" viewBox="0 0 400 400" height="400" width="400">
<path fill="#85271B" d="M136 183L150 155L225 170V182L211 210L136 195V183Z"></path>
<path fill="#893920" d="M136 183L211 198V206L176 199L179 199.6V196L169 194V197.6L176 199L136 191V183Z"></path>
<path fill="#48578E" d="M213 198L215 194V198L213 202V198Z"></path>
<path fill="#48578E" d="M221 182L223 178V182L221 186V182Z"></path>
<path fill="#55588F" d="M188 177L198 157V169L196 173V165L190 177V185L188 189V177Z"></path>
<path fill="#F9FFFF" d="M158 149L198 157L188 177L148 169L158 149Z"></path>
<path fill="#000100" d="M190 177L196 165V173L190 185V177Z"></path>
<path fill="#000100" d="M183 188V180L163 176V184L183 188Z"></path>
<path fill="#000100" d="M186 201L201 204V212H203L201 216L186 213V201Z"></path>
<path fill="#000100" d="M141 192L156 195V203H158L156 207L141 204V192Z"></path>
<path fill="#181319" d="M158 183V175L153 174V182L158 183Z"></path>
<path fill="#4B4575" d="M136 195L141 196V200L136 199V195Z"></path>
<path fill="#4B4575" d="M156 199L186 205V209L156 203V199Z"></path>
<path fill="#4B4575" d="M201 208L211 210V214L201 212V208Z"></path>
<path fill="#4C1711" d="M215 198L221 186L225 178V182L211 210V206L215 198Z"></path>
<path fill="#4C1711" d="M215 190L221 178V182L215 194V190Z"></path>
<path fill="#4F2016" d="M215 190V194L213 198V202L211 206V198L215 190Z"></path>
<path fill="#4F2016" d="M225 170V178L223 182V178L221 182V178L225 170Z"></path>
<path fill="#4C1711" d="M215 194L221 182V186L215 198V194Z"></path>
<path fill="#4C1711" d="M179 196L181 192V196L179 200V196Z"></path>
<path fill="#2D294E" d="M211 210L225 182V186L211 214V210Z"></path>
<path fill="#F96734" d="M198 164.6L225 170L211 198L186 193L198 169V164.6Z"></path>
<path fill="#F96734" d="M145 176L148 170V181L188 189L186 193L136 183L140 175L145 176Z"></path>
<path fill="#F96734" d="M154.545 155.909L151.5 162L150.545 163.909L146 163L150 155L154.545 155.909Z"></path>
<path fill="#F24729" d="M196 173L221 178L215 190L190 185L196 173Z"></path>
<path fill="#F24729" d="M146 163L150.545 163.909L148 169L150 177L140 175L146 163Z"></path>
<path fill="#F24729" d="M171 190L181 192L179 196L169 194L171 190Z"></path>
<path fill="#879DD4" d="M146 197L151 198V202L146 201V197Z"></path>
<path fill="#879DD4" d="M191 206L196 207V211L191 210V206Z"></path>
<path fill="#8C95CE" d="M148 169L188 177V189L183 188V180L163 176V184L158 183V175L153 174V182L148 181V169Z"></path>
</svg>
