<svg xmlns="http://www.w3.org/2000/svg" fill="none" viewBox="0 0 480 360" height="360" width="480">
<rect fill-opacity="0.9" fill="#6ACDEC" height="360" width="480"></rect>
<path stroke-width="2" stroke="white" fill="#56C6F8" d="M12 13H13V12V11H57V12V13H58H59V47H58H57V48V49H13V48V47H12H11V13H12Z"></path>
<path fill="#2CACE8" d="M12 42H14V44H56V42H58V46H56V48H14V46H12V42Z"></path>
<path fill="white" d="M38 38L38 18L37 18L36 18L36 19L36 20L35 20L34 20L34 21L34 22L33 22L32 22L32 23L32 24L31 24L30 24L30 25L30 26L29 26L28 26L28 27L28 28L28 29L28 30L29 30L30 30L30 31L30 32L31 32L32 32L32 33L32 34L33 34L34 34L34 35L34 36L35 36L36 36L36 37L36 38L37 38L38 38Z"></path>
<path fill="white" d="M216 326L216 324H220L220 328V336L220 340H216V336V328V326Z"></path>
<path fill="white" d="M236 326H238V324H246V326H248V328H244H240V336H244V328H248V338H246V340H238V338H236V326Z"></path>
<path fill="white" d="M222 326H224V324H232V326H234V328H230H226V336H230V328H234V338H232V340H224V338H222V326Z"></path>
<path fill="white" d="M262 325L252 325L252 327L250 327L250 337L252 337L252 339L262 339L262 337L264 337L264 327L262 327L262 325Z"></path>
<path fill="#56C6F8" d="M260 328.999L254 328.999L254 334.999L260 334.999L260 332.999L256 332.999L256 330.999L260 330.999L260 328.999Z"></path>
</svg>
