<svg xmlns="http://www.w3.org/2000/svg" fill="none" viewBox="0 0 54 54" height="54" width="54">
<path fill="#FDFDFB" d="M0.00015521 8.99901L27.0002 17.999L26.9998 53.999L-0.000244141 44.999L0.00015521 8.99901Z"></path>
<path fill="#6FA9BF" d="M27.0002 17.999L54.0002 8.99901L53.9998 44.999L26.9998 53.999L27.0002 17.999Z"></path>
<path fill="#FDFDFB" d="M27.0002 -0.000976562L54.0002 8.99901L27.0002 17.999L0.00015521 8.99901L27.0002 -0.000976562Z"></path>
<path fill="#ADFDFA" d="M27.0002 17.999L12.0004 12.999L12 48.999L26.9998 53.999L27.0002 17.999Z"></path>
<path fill="#B5FFFC" d="M54.0002 8.99901L39.0004 3.99935L30.0002 6.99968L27 6L18 9L21 10L12.0004 12.999L27.0002 17.999L54.0002 8.99901Z"></path>
<path fill="#96E9FB" d="M15 13.9997L12.0004 12.999L12.0003 24.9997L11.9999 36.9997L12 48.999L14.9996 49.9997L15 13.9997Z"></path>
<path fill="#96E9FB" d="M42 5.00012L39.0004 3.99935L30.0002 6.99968L27 6L18 9L21 10L12.0004 12.999L15 13.9997L42 5.00012Z"></path>
</svg>
