<svg xmlns="http://www.w3.org/2000/svg" fill="none" viewBox="0 0 200 200" height="200" width="200">
<path fill="#CCBC29" d="M96.4977 91L101.498 92V100L96.4977 99V91Z"></path>
<path fill="#807519" d="M101.498 92L103.498 88V96L101.498 100V92Z"></path>
<path fill="#CCBC29" d="M92.9977 84.5L102.998 86.5V94.5L92.9977 92.5V84.5Z"></path>
<path fill="#807519" d="M102.998 86.5L106.998 78.5V86.5L102.998 94.5V86.5Z"></path>
<path fill="#CCBC29" d="M89.4977 80L104.498 83V89L89.4977 86V80Z"></path>
<path fill="#807519" d="M104.498 83L110.498 71V77L104.498 89V83Z"></path>
<path fill="#CCBC29" d="M85.9977 75.5L105.998 79.5V83.5L85.9977 79.5V75.5Z"></path>
<path fill="#807519" d="M105.998 79.5L113.998 63.5V67.5L105.998 83.5V79.5Z"></path>
<path fill="#FFEB33" d="M93.9977 59.5L113.998 63.5L105.998 79.5L85.9977 75.5L93.9977 59.5Z"></path>
<path fill="#CC66B6" d="M85.9977 73.5L105.998 77.5V79.5L85.9977 75.5V73.5Z"></path>
<path fill="#804071" d="M105.998 77.5L113.998 61.5V63.5L105.998 79.5V77.5Z"></path>
<path fill="#CC66B6" d="M82.4977 55L107.498 60V80L82.4977 75V55Z"></path>
<path fill="#804071" d="M107.498 60L117.498 40V60L107.498 80V60Z"></path>
<path fill="#FF80E3" d="M92.4977 35L117.498 40L107.498 60L82.4977 55L92.4977 35Z"></path>
<path fill="#CC66B6" d="M85.9977 51.5L105.998 55.5V57.5L85.9977 53.5V51.5Z"></path>
<path fill="#804071" d="M105.998 55.5L113.998 39.5002V41.4993L105.998 57.4993V55.5Z"></path>
<path fill="#CC66B6" d="M108.498 60L110.998 60.5V76.5L108.498 76V60Z"></path>
<path fill="#FF80E3" d="M116.498 44L118.998 44.5L110.998 60.5L108.498 60L116.498 44Z"></path>
<path fill="#804071" d="M110.998 60.5L118.998 44.5V60.5L110.998 76.5V60.5Z"></path>
<path fill="#FF80E3" d="M84.9974 57.5L104.997 61.5L103.997 63.5L83.9974 59.5L84.9974 57.5Z"></path>
<path fill="#CC66B6" d="M83.9974 59.5L103.997 63.5V79.5L83.9974 75.5V59.5Z"></path>
<path fill="#804071" d="M103.997 63.5L104.997 61.5V77.4998L103.997 79.5V63.5Z"></path>
<path fill="#CC66B6" d="M81 54.4995L82.589 54.8173L82.4977 55V70.799L81 70.4995V54.4995Z"></path>
<path fill="#FF80E3" d="M89 38.4995L90.589 38.8173L82.589 54.8173L81 54.4995L89 38.4995Z"></path>
<path fill="#FF80E3" d="M95.9977 35.5033L115.998 39.5033L115.908 39.6821L95.9083 35.6821L95.9977 35.5033Z"></path>
<path fill="#804071" d="M115.908 39.6821L115.998 39.5033V39.7L115.908 39.6821Z"></path>
</svg>
