<svg xmlns="http://www.w3.org/2000/svg" fill="none" viewBox="0 0 200 200" height="200" width="200">
<path fill="#150603" d="M118 34L143 39V47L141 51L136 50V46L134 50L129 49V48.5L126 48V44L124 48L119 47V46.5L116 46V38L118 34Z"></path>
<path fill="#3D0F12" d="M118 34L143 39L141 43L136 42L134 46L129 45L131 41L126 40L124 44L119 43L121 39L116 38L118 34Z"></path>
<path fill="#22090F" d="M116 38L121 39L119 43L124 44V48L119 47V46.6L116 46V38Z"></path>
<path fill="#22090F" d="M126 40L131 41L129 45L134 46V50L129 49V48.6L126 48V40Z"></path>
<path fill="#22090F" d="M136 42L141 43V51L136 50V42Z"></path>
<path fill="#5B162B" d="M119 47L124 48V52L119 51V47Z"></path>
<path fill="#350F1C" d="M126 44L124 48V52L126 48V44Z"></path>
<path fill="#5B162B" d="M129 49L134 50V54L129 53V49Z"></path>
<path fill="#350F1C" d="M136 46L134 50V54L136 50V46Z"></path>
</svg>
