<svg xmlns="http://www.w3.org/2000/svg" fill="none" viewBox="0 0 200 200" height="200" width="200">
<path fill="white" d="M96.9971 57.0004L100.184 57.6379L97 64.0029V68.0007L101.997 69.0002L106 60.9977V58.8009L111.997 60.0004L104.998 74.0004L89.9983 71.0004L96.9971 57.0004Z"></path>
<path fill="#56598C" d="M111.997 82.4005V60.0004L104.998 74.0004V90.0004L100.997 98.0004V108L104.909 100.183L103.997 100.001V94.0007L109.997 82.0004L111.997 82.4005Z"></path>
<path fill="#9498C8" d="M104.998 90.0004V74.0004L89.9983 71.0004V87.0004L104.998 90.0004Z"></path>
<path fill="white" d="M89.9983 87.0004L104.998 90.0004L100.997 98.0004L98.4971 97.5004L97.4971 99.5004L87.4971 97.5004L88.4971 95.5004L85.9971 95.0007L89.9983 87.0004Z"></path>
<path fill="#56598C" d="M98.4971 103.5V97.5004L97.4983 99.5004V105.5L98.4971 103.5Z"></path>
<path fill="#9498C8" d="M100.997 104V98.0004L98.4971 97.5004V103.5L97.4971 105.5V99.5004L87.4971 97.5004L88.4971 95.5004L85.9971 95.0007V105L100.997 108V104Z"></path>
<path fill="white" d="M109.997 82.0004L114.996 83.0004L108.997 95.0007L103.997 94.0007L109.997 82.0004Z"></path>
<path fill="white" d="M90.0054 78.0004L89.9983 87.0004L88.0837 90.8279L84 90.0112L90.0054 78.0004Z"></path>
<path fill="#9498C8" d="M108.999 101.001L108.997 95.0007L103.997 94.0007V100.001L108.999 101.001Z"></path>
<path fill="#9498C8" d="M85.9971 96.4103V95.0007L88.0837 90.8279L84 90.0112L84.0005 96.0112L85.9971 96.4103Z"></path>
<path fill="#56598C" d="M114.996 89.0004V83.0004L108.997 95.0007L108.999 101.001L114.996 89.0004Z"></path>
<path fill="#F27257" d="M109.997 57.0024L108.814 59.3638L106 58.8009V57.0029L104.635 56.7291L105 56L109.997 57.0024Z"></path>
<path fill="#4C2425" d="M109.997 57.0024V59.6004L108.814 59.3667L109.997 57.0024Z"></path>
<path fill="#EC6373" d="M106 57.0029L101.997 65.0023L97 64.0029L101.003 56.0004L106 57.0029Z"></path>
<path fill="#803647" d="M101.997 65.0053V69.0002L97 68.0007V64.0029L101.997 65.0053Z"></path>
<path fill="#4E1F31" d="M106 57.0029V60.9977L101.997 69.0032V65.0053L106 57.0029Z"></path>
<path fill="#823E35" d="M107.003 100.605L107.006 101.998L104.506 101.498L104.5 101.001L104.909 100.183L107.003 100.605Z"></path>
<path fill="#4C2425" d="M107.637 100.728L107.003 102.001V100.605L107.637 100.728Z"></path>
<path fill="#F27257" d="M113.5 94.5007L108.506 104.498L103.273 103.452L104.5 101.001L104.506 101.498L107.003 102.001L107.637 100.728L108.999 101.001L112.361 94.273L113.5 94.5007Z"></path>
<path fill="#823E35" d="M108.506 104.498V106.501L102.362 105.273L103.273 103.452L106.412 104.076L108.506 104.498Z"></path>
<path fill="#4C2425" d="M113.5 94.5007V96.5032L108.506 106.501V104.498L113.5 94.5007Z"></path>
<path fill="#0A0A26" d="M111.006 65.998V67.9954L110.004 70.0012V68.0007L111.006 65.998Z"></path>
</svg>
