<svg xmlns="http://www.w3.org/2000/svg" fill="none" viewBox="0 0 200 200" height="200" width="200">
<path fill="#0762CB" d="M89.02 79.0016L109.02 83.0016V95.0016L114.02 96.0016V112.002L89.02 107.002V79.0016Z"></path>
<path fill="#8768BB" d="M89.02 103.002L114.02 108.002V112.002L89.02 107.002V103.002Z"></path>
<path fill="#0053AF" d="M89.02 99.0016L114.02 104.002V108.002L89.02 103.002V99.0016Z"></path>
<path fill="#8F7223" d="M99.02 85.0016L109.02 87.0015V95.0016L99.0198 93.0016L99.02 85.0016Z"></path>
<path fill="#391D20" d="M89.0201 83.0016L99.02 85.0016L99.0198 93.0016L89.02 91.0016L89.0201 83.0016Z"></path>
<path fill="#0DAFFF" d="M101.02 55.002L121.02 59.0017L109.02 83.0016L89.02 79.0016L101.02 55.002Z"></path>
<path fill="#0DAFFF" d="M121.02 71.0021L126 71.9892L114.02 96.0016L109.02 95.0016L121.02 71.0021Z"></path>
<path fill="#04398B" d="M121.02 59.0017V63.0017L109.02 87.0015V83.0016L121.02 59.0017Z"></path>
<path fill="#003587" d="M126 71.9892V79.9894V87.9894L114.02 112.002V96.0016L126 71.9892Z"></path>
<path fill="#00307A" d="M114.02 104.002L118.02 96.0016V100.002L114.02 108.002V104.002Z"></path>
<path fill="#00307A" d="M122.02 88.0018L126 79.9894V83.9894L122.02 92.0018V88.0018Z"></path>
<path fill="#4F3C83" d="M114.02 108.002L126 83.9894V87.9894L114.02 112.002V108.002Z"></path>
<path fill="#4F588B" d="M116.02 96.0016L118.02 92.0016V96.0016L116.02 100.002V96.0016Z"></path>
<path fill="#4F588B" d="M122.02 84.0018L124.02 80.0018V84.0018L122.02 88.0018V84.0018Z"></path>
<path fill="#534218" d="M109.02 87.0015L121.02 63.0017L121.02 71.0021L109.02 95.0016V87.0015Z"></path>
<path fill="#8995CB" d="M91.0199 67.0021L101.02 69.0021V73.0021L106.02 74.004L106.02 78.004L91.0198 75.0021L91.0199 67.0021Z"></path>
<path fill="#4F588B" d="M114.02 58.0041V62.0041L106.02 78.004L106.02 74.004L114.02 58.0041Z"></path>
<path fill="#4F588B" d="M109.02 53.0028V57.0028L101.02 73.0021V69.0021L109.02 53.0028Z"></path>
<path fill="#F9FFFF" d="M109.02 57.0028L114.02 58.0041L106.02 74.004L101.02 73.0021L109.02 57.0028Z"></path>
<path fill="#F9FFFF" d="M99.0199 51.0031L109.02 53.0028L101.02 69.0021L91.0199 67.0021L99.0199 51.0031Z"></path>
<path fill="#002E76" d="M102.02 98.0016L104.02 94.0016V102.002L102.02 106.002V98.0016Z"></path>
<path fill="#0050AB" d="M97.02 97.0047L102.02 98.0016V106.002L97.02 105.005V97.0047Z"></path>
<path fill="#028FFF" d="M99.0198 93.0016L104.02 93.9985L102.02 98.0016L97.02 97.0047L99.0198 93.0016Z"></path>
<path fill="#391D20" d="M94.0202 100.005L97.0206 101.002L97.02 105.005L102.02 106.002L104.02 102.002L109.02 103.002L109.02 115.005L94.02 112.005L94.0202 100.005Z"></path>
<path fill="#832630" d="M99.0206 105.404L102.02 106.002L102.202 105.638L104.02 106.002V110.002L99.02 109.002L99.0206 105.404Z"></path>
<path fill="#201116" d="M109.02 111.002L110.84 111.365L109.02 115.005V111.002Z"></path>
<path fill="#154248" d="M97.0206 77.0015L99.0205 72.9984L99.0198 93.0016L97.02 97.0047L97.0206 101.002V77.0015Z"></path>
<path fill="#25726A" d="M82.0206 74.0047L97.0206 77.0015V101.002L92.0206 100.005V80.0031L82.0206 78.0046V74.0047Z"></path>
<path fill="#44CBA7" d="M84.0205 70.0015L99.0205 72.9984L97.0206 77.0015L82.0206 74.0047L84.0205 70.0015Z"></path>
<path fill="#0D93B7" d="M84.0205 70.0015L89.0204 70.9984L87.0206 75.0015L82.0206 74.0047L84.0205 70.0015Z"></path>
<path fill="#075372" d="M82.0206 74.0047L87.0206 75.0015V79.0015L82.0206 78.0046V74.0047Z"></path>
<path fill="#0D93B7" d="M94.0205 72.0015L99.0205 72.9984L97.0206 77.0015L92.0207 76.0047L94.0205 72.0015Z"></path>
<path fill="#075372" d="M92.0207 76.0047L97.0206 77.0015V81.0016L92.0207 80.0047V76.0047Z"></path>
<path fill="#04304E" d="M97.0206 77.0015L99.0205 72.9984L99.0205 76.9984L97.0206 81.0016V77.0015Z"></path>
<path fill="#075372" d="M92.0206 84.0047L97.0206 85.0016V89.0016L92.0206 88.0047V84.0047Z"></path>
<path fill="#04304E" d="M97.0206 85.0016L99.0205 80.9984V84.9985L97.0206 89.0016V85.0016Z"></path>
<path fill="#075372" d="M92.0208 92.008L97.0207 93.0049L97.02 97.0047L92.0208 96.008V92.008Z"></path>
<path fill="#04304E" d="M97.0207 93.0049L99.0206 89.0017L99.0198 93.0016L97.02 97.0047L97.0207 93.0049Z"></path>
<path fill="#25726A" d="M96.0211 46.0046L111.021 49.0015V53.0015L111.02 57.0019L109.02 56.6019V53.0028L106.021 52.4032L106.021 52.003L96.0211 50.0046V46.0046Z"></path>
<path fill="#44CBA7" d="M98.021 42.0015L113.021 44.9984L111.021 49.0015L96.0211 46.0046L98.021 42.0015Z"></path>
<path fill="#0D93B7" d="M98.021 42.0015L103.021 42.9984L101.021 47.0015L96.0211 46.0046L98.021 42.0015Z"></path>
<path fill="#075372" d="M96.0211 46.0046L101.021 47.0015V51.0015L96.0211 50.0046V46.0046Z"></path>
<path fill="#0D93B7" d="M108.021 44.0015L113.021 44.9984L111.021 49.0015L106.021 48.0046L108.021 44.0015Z"></path>
<path fill="#075372" d="M106.021 48.0046L111.021 49.0015V53.0015L106.021 52.0046V48.0046Z"></path>
<path fill="#04304E" d="M111.021 49.0015L113.021 44.9984L113.021 48.9984L111.021 53.0015V49.0015Z"></path>
<path fill="#154248" d="M111.021 53.0015L113.021 48.9984L113.021 53.0015L111.02 57.0019L111.021 53.0015Z"></path>
<path fill="#04304E" d="M111.021 57.0046L113.021 53.0015L113.021 57.402L111.021 57.0046Z"></path>
<path fill="#FFB993" d="M97.0198 54.9994L102.02 55.9963L100.02 59.9995L95.0199 59.0026L97.0198 54.9994Z"></path>
<path fill="#FFB993" d="M105.02 65.0071L110.02 66.004L108.02 70.0072L103.02 69.0103L105.02 65.0071Z"></path>
<path fill="#563D40" d="M110.02 66.004L110.02 70.004L108.02 74.0072L108.02 70.0072L110.02 66.004Z"></path>
<path fill="#784731" d="M29.0124 47.0003L79.0034 56.9971V96.9971L29.0122 87.0003L29.0124 47.0003Z"></path>
<path fill="#452922" d="M79.0034 56.9971L91.0034 32.9971L91.0199 67.0021L91.0198 71.3999L84.0205 70.0015L82.0206 74.0047L82.0207 78.003L87.9132 79.1822L79.0034 96.9971V56.9971Z"></path>
<path fill="#D97F4E" d="M41.0124 23L91.0034 32.9971L79.0034 56.9971L29.0124 47.0003L41.0124 23Z"></path>
<path fill="#93432F" d="M37.0122 30.9998L87.0122 41.0003L83.0122 49L33.0122 39.0001L37.0122 30.9998Z"></path>
<path fill="#2F1514" d="M87.0122 41.0003V70.5992L84.0205 70.0015L83.0122 72.0198V78.2028L87.0206 79.0015L87.0122 81.0012L83.0122 89.0011V49L87.0122 41.0003Z"></path>
<path fill="#52251D" d="M44.0121 61.9961L64.0121 65.9965L64.0122 81.9963L44.0122 77.9964L44.0121 61.9961Z"></path>
<path fill="#DF9358" d="M44.0122 77.9964L64.0122 81.9963L64.0121 77.5964L46.0122 73.9964L44.0122 77.9964Z"></path>
<path fill="#452922" d="M44.0121 61.9961L44.0102 77.9964L46.0122 73.9964V62.3961L44.0121 61.9961Z"></path>
<path fill="#7B5338" d="M44.0122 81.9963L64.0122 85.9962V81.9963L44.0122 77.9964V81.9963Z"></path>
<path fill="#533F9B" d="M64.0191 94.0016L79.0034 96.9971L79.019 109.002L64.019 106.002L64.0191 94.0016Z"></path>
<path fill="#8D7F87" d="M69.019 99.0016L74.019 99.9985V103.998L69.019 102.998V99.0016Z"></path>
<path fill="#2F256A" d="M79.0034 96.9971L81.0034 92.9971V104.997L79.019 109.002L79.0034 96.9971Z"></path>
<path fill="#04398B" d="M81.0122 93.0011L83.0122 89.0011V101.001L81.0278 105.006L81.0122 93.0011Z"></path>
<path fill="#154248" d="M83.0122 89.0011L85.0122 85.001V97.0011L83.0278 101.006L83.0122 89.0011Z"></path>
<path fill="#533F9B" d="M44.0104 89.9972L58.9947 92.9927L59.0102 104.997L44.0102 101.997L44.0104 89.9972Z"></path>
<path fill="#8D7F87" d="M49.0102 94.9972L54.0103 95.994V99.994L49.0102 98.994V94.9972Z"></path>
<path fill="#2F256A" d="M58.9947 92.9927L60.9947 93.3959V100.993L59.0102 104.997L58.9947 92.9927Z"></path>
<path fill="#04398B" d="M60.9947 93.3959L63.0034 93.7976V96.9966L61.019 101.001L60.9947 93.3959Z"></path>
<path fill="#154248" d="M63.0034 93.7976L64.0191 94.0016L64.0191 94.9828L63.019 97.0011L63.0034 93.7976Z"></path>
<path fill="#533F9B" d="M24.0001 85.9927L38.9844 88.9882L39 100.993L24 97.9927L24.0001 85.9927Z"></path>
<path fill="#8D7F87" d="M29 90.9927L34 91.9896V95.9896L29 94.9896V90.9927Z"></path>
<path fill="#2F256A" d="M38.9844 88.9882L40.9844 89.3914V96.9882L39 100.993L38.9844 88.9882Z"></path>
<path fill="#04398B" d="M40.9844 89.3914L42.9932 89.7931V92.9921L41.0088 96.9966L40.9844 89.3914Z"></path>
<path fill="#154248" d="M42.9932 89.7931L44.0089 89.9972L44.0089 90.9784L43.0088 92.9966L42.9932 89.7931Z"></path>
<path fill="#9573F7" d="M26.0122 82.0034L29.0122 82.6015L29.0122 87.0003L24.0122 86.0002L26.0122 82.0034Z"></path>
<path fill="#0DAFFF" d="M28.0122 78.0066L29.0123 78.2034L29.0122 82.6015L26.0122 82.0034L28.0122 78.0066Z"></path>
<path fill="#44CBA7" d="M29.0123 76.0048L29.0123 78.2034L28.0122 78.0034L29.0123 76.0048Z"></path>
<path fill="#99482B" d="M86.1087 78.8216L89.02 79.4034V90.5981L81.0205 88.9983L86.1087 78.8216Z"></path>
<path fill="#55281B" d="M81.0205 88.9983L89.02 90.5981V98.5978L81.0205 96.998V88.9983Z"></path>
<path fill-opacity="0.1" fill="black" d="M39.0121 26.9967L49.0121 28.9936L47.0122 32.9967L37.0122 30.9998L39.0121 26.9967Z"></path>
<path fill-opacity="0.1" fill="black" d="M42.0122 31.9983L52.0122 33.9952L50.0123 37.9983L40.0123 36.0014L42.0122 31.9983Z"></path>
<path fill-opacity="0.1" fill="black" d="M33.0122 39.0001L43.0122 40.997L41.0123 45.0001L31.0124 43.0033L33.0122 39.0001Z"></path>
<path fill-opacity="0.1" fill="black" d="M55.0125 39.0001L65.0125 40.997L63.0126 45.0001L53.0126 43.0033L55.0125 39.0001Z"></path>
<path fill-opacity="0.1" fill="black" d="M72.0032 37.9983L82.0032 39.9952L80.0032 43.9984L70.0033 42.0015L72.0032 37.9983Z"></path>
<path fill-opacity="0.1" fill="black" d="M64.0031 31.9967L79.0031 34.9936L77.0032 38.9968L62.0032 35.9999L64.0031 31.9967Z"></path>
<path fill-opacity="0.1" fill="black" d="M58.0122 44.0001L73.0122 46.9969L71.0123 51.0001L56.0124 48.0032L58.0122 44.0001Z"></path>
</svg>
