<svg xmlns="http://www.w3.org/2000/svg" fill="none" viewBox="0 0 14 14" height="14" width="14">
<path stroke="black" fill="white" d="M4.50004 9V9.5L4.00005 9.5L3.50005 9.5V10V10.5L2 10.5L1.49999 10.5L1.5 11L1.50005 13L1.50006 13.5H2.00005L5 13.5H5.5V13V12.5L6.00004 12.5L6.50004 12.5V12V11.5H7.00003H7.50003V11V10.5L8.00002 10.5L8.50005 10.5L8.50003 9.99997L8.5 9.5H8.99997H9.49997V9V8.5H10H10.5L10.5 8L10.5 7.5H11H11.5V7V6.5H12H12.5V6V5.5L13 5.5L13.5 5.5V5V2V1.5L13 1.5L11.0001 1.5L10.5001 1.5L10.5001 1.99999L10.5 3.5H10H9.50001V4V4.5H9.00002H8.50002V5V5.5H8.00003H7.50005L7.50003 5.99998L7.5 6.5L7.00003 6.5L6.50003 6.5V7V7.5H6.00004H5.50004V8V8.5H5.00004H4.50004V9ZM2 1.5H1.49999L1.5 2.00001L1.50005 5.00001L1.50006 5.5H2.00005H5.00004H5.50004V5V2V1.5H5.00004H2ZM13.4999 9.50001L13 9.50001L10 9.5L9.5 9.5L9.50001 10L9.50006 13L9.50007 13.5H10.0001L13 13.5H13.5L13.5 13L13.4999 10L13.4999 9.50001Z"></path>
<path stroke="black" fill="white" d="M3.50004 8V8.5L3.00005 8.5L2.50005 8.5V9V9.5L1.99999 9.50001L1.49999 9.50002L1.5 10L1.50005 12L1.50006 12.5H2.00005L4 12.5L4.5 12.5V12V11.5L5.00004 11.5L5.50004 11.5V11V10.5H6.00003H6.50003V10V9.5L7.00002 9.5L7.50005 9.5L7.50003 8.99997L7.5 8.5H7.99997H8.49997V8V7.5H9.00001H9.50001L9.50001 7L9.50001 6.5H10H10.5V6V5.5H11H11.5V5V4.5L12 4.5L12.5 4.5V4V2V1.5L12 1.5L10.0001 1.5L9.50009 1.5L9.50006 1.99997L9.50003 2.5H9.00001H8.50001V3V3.5H8.00002H7.50002V4V4.5H7.00003H6.50005L6.50003 4.99998L6.5 5.5L6.00003 5.5L5.50003 5.5V6V6.5H5.00004H4.50004V7V7.5H4.00004H3.50004V8ZM2 1.5H1.49999L1.5 2.00002L1.50005 4.00001L1.50006 4.5H2.00005H4.00004H4.50004V4V2V1.5H4.00004H2ZM10 9.5L9.5 9.49999L9.50001 10L9.50006 12L9.50008 12.5L10.0001 12.5L12 12.5L12.5 12.5L12.5 12L12.4999 10L12.4999 9.50001L12 9.50001L10 9.5Z"></path>
</svg>
