<svg xmlns="http://www.w3.org/2000/svg" fill="none" viewBox="0 0 100 100" height="100" width="100">
<path fill="#5A553C" d="M23.0002 38.4992L50.0003 47.4992V78.4994L23.0002 69.4993V38.4992Z"></path>
<path fill="#4B4531" d="M50.0003 47.4992L77.0004 38.4993V69.4994L50.0003 78.4994V47.4992Z"></path>
<path fill="#E7E7E7" d="M35.0014 42.4991L38.0002 43.4989V74.4988L35.0014 73.499V42.4991Z"></path>
<path fill="#BEBEBE" d="M65.0002 42.4994L61.999 43.4992V74.4992L65.0002 73.4994V42.4994Z"></path>
<path fill="#3C3724" d="M20 32.4993L50.0001 42.4994V48.4995L20 38.4994V32.4993Z"></path>
<path fill="#322F1E" d="M50.0001 42.4994L80.0003 32.4994V38.4996L50.0001 48.4995V42.4994Z"></path>
<path fill="#3E3926" d="M50.0001 22.4995L80.0003 32.4994L50.0001 42.4994L20 32.4993L50.0001 22.4995Z"></path>
<path fill="#E7E7E7" d="M33.5015 36.9997L36.5002 37.9995V44L33.5015 43.0002V36.9997Z"></path>
<path fill="#BEBEBE" d="M66.5 36.9997L63.4988 37.9995V43.9998L66.5 43V36.9997Z"></path>
<path fill="#EFEFEF" d="M63.5002 27L66.499 27.9998L53.0002 32.5L66.5 36.9997L63.4988 37.9995L50.0001 33.5L36.5002 37.9995L33.5015 36.9997L47.0002 32.5L33.5015 27.9989L36.5002 26.9993L48.5002 31V29L47.0002 28.5L48.5002 28L50.0002 28.5L51.5002 28L53.0002 28.5L51.5002 29V31L63.5002 27Z"></path>
<path fill="#E7E7E7" d="M36.5002 24.0004L42.5002 26.0004V32.0004L36.5002 30.0004V24.0004Z"></path>
<path fill="#EFEFEF" d="M42.5002 22.0004L48.5002 24.0004L42.5002 26.0004L36.5002 24.0004L42.5002 22.0004Z"></path>
<path fill="#BEBEBE" d="M42.5002 26.0004L48.5002 24.0004V28L47.0002 28.5V30.5L42.5002 32.0004V26.0004Z"></path>
<path fill="#E7E7E7" d="M51.5002 24L57.5002 26V32L53.0002 30.5V28.5L51.5002 28V24Z"></path>
<path fill="#EFEFEF" d="M57.5002 22L63.5002 24L57.5002 26L51.5002 24L57.5002 22Z"></path>
<path fill="#BEBEBE" d="M57.5002 26L63.5002 24V30L57.5002 32V26Z"></path>
<path fill="#E7E7E7" d="M58.499 26.667L61.499 25.6674V28.6674L58.499 29.6671V26.667Z"></path>
<path fill="#BEBEBE" d="M38.5002 25.667L41.5002 26.6674V29.6674L38.5002 28.6671V25.667Z"></path>
<path fill="#E7E7E7" d="M36.5002 29.0004L42.5002 31.0004V37.0004L36.5002 35.0004V29.0004Z"></path>
<path fill="#EFEFEF" d="M42.5002 27.0004L48.5002 29.0004L42.5002 31.0004L36.5002 29.0004L42.5002 27.0004Z"></path>
<path fill="#BEBEBE" d="M42.5002 31.0004L48.5002 29.0004V33L50.0002 32.5V34.5L42.5002 37.0004V31.0004Z"></path>
<path fill="#E7E7E7" d="M51.5002 29L57.5002 31V37L50.0002 34.5V32.5L51.5002 33V29Z"></path>
<path fill="#EFEFEF" d="M57.5002 27L63.5002 29L57.5002 31L51.5002 29L57.5002 27Z"></path>
<path fill="#BEBEBE" d="M57.5002 31L63.5002 29V35L57.5002 37V31Z"></path>
<path fill="#E7E7E7" d="M44.5002 31.3337L47.5002 30.3341V33.3341L44.5002 34.3337V31.3337Z"></path>
<path fill="#BEBEBE" d="M52.5002 30.3337L55.5002 31.3341V34.3341L52.5002 33.3337V30.3337Z"></path>
</svg>
