<svg xmlns="http://www.w3.org/2000/svg" fill="none" viewBox="0 0 200 200" height="200" width="200">
<path fill="#F1FFFF" d="M96.5 62L111.5 65.0002L106.5 75.0001L91.5 72.0002L96.5 62Z"></path>
<path fill="#51F7A3" d="M106.5 75.0001L111.5 65.0002V99L112.5 97.0001V99L106.5 111V75.0001Z"></path>
<path fill="#70FFEB" d="M91.5 72.0002L106.5 75.0001V111L91.5 108V72.0002Z"></path>
<path fill="#F1FFFF" d="M111.5 96.8L112.5 97.0001L111.5 99V96.8Z"></path>
<path fill="#F1FFFF" d="M110.5 79.0001L118 80.5003L116 84.5003L108.5 83.0003L110.5 79.0001Z"></path>
<path fill="#70FFEB" d="M108.5 83.0003L116 84.5003V92.5003L111 91.5001V87.5001L108.5 87.0003V83.0003Z"></path>
<path fill="#51F7A3" d="M116 84.5003L118 80.5003V92.5003L113 102.5V98.5L116 92.5003V84.5003Z"></path>
<path fill="#F1FFFF" d="M111 91.5001L116 92.5003L113 98.5L108 97.5002L111 91.5001Z"></path>
<path fill="#70FFEB" d="M108 97.5002L113 98.5V102.5L108 101.5V97.5002Z"></path>
<path fill="#7FACFF" d="M110 93.5002L115 94.5004L114 96.5002L109 95.5002L110 93.5002Z"></path>
<path fill="#000004" d="M114 96.5002L115 94.5004L115 102.5L114 104.5L114 96.5002Z"></path>
<path fill="#191F2B" d="M111.5 102.2L113 102.5L114 100.5L114 104.5L111.5 104L111.5 102.2Z"></path>
<path fill="#F1FFFF" d="M88 74.5001L91.5 75.2002V79.6003L86 78.5001L88 74.5001Z"></path>
<path fill="#70FFEB" d="M86 78.5001L91.5 79.6003V83.6002L91 83.5003V87.5003L86 86.5001V82.5001V78.5001Z"></path>
<path fill="#51F7A3" d="M91.5 79.6003V75.2002V85.0001V90.5001L88 97.5001V93.5001L91 87.5003V83.5003L91.5 83.6002V79.6003Z"></path>
<path fill="#F1FFFF" d="M86 86.5001L91 87.5003L88 93.5001L83 92.5003L86 86.5001Z"></path>
<path fill="#70FFEB" d="M83 92.5003L88 93.5001V97.5001L83 96.4999V92.5003Z"></path>
<path fill="#7FACFF" d="M85 88.5001L89.9999 89.5003L89 91.5001L84.0001 90.5001L85 88.5001Z"></path>
<path fill="#000004" d="M89 91.5001L89.9999 89.5003L89.9999 93.5002L88.9999 95.5002L89 91.5001Z"></path>
<path fill="#191F2B" d="M86.5 97.2001L83 96.4999L83.9999 96.6999L83.9999 98.5004L86.4999 99.0004L86.5 97.2001Z"></path>
<path fill="#000004" d="M86.5 97.2001L87.3183 97.3637L86.4999 99.0004L86.5 97.2001Z"></path>
<path fill="white" d="M111 130V129H112H117V131H115V135V137H113V135V131H111V130Z"></path>
<path fill="white" d="M104 130H105V129H110V131H106V132H109V133H110V136H109V137H104V135H108V134H105V133H104V130Z"></path>
<path fill="white" d="M83 130H84V129H89V131H85V132V134V135H87V134H86V132H89V136V137H88H84V136H83V130Z"></path>
<path fill="white" d="M95 129L96 129L96 130L96 137L94 137L94 134L92 134L92 137L90 137L90 129L92 129L92 132L94 132L94 129L95 129Z"></path>
<path fill="white" d="M97 130H98V129H102V130H103V131H101H99V135H101V131H103V136H102V137H98V136H97V130Z"></path>
</svg>
