<svg xmlns="http://www.w3.org/2000/svg" fill="none" viewBox="0 0 480 360" height="360" width="480">
<path stroke-width="2" stroke="white" fill="#56C6F8" d="M12.0667 193.1H13.0667V192.1V191H466.933V192.1V193.1H467.933H469V346.9H467.933H466.933V347.9V349H13.0667V347.9V346.9H12.0667H11V193.1H12.0667Z"></path>
<path fill="white" d="M249 233H251V231H261V235H253V237H259V239H261V245H259V247H249V243H257V241H251V239H249V233Z"></path>
<path fill="white" d="M149 233H151V231H159V233H161V235H157H153V243H157V235H161V245H159V247H151V245H149V233Z"></path>
<path fill="white" d="M291 233V231H293H301V233H303V235H299H295V243H299V235H303V245H301V247H293H291V245V233Z"></path>
<path fill="white" d="M177 233V231H179H181V237H185V231H189V239H187V241H185V247H181V241H179V239H177V233Z"></path>
<path fill="white" d="M163 231H173V233H175V239H173V241H167V237H171V235H167V237V241V247H163V231Z"></path>
<path fill="white" d="M235 233H237V231H247V235H239V237H243V241H239V243H247V247H237V245H235V233Z"></path>
<path fill="white" d="M263 233H265V231H275V235H267V237H271V241H267V243H275V247H265V245H263V233Z"></path>
<path fill="white" d="M135 233H137V231H147V235H139V237V241V243H147V247H137V245H135V233Z"></path>
<path fill="white" d="M305 233H307V231H315V233H317V247H313V235H309V237H313V241H309V243V247H307H305V245V233Z"></path>
<path fill="white" d="M333 233H335V231H343V233H345V247H341V235H337V237H341V241H337V243V247H335H333V245V233Z"></path>
<path fill="white" d="M205 233V231H207H217V235H213V243V247H209V243V235H205V233Z"></path>
<path fill="white" d="M319 233V231H321H331V235H327V243V247H323V243V235H319V233Z"></path>
<path fill="white" d="M230.667 231L233 231L233 233L233 247L228.333 247L228.333 241L223.667 241L223.667 247L219 247L219 231L223.667 231L223.667 237L228.333 237L228.333 231L230.667 231Z"></path>
<path fill="white" d="M232 263L230 263L230 262L229 262L229 261L228 261L228 262L227 262L227 263L225 263L225 255L227 255L227 259L228 259L228 258L229 258L229 259L230 259L230 255L232 255L232 263Z"></path>
<path fill="white" d="M196 255L196 257L195 257L195 258L194 258L194 260L195 260L195 261L196 261L196 263L194 263L194 262L193 262L193 261L192 261L192 263L190 263L190 255L192 255L192 257L193 257L193 256L194 256L194 255L196 255Z"></path>
<path fill="white" d="M162 256H163V255H168V257H164V258V260V261H168V263H163V262H162V256Z"></path>
<path fill="white" d="M290 256H291V255H296V257H292V258V260V261H296V263H291V262H290V256Z"></path>
<path fill="white" d="M183 256H184V255H189V257H185V258V260V261H189V263H184V262H183V256Z"></path>
<path fill="white" d="M211 255H213V256H214V257H215V255H217V263H215V260H214V259H213V263H211V255Z"></path>
<path fill="white" d="M269 256V255H270H275V257H273V261V263H271V261V257H269V256Z"></path>
<path fill="white" d="M169 256V255H170H171V257V261H175V263H170V262H169V257V256Z"></path>
<path fill="white" d="M238.833 255L240 255L240 256L240 263L237.667 263L237.667 260L235.333 260L235.333 263L233 263L233 255L235.333 255L235.333 258L237.667 258L237.667 255L238.833 255Z"></path>
<path fill="white" d="M248 255H253V256H254V259H253V260H254V263H252V261H251V260H250V258H252V257H250V258V260V263H248V255Z"></path>
<path fill="white" d="M311 256H312V255H317V257H313V258H316V259H317V262H316V263H311V261H315V260H312V259H311V256Z"></path>
<path fill="white" d="M204 256H205V255H209V256H210V263H208V257H206V258H208V260H206V261V263H205H204V262V256Z"></path>
<path fill="white" d="M241 256H242V255H247V257H243V258H245V260H243V261H247V263H242V262H241V256Z"></path>
<path fill="white" d="M255 256H256V255H261V257H257V258H259V260H257V261H261V263H256V262H255V256Z"></path>
<path fill="white" d="M318 256H319V255H324V257H320V258H322V260H320V261H324V263H319V262H318V256Z"></path>
<path fill="white" d="M276 256H277V255H281V256H282V257H280H278V261H280V257H282V262H281V263H277V262H276V256Z"></path>
<path fill="white" d="M304 256H305V255H309V256H310V257H308H306V261H308V257H310V262H309V263H305V262H304V256Z"></path>
<path fill="white" d="M297 256V255H298H299V257V261H303V263H298V262H297V257V256Z"></path>
<path fill="white" d="M218 256V255H219H220V258H222V255H224V259H223V260H222V263H220V260H219V259H218V256Z"></path>
<path fill="white" d="M176 256V255H177H182V257H180V261H182V263H176V261H178V257H176V256Z"></path>
<path fill="white" d="M288 216V215H289H293V216H294V217H292H290V221H292V217H294V222H293V223H289H288V222V216Z"></path>
<path fill="#FF4040" d="M234 216H235V215H240V217H236V218V220V221H240V223H235V222H234V216Z"></path>
<path fill="#FF4040" d="M255 216H256V215H261V217H257V218V220V221H261V223H256V222H255V216Z"></path>
<path fill="#FF4040" d="M248 216V215H249H254V217H252V221H254V223H248V221H250V217H248V216Z"></path>
<path fill="#FF4040" d="M241 216V215H242H243V217V221H247V223H242V222H241V217V216Z"></path>
<path fill="#FF4040" d="M268 215L268 217L267 217L267 218L266 218L266 220L267 220L267 221L268 221L268 223L266 223L266 222L265 222L265 221L264 221L264 223L262 223L262 215L264 215L264 217L265 217L265 216L266 216L266 215L268 215Z"></path>
<path fill="white" d="M281 215H283V216H284V217H285V215H287V223H285V220H284V219H283V223H281V215Z"></path>
<path fill="white" d="M274 216H275V215H279V216H280V223H278V217H276V218H278V220H276V221V223H275H274V222V216Z"></path>
<path fill="#FF4040" d="M208 215H213V216H214V219H213V220H210V218H212V217H210V218V220V223H208V215Z"></path>
<path fill="#FF4040" d="M194 215H199V216H200V219H199V220H200V223H198V221H197V220H196V218H198V217H196V218V220V223H194V215Z"></path>
<path fill="#FF4040" d="M222 216H223V215H228V217H224V218H226V220H224V221H228V223H223V222H222V216Z"></path>
<path fill="#FF4040" d="M187 216V215H188H193V217H191V221V223H189V221V217H187V216Z"></path>
<path fill="#FF4040" d="M215 216V215H216H217V217V221H221V223H216V222H215V217V216Z"></path>
<path fill="#FF4040" d="M201 216V215H202H207V217H205V221H207V223H201V221H203V217H201V216Z"></path>
</svg>
