<svg xmlns="http://www.w3.org/2000/svg" fill="none" viewBox="0 0 480 360" height="360" width="480">
<rect fill-opacity="0.9" fill="#6ACDEC" height="360" width="480"></rect>
<path stroke-width="2" stroke="white" fill="#56C6F8" d="M12 13H13V12V11H57V12V13H58H59V47H58H57V48V49H13V48V47H12H11V13H12Z"></path>
<path fill="#2CACE8" d="M12 42H14V44H56V42H58V46H56V48H14V46H12V42Z"></path>
<path fill="white" d="M38 38L38 18L37 18L36 18L36 19L36 20L35 20L34 20L34 21L34 22L33 22L32 22L32 23L32 24L31 24L30 24L30 25L30 26L29 26L28 26L28 27L28 28L28 29L28 30L29 30L30 30L30 31L30 32L31 32L32 32L32 33L32 34L33 34L34 34L34 35L34 36L35 36L36 36L36 37L36 38L37 38L38 38Z"></path>
<path stroke-width="2" stroke="white" fill="#56C6F8" d="M117 133H118V132V131H212V132V133H213H214V227H213H212V228V229H118V228V227H117H116V133H117Z"></path>
<path fill="#2CACE8" d="M117 222H119V224H211V222H213V226H211V228H119V226H117V222Z"></path>
<path fill="white" d="M166 178L166 168L164 168L164 178L160 178L160 180L162 180L162 182L164 182L164 184L166 184L166 182L168 182L168 180L170 180L170 178L166 178Z"></path>
<path fill="white" d="M172 186L158 186L158 188L172 188L172 186Z"></path>
<path fill="white" d="M156.5 244H164V245.5H165.5V250H164V251.5H159.5V248.5H162.5V247H159.5V248.5V251.5V256H156.5V244Z"></path>
<path fill="white" d="M177.5 244H185V245.5H186.5V250H185V251.5H186.5V256H183.5V253H182V251.5H180.5V248.5H183.5V247H180.5V248.5V251.5V256H177.5V244Z"></path>
<path fill="white" d="M144.5 244H147.5V245.5H149V247H150.5V245.5H152V244H155V256H152V250H150.5V251.5H149V250H147.5V256H144.5V244Z"></path>
<path fill="white" d="M167 245.5H168.5V244H174.5V245.5H176V247H173H170V253H173V247H176V254.5H174.5V256H168.5V254.5H167V245.5Z"></path>
<path fill="white" d="M134 245.5V244H135.5H143V247H140V253H143V256H134V253H137V247H134V245.5Z"></path>
<path fill="white" d="M188 245.5V244H189.5H197V247H194V253V256H191V253V247H188V245.5Z"></path>
<path stroke-width="2" stroke="white" fill="#56C6F8" d="M267 137H268V136V135H362V136V137H363H364V227H363H362V228V229H268V228V227H267H266V137H267Z"></path>
<path fill="white" d="M314 178L314 188L316 188L316 178L320 178L320 176L318 176L318 174L316 174L316 172L314 172L314 174L312 174L312 176L310 176L310 178L314 178Z"></path>
<path fill="white" d="M308 192L322 192L322 190L308 190L308 192Z"></path>
<path fill="white" d="M294.5 245.5V244H296H297.5V247H300.5V244H303.5V248.5H302V251.5H303.5V256H300.5V253H297.5V256H294.5V251.5H296V248.5H294.5V245.5Z"></path>
<path fill="white" d="M305 244H312.5V245.5H314V250H312.5V251.5H308V248.5H311V247H308V248.5V251.5V256H305V244Z"></path>
<path fill="white" d="M336.5 245.5V244H338H345.5V247H342.5V253V256H339.5V253V247H336.5V245.5Z"></path>
<path fill="white" d="M284 245.5H285.5V244H293V247H287V248.5H290V251.5H287V253H293V256H285.5V254.5H284V245.5Z"></path>
<path fill="white" d="M326 244H333.5V245.5H335V250H333.5V251.5H335V256H332V253H330.5V251.5H329V248.5H332V247H329V248.5V251.5V256H326V244Z"></path>
<path fill="white" d="M315.5 245.5H317V244H323V245.5H324.5V247H321.5H318.5V253H321.5V247H324.5V254.5H323V256H317V254.5H315.5V245.5Z"></path>
<path fill="white" d="M239 24V22H237H235V26V34H231V22H227V36H229V38H237V36H239V26V24Z"></path>
<path fill="white" d="M241 22H251V24H253V30H251V32H253V38H249V34H247V32H245V28H249V26H245V28V32V38H241V22Z"></path>
<path fill="white" d="M199 24V22H201H203V28H207V22H211V30H209V32H207V38H203V32H201V30H199V24Z"></path>
<path fill="white" d="M213 24H215V22H223V24H225V26H221H217V34H221V26H225V36H223V38H215V36H213V24Z"></path>
<path fill="white" d="M175 22H185V24H187V30H185V32H179V28H183V26H179V28V32V38H175V22Z"></path>
<path fill="white" d="M173 24V22H171H169V26V34H165V22H161V36H163V38H171V36H173V26V24Z"></path>
<path fill="white" d="M119 24H121V22H129V24H131V38H127V26H123V28H127V32H123V34V38H121H119V36V24Z"></path>
<path fill="white" d="M105 22H115V24H117V28H115V32H117V36H115V38H109V34H113V32H111H109V28H113V26H109V28V32V38H105V22Z"></path>
<path fill="white" d="M133 24H135V22H145V26H137V28V32V34H145V38H135V36H133V24Z"></path>
<path fill="white" d="M159 22L159 26L157 26L157 28L155 28L155 32L157 32L157 34L159 34L159 38L155 38L155 36L153 36L153 34L151 34L151 38L147 38L147 22L151 22L151 26L153 26L153 24L155 24L155 22L159 22Z"></path>
<path fill="white" d="M265 22H275V24H277V30H275V32H269V28H273V26H269V28V32V38H265V22Z"></path>
<path fill="white" d="M279 22H289V24H291V30H289V32H291V38H287V34H285V32H283V28H287V26H283V28V32V38H279V22Z"></path>
<path fill="white" d="M321 22H331V24H333V30H331V32H333V38H329V34H327V32H325V28H329V26H325V28V32V38H321V22Z"></path>
<path fill="white" d="M335 24H337V22H347V26H339V28H343V32H339V34H347V38H337V36H335V24Z"></path>
<path fill="white" d="M349 24H351V22H361V26H353V28H359V30H361V36H359V38H349V34H357V32H351V30H349V24Z"></path>
<path fill="white" d="M363 24H365V22H375V26H367V28H373V30H375V36H373V38H363V34H371V32H365V30H363V24Z"></path>
<path fill="white" d="M293 24H295V22H303V24H305V26H301H297V34H301V26H305V36H303V38H295V36H293V24Z"></path>
<path fill="white" d="M307 24H309V22H319V26H311V28V32V34H315V32H313V28H319V36V38H317H309V36H307V24Z"></path>
</svg>
