<svg xmlns="http://www.w3.org/2000/svg" fill="none" viewBox="0 0 80 120" height="120" width="80">
<path stroke-width="2" stroke="white" fill="#56C6F8" d="M2 117H1V3H2H3V2V1H77V2V3H78H79V117H78H77V118V119H3V118V117H2Z"></path>
<path fill="white" d="M58 96H60V97H61V98H62V96H64V104H62V101H61V100H60V104H58V96Z"></path>
<path fill="white" d="M51 97H52V96H57V98H53V99H55V101H53V102H57V104H52V103H51V97Z"></path>
<path fill="white" d="M30 97V96H31H36V98H34V102H36V104H30V102H32V98H30V97Z"></path>
<path fill="white" d="M28 96L29 96L29 97L29 104L27 104L27 101L25 101L25 104L23 104L23 96L25 96L25 99L27 99L27 96L28 96Z"></path>
<path fill="white" d="M50 96L50 98L49 98L49 99L48 99L48 101L49 101L49 102L50 102L50 104L48 104L48 103L47 103L47 102L46 102L46 104L44 104L44 96L46 96L46 98L47 98L47 97L48 97L48 96L50 96Z"></path>
<path fill="white" d="M16 97H17V96H22V98H18V99V101V102H22V104H17V103H16V97Z"></path>
<path fill="white" d="M37 97H38V96H43V98H39V99V101V102H43V104H38V103H37V97Z"></path>
<path fill="#9498C8" d="M31.5 37L49 40.5V66.5L21.5 61V50.5L31.5 52.5V37Z"></path>
<path fill="white" d="M37.5 25L55 28.5L49 40.5L31.5 37L37.5 25Z"></path>
<path fill="#56598C" d="M55 28.5V54.5L49 66.5V40.5L55 28.5Z"></path>
<path fill="white" d="M27.5 38.5L31.5 39.3V52.5L21.5 50.5L22.5 48.5L20 48L24 40L26.5 40.5L27.5 38.5Z"></path>
<path fill="#9498C8" d="M20 48L22.5 48.5L21.5 50.5V53.8L20 53.5L20 48Z"></path>
<path fill="#0A0A26" d="M44.0001 43.5L46.5001 44V46L44.0001 45.5V43.5Z"></path>
<path fill="#9498C8" d="M42.0001 61V67L27 64V58L42.0001 61Z"></path>
<path fill="#56598C" d="M44.0001 57V63L42.0001 67V61L44.0001 57Z"></path>
<path fill="white" d="M29.0001 54L44.0001 57L42.0001 61L27 58L29.0001 54Z"></path>
<path fill="#803647" d="M48.5001 32V36L38.5001 34V30L48.5001 32Z"></path>
<path fill="#4E1F31" d="M50.5001 28V32L48.5001 36V32L50.5001 28Z"></path>
<path fill="#EC6373" d="M50.5001 28L48.5001 32L38.5001 30L40.5001 26L50.5001 28Z"></path>
<path fill="#F27257" d="M60.5001 38L58.5001 42L51.0001 40.5L53.0001 36.5L60.5001 38Z"></path>
<path fill="#823E35" d="M58.5001 42V46L51.0001 44.5V40.5L58.5001 42Z"></path>
<path fill="#4C2425" d="M60.5001 38V42L58.5001 46V42L60.5001 38Z"></path>
<path fill="#803647" d="M56.5001 45.6V49.6L51.0001 48.5V44.5L56.5001 45.6Z"></path>
<path fill="#4E1F31" d="M58.3182 45.9636L56.5001 49.6V45.6L58.3182 45.9636Z"></path>
<path fill="#823E35" d="M34 65.4V69.5L31.5 69V64.9L34 65.4Z"></path>
<path fill="#4C2425" d="M35.0001 65.6V67.5L34 69.5V65.4L35.0001 65.6Z"></path>
<path fill="#F27257" d="M41.5001 71L40.5001 73L28.0001 70.5L30.8637 64.7727L31.5 64.9V69L34 69.5L35.0001 67.5V65.6L42.0001 67L42.1364 66.7273L43.5001 67L42.5001 69L37.5001 68L36.5001 70L41.5001 71Z"></path>
<path fill="#823E35" d="M40.5001 73V75L28.0001 72.5V70.5L40.5001 73Z"></path>
<path fill="#823E35" d="M42.5001 69V71L37.5001 70L37.5001 68L42.5001 69Z"></path>
<path fill="#4C2425" d="M41.5001 71V73L40.5001 75V73L41.5001 71Z"></path>
<path fill="#4C2425" d="M43.5001 67L43.5001 69L42.5001 71V69L43.5001 67Z"></path>
<path fill="#4C2425" d="M37.5001 68L37.5001 70L37.4144 70.1829L36.5001 70L37.5001 68Z"></path>
<path fill="#2CACE8" d="M2 112H4V114H76V112H78V116H76V118H4V116H2V112Z"></path>
</svg>
