<svg xmlns="http://www.w3.org/2000/svg" fill="none" viewBox="0 0 480 360" height="360" width="480">
<path stroke-width="2" stroke="white" fill="#56C6F8" d="M422 17H423V16V15H467V16V17H468H469V47H468H467V48V49H423V48V47H422H421V17H422Z"></path>
<path fill="white" d="M446 32L446 22L444 22L444 32L440 32L440 34L442 34L442 36L444 36L444 38L446 38L446 36L448 36L448 34L450 34L450 32L446 32Z"></path>
<path fill="white" d="M452 40L438 40L438 42L452 42L452 40Z"></path>
<path stroke-width="2" stroke="white" fill="#56C6F8" d="M362 13H363V12V11H407V12V13H408H409V47H408H407V48V49H363V48V47H362H361V13H362Z"></path>
<path fill="#2CACE8" d="M362 42H364V44H406V42H408V46H406V48H364V46H362V42Z"></path>
<path fill="white" d="M384 24L384 34L386 34L386 24L390 24L390 22L388 22L388 20L386 20L386 18L384 18L384 20L382 20L382 22L380 22L380 24L384 24Z"></path>
<path fill="white" d="M378 38L392 38L392 36L378 36L378 38Z"></path>
<path stroke-width="2" stroke="white" fill="#56C6F8" d="M12 13H13V12V11H57V12V13H58H59V47H58H57V48V49H13V48V47H12H11V13H12Z"></path>
<path fill="#2CACE8" d="M12 42H14V44H56V42H58V46H56V48H14V46H12V42Z"></path>
<path fill="white" d="M38 38L38 18L37 18L36 18L36 19L36 20L35 20L34 20L34 21L34 22L33 22L32 22L32 23L32 24L31 24L30 24L30 25L30 26L29 26L28 26L28 27L28 28L28 29L28 30L29 30L30 30L30 31L30 32L31 32L32 32L32 33L32 34L33 34L34 34L34 35L34 36L35 36L36 36L36 37L36 38L37 38L38 38Z"></path>
<path stroke-width="2" stroke="white" fill="#56C6F8" d="M302 13H303V12V11H347V12V13H348H349V47H348H347V48V49H303V48V47H302H301V13H302Z"></path>
<path fill="#2CACE8" d="M302 42H304V44H346V42H348V46H346V48H304V46H302V42Z"></path>
<path fill="white" d="M324 36H326V38H324V36Z"></path>
<path fill="white" d="M324 30H328V28H330V22H328V20H322V22H320V24H318V20H320V18H330V20H332V30H330V32H326V34H324V30Z"></path>
<path stroke-width="2" stroke="white" fill="#56C6F8" d="M12 313H13V312V311H57V312V313H58H59V347H58H57V348V349H13V348V347H12H11V313H12Z"></path>
<path fill="white" d="M45 326L25 326L25 330L45 330L45 326Z"></path>
<path fill="white" d="M37 338L37 318L33 318L33 338L37 338Z"></path>
<path fill="#2CACE8" d="M12 342H14V344H56V342H58V346H56V348H14V346H12V342Z"></path>
</svg>
