<svg xmlns="http://www.w3.org/2000/svg" fill="none" viewBox="0 0 200 200" height="200" width="200">
<path fill="#774BA4" d="M91.0012 94L176.001 111V127L91.0012 110V94Z"></path>
<path fill="#928F96" d="M91.0012 74L176.001 91V111L91.0012 94V74Z"></path>
<path fill="#9397B4" d="M91.0012 70L176.001 87V91L91.0012 74V70Z"></path>
<path fill="#9397B4" d="M176.001 87L194.001 51V55L176.001 91V87Z"></path>
<path fill="#3D3B60" d="M176.001 123L194.001 87V91L176.001 127V123Z"></path>
<path fill="#6A668B" d="M171.001 122L176.001 123V127L171.001 126V122Z"></path>
<path fill="#8F233B" d="M171.001 114L176.001 115V123L171.001 122V114Z"></path>
<path fill="#54152A" d="M176.001 115L178.001 111V119L176.001 123V115Z"></path>
<path fill="#462B70" d="M176.001 111L178.001 107V111L176.001 115V111Z"></path>
<path fill="#565469" d="M176.001 91L178.001 87V107L176.001 111V91Z"></path>
<path fill="#54152A" d="M192.001 83L194.001 79V87L192.001 91V83Z"></path>
<path fill="#54203C" d="M192.001 79L194.001 75V79L192.001 83V79Z"></path>
<path fill="#565469" d="M192.001 59L194.001 55V75L192.001 79V59Z"></path>
<path fill="#3D3B60" d="M178.001 87L192.001 59V91L178.001 119V87Z"></path>
<path fill="white" d="M109.001 34L194.001 51L176.001 87L91.0012 70L109.001 34Z"></path>
<path fill="white" d="M87.0012 45.9999L101.547 48.909L91.0012 70V71L88.0001 77L73.0012 73.9999L87.0012 45.9999Z"></path>
<path fill="white" d="M77 55.9998L81.5465 56.9091L73.0012 73.9999V86L63 83.9998L77 55.9998Z"></path>
<path fill="#9397B4" d="M73.0012 73.9999L88.0001 77V96.9997L63.0009 91.9999L63 83.9998L73.0012 86V73.9999Z"></path>
<path fill="#438F9F" d="M73.001 77.9999L78.001 79L78.0001 86.9999L73.0012 86L73.001 77.9999Z"></path>
<path fill="#774BA4" d="M63.0009 91.9999L88.0001 96.9997V105L63.0009 99.9999V91.9999Z"></path>
<path fill="#6A668B" d="M63.0009 95.9999L68.0009 96.9999V101L63.0009 99.9999V95.9999Z"></path>
<path fill="#7E7BA6" d="M73.0012 102L78.0012 103V107L73.0012 106V102Z"></path>
<path fill="#2F283A" d="M68.0009 101L73.0012 102V106L78.0012 107V103L83.0012 104V112L68.0012 109L68.0009 101Z"></path>
<path fill="#1A1728" d="M83.0012 104L86.6374 104.727L83.0012 112V104Z"></path>
<path fill="#2F283A" d="M153.001 122.4L168.001 125.4V129L153.001 126L153.001 122.4Z"></path>
<path fill="#1A1728" d="M168.001 125.4L169.637 125.727L168.001 129V125.4Z"></path>
<path fill="#2F283A" d="M98.001 111.4L113.001 114.4V118L98.0012 115L98.001 111.4Z"></path>
<path fill="#1A1728" d="M113.001 114.4L114.637 114.727L113.001 118V114.4Z"></path>
<path fill="#462B70" d="M88.0001 96.9997L90.0001 93.0011V101L88.0001 105V96.9997Z"></path>
<path fill="#55597E" d="M88.0001 77L91.0012 71V99L90.0001 101V93.0011L88.0001 96.9997V77Z"></path>
</svg>
