<svg xmlns="http://www.w3.org/2000/svg" fill="none" viewBox="0 0 200 200" height="200" width="200">
<path fill="#70FFEB" d="M89.5001 64.5001L102 67.0001V101L104.5 101.5V103.5L89.5001 100.5V98.4998V64.5001Z"></path>
<path fill="#51F7A3" d="M102 67.0001L108 55.0002L108 88.9999L110.5 89.4999V91.5L104.5 103.5V101.5L102 101V67.0001Z"></path>
<path fill="#F1FFFF" d="M95.5001 52.5L108 55.0002L102 67.0001L89.5001 64.5001L95.5001 52.5Z"></path>
<path fill="#F1FFFF" d="M94.5001 77.4997L99.5 78.4999L96.5001 84.4999L91.5001 83.4999L94.5001 77.4997Z"></path>
<path fill="#51F7A3" d="M96.5001 84.4999L99.5 78.4999V82.4999L98.5 84.4999V92.4998L96.5001 96.4998V84.4999Z"></path>
<path fill="#70FFEB" d="M91.5001 83.4999L96.5001 84.4999V96.4998L89 94.9998L89.0001 90.9998L91.5001 91.4998V83.4999Z"></path>
<path fill="#7FACFF" d="M88.5 86.4998L91 87L89.0001 90.9998L86.5001 90.4998L88.5 86.4998Z"></path>
<path fill="#191F2B" d="M86.5001 90.4998L89.0001 90.9998L89 98.9998L86.5 98.4999L86.5001 90.4998Z"></path>
<path fill="#000004" d="M89 94.9998L90 95.1998V96.9998L89 98.9998L89 94.9998Z"></path>
<path fill="#F1FFFF" d="M91 87L91.5001 87.1V91.4998L89.0001 90.9998L91 87Z"></path>
<path fill="#F1FFFF" d="M86.0001 85.9996L88.5 86.4998L86.5001 90.4998L83.9998 89.9999L86.0001 85.9996Z"></path>
<path fill="#70FFEB" d="M83.9998 89.9999L86.5001 90.4998L86.4995 94.4999L83.9995 93.9999L83.9998 89.9999Z"></path>
<path fill="#F1FFFF" d="M108 88.9999L110.5 89.4999L104.5 101.5L102 101L108 88.9999Z"></path>
</svg>
