<svg xmlns="http://www.w3.org/2000/svg" fill="none" viewBox="0 0 200 200" height="200" width="200">
<path fill="#CC9F34" d="M82 85L109.5 90.5V104.5L82 99V85Z"></path>
<path fill="#806320" d="M109.5 90.5L117.5 74.5V88.5L109.5 104.5V90.5Z"></path>
<path fill="#FFC641" d="M90 69L117.5 74.5L109.5 90.5L82 85L90 69Z"></path>
<path fill="#FFC741" d="M93 91L97 91.8V94L92 93L93 91Z"></path>
<path fill="#7F6320" d="M93 89.2V91L92 93V89L93 89.2Z"></path>
<path fill="#FFC741" d="M102.909 97.1818L104.5 97.5V99.5L102 99L102.909 97.1818Z"></path>
<path fill="#7F6320" d="M102.909 97.1818L102 99V97L102.909 97.1818Z"></path>
<path fill="#FFC741" d="M90.5 96.5L94.5 97.3V99.5L89.5 98.5L90.5 96.5Z"></path>
<path fill="#7F6320" d="M90.5 94.7V96.5L89.5 98.5V94.5L90.5 94.7Z"></path>
<path fill="#FFC741" d="M85.4091 89.6818L87 90V92L84.5 91.5L85.4091 89.6818Z"></path>
<path fill="#7F6320" d="M85.4091 89.6818L84.5 91.5V89.5L85.4091 89.6818Z"></path>
<path fill="#FFC641" d="M114.682 88.1364L116.5 88.5L114.5 92.5V88.5L114.682 88.1364Z"></path>
<path fill="#CC9F34" d="M114.682 88.1364L116.5 84.5V88.5L114.682 88.1364Z"></path>
<path fill="#FFC641" d="M111.682 88.1364L113.5 88.5L111.5 92.5V88.5L111.682 88.1364Z"></path>
<path fill="#CC9F34" d="M111.682 88.1364L113.5 84.5V88.5L111.682 88.1364Z"></path>
<path fill="#FFC641" d="M110.591 96.3182L111.5 96.5L110.5 98.5V96.5L110.591 96.3182Z"></path>
<path fill="#CC9F34" d="M110.591 96.3182L111.5 94.5V96.5L110.591 96.3182Z"></path>
<path fill="#CC9F34" d="M96.0038 79L101.004 80L100.087 81.8167L96.0038 81V79Z"></path>
<path fill="#806320" d="M96.0038 79L94.0038 82.9818L94.9167 83.1644L96.0038 81V79Z"></path>
<path fill="#CC9F34" d="M106.5 74.5L111.5 75.5L110.583 77.3167L106.5 76.5V74.5Z"></path>
<path fill="#806320" d="M106.5 74.5L104.5 78.4818L105.413 78.6644L106.5 76.5V74.5Z"></path>
<path fill="#CC9F34" d="M93 74L95.5 74.5L94.5833 76.3167L93 76V74Z"></path>
<path fill="#806320" d="M93 74L92 75.9818L92.9129 76.1644L93 76V74Z"></path>
<path fill="#FFC741" d="M103 93L107 93.8V96L102 95L103 93Z"></path>
<path fill="#7F6320" d="M103 91.2V93L102 95V91L103 91.2Z"></path>
<path fill="#FFC641" d="M114.591 84.3182L115.5 84.5L114.5 86.5V84.5L114.591 84.3182Z"></path>
<path fill="#CC9F34" d="M114.591 84.3182L115.5 82.5V84.5L114.591 84.3182Z"></path>
<path fill="#CC9F34" d="M106.504 85.5189L109.004 86.0189L108.087 87.8356L106.504 87.5189V85.5189Z"></path>
<path fill="#806320" d="M106.504 85.5189L105.504 87.5008L106.417 87.6833L106.504 87.5189V85.5189Z"></path>
<path fill="#CC9F34" d="M87.5024 79.5L92.5024 80.5L91.5858 82.3167L87.5024 81.5V79.5Z"></path>
<path fill="#806320" d="M87.5024 79.5L85.5024 83.4818L86.4153 83.6644L87.5024 81.5V79.5Z"></path>
<path fill="white" d="M94 130H95V129H100V131H96V132H98V134H96V135H100V137H95V136H94V130Z"></path>
<path fill="white" d="M101 130H102V129H107V131H103V132H105V134H103V135H107V137H102V136H101V130Z"></path>
<path fill="white" d="M115 130H116V129H121V131H117V132H119V134H117V135H121V137H116V136H115V130Z"></path>
<path fill="white" d="M92 129L93 129L93 130L93 137L91 137L91 134L89 134L89 137L87 137L87 129L89 129L89 132L91 132L91 129L92 129Z"></path>
<path fill="white" d="M80 130H81V129H86V131H82V132V134V135H86V137H81V136H80V130Z"></path>
<path fill="white" d="M108 130H109V129H114V131H110V132H113V133H114V136H113V137H108V135H112V134H109V133H108V130Z"></path>
</svg>
