<svg xmlns="http://www.w3.org/2000/svg" fill="none" viewBox="0 0 200 200" height="200" width="200">
<path fill="#4D2A6E" d="M116 116L124 100V92L116 108V116Z"></path>
<path fill="#5C4094" d="M96 112L116 116V108L96 104V112Z"></path>
<path fill="#C086FE" d="M96 104L116 108L124 92L104 88L96 104Z"></path>
<path fill-opacity="0.1" fill="white" d="M103 101L113 103L117 95L107 93L103 101Z"></path>
<path fill="#493C82" d="M121 118L123 114V102L121 106V118Z"></path>
<path fill="#5D52A2" d="M118 117.4L121 118V106L118 112V117.4Z"></path>
<path fill="#493C82" d="M101 133L103 129V113.4L101 113V133Z"></path>
<path fill="#5D52A2" d="M96 132L101 133V113L96 112V132Z"></path>
<path fill="#493C82" d="M107 121L109 117V114.6L107 114.2V121Z"></path>
<path fill="#5D52A2" d="M103 120.2L107 121V114.2L103 113.4V120.2Z"></path>
<path fill="#493C82" d="M116 128L118 124V112L116 116V128Z"></path>
<path fill="#5D52A2" d="M111 127L116 128V116L111 115V127Z"></path>
<path fill="#61497D" d="M91.0003 123L96.0003 124L96 112L91.0003 111V123Z"></path>
<path fill="#513765" d="M103 122L104 120L103 120.2V122Z"></path>
<path fill="#513765" d="M81 125L83 121V109.4L81 109V125Z"></path>
<path fill="#61497D" d="M76 124L81 125V109L76 108V124Z"></path>
<path fill="#513765" d="M84.0003 115L86.0003 111V110L84.0003 109.6V115Z"></path>
<path fill="#61497D" d="M83 114.8L84.0003 115V109.6L83 109.4V114.8Z"></path>
<path fill="#BE6EC6" d="M76 100L96 104L104 88L84 84L76 100Z"></path>
<path fill="#5A3262" d="M76 108L96 112V104L76 100V108Z"></path>
<path fill-opacity="0.1" fill="white" d="M83 97L93 99L97 91L87 89L83 97Z"></path>
</svg>
