<svg xmlns="http://www.w3.org/2000/svg" fill="none" viewBox="0 0 200 200" height="200" width="200">
<path fill="#514221" d="M101 91L100 93V91L101 89V87L103 83V81L107 73V75L109 71V73L110 71V72.8V75L111 73V81L110 83V87L109 89V91L107 95V96.9999L103 105V103L101 107V105L100 107V105L101 103V101L104 95V93L106 89V85L104 89V87L101 93V91Z"></path>
<path fill="#8C702F" d="M90 89L100 91V93L90.0001 91L90 89Z"></path>
<path fill="#8C702F" d="M91 85L101 87V89L91 87V85Z"></path>
<path fill="#8C702F" d="M93 79L103 81V83L93 81V79Z"></path>
<path fill="#8C702F" d="M101 105V107L100.091 106.818L101 105Z"></path>
<path fill="#FDC94F" d="M93 81L103 83L101 87L91 85L93 81Z"></path>
<path fill="#FDC94F" d="M97 71L107 73L103 81L93 79L97 71Z"></path>
<path fill="#FDC94F" d="M91 87L101 89L100 91L90 89L91 87Z"></path>
<path fill="#FDC94F" d="M99 69.0001L109 71L107 75V73L97.9091 71.1818L99 69.0001Z"></path>
<path fill="#FDC94F" d="M100 69L110 71L109 73V71L99.9091 69.1819L100 69Z"></path>
<path fill="#8C702F" d="M103 103V105L102.091 104.818L103 103Z"></path>
<path fill="#FDC94F" d="M110 72.8L111 73L110 75V72.8Z"></path>
<path fill="#8C702F" d="M90.0001 103L100 105V107L90.0002 105L90.0001 103Z"></path>
<path fill="#8C702F" d="M91.0001 99L101 101V103L91.0002 101L91.0001 99Z"></path>
<path fill="#8C702F" d="M101.273 92.4546L104 93V95L94.0002 93V91.8L100 93L101 91V93L101.273 92.4546Z"></path>
<path fill="#FDC94F" d="M91.0002 101L101.001 103L100.001 105L90.0001 103L91.0002 101Z"></path>
<path fill="#8C702F" d="M104 87V89L103.091 88.8182L104 87Z"></path>
<path fill="#8C702F" d="M106 85L106.001 89L104.182 88.6362L106 85Z"></path>
<path fill="#FDC94F" d="M94.0012 93L104.002 95L101.002 101L91.0012 99L94.0012 93Z"></path>
<path fill="#FDC94F" d="M104.182 88.6362L106 89L104 93L101.273 92.4546L103.091 88.8182L104 89L104.182 88.6362Z"></path>
</svg>
