<svg xmlns="http://www.w3.org/2000/svg" fill="none" viewBox="0 0 200 200" height="200" width="200">
<path fill="#928F96" d="M69.0001 88.9972L139 102.997V114.997L69.0001 100.997V88.9972Z"></path>
<path fill="#93764A" d="M69.0001 92.9972L74.0004 93.997V97.997L69.0001 96.9972V92.9972Z"></path>
<path fill="#93764A" d="M134 105.997L139 106.997V110.997L134 109.997V105.997Z"></path>
<path fill="#407994" d="M69.0001 68.9977L139 82.9975V102.997L69.0001 88.9972V68.9977Z"></path>
<path fill="#6A8FAA" d="M74.0004 77.9978L99.0007 82.9977V90.9972L74.0004 85.9973V77.9978Z"></path>
<path fill="#6A8FAA" d="M104 83.9978L114 85.9977V93.9972L104 91.9973V83.9978Z"></path>
<path fill="#6A8FAA" d="M119 86.9982L134 89.998V97.9975L119 94.9977V86.9982Z"></path>
<path fill="#254667" d="M139 82.9975L157 50.9977V66.9972L156.998 67.0005L139 102.997V82.9975Z"></path>
<path fill="#3D5577" d="M141 86.9975L155 58.9977V66.9972L141 94.997V86.9975Z"></path>
<path fill="white" d="M86.9998 33L157 46.9999L139 82.9975L69.0001 68.9977L86.9998 33Z"></path>
<path fill="#9497A8" d="M69.0001 68.9977L139 82.9975V86.9975L69.0001 72.9977V68.9977Z"></path>
<path fill="#545871" d="M139 82.9975L157 46.9999V50.9999L139 86.9975V82.9975Z"></path>
<path fill="#57462C" d="M139 106.997L141 102.998V106.997L139 110.997V106.997Z"></path>
<path fill="#565469" d="M139 110.997L141 106.997V102.998L154.999 75.0002V79.0002L156.999 75.0002L157 79L141 110.997L139 114.997V110.997Z"></path>
<path fill="#6B6080" d="M64.0001 99.997L144.001 115.997V119.997L64.0001 103.997V99.997Z"></path>
<path fill="#C0ABCA" d="M157 79L161.999 80.0005L144.001 115.997L139 114.997L157 79Z"></path>
<path fill="#3E3758" d="M144.001 115.997L161.999 80.0005V84.0005L144.001 119.997V115.997Z"></path>
<path fill="#C0ABCA" d="M65.9991 95.9975L69.0001 96.5976V100.997L64.0001 99.997L65.9991 95.9975Z"></path>
<path fill="#7E7BA6" d="M65.9971 91.9974L69.0001 92.5976V96.5976L65.9971 95.9975V91.9974Z"></path>
<path fill="#F9FFFF" d="M69.0001 88.2006V92.5976L65.9971 91.9974L67.9972 88L69.0001 88.2006Z"></path>
<path fill="#7D7AA5" d="M124 115.997L129 116.997V120.997L124 119.997V115.997Z"></path>
<path fill="#2F283A" d="M119 114.997L124 115.997V119.997L129 120.997V116.997L134 117.997V125.997L119 122.997L119 114.997Z"></path>
<path fill="#1A1728" d="M134 117.997L137.637 118.724L134 125.997V117.997Z"></path>
<path fill="#7D7AA5" d="M89.0006 104.997V112.997L84.0006 111.997V107.997L89.0006 108.997V104.997Z"></path>
<path fill="#2F283A" d="M79.0004 102.997L89.0006 104.997V108.997L84.0006 107.997V111.997L89.0006 112.997V104.997L94.0006 105.997V117.997L79.0006 114.997L79.0004 102.997Z"></path>
<path fill="#1A1728" d="M94.0006 105.997V109.997L97.6369 110.724L94.0006 117.997V105.997Z"></path>
<path fill="#9497A8" d="M81.0001 62.9956L96.0004 65.9956V69.9956L81.0001 66.9957V62.9956Z"></path>
<path fill="#F9FFFF" d="M83 58.9958L98.0003 61.9958L96.0004 65.9956L81.0001 62.9956L83 58.9958Z"></path>
<path fill="#555972" d="M96.0004 65.9956L98.0003 61.9958L98 65.9964L96.0004 69.9956V65.9956Z"></path>
<path fill="#9497A8" d="M93.0001 38.9997L108 41.9997V45.9997L93.0001 42.9998V38.9997Z"></path>
<path fill="#F9FFFF" d="M95 35L110 38L108 41.9997L93.0001 38.9997L95 35Z"></path>
<path fill="#555972" d="M108 41.9997L110 38L110 42.0005L108 45.9997V41.9997Z"></path>
<path fill="#565469" d="M139 102.997L156.998 67.0005L156.999 71.0008L141 102.998L139 106.997V102.997Z"></path>
<path fill="#57462C" d="M154.999 75.0002L156.999 71.0008V75.0002L154.999 79.0002V75.0002Z"></path>
<path fill="#9497A8" d="M141 106.997L146 107.997V111.997L141 110.997L141 106.997Z"></path>
<path fill="#F9FFFF" d="M143 102.997L148 103.997L146 107.997L141 106.997L143 102.997Z"></path>
<path fill="#555972" d="M146 107.997L148 103.997L148 107.998L146 111.997V107.997Z"></path>
<path fill="#9497A8" d="M152.999 82.9999L157.999 83.9999V87.9999L152.999 87.0002L152.999 82.9999Z"></path>
<path fill="#F9FFFF" d="M154.999 79.0002L159.999 80.0002L157.999 83.9999L152.999 82.9999L154.999 79.0002Z"></path>
<path fill="#555972" d="M157.999 83.9999L159.999 80.0002L159.999 84.0008L157.999 87.9999V83.9999Z"></path>
<path fill="#8A95CB" d="M69 88.9946L64 87.9972V91.9972L69.0001 92.9972L69 88.9946Z"></path>
<path fill="#F9FFFF" d="M69.0001 80.2005V88.9972L64 87.9972L67.9972 80L69.0001 80.2005Z"></path>
</svg>
