<svg xmlns="http://www.w3.org/2000/svg" fill="none" viewBox="0 0 80 116" height="116" width="80">
<path stroke-width="2" stroke="white" fill="#56C6F8" d="M2 113H1V3H2H3V2V1H77V2V3H78H79V113H78H77V114V115H3V114V113H2Z"></path>
<path fill="#9395AA" d="M22 43.0001L52.0003 49.0002V69.0003L22 63.0003V43.0001Z"></path>
<path fill="white" d="M31.5001 24L61.5003 30.0003L52.0003 49.0002L22 43.0001L26.2501 34.5001L31.5001 24Z"></path>
<path fill="#575876" d="M61.5003 30.0003V50.0004L52.0003 69.0003V49.0002L61.5003 30.0003Z"></path>
<path fill="#9395AA" d="M43.7502 34.7476L53.7503 36.7477V42.7477L43.7502 40.7477V34.7476Z"></path>
<path fill="white" d="M45.2502 31.7479L55.2503 33.7479L53.7503 36.7477L43.7502 34.7476L45.2502 31.7479Z"></path>
<path fill="#575876" d="M55.2503 33.7479V39.7479L53.7503 42.7477V36.7477L55.2503 33.7479Z"></path>
<path fill="#9395AA" d="M26.2501 31.2476L36.2501 33.2476V39.2477L26.2501 37.2477V31.2476Z"></path>
<path fill="white" d="M27.7501 28.2478L37.7502 30.2478L36.2501 33.2476L26.2501 31.2476L27.7501 28.2478Z"></path>
<path fill="#575876" d="M37.7502 30.2478V36.2479L36.2501 39.2477V33.2476L37.7502 30.2478Z"></path>
<path fill="#9395AA" d="M53.0003 55L58.0003 56V61L53.0003 60V55Z"></path>
<path fill="white" d="M54.5003 52.0002L59.5003 53.0002L58.0003 56L53.0003 55L54.5003 52.0002Z"></path>
<path fill="#575876" d="M59.5003 53.0002V58.0003L58.0003 61V56L59.5003 53.0002Z"></path>
<path fill="#9395AA" d="M53.0003 61L56.7503 61.75V64.7501L53.0003 64.0001V61Z"></path>
<path fill="white" d="M53.4549 60.0909L57.2049 60.8409L56.7503 61.75L53.0003 61L53.4549 60.0909Z"></path>
<path fill="#575876" d="M58.2503 60.5001V61.7503L56.7503 64.7501V61.75L57.2049 60.8409L58.0003 61L58.2503 60.5001Z"></path>
<path fill="#9395AA" d="M31.0001 64.8003L46.0002 67.8003V74.4999L31.0001 71.4999V64.8003Z"></path>
<path fill="#575876" d="M49.0455 68.4094L46.0002 74.4999V67.8003L49.0455 68.4094Z"></path>
<path fill="#9395AA" d="M35.5001 41.5001L40.5002 42.5001V44.5002L35.5001 43.5001V41.5001Z"></path>
<path fill="white" d="M37.0002 38.5004L42.0002 39.5004L40.5002 42.5001L35.5001 41.5001L37.0002 38.5004Z"></path>
<path fill="#575876" d="M42.0002 39.5004V41.5004L40.5002 44.5002V42.5001L42.0002 39.5004Z"></path>
<path fill="#957B63" d="M33.2501 45.2502V52.2368L22 50.0002V43.0001L33.2501 45.2502Z"></path>
<path fill="#957B63" d="M33.7623 34.7501V38.7501L28.7501 37.7456V33.7322L33.7623 34.7501Z"></path>
<path fill="#957B63" d="M51.2625 38.2501V42.2501L46.2502 41.2457V37.2322L51.2625 38.2501Z"></path>
<path fill="#FFDB9F" d="M36.2501 39.2477L33.2501 45.2502L22 43.0001L26.2501 34.5001V37.2477L36.2501 39.2477Z"></path>
<path fill="#FFDB9F" d="M37.7502 34.0481L38.7502 34.2481L37.7502 36.2479V34.0481Z"></path>
<path fill="#9395AA" d="M18 47.9999L22 48.7999V53.8L18 53V47.9999Z"></path>
<path fill="white" d="M19.5 45.0002L22 45.5002V48.7999L18 47.9999L19.5 45.0002Z"></path>
<path fill="#9395AA" d="M19.25 54.25L22 54.8V57.8L19.25 57.25V54.25Z"></path>
<path fill="white" d="M19.7046 53.3409L22 53.8V54.8L19.25 54.25L19.7046 53.3409Z"></path>
<path fill="#4B2031" d="M27.0001 46.0002L29.5001 46.5002V48.5002L27.0001 48.0002V46.0002Z"></path>
<path fill="#4B2031" d="M44.5002 49.5002L47.0002 50.0002V52.0002L44.5002 51.5002V49.5002Z"></path>
<path fill="#4B2031" d="M35.2501 49.7502L37.7501 50.2502V52.2502L35.2501 51.7502V49.7502Z"></path>
<path fill="#843B4E" d="M35.7501 48.7503L38.2501 49.2503L37.7501 50.2502L35.2501 49.7502L35.7501 48.7503Z"></path>
<path fill="#261326" d="M38.2501 49.2503V51.2503L37.7501 52.2502V50.2502L38.2501 49.2503Z"></path>
<path fill="#957B63" d="M49.5002 56.5136V66.5003L24.5 61.5137V51.5136L49.5002 56.5136Z"></path>
<path fill="#5B5869" d="M25.0001 51.6136V60.5137L24.5 61.5137V51.5136L25.0001 51.6136Z"></path>
<path fill="#FFFEFF" d="M25.0001 60.5137L49.5002 65.4007V66.5003L24.5 61.5137L25.0001 60.5137Z"></path>
<path fill="#4B2031" d="M28.7501 53.2503L31.2501 53.7503V56.7503L28.7501 56.2503V53.2503Z"></path>
<path fill="#4B2031" d="M43.7502 56.2503L46.2502 56.7503V59.7504L43.7502 59.2503V56.2503Z"></path>
<path fill="#4B2031" d="M35.0001 55.5003L36.2501 55.7502V56.7502L38.7502 57.2503V56.2502L40.0002 56.5003V58.5003L35.0001 57.5003V55.5003Z"></path>
<path fill="#5F6075" d="M34.7501 64.7503L37.2501 65.2503V67.2503L34.7501 66.7503V64.7503Z"></path>
<path fill="#ACABBB" d="M35.7501 62.7504L38.2501 63.2504L37.2501 65.2503L34.7501 64.7503L35.7501 62.7504Z"></path>
<path fill="#373950" d="M38.2501 63.2504V65.2504L37.2501 67.2503V65.2503L38.2501 63.2504Z"></path>
<path fill="#5F6075" d="M37.7502 65.2504L40.2502 65.7504V72.7504L39.0002 72.5004V69.5003L34.0001 68.5003V70.5004L39.0002 71.4999V72.5004L32.7501 71.2504V64.2504L34.7956 64.6594L34.7501 64.7503V66.7503L37.2501 67.2503L37.7501 66.2504L37.7502 65.2504Z"></path>
<path fill="#373950" d="M40.7502 64.7505V71.7505L40.2502 72.7504V65.7504L40.7502 64.7505Z"></path>
<path fill="#373950" d="M34.5001 68.6003V69.5004L34.0001 70.5004V68.5003L34.5001 68.6003Z"></path>
<path fill="#ACABBB" d="M34.5001 69.5004L39.0002 70.4V71.4999L34.0001 70.5004L34.5001 69.5004Z"></path>
<path fill="#ACABBB" d="M33.2501 63.2505L35.2922 63.6663L34.7956 64.6594L32.7501 64.2504L33.2501 63.2505Z"></path>
<path fill="#ACABBB" d="M38.2502 64.2505L40.7502 64.7505L40.2502 65.7504L37.7502 65.2504L38.2502 64.2505Z"></path>
<path fill="#957B63" d="M43.5002 67.3003V73.9865L33.5001 71.9999V71.4004L40.2502 72.7504L40.7502 71.7505V66.7503L43.5002 67.3003Z"></path>
<path fill="#957B63" d="M34.5001 68.6003L39.0002 69.4999V70.4L34.5001 69.5004V68.6003Z"></path>
<path fill="#9395AA" d="M46.0002 74.4999L46.25 74.0001V74.2501L46.1364 74.2275L46.0002 74.4999Z"></path>
<path fill="white" d="M46.0002 74.4999L47.25 72.0004L46.25 74.0001L46.0002 74.4999Z"></path>
<path fill="#575876" d="M47.25 72.0004V73.2504L45.75 76.25V75.25L46.25 74.2501V74.0001L47.25 72.0004Z"></path>
<path fill="#9395AA" d="M43.25 74.75L45.75 75.25V76.25L43.25 75.75V74.75Z"></path>
<path fill="white" d="M43.6137 74.0226L46.0002 74.4999L46.1364 74.2275L46.25 74.2501L45.75 75.25L43.25 74.75L43.6137 74.0226Z"></path>
<path fill="#575876" d="M36.5701 72.6098L35.7499 74.25V73.25L36.1153 72.5194L36.5701 72.6098Z"></path>
<path fill="#9395AA" d="M33.2499 72.75L35.7499 73.25V74.25L33.2499 73.75V72.75Z"></path>
<path fill="white" d="M33.6137 72.0226L36.1153 72.5194L35.7499 73.25L33.2499 72.75L33.6137 72.0226Z"></path>
<path fill="white" d="M34 97H35V96H40V98H36V99H38V101H36V102V104H35H34V103V97Z"></path>
<path fill="white" d="M41 97H42V96H47V98H43V99H45V101H43V102V104H42H41V103V97Z"></path>
<path fill="white" d="M48 97V96H49H50V98V102H54V104H49V103H48V98V97Z"></path>
<path fill="white" d="M20 96H25V97H26V100H25V101H22V99H24V98H22V99V101V104H20V96Z"></path>
<path fill="white" d="M55 97H56V96H61V98H57V99H59V101H57V102H61V104H56V103H55V97Z"></path>
<path fill="white" d="M27 97V96H28H33V98H31V102H33V104H27V102H29V98H27V97Z"></path>
</svg>
