<svg xmlns="http://www.w3.org/2000/svg" fill="none" viewBox="0 0 200 200" height="200" width="200">
<path fill="#7F4D4E" d="M166 118L174 102L84 84L76 100L166 118Z"></path>
<path fill="#743C3B" d="M167 105L169 101L159 99.0001L157 103L167 105Z"></path>
<path fill="#743C3B" d="M158 112L160 108L145 105L143 109L158 112Z"></path>
<path fill="#743C3B" d="M117 95.0002L119 91.0002L104 88.0001L102 92.0001L117 95.0002Z"></path>
<path fill="#743C3B" d="M108 102L110 98.0002L95 95.0002L93 99.0002L108 102Z"></path>
<path fill="#743C3B" d="M118 104L120 100L115 99.0002L113 103L118 104Z"></path>
<path fill="#743C3B" d="M131 111L135 103L140 104L142 100L132 98.0001L130 102L125 101L123 105L118 104L116 108L131 111Z"></path>
<path fill="#743C3B" d="M97 91L99 87L89 85L87 89L97 91Z"></path>
<path fill="#743C3B" d="M90 94L92 90L87 89L85 93L90 94Z"></path>
<path fill="#472A2F" d="M166 118V126L76 108V100L166 118Z"></path>
<path fill="#966964" d="M166 118L174 102L169 101L161 117L166 118Z"></path>
<path fill="#966964" d="M81 101L89 85L84 84L76 100L81 101Z"></path>
<path fill="#2F222B" d="M166 118L174 102V110L172 114V110L168 118V122L166 126V118Z"></path>
<path fill="#533A3E" d="M166 118V126L161 125V117L166 118Z"></path>
<path fill="#533A3E" d="M81 101V109L76 108V100L81 101Z"></path>
<path fill="#533A3E" d="M172 110V114L170.182 113.636L172 110Z"></path>
<path fill="#402126" d="M131 115V111L116 108V112L131 115Z"></path>
<path fill="#402126" d="M111 115V111L96 108V112L111 115Z"></path>
<path fill="#402126" d="M156 124V120L146 118V122L156 124Z"></path>
<path fill="#402126" d="M141 121V117L136 116V120L141 121Z"></path>
</svg>
