<svg xmlns="http://www.w3.org/2000/svg" fill="none" viewBox="0 0 200 200" height="200" width="200">
<path fill="#552215" d="M79 89.0012L109 95.0012L109 111L79 105L79 89.0012Z"></path>
<path fill="#3E1B15" d="M109 95.0012L121 71.0012L121 87.0003L109 111L109 95.0012Z"></path>
<path fill="#993D22" d="M91 65L121 71.0012L109 95.0012L79 89.0012L91 65Z"></path>
<path fill="#552215" d="M86 82.0012L106 86L106 89.9988L86 86L86 82.0012Z"></path>
<path fill="#3E1B15" d="M106 86L114 70V74L106 89.9988L106 86Z"></path>
<path fill="#C35432" d="M101 85.0003L109 69.0003L114 70.0012L106 86L101 85.0003Z"></path>
<path fill="#C35432" d="M98.9988 93.0013L101 88.9979L106 89.9988L103.999 94.001L98.9988 93.0013Z"></path>
<path fill="#C35432" d="M114 70L110.818 69.3642L111.001 68.9969L116.001 69.9978L114 74V70Z"></path>
<path fill="#C35432" d="M83.9988 90.0034L86 86L96 88.0009L93.9988 92.0031L83.9988 90.0034Z"></path>
<path fill="#C35432" d="M86 82.0012L94 66.0012L104 68.0021L96 84.0009L86 82.0012Z"></path>
<path fill="#C35432" d="M95.8175 66.3649L96 65.9997L106 68.0006L105.817 68.3646L95.8175 66.3649Z"></path>
<path fill="#6D2E1F" d="M101 88.9991L101 85.0003L106 86.0012L106 89.9988L101 88.9991Z"></path>
<path fill="#6D2E1F" d="M86 86L86 82.0012L96 84.0009L96 87.9985L86 86Z"></path>
<path fill="#6D2E1F" d="M84 106.002L83.9988 90.0034L93.9988 92.0031L94 108L84 106.002Z"></path>
<path fill="#6D2E1F" d="M98.9988 109L98.9988 93.0013L103.999 94.0022V110L98.9988 109Z"></path>
</svg>
