<svg xmlns="http://www.w3.org/2000/svg" fill="none" viewBox="0 0 400 300" height="300" width="400">
<path fill="#2B161D" d="M43.9995 112.001L209 145.001V149.001L199 147V155.001L189 153V145L43.9995 116.001V112.001Z"></path>
<path fill="#8C3F51" d="M53.9995 82.0013L199 111.001V143.001L53.9995 114.001V82.0013Z"></path>
<path fill="#542430" d="M199 111.001L211 87.0013V119.001L199 143.001V111.001Z"></path>
<path fill="#4C2A29" d="M199 143.001L211 119.001L221 121.001L209 145.001L199 143.001Z"></path>
<path fill="#4C2A29" d="M43.9995 112.001L53.9995 92.0013V114.001L43.9995 112.001Z"></path>
<path fill="#1D0B0B" d="M209 145.001L221 121.001V125.001L209 149.001V145.001Z"></path>
<path fill="#231218" d="M211 117.001L219 101.001V125.001L211 141.001V117.001Z"></path>
<path fill="#421F25" d="M201 115.001L211 117.001V141.001L201 139.001V115.001Z"></path>
<path fill="#4D2B29" d="M209 99.0013L219 101.001L211 117.001L201 115.001L209 99.0013Z"></path>
<path fill="#19090A" d="M211 117.001L219 101.001V105.001L211 121.001V117.001Z"></path>
<path fill="#2C181A" d="M201 115.001L211 117.001V121.001L201 119.001V115.001Z"></path>
<path fill="#927F8A" d="M53.9995 106.001L199 135.001V139.001L53.9995 110.001V106.001Z"></path>
<path fill="#3A1D21" d="M53.9995 102.001L199 131.001V135.001L53.9995 106.001V102.001Z"></path>
<path fill="#270F0F" d="M199 131.001L201 127.001V131.001L199 135.001V131.001Z"></path>
<path fill="#5E4E59" d="M199 135.001L201 131.001V135.001L199 139.001V135.001Z"></path>
<path fill="#3B1D20" d="M159 103.001L194 110.001V126.001L159 119.001V103.001Z"></path>
<path fill="#8B6C3C" d="M164 104.001L174 106.001V118.001L164 116.001V104.001Z"></path>
<path fill="#8B6C3C" d="M179 107.001L189 109.001V121.001L179 119.001V107.001Z"></path>
<path fill="#3B1D20" d="M109 93.0013L144 100.001V116.001L109 109.001V93.0013Z"></path>
<path fill="#8B6C3C" d="M114 94.0013L124 96.0013V108.001L114 106.001V94.0013Z"></path>
<path fill="#8B6C3C" d="M129 97.0013L139 99.0013V111.001L129 109.001V97.0013Z"></path>
<path fill="#3B1D20" d="M58.9995 83.0013L93.9995 90.0013V106.001L58.9995 99.0013V83.0013Z"></path>
<path fill="#8B6C3C" d="M63.9995 84.0013L73.9995 86.0013V98.0013L63.9995 96.0013V84.0013Z"></path>
<path fill="#8B6C3C" d="M78.9995 87.0013L88.9995 89.0013V101.001L78.9995 99.0013V87.0013Z"></path>
<path fill="#8E8188" d="M46.9995 73.0013L202 104.001V116.001L46.9995 85.0013V73.0013Z"></path>
<path fill="#524A5F" d="M202 104.001L220 68.0013V80.0013L202 116.001V104.001Z"></path>
<path fill="#FDE9D8" d="M46.9995 73.0013L64.9995 37L220 68.0013L202 104.001L46.9995 73.0013Z"></path>
<path fill="#8E8188" d="M154 86.0002L199 95.0015V99.0016L154 90.0015V86.0002Z"></path>
<path fill="#524A5F" d="M199 95.0015L213 67.0015V71.0015L199 99.0016V95.0015Z"></path>
<path fill="#FDE9D8" d="M154 86.0002L168 58.0002L213 67.0015L199 95.0015L154 86.0002Z"></path>
<path fill="#8E8188" d="M104 76L149 85.0013V89.0014L104 80.0013V76Z"></path>
<path fill="#524A5F" d="M149 85.0013L163 57.0013V61.0013L149 89.0014V85.0013Z"></path>
<path fill="#FDE9D8" d="M104 76L118 48L163 57.0013L149 85.0013L104 76Z"></path>
<path fill="#8E8188" d="M53.9995 66L98.9995 75.0013V79.0014L53.9995 70.0013V66Z"></path>
<path fill="#524A5F" d="M98.9995 75.0013L113 47.0013V51.0013L98.9995 79.0014V75.0013Z"></path>
<path fill="#FDE9D8" d="M53.9995 66L67.9995 38L113 47.0013L98.9995 75.0013L53.9995 66Z"></path>
<path fill="#597E98" d="M191.993 110L196.993 111V115L191.993 114V110Z"></path>
<path fill="#597E98" d="M156.993 99L161.993 100V104L156.993 103V99Z"></path>
<path fill="#597E98" d="M126.993 97L136.993 99V103L126.993 101V97Z"></path>
<path fill="#597E98" d="M76.9927 87L86.9927 89V93L76.9927 91V87Z"></path>
<path fill="#903E54" d="M107 89.0013L112 90.0013V94.0013L107 93.0013V89.0013Z"></path>
<path fill="#903E54" d="M56.9995 79.001L61.9995 80.001V84.001L56.9995 83.001V79.001Z"></path>
<path fill="#FE6F83" d="M89.9995 60L94.9995 61L92.9995 65.0001L87.9995 64.0001L89.9995 60Z"></path>
<path fill="#FE6F83" d="M199 73.0015L204 74.0015L202 78.0016L197 77.0016L199 73.0015Z"></path>
<path fill="#A4E0F2" d="M191 67.0015L196 68.0015L194 72.0015L189 71.0015L191 67.0015Z"></path>
<path fill="#A4E0F2" d="M169 67.002L174 68.002L172 72.002L167 71.002L169 67.002Z"></path>
<path fill="#A4E0F2" d="M128 54.002L133 55.002L131 59.002L126 58.002L128 54.002Z"></path>
<path fill="#1D0B0B" d="M199 147L202.636 147.728L199 155.001V147Z"></path>
<path fill="#1F0F12" d="M78.9995 123L189 145V149L78.9995 127V123Z"></path>
<path fill="#2B1919" d="M152 134L177 139V159L152 154V134Z"></path>
<path fill="#421F23" d="M157 139L172 142V154L157 151V139Z"></path>
<path fill="#7F0A2D" d="M162 143.999L167 144.999V148.999L162 147.999V143.999Z"></path>
<path fill="#5F3131" d="M154 130L179 135L177 139L152 134L154 130Z"></path>
<path fill="#211215" d="M179 135V147L180.818 147.364L179 151V155L177 159V139L179 135Z"></path>
<path fill="#2B1919" d="M107 125L132 130V150L107 145V125Z"></path>
<path fill="#421F23" d="M112 130L127 133V145L112 142V130Z"></path>
<path fill="#7F0A2D" d="M117 134.999L122 135.999V139.999L117 138.999V134.999Z"></path>
<path fill="#5F3131" d="M109 121L134 126L132 130L107 125L109 121Z"></path>
<path fill="#211215" d="M134 126V138L135.818 138.364L134 142V146L132 150V130L134 126Z"></path>
<path fill="#2B1919" d="M61.9995 116L86.9995 121V141L61.9995 136V116Z"></path>
<path fill="#421F23" d="M66.9995 121L81.9995 124V136L66.9995 133V121Z"></path>
<path fill="#7F0A2D" d="M71.9995 125.999L76.9995 126.999V130.999L71.9995 129.999V125.999Z"></path>
<path fill="#5F3131" d="M63.9995 112L88.9995 117L86.9995 121L61.9995 116L63.9995 112Z"></path>
<path fill="#211215" d="M88.9995 117V129L90.8177 129.364L88.9995 133V137L86.9995 141V121L88.9995 117Z"></path>
<path fill="#937E87" d="M213 133L223 135V139L213 137V133Z"></path>
<path fill="#FFE5D6" d="M217 125L227 127L223 135L213 133L217 125Z"></path>
<path fill="#811D27" d="M218 134L223 135V139L218 138V134Z"></path>
<path fill="#E2383A" d="M221.999 126L227 127L223 135L218 134L221.999 126Z"></path>
<path fill="#551219" d="M223 135L227 127V131L223 139V135Z"></path>
<path fill="#811D27" d="M43 99L53 101V105L43 103V99Z"></path>
<path fill="#E2383A" d="M46.9993 91L53.9995 92.4001V99.0007L53 101L43 99L46.9993 91Z"></path>
<path fill="#937E87" d="M47.9998 100L53 101V105L47.9998 104V100Z"></path>
<path fill="#FFE5D6" d="M51.9991 92.0001L53.9995 92.4001V99.0007L53 101L47.9998 100L51.9991 92.0001Z"></path>
<path fill="#524A5F" d="M53 101L53.9995 99.0007V103.001L53 105V101Z"></path>
</svg>
