<svg xmlns="http://www.w3.org/2000/svg" fill="none" viewBox="0 0 200 200" height="200" width="200">
<path fill="#4F5065" d="M68.9978 55L113.998 64V100L68.9978 91.0001V55Z"></path>
<path fill="#26263E" d="M113.998 64L131.998 28V64L113.998 100V64Z"></path>
<path fill="#7D8093" d="M86.9978 19L131.998 28L113.998 64L68.9978 55L86.9978 19Z"></path>
<path fill="#4F5065" d="M75.9978 48.0006L110.998 55.0006V59.0006L75.9978 52.0006V48.0006Z"></path>
<path fill="#26263E" d="M110.998 55.0006L124.998 27.0006V31.0006L110.998 59.0006V55.0006Z"></path>
<path fill="#7D8093" d="M89.9978 20.0006L124.998 27.0006L110.998 55.0006L75.9978 48.0006L89.9978 20.0006Z"></path>
<path fill="#4F5065" d="M71.9972 64.001L106.997 71.001V99.001L71.9972 92.001V64.001Z"></path>
<path fill="#26263E" d="M106.997 71.001L108.997 67.001V95.001L106.997 99.001V71.001Z"></path>
<path fill="#7D8093" d="M73.9972 60.001L108.997 67.001L106.997 71.001L71.9972 64.001L73.9972 60.001Z"></path>
<path fill="#4F5065" d="M115.997 64.001L120.997 65.001V93.001L115.997 92.001V64.001Z"></path>
<path fill="#26263E" d="M120.997 65.001L134.997 37.001V65.001L120.997 93.001V65.001Z"></path>
<path fill="#7D8093" d="M129.997 36.001L134.997 37.001L120.997 65.001L115.997 64.001L129.997 36.001Z"></path>
<path fill="#4F5065" d="M66 54L69.1798 54.636L68.9978 55V82.5996L66 82.0001V54Z"></path>
<path fill="#7D8093" d="M80 26L83.1798 26.636L69.1798 54.636L66 54L80 26Z"></path>
<path fill="#26263E" d="M128.814 27.3632L128.997 26.9967V27.3999L128.814 27.3632Z"></path>
<path fill="#7D8093" d="M93.9973 19.9967L128.997 26.9967L128.814 27.3632L93.814 20.3632L93.9973 19.9967Z"></path>
<path fill="#4F5065" d="M89 33.0014L98.9951 35.0004L97.181 38.6376L89 37.0014V33.0014Z"></path>
<path fill="#26263E" d="M85 41.0043L89 33.0037V37.0037L86.8186 41.3666L85 41.0043Z"></path>
<path fill="#4E505D" d="M89 37.0037L97.181 38.6376L95 43.002L86.8186 41.3666L89 37.0037Z"></path>
<path fill="#4F5065" d="M108.005 28.002L113 29.001L111.186 32.6381L108.005 32.002V28.002Z"></path>
<path fill="#26263E" d="M106.005 32.0049L108.005 28.0043V32.0043L107.823 32.3672L106.005 32.0049Z"></path>
<path fill="#4E505D" d="M108.005 32.0043L111.186 32.6381L111.005 33.0025L107.823 32.3672L108.005 32.0043Z"></path>
<path fill="#7D8093" d="M123.364 68.2708L127 68.9981L123 76.9981V68.9981L123.364 68.2708Z"></path>
<path fill="#4F5065" d="M123.364 68.2708L123 68.9981L127 61V68.9981L123.364 68.2708Z"></path>
<path fill="#7D8093" d="M129.182 68.5L131 68.8635L129 72.8635V68.8635L129.182 68.5Z"></path>
<path fill="#4F5065" d="M129.182 68.5L129 68.8635L131 64.8655V68.8635L129.182 68.5Z"></path>
<path fill="#26263E" d="M77 81L82 82.002V82.0001L78.8179 81.3643L77 85.0001V81Z"></path>
<path fill="#7D8093" d="M77 85.0001L78.8179 81.3643L82 82.0001V86.0001L77 85.0001Z"></path>
<path fill="#26263E" d="M92 72L93.8179 72.3643L94 72.4007V76.002L92 80.0001V72Z"></path>
<path fill="#7D8093" d="M92 80.0001L94 76.002V72.4007L93.8179 72.3643L102 74.002V82.0001L92 80.0001Z"></path>
<path fill="#333240" d="M94 72.4007L102 74.002V77.602L94 76.002V72.4007Z"></path>
</svg>
