<svg xmlns="http://www.w3.org/2000/svg" fill="none" viewBox="0 0 54 54" height="54" width="54">
<path fill="#FDFDFB" d="M0.000399351 9L27.0004 18V34L0.000399351 25V9Z"></path>
<path fill="#96E9FB" d="M0.000399351 25L27.0004 34L27.0003 38L0.000333786 29L0.000399351 25Z"></path>
<path fill="#ADFDFA" d="M0.000333786 29L27.0003 38L27 54L0 45L0.000333786 29Z"></path>
<path fill="#6FA9BF" d="M27.0003 38L54.0003 29L54 45L27 54L27.0003 38Z"></path>
<path fill="#B3BFBF" d="M27.0004 18L54.0004 9V25L45 28.0001V24L36.0004 27V31L27.0004 34V18Z"></path>
<path fill="#5D94B3" d="M27.0004 34L36.0004 31V27L45 24V28.0001L54.0004 25L54.0003 29L27.0003 38L27.0004 34Z"></path>
<path fill="#FDFDFB" d="M27.0004 0L54.0004 9L27.0004 18L0.000399351 9L27.0004 0Z"></path>
</svg>
