<svg xmlns="http://www.w3.org/2000/svg" fill="none" viewBox="0 0 200 200" height="200" width="200">
<path fill="#8E93BB" d="M87.0001 60L91.999 61L87.9994 69L133 78L128 87.9988L82.9995 78.9987L78.9988 86.999L74 85.999L87.0001 60Z"></path>
<path fill="#444563" d="M82.9995 78.9987L127.999 87.9986V97.9986L90.499 90.4988V88.4988L95.4991 89.4988V87.4988L90.499 86.4988V84.4987L82.9995 82.9987V78.9987Z"></path>
<path fill="#444563" d="M74 85.999L78.9999 86.999V88.999L74 87.999V85.999Z"></path>
<path fill="#4F5682" d="M74 87.999L78.9999 88.999L79.0035 90.9987L74 89.999V87.999Z"></path>
<path fill="#5D69A0" d="M74 87.999L76.5 88.499L76.5035 90.4987L74 89.999V87.999Z"></path>
<path fill="#44415E" d="M79.0035 88.9987L82.9995 80.9987V82.9987L79.0035 90.9987V88.9987Z"></path>
<path fill="#363650" d="M78.9988 86.999L82.9995 78.9987V80.9987L78.9988 88.999V86.999Z"></path>
<path fill="#363650" d="M87.9983 69.0003L91.999 61V63L88.9077 69.1817L87.9983 69.0003Z"></path>
<path fill="#44415E" d="M88.9077 69.1817L91.999 63V65L89.8169 69.3635L88.9077 69.1817Z"></path>
<path fill="#4F5682" d="M82.9995 80.9987L97.9991 83.9988V89.9988L127.999 95.9989V97.9986L90.499 90.4988V88.4988L95.4991 89.4988V85.4987L90.499 84.4987L82.9995 82.9987V80.9987Z"></path>
<path fill="#5D69A3" d="M90.499 84.4987L95.4991 85.4987V87.4988L90.499 86.4988V84.4987Z"></path>
<path fill="#A3B7F6" d="M91.4081 86.6806L95.4991 87.4988V89.4988L90.499 88.4988L91.4081 86.6806Z"></path>
<path fill="#444563" d="M96.4994 98.5L106.499 100.5V102.5L96.4994 100.5V98.5Z"></path>
<path fill="#363650" d="M106.499 100.5L107.504 98.5L105.004 97.9999L107.999 92.0001V94.0001L105.912 98.1815L107.504 98.5V100.5L106.499 102.5V100.5Z"></path>
<path fill="#8C91BB" d="M96.4994 98.5L100.499 90.4988L107.999 92.0001L105.004 97.9999L107.504 98.5L106.499 100.5L96.4994 98.5Z"></path>
<path fill="#444563" d="M109.136 73.2272L119.134 75.2272L119.143 75.2288L109.144 73.2289L109.136 73.2272Z"></path>
<path fill="#363650" d="M119.134 75.2272L119.499 74.4998V75.3L119.143 75.2288L119.134 75.2272Z"></path>
<path fill="#8C91BB" d="M109.136 73.2272L109.499 72.4985L119.499 74.4998L119.134 75.2272L109.136 73.2272Z"></path>
<path fill="#363650" d="M128 87.9988L133 78L132.999 86.0002L127.999 95.9989L128 87.9988Z"></path>
<path fill="#44415E" d="M127.999 95.9989L132.999 86.0002V88.0001L127.999 97.9986V95.9989Z"></path>
<path fill="#444563" d="M129 87.9999L144 90.9988V94.9999L139 93.9999V95.9999L129 93.9999V91.9999V87.9999Z"></path>
<path fill="#8C91BB" d="M129 87.9999L132 81.9987L147 84.9989L144 90.9988L129 87.9999Z"></path>
<path fill="#4F5682" d="M129 91.9999L139 93.9999V95.9999L129 93.9999V91.9999Z"></path>
<path fill="#363650" d="M144 90.9988L147 84.9989V88.7477L144 94.9999V90.9988Z"></path>
<path fill="#242331" d="M135 84.9988L140 85.9988V87.9988L135 86.9988V84.9988Z"></path>
<path fill="#1B1B25" d="M140 85.9988L141 83.9989V85.9988L140 87.9988V85.9988Z"></path>
<path fill="#484B5E" d="M136 82.9989L141 83.9989L140 85.9988L135 84.9988L136 82.9989Z"></path>
<path fill="#44415E" d="M139 93.9999L139.909 94.1817L139 95.9999V93.9999Z"></path>
<path fill="#444563" d="M145.001 73.0003L150.001 74.0003V98L145.001 97V73.0003Z"></path>
<path fill="#8C91BB" d="M145.001 73.0003L146.001 70.999L151.001 72.0003L150.001 74.0003L145.001 73.0003Z"></path>
<path fill="#242331" d="M150.001 74.0015L155.001 75.0019V76.9986L152.501 76.4986V98.5016L150.001 98.0015V74.0015Z"></path>
<path fill="#484B5E" d="M150.001 74.0015L151.001 72.0003L156.001 73.0019L155.001 75.0019L150.001 74.0015Z"></path>
<path fill="#1B1B25" d="M155.001 74.9986L156.001 72.9987V74.9986L155.001 76.9986V74.9986Z"></path>
<path fill="#1B1B25" d="M152.501 76.4986L153.5 76.6986V96.5016L152.501 98.5016V76.4986Z"></path>
<path fill="#444563" d="M110.004 71.9988L120.004 73.9988L117.504 73.4987V81.4987L110.004 79.9987V71.9988Z"></path>
<path fill="#37344F" d="M120.004 73.9988L118.504 73.6987V79.4987L117.504 81.4987V73.4987L120.004 73.9988Z"></path>
<path fill="#242331" d="M110.004 69.9988L120.004 71.9988V73.9988L110.004 71.9988V69.9988Z"></path>
<path fill="#1B1B25" d="M120.004 71.9988L121.004 69.9988V71.9988L120.004 73.9988V71.9988Z"></path>
<path fill="#484B5E" d="M111.004 67.9988L121.004 69.9988L120.004 71.9988L110.004 69.9988L111.004 67.9988Z"></path>
</svg>
