<svg xmlns="http://www.w3.org/2000/svg" fill="none" viewBox="0 0 200 200" height="200" width="200">
<path fill="#A65A36" d="M79 81L86.5 82.5L94 84L101.5 85.5L109 87V95V103V111L101.5 109.5L94 108L86.5 106.5L79 105V97V89V81Z"></path>
<path fill="#4D2A0C" d="M109 87L113 79L117 71L121 63V71V79V87L117 95L113 103L109 111V103V95V87Z"></path>
<path fill="#C37D56" d="M91 57L98.5 58.5L106 60L113.5 61.5L121 63L117 71L113 79L109 87L101.5 85.5L94 84L86.5 82.5L79 81L83 73L87 65L91 57Z"></path>
<path fill="#311708" d="M79 96.5L109 102.5V103.5L79 97.5V96.5Z"></path>
<path fill="#311708" d="M79 88.5L109 94.5V95V95.5L79 89.5V88.5Z"></path>
<path fill="#311708" d="M109 102.5V103V103.5V102.5Z"></path>
<path fill="#311708" d="M94 84L94.625 84.125V91.625L93.375 91.375V83.875L94 84Z"></path>
<path fill="#311708" d="M93.375 100.375L94.625 100.625V108.125L93.375 107.875V100.375Z"></path>
<path fill="#311708" d="M100.875 93.875L102.125 94.125V101.125L100.875 100.875V93.875Z"></path>
<path fill="#311708" d="M85.875 90.875L87.125 91.125V98.125L85.875 97.875V90.875Z"></path>
<path fill="#783915" d="M97.125 76.375L98.375 76.625L94.625 84.125L93.375 83.875L97.125 76.375Z"></path>
<path fill="#783915" d="M105.375 59.875L106.625 60.125L102.875 67.625L101.625 67.375L105.375 59.875Z"></path>
<path fill="#783915" d="M108.625 69.875L109.875 70.125L106.375 77.125L105.125 76.875L108.625 69.875Z"></path>
<path fill="#783915" d="M93.625 66.875L94.875 67.125L91.375 74.125L90.125 73.875L93.625 66.875Z"></path>
<path fill="#783915" d="M83.25 72.5L113.25 78.5L112.75 79.5L82.75 73.5L83.25 72.5Z"></path>
<path fill="#783915" d="M87.25 64.5L117.25 70.5L116.75 71.5L86.75 65.5L87.25 64.5Z"></path>
<path fill="#1B0D05" d="M109 94.5L121 70.5V71.5L109 95.5V94.5Z"></path>
<path fill="#1B0D05" d="M109 102.5L121 78.5V79.5L109 103.5V102.5Z"></path>
<path fill="#1B0D05" d="M114.75 84L115.25 83V90L114.75 91V84Z"></path>
<path fill="#1B0D05" d="M113 79L113.25 78.5V86L112.75 87V79.5L113 79Z"></path>
<path fill="#1B0D05" d="M117 71L117.25 70.5L117.25 78L116.75 79L116.75 71.5L117 71Z"></path>
<path fill="#1B0D05" d="M113 95.5L113.25 95V102.5L112.75 103.5V96L113 95.5Z"></path>
<path fill="#1B0D05" d="M117 87.5L117.25 87L117.25 94.5001L116.75 95.5001L116.75 88L117 87.5Z"></path>
</svg>
