<svg xmlns="http://www.w3.org/2000/svg" fill="none" viewBox="0 0 200 200" height="200" width="200">
<path fill="#653790" d="M70 92.9993L145 107.999V115.999L70 100.999V92.9993Z"></path>
<path fill="#774BA4" d="M70 88.9993L95 93.9993V81.9993L145 91.9993V103.999L150 104.999V108.999L145 107.999L70 92.9993V88.9993Z"></path>
<path fill="#D585FF" d="M84 60.9993L103.545 64.9084L95 81.9993V93.9993L70 88.9993L84 60.9993Z"></path>
<path fill="#D585FF" d="M109 54L159 64L145 91.9993L95 81.9993L109 54Z"></path>
<path fill="#D585FF" d="M159 76L164 77L150 104.999L145 103.999L159 76Z"></path>
<path fill="#452B72" d="M159 64V76L145 103.999V91.9993L159 64Z"></path>
<path fill="#452B72" d="M164 77V81L150 108.999V104.999L164 77Z"></path>
<path fill="#392266" d="M164 81V85L150 112.999V108.999L164 81Z"></path>
<path fill="#3D3758" d="M164 85V89L150 116.999V112.999L164 85Z"></path>
<path fill="#6B6082" d="M150 112.999V116.999L145 115.999V111.999L150 112.999Z"></path>
<path fill="#8F233B" d="M150 108.999V112.999L145 111.999V107.999L150 108.999Z"></path>
<path fill="#53152C" d="M152 104.999V108.999L150 112.999V108.999L152 104.999Z"></path>
<path fill="#53152C" d="M164 81V85L162 89V85L164 81Z"></path>
<path fill="#6B6082" d="M75 97.9993V101.999L70 100.999V96.9994L75 97.9993Z"></path>
<path fill="#438F9F" d="M140 94.9993V102.999L125 99.9993V91.9993L140 94.9993Z"></path>
<path fill="#438F9F" d="M120 91V99L95 93.9993L95 86L120 91Z"></path>
<path fill="#E3DDFF" d="M100 90.9997L98 94.9997L93 93.9997L95 89.9997L100 90.9997Z"></path>
<path fill="#7E7BA7" d="M98 94.9997V103L93 102V93.9997L98 94.9997Z"></path>
<path fill="#484874" d="M100 90.9997V98.9997L98 103V94.9997L100 90.9997Z"></path>
<path fill="#275471" d="M157 72V80.0001L147 99.9994V91.9993L157 72Z"></path>
<path fill="#7E7BA6" d="M85.0018 104L90.0018 105V109L85.0018 108V104Z"></path>
<path fill="#2F283A" d="M80.0016 103L85.0018 104V108L90.0018 109V105L95.0018 106V114L80.0018 111L80.0016 103Z"></path>
<path fill="#191828" d="M95.0018 106L98.638 106.727L95.0018 114V106Z"></path>
<path fill="#7E7BA6" d="M130 113L135 114V118L130 117V113Z"></path>
<path fill="#2F283A" d="M125 112L130 113V117L135 118V114L140 115V123L125 120L125 112Z"></path>
<path fill="#191828" d="M140 115L143.636 115.727L140 123V115Z"></path>
</svg>
