<svg xmlns="http://www.w3.org/2000/svg" fill="none" viewBox="0 0 400 400" height="400" width="400">
<path fill="#476E37" d="M131 182L145 154L230 171V183L216 211L131 194V182Z"></path>
<path fill="#5E7A40" d="M131 182L216 199V207L176 199L179 199.6V196L169 194V197.6L176 199L131 190V182Z"></path>
<path fill="#48578E" d="M218 199L220 195V199L218 203V199Z"></path>
<path fill="#48578E" d="M226 183L228 179V183L226 187V183Z"></path>
<path fill="#55588F" d="M188 177L198 157V169L196 173V165L190 177V185L188 189V177Z"></path>
<path fill="#F9FFFF" d="M148 147L198 157L188 177L138 167L148 147Z"></path>
<path fill="#000100" d="M190 177L196 165V173L190 185V177Z"></path>
<path fill="#000100" d="M183 188V180L143 172V180L183 188Z"></path>
<path fill="#000100" d="M191 202L206 205V213H208L206 217L191 214V202Z"></path>
<path fill="#000100" d="M141 192L156 195V203H158L156 207L141 204V192Z"></path>
<path fill="#181319" d="M158 183V175L153 174V182L158 183Z"></path>
<path fill="#4B4575" d="M131 194L141 196V200L131 198V194Z"></path>
<path fill="#4B4575" d="M156 199L191 206V210L156 203V199Z"></path>
<path fill="#4B4575" d="M206 209L216 211V215L206 213V209Z"></path>
<path fill="#334D29" d="M220 199L226 187L230 179V183L216 211V207L220 199Z"></path>
<path fill="#334D29" d="M220 191L226 179V183L220 195V191Z"></path>
<path fill="#344A1F" d="M220 191V195L218 199V203L216 207V199L220 191Z"></path>
<path fill="#344A1F" d="M230 171V179L228 183V179L226 183V179L230 171Z"></path>
<path fill="#264420" d="M220 195L226 183V187L220 199V195Z"></path>
<path fill="#264420" d="M179 196L181 192V196L179 200V196Z"></path>
<path fill="#2D294E" d="M216 211L230 183V187L216 215V211Z"></path>
<path fill="#A9D969" d="M198 164.6L230 171L216 199L186 193L198 169V164.6Z"></path>
<path fill="#A9D969" d="M135 174L138 168V179L188 189L186 193L131 182L135 174Z"></path>
<path fill="#81C355" d="M196 173L226 179L220 191L190 185L196 173Z"></path>
<path fill="#81C355" d="M138 168V174.6L135 174L138 168Z"></path>
<path fill="#81C355" d="M171 190L181 192L179 196L169 194L171 190Z"></path>
<path fill="#879DD4" d="M146 197L151 198V202L146 201V197Z"></path>
<path fill="#879DD4" d="M196 207L201 208V212L196 211V207Z"></path>
<path fill="#8C95CE" d="M138 167L188 177V189L183 188V180L163 176V184L158 183V175L143 172V180L138 179V167Z"></path>
</svg>
