<svg xmlns="http://www.w3.org/2000/svg" fill="none" viewBox="0 0 480 360" height="360" width="480">
<path stroke-width="2" stroke="white" fill="#56C6F8" d="M12.0667 73.1H13.0667V72.1V71H466.933V72.1V73.1H467.933H469V346.9H467.933H466.933V347.9V349H13.0667V347.9V346.9H12.0667H11V73.1H12.0667Z"></path>
<path fill="white" d="M249 107H251V105H261V109H253V111H259V113H261V119H259V121H249V117H257V115H251V113H249V107Z"></path>
<path fill="white" d="M149 107H151V105H159V107H161V109H157H153V117H157V109H161V119H159V121H151V119H149V107Z"></path>
<path fill="white" d="M291 107V105H293H301V107H303V109H299H295V117H299V109H303V119H301V121H293H291V119V107Z"></path>
<path fill="white" d="M177 107V105H179H181V111H185V105H189V113H187V115H185V121H181V115H179V113H177V107Z"></path>
<path fill="white" d="M163 105H173V107H175V113H173V115H167V111H171V109H167V111V115V121H163V105Z"></path>
<path fill="white" d="M235 107H237V105H247V109H239V111H243V115H239V117H247V121H237V119H235V107Z"></path>
<path fill="white" d="M263 107H265V105H275V109H267V111H271V115H267V117H275V121H265V119H263V107Z"></path>
<path fill="white" d="M135 107H137V105H147V109H139V111V115V117H147V121H137V119H135V107Z"></path>
<path fill="white" d="M305 107H307V105H315V107H317V121H313V109H309V111H313V115H309V117V121H307H305V119V107Z"></path>
<path fill="white" d="M333 107H335V105H343V107H345V121H341V109H337V111H341V115H337V117V121H335H333V119V107Z"></path>
<path fill="white" d="M205 107V105H207H217V109H213V117V121H209V117V109H205V107Z"></path>
<path fill="white" d="M319 107V105H321H331V109H327V117V121H323V117V109H319V107Z"></path>
<path fill="white" d="M230.667 105L233 105L233 107L233 121L228.333 121L228.333 115L223.667 115L223.667 121L219 121L219 105L223.667 105L223.667 111L228.333 111L228.333 105L230.667 105Z"></path>
<path fill="white" d="M298 129H300V130H301V131H302V130H303V129H305V137H303V133H302V134H301V133H300V137H298V129Z"></path>
<path fill="white" d="M306 129H308V130H309V131H310V130H311V129H313V137H311V133H310V134H309V133H308V137H306V129Z"></path>
<path fill="white" d="M199 130V129H198H197V131V135H195V129H193V136H194V137H198V136H199V131V130Z"></path>
<path fill="white" d="M158 129H163V130H164V133H163V134H164V137H162V135H161V134H160V132H162V131H160V132V134V137H158V129Z"></path>
<path fill="white" d="M200 129H205V130H206V133H205V134H206V137H204V135H203V134H202V132H204V131H202V132V134V137H200V129Z"></path>
<path fill="white" d="M249 130H250V129H255V131H251V132H254V133H255V136H254V137H249V135H253V134H250V133H249V130Z"></path>
<path fill="white" d="M335 130H336V129H341V131H337V132H340V133H341V136H340V137H335V135H339V134H336V133H335V130Z"></path>
<path fill="white" d="M137 130H138V129H143V131H139V132H142V133H143V136H142V137H137V135H141V134H138V133H137V130Z"></path>
<path fill="white" d="M151 130H152V129H156V130H157V137H155V131H153V132H155V134H153V135V137H152H151V136V130Z"></path>
<path fill="white" d="M165 130H166V129H171V131H167V132H169V134H167V135H171V137H166V136H165V130Z"></path>
<path fill="white" d="M149 129L150 129L150 130L150 137L148 137L148 134L146 134L146 137L144 137L144 129L146 129L146 132L148 132L148 129L149 129Z"></path>
<path fill="white" d="M179 130V129H180H181V132H183V129H185V133H184V134H183V137H181V134H180V133H179V130Z"></path>
<path fill="white" d="M221 130H222V129H227V131H223V132H225V134H223V135H227V137H222V136H221V130Z"></path>
<path fill="white" d="M235 130H236V129H241V131H237V132H239V134H237V135H241V137H236V136H235V130Z"></path>
<path fill="white" d="M314 130H315V129H320V131H316V132H318V134H316V135H320V137H315V136H314V130Z"></path>
<path fill="white" d="M284 130H285V129H290V131H286V132V134V135H290V137H285V136H284V130Z"></path>
<path fill="white" d="M270 129H272V130H273V131H274V129H276V137H274V134H273V133H272V137H270V129Z"></path>
<path fill="white" d="M321 129H323V130H324V131H325V129H327V137H325V134H324V133H323V137H321V129Z"></path>
<path fill="white" d="M186 130H187V129H191V130H192V131H190H188V135H190V131H192V136H191V137H187V136H186V130Z"></path>
<path fill="white" d="M291 130H292V129H296V130H297V131H295H293V135H295V131H297V136H296V137H292V136H291V130Z"></path>
<path fill="white" d="M263 130V129H264H269V131H267V135H269V137H263V135H265V131H263V130Z"></path>
<path fill="white" d="M328 130V129H329H334V131H332V135V137H330V135V131H328V130Z"></path>
<path fill="white" d="M342 130V129H343H344V131V134H342V131V130Z"></path>
<path fill="white" d="M342 136V135H343H344V137H342V136Z"></path>
<path fill="white" d="M214 130V129H215H216V131V135H220V137H215V136H214V131V130Z"></path>
<path fill="white" d="M242 130V129H243H244V131V135H248V137H243V136H242V131V130Z"></path>
<path fill="white" d="M234 130V129H233H232V131V134H230V129H228V135H229V136H230V137H232V136H233V135H234V131V130Z"></path>
<path fill="white" d="M232 153L230 153L230 152L229 152L229 151L228 151L228 152L227 152L227 153L225 153L225 145L227 145L227 149L228 149L228 148L229 148L229 149L230 149L230 145L232 145L232 153Z"></path>
<path fill="white" d="M196 145L196 147L195 147L195 148L194 148L194 150L195 150L195 151L196 151L196 153L194 153L194 152L193 152L193 151L192 151L192 153L190 153L190 145L192 145L192 147L193 147L193 146L194 146L194 145L196 145Z"></path>
<path fill="white" d="M162 146H163V145H168V147H164V148V150V151H168V153H163V152H162V146Z"></path>
<path fill="white" d="M290 146H291V145H296V147H292V148V150V151H296V153H291V152H290V146Z"></path>
<path fill="white" d="M183 146H184V145H189V147H185V148V150V151H189V153H184V152H183V146Z"></path>
<path fill="white" d="M211 145H213V146H214V147H215V145H217V153H215V150H214V149H213V153H211V145Z"></path>
<path fill="white" d="M269 146V145H270H275V147H273V151V153H271V151V147H269V146Z"></path>
<path fill="white" d="M169 146V145H170H171V147V151H175V153H170V152H169V147V146Z"></path>
<path fill="white" d="M238.833 145L240 145L240 146L240 153L237.667 153L237.667 150L235.333 150L235.333 153L233 153L233 145L235.333 145L235.333 148L237.667 148L237.667 145L238.833 145Z"></path>
<path fill="white" d="M248 145H253V146H254V149H253V150H254V153H252V151H251V150H250V148H252V147H250V148V150V153H248V145Z"></path>
<path fill="white" d="M311 146H312V145H317V147H313V148H316V149H317V152H316V153H311V151H315V150H312V149H311V146Z"></path>
<path fill="white" d="M204 146H205V145H209V146H210V153H208V147H206V148H208V150H206V151V153H205H204V152V146Z"></path>
<path fill="white" d="M241 146H242V145H247V147H243V148H245V150H243V151H247V153H242V152H241V146Z"></path>
<path fill="white" d="M255 146H256V145H261V147H257V148H259V150H257V151H261V153H256V152H255V146Z"></path>
<path fill="white" d="M318 146H319V145H324V147H320V148H322V150H320V151H324V153H319V152H318V146Z"></path>
<path fill="white" d="M276 146H277V145H281V146H282V147H280H278V151H280V147H282V152H281V153H277V152H276V146Z"></path>
<path fill="white" d="M304 146H305V145H309V146H310V147H308H306V151H308V147H310V152H309V153H305V152H304V146Z"></path>
<path fill="white" d="M297 146V145H298H299V147V151H303V153H298V152H297V147V146Z"></path>
<path fill="white" d="M218 146V145H219H220V148H222V145H224V149H223V150H222V153H220V150H219V149H218V146Z"></path>
<path fill="white" d="M176 146V145H177H182V147H180V151H182V153H176V151H178V147H176V146Z"></path>
<path fill="#FF4040" d="M247 89H249V90H250V91H251V89H253V97H251V94H250V93H249V97H247V89Z"></path>
<path fill="#FF4040" d="M214 90H215V89H220V91H216V92H219V93H220V96H219V97H214V95H218V94H215V93H214V90Z"></path>
<path fill="#FF4040" d="M254 90H255V89H260V91H256V92H259V93H260V96H259V97H254V95H258V94H255V93H254V90Z"></path>
<path fill="#FF4040" d="M221 90H222V89H227V91H223V92H225V94H223V95H227V97H222V96H221V90Z"></path>
<path fill="#FF4040" d="M228 90H229V89H234V91H230V92H232V94H230V95H234V97H229V96H228V90Z"></path>
<path fill="#FF4040" d="M275 90H276V89H281V91H277V92H279V94H277V95H281V97H276V96H275V90Z"></path>
<path fill="#FF4040" d="M240 90V89H241H246V91H244V95H246V97H240V95H242V91H240V90Z"></path>
<path fill="#FF4040" d="M261 90V89H262H267V91H265V95H267V97H261V95H263V91H261V90Z"></path>
<path fill="#FF4040" d="M268 90V89H269H273V90H274V91H272H270V95H272V91H274V96H273V97H269H268V96V90Z"></path>
<path fill="white" d="M301 90V89H302H306V90H307V91H305H303V95H305V91H307V96H306V97H302H301V96V90Z"></path>
<path fill="white" d="M174 90H175V89H180V91H176V92V94V95H180V97H175V96H174V90Z"></path>
<path fill="white" d="M195 90H196V89H201V91H197V92V94V95H201V97H196V96H195V90Z"></path>
<path fill="white" d="M188 90V89H189H194V91H192V95H194V97H188V95H190V91H188V90Z"></path>
<path fill="white" d="M181 90V89H182H183V91V95H187V97H182V96H181V91V90Z"></path>
<path fill="white" d="M208 89L208 91L207 91L207 92L206 92L206 94L207 94L207 95L208 95L208 97L206 97L206 96L205 96L205 95L204 95L204 97L202 97L202 89L204 89L204 91L205 91L205 90L206 90L206 89L208 89Z"></path>
<path fill="white" d="M294 89H296V90H297V91H298V89H300V97H298V94H297V93H296V97H294V89Z"></path>
<path fill="white" d="M287 90H288V89H292V90H293V97H291V91H289V92H291V94H289V95V97H288H287V96V90Z"></path>
</svg>
