<svg xmlns="http://www.w3.org/2000/svg" fill="none" viewBox="0 0 200 200" height="200" width="200">
<path fill="#49282F" d="M93 95.8L103 97.8V101L93 99V95.8Z"></path>
<path fill="#28151B" d="M109 99L104.5 98.1L103 101V97.8L109 99Z"></path>
<path fill="#3B7344" d="M79 73L109 79L109 87.0001L109 99L79 93V73Z"></path>
<path fill="#22432E" d="M109 79L121 54.9999V74.9999L109 99L109 87.0001L109 79Z"></path>
<path fill="#9DD572" d="M91.0001 49L121 54.9999L109 79L79 73L91.0001 49Z"></path>
<path fill="#587545" d="M79 73L109 79L109 87.0001L79 81L79 73Z"></path>
<path fill="#314330" d="M121 54.9999L109 79L109 87.0001L121 63L121 54.9999Z"></path>
<path fill="#587545" d="M86 66L106 70L106 74.0001L86 70.0001L86 66Z"></path>
<path fill="#314330" d="M114 54.0002L106 70L106 74.0001L114 57.9999L114 54.0002Z"></path>
</svg>
