<svg version="1.1" xmlns="http://www.w3.org/2000/svg" xmlns:xlink="http://www.w3.org/1999/xlink" width="10" height="10.00002" viewBox="0,0,10,10.00002"><g transform="translate(-240,-177.00098)"><g data-paper-data="{&quot;isPaintingLayer&quot;:true}" fill-rule="nonzero" stroke-width="1" stroke-linecap="butt" stroke-linejoin="miter" stroke-miterlimit="10" stroke-dasharray="" stroke-dashoffset="0" style="mix-blend-mode: normal"><path d="M248,177.50098h0.5v0.5v0.5h0.5h0.5v0.5v6.00002v0.5h-0.5h-0.5v0.5v0.5h-0.5h-6h-0.5v-0.5v-0.5h-0.5h-0.5v-0.5v-5.00002v-0.5h0.5h1.5v-1.5v-0.5h0.5z" fill="#fbe64b" stroke="#000000"/><path d="M247,177.50098h0.5v0.5v0.5h0.5h0.5v0.5v5.00002v0.5h-0.5h-0.5v0.5v0.5h-0.5h-5h-0.5v-0.5v-0.5h-0.5h-0.5v-0.5v-5.00002v-0.5h0.5h0.5v-0.5v-0.5h0.5z" fill="#fbe64b" stroke="#000000"/><path d="M246,181.00049h-2v1h2v1.00001h-3v-3.00001h3z" fill="#ee0407" stroke="none"/></g></g></svg>