<svg xmlns="http://www.w3.org/2000/svg" fill="none" viewBox="0 0 80 120" height="120" width="80">
<path stroke-width="2" stroke="white" fill="#56C6F8" d="M2 117H1V3H2H3V2V1H77V2V3H78H79V117H78H77V118V119H3V118V117H2Z"></path>
<path fill="#2CACE8" d="M2 112H4V114H76V112H78V116H76V118H4V116H2V112Z"></path>
<path fill="#CC1515" d="M29.1673 28.3332L44.1672 31.3331L44.1671 35.3331L42.8337 37.9998V39.3335L44.1672 36.6669V37.9998V47.3331L29.1673 44.3331V28.3332Z"></path>
<path fill="#7F0D0D" d="M44.1672 31.3331L48.1672 23.3332L48.1672 24.6665L49.5005 22.0003V23.3332L50.1672 21.9999V35.3331L44.1672 47.3331V37.9998V36.6669L42.8337 39.3335V37.9998L44.1671 35.3331L44.1672 31.3331Z"></path>
<path fill="#FF1B1B" d="M35.1672 19L50.1672 21.9999L49.5005 23.3332V22.0003L48.1672 24.6665L48.1672 23.3332L44.1672 31.3331L29.1673 28.3332L33.1672 20.3333L33.7732 20.4548L34.5004 19.0003L35.1065 19.1215L35.1672 19Z"></path>
<path fill="#FFB88C" d="M29.1673 34.9999V36.6003L42.8337 39.3335L43.5613 37.8786L44.1672 37.9998V47.3331L29.1673 44.3331V34.9999Z"></path>
<path fill="#AA6F5A" d="M44.1672 37.9998L48.1672 29.9999V31.3331L49.5005 28.6666V30.0003L50.1672 28.6666V35.3331L44.1672 47.3331V37.9998Z"></path>
<path fill="#CCCCCC" d="M34.1672 30.667L39.1672 31.667V34.3336L34.1672 33.3336V30.667Z"></path>
<path fill="#FF1B1B" d="M29.1671 32.3333L44.1671 35.3331L42.8337 37.9998L27.8338 34.9998L29.1671 32.3333Z"></path>
<path fill="#CC1515" d="M27.8338 34.9998L42.8337 37.9998V39.3335L27.8338 36.3336V34.9998Z"></path>
<path fill="#AA6F5A" d="M51.5002 33.3336V37.3336L50.1669 40.0002V36.0002L51.5002 33.3336Z"></path>
<path fill="#FFB88C" d="M50.1669 36.0002V40.0002L46.8336 39.3335V35.3336L50.1669 36.0002Z"></path>
<path fill="#FFD9B1" d="M51.5002 33.3336L50.1669 36.0002L46.8336 35.3336L48.167 32.6669L51.5002 33.3336Z"></path>
<path fill="#B17762" d="M48.5009 37.0002V38.3336L46.8336 38.0002V36.6669L48.5009 37.0002Z"></path>
<path fill="#32120E" d="M48.1672 29.9999V31.3331L49.5005 28.6666V30.0003L50.1672 28.6666V33.067L48.167 32.6669L46.8336 35.3336V36.6669L46.1672 37.9998V33.9999L48.1672 29.9999Z"></path>
<path fill="#AA6F5A" d="M39.1671 40.9998V43.6664L37.8338 46.3331V43.6664L39.1671 40.9998Z"></path>
<path fill="#FFB88C" d="M37.8338 43.6664V46.3331L32.8338 45.3331V42.6664L37.8338 43.6664Z"></path>
<path fill="#FFD9B1" d="M39.1671 40.9998L37.8338 43.6664L32.8338 42.6664L34.1671 39.9998L39.1671 40.9998Z"></path>
<path fill="#CCCCCC" d="M40.8342 38.9336V42.6669L39.1671 42.3334V40.9998L37.5009 40.6669V38.267L40.8342 38.9336Z"></path>
<path fill="#CCCCCC" d="M35.8342 37.9337V40.3335L34.1671 40.0001V39.9998L33.5609 41.2123L32.501 41.0002V37.267L35.8342 37.9337Z"></path>
<path fill="#2766D1" d="M34.1671 37.9998L35.8342 38.3336V40.3335L34.1671 39.9998V37.9998Z"></path>
<path fill="#2766D1" d="M37.5009 38.6669L39.168 39.0007V41.0006L37.5009 40.6669V38.6669Z"></path>
<path fill="#CC1515" d="M30.5002 46.0663L32.1672 46.3997L32.8338 45.3331L37.8338 46.3331L38.5002 45L40.1676 45.3335V46.6668V48.0002L40.7736 46.788L41.8342 47.0002L41.895 46.8786L44.1672 47.3331L44.8942 45.879L45.5 46.0001V63.3334L30.5002 60.3334V46.0663Z"></path>
<path fill="#7F0D0D" d="M45.5 46.0001L47.985 41.0305L50.1669 40.0002L49.4998 66L46.8334 71.3334V60.6668L45.5 63.3334V46.0001Z"></path>
<path fill="#FF1B1B" d="M50.1669 40.0002L47.985 41.0305L45.5 46.0001L44.8942 45.879L44.1672 47.3331L48.0457 39.576L50.1669 40.0002Z"></path>
<path fill="#1E56D4" d="M45.5 50.0001V63.3334L30.5002 60.3334V47.0001L32.1676 47.3335L32.1672 46.3997L35.5009 47.0668V47.3332V48.0002L40.5009 49.0002V48.0665L40.5011 47.3331L40.7736 46.788L41.8342 47.0002L41.895 46.8786L44.1672 47.3331L43.8342 47.2665V47.999V49.6668L45.5 50.0001Z"></path>
<path fill="#FEDD34" d="M35.5009 48.0002V50.6668L32.1676 50.0002V47.3335L35.5009 48.0002Z"></path>
<path fill="#FEDD34" d="M43.8342 49.6668V52.3335L40.5009 51.6668V49.0002L43.8342 49.6668Z"></path>
<path fill="#12349E" d="M50.1669 40.0002L49.4998 66L46.8334 71.3334V60.6668L45.5 63.3338V50.0006L48.8342 43.3335V42.0002L49.1978 41.273L50.1669 40.0002Z"></path>
<path fill="#1E56D4" d="M40.1663 62.2666L45.5 63.3338L46.8334 60.6668V71.3334L40.1663 69.9996V62.2666Z"></path>
<path fill="#1E56D4" d="M31.8333 60.6L38.5004 61.9338V69.6663L31.8333 68.3325V60.6Z"></path>
<path fill="#12349E" d="M38.5004 61.9338L40.1663 62.2666L40.1676 66.3334L38.5004 69.6663V61.9338Z"></path>
<path fill="#502D2C" d="M49.4998 66V70L45.5001 78V75.3333L46.8334 72.6667V71.3334L49.4998 66Z"></path>
<path fill="#874633" d="M46.8334 71.3334V72.6667L45.5001 75.3333V78L38.833 76.6662V74L40.1663 71.3334V69.9996L46.8334 71.3334Z"></path>
<path fill="#D37753" d="M46.8334 72.6667L45.5001 75.3333L38.833 74L40.1663 71.3334L46.8334 72.6667Z"></path>
<path fill="#502D2C" d="M40.1676 66.3334L40.1663 70.335L37.1673 76.3333V73.6667L38.5006 71V69.6667L40.1676 66.3334Z"></path>
<path fill="#874633" d="M38.5006 69.6667V71L37.1673 73.6667V76.3333L30.5002 74.9996V72.3334L31.8335 69.6667V68.3329L38.5006 69.6667Z"></path>
<path fill="#D37753" d="M38.5006 71L37.1673 73.6667L30.5002 72.3334L31.8335 69.6667L38.5006 71Z"></path>
<path fill="#7F0D0D" d="M54.6676 40.5002V52.5001L52.6676 56.5001V44.5002L54.6676 40.5002Z"></path>
<path fill="#CC1515" d="M52.6676 44.5002V56.5001L47.6684 55.4996V47.4996L46.8336 47.3341V43.3341L52.6676 44.5002Z"></path>
<path fill="#FF1B1B" d="M54.6676 40.5002L52.6676 44.5002L46.8336 43.3341L47.985 41.0305L50.1669 40.0002L50.3485 39.6371L54.6676 40.5002Z"></path>
<path fill="#7F7F7F" d="M54.6676 52.5001V56.5001L52.6676 60.5001V56.5001L54.6676 52.5001Z"></path>
<path fill="#CBCBCB" d="M52.6676 56.5001V60.5001L47.6684 59.4995V55.4996L52.6676 56.5001Z"></path>
<path fill="#261F24" d="M30.1676 42.0002L31.8343 42.3335V43.6669L32.8338 43.8668V45.3331L37.8338 46.3331L38.5002 45L40.1676 45.3335V44.0002L41.8342 44.3335V47.0002L40.1676 46.6668V48.0002L31.8343 46.3335V45.0002L30.1676 44.6669V42.0002Z"></path>
<path fill="#533A41" d="M30.8343 40.6669L32.501 41.0002L31.8343 42.3335L30.1676 42.0002L30.8343 40.6669Z"></path>
<path fill="#533A41" d="M32.5009 42.3335L32.9549 42.4243L32.8338 42.6664V45.3331L37.8338 46.3331L39.1671 43.6664L40.2282 43.879L40.1676 44.0002V45.3335L38.5002 45L37.8338 46.3331L32.8338 45.3331V43.8668L31.8343 43.6669L32.5009 42.3335Z"></path>
<path fill="#533A41" d="M40.8342 42.6669L42.5009 43.0002L41.8342 44.3335L40.1676 44.0002L40.8342 42.6669Z"></path>
<path fill="#04040A" d="M42.5009 43.0002V45.6668L41.8342 47.0002V44.3335L42.5009 43.0002Z"></path>
<path fill="#04040A" d="M32.501 41.0002L32.5009 42.3335L31.8343 43.6669V42.3335L32.501 41.0002Z"></path>
<path fill="#04040A" d="M40.7736 46.788L40.1676 48.0002V46.6668L40.7736 46.788Z"></path>
<path fill="#FFB88C" d="M29.1673 31.8003L29.1671 32.3333L28.5005 33.6665V31.6669L29.1673 31.8003Z"></path>
<path fill="#FFD9B1" d="M29.1673 30.3333V31.8003L28.5005 31.6669L29.1673 30.3333Z"></path>
<path fill="#7F0D0D" d="M30.5002 46.0663V52.0683V52.0673V46.0663Z"></path>
<path fill="#CC1515" d="M29.1673 39.8V44.3331L30.1676 44.5331V44.6669L31.8343 45.0002V46.3335L30.5002 46.0663V52.0673L26 51.1668V39.1669L29.1673 39.8Z"></path>
<path fill="#FF1B1B" d="M27.8338 34.9998V36.3336L29.1673 36.6003V39.8L26 39.1669L27.8338 35.5002L27.8339 35.0002L27.8338 34.9998Z"></path>
<path fill="#7F7F7F" d="M30.5002 52.0683V56.0673V52.0673V52.0683Z"></path>
<path fill="#CBCBCB" d="M30.5002 52.0673V56.0673L26 55.1668V51.1668L30.5002 52.0673Z"></path>
<path fill="white" d="M38 96H43V97H44V100H43V101H44V104H42V102H41V101H40V99H42V98H40V99V101V104H38V96Z"></path>
<path fill="white" d="M31 97H32V96H36V97H37V104H35V98H33V99H35V101H33V102V104H32H31V103V97Z"></path>
<path fill="white" d="M23 96H25V97H26V98H27V97H28V96H30V104H28V100H27V101H26V100H25V104H23V96Z"></path>
<path fill="white" d="M52 97H53V96H57V97H58V98H56H54V102H56V98H58V103H57V104H53V103H52V97Z"></path>
<path fill="white" d="M45 97V96H46H51V98H49V102H51V104H45V102H47V98H45V97Z"></path>
<path fill="#FF3232" d="M37 2H76V4H78V16H37H31V14H33V12H35V10H37V8H35V6H33V4H31V2H37Z"></path>
<path fill="white" d="M59.5 7.5H60V7H62.5V8H60.5V8.5H62V9H62.5V10.5H62V11H59.5V10H61.5V9.5H60V9H59.5V7.5Z"></path>
<path fill="white" d="M45.5 7.5V7H46H46.5V8H47.5V7H48.5V8.5H48V9.5H48.5V11H47.5V10H46.5V11H45.5V9.5H46V8.5H45.5V7.5Z"></path>
<path fill="white" d="M52.5 7.5V7H53H53.5V8V10H55.5V11H53V10.5H52.5V8V7.5Z"></path>
<path fill="white" d="M63 7.5V7H63.5H66V8H65V10H66V11H63V10H64V8H63V7.5Z"></path>
<path fill="white" d="M59 7.5V7H58.5H58V8V10H57V7H56V10.5H56.5V11H58.5V10.5H59V8V7.5Z"></path>
<path fill="white" d="M69.5 7.5V7H69H68.5V8V9.5H67.5V7H66.5V10H67V10.5H67.5V11H68.5V10.5H69V10H69.5V8V7.5Z"></path>
<path fill="white" d="M70 7.5H70.5V7H73V8H71V8.5H72V9.5H71V10H73V11H70.5V10.5H70V7.5Z"></path>
<path fill="white" d="M49 7.5H49.5V7H52V8H50V8.5V9.5V10H52V11H49.5V10.5H49V7.5Z"></path>
<path fill="white" d="M42 7.5H42.5V7H45V8H43V8.5H44V9.5H43V10H45V11H42.5V10.5H42V7.5Z"></path>
</svg>
