<svg xmlns="http://www.w3.org/2000/svg" fill="none" viewBox="0 0 200 200" height="200" width="200">
<path fill="#7F4D4E" d="M116 108L124 92L84 84L76 100L116 108Z"></path>
<path fill="#743C3B" d="M96.9999 91L98.9999 87L88.9999 85L86.9999 89L96.9999 91Z"></path>
<path fill="#743C3B" d="M97.9999 100L99.9999 96L84.9999 93L82.9999 97L97.9999 100Z"></path>
<path fill="#743C3B" d="M113 103.1L115 99.1L105 97.1L103 101.1L113 103.1Z"></path>
<path fill="#472A2F" d="M116 108V116L76 108V100L116 108Z"></path>
<path fill="#966964" d="M116 108L124 92L119 91L111 107L116 108Z"></path>
<path fill="#966964" d="M81 101L89 85L84 84L76 100L81 101Z"></path>
<path fill="#2F222B" d="M116 108L124 92V100L122 104V100L118 108V112L116 116V108Z"></path>
<path fill="#533A3E" d="M116 108V116L111 115V107L116 108Z"></path>
<path fill="#533A3E" d="M81 101V109L76 108V100L81 101Z"></path>
<path fill="#533A3E" d="M122 100V104L120.182 103.636L122 100Z"></path>
<path fill="#402126" d="M96 112V108L86 106V110L96 112Z"></path>
<path fill="#402126" d="M106 114V110L101 109V113L106 114Z"></path>
</svg>
