<svg xmlns="http://www.w3.org/2000/svg" fill="none" viewBox="0 0 480 360" height="360" width="480">
<path stroke-width="2" stroke="white" fill="#56C6F8" d="M12.0667 193.1H13.0667V192.1V191H466.933V192.1V193.1H467.933H469V346.9H467.933H466.933V347.9V349H13.0667V347.9V346.9H12.0667H11V193.1H12.0667Z"></path>
<path fill="white" d="M200 239H205V240H206V243H205V244H202V242H204V241H202V242V244V247H200V239Z"></path>
<path fill="white" d="M179 239H184V240H185V243H184V244H185V247H183V245H182V244H181V242H183V241H181V242V244V247H179V239Z"></path>
<path fill="white" d="M277 239H282V240H283V243H282V244H283V247H281V245H280V244H279V242H281V241H279V242V244V247H277V239Z"></path>
<path fill="white" d="M326 239H331V240H332V243H331V244H332V247H330V245H329V244H328V242H330V241H328V242V244V247H326V239Z"></path>
<path fill="white" d="M186 240H187V239H192V241H188V242H190V244H188V245H192V247H187V246H186V240Z"></path>
<path fill="white" d="M249 240H250V239H255V241H251V242H253V244H251V245H255V247H250V246H249V240Z"></path>
<path fill="white" d="M319 240H320V239H325V241H321V242V244V245H325V247H320V246H319V240Z"></path>
<path fill="white" d="M193 240H194V239H199V241H195V242H198V243H199V246H198V247H193V245H197V244H194V243H193V240Z"></path>
<path fill="white" d="M361 240H362V239H367V241H363V242H366V243H367V246H366V247H361V245H365V244H362V243H361V240Z"></path>
<path fill="white" d="M340 240H341V239H346V241H342V242H345V243H346V246H345V247H340V245H344V244H341V243H340V240Z"></path>
<path fill="white" d="M221 240H222V239H227V241H223V242H226V243H227V246H226V247H221V245H225V244H222V243H221V240Z"></path>
<path fill="white" d="M263 240H264V239H269V241H265V242H267V244H265V245V247H264H263V246V240Z"></path>
<path fill="white" d="M129 240H130V239H134V240H135V247H133V241H131V242H133V244H131V245V247H130H129V246V240Z"></path>
<path fill="white" d="M333 240H334V239H338V240H339V247H337V241H335V242H337V244H335V245V247H334H333V246V240Z"></path>
<path fill="white" d="M136 239H138V240H139V241H140V240H141V239H143V247H141V243H140V244H139V243H138V247H136V239Z"></path>
<path fill="white" d="M151 239H153V240H154V241H155V239H157V247H155V244H154V243H153V247H151V239Z"></path>
<path fill="white" d="M214 239H216V240H217V241H218V239H220V247H218V244H217V243H216V247H214V239Z"></path>
<path fill="white" d="M158 240H159V239H163V240H164V241H162H160V245H162V241H164V246H163V247H159V246H158V240Z"></path>
<path fill="white" d="M270 240H271V239H275V240H276V241H274H272V245H274V241H276V246H275V247H271V246H270V240Z"></path>
<path fill="white" d="M207 240H208V239H212V240H213V241H211H209V245H211V241H213V246H212V247H208V246H207V240Z"></path>
<path fill="white" d="M115 240V239H116H121V241H119V245H121V247H115V245H117V241H115V240Z"></path>
<path fill="white" d="M228 240V239H229H234V241H232V245H234V247H228V245H230V241H228V240Z"></path>
<path fill="white" d="M165 240V239H166H171V241H169V245V247H167V245V241H165V240Z"></path>
<path fill="white" d="M291 240V239H292H297V241H295V245V247H293V245V241H291V240Z"></path>
<path fill="white" d="M242 240V239H243H244V241V245H248V247H243V246H242V241V240Z"></path>
<path fill="white" d="M235 239H240V240H241V242H240V244H241V246H240V247H237V245H239V244H238H237V242H239V241H237V242V244V247H235V239Z"></path>
<path fill="white" d="M305 240H306V239H311V241H307V242H309V244H307V245H311V247H306V246H305V240Z"></path>
<path fill="white" d="M354 240H355V239H360V241H356V242H358V244H356V245H360V247H355V246H354V240Z"></path>
<path fill="white" d="M303 239L304 239L304 240L304 247L302 247L302 244L300 244L300 247L298 247L298 239L300 239L300 242L302 242L302 239L303 239Z"></path>
<path fill="white" d="M352 239L353 239L353 240L353 247L351 247L351 244L349 244L349 247L347 247L347 239L349 239L349 242L351 242L351 239L352 239Z"></path>
<path fill="white" d="M157 215H167V217H169V223H167V225H169V231H165V227H163V225H161V221H165V219H161V221V225V231H157V215Z"></path>
<path fill="white" d="M101 217H103V215H113V219H105V221H109V225H105V227H113V231H103V229H101V217Z"></path>
<path fill="white" d="M143 217H145V215H155V219H147V221H151V225H147V227H155V231H145V229H143V217Z"></path>
<path fill="white" d="M213 217H215V215H225V219H217V221H221V225H217V227H225V231H215V229H213V217Z"></path>
<path fill="white" d="M255 217H257V215H267V219H259V221H263V225H259V227H267V231H257V229H255V217Z"></path>
<path fill="white" d="M283 217H285V215H295V219H287V221H291V225H287V227H295V231H285V229H283V217Z"></path>
<path fill="white" d="M115 215H119V217H121V219H123V215H127V231H123V225H121V223H119V231H115V215Z"></path>
<path fill="white" d="M129 217V215H131H141V219H137V227V231H133V227V219H129V217Z"></path>
<path fill="white" d="M185 217V215H187H197V219H193V227V231H189V227V219H185V217Z"></path>
<path fill="white" d="M353 217V215H355H365V219H361V227V231H357V227V219H353V217Z"></path>
<path fill="white" d="M281 217V215H279H277V219V225H273V215H269V227H271V229H273V231H277V229H279V227H281V219V217Z"></path>
<path fill="white" d="M339 217H341V215H349V217H351V231H347V219H343V221H347V225H343V227V231H341H339V229V217Z"></path>
<path fill="white" d="M367 217H369V215H377V217H379V231H375V219H371V221H375V225H371V227V231H369H367V229V217Z"></path>
<path fill="white" d="M209 215L211 215L211 217L211 231L207 231L207 225L203 225L203 231L199 231L199 215L203 215L203 221L207 221L207 215L209 215Z"></path>
<path fill="white" d="M241 217V215H243H245V219V227H253V231H243V229H241V219V217Z"></path>
<path fill="white" d="M297 217V215H299H301V219V227H309V231H299V229H297V219V217Z"></path>
<path fill="white" d="M325 217V215H327H335V217H337V219H333H329V227H333V219H337V229H335V231H327H325V229V217Z"></path>
<path fill="white" d="M295 256V255H296H300V256H301V257H299H297V261H299V257H301V262H300V263H296H295V262V256Z"></path>
<path fill="white" d="M337 256V255H338H342V256H343V257H341H339V261H341V257H343V262H342V263H338H337V262V256Z"></path>
<path fill="white" d="M267 256H268V255H273V257H269V258V260V261H271V260H270V258H273V262V263H272H268V262H267V256Z"></path>
<path fill="white" d="M196 256V255H197H198V258H200V255H202V259H201V260H200V263H198V260H197V259H196V256Z"></path>
<path fill="white" d="M203 255H208V256H209V259H208V260H205V258H207V257H205V258V260V263H203V255Z"></path>
<path fill="white" d="M168 256H169V255H174V257H170V258H172V260H170V261H174V263H169V262H168V256Z"></path>
<path fill="white" d="M210 256H211V255H216V257H212V258H214V260H212V261H216V263H211V262H210V256Z"></path>
<path fill="white" d="M358 256H359V255H364V257H360V258H362V260H360V261H364V263H359V262H358V256Z"></path>
<path fill="white" d="M140 256H141V255H146V257H142V258V260V261H146V263H141V262H140V256Z"></path>
<path fill="white" d="M161 256H162V255H167V257H163V258V260V261H167V263H162V262H161V256Z"></path>
<path fill="white" d="M147 256H148V255H152V256H153V263H151V257H149V258H151V260H149V261V263H148H147V262V256Z"></path>
<path fill="white" d="M344 256H345V255H349V256H350V263H348V257H346V258H348V260H346V261V263H345H344V262V256Z"></path>
<path fill="white" d="M316 256H317V255H321V256H322V263H320V257H318V258H320V260H318V261V263H317H316V262V256Z"></path>
<path fill="white" d="M281 256H282V255H286V256H287V263H285V257H283V258H285V260H283V261V263H282H281V262V256Z"></path>
<path fill="white" d="M154 255H156V256H157V257H158V255H160V263H158V260H157V259H156V263H154V255Z"></path>
<path fill="white" d="M288 255H290V256H291V257H292V255H294V263H292V260H291V259H290V263H288V255Z"></path>
<path fill="white" d="M260 255H262V256H263V257H264V255H266V263H264V260H263V259H262V263H260V255Z"></path>
<path fill="white" d="M224 255H226V256H227V257H228V255H230V263H228V260H227V259H226V263H224V255Z"></path>
<path fill="white" d="M126 256H127V255H131V256H132V257H130H128V261H130V257H132V262H131V263H127V262H126V256Z"></path>
<path fill="white" d="M231 256H232V255H236V256H237V257H235H233V261H235V257H237V262H236V263H232V262H231V256Z"></path>
<path fill="white" d="M253 256V255H254H259V257H257V261H259V263H253V261H255V257H253V256Z"></path>
<path fill="white" d="M330 256V255H331H336V257H334V261H336V263H330V261H332V257H330V256Z"></path>
<path fill="white" d="M119 256V255H120H125V257H123V261V263H121V261V257H119V256Z"></path>
<path fill="white" d="M189 256V255H190H195V257H193V261V263H191V261V257H189V256Z"></path>
<path fill="white" d="M351 256V255H352H357V257H355V261V263H353V261V257H351V256Z"></path>
<path fill="white" d="M238 256V255H239H244V257H242V261V263H240V261V257H238V256Z"></path>
<path fill="white" d="M175 256V255H176H177V257V261H181V263H176V262H175V257V256Z"></path>
<path fill="white" d="M323 256V255H324H325V257V261H329V263H324V262H323V257V256Z"></path>
<path fill="white" d="M250.833 255L252 255L252 256L252 263L249.667 263L249.667 260L247.333 260L247.333 263L245 263L245 255L247.333 255L247.333 258L249.667 258L249.667 255L250.833 255Z"></path>
<path fill="white" d="M315 256V255H314H313V257V260H311V255H309V261H310V262H311V263H313V262H314V261H315V257V256Z"></path>
</svg>
