<svg xmlns="http://www.w3.org/2000/svg" fill="none" viewBox="0 0 14 14" height="14" width="14">
<path stroke="black" fill="white" d="M12.5 2.00019V1.50021L12 1.50019L7.00002 1.5H6.99998L1.99998 1.50019L1.5 1.50021V2.00019V13V13.5H2H7H7.5V13V9.50007H12H12.5V9.00007V8.50009H13H13.5V8.00009V3.00017V2.50017H13H12.5V2.00019ZM7.5 6.50011V5.50001L8.5 5.5001V6.50011H7.5Z"></path>
<path stroke="black" fill="white" d="M6.00002 1.5H5.99998L1.99998 1.50019L1.5 1.50021V2.00019V12V12.5H2H6H6.5V12V8.50007H11H11.5V8.00007V7.50009H12H12.5V7.00009V3.00017V2.50017H12H11.5V2.00019V1.50021L11 1.50019L6.00002 1.5ZM6.5 5.50011V4.50001L7.5 4.5001V5.50011H6.5Z"></path>
</svg>
