<svg xmlns="http://www.w3.org/2000/svg" fill="none" viewBox="0 0 200 200" height="200" width="200">
<path fill="#49282F" d="M86 94.4L109 99L106 98.4V106L86 102V94.4Z"></path>
<path fill="#28151B" d="M109 99L114 89V90L106 106V98.4L109 99Z"></path>
<path fill="#65761A" d="M79.0001 53L109 59V99L79.0001 93V53Z"></path>
<path fill="#3A4410" d="M109 59L121 34.9999V74.9999L109 99V59Z"></path>
<path fill="#A3C121" d="M91.0001 29L121 34.9999L109 59L79.0001 53L91.0001 29Z"></path>
<path fill="#5D6D15" d="M79 88.9999L109 95L109 99L79.0001 93L79 88.9999Z"></path>
<path fill="#333D0B" d="M121 70.9999L109 95L109 99L121 74.9999L121 70.9999Z"></path>
<path fill="#5D6D15" d="M79 76.9999L109 83L109 87L79 81L79 76.9999Z"></path>
<path fill="#333D0B" d="M121 58.9999L109 83L109 87L121 62.9999L121 58.9999Z"></path>
<path fill="#5D6D15" d="M79 64.9999L109 71L109 75L79 69L79 64.9999Z"></path>
<path fill="#333D0B" d="M121 46.9999L109 71L109 75L121 50.9999L121 46.9999Z"></path>
<path fill="#5D6D15" d="M79.0001 53L109 59L109 63L79 57L79.0001 53Z"></path>
<path fill="#333D0B" d="M121 34.9999L109 59L109 63L121 38.9999L121 34.9999Z"></path>
</svg>
