<svg xmlns="http://www.w3.org/2000/svg" fill="none" viewBox="0 0 200 200" height="200" width="200">
<path fill="#141520" d="M80.5 88L90.5 90V86L100.5 88V92L110.5 94V98L80.5 92V88Z"></path>
<path fill="#101018" d="M110.5 94L122.5 70V74L110.5 98V94Z"></path>
<path fill="#2A2E3D" d="M92.5 64L122.5 70L110.5 94L100.5 92V88L90.5 86V90L80.5 88L92.5 64Z"></path>
<path fill="#22263C" d="M86.5 81L106.5 85V91L100.5 89.8V88L90.5 86V87.8L86.5 87V81Z"></path>
<path fill="#1D1D2C" d="M106.5 85L116.5 65V71L106.5 91V85Z"></path>
<path fill="#485374" d="M96.5 61L116.5 65L106.5 85L86.5 81L96.5 61Z"></path>
<path fill="#444B68" d="M90.5 73L110.5 77L108.5 81L88.5 77L90.5 73Z"></path>
<path fill="#444B68" d="M94.5 65L114.5 69L112.5 73L92.5 69L94.5 65Z"></path>
<path fill="#1B1A28" d="M110.5 77V83L108.5 87V81L110.5 77Z"></path>
<path fill="#1B1A28" d="M114.5 69V75L112.5 79V73L114.5 69Z"></path>
<path fill="#2A2E3D" d="M91.5 84L101.5 86L100.5 88L90.5 86L91.5 84Z"></path>
<path fill="#101018" d="M101.5 86V90L100.5 92V88L101.5 86Z"></path>
<path fill="#535454" d="M111.5 96L124 98.5V100.5L110.591 97.8182L111.5 96Z"></path>
<path fill="#453F3F" d="M124 98.5L127 92.5V94.5L124 100.5V98.5Z"></path>
<path fill="#ADB39F" d="M113.5 92L123.5 94L124.5 92L127 92.5L124 98.5L111.5 96L113.5 92Z"></path>
<path fill="#535454" d="M69 87.5L80.5 89.8V91.8L69 89.5V87.5Z"></path>
<path fill="#ADB39F" d="M72 81.5L74.5 82L73.5 84L81.6818 85.6364L80.5 88V89.8L69 87.5L72 81.5Z"></path>
<path fill="#453F3F" d="M73.5 84L74.5 82V84L74.4091 84.1818L73.5 84Z"></path>
<path fill="#453F3F" d="M116.818 68.8636L117 68.5V68.9L116.818 68.8636Z"></path>
<path fill="#ADB39F" d="M116.5 68.4L117 68.5L116.818 68.8636L116.5 68.8V68.4Z"></path>
<path fill="#ADB39F" d="M89.5 88L99.5 90L94.5 100L84.5 98L89.5 88Z"></path>
<path fill="#453F3F" d="M99.5 90V98L94.5 108V100L99.5 90Z"></path>
<path fill="#535454" d="M94.5 100V108L84.5 106V98L94.5 100Z"></path>
<path fill="#1B1A28" d="M97.5 96V98L96.5 100V98L97.5 96Z"></path>
<path fill="#ADB39F" d="M93 88.5L98 89.5L97.9091 89.6818L92.9091 88.6818L93 88.5Z"></path>
<path fill="#453F3F" d="M98 89.5V89.7L97.9091 89.6818L98 89.5Z"></path>
</svg>
