<svg xmlns="http://www.w3.org/2000/svg" fill="none" viewBox="0 0 200 200" height="200" width="200">
<path fill="#3A3659" d="M112 100L128 68V84L112 116V100Z"></path>
<path fill="#3A3659" d="M107 95L111 87V83L117 71V75L121 67V71L107 99V95Z"></path>
<path fill="#635D81" d="M72 88L107 95V99L112 100V116L72 108V88Z"></path>
<path fill="#635D81" d="M81 77.0001L111 83V87L81 80.9999V77.0001Z"></path>
<path fill="#B5A6CD" d="M86 60.0002L87.8181 60.3637L88 60L128 68L112 100L107 99L121 71V67L117 75V71L111 83L81 77.0001V80.9999L111 87L107 95L72 88L86 60.0002Z"></path>
</svg>
