<svg xmlns="http://www.w3.org/2000/svg" fill="none" viewBox="0 0 200 200" height="200" width="200">
<path fill="#E3AA00" d="M70.5016 78.5005L90.5013 82.5004V98.5002L70.5016 94.5002V78.5005Z"></path>
<path fill="#997300" d="M90.5013 82.5004L92.5012 78.5005V94.5002L90.5013 98.5002V82.5004Z"></path>
<path fill="#FFBF00" d="M72.5016 74.5005L92.5012 78.5005L90.5013 82.5004L70.5016 78.5005L72.5016 74.5005Z"></path>
<path fill="#E3AA00" d="M72.5016 70.5001L92.5012 74.5V78.5005L72.5016 74.5005V70.5001Z"></path>
<path fill="#997300" d="M92.5012 74.5L100.501 58.5003V62.5002L92.5012 78.5005V74.5Z"></path>
<path fill="#FFBF00" d="M80.5014 54.5003L100.501 58.5003L92.5012 74.5L72.5016 70.5001L80.5014 54.5003Z"></path>
<path fill="#E3AA00" d="M92.5012 78.5005L97.5011 79.5005V95.5008L92.5012 94.5002V78.5005Z"></path>
<path fill="#997300" d="M97.5011 79.5005L105.501 63.5008V79.5005L97.5011 95.5008V79.5005Z"></path>
<path fill="#FFBF00" d="M100.501 62.5002L105.501 63.5008L97.5011 79.5005L92.5012 78.5005L100.501 62.5002Z"></path>
<path fill="#E3AA00" d="M67.5017 73.5005L72.5016 74.5005L70.5016 78.5005V90.1006L67.5017 89.5003V73.5005Z"></path>
<path fill="#FFBF00" d="M75.5015 57.5003L78.6831 58.137L72.5016 70.5001V74.5005L67.5017 73.5005L75.5015 57.5003Z"></path>
<path fill="#997300" d="M100.501 62.5002L102.501 58.5003V62.9005L100.501 62.5002Z"></path>
<path fill="#FFBF00" d="M82.5014 54.5003L102.501 58.5003L100.501 62.5002V58.5003L82.3196 54.864L82.5014 54.5003Z"></path>
<path fill="#E3AA00" d="M92.5012 94.5002V98.5007L90.6828 98.137L92.5012 94.5002Z"></path>
<path fill="#997300" d="M92.5012 94.5002L94.3195 94.8641L92.5012 98.5007V94.5002Z"></path>
<path fill="#E3AA00" d="M100.501 84.5004L120.501 88.5004V104.5L100.501 100.5V84.5004Z"></path>
<path fill="#997300" d="M120.501 88.5004L122.501 84.5004V100.5L120.501 104.5V88.5004Z"></path>
<path fill="#FFBF00" d="M102.501 80.5004L122.501 84.5004L120.501 88.5004L100.501 84.5004L102.501 80.5004Z"></path>
<path fill="#E3AA00" d="M102.501 76.5L122.501 80.4999V84.5004L102.501 80.5004V76.5Z"></path>
<path fill="#997300" d="M122.501 80.4999L130.501 64.5002V68.5001L122.501 84.5004V80.4999Z"></path>
<path fill="#FFBF00" d="M110.501 60.5002L130.501 64.5002L122.501 80.4999L102.501 76.5L110.501 60.5002Z"></path>
<path fill="#E3AA00" d="M122.501 84.5004L127.501 85.5004V101.501L122.501 100.5V84.5004Z"></path>
<path fill="#997300" d="M127.501 85.5004L135.5 69.5007V85.5004L127.501 101.501V85.5004Z"></path>
<path fill="#FFBF00" d="M130.501 68.5001L135.5 69.5007L127.501 85.5004L122.501 84.5004L130.501 68.5001Z"></path>
<path fill="#E3AA00" d="M97.5011 79.5005L102.501 80.5004L100.501 84.5004V96.1005L97.5011 95.5008V79.5005Z"></path>
<path fill="#FFBF00" d="M105.501 63.5008L108.683 64.1368L102.501 76.5V80.5004L97.5011 79.5005L105.501 63.5008Z"></path>
<path fill="#997300" d="M130.501 68.5001L132.501 64.5002V68.9003L130.501 68.5001Z"></path>
<path fill="#FFBF00" d="M112.501 60.5002L132.501 64.5002L130.501 68.5001V64.5002L112.319 60.8639L112.501 60.5002Z"></path>
<path fill="#E3AA00" d="M122.501 100.5V104.501L120.682 104.137L122.501 100.5Z"></path>
<path fill="#997300" d="M122.501 100.5L124.319 100.864L122.501 104.501V100.5Z"></path>
<path fill="#E3AA00" d="M130.501 90.5003L150.5 94.5002V110.5L130.501 106.5V90.5003Z"></path>
<path fill="#997300" d="M150.5 94.5002L152.5 90.5003V106.5L150.5 110.5V94.5002Z"></path>
<path fill="#FFBF00" d="M132.501 86.5003L152.5 90.5003L150.5 94.5002L130.501 90.5003L132.501 86.5003Z"></path>
<path fill="#E3AA00" d="M132.501 82.4998L152.5 86.4998V90.5003L132.501 86.5003V82.4998Z"></path>
<path fill="#997300" d="M152.5 86.4998L160.5 70.5001V74.5L152.5 90.5003V86.4998Z"></path>
<path fill="#FFBF00" d="M140.5 66.5001L160.5 70.5001L152.5 86.4998L132.501 82.4998L140.5 66.5001Z"></path>
<path fill="#E3AA00" d="M152.5 90.5003L157.5 91.5003V107.501L152.5 106.5V90.5003Z"></path>
<path fill="#997300" d="M157.5 91.5003L165.5 75.5006V91.5003L157.5 107.501V91.5003Z"></path>
<path fill="#FFBF00" d="M160.5 74.5L165.5 75.5006L157.5 91.5003L152.5 90.5003L160.5 74.5Z"></path>
<path fill="#E3AA00" d="M127.501 85.5004L132.501 86.5003L130.501 90.5003V102.1L127.501 101.501V85.5004Z"></path>
<path fill="#FFBF00" d="M135.5 69.5007L138.682 70.1367L132.501 82.4998V86.5003L127.501 85.5004L135.5 69.5007Z"></path>
<path fill="#997300" d="M160.5 74.5L162.5 70.5001V74.9002L160.5 74.5Z"></path>
<path fill="#FFBF00" d="M142.5 66.5001L162.5 70.5001L160.5 74.5V70.5001L142.319 66.8637L142.5 66.5001Z"></path>
<path fill="#E3AA00" d="M152.5 106.5V110.501L150.682 110.137L152.5 106.5Z"></path>
<path fill="#997300" d="M152.5 106.5L154.318 106.864L152.5 110.501V106.5Z"></path>
<path fill="#E3AA00" d="M160.5 96.5002L180.5 100.002V116.5L160.5 112.5V96.5002Z"></path>
<path fill="#997300" d="M180.5 100.002L182.5 96.5002V112.5L180.5 116.5V100.002Z"></path>
<path fill="#FFBF00" d="M162.5 92.5002L182.5 96.5002L180.5 100.002L160.5 96.5002L162.5 92.5002Z"></path>
<path fill="#E3AA00" d="M162.5 88.4998L182.5 92.4997V96.5002L162.5 92.5002V88.4998Z"></path>
<path fill="#997300" d="M182.5 92.4997L190.499 76.5V80.4999L182.5 96.5002V92.4997Z"></path>
<path fill="#FFBF00" d="M170.5 72.5L190.499 76.5L182.5 92.4997L162.5 88.4998L170.5 72.5Z"></path>
<path fill="#E3AA00" d="M182.5 96.5002L187.499 97.5002V113.501L182.5 112.5V96.5002Z"></path>
<path fill="#997300" d="M187.499 97.5002L195.499 81.5005V97.5002L187.499 113.501V97.5002Z"></path>
<path fill="#FFBF00" d="M190.499 80.4999L195.499 81.5005L187.499 97.5002L182.5 96.5002L190.499 80.4999Z"></path>
<path fill="#E3AA00" d="M157.5 91.5003L162.5 92.5002L160.5 96.5002V108.1L157.5 107.501V91.5003Z"></path>
<path fill="#FFBF00" d="M165.5 75.5006L168.682 76.1366L162.5 88.4998V92.5002L157.5 91.5003L165.5 75.5006Z"></path>
<path fill="#997300" d="M190.499 80.4999L192.499 76.5V80.9001L190.499 80.4999Z"></path>
<path fill="#FFBF00" d="M172.5 72.5L192.499 76.5L190.499 80.4999V76.5L172.318 72.8636L172.5 72.5Z"></path>
<path fill="#E3AA00" d="M182.5 112.5V116.5L180.681 116.137L182.5 112.5Z"></path>
<path fill="#997300" d="M182.5 112.5L184.318 112.864L182.5 116.5V112.5Z"></path>
<path fill="#E3AA00" d="M50.5 54.4978L70.4997 58.4978V74.4975L50.5 70.4976V54.4978Z"></path>
<path fill="#997300" d="M70.4997 58.4978L72.4997 54.4978V70.4975L70.4997 74.4975V58.4978Z"></path>
<path fill="#FFBF00" d="M52.5 50.4978L72.4997 54.4978L70.4997 58.4978L50.5 54.4978L52.5 50.4978Z"></path>
<path fill="#E3AA00" d="M52.5 46.4974L72.4997 50.4973V54.4978L52.5 50.4978V46.4974Z"></path>
<path fill="#997300" d="M72.4997 50.4973L80.4995 34.4976V38.4975L72.4997 54.4978V50.4973Z"></path>
<path fill="#FFBF00" d="M60.4999 30.4976L80.4995 34.4976L72.4997 50.4973L52.5 46.4974L60.4999 30.4976Z"></path>
<path fill="#E3AA00" d="M72.4997 54.4978L77.4996 55.4978V71.4981L72.4997 70.4975V54.4978Z"></path>
<path fill="#997300" d="M77.4996 55.4978L85.4994 39.4981V55.4978L77.4996 71.4981V55.4978Z"></path>
<path fill="#FFBF00" d="M80.4995 38.4975L85.4994 39.4981L77.4996 55.4978L72.4997 54.4978L80.4995 38.4975Z"></path>
<path fill="#E3AA00" d="M47.5001 49.4979L52.5 50.4978L50.5 54.4978V66.0979L47.5001 65.4982V49.4979Z"></path>
<path fill="#FFBF00" d="M55.5 33.4982L58.6816 34.1343L52.5 46.4974V50.4978L47.5001 49.4979L55.5 33.4982Z"></path>
<path fill="#997300" d="M80.4995 38.4975L82.4995 34.4976V38.8978L80.4995 38.4975Z"></path>
<path fill="#FFBF00" d="M62.4998 30.4976L82.4995 34.4976L80.4995 38.4975V34.4976L62.318 30.8613L62.4998 30.4976Z"></path>
<path fill="#E3AA00" d="M72.4997 70.4975V74.4981L70.6813 74.1344L72.4997 70.4975Z"></path>
<path fill="#997300" d="M72.4997 70.4975L72.5016 70.5001L72.4997 74.4981V70.4975Z"></path>
<path fill="#C73F00" d="M83.5014 59.4988L93.5012 61.4988L89.5013 69.4987L79.5015 67.4987L83.5014 59.4988Z"></path>
<path fill="#C73F00" d="M143.5 71.4986L153.5 73.4986L149.5 81.4984L139.5 79.4985L143.5 71.4986Z"></path>
<path fill="#B03800" d="M105.501 89.4983L115.501 91.4983V99.4982L105.501 97.4982V89.4983Z"></path>
<path fill="#B03800" d="M165.5 101.501L175.5 103.501V111.501L165.5 109.501V101.501Z"></path>
<path fill="#FF7B00" d="M85.0014 61.9987L90.0013 62.9988L88.0013 66.9987L83.0014 65.9987L85.0014 61.9987Z"></path>
<path fill="#FF7B00" d="M145 73.9985L150 74.9985L148 78.9984L143 77.9984L145 73.9985Z"></path>
<path fill="#CC6200" d="M108.001 91.9982L113.001 92.9982V96.9982L108.001 95.9982V91.9982Z"></path>
<path fill="#CC6200" d="M168 103.998L173 104.998V108.998L168 107.998V103.998Z"></path>
<path fill="#C73F00" d="M113.501 65.4986L123.501 67.4986L119.501 75.4985L109.501 73.4985L113.501 65.4986Z"></path>
<path fill="#FF7B00" d="M115.001 67.9986L120.001 68.9986L118.001 72.9985L113.001 71.9986L115.001 67.9986Z"></path>
<path fill="#C73F00" d="M173.5 77.5004L183.499 79.5021L179.499 87.5021L169.5 85.5004L173.5 77.5004Z"></path>
<path fill="#FF7B00" d="M175 80.0004L180 81.0021L177.999 85.0021L173 84.0004L175 80.0004Z"></path>
<path fill="#B03800" d="M75.5015 83.4983L85.5013 85.4983V93.4982L75.5015 91.4982V83.4983Z"></path>
<path fill="#CC6200" d="M78.0015 85.9983L83.0014 86.9983V90.9982L78.0015 89.9982V85.9983Z"></path>
<path fill="#B03800" d="M135.5 95.5008L145.5 97.5008V105.501L135.5 103.501V95.5008Z"></path>
<path fill="#CC6200" d="M138 98.0007L143 99.0008V103.001L138 102.001V98.0007Z"></path>
<path fill="#CC6200" d="M78.0015 96.0002L83.0014 97.0002V103L78.0015 102V96.0002Z"></path>
<path fill="#B03800" d="M83.0014 97.0002L85.0017 97.4002V98.9997L83.0014 103V97.0002Z"></path>
<path fill="#CE0377" d="M78.0015 102L83.0014 103L85.0017 98.9997V97.4002L88.2287 98.0456L84.5014 105.5L74.5015 103.5L78.0017 96.4997L78.0015 102Z"></path>
<path fill="#9F015A" d="M74.5015 103.5L84.5014 105.5V108L74.5015 106V103.5Z"></path>
<path fill="#9F015A" d="M84.5014 105.5L88.2287 98.0456L88.5017 98.1002V99.9996L84.5014 108V105.5Z"></path>
<path fill="#9F015A" d="M74.5015 106L84.5014 108V114.5L67.0015 111V104.502L74.5015 106Z"></path>
<path fill="#9F015A" d="M84.5014 108L88.5017 99.9996V106.5L84.5014 114.5V108Z"></path>
<path fill="#CC6200" d="M108.002 102L113.002 103V109L108.002 108V102Z"></path>
<path fill="#B03800" d="M113.002 103L115.002 103.4V105L113.002 109V103Z"></path>
<path fill="#CE0377" d="M108.002 108L113.002 109L115.002 105V103.4L118.229 104.046L114.502 111.5L104.502 109.5L108.002 102.5L108.002 108Z"></path>
<path fill="#9F015A" d="M104.502 109.5L114.502 111.5V114L104.502 112V109.5Z"></path>
<path fill="#9F015A" d="M114.502 111.5L118.229 104.046L118.502 104.1V106L114.502 114V111.5Z"></path>
<path fill="#9F015A" d="M104.502 112L114.502 114V120.5L97.0017 117V110.502L104.502 112Z"></path>
<path fill="#9F015A" d="M114.502 114L118.502 106V112.5L114.502 120.5V114Z"></path>
<path fill="#CC6200" d="M138.002 108L143.002 109V115L138.002 114V108Z"></path>
<path fill="#B03800" d="M143.002 109L145.002 109.4V111L143.002 115V109Z"></path>
<path fill="#CE0377" d="M138.002 114L143.002 115L145.002 111V109.4L148.229 110.046L144.502 117.5L134.502 115.5L138.002 108.5L138.002 114Z"></path>
<path fill="#9F015A" d="M134.502 115.5L144.502 117.5V120L134.502 118V115.5Z"></path>
<path fill="#9F015A" d="M144.502 117.5L148.229 110.046L148.502 110.1V112L144.502 120V117.5Z"></path>
<path fill="#9F015A" d="M134.502 118L144.502 120V126.5L127.002 123V116.502L134.502 118Z"></path>
<path fill="#9F015A" d="M144.502 120L148.502 112V118.5L144.502 126.5V120Z"></path>
<path fill="#CC6200" d="M168.002 114L173.002 115V121L168.002 120V114Z"></path>
<path fill="#B03800" d="M173.002 115L175.002 115.4V117L173.002 121V115Z"></path>
<path fill="#CE0377" d="M168.002 120L173.002 121L175.002 117V115.4L178.229 116.046L174.502 123.5L164.502 121.5L168.002 114.5L168.002 120Z"></path>
<path fill="#9F015A" d="M164.502 121.5L174.502 123.5V126L164.502 124V121.5Z"></path>
<path fill="#9F015A" d="M174.502 123.5L178.229 116.046L178.502 116.1V118L174.502 126V123.5Z"></path>
<path fill="#9F015A" d="M164.502 124L174.502 126V132.5L157.002 129V122.502L164.502 124Z"></path>
<path fill="#9F015A" d="M174.502 126L178.502 118V124.5L174.502 132.5V126Z"></path>
<path fill="#CDCDCD" d="M52.4991 27L59.999 28.5V30.5003L52.4991 28.9997V27Z"></path>
<path fill="#1E0E0D" d="M59.999 28.5L62.9988 22.5003L59.999 30.5003V28.5Z"></path>
<path fill="white" d="M55.4989 20.9997L62.9988 22.5003L59.999 28.5L52.4991 27L55.4989 20.9997Z"></path>
<path fill="#3B230F" d="M62.9988 22.5003L70.4988 24.0003V26.0005L62.9988 22.5003Z"></path>
<path fill="#7E7E7E" d="M70.4988 24.0003L73.4986 18.0006V20.0003L70.4988 26.0005V24.0003Z"></path>
<path fill="white" d="M65.9987 16.5L73.4986 18.0006L70.4988 24.0003L62.9988 22.5003L65.9987 16.5Z"></path>
<path fill="#3B230F" d="M59.999 28.5L67.4989 30.0005V32.0008L59.999 30.5003V28.5Z"></path>
<path fill="#1E0E0D" d="M67.4989 30.0005L70.4988 24.0003V26.0005L67.4989 32.0008V30.0005Z"></path>
<path fill="#FFBF00" d="M62.9988 22.5003L70.4988 24.0003L67.4989 30.0005L59.999 28.5L62.9988 22.5003Z"></path>
<path fill="#CDCDCD" d="M56.9991 34.5009L64.4991 36.0008V38.0011L56.9991 36.5005V34.5009Z"></path>
<path fill="#7E7E7E" d="M64.4991 36.0008L67.4989 30.0005V32.0008L64.4991 38.0011V36.0008Z"></path>
<path fill="white" d="M59.999 28.5L67.4989 30.0005L64.4991 36.0008L56.9991 34.5009L59.999 28.5Z"></path>
<path fill="#CDCDCD" d="M67.4989 30.0005L74.9988 31.5011V33.5014L67.4989 32.0008V30.0005Z"></path>
<path fill="#7E7E7E" d="M74.9988 31.5011L77.9987 25.5014V27.5011L74.9988 33.5014V31.5011Z"></path>
<path fill="white" d="M70.4988 24.0003L77.9987 25.5014L74.9988 31.5011L67.4989 30.0005L70.4988 24.0003Z"></path>
<path fill="#00FF00" d="M63.4991 37.801L64.4991 38.0011L65.9987 35.0015L65.999 41.5L63.4991 40.9994V37.801Z"></path>
<path fill="#008000" d="M65.9987 35.0015L66.9988 33.001V39.4997L65.999 41.5L65.9987 35.0015Z"></path>
<path fill="#CE0377" d="M77.3642 97.7746L74.5015 103.5V106L66.9991 104.502L70.9993 96.5016L77.3642 97.7746Z"></path>
<path fill="#CE0377" d="M107.364 103.775L104.502 109.5V112L96.9992 110.502L100.999 102.502L107.364 103.775Z"></path>
<path fill="#CE0377" d="M137.364 109.775L134.502 115.5V118L126.999 116.502L130.999 108.502L137.364 109.775Z"></path>
<path fill="#CE0377" d="M167.364 115.775L164.502 121.5V124L156.999 122.502L160.999 114.502L167.364 115.775Z"></path>
<path fill="#3B230F" d="M39.5029 50.4979L47.5001 52.0974V58.0975L39.5029 56.4976V50.4979Z"></path>
<path fill="#805538" d="M43.5028 42.4976L50.3185 43.8612L47.5001 49.4979V52.0974L39.5029 50.4979L43.5028 42.4976Z"></path>
</svg>
