<svg xmlns="http://www.w3.org/2000/svg" fill="none" viewBox="0 0 200 200" height="200" width="200">
<path fill="#953855" d="M6 77L91.0001 94V110L6 93V77Z"></path>
<path fill="#928F96" d="M6 57L91.0001 74V94L6 77V57Z"></path>
<path fill="#9397B4" d="M6 53L91.0001 70V74L6 57V53Z"></path>
<path fill="#9397B4" d="M91.0001 70L109 34V38L91.0001 74V70Z"></path>
<path fill="#54203C" d="M91.0001 94L93.0001 90V106L91.0001 110V94Z"></path>
<path fill="#565469" d="M91.0001 74L109 38L107 50L93.0001 78V90L91.0001 94V74Z"></path>
<path fill="#54203C" d="M107 62L109 58V74L105 82L107 62Z"></path>
<path fill="#565469" d="M107 50L109 38V58L107 62V50Z"></path>
<path fill="#564D6A" d="M93.0001 78L107 50L105 82L93.0001 106V78Z"></path>
<path fill="white" d="M24 17L109 34L91.0001 70L6 53L24 17Z"></path>
<path fill="#2F283A" d="M67.9998 105.4L83.0001 108.4V112L68.0001 109L67.9998 105.4Z"></path>
<path fill="#1A1728" d="M83.0001 108.4L84.6355 108.727L83.0001 112V108.4Z"></path>
<path fill="#2F283A" d="M12.9998 94.3999L28.0001 97.3999V101L13.0001 97.9999L12.9998 94.3999Z"></path>
<path fill="#1A1728" d="M28.0001 97.3999L29.6355 97.727L28.0001 101V97.3999Z"></path>
<path fill="#6A668B" d="M6 89L11 90V94L6 93V89Z"></path>
<path fill="#8F233B" d="M6 81L11 82V90L6 89V81Z"></path>
<path fill="#9397B4" d="M93.0001 78L113 82V94L123 96V104L93.0001 98V78Z"></path>
<path fill="#953855" d="M93.0001 98L123 104V112L93.0001 106V98Z"></path>
<path fill="white" d="M107 50L127 54L113 82L93.0001 78L107 50Z"></path>
<path fill="white" d="M127 66L137 68L123 96L113 94L127 66Z"></path>
<path fill="#56587E" d="M127 54L127 66L113 94V82L127 54Z"></path>
<path fill="#56587E" d="M137 68L137 76L123 104V96L137 68Z"></path>
<path fill="#403A5E" d="M137 80L137 84L123 112V108L137 80Z"></path>
<path fill="#494874" d="M133 84L133 88.0001L127 100V96L133 84Z"></path>
<path fill="#505887" d="M127 96V100L125 104V100L127 96Z"></path>
<path fill="#505887" d="M135 80.0001V84.0001L133 88.0001L133 84L135 80.0001Z"></path>
<path fill="#54203C" d="M137 76L137 80L135 84.0001V80.0001L137 76Z"></path>
<path fill="#54203C" d="M125 100V104L123 108V104L125 100Z"></path>
<path fill="#275471" d="M127 58L127 66L113 94V86L127 58Z"></path>
<path fill="#438F9F" d="M113 86V94L97.9989 91V83L113 86Z"></path>
<path fill="#6A668B" d="M118 107L123 108V112L118 111V107Z"></path>
<path fill="#7E7BA6" d="M107.999 109L112.999 110V114L107.999 113V109Z"></path>
<path fill="#2F283A" d="M102.999 108L107.999 109V113L112.999 114V110L118 111L117.999 119L102.999 116L102.999 108Z"></path>
<path fill="#191828" d="M118 111L121.635 111.727L117.999 119L118 111Z"></path>
</svg>
