<svg xmlns="http://www.w3.org/2000/svg" fill="none" viewBox="0 0 480 360" height="360" width="480">
<path stroke-width="2" stroke="white" fill="#56C6F8" d="M12.0667 93.1H13.0667V92.1V91H366.933V92.1V93.1H367.933H369V296.9H367.933H366.933V297.9V299H13.0667V297.9V296.9H12.0667H11V93.1H12.0667Z"></path>
<path stroke-width="2" stroke="white" fill="#56C6F8" d="M172 187H171V103H172H173V102V101H257V102V103H258H259V187H258H257V188V189H173V188V187H172Z"></path>
<path stroke-width="2" stroke="white" fill="#56C6F8" d="M22 287H21V203H22H23V202V201H207V202V203H208H209V287H208H207V288V289H23V288V287H22Z"></path>
<path fill="#4A5060" d="M37.5 248L62.5 253L72.5 233V232.5L47.5 227.5L38 246.5L37.5 247.5V248Z"></path>
<path fill="#2A2C3B" d="M62.5 254.5L72.5 234.5V232.5L62.5 252.5L37.5 247.5V249.5L62.5 254.5Z"></path>
<path fill="#3C2128" d="M60 250L62.5 250.5V252.5L60 252V250Z"></path>
<path fill="#6C3E40" d="M60 250L62.5 250.5L72.5 230.5L70 230L60 250Z"></path>
<path fill="#21141B" d="M72.5 230.5L62.5 250.5V252.5L72.5 232.5V230.5Z"></path>
<path fill="#4F4B6C" d="M38.5 241.5L63.5 246.5L64.5 244.5V246.5L63.5 248.5L38.5 243.5V241.5Z"></path>
<path fill="#8B87AA" d="M38.5 241.5L63.5 246.5L64.5 244.5L39.5 239.5L38.5 241.5Z"></path>
<path fill="#4F4B6C" d="M45.5 227.5L70.5 232.5L71.5 230.5V232.5L70.5 234.5L45.5 229.5V227.5Z"></path>
<path fill="#8B87AA" d="M45.5 227.5L70.5 232.5L71.5 230.5L46.5 225.5L45.5 227.5Z"></path>
<path fill="#100E14" d="M182.498 257.5L181.498 259.5V261.5L182.498 259.5V257.5Z"></path>
<path fill="#100E14" d="M172.498 255.5L171.498 257.5V259.5L172.498 257.5V255.5Z"></path>
<path fill="#100E14" d="M110 243L109 245V247L110 245V243Z"></path>
<path fill="#100E14" d="M100 241L99.0002 243V245L100 243V241Z"></path>
<path fill="black" d="M91.5002 239.5L186.498 258.5L194.498 242.5V244.5L186.498 260.5L91.5002 241.5V239.5Z"></path>
<path fill="#1A191E" d="M178.998 259L181.498 259.5V261.5L178.998 261V259Z"></path>
<path fill="#1A191E" d="M168.998 257L171.498 257.5V259.5L168.998 259V257Z"></path>
<path fill="#1A191E" d="M106.5 244.5L109 245V247L106.5 246.5V244.5Z"></path>
<path fill="#1A191E" d="M96.5 242.5L99 243V245L96.5 244.5V242.5Z"></path>
<path fill="#3572CB" d="M91.5 223.5L186.498 242.5V256.5L91.5 237.5V223.5Z"></path>
<path fill="#898FCB" d="M128.998 231L148.998 235V249L128.998 245V231Z"></path>
<path fill="#417FCA" d="M158.998 237L166.498 238.5V252.5L158.998 251V237Z"></path>
<path fill="#417FCA" d="M148.998 235L156.498 236.5V250.5L148.998 249V247V235Z"></path>
<path fill="#417FCA" d="M121.501 229.5L129.001 231V243L148.998 247V249L121.501 243.5V229.5Z"></path>
<path fill="#417FCA" d="M111.501 227.5L119.001 229V243L111.501 241.5V227.5Z"></path>
<path fill="#2C95FF" d="M91.5002 223.5L186.498 242.5L194.498 226.5L99.5002 207.5L99.3723 207.674L98.5002 207.5L92.5002 219.5V221.5L91.5002 223.5Z"></path>
<path fill="#1954A0" d="M178.998 241L186.498 242.5V256.5L178.998 255V241Z"></path>
<path fill="#1954A0" d="M92.5009 219.5L187.498 238.5V240.5L92.5009 221.5V219.5Z"></path>
<path fill="#1954A0" d="M91.5 223.5L99 225V239L91.5 237.5V223.5Z"></path>
<path fill="#0E3270" d="M186.499 242.5L187.499 240.5V238.5L193.499 226.5V228.5L194.499 226.5V240.5L193.499 242.5L187.499 254.5L186.499 256.5V242.5Z"></path>
<path fill="black" d="M166.498 240.5L173.998 242V246L166.498 244.5V240.5Z"></path>
<path fill="black" d="M181.498 243.5L186.5 244.5L194.498 228.5V232.5L186.5 248.5L181.498 247.5V243.5Z"></path>
<path fill="black" d="M151.498 237.5L163.998 240V244L151.498 241.5V237.5Z"></path>
<path fill="black" d="M143.998 236L148.998 237V241L143.998 240V236Z"></path>
<path fill="black" d="M128.998 233L133.998 234V238L128.998 237V233Z"></path>
<path fill="black" d="M136.498 234.5L141.498 235.5V239.5L136.498 238.5V234.5Z"></path>
<path fill="black" d="M114.001 230L126.501 232.5V236.5L114.001 234V230Z"></path>
<path fill="black" d="M104.001 228L111.501 229.5V233.5L104.001 232V228Z"></path>
<path fill="black" d="M94 226L96.5 226.5V230.5L94 230V226Z"></path>
<path fill="#A4BBFF" d="M174.998 225L189.998 228L185.998 236L170.998 233L174.998 225Z"></path>
<path fill="#A4BBFF" d="M157.501 219.5L174.998 223L170.998 231L153.501 227.5L157.501 219.5Z"></path>
<path fill="#A4BBFF" d="M174.998 223V225L170.998 233V231L174.998 223Z"></path>
<path fill="#A4BBFF" d="M132.501 216.5L157.501 221.5L153.501 229.5L128.501 224.5L132.501 216.5Z"></path>
<path fill="#A4BBFF" d="M115.001 211L132.501 214.5L128.501 222.5L111.001 219L115.001 211Z"></path>
<path fill="#A4BBFF" d="M100.001 210L115.001 213L111.001 221L96.0007 218L100.001 210Z"></path>
<path fill="#363D74" d="M194.498 240.5L186.498 256.5V258.5L194.498 242.5V240.5Z"></path>
<path fill="#363D74" d="M186.498 227.5L184.498 231.5V233.5L186.498 229.5V227.5Z"></path>
<path fill="#363D74" d="M174.998 223L170.998 231V233L174.998 225V223Z"></path>
<path fill="#363D74" d="M132.501 214.5L128.501 222.5V224.5L132.501 216.5V214.5Z"></path>
<path fill="#363D74" d="M110.5 212.5L108.5 216.5V218.5L110.5 214.5V212.5Z"></path>
<path fill="#5B69A6" d="M91.5002 237.5L186.498 256.5V258.5L91.5002 239.5V237.5Z"></path>
<path fill="#5B69A6" d="M153.501 227.5L170.998 231V233L153.501 229.5V227.5Z"></path>
<path fill="#5B69A6" d="M179.498 230.5L184.498 231.5V233.5L179.498 232.5V230.5Z"></path>
<path fill="#5B69A6" d="M111.001 219L128.498 222.5V224.5L111.001 221V219Z"></path>
<path fill="#5B69A6" d="M103.5 215.5L108.497 216.5V218.5L103.5 217.5V215.5Z"></path>
<path fill="#95875A" d="M148.998 247L166.498 250.5V252.5L148.998 249V247Z"></path>
<path fill="#95875A" d="M111.501 239.5L129.001 243V245L111.501 241.5V239.5Z"></path>
<path fill="#101012" d="M175.998 228L176.998 226V230L175.998 232V228Z"></path>
<path fill="#101012" d="M178.998 222L179.998 220V224L178.998 226V222Z"></path>
<path fill="#101012" d="M181.998 227L183.998 223V227L181.998 231V227Z"></path>
<path fill="#101012" d="M108.5 218.5L110.5 214.5V216.5L108.5 220.5V218.5Z"></path>
<path fill="#1A191E" d="M173.498 227.5L175.998 228V232L173.498 231.5V227.5Z"></path>
<path fill="#1A191E" d="M176.998 226L181.998 227V231L179.498 230.5V228.5L176.998 228V226Z"></path>
<path fill="#1A191E" d="M103.5 217.5L108.5 218.5V220.5L103.5 219.5V217.5Z"></path>
<path fill="#2F2F31" d="M173.498 227.5L177.498 219.5L179.998 220L178.998 222L183.998 223L181.998 227L176.998 226L175.998 228L173.498 227.5Z"></path>
<path fill="#77E3FF" d="M149.998 233.001L167.498 236.501L166.498 238.501L148.998 235.001L149.998 233.001Z"></path>
<path fill="#77E3FF" d="M112.499 225.5L129.999 229L128.999 231L111.499 227.5L112.499 225.5Z"></path>
<path fill="#62CCFF" d="M167.498 236.501L179.999 239.001L178.999 241.001L166.498 238.501L167.498 236.501Z"></path>
<path fill="#62CCFF" d="M157.498 234.501L159.998 235.001L158.998 237.001L156.498 236.501L157.498 234.501Z"></path>
<path fill="#62CCFF" d="M120.001 227.001L122.501 227.501L121.501 229.501L119.001 229.001L120.001 227.001Z"></path>
<path fill="#62CCFF" d="M100.001 223L112.501 225.5L111.501 227.5L99.001 225L100.001 223Z"></path>
<path fill="#F9FFFF" d="M130.001 229L150.001 233L149.001 235L129.001 231L130.001 229Z"></path>
<path fill="#95875A" d="M90 221L92.5 221.5L91.5 223.5V237.3L90 237V221Z"></path>
<path fill="#FFF38F" d="M90 221L92.5 221.5V219.5L97.5931 209.319L96 209L90 221Z"></path>
<path fill="#898FCB" d="M181.5 247.5L186.5 248.5V250.5L184 250V252L186.5 252.5V254.5L181.5 253.5V247.5Z"></path>
<path fill="#4D568F" d="M187.5 246.5L186.5 248.5V250.5L187.5 248.5V250.5L186.5 252.5V254.5L194.5 238.5V236.5L193.5 238.5V236.5L194.5 234.5V232.5L193.5 234.5V236.5L187.5 248.5V246.5Z"></path>
<path fill="white" d="M134 273V272H135H136V275H138V272H140V276H139V277H138V280H136V277H135V276H134V273Z"></path>
<path fill="white" d="M126 280L124 280L124 279L123 279L123 278L122 278L122 279L121 279L121 280L119 280L119 272L121 272L121 276L122 276L122 275L123 275L123 276L124 276L124 272L126 272L126 280Z"></path>
<path fill="white" d="M112 273V272H113H114V274V278H118V280H113V279H112V274V273Z"></path>
<path fill="white" d="M105 273V272H106H111V274H109V278H111V280H105V278H107V274H105V273Z"></path>
<path fill="white" d="M98 273H99V272H103V273H104V280H102V274H100V275H102V277H100V278V280H99H98V279V273Z"></path>
<path fill="white" d="M127 273H128V272H132V273H133V280H131V274H129V275H131V277H129V278V280H128H127V279V273Z"></path>
<path fill="white" d="M91 272H96V273H97V276H96V277H97V280H95V278H94V277H93V275H95V274H93V275V277V280H91V272Z"></path>
<path stroke-width="2" stroke="white" fill="#56C6F8" d="M22 187H21V103H22H23V102V101H157V102V103H158H159V187H158H157V188V189H23V188V187H22Z"></path>
<path fill="#6F3F55" d="M67.5 154.5L77.5 134.5V132.5L67.5 152.5L42.5 147.5V149.5L67.5 154.5Z"></path>
<path fill="#627C3F" d="M67.5 153L77.5 133V131L52.5 126L42.5 146V148L67.5 153Z"></path>
<path fill="#ABDD62" d="M67.5 151L77.5 131V130.5L52.5 125.5L42.5 145.5V146L67.5 151Z"></path>
<path fill="#49282F" d="M113 147.7L124.5 150L123 149.7V153.5L113 151.5V147.7Z"></path>
<path fill="#28151B" d="M124.5 150L127 145V145.5L123 153.5V149.7L124.5 150Z"></path>
<path fill="#65761A" d="M109.5 127L124.5 130V150L109.5 147V127Z"></path>
<path fill="#3A4410" d="M124.5 130L130.5 118V138L124.5 150V130Z"></path>
<path fill="#A3C121" d="M115.5 115L130.5 118L124.5 130L109.5 127L115.5 115Z"></path>
<path fill="#5D6D15" d="M109.5 145L124.5 148L124.5 150L109.5 147L109.5 145Z"></path>
<path fill="#333D0B" d="M130.5 136L124.5 148L124.5 150L130.5 138L130.5 136Z"></path>
<path fill="#5D6D15" d="M109.5 139L124.5 142L124.5 144L109.5 141L109.5 139Z"></path>
<path fill="#333D0B" d="M130.5 130L124.5 142L124.5 144L130.5 132L130.5 130Z"></path>
<path fill="#5D6D15" d="M109.5 133L124.5 136L124.5 138L109.5 135L109.5 133Z"></path>
<path fill="#333D0B" d="M130.5 124L124.5 136L124.5 138L130.5 126L130.5 124Z"></path>
<path fill="#5D6D15" d="M109.5 127L124.5 130L124.5 132L109.5 129L109.5 127Z"></path>
<path fill="#333D0B" d="M130.5 118L124.5 130L124.5 132L130.5 120L130.5 118Z"></path>
<path fill="#635D81" d="M76 141.5L93.5 145V153L76 149.5V141.5Z"></path>
<path fill="#635D81" d="M79.5 138L97 141.5V151.5L94.5 151V143L79.5 140V138Z"></path>
<path fill="#635D81" d="M81.5 132L96.5 135V137L81.5 134V132Z"></path>
<path fill="#B5A6CD" d="M84 125.5L85.5909 125.818L86.5 124L104 127.5L98 139.5L96.5 137L99.5 131V129L96.5 135L81.5 132V134L96.5 137L98 139.5L97 141.5L79.5 138V140L94.5 143L93.5 145L76 141.5L84 125.5Z"></path>
<path fill="#3A3659" d="M96.5 135L99.5 129V131L96.5 137V135Z"></path>
<path fill="#3A3659" d="M97 141.5L104 127.5V137.5L97 151.5V141.5Z"></path>
<path fill="#3A3659" d="M93.5 145L94.5 143V151L93.5 153V145Z"></path>
<path fill="white" d="M94 172H95V171H100V173H96V174H99V175H100V178H99V179H94V177H98V176H95V175H94V172Z"></path>
<path fill="white" d="M101 172H102V171H107V173H103V174H106V175H107V178H106V179H101V177H105V176H102V175H101V172Z"></path>
<path fill="white" d="M73 172H74V171H79V173H75V174V176V177H77V176H76V174H79V178V179H78H74V178H73V172Z"></path>
<path fill="white" d="M87 172H88V171H92V172H93V179H91V173H89V174H91V176H89V177V179H88H87V178V172Z"></path>
<path fill="white" d="M80 171H85V172H86V175H85V176H86V179H84V177H83V176H82V174H84V173H82V174V176V179H80V171Z"></path>
<path stroke-width="2" stroke="white" fill="#56C6F8" d="M222 287H221V203H222H223V202V201H357V202V203H358H359V287H358H357V288V289H223V288V287H222Z"></path>
<path fill="#4A31A7" d="M296 236.5L303 222.5L340.5 230V236L333.5 250L296 242.5V236.5Z"></path>
<path fill="#5247C7" d="M296 236.5L333.5 244V248L316 244.5L317.5 244.8V243L312.5 242V243.8L316 244.5L296 240.5V236.5Z"></path>
<path fill="#48578E" d="M334.5 244L335.5 242V244L334.5 246V244Z"></path>
<path fill="#48578E" d="M338.5 236L339.5 234V236L338.5 238V236Z"></path>
<path fill="#55588F" d="M322 233.5L327 223.5V229.5L326 231.5V227.5L323 233.5V237.5L322 239.5V233.5Z"></path>
<path fill="#F9FFFF" d="M307 219.5L327 223.5L322 233.5L302 229.5L307 219.5Z"></path>
<path fill="#000100" d="M323 233.5L326 227.5V231.5L323 237.5V233.5Z"></path>
<path fill="#000100" d="M319.5 239V235L309.5 233V237L319.5 239Z"></path>
<path fill="#000100" d="M321 245.5L328.5 247V251H329.5L328.5 253L321 251.5V245.5Z"></path>
<path fill="#000100" d="M298.5 241L306 242.5V246.5H307L306 248.5L298.5 247V241Z"></path>
<path fill="#181319" d="M307 236.5V232.5L304.5 232V236L307 236.5Z"></path>
<path fill="#4B4575" d="M296 242.5L298.5 243V245L296 244.5V242.5Z"></path>
<path fill="#4B4575" d="M306 244.5L321 247.5V249.5L306 246.5V244.5Z"></path>
<path fill="#4B4575" d="M328.5 249L333.5 250V252L328.5 251V249Z"></path>
<path fill="#2A1E74" d="M335.5 244L338.5 238L340.5 234V236L333.5 250V248L335.5 244Z"></path>
<path fill="#2A1E74" d="M335.5 240L338.5 234V236L335.5 242V240Z"></path>
<path fill="#2F298B" d="M335.5 240V242L334.5 244V246L333.5 248V244L335.5 240Z"></path>
<path fill="#2F298B" d="M340.5 230V234L339.5 236V234L338.5 236V234L340.5 230Z"></path>
<path fill="#25176E" d="M335.5 242L338.5 236V238L335.5 244V242Z"></path>
<path fill="#25176E" d="M317.5 243L318.5 241V243L317.5 245V243Z"></path>
<path fill="#2D294E" d="M333.5 250L340.5 236V238L333.5 252V250Z"></path>
<path fill="#947FFF" d="M327 227.3L340.5 230L333.5 244L321 241.5L327 229.5V227.3Z"></path>
<path fill="#947FFF" d="M300.5 233L302 230V235.5L322 239.5L321 241.5L296 236.5L298 232.5L300.5 233Z"></path>
<path fill="#947FFF" d="M305.273 222.955L303.75 226L303.273 226.955L301 226.5L303 222.5L305.273 222.955Z"></path>
<path fill="#8658FF" d="M326 231.5L338.5 234L335.5 240L323 237.5L326 231.5Z"></path>
<path fill="#8658FF" d="M301 226.5L303.273 226.955L302 229.5L303 233.5L298 232.5L301 226.5Z"></path>
<path fill="#8658FF" d="M313.5 240L318.5 241L317.5 243L312.5 242L313.5 240Z"></path>
<path fill="#879DD4" d="M301 243.5L303.5 244V246L301 245.5V243.5Z"></path>
<path fill="#879DD4" d="M323.5 248L326 248.5V250.5L323.5 250V248Z"></path>
<path fill="#8C95CE" d="M302 229.5L322 233.5V239.5L319.5 239V235L309.5 233V237L307 236.5V232.5L304.5 232V236L302 235.5V229.5Z"></path>
<path fill="white" d="M291 273H292V272H296V273H297V280H295V274H293V275H295V277H293V278V280H292H291V279V273Z"></path>
<path fill="white" d="M284 273H285V272H289V273H290V274H288H286V278H288V274H290V279H289V280H285V279H284V273Z"></path>
<path fill="white" d="M277 272H282V273H283V276H282V277H283V280H281V278H280V277H279V275H281V274H279V275V277V280H277V272Z"></path>
<path fill="white" d="M298 273V272H299H303V273H304V274H302H300V278H302V274H304V279H303V280H299H298V279V273Z"></path>
<path fill="#4A5060" d="M240.5 248L265.5 253L275.5 233V232.5L250.5 227.5L241 246.5L240.5 247.5V248Z"></path>
<path fill="#2A2C3B" d="M265.5 254.5L275.5 234.5V232.5L265.5 252.5L240.5 247.5V249.5L265.5 254.5Z"></path>
<path fill="#7F4D4E" d="M235.5 136.5L239.5 128.5L194.5 119.5L190.5 127.5L235.5 136.5Z"></path>
<path fill="#743C3B" d="M236 130L237 128L232 127L231 129L236 130Z"></path>
<path fill="#743C3B" d="M231.5 133.5L232.5 131.5L225 130L224 132L231.5 133.5Z"></path>
<path fill="#743C3B" d="M211 125L212 123L204.5 121.5L203.5 123.5L211 125Z"></path>
<path fill="#743C3B" d="M206.5 128.5L207.5 126.5L200 125L199 127L206.5 128.5Z"></path>
<path fill="#743C3B" d="M211.5 129.5L212.5 127.5L210 127L209 129L211.5 129.5Z"></path>
<path fill="#743C3B" d="M218 133L220 129L222.5 129.5L223.5 127.5L218.5 126.5L217.5 128.5L215 128L214 130L211.5 129.5L210.5 131.5L218 133Z"></path>
<path fill="#743C3B" d="M201 123L202 121L197 120L196 122L201 123Z"></path>
<path fill="#743C3B" d="M197.5 124.5L198.5 122.5L196 122L195 124L197.5 124.5Z"></path>
<path fill="#472A2F" d="M235.5 136.5V140.5L190.5 131.5V127.5L235.5 136.5Z"></path>
<path fill="#966964" d="M235.5 136.5L239.5 128.5L237 128L233 136L235.5 136.5Z"></path>
<path fill="#966964" d="M193 128L197 120L194.5 119.5L190.5 127.5L193 128Z"></path>
<path fill="#2F222B" d="M235.5 136.5L239.5 128.5V132.5L238.5 134.5V132.5L236.5 136.5V138.5L235.5 140.5V136.5Z"></path>
<path fill="#533A3E" d="M235.5 136.5V140.5L233 140V136L235.5 136.5Z"></path>
<path fill="#533A3E" d="M193 128V132L190.5 131.5V127.5L193 128Z"></path>
<path fill="#533A3E" d="M238.5 132.5V134.5L237.591 134.318L238.5 132.5Z"></path>
<path fill="#402126" d="M218 135V133L210.5 131.5V133.5L218 135Z"></path>
<path fill="#402126" d="M208 135V133L200.5 131.5V133.5L208 135Z"></path>
<path fill="#402126" d="M230.5 139.5V137.5L225.5 136.5V138.5L230.5 139.5Z"></path>
<path fill="#402126" d="M223 138V136L220.5 135.5V137.5L223 138Z"></path>
<path fill="white" d="M202 161H203V160H208V162H204V163H206V165H204V166H208V168H203V167H202V161Z"></path>
<path fill="white" d="M209 160H214V161H215V164H214V165H215V168H213V166H212V165H211V163H213V162H211V163V165V168H209V160Z"></path>
<path fill="white" d="M195 161V160H196H201V162H199V166V168H197V166V162H195V161Z"></path>
<path fill="white" d="M188 161H189V160H193V161H194V168H192V162H190V163H192V165H190V166V168H189H188V167V161Z"></path>
<path fill="white" d="M187 168L185 168L185 167L184 167L184 166L183 166L183 167L182 167L182 168L180 168L180 160L182 160L182 164L183 164L183 163L184 163L184 164L185 164L185 160L187 160L187 168Z"></path>
<path fill="white" d="M209 180L207 180L207 179L206 179L206 178L205 178L205 179L204 179L204 180L202 180L202 172L204 172L204 176L205 176L205 175L206 175L206 176L207 176L207 172L209 172L209 180Z"></path>
<path fill="white" d="M230 168L228 168L228 167L227 167L227 166L226 166L226 167L225 167L225 168L223 168L223 160L225 160L225 164L226 164L226 163L227 163L227 164L228 164L228 160L230 160L230 168Z"></path>
<path fill="white" d="M231 161V160H232H237V162H235V166H237V168H231V166H233V162H231V161Z"></path>
<path fill="white" d="M250 160L251 160L251 161L251 168L249 168L249 165L247 165L247 168L245 168L245 160L247 160L247 163L249 163L249 160L250 160Z"></path>
<path fill="white" d="M238 161V160H239H244V162H242V166V168H240V166V162H238V161Z"></path>
<path fill="white" d="M210 173H211V172H215V173H216V174H214H212V178H214V174H216V179H215V180H211V179H210V173Z"></path>
<path fill="white" d="M217 173H218V172H222V173H223V174H221H219V178H221V174H223V179H222V180H218V179H217V173Z"></path>
<path fill="white" d="M224 173V172H225H229V173H230V174H228H226V178H228V174H230V179H229V180H225H224V179V173Z"></path>
<path stroke-width="2" stroke="white" fill="#56C6F8" d="M272 187H271V103H272H273V102V101H357V102V103H358H359V187H358H357V188V189H273V188V187H272Z"></path>
<path fill="#20BE73" d="M311.5 131.5L309 131L312 125L322 127L318 135L310.5 133.5L311.5 131.5Z"></path>
<path fill="#18955D" d="M310.5 135.5V133.5L318 135V137L310.5 135.5Z"></path>
<path fill="#0B533B" d="M318 137V135L322 127V129L318 137Z"></path>
<path fill="#18955D" d="M310 129L311 127L318.5 128.5L315.5 134.5L313 134L315 130L310 129Z"></path>
<path fill="#18955D" d="M309 133V131L311.5 131.5L310.591 133.318L309 133Z"></path>
<path fill="white" d="M301 162H302V161H307V163H303V164H305V166H303V167H307V169H302V168H301V162Z"></path>
<path fill="white" d="M308 161H313V162H314V165H313V166H314V169H312V167H311V166H310V164H312V163H310V164V166V169H308V161Z"></path>
<path fill="white" d="M294 162V161H295H300V163H298V167V169H296V167V163H294V162Z"></path>
<path fill="white" d="M287 162H288V161H292V162H293V169H291V163H289V164H291V166H289V167V169H288H287V168V162Z"></path>
<path fill="white" d="M322 172H323V171H327V172H328V179H326V173H324V174H326V176H324V177V179H323H322V178V172Z"></path>
<path fill="white" d="M286 169L284 169L284 168L283 168L283 167L282 167L282 168L281 168L281 169L279 169L279 161L281 161L281 165L282 165L282 164L283 164L283 165L284 165L284 161L286 161L286 169Z"></path>
<path fill="white" d="M329 169L327 169L327 168L326 168L326 167L325 167L325 168L324 168L324 169L322 169L322 161L324 161L324 165L325 165L325 164L326 164L326 165L327 165L327 161L329 161L329 169Z"></path>
<path fill="white" d="M330 162V161H331H336V163H334V167H336V169H330V167H332V163H330V162Z"></path>
<path fill="white" d="M294 172V171H295H300V173H298V177H300V179H294V177H296V173H294V172Z"></path>
<path fill="white" d="M349 161L350 161L350 162L350 169L348 169L348 166L346 166L346 169L344 169L344 161L346 161L346 164L348 164L348 161L349 161Z"></path>
<path fill="white" d="M337 162V161H338H343V163H341V167V169H339V167V163H337V162Z"></path>
<path fill="white" d="M329 172V171H330H334V172H335V173H333H331V177H333V173H335V178H334V179H330H329V178V172Z"></path>
<path fill="white" d="M287 172V171H288H289V173V177H293V179H288V178H287V173V172Z"></path>
<path fill="white" d="M301 172V171H302H303V173V177H307V179H302V178H301V173V172Z"></path>
<path fill="white" d="M308 172V171H309H310V174H312V171H314V175H313V176H312V179H310V176H309V175H308V172Z"></path>
<path fill="white" d="M315 171H320V172H321V175H320V176H317V174H319V173H317V174V176V179H315V171Z"></path>
<path fill="white" d="M336 172H337V171H342V173H338V174H341V175H342V178H341V179H336V177H340V176H337V175H336V172Z"></path>
<path stroke-width="2" stroke="white" fill="#56C6F8" d="M422 13H423V12V11H467V12V13H468H469V47H468H467V48V49H423V48V47H422H421V13H422Z"></path>
<path fill="#2CACE8" d="M422 42H424V44H466V42H468V46H466V48H424V46H422V42Z"></path>
<path fill="white" d="M446 28L446 18L444 18L444 28L440 28L440 30L442 30L442 32L444 32L444 34L446 34L446 32L448 32L448 30L450 30L450 28L446 28Z"></path>
<path fill="white" d="M452 36L438 36L438 38L452 38L452 36Z"></path>
<path stroke-width="2" stroke="white" fill="#56C6F8" d="M362 13H363V12V11H407V12V13H408H409V47H408H407V48V49H363V48V47H362H361V13H362Z"></path>
<path fill="#2CACE8" d="M362 42H364V44H406V42H408V46H406V48H364V46H362V42Z"></path>
<path fill="white" d="M384 24L384 34L386 34L386 24L390 24L390 22L388 22L388 20L386 20L386 18L384 18L384 20L382 20L382 22L380 22L380 24L384 24Z"></path>
<path fill="white" d="M378 38L392 38L392 36L378 36L378 38Z"></path>
<path stroke-width="2" stroke="white" fill="#56C6F8" d="M12 13H13V12V11H57V12V13H58H59V47H58H57V48V49H13V48V47H12H11V13H12Z"></path>
<path fill="#2CACE8" d="M12 42H14V44H56V42H58V46H56V48H14V46H12V42Z"></path>
<path fill="white" d="M38 38L38 18L37 18L36 18L36 19L36 20L35 20L34 20L34 21L34 22L33 22L32 22L32 23L32 24L31 24L30 24L30 25L30 26L29 26L28 26L28 27L28 28L28 29L28 30L29 30L30 30L30 31L30 32L31 32L32 32L32 33L32 34L33 34L34 34L34 35L34 36L35 36L36 36L36 37L36 38L37 38L38 38Z"></path>
<path stroke-width="2" stroke="white" fill="#56C6F8" d="M302 13H303V12V11H347V12V13H348H349V47H348H347V48V49H303V48V47H302H301V13H302Z"></path>
<path fill="#2CACE8" d="M302 42H304V44H346V42H348V46H346V48H304V46H302V42Z"></path>
<path fill="white" d="M324 36H326V38H324V36Z"></path>
<path fill="white" d="M324 30H328V28H330V22H328V20H322V22H320V24H318V20H320V18H330V20H332V30H330V32H326V34H324V30Z"></path>
<path stroke-width="2" stroke="white" fill="#56C6F8" d="M12 317H13V316V315H57V316V317H58H59V347H58H57V348V349H13V348V347H12H11V317H12Z"></path>
<path fill="white" d="M45 330L25 330L25 334L45 334L45 330Z"></path>
<path fill="white" d="M37 342L37 322L33 322L33 342L37 342Z"></path>
</svg>
