<svg xmlns="http://www.w3.org/2000/svg" fill="none" viewBox="0 0 200 200" height="200" width="200">
<path fill="#8D4052" d="M88.9993 78.9973L113.999 83.9973V95.9972L118.999 96.9972V112.997L88.9993 106.997V78.9973Z"></path>
<path fill="#8F6536" d="M88.9993 102.997L118.999 108.997V112.997L88.9993 106.997V102.997Z"></path>
<path fill="#832630" d="M88.9993 98.9972L118.999 104.997V108.997L88.9993 102.997V98.9972Z"></path>
<path fill="#8F7223" d="M103.999 85.9972L113.999 87.9972V95.9972L103.999 93.9972L103.999 85.9972Z"></path>
<path fill="#391D20" d="M88.9994 82.9973L103.999 85.9972L103.999 93.9972L88.9993 90.9972L88.9994 82.9973Z"></path>
<path fill="#FF7483" d="M100.999 54.9977L125.999 59.9974L113.999 83.9973L88.9993 78.9973L100.999 54.9977Z"></path>
<path fill="#FF7483" d="M125.999 71.9977L130.999 72.9974L118.999 96.9972L113.999 95.9972L125.999 71.9977Z"></path>
<path fill="#512539" d="M125.999 59.9974V63.9974L113.999 87.9972V83.9973L125.999 59.9974Z"></path>
<path fill="#512539" d="M130.999 72.9974V88.9974L118.999 112.997V96.9972L130.999 72.9974Z"></path>
<path fill="#4C1621" d="M118.999 104.997L122.999 96.9972V100.997L118.999 108.997V104.997Z"></path>
<path fill="#4C1621" d="M126.999 88.9974L130.999 80.9974V84.9974L126.999 92.9974V88.9974Z"></path>
<path fill="#533B25" d="M118.999 108.997L130.999 84.9974V88.9974L118.999 112.997V108.997Z"></path>
<path fill="#4F588B" d="M120.999 96.9972L122.999 92.9972V96.9972L120.999 100.997V96.9972Z"></path>
<path fill="#4F588B" d="M126.999 84.9974L128.999 80.9974V84.9974L126.999 88.9974V84.9974Z"></path>
<path fill="#534218" d="M113.999 87.9972L125.999 63.9974L125.999 71.9977L113.999 95.9972V87.9972Z"></path>
<path fill="#8995CB" d="M90.9992 66.9977L105.999 69.9977V73.9977L110.999 74.9977L110.999 78.9978L90.9991 74.9977L90.9992 66.9977Z"></path>
<path fill="#4F588B" d="M118.999 58.9997V62.9997L110.999 78.9996V74.9996L118.999 58.9997Z"></path>
<path fill="#4F588B" d="M113.999 53.9985V57.9985L105.999 73.9977V69.9977L113.999 53.9985Z"></path>
<path fill="#F9FFFF" d="M113.999 57.9985L118.999 58.9985L110.999 74.9977L105.999 73.9977L113.999 57.9985Z"></path>
<path fill="#F9FFFF" d="M98.9992 50.9987L113.999 53.9985L105.999 69.9977L90.9992 66.9977L98.9992 50.9987Z"></path>
<path fill="#4F1E2D" d="M106.999 98.9972L108.999 94.9972V102.997L106.999 106.997V98.9972Z"></path>
<path fill="#873342" d="M101.999 98.0003L106.999 98.9972V106.997L101.999 106V98.0003Z"></path>
<path fill="#F75D6A" d="M103.999 93.9972L108.999 94.9941L106.999 98.9972L101.999 98.0003L103.999 93.9972Z"></path>
<path fill="#391D20" d="M93.9995 100L101.999 101.6V106L106.999 107L108.999 103L108.999 115L93.9993 112L93.9995 100Z"></path>
<path fill="#832630" d="M98.9993 104.997L101.999 105.597V106L103.999 106.4V109.997L98.9993 108.997V104.997Z"></path>
<path fill="#201116" d="M108.999 110.997L110.819 111.361L108.999 115V110.997Z"></path>
<path fill="#534C5E" d="M96.9999 76.9972L98.9997 72.9941L98.9999 96.9972L96.9999 100.997V76.9972Z"></path>
<path fill="#8F8187" d="M81.9999 74.0003L96.9999 76.9972V100.997L91.9999 100V79.9987L81.9999 78.0003V74.0003Z"></path>
<path fill="#FFE9D7" d="M83.9998 69.9972L98.9997 72.9941L96.9999 76.9972L81.9999 74.0003L83.9998 69.9972Z"></path>
<path fill="#E1144A" d="M83.9998 69.9972L88.9997 70.994L86.9999 74.9972L81.9999 74.0003L83.9998 69.9972Z"></path>
<path fill="#7D0B2E" d="M81.9999 74.0003L86.9999 74.9972V78.9972L81.9999 78.0003V74.0003Z"></path>
<path fill="#E1144A" d="M93.9998 71.9972L98.9997 72.9941L96.9999 76.9972L92 76.0003L93.9998 71.9972Z"></path>
<path fill="#7D0B2E" d="M92 76.0003L96.9999 76.9972L96.9999 80.9972L92 80.0003V76.0003Z"></path>
<path fill="#48061F" d="M96.9999 76.9972L98.9997 72.9941L98.9998 76.9941L96.9999 80.9972L96.9999 76.9972Z"></path>
<path fill="#7D0B2E" d="M91.9999 84.0004L96.9999 84.9972V88.9972L91.9999 88.0003V84.0004Z"></path>
<path fill="#48061F" d="M96.9999 84.9972L98.9997 80.9941L98.9997 84.9941L96.9999 88.9972V84.9972Z"></path>
<path fill="#7D0B2E" d="M92.0001 92.0036L97 93.0005L97 97.0005L92.0001 96.0036V92.0036Z"></path>
<path fill="#48061F" d="M97 93.0005L98.9999 88.9974L98.9999 92.9973L97 97.0005L97 93.0005Z"></path>
<path fill="#8F8187" d="M96.0004 46.0003L111 48.9972L111 52.9972L111 53.3958L106 52.3989L106 51.9987L96.0004 50.0003V46.0003Z"></path>
<path fill="#FFE9D7" d="M98.0002 41.9971L113 44.994L111 48.9972L96.0004 46.0003L98.0002 41.9971Z"></path>
<path fill="#E1144A" d="M98.0002 41.9971L103 42.994L101 46.9972L96.0004 46.0003L98.0002 41.9971Z"></path>
<path fill="#7D0B2E" d="M96.0004 46.0003L101 46.9972V50.9972L96.0004 50.0003V46.0003Z"></path>
<path fill="#E1144A" d="M108 43.9971L113 44.994L111 48.9972L106 48.0003L108 43.9971Z"></path>
<path fill="#7D0B2E" d="M106 48.0003L111 48.9972L111 52.9972L106 52.0003V48.0003Z"></path>
<path fill="#48061F" d="M111 48.9972L113 44.994L113 48.994L111 52.9972L111 48.9972Z"></path>
<path fill="#534C5E" d="M111 52.9972L113 48.994L113 53.7987L111 53.3958L111 52.9972Z"></path>
<path fill="#747EB3" d="M22 81.9972L82 93.9972V97.9972V98L22 85.9972V81.9972Z"></path>
<path fill="#434A7C" d="M82 93.9972L88.9993 79.9988V83.9988L82 97.9972V93.9972Z"></path>
<path fill="#D1E1FF" d="M38 49.9974L93.9087 61.1791L90.9992 66.9977L90.9991 71.3956L83.9998 69.9972L81.9999 74.0003V78.0003L88.9993 79.3991V79.9988L82 93.9972L22 81.9972L38 49.9974Z"></path>
<path fill="#AFBFF7" d="M41 54.9971L91 64.9971L88.092 70.8131L83.9998 69.9972L81.9999 74.0003L82 77.9987L84.2714 78.4543L79 88.997L29 78.997L41 54.9971Z"></path>
<path fill-opacity="0.5" fill="#CD0000" d="M33.9991 27.9999L78.9991 36.9999L78.999 48.9999L33.999 39.9999L33.9991 27.9999Z"></path>
<path fill-opacity="0.5" fill="#800000" d="M78.9991 36.9999L90.9991 13.0001L90.999 25.0001L78.999 48.9999L78.9991 36.9999Z"></path>
<path fill-opacity="0.5" fill="#CD6700" d="M33.999 39.9999L78.999 48.9999V56.9999L33.999 47.9999V39.9999Z"></path>
<path fill-opacity="0.5" fill="#804000" d="M78.999 48.9999L90.999 25.0001V33.0001L78.999 56.9999V48.9999Z"></path>
<path fill-opacity="0.5" fill="#CDCD00" d="M33.999 47.9999L78.999 56.9999V64.9999L33.999 55.9999V47.9999Z"></path>
<path fill-opacity="0.5" fill="#808000" d="M78.999 56.9999L90.999 33.0001V41.0001L78.999 64.9999V56.9999Z"></path>
<path fill-opacity="0.5" fill="#00CD00" d="M33.999 55.9999L78.999 64.9999V72.9999L33.999 63.9999V55.9999Z"></path>
<path fill-opacity="0.5" fill="#008000" d="M78.999 64.9999L90.999 41.0001V49.0001L78.999 72.9999V64.9999Z"></path>
<path fill-opacity="0.5" fill="#0067CD" d="M33.999 63.9999L78.999 72.9999V80.9999L33.999 71.9999V63.9999Z"></path>
<path fill-opacity="0.5" fill="#004080" d="M78.999 72.9999L90.999 49.0001V57.0001L78.999 80.9999V72.9999Z"></path>
<path fill-opacity="0.5" fill="#4400CD" d="M33.999 71.9999L78.999 80.9999V88.9999L33.999 79.9999V71.9999Z"></path>
<path fill-opacity="0.5" fill="#2A0080" d="M78.999 80.9999L90.999 57.0001V65.0001L78.999 88.9999V80.9999Z"></path>
<path fill-opacity="0.5" fill="#FF0000" d="M45.9991 4.00301L90.9991 13.0001L78.9991 36.9999L33.9991 27.9999L45.9991 4.00301Z"></path>
<path fill-opacity="0.1" fill="white" d="M33.9991 27.9999L78.9991 36.9999L78.9991 41.0001L44 34.0029V82.0029L39 81.0029V33.0029L33.9991 32.0001L33.9991 27.9999Z"></path>
<path fill-opacity="0.1" fill="white" d="M35.9991 23.9997L80.9991 32.9997L78.9991 36.9999L33.9991 27.9999L35.9991 23.9997Z"></path>
<path fill-opacity="0.1" fill="white" d="M45.9991 4L90.9991 13.0001L88.999 17.0002L43.999 8.00021L45.9991 4Z"></path>
<path fill-opacity="0.1" fill="white" d="M43.999 8.00021L48.999 9.0003L40.9991 24.9997L35.9991 23.9997L43.999 8.00021Z"></path>
<path fill-opacity="0.1" fill="white" d="M83.999 16.0002L88.999 17.0002L80.9991 32.9997L75.9991 31.9997L83.999 16.0002Z"></path>
<path fill-opacity="0.1" fill="white" d="M90.9991 13.0001L90.999 17.0003L78.9991 41.0001L78.9991 36.9999L90.9991 13.0001Z"></path>
<path fill="#857470" d="M59.0001 93.3972L79 97.3972L78.9999 109L59 105L59.0001 93.3972Z"></path>
<path fill="#857470" d="M29.0001 87.3975L49 91.3974L48.9999 103.001L29 99.0005L29.0001 87.3975Z"></path>
<path fill="#4D434E" d="M33.999 88.397L37.4965 89.0967L33.999 96V88.397Z"></path>
<path fill="#EDC39B" d="M33.999 96L44 98V90.3974L37.4965 89.0967L33.999 96Z"></path>
<path fill="#4D434E" d="M64.0025 94.3975L67.5 95.0972L64.0025 102V94.3975Z"></path>
<path fill="#EDC39B" d="M64.0025 102L74.0035 104V96.3979L67.5 95.0972L64.0025 102Z"></path>
<path fill="#4D434E" d="M79 97.3972L82 98L88.9993 83.9988L89 89L78.9999 109L79 97.3972Z"></path>
<path fill="#4D434E" d="M49 91.3974L54.2741 92.452L48.9999 103.001L49 91.3974Z"></path>
<path fill="#FFB356" d="M83.9999 94.0004L88.9993 83.9988L88.9997 95.0003L83.9999 94.0004Z"></path>
<path fill="#8F6536" d="M83.9999 94.0004L88.9998 94.9973L88.9993 98.9972L82.2229 97.5514L83.9999 94.0004Z"></path>
</svg>
