<svg xmlns="http://www.w3.org/2000/svg" fill="none" viewBox="0 0 200 200" height="200" width="200">
<path fill="#45292C" d="M76 100L116 108V116L76 108V100Z"></path>
<path fill="#7E4A46" d="M83.9925 84L124 92.0005L116 108L76 100L83.9925 84Z"></path>
<path fill="#28181E" d="M124 92.0005V100L122 104V100L118 108V112L116 116V108L124 92.0005Z"></path>
<path fill="#45292C" d="M122 100V104L120.174 103.622L122 100Z"></path>
<path fill="#C97964" d="M113.992 89.9858L118.992 90.9858L110.992 106.986L105.992 105.986L113.992 89.9858Z"></path>
<path fill="#70433F" d="M105.992 105.986L110.992 106.986L110.993 114.986L105.993 113.986L105.992 105.986Z"></path>
<path fill="#C97964" d="M93.99 85.9858L103.99 87.9858L95.99 103.986L85.9899 101.986L93.99 85.9858Z"></path>
<path fill="#70433F" d="M85.9899 101.986L95.99 103.986L95.9907 111.986L85.9906 109.986L85.9899 101.986Z"></path>
</svg>
