<svg xmlns="http://www.w3.org/2000/svg" fill="none" viewBox="0 0 100 100" height="100" width="100">
<path fill="#7FC6F9" d="M23.0002 38.4992L50.0003 47.4992V78.4994L23.0002 69.4993V38.4992Z"></path>
<path fill="#66A5D2" d="M50.0003 47.4992L77.0004 38.4993V69.4994L50.0003 78.4994V47.4992Z"></path>
<path fill="#E7E7E7" d="M35.0014 42.4991L38.0002 43.4989V74.4988L35.0014 73.499V42.4991Z"></path>
<path fill="#BEBEBE" d="M65.0002 42.4994L61.999 43.4992V74.4992L65.0002 73.4994V42.4994Z"></path>
<path fill="#51BCFF" d="M20 32.4993L50.0001 42.4994V48.4995L20 38.4994V32.4993Z"></path>
<path fill="#3592D8" d="M50.0001 42.4994L80.0003 32.4994V38.4996L50.0001 48.4995V42.4994Z"></path>
<path fill="#43A5FF" d="M50.0001 22.4995L80.0003 32.4994L50.0001 42.4994L20 32.4993L50.0001 22.4995Z"></path>
<path fill="#E7E7E7" d="M33.5015 36.9997L36.5002 37.9995V44L33.5015 43.0002V36.9997Z"></path>
<path fill="#BEBEBE" d="M66.5 36.9997L63.4988 37.9995V43.9998L66.5 43V36.9997Z"></path>
<path fill="#EFEFEF" d="M63.5002 27L66.499 27.9998L53.0002 32.5L66.5 36.9997L63.4988 37.9995L50.0001 33.5L36.5002 37.9995L33.5015 36.9997L47.0002 32.5L33.5015 27.9989L36.5002 26.9993L48.5002 31V29L47.0002 28.5L48.5002 28L50.0002 28.5L51.5002 28L53.0002 28.5L51.5002 29V31L63.5002 27Z"></path>
<path fill="#E7E7E7" d="M36.5002 24.0004L42.5002 26.0004V32.0004L36.5002 30.0004V24.0004Z"></path>
<path fill="#EFEFEF" d="M42.5002 22.0004L48.5002 24.0004L42.5002 26.0004L36.5002 24.0004L42.5002 22.0004Z"></path>
<path fill="#BEBEBE" d="M42.5002 26.0004L48.5002 24.0004V28L47.0002 28.5V30.5L42.5002 32.0004V26.0004Z"></path>
<path fill="#E7E7E7" d="M51.5002 24L57.5002 26V32L53.0002 30.5V28.5L51.5002 28V24Z"></path>
<path fill="#EFEFEF" d="M57.5002 22L63.5002 24L57.5002 26L51.5002 24L57.5002 22Z"></path>
<path fill="#BEBEBE" d="M57.5002 26L63.5002 24V30L57.5002 32V26Z"></path>
<path fill="#E7E7E7" d="M58.499 26.667L61.499 25.6674V28.6674L58.499 29.6671V26.667Z"></path>
<path fill="#BEBEBE" d="M38.5002 25.667L41.5002 26.6674V29.6674L38.5002 28.6671V25.667Z"></path>
<path fill="#E7E7E7" d="M36.5002 29.0004L42.5002 31.0004V37.0004L36.5002 35.0004V29.0004Z"></path>
<path fill="#EFEFEF" d="M42.5002 27.0004L48.5002 29.0004L42.5002 31.0004L36.5002 29.0004L42.5002 27.0004Z"></path>
<path fill="#BEBEBE" d="M42.5002 31.0004L48.5002 29.0004V33L50.0002 32.5V34.5L42.5002 37.0004V31.0004Z"></path>
<path fill="#E7E7E7" d="M51.5002 29L57.5002 31V37L50.0002 34.5V32.5L51.5002 33V29Z"></path>
<path fill="#EFEFEF" d="M57.5002 27L63.5002 29L57.5002 31L51.5002 29L57.5002 27Z"></path>
<path fill="#BEBEBE" d="M57.5002 31L63.5002 29V35L57.5002 37V31Z"></path>
<path fill="#E7E7E7" d="M44.5002 31.3337L47.5002 30.3341V33.3341L44.5002 34.3337V31.3337Z"></path>
<path fill="#BEBEBE" d="M52.5002 30.3337L55.5002 31.3341V34.3341L52.5002 33.3337V30.3337Z"></path>
<path fill="#5DACE3" d="M24 39.83L25 40.16V70.16L24 69.83V39.83Z"></path>
<path fill="#5DACE3" d="M26 40.5L27 40.83V70.83L26 70.5V40.5Z"></path>
<path fill="#5DACE3" d="M28 41.1593L29 41.4893V71.4893L28 71.1593V41.1593Z"></path>
<path fill="#5DACE3" d="M30 41.83L31 42.16V72.16L30 71.83V41.83Z"></path>
<path fill="#5DACE3" d="M32 42.5L33 42.83V72.83L32 72.5V42.5Z"></path>
<path fill="#5DACE3" d="M34 43.1641L35 43.4941V73.4941L34 73.1641V43.1641Z"></path>
<path fill="#5DACE3" d="M40 45.1651L41 45.4951V75.4951L40 75.1651V45.1651Z"></path>
<path fill="#5DACE3" d="M42 45.83L43 46.16V76.16L42 75.83V45.83Z"></path>
<path fill="#5DACE3" d="M44 46.5L45 46.83V76.83L44 76.5V46.5Z"></path>
<path fill="#5DACE3" d="M46 47.1646L47 47.4946V77.4946L46 77.1646V47.1646Z"></path>
<path fill="#5DACE3" d="M48 47.83L49 48.16V78.16L48 77.83V47.83Z"></path>
<path fill="#5DACE3" d="M38 44.5L39 44.83V74.83L38 74.5V44.5Z"></path>
<path fill="#508FBE" d="M76 39.83L75 40.16V70.16L76 69.83V39.83Z"></path>
<path fill="#508FBE" d="M74 40.5L73 40.83V70.83L74 70.5V40.5Z"></path>
<path fill="#508FBE" d="M72 41.1593L71 41.4893V71.4893L72 71.1593V41.1593Z"></path>
<path fill="#508FBE" d="M70 41.83L69 42.16V72.16L70 71.83V41.83Z"></path>
<path fill="#508FBE" d="M68 42.5L67 42.83V72.83L68 72.5V42.5Z"></path>
<path fill="#508FBE" d="M66 43.1641L65 43.4941V73.4941L66 73.1641V43.1641Z"></path>
<path fill="#508FBE" d="M60 45.1651L59 45.4951V75.4951L60 75.1651V45.1651Z"></path>
<path fill="#508FBE" d="M58 45.83L57 46.16V76.16L58 75.83V45.83Z"></path>
<path fill="#508FBE" d="M56 46.5L55 46.83V76.83L56 76.5V46.5Z"></path>
<path fill="#508FBE" d="M54 47.1646L53 47.4946V77.4946L54 77.1646V47.1646Z"></path>
<path fill="#508FBE" d="M52 47.83L51 48.16V78.16L52 77.83V47.83Z"></path>
<path fill="#508FBE" d="M62 44.5L61 44.83V74.83L62 74.5V44.5Z"></path>
</svg>
