<svg xmlns="http://www.w3.org/2000/svg" fill="none" viewBox="0 0 400 400" height="400" width="400">
<path fill="#476E37" d="M171 190L185 162L270 179V191L256 219L171 202V190Z"></path>
<path fill="#5E7A40" d="M171 190L256 207V215L216 207L219 207.6V204L209 202V205.6L216 207L171 198V190Z"></path>
<path fill="#55588F" d="M253 190L263 170V182L261 186V178L255 190V198L253 202V190Z"></path>
<path fill="#F9FFFF" d="M213 160L263 170L253 190L203 180L213 160Z"></path>
<path fill="#000100" d="M255 190L261 178V186L255 198V190Z"></path>
<path fill="#000100" d="M248 201V193L208 185V193L248 201Z"></path>
<path fill="#000100" d="M231 210L246 213V221H248L246 225L231 222V210Z"></path>
<path fill="#000100" d="M181 200L196 203V211H198L196 215L181 212V200Z"></path>
<path fill="#181319" d="M238 199V191L233 190V198L238 199Z"></path>
<path fill="#4B4575" d="M171 202L181 204V208L171 206V202Z"></path>
<path fill="#4B4575" d="M196 207L231 214V218L196 211V207Z"></path>
<path fill="#4B4575" d="M246 217L256 219V223L246 221V217Z"></path>
<path fill="#334D29" d="M260 207L266 195L270 187V191L256 219V215L260 207Z"></path>
<path fill="#334D29" d="M260 199L266 187V191L260 203V199Z"></path>
<path fill="#344A1F" d="M260 199V203V207L258 211L256 215V207L260 199Z"></path>
<path fill="#344A1F" d="M270 179V187L268 191L266 195V191V187L270 179Z"></path>
<path fill="#264420" d="M260 199L266 187V195L260 207V199Z"></path>
<path fill="#264420" d="M219 204L221 200V204L219 208V204Z"></path>
<path fill="#2D294E" d="M256 219L270 191V195L256 223V219Z"></path>
<path fill="#A9D969" d="M263 177.6L270 179L256 207L251 206L263 182V177.6Z"></path>
<path fill="#A9D969" d="M185 162L209.545 166.909L203 180V192L253 202L251 206L171 190L185 162Z"></path>
<path fill="#81C355" d="M261 186L266 187L260 199L255 198L261 186Z"></path>
<path fill="#81C355" d="M181 170L205.545 174.909L203 180V187.6L175 182L181 170Z"></path>
<path fill="#81C355" d="M211 198L221 200L219 204L209 202L211 198Z"></path>
<path fill="#879DD4" d="M186 205L191 206V210L186 209V205Z"></path>
<path fill="#879DD4" d="M236 215L241 216V220L236 219V215Z"></path>
<path fill="#8C95CE" d="M203 180L253 190V202L248 201V193L233 190V198L228 197V189L208 185V193L203 192V180Z"></path>
</svg>
