<svg xmlns="http://www.w3.org/2000/svg" fill="none" viewBox="0 0 200 200" height="200" width="200">
<path fill="#9498C8" d="M82 69L99.5 72.5V88L109.5 90V100.5L82 95V69Z"></path>
<path fill="white" d="M88 57L105.5 60.5L99.5 72.5L82 69L88 57Z"></path>
<path fill="white" d="M105.5 76L115.5 78L114.5 80L117 80.5L113 88.5L110.5 88L109.5 90L99.5 88L105.5 76Z"></path>
<path fill="#9498C8" d="M110.5 88L113 88.5V95L110.5 94.5V88Z"></path>
<path fill="#56598C" d="M99.5 72.5L105.5 60.5V76L99.5 88V72.5Z"></path>
<path fill="#56598C" d="M113 88.5L117 80.5V87L113 95V88.5Z"></path>
<path fill="#56598C" d="M109.5 90L110.5 88V94.5L112.318 94.8637L109.5 100.5V90Z"></path>
<path fill="#56598C" d="M114.5 80L115.5 78V80.2L114.5 80Z"></path>
<path fill="white" d="M86.9999 87.5L102 90.5L100 94.5L85 91.5L86.9999 87.5Z"></path>
<path fill="#9498C8" d="M85 91.5L100 94.5V100.5L85 97.5V91.5Z"></path>
<path fill="#56598C" d="M100 94.5L102 90.5V96.5L100 100.5V94.5Z"></path>
<path fill="#4E1F31" d="M96.5 63.5L98.5 59.5V63.5L96.5 67.5V63.5Z"></path>
<path fill="#803647" d="M86.5 61.5L96.5 63.5V67.5L86.5 65.5V61.5Z"></path>
<path fill="#EC6373" d="M88.5 57.5L98.5 59.5L96.5 63.5L86.5 61.5L88.5 57.5Z"></path>
<path fill="#0A0A26" d="M82 73L87 74V76L84.5 75.5V73.5L82 73Z"></path>
<path fill="#823E35" d="M76.5 67.5L82.1818 68.6364L82 69V72.6L76.5 71.5V67.5Z"></path>
<path fill="#F27257" d="M78.5 63.5L84.1818 64.6364L82.1818 68.6364L76.5 67.5L78.5 63.5Z"></path>
<path fill="#803647" d="M79 72L82 72.6V73V76.6L79 76V72Z"></path>
<path fill="#823E35" d="M97 99.9L99.5 100.4V104.5L97 104V99.9Z"></path>
<path fill="#4C2425" d="M99.5 100.4L100 100.5L100.5 99.5V102.5L99.5 104.5V100.4Z"></path>
<path fill="#F27357" d="M97 104L99.5 104.5L100.5 102.5V100.3L104 101L101 107L88.5 104.5L89.5 102.5L94.5 103.5L95.5 101.5L90.5 100.5L91.3636 98.7728L97 99.9V104Z"></path>
<path fill="#823E35" d="M88.5 104.5L101 107V109L88.5 106.5V104.5Z"></path>
<path fill="#823E35" d="M90.5 100.5L95.5 101.5L94.5909 103.318L90.5 102.5V100.5Z"></path>
<path fill="#4C2425" d="M101 107L104 101V103L101 109V107Z"></path>
</svg>
