<svg xmlns="http://www.w3.org/2000/svg" fill="none" viewBox="0 0 200 200" height="200" width="200">
<path fill="#18243A" d="M92.0005 100L107.001 103V115L92.0005 112V100Z"></path>
<path fill="#324F71" d="M96.0005 92.0003L111.001 95.0003L115.001 87.0003L120.001 88.0003L114.001 100L109.001 99.0003L107.001 103L92.0005 100L96.0005 92.0003Z"></path>
<path fill="#151C2E" d="M107.001 103L109.001 99.0003V111L107.001 115V103Z"></path>
<path fill="#18243A" d="M109.001 99.0003L114.001 100V112L109.001 111V99.0003Z"></path>
<path fill="#151C2E" d="M114.001 100L120.001 88.0003V100L114.001 112V100Z"></path>
<path fill="#151C2E" d="M111.001 79.0003L117.001 67.0003V87.4003L115.001 87.0003L111.001 95.0003V79.0003Z"></path>
<path fill="#18243A" d="M106.001 78.0003L111.001 79.0003V95.0003L96.0005 92.0003V84.0003L91.0006 83.0003L86.0005 82.0004V74.0003L91.0005 75.0004V55.0003L106.001 58.0003V78.0003Z"></path>
<path fill="#324F71" d="M112.001 66.0003L113.818 66.3638L117.001 67.0003L111.001 79.0003L106.001 78.0003L112.001 66.0003Z"></path>
<path fill="#151C2E" d="M106.001 58.0003L112.001 46.0003V66.0003L106.001 78.0003V58.0003Z"></path>
<path fill="#324F71" d="M97.0005 43.0003L112.001 46.0003L106.001 58.0003L91.0005 55.0003L97.0005 43.0003Z"></path>
<path fill="#18243A" d="M117.001 79.0003L122.001 80.0003V96.0003L120.001 95.6003V88.0003L117.001 87.4003V79.0003Z"></path>
<path fill="#151C2E" d="M122.001 80.0003L128 68.0003V84.0003L122.001 96.0003V80.0003Z"></path>
<path fill="#324F71" d="M112.001 64.8003L128 68.0003L122.001 80.0003L117.001 79.0003V67.0003L113.818 66.3638L112.001 66.0003V64.8003Z"></path>
<path fill="#18243A" d="M79.0005 89.0003L94.0005 92.0003L94.0005 96.0003L92.0005 100V107.6L79.0005 105V89.0003Z"></path>
<path fill="#324F71" d="M81.0005 85.0003L96.0005 88.0003L94.0005 92.0003L79.0005 89.0003L81.0005 85.0003Z"></path>
<path fill="#151C2E" d="M94.0005 92.0003L96.0005 88.0003V92.0003L94.0005 96.0003L94.0005 92.0003Z"></path>
<path fill="#3577FF" d="M101 85.0003L111 87.0003L107 95.0003L97 93.0003L101 85.0003Z"></path>
<path fill="#193791" d="M97 93.0003L107 95.0003L107.001 103L97.0004 101L97 93.0003Z"></path>
<path fill="#15296E" d="M107 95.0003L111 87.0003L111.001 95.0003L107.001 103L107 95.0003Z"></path>
<path fill="#3577FF" d="M116 62.0003L126 64.0003L122 72.0003L117 71.0003L117.001 67.0003L113.818 66.3638L116 62.0003Z"></path>
<path fill="#193791" d="M117 71.0003L122 72.0003L122.001 80.0003L117.001 79.0003L117 71.0003Z"></path>
<path fill="#15296E" d="M122 72.0003L126 64.0003L126.001 72.0003L122.001 80.0003L122 72.0003Z"></path>
<path fill="#3577FF" d="M86.0012 66.0003L96.0013 68.0003L94.0012 72.0003L84.0012 70.0003L86.0012 66.0003Z"></path>
<path fill="#193791" d="M84.0012 70.0003L94.0012 72.0003L94.0017 80.0003L83.9979 78.0004L84.0012 70.0003Z"></path>
<path fill="#15296E" d="M94.0012 72.0003L96.0013 68.0003L96.0017 76.0003L94.0017 80.0003L94.0012 72.0003Z"></path>
<path fill="#6ECB94" d="M86.0005 82.0004L91.0006 83.0003L96.0005 84.0003L92.0001 92.0003L72 88.0003L79.9979 72.0003L84.0013 72.8007L83.9979 78.0004L86.0005 78.4001V82.0004Z"></path>
<path fill="#315C49" d="M72 88.0003L92.0001 92.0003L92.0005 96.0003L72.0004 92.0003L72 88.0003Z"></path>
<path fill="#254636" d="M92.0001 92.0003L96.0005 84.0003V88.0003L92.0005 96.0003L92.0001 92.0003Z"></path>
<path fill="#5EC57E" d="M82.9979 77.0004L84.0016 77.2011L83.9979 78.0004L86.0005 78.4001V82.0004L91.0006 83.0003L89.0006 87.0003L79.0005 85.0003L82.9979 77.0004Z"></path>
<path fill="#6ECB94" d="M80.0011 56.0003L90.0012 58.0003L84.0012 70.0003L74.0011 68.0003L80.0011 56.0003Z"></path>
<path fill="#315C49" d="M74.0011 68.0003L84.0012 70.0003L84.0016 74.0003L74.0016 72.0003L74.0011 68.0003Z"></path>
<path fill="#15296E" d="M84.0012 70.0003L90.0012 58.0003L86.0012 66.0003L84.0012 70.0003Z"></path>
<path fill="#6ECB94" d="M85.0008 49.0002L93.1824 50.6365L91.0005 55.0003V59.0003L96.0017 60.0003L94.0009 64.0002L79.0008 61.0002L85.0008 49.0002Z"></path>
<path fill="#315C49" d="M79.0008 61.0002L94.0009 64.0002L94.0013 68.0003L79.0012 65.0002L79.0008 61.0002Z"></path>
<path fill="#254636" d="M94.0009 64.0002L96.0017 60.0003V64.0002L94.0013 68.0003L94.0009 64.0002Z"></path>
<path fill="#5EC57E" d="M88.0005 54.0004L91.1823 54.6367L91.0005 55.0003V59.0003L86.0005 58.0003L88.0005 54.0004Z"></path>
<path fill="#6ECB94" d="M111.997 44.8003L122.997 47.0003L115 63.0003L110 62.0003L111.997 58.0002V44.8003Z"></path>
<path fill="#315C49" d="M110 62.0003L115 63.0003L115 67.0003L110 66.0003L110 62.0003Z"></path>
<path fill="#254636" d="M115 63.0003L122.997 47.0003L123 51.0003L115 67.0003L115 63.0003Z"></path>
<path fill="#5EC57E" d="M111.997 49.2002L115.997 50.0002L111.997 58.0002V49.2002Z"></path>
<path fill="#6ECB94" d="M96.0005 30L115.997 34L108 50L87.9995 46L96.0005 30Z"></path>
<path fill="#315C49" d="M87.9995 46L108 50L108 54L87.9999 50L87.9995 46Z"></path>
<path fill="#254636" d="M108 50L115.997 34L116 38L108 54L108 50Z"></path>
<path fill="#5EC57E" d="M98.9952 35.0004L108.998 37L104.998 45.0004L94.9979 43.0003L98.9952 35.0004Z"></path>
</svg>
