<svg xmlns="http://www.w3.org/2000/svg" fill="none" viewBox="0 0 200 200" height="200" width="200">
<path fill="#141520" d="M77.5 94L107.5 100V104L77.5 98V94Z"></path>
<path fill="#101018" d="M107.5 100L119.5 76V80L107.5 104V100Z"></path>
<path fill="#2A2E3D" d="M89.5 70L119.5 76L107.5 100L77.5 94L89.5 70Z"></path>
<path fill="#22263C" d="M83.5 87L103.5 91V97L83.5 93V87Z"></path>
<path fill="#1D1D2C" d="M103.5 91L113.5 71V77L103.5 97V91Z"></path>
<path fill="#485374" d="M93.5 67L113.5 71L103.5 91L83.5 87L93.5 67Z"></path>
<path fill="#444B68" d="M87.5 79L107.5 83L105.5 87L85.5 83L87.5 79Z"></path>
<path fill="#444B68" d="M91.5 71L111.5 75L109.5 79L89.5 75L91.5 71Z"></path>
<path fill="#1B1A28" d="M107.5 83V89L105.5 93V87L107.5 83Z"></path>
<path fill="#1B1A28" d="M111.5 75V81L109.5 85V79L111.5 75Z"></path>
<path fill="#535454" d="M93 105.5L98 106.5V108.5L93 107.5V105.5Z"></path>
<path fill="#453F3F" d="M98 106.5L100 102.5L100.909 102.682L98 108.5V106.5Z"></path>
<path fill="#ADB39F" d="M95 101.5L100 102.5L98 106.5L93 105.5L95 101.5Z"></path>
<path fill="#535454" d="M83 103.5L88 104.5V106.5L83 105.5V103.5Z"></path>
<path fill="#453F3F" d="M88 104.5L90 100.5L90.9091 100.682L88 106.5V104.5Z"></path>
<path fill="#ADB39F" d="M85 99.5L90 100.5L88 104.5L83 103.5L85 99.5Z"></path>
<path fill="#535454" d="M116.5 86L126.5 88L125.5 90L128 90.5V92.5L125.5 92V90L125.591 89.8182L115.591 87.8182L116.5 86Z"></path>
<path fill="#453F3F" d="M128 90.5L131 84.5V86.5L128 92.5V90.5Z"></path>
<path fill="#ADB39F" d="M118.5 82L131 84.5L128 90.5L125.5 90L126.5 88L116.5 86L118.5 82Z"></path>
<path fill="#535454" d="M73 79.5L75.5 80L76.5 78L84.6818 79.6364L83.7727 81.4545L76.5 80L75.5 82L73 81.5V79.5Z"></path>
<path fill="#ADB39F" d="M76 73.5L86.6818 75.6364L84.6818 79.6364L76.5 78L75.5 80L73 79.5L76 73.5Z"></path>
<path fill="#453F3F" d="M75.5 80L76.5 78V80L75.5 82V80Z"></path>
<path fill="#ADB39F" d="M104.5 58L114.5 60L109.5 70L99.5 68L104.5 58Z"></path>
<path fill="#453F3F" d="M114.5 60V68L113.045 70.9091L109.5 70.2V70L114.5 60Z"></path>
<path fill="#535454" d="M109.5 70V70.2L113.045 70.9091L99.5 68.2V68L109.5 70Z"></path>
<path fill="#1B1A28" d="M112.5 66V68L111.5 70V68L112.5 66Z"></path>
</svg>
