<svg xmlns="http://www.w3.org/2000/svg" fill="none" viewBox="0 0 200 200" height="200" width="200">
<path fill="#6E343D" d="M76 100L166 118V126L76 108V100Z"></path>
<path fill="#C55E62" d="M83.9925 84L174 102L166 118L76 100L83.9925 84Z"></path>
<path fill="#3F1E2A" d="M174 102V110L172 114V110L168 118V122L166 126V118L174 102Z"></path>
<path fill="#6E343D" d="M172 110V114L170.174 113.622L172 110Z"></path>
<path fill="#F7A393" d="M163.992 99.9858L168.992 100.986L160.992 116.986L155.992 115.986L163.992 99.9858Z"></path>
<path fill="#875C5E" d="M155.992 115.986L160.992 116.986L160.993 124.986L155.993 123.986L155.992 115.986Z"></path>
<path fill="#F7A393" d="M143.99 95.9858L153.99 97.9858L145.99 113.986L135.99 111.986L143.99 95.9858Z"></path>
<path fill="#875C5E" d="M135.99 111.986L145.99 113.986L145.991 121.986L135.991 119.986L135.99 111.986Z"></path>
<path fill="#F7A393" d="M93.9902 85.9858L103.99 87.9858L95.9902 103.986L85.9902 101.986L93.9902 85.9858Z"></path>
<path fill="#875C5E" d="M85.9902 101.986L95.9902 103.986L95.9909 111.986L85.9909 109.986L85.9902 101.986Z"></path>
<path fill="#F7A393" d="M113.992 89.9862L118.992 90.9862L110.992 106.986L105.991 105.986L113.992 89.9862Z"></path>
<path fill="#875C5E" d="M105.991 105.986L110.992 106.986L110.992 114.986L105.992 113.986L105.991 105.986Z"></path>
</svg>
