<svg xmlns="http://www.w3.org/2000/svg" fill="none" viewBox="0 0 200 200" height="200" width="200">
<path fill="#721523" d="M94 93.0035L99 94.0035V98.0035L94 97.0035V93.0035Z"></path>
<path fill="#410C18" d="M99 94.0035L101 90.002V94.0035L99 98.0035V94.0035Z"></path>
<path fill="#8787B7" d="M94 89.002L99 90.0035V94.0035L94 93.0035V89.002Z"></path>
<path fill="#4F507E" d="M99 90.0035L101 86.0021V90.002L99 94.0035V90.0035Z"></path>
<path fill="#204F31" d="M94 85.002L99 86.002V90.0035L94 89.002V85.002Z"></path>
<path fill="#122E22" d="M99 86.002L101 82.0021V86.0021L99 90.0035V86.002Z"></path>
<path fill="#8787B7" d="M94 81.0041L99 82.0014V86.002L94 85.002V81.0041Z"></path>
<path fill="#4F507E" d="M99 82.0014L101 78.0015V82.0021L99 86.002V82.0014Z"></path>
<path fill="#721523" d="M94 77.0041L99 78.0024V82.0014L94 81.0041V77.0041Z"></path>
<path fill="#410C18" d="M99 78.0024L101 74.0008V78.0015L99 82.0014V78.0024Z"></path>
<path fill="#8787B7" d="M94 73.0008L99 74.0024V78.0024L94 77.0041V73.0008Z"></path>
<path fill="#4F507E" d="M99 74.0024L101 70.0009V74.0008L99 78.0024V74.0024Z"></path>
<path fill="#204F31" d="M94 69.0009L99 70.0009V74.0024L94 73.0008V69.0009Z"></path>
<path fill="#122E22" d="M99 70.0009L101 66.0009V70.0009L99 74.0024V70.0009Z"></path>
<path fill="#8787B7" d="M94 65.0027L99 66.0031V70.0009L94 69.0009V65.0027Z"></path>
<path fill="#4F507E" d="M99 66.0031L101 62.0032V66.0009L99 70.0009V66.0031Z"></path>
<path fill="#F7F3FF" d="M94 65.0027L96 61.0036L101 62.0032L99 66.0031L94 65.0027Z"></path>
<path fill="#721523" d="M99 66.0009L104 67.0009V71.0018L99 70.0009V66.0009Z"></path>
<path fill="#CD2738" d="M99 66.0009L101 62.0014L106 63.001L104 67.0009L99 66.0009Z"></path>
<path fill="#F7F3FF" d="M104 66.998L106 62.9985L111 63.9981L109 67.998L104 66.998Z"></path>
<path fill="#8787B7" d="M104 67.0009L109 68.0013V71.9992L104 70.999V67.0009Z"></path>
<path fill="#204F31" d="M109 67.998L114 68.9981V72.9976L109 71.9976V67.998Z"></path>
<path fill="#3A8D4E" d="M109 67.998L111 63.9981L116 64.9978L114 68.9981L109 67.998Z"></path>
<path fill="#122E22" d="M114 68.9981L116 64.9978V68.9982L114 72.9996V68.9981Z"></path>
<path fill="#721523" d="M109 75.9996L114 76.9996V80.9996L109 79.9996V75.9996Z"></path>
<path fill="#410C18" d="M114 76.9996L116 72.9981V76.9996L114 80.9996V76.9996Z"></path>
<path fill="#8787B7" d="M109 71.9976L114 72.9996V76.9996L109 75.9996V71.9976Z"></path>
<path fill="#4F507E" d="M114 72.9996L116 68.9982V72.9981L114 76.9996V72.9996Z"></path>
</svg>
