<svg xmlns="http://www.w3.org/2000/svg" fill="none" viewBox="0 0 200 200" height="200" width="200">
<path fill="#914017" d="M86 98.0003L106 102V106L86 102V98.0003Z"></path>
<path fill="#552510" d="M106 102L114 86.0003V90.0003L106 106V102Z"></path>
<path fill="#312A44" d="M86 94.0003L106 98.0003V102L86 98.0003V94.0003Z"></path>
<path fill="#1C1830" d="M106 98.0003L114 82.0003V86.0003L106 102V98.0003Z"></path>
<path fill="#8D8B9F" d="M86 90L106 94V98.0003L86 94.0003V90Z"></path>
<path fill="#515270" d="M106 94L114 78V82.0003L106 98.0003V94Z"></path>
<path fill="#833162" d="M86 86.0012L106 90.0012V94.0015L86 90.0015V86.0012Z"></path>
<path fill="#4C1C44" d="M106 90.0012L114 74.0012V78.0015L106 94.0015V90.0012Z"></path>
<path fill="#EF589B" d="M94 70L114 74L106 90.0012L86 86.0012L94 70Z"></path>
<path fill="#EB468B" d="M97 75L107 77L103 85.0012L93 83.0012L97 75Z"></path>
</svg>
