<svg xmlns="http://www.w3.org/2000/svg" fill="none" viewBox="0 0 200 200" height="200" width="200">
<path fill="white" d="M112 130H113V129H118V131H114V132H116V134H114V135H118V137H113V136H112V130Z"></path>
<path fill="white" d="M91 130H92V129H97V131H93V132H95V134H93V135V137H92H91V136V130Z"></path>
<path fill="white" d="M98 130H99V129H104V131H100V132H102V134H100V135V137H99H98V136V130Z"></path>
<path fill="white" d="M119 130H120V129H125V131H121V132H124V133H125V136H124V137H119V135H123V134H120V133H119V130Z"></path>
<path fill="white" d="M105 130V129H106H107V131V135H111V137H106V136H105V131V130Z"></path>
<path fill="white" d="M83 137L81 137L81 136L80 136L80 135L79 135L79 136L78 136L78 137L76 137L76 129L78 129L78 133L79 133L79 132L80 132L80 133L81 133L81 129L83 129L83 137Z"></path>
<path fill="white" d="M84 130H85V129H89V130H90V137H88V131H86V132H88V134H86V135V137H85H84V136V130Z"></path>
<path fill="#946A52" d="M79.25 86.9998L106.75 92.4999V115.5L79.25 110V86.9998Z"></path>
<path fill="#553D38" d="M106.75 92.4999L121.75 62.5V85.5L106.75 115.5V92.4999Z"></path>
<path fill="#FFBF81" d="M94.25 57L121.75 62.5L106.75 92.4999L79.25 86.9998L94.25 57Z"></path>
<path fill="#D46841" d="M112.25 85.5002L116 86.2502L113 92.2501L109.25 91.5001L112.25 85.5002Z"></path>
<path fill="#763927" d="M109.25 91.5001L113 92.2501V100.25L109.25 99.5001V91.5001Z"></path>
<path fill="#43221B" d="M113 92.2501L116 86.2502V94.2502L113 100.25V92.2501Z"></path>
<path fill="#763927" d="M82.75 110.7L87.75 111.7V113.5L82.75 112.5V110.7Z"></path>
<path fill="#43221B" d="M87.75 111.7L88.5683 111.864L87.75 113.5V111.7Z"></path>
<path fill="#763927" d="M100.25 114.2L105.25 115.2V117L100.25 116V114.2Z"></path>
<path fill="#43221B" d="M105.25 115.2L106.068 115.364L105.25 117V115.2Z"></path>
<path fill="#D46841" d="M107.5 59.2505L112.5 60.2505L112.318 60.6137L107.318 59.6137L107.5 59.2505Z"></path>
<path fill="#43221B" d="M112.318 60.6137L112.5 60.2505V60.65L112.318 60.6137Z"></path>
<path fill="#D46841" d="M81 79.2504L82.9316 79.6367L79.9316 85.6366L78 85.2502L81 79.2504Z"></path>
<path fill="#763927" d="M78 85.2502L79.9316 85.6366L79.25 86.9998V93.5002L78 93.2502V85.2502Z"></path>
<path fill="#D46841" d="M89.25 90L96.75 91.5L95.75 93.5L88.25 92L89.25 90Z"></path>
<path fill="#43221B" d="M95.75 93.5L96.75 91.5V95.5001L95.75 97.25V93.5Z"></path>
<path fill="#832B21" d="M91.25 91.5506L93.75 92.0506L93.25 93L90.75 92.5L91.25 91.5506Z"></path>
<path fill="#763927" d="M88.25 92L95.75 93.5V97.25L88.25 95.75V92Z"></path>
<path fill="#450E25" d="M90.75 92.5L93.25 93V95L90.75 94.5V92.5Z"></path>
<path fill="#481818" d="M101.75 93.5002L104.25 94.0002V96.0002L101.75 95.5002V93.5002Z"></path>
<path fill="#481818" d="M81.75 89.5L84.25 90V92L81.75 91.5V89.5Z"></path>
<path fill="#FFFFFE" d="M81.75 94.5505L104.25 99.0505L103.25 101L80.75 96.4998L81.75 94.5505Z"></path>
<path fill="#5A577A" d="M103.25 101L104.25 99.0505V111L103.25 112.75V101Z"></path>
<path fill="#9794A9" d="M80.75 96.4998L103.25 101V112.75L96.25 111.35L80.75 108.25V96.4998Z"></path>
<path fill="#481818" d="M83.25 101L85.75 101.5V103.5L83.25 103V101Z"></path>
<path fill="#481818" d="M98.25 104L100.75 104.5V106.5L98.25 106V104Z"></path>
<path fill="#F8B775" d="M88.25 101L95.75 102.5L94.75 104.5L87.25 103L88.25 101Z"></path>
<path fill="#503937" d="M94.75 104.5L95.75 102.5V105.75L94.75 107.5V104.5Z"></path>
<path fill="#832B21" d="M90.25 102.551L92.75 103.051L92.25 104L89.75 103.5L90.25 102.551Z"></path>
<path fill="#9A6B37" d="M87.25 103L94.75 104.5V107.5L87.25 106V103Z"></path>
<path fill="#450E25" d="M89.75 103.5L92.25 104V106L89.75 105.5V103.5Z"></path>
<path fill="#8F8579" d="M80.75 100.5L83.25 101V103L85.75 103.5V101.5L80.75 100.5V98.5L88.25 100V101L87.25 103V105.8L80.75 104.5V100.5Z"></path>
<path fill="#9A6B37" d="M89 106.35L94 107.35V109.25L89 108.25V106.35Z"></path>
<path fill="#503937" d="M94 107.35L94.5 107.45V108.5L94 109.25V107.35Z"></path>
<path fill="#9C374F" d="M90.25 106.6L92.75 107.1V108L90.25 107.5V106.6Z"></path>
<path fill="#5D5D75" d="M90.75 110.25L93.25 110.75V112.75L90.75 112.25V110.25Z"></path>
<path fill="#40405A" d="M93.25 110.75L93.75 110.85V111.75L93.25 112.75V110.75Z"></path>
<path fill="#717092" d="M88.75 109.85L90.75 110.25V112.25L93.25 112.75L93.75 111.75V110.85L96.25 111.35V117.25L95 117V114L90 113V115L95 116V117L88.75 115.75V109.85Z"></path>
<path fill="#40405A" d="M96.25 111.35L96.75 111.45V116.25L96.25 117.25V111.35Z"></path>
<path fill="#40405A" d="M90 113L90.5 113.1V114L90 115V113Z"></path>
<path fill="#CFC6E3" d="M90.5 114L95 114.9V116L90 115L90.5 114Z"></path>
</svg>
