<svg xmlns="http://www.w3.org/2000/svg" fill="none" viewBox="0 0 400 400" height="400" width="400">
<path fill="#2B2950" d="M186 194L181 204V208L186 198V194Z"></path>
<path fill="#771D36" d="M171 198L181 200V204L171 202V198Z"></path>
<path fill="#474F7E" d="M197.001 144L197.001 140L179.001 176L179.001 180L197.001 144Z"></path>
<path fill="#474F7E" d="M197 168L197 164L179 200L179 204L197 168Z"></path>
<path fill="#430E20" d="M186 190L181 200V204L186 194V190Z"></path>
<path fill="#4B4575" d="M186 205L191 206V210L186 209V205Z"></path>
<path fill="#4B4575" d="M206 209L216 211V215L206 213V209Z"></path>
<path fill="#4B4575" d="M96.0001 187L181 204V208L96.0001 191V187Z"></path>
<path fill="#4B4575" d="M183 200L186 200.6V204.6L183 204V200Z"></path>
<path fill="#4B4575" d="M185 188L188 188.6V196.6L185 196V188Z"></path>
<path fill="#877EB7" d="M183 200L186 200.6L188 196.6L185 196L183 200Z"></path>
<path fill="#877EB7" d="M185 188L188 188.6L190 184.6L187 184L185 188Z"></path>
<path fill="#771D36" d="M186 181L200 153L230 159V183L216 211L186 205V181Z"></path>
<path fill="#851F2A" d="M186 181L216 187V207L186 201V181Z"></path>
<path fill="#4E121E" d="M216 187L230 159V179L216 207V187Z"></path>
<path fill="#48578E" d="M218 203L220 199V203L218 207V203Z"></path>
<path fill="#48578E" d="M226 187L228 183V187L226 191V187Z"></path>
<path fill="#000100" d="M216 191L230 163V171L216 199L201 196V188L216 191Z"></path>
<path fill="#000100" d="M191 202L206 205V213L207.818 213.364L206 217L191 214V202Z"></path>
<path fill="#000100" d="M156 195L171 198V206L172.818 206.364L171 210L156 207V195Z"></path>
<path fill="#000100" d="M101 184L116 187V195L117.818 195.364L116 199L101 196V184Z"></path>
<path fill="#879DD4" d="M196 207L201 208V212L196 211V207Z"></path>
<path fill="#879DD4" d="M161 200L166 201V205L161 204V200Z"></path>
<path fill="#879DD4" d="M106 189L111 190V194L106 193V189Z"></path>
<path fill="#7B85B8" d="M88.9991 186L89 158L179.001 176L179 204L88.9991 186Z"></path>
<path fill="#7B85B8" d="M88.9991 186L89 158L179.001 176L179 204L88.9991 186Z"></path>
<path fill="#430E20" d="M220 199L226 187V191L220 203V199Z"></path>
<path fill="#430E20" d="M228 183L230 179V183L228 187V183Z"></path>
<path fill="#430E20" d="M216 207L218 203V207L216 211V207Z"></path>
<path fill="#430E20" d="M209 202L211 198V206L209 210V202Z"></path>
<path fill="#2D294E" d="M216 211L230 183V187L216 215V211Z"></path>
<path fill="#F23845" d="M200 153L230 159L216 187L186 181L200 153Z"></path>
<path fill="#F23845" d="M206 197L211 198L209 202L204 201L206 197Z"></path>
<path fill="#F9FFFF" d="M198 149L208 151L198 171L188 169L198 149Z"></path>
<path fill="#F9FFFF" d="M208 155L213 156L203 176L198 175L208 155Z"></path>
<path fill="#F9FFFF" d="M107 122L197 140L179 176L89.0002 158L107 122Z"></path>
<path fill="#4D598B" d="M208 155L208 151L198 171L198 175L208 155Z"></path>
<path fill="#4D598B" d="M213 160L213 156L203 176L203 180L213 160Z"></path>
<path fill="#4D598B" d="M188 169L197 151L197 144L179 180L179 200L186 186V181L188 177V169Z"></path>
<path fill="#8A95CB" d="M188 177L203 180V176L198 175L198 171L188 169V177Z"></path>
<path fill="#8A95CB" d="M89.0002 182L179 200V180L89.0002 162V182Z"></path>
<path fill="#771D36" d="M204 201L209 202V210L204 209V201Z"></path>
</svg>
