<svg xmlns="http://www.w3.org/2000/svg" fill="none" viewBox="0 0 200 200" height="200" width="200">
<path fill="#673F62" d="M74.9986 78L104.999 84V112L74.9986 106V78Z"></path>
<path fill="#D989BC" d="M114.999 64L104.999 84L74.9986 78L84.9986 58L114.999 64Z"></path>
<path fill="#462E65" d="M74.9986 78V106L54.9986 102V74L74.9986 78Z"></path>
<path fill="#8B60BA" d="M84.9986 58L74.9986 78L54.9986 74L64.9986 54L84.9986 58Z"></path>
<path fill="#FBCFFF" d="M89.9986 101L85.9986 109L75.9986 107L79.9986 99L89.9986 101Z"></path>
<path fill="#79619B" d="M85.9986 109V113L75.9986 111V107L85.9986 109Z"></path>
<path fill="#6F5280" d="M89.9986 101V105L85.9986 113V109L89.9986 101Z"></path>
<path fill="#D989BC" d="M99.9986 91L97.9986 95L87.9986 93L89.9986 89L99.9986 91Z"></path>
<path fill="#673F62" d="M97.9986 95V107L87.9986 105V93L97.9986 95Z"></path>
<path fill="#552E49" d="M99.9986 91V103L97.9986 107V95L99.9986 91Z"></path>
<path fill="#7787D5" d="M97.9986 99V103L87.9986 101V97L97.9986 99Z"></path>
<path fill="#666398" d="M99.9986 95V99L97.9986 103V99L99.9986 95Z"></path>
<path fill="#42245A" d="M114.999 110V114L104.999 112V96L109.999 97V109L114.999 110Z"></path>
<path fill="#934FB2" d="M119.999 89L124.999 90L114.999 110L109.999 109L111.999 105V97L117.999 85V93L119.999 89Z"></path>
<path fill="#934FB2" d="M114.999 76L119.999 77L109.999 97L104.999 96L114.999 76Z"></path>
<path fill="#331A3F" d="M119.999 77V89L117.999 93V85L111.999 97V105L109.999 109V97L119.999 77Z"></path>
<path fill="#331A3F" d="M124.999 90V94L114.999 114V110L124.999 90Z"></path>
<path fill="#472C3D" d="M114.999 76L104.999 96V84L114.999 64V76Z"></path>
<path fill="#42245A" d="M117.999 89V93L114.362 92.2727L117.999 85V89Z"></path>
<path fill="#FBCFFF" d="M95.9986 61L93.9986 65L53.9986 57L55.9986 53L95.9986 61Z"></path>
<path fill="#79619B" d="M93.9986 65V73L58.9986 66L55.3622 73.2727L53.9986 73V57L93.9986 65Z"></path>
<path fill="#6F5280" d="M95.9986 61V69L93.9986 73V65L95.9986 61Z"></path>
<path fill="#462E65" d="M54.9986 77.6003V97.6003L51.9986 97.0004V77.0003L54.9986 77.6003Z"></path>
<path fill="#8B60BA" d="M55.3622 73.2727L54.9986 74V77.6003L51.9986 77.0003L53.9986 73L55.3622 73.2727Z"></path>
<path fill="#462E65" d="M51.9986 81V93L46.9986 92V80L51.9986 81Z"></path>
<path fill="#8B60BA" d="M53.9986 68.2V73L51.9986 77.0003V81L46.9986 80L52.9986 68L53.9986 68.2Z"></path>
<path fill="#79619B" d="M49 72V75.9972L46.9986 80V91.5997L29 88V68L49 72Z"></path>
<path fill="#FBCFFF" d="M51 68L49 72L29 68L31 64L51 68Z"></path>
<path fill="#6F5280" d="M49 75.9972V72L51 68L50.9986 72L49 75.9972Z"></path>
</svg>
