<svg xmlns="http://www.w3.org/2000/svg" fill="none" viewBox="0 0 200 200" height="200" width="200">
<path fill="#312C41" d="M80.0128 91L110.013 97V101L80.0128 95V91Z"></path>
<path fill="#2B2742" d="M80.0128 89L110.013 95V97L80.0128 91V89Z"></path>
<path fill="#211F2C" d="M83.5128 83.5L108.513 88.5V92.5L83.5128 87.5V83.5Z"></path>
<path fill="#191526" d="M108.513 88.5L116.513 72.5V76.5L108.513 92.5V88.5Z"></path>
<path fill="#434459" d="M83.5128 83.5L91.5128 67.5L116.513 72.5L108.513 88.5L83.5128 83.5Z"></path>
<path fill="#59536D" d="M80.0128 89L90.0128 69L90.6946 69.1364L83.5128 83.5V87.5L108.513 92.5L116.513 76.5V74.3L120.013 75L110.013 95L80.0128 89Z"></path>
<path fill="#221E35" d="M110.013 95L120.013 75V77L110.013 97V95Z"></path>
<path fill="#2B283B" d="M110.013 97L120.013 77V81L110.013 101V97Z"></path>
<path fill="#395B76" d="M68 82L82.1025 84.8205L80.0128 89V92.4025L68 90V82Z"></path>
<path fill="#7BC8E6" d="M68 82L72 74L86.1025 76.8205L82.1025 84.8205L68 82Z"></path>
<path fill="#798FDC" d="M70.5 84.5L73 85V87L70.5 86.5V84.5Z"></path>
<path fill="#263646" d="M70 104L82.5 106.5V110.5L70 108V104Z"></path>
<path fill="#1E273B" d="M82.5 106.5L84.5 102.5L82 102L85 96V100L83.8182 102.364L84.5 102.5V106.5L82.5 110.5V106.5Z"></path>
<path fill="#4E768F" d="M70 104L75 94L85 96L82 102L84.5 102.5L82.5 106.5L70 104Z"></path>
<path fill="#263E58" d="M85 96V100L86.8181 96.3636L85 96Z"></path>
<path fill="#263646" d="M85 74L87.2843 74.4569L86.1025 76.8205L85 76.6V74Z"></path>
<path fill="#1E273B" d="M101.047 69.4068L102.5 66.5V69.6974L101.047 69.4068Z"></path>
<path fill="#4E768F" d="M85 74L90 64L102.5 66.5L101.047 69.4068L91.5128 67.5L90.6946 69.1364L90.0128 69L87.2843 74.4569L85 74Z"></path>
<path fill="#263646" d="M109 103L124 106V110L109 107V103Z"></path>
<path fill="#1E273B" d="M124 106L127 100V104L124 110V106Z"></path>
<path fill="#4E768F" d="M109 103L112 97L127 100L124 106L109 103Z"></path>
<path fill="#263646" d="M118 85L133 88V92L118 89V85Z"></path>
<path fill="#1E273B" d="M133 88L136 82V86L133 92V88Z"></path>
<path fill="#4E768F" d="M118 85L121 79L136 82L133 88L118 85Z"></path>
<path fill="#35556C" d="M105.013 100V104L109 104.797V103L110.013 101L105.013 100Z"></path>
<path fill="#35556C" d="M116.193 88.6387L118 89V85L116.193 88.6387Z"></path>
</svg>
