<svg xmlns="http://www.w3.org/2000/svg" fill="none" viewBox="0 0 200 200" height="200" width="200">
<path fill="#9395AA" d="M82.7499 76.0001L106.5 80.7501V100.75L82.7499 96.0002V76.0001Z"></path>
<path fill="white" d="M94.7499 52L118.5 56.7503L106.5 80.7501L82.7499 76.0001L94.7499 52Z"></path>
<path fill="#575876" d="M118.5 56.7503V76.7504L106.5 100.75V80.7501L118.5 56.7503Z"></path>
<path fill="#9395AA" d="M95.7499 71.5001L99.4999 72.2501V78.2501L95.7499 77.5001V71.5001Z"></path>
<path fill="white" d="M99.7499 63.5003L103.5 64.2503L99.4999 72.2501L95.7499 71.5001L99.7499 63.5003Z"></path>
<path fill="#575876" d="M103.5 64.2503V70.2503L99.4999 78.2501V72.2501L103.5 64.2503Z"></path>
<path fill="#564845" d="M102.5 68.2502V72.2505L100.5 76.2504V72.2501L102.5 68.2502Z"></path>
<path fill="#9395AA" d="M102.75 57.4998L106.5 58.2498V64.2498L102.75 63.4998V57.4998Z"></path>
<path fill="white" d="M106.75 49.5L110.5 50.25L106.5 58.2498L102.75 57.4998L106.75 49.5Z"></path>
<path fill="#575876" d="M110.5 50.25V56.25L106.5 64.2498V58.2498L110.5 50.25Z"></path>
<path fill="#564845" d="M109.5 54.2499V58.2502L107.5 62.2501V58.2498L109.5 54.2499Z"></path>
<path fill="#9395AA" d="M105.25 67.5003L109 68.2503V70.2503L105.25 69.5003V67.5003Z"></path>
<path fill="white" d="M107.25 63.5005L111 64.2506L109 68.2503L105.25 67.5003L107.25 63.5005Z"></path>
<path fill="#575876" d="M111 64.2506V66.2506L109 70.2503V68.2503L111 64.2506Z"></path>
<path fill="#FFDB9F" d="M103.5 70.2503L111 71.7506L106.5 80.7501L92.7499 78.0001L95.7499 72.0001V77.5001L99.4999 78.2501L103.5 70.2503Z"></path>
<path fill="#957B63" d="M92.7499 78.0001L106.5 80.7501V87.7502L92.7499 85.0001V78.0001Z"></path>
<path fill="#564845" d="M106.5 80.7501L111 71.7506V78.7506L106.5 87.7502V80.7501Z"></path>
<path fill="#261326" d="M109.5 76.75V78.7502L108.5 80.7501V78.7499L109.5 76.75Z"></path>
<path fill="#261326" d="M117 61.7498V63.7501L116 65.7499V63.7497L117 61.7498Z"></path>
<path fill="#261326" d="M114.5 70.4998V72.5001L113.5 74.5V72.4997L114.5 70.4998Z"></path>
<path fill="#4B2031" d="M112.25 72.25L113.5 72.4997V74.5L112.25 74.25V72.25Z"></path>
<path fill="#843B4E" d="M113.25 70.2501L114.5 70.4998L113.5 72.4997L112.25 72.25L113.25 70.2501Z"></path>
<path fill="#564845" d="M107.5 86.7502L117.5 66.7506V76.7506L107.5 96.7502V86.7502Z"></path>
<path fill="#9395AA" d="M116.25 69.2505L117.5 66.7506V76.7506L116.25 76.5006V69.2505Z"></path>
<path fill="white" d="M116.25 76.5006L117.5 76.7506L107.5 96.7502V94.0004L116.25 76.5006Z"></path>
<path fill="#261326" d="M108.75 84.5V87.5003L107.75 89.5002V86.4999L108.75 84.5Z"></path>
<path fill="#261326" d="M115.25 71.5002V74.5005L114.25 76.5004V73.5001L115.25 71.5002Z"></path>
<path fill="#261326" d="M112.5 78.0001V80.0001L110.5 84V81.9999L111 81V82.0001L112 80.0001V79.0001L112.5 78.0001Z"></path>
<path fill="#373950" d="M115.75 84.8002V86.8004L114.75 88.8003V86.8L115.75 84.8002Z"></path>
<path fill="#5F6075" d="M112.25 86.3003L114.75 86.8V88.8003L112.25 88.3003V86.3003Z"></path>
<path fill="#ACABBB" d="M113.25 84.3004L115.75 84.8002L114.75 86.8L112.25 86.3003L113.25 84.3004Z"></path>
<path fill="#373950" d="M113.5 87.5003V88.5503L114.75 88.8003L115.75 86.8004V84.8002L115.5 84.7502V83.5001L114.932 84.6366L115.5 84.7502L115.75 84.8002V86.8004L115.5 87.3004V90.5005L112.5 96.5004V89.5002L113.5 87.5003Z"></path>
<path fill="#ACABBB" d="M114.25 83.2503L115.5 83.5001L114.932 84.6366L113.682 84.3867L114.25 83.2503Z"></path>
<path fill="#ACABBB" d="M112.25 87.2504L113.5 87.5003L112.5 89.5002L111.25 89.2503L112.25 87.2504Z"></path>
<path fill="#5F6075" d="M111.25 89.2503L112.5 89.5002V96.5004L111.25 96.2503V89.2503Z"></path>
<path fill="#ACABBB" d="M114.091 90.3188L115 90.5005L113 94.5004L113 92.5002L114.091 90.3188Z"></path>
<path fill="#5F6075" d="M113 92.5002L115 88.5004V90.5005L114.091 90.3188L113 92.5002Z"></path>
<path fill="#9395AA" d="M91.9999 97.8502L104.5 100.35V103.75L91.9999 101.25V97.8502Z"></path>
<path fill="#575876" d="M104.5 100.35L106.045 100.659L104.5 103.75V100.35Z"></path>
<path fill="#9395AA" d="M98.7499 102.6L101.25 103.1V105L102.5 105.25V106.25L98.7499 105.5V102.6Z"></path>
<path fill="#575876" d="M101.25 103.1L102.114 103.273L103.364 103.523L103.5 103.55V104.25L102.5 106.25V105.25L101.25 105V103.1Z"></path>
<path fill="white" d="M102.114 103.273L103.364 103.523L102.5 105.25L101.25 105L102.114 103.273Z"></path>
<path fill="#957B63" d="M98.0024 99.7505L100.5 100.25V104.25L98.0024 103.75V99.7505Z"></path>
<path fill="#564845" d="M100.5 100.25L100.818 99.6138L101.5 99.7502V102.25L100.5 104.25V100.25Z"></path>
<path fill="#9395AA" d="M98.2499 91.5002L102 92.2502V97.2502L98.2499 96.5002V91.5002Z"></path>
<path fill="white" d="M100.25 87.5004L104 88.2504L102 92.2502L98.2499 91.5002L100.25 87.5004Z"></path>
<path fill="#575876" d="M104 88.2504V93.2504L102 97.2502V92.2502L104 88.2504Z"></path>
<path fill="#9395AA" d="M98.7499 96.6002L102 97.2502L102.045 97.1591L102.5 97.25V100.25L98.7499 99.5V96.6002Z"></path>
<path fill="white" d="M102 97.2502L103.545 94.1593L104 94.2502L102.5 97.25L102.045 97.1591L102 97.2502Z"></path>
<path fill="#575876" d="M104 94.2502V97.2502L102.5 100.25V97.25L104 94.2502Z"></path>
</svg>
