<svg xmlns="http://www.w3.org/2000/svg" fill="none" viewBox="0 0 200 200" height="200" width="200">
<path fill="white" d="M98 129H103V130H104V133H103V134H104V137H102V135H101V134H100V132H102V131H100V132V134V137H98V129Z"></path>
<path fill="white" d="M91 130H92V129H96V130H97V137H95V131H93V132H95V134H93V135V137H92H91V136V130Z"></path>
<path fill="white" d="M83 129H85V130H86V131H87V130H88V129H90V137H88V133H87V134H86V133H85V137H83V129Z"></path>
<path fill="white" d="M112 130H113V129H117V130H118V131H116H114V135H116V131H118V136H117V137H113V136H112V130Z"></path>
<path fill="white" d="M105 130V129H106H111V131H109V135H111V137H105V135H107V131H105V130Z"></path>
<path fill="#CC1515" d="M89.1673 67.3332L104.167 70.3331L104.167 74.3331L102.834 76.9998V78.3335L104.167 75.6669V76.9998V86.3331L89.1673 83.3331V67.3332Z"></path>
<path fill="#7F0D0D" d="M104.167 70.3331L108.167 62.3332L108.167 63.6665L109.501 61.0003V62.3332L110.167 60.9999V74.3331L104.167 86.3331V76.9998V75.6669L102.834 78.3335V76.9998L104.167 74.3331L104.167 70.3331Z"></path>
<path fill="#FF1B1B" d="M95.1672 58L110.167 60.9999L109.501 62.3332V61.0003L108.167 63.6665L108.167 62.3332L104.167 70.3331L89.1673 67.3332L93.1672 59.3333L93.7732 59.4548L94.5004 58.0003L95.1065 58.1215L95.1672 58Z"></path>
<path fill="#FFB88C" d="M89.1673 73.9999V75.6003L102.834 78.3335L103.561 76.8786L104.167 76.9998V86.3331L89.1673 83.3331V73.9999Z"></path>
<path fill="#AA6F5A" d="M104.167 76.9998L108.167 68.9999V70.3331L109.501 67.6666V69.0003L110.167 67.6666V74.3331L104.167 86.3331V76.9998Z"></path>
<path fill="#CCCCCC" d="M94.1672 69.667L99.1672 70.667V73.3336L94.1672 72.3336V69.667Z"></path>
<path fill="#FF1B1B" d="M89.1671 71.3333L104.167 74.3331L102.834 76.9998L87.8338 73.9998L89.1671 71.3333Z"></path>
<path fill="#CC1515" d="M87.8338 73.9998L102.834 76.9998V78.3335L87.8338 75.3336V73.9998Z"></path>
<path fill="#AA6F5A" d="M111.5 72.3336V76.3336L110.167 79.0002V75.0002L111.5 72.3336Z"></path>
<path fill="#FFB88C" d="M110.167 75.0002V79.0002L106.834 78.3335V74.3336L110.167 75.0002Z"></path>
<path fill="#FFD9B1" d="M111.5 72.3336L110.167 75.0002L106.834 74.3336L108.167 71.6669L111.5 72.3336Z"></path>
<path fill="#B17762" d="M108.501 76.0002V77.3336L106.834 77.0002V75.6669L108.501 76.0002Z"></path>
<path fill="#32120E" d="M108.167 68.9999V70.3331L109.501 67.6666V69.0003L110.167 67.6666V72.067L108.167 71.6669L106.834 74.3336V75.6669L106.167 76.9998V72.9999L108.167 68.9999Z"></path>
<path fill="#AA6F5A" d="M99.1671 79.9998V82.6664L97.8338 85.3331V82.6664L99.1671 79.9998Z"></path>
<path fill="#FFB88C" d="M97.8338 82.6664V85.3331L92.8338 84.3331V81.6664L97.8338 82.6664Z"></path>
<path fill="#FFD9B1" d="M99.1671 79.9998L97.8338 82.6664L92.8338 81.6664L94.1671 78.9998L99.1671 79.9998Z"></path>
<path fill="#CCCCCC" d="M100.834 77.9336V81.6669L99.1671 81.3334V79.9998L97.5009 79.6669V77.267L100.834 77.9336Z"></path>
<path fill="#CCCCCC" d="M95.8342 76.9337V79.3335L94.1671 79.0001V78.9998L93.5609 80.2123L92.501 80.0002V76.267L95.8342 76.9337Z"></path>
<path fill="#2766D1" d="M94.1671 76.9998L95.8342 77.3336V79.3335L94.1671 78.9998V76.9998Z"></path>
<path fill="#2766D1" d="M97.5009 77.6669L99.168 78.0007V80.0006L97.5009 79.6669V77.6669Z"></path>
<path fill="#CC1515" d="M90.5002 85.0663L92.1672 85.3997L92.8338 84.3331L97.8338 85.3331L98.5002 84L100.168 84.3335V85.6668V87.0002L100.774 85.788L101.834 86.0002L101.895 85.8786L104.167 86.3331L104.894 84.879L105.5 85.0001V102.333L90.5002 99.3334V85.0663Z"></path>
<path fill="#7F0D0D" d="M105.5 85.0001L107.985 80.0305L110.167 79.0002L109.5 105L106.833 110.333V99.6668L105.5 102.333V85.0001Z"></path>
<path fill="#FF1B1B" d="M110.167 79.0002L107.985 80.0305L105.5 85.0001L104.894 84.879L104.167 86.3331L108.046 78.576L110.167 79.0002Z"></path>
<path fill="#1E56D4" d="M105.5 89.0001V102.333L90.5002 99.3334V86.0001L92.1676 86.3335L92.1672 85.3997L95.5009 86.0668V86.3332V87.0002L100.501 88.0002V87.0665L100.501 86.3331L100.774 85.788L101.834 86.0002L101.895 85.8786L104.167 86.3331L103.834 86.2665V86.999V88.6668L105.5 89.0001Z"></path>
<path fill="#FEDD34" d="M95.5009 87.0002V89.6668L92.1676 89.0002V86.3335L95.5009 87.0002Z"></path>
<path fill="#FEDD34" d="M103.834 88.6668V91.3335L100.501 90.6668V88.0002L103.834 88.6668Z"></path>
<path fill="#12349E" d="M110.167 79.0002L109.5 105L106.833 110.333V99.6668L105.5 102.334V89.0006L108.834 82.3335V81.0002L109.198 80.273L110.167 79.0002Z"></path>
<path fill="#1E56D4" d="M100.166 101.267L105.5 102.334L106.833 99.6668V110.333L100.166 109V101.267Z"></path>
<path fill="#1E56D4" d="M91.8333 99.6L98.5004 100.934V108.666L91.8333 107.332V99.6Z"></path>
<path fill="#12349E" d="M98.5004 100.934L100.166 101.267L100.168 105.333L98.5004 108.666V100.934Z"></path>
<path fill="#502D2C" d="M109.5 105V109L105.5 117V114.333L106.833 111.667V110.333L109.5 105Z"></path>
<path fill="#874633" d="M106.833 110.333V111.667L105.5 114.333V117L98.833 115.666V113L100.166 110.333V109L106.833 110.333Z"></path>
<path fill="#D37753" d="M106.833 111.667L105.5 114.333L98.833 113L100.166 110.333L106.833 111.667Z"></path>
<path fill="#502D2C" d="M100.168 105.333L100.166 109.335L97.1673 115.333V112.667L98.5006 110V108.667L100.168 105.333Z"></path>
<path fill="#874633" d="M98.5006 108.667V110L97.1673 112.667V115.333L90.5002 114V111.333L91.8335 108.667V107.333L98.5006 108.667Z"></path>
<path fill="#D37753" d="M98.5006 110L97.1673 112.667L90.5002 111.333L91.8335 108.667L98.5006 110Z"></path>
<path fill="#7F0D0D" d="M114.668 79.5002V91.5001L112.668 95.5001V83.5002L114.668 79.5002Z"></path>
<path fill="#CC1515" d="M112.668 83.5002V95.5001L107.668 94.4996V86.4996L106.834 86.3341V82.3341L112.668 83.5002Z"></path>
<path fill="#FF1B1B" d="M114.668 79.5002L112.668 83.5002L106.834 82.3341L107.985 80.0305L110.167 79.0002L110.348 78.6371L114.668 79.5002Z"></path>
<path fill="#7F7F7F" d="M114.668 91.5001V95.5001L112.668 99.5001V95.5001L114.668 91.5001Z"></path>
<path fill="#CBCBCB" d="M112.668 95.5001V99.5001L107.668 98.4995V94.4996L112.668 95.5001Z"></path>
<path fill="#261F24" d="M90.1676 81.0002L91.8343 81.3335V82.6669L92.8338 82.8668V84.3331L97.8338 85.3331L98.5002 84L100.168 84.3335V83.0002L101.834 83.3335V86.0002L100.168 85.6668V87.0002L91.8343 85.3335V84.0002L90.1676 83.6669V81.0002Z"></path>
<path fill="#533A41" d="M90.8343 79.6669L92.501 80.0002L91.8343 81.3335L90.1676 81.0002L90.8343 79.6669Z"></path>
<path fill="#533A41" d="M92.5009 81.3335L92.9549 81.4243L92.8338 81.6664V84.3331L97.8338 85.3331L99.1671 82.6664L100.228 82.879L100.168 83.0002V84.3335L98.5002 84L97.8338 85.3331L92.8338 84.3331V82.8668L91.8343 82.6669L92.5009 81.3335Z"></path>
<path fill="#533A41" d="M100.834 81.6669L102.501 82.0002L101.834 83.3335L100.168 83.0002L100.834 81.6669Z"></path>
<path fill="#04040A" d="M102.501 82.0002V84.6668L101.834 86.0002V83.3335L102.501 82.0002Z"></path>
<path fill="#04040A" d="M92.501 80.0002L92.5009 81.3335L91.8343 82.6669V81.3335L92.501 80.0002Z"></path>
<path fill="#04040A" d="M100.774 85.788L100.168 87.0002V85.6668L100.774 85.788Z"></path>
<path fill="#FFB88C" d="M89.1673 70.8003L89.1671 71.3333L88.5005 72.6665V70.6669L89.1673 70.8003Z"></path>
<path fill="#FFD9B1" d="M89.1673 69.3333V70.8003L88.5005 70.6669L89.1673 69.3333Z"></path>
<path fill="#7F0D0D" d="M90.5002 85.0663V91.0683V91.0673V85.0663Z"></path>
<path fill="#CC1515" d="M89.1673 78.8V83.3331L90.1676 83.5331V83.6669L91.8343 84.0002V85.3335L90.5002 85.0663V91.0673L86 90.1668V78.1669L89.1673 78.8Z"></path>
<path fill="#FF1B1B" d="M87.8338 73.9998V75.3336L89.1673 75.6003V78.8L86 78.1669L87.8338 74.5002L87.8339 74.0002L87.8338 73.9998Z"></path>
<path fill="#7F7F7F" d="M90.5002 91.0683V95.0673V91.0673V91.0683Z"></path>
<path fill="#CBCBCB" d="M90.5002 91.0673V95.0673L86 94.1668V90.1668L90.5002 91.0673Z"></path>
</svg>
