<svg xmlns="http://www.w3.org/2000/svg" fill="none" viewBox="0 0 200 200" height="200" width="200">
<path fill="#545A5D" d="M27 80.5L39.5 83V89L37 88.5V84.5L29.5 83V85L37 86.5V88.5L27 86.5V80.5Z"></path>
<path fill="#B4B4B4" d="M28 78.5L40.5 81L39.5 83L27 80.5L28 78.5Z"></path>
<path fill="#B4B4B4" d="M30.4091 83.1818L37 84.5V86.5L29.5 85L30.4091 83.1818Z"></path>
<path fill="#2E2E36" d="M40.5 81V87L39.5 89V83L40.5 81Z"></path>
<path fill="#2E2E36" d="M30.4091 83.1818L29.5 85V83L30.4091 83.1818Z"></path>
<path fill="#545A5D" d="M34.5 84L44.5 86L45.5 84L40.5 83V81L36.4091 80.1818L36.5 80L49 82.5L46 88.5L33.5 86L34.5 84Z"></path>
<path fill="#2E2E36" d="M49 82.5V84.5L46 90.5V88.5L49 82.5Z"></path>
<path fill="#B4B4B4" d="M46 88.5V90.5L33.5 88V86L46 88.5Z"></path>
<path fill="#B4B4B4" d="M45.5 84L44.5909 85.8182L40.5 85V83L45.5 84Z"></path>
<path fill="#545A5D" d="M42 83.5L54.5 86V92L52 91.5V87.5L47.9091 86.6818L47 88.5L52 89.5V91.5L46.0909 90.3182L47 88.5L47.9091 86.6818L44.5 86L42 85.5V83.5Z"></path>
<path fill="#B4B4B4" d="M43 81.5L55.5 84L54.5 86L42 83.5L43 81.5Z"></path>
<path fill="#B4B4B4" d="M47.9091 86.6818L52 87.5V89.5L47 88.5L47.9091 86.6818Z"></path>
<path fill="#2E2E36" d="M55.5 84V90L54.5 92V86L55.5 84Z"></path>
<path fill="#545A5D" d="M49.5 87L59.5 89L60.5 87L55.5 86V84L51.4091 83.1818L51.5 83L64 85.5L61 91.5L48.5 89L49.5 87Z"></path>
<path fill="#2E2E36" d="M64 85.5V87.5L61 93.5V91.5L64 85.5Z"></path>
<path fill="#B4B4B4" d="M61 91.5V93.5L48.5 91V89L61 91.5Z"></path>
<path fill="#B4B4B4" d="M60.5 87L59.5909 88.8182L55.5 88V86L60.5 87Z"></path>
<path fill="#545A5D" d="M57 86.5L69.5 89V95L67 94.5V90.5L62.9091 89.6818L62 91.5L67 92.5V94.5L61.0909 93.3182L62 91.5L62.9091 89.6818L59.5 89L57 88.5V86.5Z"></path>
<path fill="#B4B4B4" d="M58 84.5L70.5 87L69.5 89L57 86.5L58 84.5Z"></path>
<path fill="#B4B4B4" d="M62.9091 89.6818L67 90.5V92.5L62 91.5L62.9091 89.6818Z"></path>
<path fill="#2E2E36" d="M70.5 87V93L69.5 95V89L70.5 87Z"></path>
<path fill="#545A5D" d="M64.5 90L74.5 92L75.5 90L70.5 89V87L66.4091 86.1818L66.5 86L79 88.5L76 94.5L63.5 92L64.5 90Z"></path>
<path fill="#2E2E36" d="M79 88.5V90.5L76 96.5V94.5L79 88.5Z"></path>
<path fill="#B4B4B4" d="M76 94.5V96.5L63.5 94V92L76 94.5Z"></path>
<path fill="#B4B4B4" d="M75.5 90L74.5909 91.8182L70.5 91V89L75.5 90Z"></path>
<path fill="#545A5D" d="M72 89.5L84.5 92V98L82 97.5V93.5L77.9091 92.6818L77 94.5L82 95.5V97.5L76.0909 96.3182L77 94.5L77.9091 92.6818L74.5 92L72 91.5V89.5Z"></path>
<path fill="#B4B4B4" d="M73 87.5L85.5 90L84.5 92L72 89.5L73 87.5Z"></path>
<path fill="#B4B4B4" d="M77.9091 92.6818L82 93.5V95.5L77 94.5L77.9091 92.6818Z"></path>
<path fill="#2E2E36" d="M85.5 90V96L84.5 98V92L85.5 90Z"></path>
<path fill="#2C3864" d="M79 85L109 91V93L106.5 92.5V94.5L104 94V96L101.5 95.5V97.5L99 97V99L96.5 98.5V102.5L99 103V105L101.5 105.5V107.5L104 108V110L106.5 110.5V112.5L109 113V115L79 109V85Z"></path>
<path fill="#202841" d="M109 91L121 67V69L109 93L113.727 83.5455L116 84V86L118.5 86.5V88.5L121 89V91L109 115V113L106.5 112.5V110.5L104 110V108L101.5 107.5V105.5L99 105V103L96.5 102.5V98.5L99 99V97L101.5 97.5V95.5L104 96V94L106.5 94.5V92.5L109 93V91Z"></path>
<path fill="#35467E" d="M79 85L91 61L121 67L109 91L79 85Z"></path>
<path fill="#35467E" d="M106.5 112.5L118.5 88.5L121 89L109 113L106.5 112.5Z"></path>
<path fill="#35467E" d="M104 110L105 108L107.5 108.5L106.5 110.5L104 110Z"></path>
<path fill="#35467E" d="M101.5 107.5L102.5 105.5L105 106L104 108L101.5 107.5Z"></path>
<path fill="#35467E" d="M99 105L100 103L102.5 103.5L101.5 105.5L99 105Z"></path>
<path fill="#35467E" d="M96.5 102.5L97.5 100.5L100 101L99 103L96.5 102.5Z"></path>
<path fill="#35467E" d="M115 88L116 86L118.5 86.5L117.5 88.5L115 88Z"></path>
<path fill="#35467E" d="M112.727 85.5455L113.727 83.5455L116 84L115 86L112.727 85.5455Z"></path>
<path fill="#D9D9D9" d="M91.5 95.5V89.5L96.5 90.5V96.5L91.5 95.5Z"></path>
<path fill="#1B1B1B" d="M92.75 94.75V90.75L95.25 91.25V95.25L92.75 94.75Z"></path>
<path fill="#D9D9D9" d="M94 92V91L95.25 91.25V92.25L94 92Z"></path>
<path fill="#2E0000" d="M105 108V106L102.5 105.5V103.5L100 103V101L97.5 100.5V98.7L99 99L99.9091 97.1818L101.5 97.5L102.409 95.6818L104 96L104.909 94.1818L106.5 94.5L107.409 92.6818L109 93L112.727 85.5455L115 86V88L117.5 88.5V90.5L107.5 110.5V108.5L105 108Z"></path>
<path fill="#989898" d="M115.5 94.5V92.5L116 91.5V89.5L117 87.5V89.5L117.5 88.5V90.5L115.5 94.5Z"></path>
<path fill="white" d="M113 92L113.5 91V89L114.5 87L117 87.5V88.4L117.5 88.5L117 89.5V87.5L116 89.5V91.5L115.5 92.5L113 92Z"></path>
<path fill="#D8D8D8" d="M116 91.5V89.5L113.5 89V91L116 91.5Z"></path>
<path fill="white" d="M110 98L110.5 97V94L111 93V90L112 88L114.5 88.5L113.5 90.5V93.5L113 94.5V97.5L112.5 98.5L110 98Z"></path>
<path fill="#989898" d="M112.5 100.5V98.5L113 97.5V94.5L113.5 93.5V90.5L114.5 88.5V91.5L115 90.5V93.5L115.5 92.5V94.5L112.5 100.5Z"></path>
<path fill="white" d="M115 93.5V92.4L115.5 92.5L115 93.5Z"></path>
<path fill="white" d="M114.5 91.5V90.4L115 90.5L114.5 91.5Z"></path>
<path fill="#D8D8D8" d="M113.5 93.5V90.5L111 90V93L113.5 93.5Z"></path>
<path fill="#D8D8D8" d="M113 97.5V94.5L110.5 94V97L113 97.5Z"></path>
<path fill="white" d="M107 104L107.5 103V100L108 99V96L109 94L111.5 94.5L110.5 96.5V99.5L110 100.5V103.5L109.5 104.5L107 104Z"></path>
<path fill="#989898" d="M109.5 106.5V104.5L110 103.5V100.5L110.5 99.5V96.5L111.5 94.5V97.5L112 96.5V99.5L112.5 98.5V100.5L109.5 106.5Z"></path>
<path fill="white" d="M112 99.5V98.4L112.5 98.5L112 99.5Z"></path>
<path fill="white" d="M111.5 97.5V96.4L112 96.5L111.5 97.5Z"></path>
<path fill="#D8D8D8" d="M110.5 99.5V96.5L108 96V99L110.5 99.5Z"></path>
<path fill="#D8D8D8" d="M110 103.5V100.5L107.5 100V103L110 103.5Z"></path>
<path fill="#989898" d="M107.5 110.5V108.5L108 107.5V105.5L109 103.5V105.5L109.5 104.5V106.5L107.5 110.5Z"></path>
<path fill="white" d="M105 108L105.5 107V105L106.5 103L109 103.5V104.4L109.5 104.5L109 105.5V103.5L108 105.5V107.5L107.5 108.5L105 108Z"></path>
<path fill="#D8D8D8" d="M108 107.5V105.5L105.5 105V107L108 107.5Z"></path>
<path fill="#989898" d="M113.5 84L114.5 82V84.5L113.5 86.5V84Z"></path>
<path fill="#D8D8D8" d="M113.5 86.5V84L112.364 86.2727L113.5 86.5Z"></path>
<path fill="#989898" d="M110.5 90L111.5 88V90.5L110.5 92.5V90Z"></path>
<path fill="#D8D8D8" d="M110.5 92.5V90L109.364 92.2727L110.5 92.5Z"></path>
</svg>
