<svg xmlns="http://www.w3.org/2000/svg" fill="none" viewBox="0 0 400 300" height="300" width="400">
<path fill="#6F7D30" d="M91 126L97.6667 127.333V131.333L91 130V126Z"></path>
<path fill="#E3FC6A" d="M93 122L99.6667 123.333L97.6667 127.333L91 126L93 122Z"></path>
<path fill="#576311" d="M99.6667 123.333V127.333L97.6667 131.333V127.333L99.6667 123.333Z"></path>
<path fill="#6877B2" d="M91 126L92.6667 126.333V130.333L91 130V126Z"></path>
<path fill="#DAF1EB" d="M93 122L94.6667 122.333L92.6667 126.333L91 126L93 122Z"></path>
<path fill="#88D27F" d="M99 126L100.667 126.333L100 127.667L98.3333 127.333L99 126Z"></path>
<path fill="#365D2E" d="M98.3333 127.333L100 127.667V126.333L101.667 126.667V130.667L100 130.333V129L98.3333 128.667V127.333Z"></path>
<path fill="#88D27F" d="M100.667 125L102.333 125.333L101.667 126.667L100 126.333L100.667 125Z"></path>
<path fill="#064228" d="M102.333 125.333V129.333L101.667 130.667V126.667L102.333 125.333Z"></path>
<path fill="#365D2E" d="M92.6667 129L96 129.667V131L92.6667 130.333V129Z"></path>
<path fill="#6C1A63" d="M133 90L139.667 91.3333V95.3333L133 94V90Z"></path>
<path fill="#E238CE" d="M135 86L141.667 87.3333L139.667 91.3333L133 90L135 86Z"></path>
<path fill="#4F0D55" d="M141.667 87.3333V91.3333L139.667 95.3333V91.3333L141.667 87.3333Z"></path>
<path fill="#537246" d="M133 90L134.667 90.3333V94.3333L133 94V90Z"></path>
<path fill="#C0FF90" d="M135 86L136.667 86.3333L134.667 90.3333L133 90L135 86Z"></path>
<path fill="#604DE7" d="M141 90L142.667 90.3333L142 91.6667L140.333 91.3333L141 90Z"></path>
<path fill="#342381" d="M140.333 91.3333L142 91.6667V90.3333L143.667 90.6667V94.6667L142 94.3333V93L140.333 92.6667V91.3333Z"></path>
<path fill="#604DE7" d="M142.667 89L144.333 89.3333L143.667 90.6667L142 90.3333L142.667 89Z"></path>
<path fill="#0E215B" d="M144.333 89.3333V93.3333L143.667 94.6667V90.6667L144.333 89.3333Z"></path>
<path fill="#342381" d="M134.667 93L138 93.6667V95L134.667 94.3333V93Z"></path>
<path fill="#1C213E" d="M185 122L191.667 123.333V127.333L185 126V122Z"></path>
<path fill="#3E4B7D" d="M187 118L193.667 119.333L191.667 123.333L185 122L187 118Z"></path>
<path fill="#000828" d="M193.667 119.333V123.333L191.667 127.333V123.333L193.667 119.333Z"></path>
<path fill="#7C4D33" d="M185 122L186.667 122.333V126.333L185 126V122Z"></path>
<path fill="#FD9F6C" d="M187 118L188.667 118.333L186.667 122.333L185 122L187 118Z"></path>
<path fill="#53A6EC" d="M193 122L194.667 122.333L194 123.667L192.333 123.333L193 122Z"></path>
<path fill="#1B58B5" d="M192.333 123.333L194 123.667V122.333L195.667 122.667V126.667L194 126.333V125L192.333 124.667V123.333Z"></path>
<path fill="#53A6EC" d="M194.667 121L196.333 121.333L195.667 122.667L194 122.333L194.667 121Z"></path>
<path fill="#122D69" d="M196.333 121.333V125.333L195.667 126.667V122.667L196.333 121.333Z"></path>
<path fill="#1B58B5" d="M186.667 125L190 125.667V127L186.667 126.333V125Z"></path>
<path fill="#3873EB" d="M35 104L41.6667 105.333V109.333L35 108V104Z"></path>
<path fill="#79F8FF" d="M37 100L43.6667 101.333L41.6667 105.333L35 104L37 100Z"></path>
<path fill="#2C4BA1" d="M43.6667 101.333V105.333L41.6667 109.333V105.333L43.6667 101.333Z"></path>
<path fill="#3A89F1" d="M35 104L36.6667 104.333V108.333L35 108V104Z"></path>
<path fill="#7AFCFE" d="M37 100L38.6667 100.333L36.6667 104.333L35 104L37 100Z"></path>
<path fill="#57ACFF" d="M43 104L44.6667 104.333L44 105.667L42.3333 105.333L43 104Z"></path>
<path fill="#0943AF" d="M42.3333 105.333L44 105.667V104.333L45.6667 104.667V108.667L44 108.333V107L42.3333 106.667V105.333Z"></path>
<path fill="#57ACFF" d="M44.6667 103L46.3333 103.333L45.6667 104.667L44 104.333L44.6667 103Z"></path>
<path fill="#1A2C74" d="M46.3333 103.333V107.333L45.6667 108.667V104.667L46.3333 103.333Z"></path>
<path fill="#0943AF" d="M36.6667 107L40 107.667V109L36.6667 108.333V107Z"></path>
</svg>
