<svg xmlns="http://www.w3.org/2000/svg" fill="none" viewBox="0 0 400 400" height="400" width="400">
<path fill="#035E93" d="M168 185L178 165L233 176V188L223 208L168 197V185Z"></path>
<path fill="#0D73A4" d="M168 185L223 196V200L218 199V203L168 193V185Z"></path>
<path fill="#857AB6" d="M203 188L208 189L206 193L201 192L203 188Z"></path>
<path fill="#857AB6" d="M218 164.6L220 165L218 169V164.6Z"></path>
<path fill="#48578E" d="M223 200L225 196V200L223 204V200Z"></path>
<path fill="#48578E" d="M231 184L233 180V184L231 188V184Z"></path>
<path fill="#55588F" d="M208 181L218 161V173L216 177V169L210 181V189L208 193V181Z"></path>
<path fill="#055283" d="M170 177L175 178V182L170 181V177Z"></path>
<path fill="#012F67" d="M175 178L182 164V168L175 182V178Z"></path>
<path fill="#F9FFFF" d="M188 155L218 161L208 181L178 175L188 155Z"></path>
<path fill="#0495DB" d="M177 163L182 164L175 178L170 177L177 163Z"></path>
<path fill="#000100" d="M210 181L216 169V177L210 189V181Z"></path>
<path fill="#000100" d="M201.182 191.636L203 188V184L183 180V188L201.182 191.636Z"></path>
<path fill="#000100" d="M203 200L218 203V211H220L218 215L203 212V200Z"></path>
<path fill="#000100" d="M173 194L188 197V205H190L188 209L173 206V194Z"></path>
<path fill="#282750" d="M206 193L208 189V197L206 201V193Z"></path>
<path fill="#282750" d="M218 169L220 165V173L218 177V169Z"></path>
<path fill="#181319" d="M188 189V181L183 180V188L188 189Z"></path>
<path fill="#4B4575" d="M201 192L206 193V201L201 200V192Z"></path>
<path fill="#4B4575" d="M168 197L173 198V202L168 201V197Z"></path>
<path fill="#4B4575" d="M188 201L203 204V208L188 205V201Z"></path>
<path fill="#4B4575" d="M218 207L223 208V212L218 211V207Z"></path>
<path fill="#033A63" d="M225 200L231 188L233 184V188L223 208V204L225 200Z"></path>
<path fill="#074679" d="M225 192V196L223 200V196L225 192Z"></path>
<path fill="#074679" d="M233 176V180L231 184V180L233 176Z"></path>
<path fill="#013464" d="M225 192L231 180V188L225 200V192Z"></path>
<path fill="#2D294E" d="M223 208L233 188V192L223 212V208Z"></path>
<path fill="#14D0FF" d="M218 173L233 176L223 196L208 193L218 173Z"></path>
<path fill="#14D0FF" d="M175 182L178 176V187L168 185L170 181L175 182Z"></path>
<path fill="#05A9EC" d="M216 177L231 180L225 192L210 189L216 177Z"></path>
<path fill="#05A9EC" d="M178 176L180 183L175 182L178 176Z"></path>
<path fill="#879DD4" d="M218 199L223 200V204L218 203V199Z"></path>
<path fill="#879DD4" d="M178 199L183 200V204L178 203V199Z"></path>
<path fill="#879DD4" d="M208 205L213 206V210L208 209V205Z"></path>
<path fill="#8C95CE" d="M178 175L208 181V189L203 188V184L183 180V188L178 187V175Z"></path>
</svg>
