<svg version="1.1" xmlns="http://www.w3.org/2000/svg" xmlns:xlink="http://www.w3.org/1999/xlink" width="480" height="360" viewBox="0,0,480,360"><g stroke-miterlimit="10"><path d="M0,360v-360h480v360z" fill="#6acdec" stroke="none" stroke-width="1"/><path d="M227,110h1v-1v-1h224v1v1h1h1v140h-1h-1v1v1h-224v-1v-1h-1h-1v-140z" fill="#27224b" stroke="#ffffff" stroke-width="2"/><path d="M229,113h2v-2h4v2h-2v2h-2v2h-2z" fill="#ff7700" stroke="none" stroke-width="1"/><path d="M229,121h2v-2h2v-2h2v4h-2v2h-2v2h-2z" fill="#ff7700" stroke="none" stroke-width="1"/><path d="M229,129h2v-2h2v-2h2v4h-2v2h-2v2h-2z" fill="#ff7700" stroke="none" stroke-width="1"/><path d="M229,137h2v-2h2v-2h2v4h-2v2h-2v2h-2z" fill="#ff7700" stroke="none" stroke-width="1"/><path d="M229,145h2v-2h2v-2h2v4h-2v2h-2v2h-2z" fill="#ff7700" stroke="none" stroke-width="1"/><path d="M229,153h2v-2h2v-2h2v4h-2v2h-2v2h-2z" fill="#ff7700" stroke="none" stroke-width="1"/><path d="M229,161h2v-2h2v-2h2v4h-2v2h-2v2h-2z" fill="#ff7700" stroke="none" stroke-width="1"/><path d="M229,169h2v-2h2v-2h2v4h-2v2h-2v2h-2z" fill="#ff7700" stroke="none" stroke-width="1"/><path d="M229,177h2v-2h2v-2h2v4h-2v2h-2v2h-2z" fill="#ff7700" stroke="none" stroke-width="1"/><path d="M229,185h2v-2h2v-2h2v4h-2v2h-2v2h-2z" fill="#ff7700" stroke="none" stroke-width="1"/><path d="M229,193h2v-2h2v-2h2v4h-2v2h-2v2h-2z" fill="#ff7700" stroke="none" stroke-width="1"/><path d="M229,201h2v-2h2v-2h2v4h-2v2h-2v2h-2z" fill="#ff7700" stroke="none" stroke-width="1"/><path d="M229,209h2v-2h2v-2h2v4h-2v2h-2v2h-2z" fill="#ff7700" stroke="none" stroke-width="1"/><path d="M229,217h2v-2h2v-2h2v4h-2v2h-2v2h-2z" fill="#ff7700" stroke="none" stroke-width="1"/><path d="M229,225h2v-2h2v-2h2v4h-2v2h-2v2h-2z" fill="#ff7700" stroke="none" stroke-width="1"/><path d="M229,233h2v-2h2v-2h2v4h-2v2h-2v2h-2z" fill="#ff7700" stroke="none" stroke-width="1"/><path d="M229,241h2v-2h2v-2h2v4h-2v2h-2v2h-2z" fill="#ff7700" stroke="none" stroke-width="1"/><path d="M231,249v-2h2v-2h2v4z" fill="#ff7700" stroke="none" stroke-width="1"/><path d="M451,117h-2v-2h-2v-2h-2v-2h4v2h2z" fill="#ff7700" stroke="none" stroke-width="1"/><path d="M451,125h-2v-2h-2v-2h-2v-4h2v2h2v2h2z" fill="#ff7700" stroke="none" stroke-width="1"/><path d="M451,133h-2v-2h-2v-2h-2v-4h2v2h2v2h2z" fill="#ff7700" stroke="none" stroke-width="1"/><path d="M451,141h-2v-2h-2v-2h-2v-4h2v2h2v2h2z" fill="#ff7700" stroke="none" stroke-width="1"/><path d="M451,149h-2v-2h-2v-2h-2v-4h2v2h2v2h2z" fill="#ff7700" stroke="none" stroke-width="1"/><path d="M451,157h-2v-2h-2v-2h-2v-4h2v2h2v2h2z" fill="#ff7700" stroke="none" stroke-width="1"/><path d="M451,165h-2v-2h-2v-2h-2v-4h2v2h2v2h2z" fill="#ff7700" stroke="none" stroke-width="1"/><path d="M451,173h-2v-2h-2v-2h-2v-4h2v2h2v2h2z" fill="#ff7700" stroke="none" stroke-width="1"/><path d="M451,181h-2v-2h-2v-2h-2v-4h2v2h2v2h2z" fill="#ff7700" stroke="none" stroke-width="1"/><path d="M451,189h-2v-2h-2v-2h-2v-4h2v2h2v2h2z" fill="#ff7700" stroke="none" stroke-width="1"/><path d="M451,197h-2v-2h-2v-2h-2v-4h2v2h2v2h2z" fill="#ff7700" stroke="none" stroke-width="1"/><path d="M451,205h-2v-2h-2v-2h-2v-4h2v2h2v2h2z" fill="#ff7700" stroke="none" stroke-width="1"/><path d="M451,213h-2v-2h-2v-2h-2v-4h2v2h2v2h2z" fill="#ff7700" stroke="none" stroke-width="1"/><path d="M451,221h-2v-2h-2v-2h-2v-4h2v2h2v2h2z" fill="#ff7700" stroke="none" stroke-width="1"/><path d="M451,229h-2v-2h-2v-2h-2v-4h2v2h2v2h2z" fill="#ff7700" stroke="none" stroke-width="1"/><path d="M451,237h-2v-2h-2v-2h-2v-4h2v2h2v2h2z" fill="#ff7700" stroke="none" stroke-width="1"/><path d="M451,245h-2v-2h-2v-2h-2v-4h2v2h2v2h2z" fill="#ff7700" stroke="none" stroke-width="1"/><path d="M445,249v-4h2v2h2v2z" fill="#ff7700" stroke="none" stroke-width="1"/><path d="M133,240v-4l-4,2l-4,-2v-4l16,-8v-12l4,2l4,-2v12l8,4v4l-20,10z" fill="#ed6444" stroke="none" stroke-width="1"/><path d="M113,230v-4l-4,2l-4,-2v-4l16,-8v-12l4,2l4,-2v12l8,4v4l-20,10z" fill="#ed6444" stroke="none" stroke-width="1"/><path d="M105,222l4,2v4l-4,-2z" fill="#e66047" stroke="none" stroke-width="1"/><path d="M113,226l4,2v4l-4,-2z" fill="#e66047" stroke="none" stroke-width="1"/><path d="M125,232l4,2v4l-4,-2z" fill="#e66047" stroke="none" stroke-width="1"/><path d="M133,236l4,2v4l-4,-2z" fill="#e66047" stroke="none" stroke-width="1"/><path d="M117,220l4,2l-4,2z" fill="#e66047" stroke="none" stroke-width="1"/><path d="M137,230l4,2l-4,2z" fill="#e66047" stroke="none" stroke-width="1"/><path d="M141,212l4,2v16l-4,-2z" fill="#e66047" stroke="none" stroke-width="1"/><path d="M121,202l4,2v16l-4,-2z" fill="#e66047" stroke="none" stroke-width="1"/><path d="M117,224l-8,4v-4l8,-4z" fill="#dd5c3f" stroke="none" stroke-width="1"/><path d="M137,222l-20,10v-4l20,-10z" fill="#dd5c3f" stroke="none" stroke-width="1"/><path d="M137,234l-8,4v-4l8,-4z" fill="#dd5c3f" stroke="none" stroke-width="1"/><path d="M157,232l-20,10v-4l20,-10z" fill="#dd5c3f" stroke="none" stroke-width="1"/><path d="M149,228l-4,2v-16l4,-2z" fill="#dd5c3f" stroke="none" stroke-width="1"/><path d="M129,218l-4,2v-16l4,-2z" fill="#dd5c3f" stroke="none" stroke-width="1"/><path d="M105,210v-64l28,-14l24,12v24l12,6v32l-24,12l-4,-2l-12,6z" fill="#fafbff" stroke="none" stroke-width="1"/><path d="M129,158l28,-14v40l12,-6l-4,-2l4,-2v32l-24,12v-16l24,-12l-8,-4l-24,12v16l4,2l-12,6z" fill="#e8e7f7" stroke="none" stroke-width="1"/><path d="M117,148v-10l16,-8l8,4v10l-16,8z" fill="#ea5d6d" stroke="none" stroke-width="1"/><path d="M105,184v-10l8,-4l8,4v10l-8,4z" fill="#ea5d6d" stroke="none" stroke-width="1"/><path d="M125,152l-8,-4v-10l8,4z" fill="#de596c" stroke="none" stroke-width="1"/><path d="M113,188l-8,-4v-10l8,4z" fill="#de596c" stroke="none" stroke-width="1"/><path d="M101,176v-10l12,-6l8,4v10l-12,6z" fill="#ed6444" stroke="none" stroke-width="1"/><path d="M121,174l-12,6v-10l12,-6z" fill="#dd5c3f" stroke="none" stroke-width="1"/><path d="M101,166l8,4l0.001,10l-8.001,-4z" fill="#e66047" stroke="none" stroke-width="1"/><path d="M125,142l16,-8v10l-16,8z" fill="#d3545f" stroke="none" stroke-width="1"/><path d="M113,178l8,-4v10l-8,4z" fill="#d3545f" stroke="none" stroke-width="1"/><path d="M137,164l4,-2v4l-4,2z" fill="#2f0020" stroke="none" stroke-width="1"/><path d="M171,241l4,2v5l-4,-2z" fill="#e66047" stroke="none" stroke-width="1"/><path d="M175,243l16,-8v5l-16,8z" fill="#dc5c3f" stroke="none" stroke-width="1"/><path d="M171,237l4,2l-4,2z" fill="#e66047" stroke="none" stroke-width="1"/><path d="M163,237l4,2v5l-4,-2z" fill="#e66047" stroke="none" stroke-width="1"/><path d="M167,239l4,-2v5l-4,2z" fill="#dc5c3f" stroke="none" stroke-width="1"/><path d="M171,241l4,-2l-4,-2l-4,2l-4,-2l16,-8l12,6l-16,8z" fill="#ed6444" stroke="none" stroke-width="1"/><path d="M175,225l4,2v10l-4,-2z" fill="#e66047" stroke="none" stroke-width="1"/><path d="M179,227l4,-2v10l-4,2z" fill="#dc5c3f" stroke="none" stroke-width="1"/><path d="M187,249l4,2v5l-4,-2z" fill="#e66047" stroke="none" stroke-width="1"/><path d="M191,251l16,-8v5l-16,8z" fill="#dc5c3f" stroke="none" stroke-width="1"/><path d="M187,245l4,2l-4,2z" fill="#e66047" stroke="none" stroke-width="1"/><path d="M179,245l4,2v5l-4,-2z" fill="#e66047" stroke="none" stroke-width="1"/><path d="M183,247l4,-2v5l-4,2z" fill="#dc5c3f" stroke="none" stroke-width="1"/><path d="M187,249l4,-2l-4,-2l-4,2l-4,-2l16,-8l12,6l-16,8z" fill="#ed6444" stroke="none" stroke-width="1"/><path d="M191,233l4,2v10l-4,-2z" fill="#e66047" stroke="none" stroke-width="1"/><path d="M195,235l4,-2v10l-4,2z" fill="#dc5c3f" stroke="none" stroke-width="1"/><path d="M163,197l20,10v40l-20,-10z" fill="#fcdd4f" stroke="none" stroke-width="1"/><path d="M183,207l20,-10v15l8,-4l-4,-2l4,-2v29l-28,14z" fill="#f5d041" stroke="none" stroke-width="1"/><path d="M183,187l20,10l-20,10l-20,-10z" fill="#fee155" stroke="none" stroke-width="1"/><path d="M203,200l8,4l-4,2l4,2l-8,4z" fill="#fee155" stroke="none" stroke-width="1"/><path d="M191,223l4,2v10l-4,-2z" fill="#fcdd4f" stroke="none" stroke-width="1"/><path d="M207,215l4,2l-16,8l-4,-2z" fill="#fee155" stroke="none" stroke-width="1"/><path d="M187,215l4,-2v5l-4,2z" fill="#411c1b" stroke="none" stroke-width="1"/><path d="M163,215l4,2v10l-4,-2z" fill="#e66047" stroke="none" stroke-width="1"/><path d="M171,211l4,2l-8,4l-4,-2z" fill="#ed6343" stroke="none" stroke-width="1"/><path d="M175,213v10l-8,4v-10z" fill="#dd5c3f" stroke="none" stroke-width="1"/><path d="M47,93.0002l4,2v-5l28,13.9998v5l4,2v35l-4,-2v5l-28,-14v-5l-4,-2z" fill="#222149" stroke="none" stroke-width="1"/><path d="M51,100l4,2v-4.9998l20,9.9998v5l4,2v25l-4,-2v5l-20,-10v-5l-4,-2z" fill="#ff6e0b" stroke="none" stroke-width="1"/><path d="M59,109l4,2v15l-4,-2z" fill="#222149" stroke="none" stroke-width="1"/><path d="M67,113l4,2v15l-4,-2z" fill="#222149" stroke="none" stroke-width="1"/><path d="M83,111l4,-2v35l-4,2z" fill="#1f203f" stroke="none" stroke-width="1"/><path d="M79,104l4,-2v5.001l-4,1.999z" fill="#1f203f" stroke="none" stroke-width="1"/><path d="M79,144l4,2v1.001l-4,1.999z" fill="#1f203f" stroke="none" stroke-width="1"/><path d="M79,109l4,-1.999l4,1.999l-4,2z" fill="#20244a" stroke="none" stroke-width="1"/><path d="M51,90.0002l4,-2.0002l28,14l-4,2z" fill="#20244a" stroke="none" stroke-width="1"/><path d="M47,93.0002l4,-1.9997v3.9997z" fill="#20244a" stroke="none" stroke-width="1"/><path d="M67,143l4,2v66l-4,-2z" fill="#7d749f" stroke="none" stroke-width="1"/><path d="M71,145l4,2v62l-4,2z" fill="#756f8b" stroke="none" stroke-width="1"/><path d="M22,218l16,8v5l-16,-8z" fill="#ff6f0c" stroke="none" stroke-width="1"/><path d="M30,198l8,4v20l-8,-4z" fill="#ff6e0b" stroke="none" stroke-width="1"/><path d="M38,202l8,-4v20l-8,4z" fill="#f8690b" stroke="none" stroke-width="1"/><path d="M38,226l16,-8v5l-16,8z" fill="#f8690b" stroke="none" stroke-width="1"/><path d="M38,194l8,4l-8,4l-8,-4z" fill="#ff7210" stroke="none" stroke-width="1"/><path d="M46,214l8,4l-16,8l-16,-8l8,-4v4l8,4l8,-4z" fill="#ff7210" stroke="none" stroke-width="1"/><path d="M30,203l8,4v5l-8,-4z" fill="#fafbfe" stroke="none" stroke-width="1"/><path d="M38,207l8,-4v5l-8,4z" fill="#e8e7f7" stroke="none" stroke-width="1"/><path d="M207,313h1v-1v-1h64v1v1h1h1v34h-1h-1v1v1h-64v-1v-1h-1h-1v-34z" fill="#56c6f8" stroke="#ffffff" stroke-width="2"/><path d="M207,342h2v2h62v-2h2v4h-2v2h-62v-2h-2z" fill="#2cace8" stroke="none" stroke-width="1"/><path d="M232,318h2v1v1h2h2v1v1h2h2v1v1h2h2v1v1h2h2v1v1v1v1h-2h-2v1v1h-2h-2v1v1h-2h-2v1v1h-2h-2v1v1h-2h-2v-20z" fill="#ffffff" stroke="none" stroke-width="1"/><text transform="translate(263.25,170.39953) scale(0.26356,0.26356)" font-size="40" xml:space="preserve" fill="#ff7700" stroke="none" stroke-width="1" font-family="&quot;8-BIT WONDER&quot;, Pixel" font-weight="normal" text-anchor="start"><tspan x="0" dy="0">  Then check out</tspan><tspan x="0" dy="46.15px">our other games!</tspan></text><text transform="translate(256.25,208.39953) scale(0.26356,0.26356)" font-size="40" xml:space="preserve" fill="#ff7700" stroke="none" stroke-width="1" font-family="&quot;8-BIT WONDER&quot;, Pixel" font-weight="normal" text-anchor="start"><tspan x="0" dy="0">play.8classes.com</tspan></text><text transform="translate(252.25,133.39952) scale(0.26356,0.26356)" font-size="40" xml:space="preserve" fill="#ff7700" stroke="none" stroke-width="1" font-family="&quot;8-BIT WONDER&quot;, Pixel" font-weight="normal" text-anchor="start"><tspan x="0" dy="0">enjoy crossy road?</tspan></text></g></svg>