<svg xmlns="http://www.w3.org/2000/svg" fill="none" viewBox="0 0 200 200" height="200" width="200">
<path fill="#CC9F34" d="M83 91L110.5 96.5V110.5L83 105V91Z"></path>
<path fill="#806320" d="M110.5 96.5L118.5 80.5V94.5L110.5 110.5V96.5Z"></path>
<path fill="#FFC641" d="M91 75L118.5 80.5L110.5 96.5L83 91L91 75Z"></path>
<path fill="#FFC741" d="M96.5 103.5L100.5 104.3V106.5L95.5 105.5L96.5 103.5Z"></path>
<path fill="#7F6320" d="M96.5 101.7V103.5L95.5 105.5V101.5L96.5 101.7Z"></path>
<path fill="#FFC741" d="M106.409 103.682L108 104V106L105.5 105.5L106.409 103.682Z"></path>
<path fill="#7F6320" d="M106.409 103.682L105.5 105.5V103.5L106.409 103.682Z"></path>
<path fill="#FFC741" d="M86.5 99.5L90.5 100.3V102.5L85.5 101.5L86.5 99.5Z"></path>
<path fill="#7F6320" d="M86.5 97.7V99.5L85.5 101.5V97.5L86.5 97.7Z"></path>
<path fill="#FFC741" d="M88.9091 94.1818L90.5 94.5V96.5L88 96L88.9091 94.1818Z"></path>
<path fill="#7F6320" d="M88.9091 94.1818L88 96L88 94L88.9091 94.1818Z"></path>
<path fill="#FFC641" d="M115.682 88.1364L117.5 88.5L115.5 92.5V88.5L115.682 88.1364Z"></path>
<path fill="#CC9F34" d="M115.682 88.1364L117.5 84.5V88.5L115.682 88.1364Z"></path>
<path fill="#FFC641" d="M112.682 100.136L114.5 100.5L112.5 104.5V100.5L112.682 100.136Z"></path>
<path fill="#CC9F34" d="M112.682 100.136L114.5 96.5V100.5L112.682 100.136Z"></path>
<path fill="#FFC641" d="M111.591 96.3182L112.5 96.5L111.5 98.5V96.5L111.591 96.3182Z"></path>
<path fill="#CC9F34" d="M111.591 96.3182L112.5 94.5V96.5L111.591 96.3182Z"></path>
<path fill="#CC9F34" d="M101.5 81.5L106.5 82.5L105.583 84.3167L101.5 83.5V81.5Z"></path>
<path fill="#806320" d="M101.5 81.5L99.5 85.4818L100.413 85.6644L101.5 83.5V81.5Z"></path>
<path fill="#CC9F34" d="M110 81.0182L115 82.0182L114.083 83.8348L110 83.0182V81.0182Z"></path>
<path fill="#806320" d="M110 81.0182L108 85L108.913 85.1826L110 83.0182V81.0182Z"></path>
<path fill="#CC9F34" d="M92.5 77.5L95 78L94.0833 79.8167L92.5 79.5V77.5Z"></path>
<path fill="#806320" d="M92.5 77.5L91.5 79.4818L92.4129 79.6644L92.5 79.5V77.5Z"></path>
<path fill="#FFC741" d="M99 98L103 98.8V101L98 100L99 98Z"></path>
<path fill="#7F6320" d="M99 96.2V98L98 100V96L99 96.2Z"></path>
<path fill="#FFC641" d="M115.591 94.3182L116.5 94.5L115.5 96.5V94.5L115.591 94.3182Z"></path>
<path fill="#CC9F34" d="M115.591 94.3182L116.5 92.5V94.5L115.591 94.3182Z"></path>
<path fill="#CC9F34" d="M106 89L108.5 89.5L107.583 91.3167L106 91V89Z"></path>
<path fill="#806320" d="M106 89L105 90.9818L105.913 91.1644L106 91V89Z"></path>
<path fill="#CC9F34" d="M91.0024 86L96.0024 87L95.0858 88.8167L91.0024 88V86Z"></path>
<path fill="#806320" d="M91.0024 86L89.0024 89.9818L89.9153 90.1644L91.0024 88V86Z"></path>
</svg>
