<svg xmlns="http://www.w3.org/2000/svg" fill="none" viewBox="0 0 200 200" height="200" width="200">
<path fill="#9395AA" d="M80.5 72.5001L110.5 78.5002V98.5003L80.5 92.5003V72.5001Z"></path>
<path fill="white" d="M90.0001 53.5L120 59.5003L110.5 78.5002L80.5 72.5001L84.7501 64.0001L90.0001 53.5Z"></path>
<path fill="#575876" d="M120 59.5003V79.5004L110.5 98.5003V78.5002L120 59.5003Z"></path>
<path fill="#9395AA" d="M102.25 64.2476L112.25 66.2477V72.2477L102.25 70.2477V64.2476Z"></path>
<path fill="white" d="M103.75 61.2479L113.75 63.2479L112.25 66.2477L102.25 64.2476L103.75 61.2479Z"></path>
<path fill="#575876" d="M113.75 63.2479V69.2479L112.25 72.2477V66.2477L113.75 63.2479Z"></path>
<path fill="#9395AA" d="M84.7501 60.7476L94.7501 62.7476V68.7477L84.7501 66.7477V60.7476Z"></path>
<path fill="white" d="M86.2501 57.7478L96.2502 59.7478L94.7501 62.7476L84.7501 60.7476L86.2501 57.7478Z"></path>
<path fill="#575876" d="M96.2502 59.7478V65.7479L94.7501 68.7477V62.7476L96.2502 59.7478Z"></path>
<path fill="#9395AA" d="M111.5 84.5L116.5 85.5V90.5L111.5 89.5V84.5Z"></path>
<path fill="white" d="M113 81.5002L118 82.5002L116.5 85.5L111.5 84.5L113 81.5002Z"></path>
<path fill="#575876" d="M118 82.5002V87.5003L116.5 90.5V85.5L118 82.5002Z"></path>
<path fill="#9395AA" d="M111.5 90.5L115.25 91.25V94.2501L111.5 93.5001V90.5Z"></path>
<path fill="white" d="M111.955 89.5909L115.705 90.341L115.25 91.25L111.5 90.5L111.955 89.5909Z"></path>
<path fill="#575876" d="M116.75 90.0001V91.2503L115.25 94.2501V91.25L115.705 90.341L116.5 90.5L116.75 90.0001Z"></path>
<path fill="#9395AA" d="M89.5001 94.3003L104.5 97.3004V104L89.5001 101V94.3003Z"></path>
<path fill="#575876" d="M107.546 97.9094L104.5 104V97.3004L107.546 97.9094Z"></path>
<path fill="#9395AA" d="M94.0001 71.0001L99.0002 72.0001V74.0002L94.0001 73.0001V71.0001Z"></path>
<path fill="white" d="M95.5002 68.0004L100.5 69.0004L99.0002 72.0001L94.0001 71.0001L95.5002 68.0004Z"></path>
<path fill="#575876" d="M100.5 69.0004V71.0004L99.0002 74.0002V72.0001L100.5 69.0004Z"></path>
<path fill="#957B63" d="M91.7501 74.7502V81.7368L80.5 79.5002V72.5001L91.7501 74.7502Z"></path>
<path fill="#957B63" d="M92.2623 64.2501V68.2501L87.2501 67.2456V63.2322L92.2623 64.2501Z"></path>
<path fill="#957B63" d="M109.762 67.7501V71.7501L104.75 70.7457V66.7322L109.762 67.7501Z"></path>
<path fill="#FFDB9F" d="M94.7501 68.7477L91.7501 74.7502L80.5 72.5001L84.7501 64.0001V66.7477L94.7501 68.7477Z"></path>
<path fill="#FFDB9F" d="M96.2502 63.5481L97.2502 63.7481L96.2502 65.7479V63.5481Z"></path>
<path fill="#9395AA" d="M76.5 77.4999L80.5 78.2999V83.3L76.5 82.5V77.4999Z"></path>
<path fill="white" d="M78 74.5002L80.5 75.0002V78.2999L76.5 77.4999L78 74.5002Z"></path>
<path fill="#9395AA" d="M77.75 83.75L80.5 84.3V87.3L77.75 86.75V83.75Z"></path>
<path fill="white" d="M78.2046 82.8409L80.5 83.3V84.3L77.75 83.75L78.2046 82.8409Z"></path>
<path fill="#4B2031" d="M85.5001 75.5002L88.0001 76.0002V78.0002L85.5001 77.5002V75.5002Z"></path>
<path fill="#4B2031" d="M103 79.0002L105.5 79.5002V81.5002L103 81.0002V79.0002Z"></path>
<path fill="#4B2031" d="M93.7501 79.2502L96.2501 79.7502V81.7502L93.7501 81.2502V79.2502Z"></path>
<path fill="#843B4E" d="M94.2501 78.2503L96.7501 78.7503L96.2501 79.7502L93.7501 79.2502L94.2501 78.2503Z"></path>
<path fill="#261326" d="M96.7501 78.7503V80.7503L96.2501 81.7502V79.7502L96.7501 78.7503Z"></path>
<path fill="#957B63" d="M108 86.0136V96.0003L83 91.0137V81.0136L108 86.0136Z"></path>
<path fill="#5B5869" d="M83.5001 81.1136V90.0137L83 91.0137V81.0136L83.5001 81.1136Z"></path>
<path fill="#FFFEFF" d="M83.5001 90.0137L108 94.9007V96.0003L83 91.0137L83.5001 90.0137Z"></path>
<path fill="#4B2031" d="M87.2501 82.7503L89.7501 83.2503V86.2503L87.2501 85.7503V82.7503Z"></path>
<path fill="#4B2031" d="M102.25 85.7503L104.75 86.2503V89.2504L102.25 88.7504V85.7503Z"></path>
<path fill="#4B2031" d="M93.5001 85.0003L94.7501 85.2502V86.2503L97.2502 86.7503V85.7502L98.5002 86.0003V88.0003L93.5001 87.0003V85.0003Z"></path>
<path fill="#5F6075" d="M93.2501 94.2503L95.7501 94.7503V96.7503L93.2501 96.2503V94.2503Z"></path>
<path fill="#ACABBB" d="M94.2501 92.2504L96.7501 92.7504L95.7501 94.7503L93.2501 94.2503L94.2501 92.2504Z"></path>
<path fill="#373950" d="M96.7501 92.7504V94.7504L95.7501 96.7503V94.7503L96.7501 92.7504Z"></path>
<path fill="#5F6075" d="M96.2502 94.7504L98.7502 95.2504V102.25L97.5002 102V99.0003L92.5001 98.0003V100L97.5002 101V102L91.2501 100.75V93.7504L93.2956 94.1594L93.2501 94.2503V96.2503L95.7501 96.7503L96.2501 95.7504L96.2502 94.7504Z"></path>
<path fill="#373950" d="M99.2502 94.2505V101.251L98.7502 102.25V95.2504L99.2502 94.2505Z"></path>
<path fill="#373950" d="M93.0001 98.1003V99.0004L92.5001 100V98.0003L93.0001 98.1003Z"></path>
<path fill="#ACABBB" d="M93.0001 99.0004L97.5002 99.9V101L92.5001 100L93.0001 99.0004Z"></path>
<path fill="#ACABBB" d="M91.7501 92.7505L93.7922 93.1663L93.2956 94.1594L91.2501 93.7504L91.7501 92.7505Z"></path>
<path fill="#ACABBB" d="M96.7502 93.7505L99.2502 94.2505L98.7502 95.2504L96.2502 94.7504L96.7502 93.7505Z"></path>
<path fill="#957B63" d="M102 96.8003V103.487L92.0001 101.5V100.9L98.7502 102.25L99.2502 101.251V96.2503L102 96.8003Z"></path>
<path fill="#957B63" d="M93.0001 98.1003L97.5002 99.0003V99.9L93.0001 99.0004V98.1003Z"></path>
<path fill="#9395AA" d="M104.5 104L104.75 103.5V103.75L104.636 103.727L104.5 104Z"></path>
<path fill="white" d="M104.5 104L105.75 101.5L104.75 103.5L104.5 104Z"></path>
<path fill="#575876" d="M105.75 101.5V102.75L104.25 105.75V104.75L104.75 103.75V103.5L105.75 101.5Z"></path>
<path fill="#9395AA" d="M101.75 104.25L104.25 104.75V105.75L101.75 105.25V104.25Z"></path>
<path fill="white" d="M102.114 103.523L104.5 104L104.636 103.727L104.75 103.75L104.25 104.75L101.75 104.25L102.114 103.523Z"></path>
<path fill="#575876" d="M95.0701 102.11L94.2499 103.75V102.75L94.6153 102.019L95.0701 102.11Z"></path>
<path fill="#9395AA" d="M91.7499 102.25L94.2499 102.75V103.75L91.7499 103.25V102.25Z"></path>
<path fill="white" d="M92.1137 101.523L94.6153 102.019L94.2499 102.75L91.7499 102.25L92.1137 101.523Z"></path>
</svg>
