<svg xmlns="http://www.w3.org/2000/svg" fill="none" viewBox="0 0 480 360" height="360" width="480">
<path fill="black" d="M82 225L237 256L172 243L82 225Z"></path>
<path fill="black" d="M417 244L407 242V246L387 286L237 256L82 225V221L77 220V176L52 171V167L47 166V118L67 78L70.1818 78.6364L72 75L167 94L432 147V203L417 244Z"></path>
<path fill="black" d="M237 256L227 254L181 245L172 243L237 256Z"></path>
<path fill="white" d="M87 178L107 182V214L137 220V228L92 219V215L87 214V178Z"></path>
<path fill="white" d="M152 195V191L197 200V208L167 202V210L177 212V220L167 218V226L197 232V240L152 231V227L147 226V194L152 195Z"></path>
<path fill="white" d="M302 177V173L342 181V185L347 186V218L342 217V221L327 218L317 216V208L327 210V186L317 184V216L302 213V209L297 208V176L302 177Z"></path>
<path fill="white" d="M327 226L347 230V262L377 268V276L332 267V263L327 262V226Z"></path>
<path fill="white" d="M272 219V215L317 224V232L287 226V234L297 236V244L287 242V250L317 256V264L272 255V251L267 250V218L272 219Z"></path>
<path fill="white" d="M222 245V241L217 240V236L212 235V231L207 230V202L227 206V230L237 232V208L257 212V240L252 239V243L247 242V246L242 245V249L222 245Z"></path>
<path fill="white" d="M237 160L287 170V178L272 175V199V207L252 203V195V171L237 168V160Z"></path>
<path fill="white" d="M57 128L62 129V125L107 134V142L77 136V160L107 166V174L62 165V161L57 160V128Z"></path>
<path fill="white" d="M117 140V136L122 137L137 140V148V172L147 174V142L167 146V182L162 181V185L122 177V173L117 172V140Z"></path>
<path fill="white" d="M182 153V149L222 157L227 158V166L197 160V168L222 173V177L227 178V194L222 193V197L207 194L177 188V180L207 186V178L182 173V169L177 168V152L182 153Z"></path>
<path fill="white" d="M357 184L372 187V191L377 192V196L387 198V194L392 195V191L407 194V234L387 230V213L377 211V228L357 224V184Z"></path>
</svg>
