<svg xmlns="http://www.w3.org/2000/svg" fill="none" viewBox="0 0 480 360" height="360" width="480">
<path stroke-width="2" stroke="white" fill="#56C6F8" d="M87.0667 78.1H88.0667V77.1V76H391.933V77.1V78.1H392.933H394V281.9H392.933H391.933V282.9V284H88.0667V282.9V281.9H87.0667H86V78.1H87.0667Z"></path>
<path stroke-width="2" stroke="white" fill="#56C6F8" d="M141 242H142V241V240H338V241V242H339H340V248H339H338V249V250H142V249V248H141H140V242H141Z"></path>
<path fill="white" d="M262 99V97H264H266V103H270V97H274V105H272V107H270V113H266V107H264V105H262V99Z"></path>
<path fill="white" d="M248 99H250V97H258V99H260V113H256V101H252V103H256V107H252V109V113H250H248V111V99Z"></path>
<path fill="white" d="M220 99H222V97H232V101H224V103H228V107H224V109H232V113H222V111H220V99Z"></path>
<path fill="white" d="M206 99V97H208H216V99H218V101H214H210V109H214V101H218V111H216V113H208H206V111V99Z"></path>
<path fill="white" d="M234 99V97H236H238V101V109H246V113H236V111H234V101V99Z"></path>
<path fill="white" d="M183 165.5H184.5V164H192V167H186V168.5H189V171.5H186V173H192V176H184.5V174.5H183V165.5Z"></path>
<path fill="white" d="M214.5 165.5H216V164H223.5V167H217.5V168.5H220.5V171.5H217.5V173H223.5V176H216V174.5H214.5V165.5Z"></path>
<path fill="white" d="M289.5 165.5H291V164H298.5V167H292.5V168.5H295.5V171.5H292.5V173H298.5V176H291V174.5H289.5V165.5Z"></path>
<path fill="white" d="M247.5 165.5H249V164H256.5V167H250.5V168.5H253.5V171.5H250.5V173H256.5V176H249V174.5H247.5V165.5Z"></path>
<path fill="white" d="M258 165.5H259.5V164H267V167H261V168.5H264V171.5H261V173H267V176H259.5V174.5H258V165.5Z"></path>
<path fill="white" d="M300 165.5H301.5V164H307.5V165.5H309V176H306V167H303V168.5H306V171.5H303V173V176H301.5H300V174.5V165.5Z"></path>
<path fill="white" d="M171 164H174V165.5H175.5V167H177V165.5H178.5V164H181.5V176H178.5V170H177V171.5H175.5V170H174V176H171V164Z"></path>
<path fill="white" d="M268.5 164H271.5V165.5H273V167H274.5V164H277.5V176H274.5V171.5H273V170H271.5V176H268.5V164Z"></path>
<path fill="white" d="M310.5 165.5H312V164H319.5V167H313.5V168.5V171.5V173H319.5V176H312V174.5H310.5V165.5Z"></path>
<path fill="white" d="M160.5 165.5V164H162H169.5V167H166.5V173H169.5V176H160.5V173H163.5V167H160.5V165.5Z"></path>
<path fill="white" d="M150 165.5V164H151.5H159V167H156V173V176H153V173V167H150V165.5Z"></path>
<path fill="white" d="M225 165.5V164H226.5H234V167H231V173V176H228V173V167H225V165.5Z"></path>
<path fill="white" d="M246 176L243 176L243 174.5L241.5 174.5L241.5 173L240 173L240 174.5L238.5 174.5L238.5 176L235.5 176L235.5 164L238.5 164L238.5 170L240 170L240 168.5L241.5 168.5L241.5 170L243 170L243 164L246 164L246 176Z"></path>
<path fill="white" d="M204 164H211.5V165.5H213V168.5H211.5V171.5H213V174.5H211.5V176H207V173H210V171.5H208.5H207V168.5H210V167H207V168.5V171.5V176H204V164Z"></path>
<path fill="white" d="M328.5 164L330 164L330 165.5L330 176L327 176L327 171.5L324 171.5L324 176L321 176L321 164L324 164L324 168.5L327 168.5L327 164L328.5 164Z"></path>
<path fill="white" d="M198 196L195.143 196L195.143 194.5L193.714 194.5L193.714 193L192.286 193L192.286 194.5L190.857 194.5L190.857 196L188 196L188 184L190.857 184L190.857 190L192.286 190L192.286 188.5L193.714 188.5L193.714 190L195.143 190L195.143 184L198 184L198 196Z"></path>
<path fill="white" d="M200 185.5H201.5V184H207.5V185.5H209V187H206H203V193H206V187H209V194.5H207.5V196H201.5V194.5H200V185.5Z"></path>
<path fill="white" d="M210 185.5H211.5V184H217.5V185.5H219V187H216H213V193H216V187H219V194.5H217.5V196H211.5V194.5H210V185.5Z"></path>
<path fill="white" d="M221 185.5V184H222.5H228.5V185.5H230V187H227H224V193H227V187H230V194.5H228.5V196H222.5H221V194.5V185.5Z"></path>
<path fill="white" d="M252.5 185.5H254V184H260V185.5H261.5V187H258.5H255.5V193H258.5V187H261.5V194.5H260V196H254V194.5H252.5V185.5Z"></path>
<path fill="white" d="M273.5 184H281V185.5H282.5V190H281V191.5H282.5V196H279.5V193H278V191.5H276.5V188.5H279.5V187H276.5V188.5V191.5V196H273.5V184Z"></path>
<path fill="white" d="M263 185.5H264.5V184H270.5V185.5H272V196H269V187H266V188.5H269V191.5H266V193V196H264.5H263V194.5V185.5Z"></path>
<path fill="white" d="M284 185.5V184H285.5H291.5V185.5H293V187H290H287V193H290V187H293V194.5H291.5V196H285.5H284V194.5V185.5Z"></path>
<path fill="white" d="M242 184H249.5V185.5H251V188.5H249.5V191.5H251V194.5H249.5V196H245V193H248V191.5H246.5H245V188.5H248V187H245V188.5V191.5V196H242V184Z"></path>
<path fill="white" d="M358 246V241H363V243H360V244H362V245H363L363 248H362V249H358V247H361V246H358Z"></path>
<path fill="white" d="M105 101H107V97H111V95H114V106H120V104H116V97H114V95H116H119V97H123V101H125V109H123V113H119V115H111V113H107V109H105V101Z"></path>
<path fill="white" d="M116 241H118V249H116V241Z"></path>
<path fill="white" d="M122 246V241H127V243H124V244H126V245H127L127 248H126V249H122V247H125V246H122Z"></path>
<rect fill="white" height="2" width="2" y="247" x="119"></rect>
</svg>
