<svg xmlns="http://www.w3.org/2000/svg" fill="none" viewBox="0 0 200 200" height="200" width="200">
<path fill="#8C702F" d="M93 79L103 81V83L108 84V86L110.5 86.5V90.5L113 91V99L110.5 98.5V102.5L108 102V104L103 103V105L93 103V101L88 100V98L85.5 97.5V95.5L88 96V94L95.5 95.5V93.5L100.5 94.5V90.5L95.5 89.5V87.5L88 86V84L85.5 83.5V81.5L88 82V80L93 81V79Z"></path>
<path fill="#FDC94F" d="M97 71L107 73L103 81L93 79L97 71Z"></path>
<path fill="#FDC94F" d="M107 75L112 76L108 84L103 83L107 75Z"></path>
<path fill="#FDC94F" d="M114.5 82.5L117 83L113 91L110.5 90.5L114.5 82.5Z"></path>
<path fill="#FDC94F" d="M92 72L96.0909 72.8182L93 79V81L88 80L92 72Z"></path>
<path fill="#FDC94F" d="M89.5 73.5L91.0909 73.8182L88 80V82L85.5 81.5L89.5 73.5Z"></path>
<path fill="#FDC94F" d="M89.4999 87.5L91.0908 87.8182L88 94V96L85.5 95.5L89.4999 87.5Z"></path>
<path fill="#FDC94F" d="M91.6363 86.7273L95.5 87.5V89.5L97.3181 89.8636L95.5 93.5V95.5L88 94L91.6363 86.7273Z"></path>
<path fill="#FDC94F" d="M97.3181 89.8636L100.5 90.5V94.5L95.5 93.5L97.3181 89.8636Z"></path>
<path fill="#FDC94F" d="M112 78L114.5 78.5L110.5 86.5L108 86L112 78Z"></path>
<path fill="#514221" d="M114.5 78.5L114.5 82.5L110.5 90.5V86.5L114.5 78.5Z"></path>
<path fill="#514221" d="M117 83L117 91L113 99V91L117 83Z"></path>
<path fill="#514221" d="M112 76V78L108 86V84L112 76Z"></path>
<path fill="#514221" d="M107 73V75L103 83V81L107 73Z"></path>
<path fill="#514221" d="M110.5 98.5L112.318 98.8636L110.5 102.5V98.5Z"></path>
<path fill="#514221" d="M108 102L108.909 102.182L108 104V102Z"></path>
<path fill="#514221" d="M103 103L103.909 103.182L103 105V103Z"></path>
</svg>
