<svg xmlns="http://www.w3.org/2000/svg" fill="none" viewBox="0 0 480 360" height="360" width="480">
<path fill="black" d="M60 222L245 259L180 246L60 222Z"></path>
<path fill="black" d="M450 252L425 295L245 259L60 222V218L55 217V173L75 133L85 135V127L107 83L147 91V136L155 137L175 97L400 142V170L425 175V191L445 195V199L450 200V252Z"></path>
<path fill="black" d="M245 259L235 257L189 248L180 246L245 259Z"></path>
<path fill="white" d="M95 133L115 137V169L145 175V183L100 174V170L95 169V133Z"></path>
<path fill="white" d="M160 150V146L205 155V163L175 157V165L185 167V175L175 173V181L205 187V195L160 186V182L155 181V149L160 150Z"></path>
<path fill="white" d="M125 187L130 188L170 196V200L175 201V233L170 232V236L155 233L145 231V223L155 225V201L145 199V231L130 228L125 227V223V191V187Z"></path>
<path fill="white" d="M365 235L410 244V248L415 249V261L410 260V268L415 269V285L395 281V265L385 263V255L395 257V249L385 247V279L365 275V235Z"></path>
<path fill="white" d="M310 228V224L350 232V236L355 237V269L350 268V272L335 269L325 267V259L335 261V237L325 235V267L310 264V260L305 259V227L310 228Z"></path>
<path fill="white" d="M335 181L355 185V217L385 223V231L340 222V218L335 217V181Z"></path>
<path fill="white" d="M280 174V170L325 179V187L295 181V189L305 191V199L295 197V205L325 211V219L280 210V206L275 205V173L280 174Z"></path>
<path fill="white" d="M70 180V176L115 185V193L85 187V195L95 197V205L85 203V211L115 217V225L70 216V212L65 211V179L70 180Z"></path>
<path fill="white" d="M230 200V196L225 195V191L220 190V186L215 185V157L235 161V185L245 187V163L265 167V195L260 194V198L255 197V201L250 200V204L230 200Z"></path>
<path fill="white" d="M185 199L235 209V217L220 214V238L235 241V249L185 239V231L200 234V210L185 207V199Z"></path>
<path fill="white" d="M245 211L295 221V229L280 226V250V258L260 254V246V222L245 219V211Z"></path>
</svg>
