<svg xmlns="http://www.w3.org/2000/svg" fill="none" viewBox="0 0 200 200" height="200" width="200">
<path fill="#141520" d="M83.9823 92L113.982 98V102L83.9823 96V92Z"></path>
<path fill="#101018" d="M113.982 98L125.982 74V78L113.982 102V98Z"></path>
<path fill="#2A2E3D" d="M95.9823 68L125.982 74L113.982 98L83.9823 92L87.9823 84V80L91.9823 72V76L95.9823 68Z"></path>
<path fill="#22263C" d="M88.4823 82.5L113.482 87.5V93.5L88.4823 88.5V82.5Z"></path>
<path fill="#1D1D2C" d="M113.482 87.5L121.482 71.5V77.5L113.482 93.5V87.5Z"></path>
<path fill="#485374" d="M96.4823 66.5L121.482 71.5L113.482 87.5L88.4823 82.5L96.4823 66.5Z"></path>
<path fill="#444B68" d="M106.482 68.5L98.4823 84.5L93.4823 83.5L101.482 67.5L106.482 68.5Z"></path>
<path fill="#444B68" d="M116.482 70.5L108.482 86.5L103.482 85.5L111.482 69.5L116.482 70.5Z"></path>
<path fill="#1B1A28" d="M98.4823 84.5V90.5L93.4823 89.5V83.5L98.4823 84.5Z"></path>
<path fill="#1B1A28" d="M108.482 86.5V92.5L103.482 91.5V85.5L108.482 86.5Z"></path>
<path fill="#2A2E3D" d="M91.9823 72L93.5733 72.3182L89.5733 80.3182L87.9823 80L91.9823 72Z"></path>
<path fill="#141520" d="M87.9823 80L89.5733 80.3182L88.4823 82.5V84.1L87.9823 84V80Z"></path>
<path fill="#ADB39F" d="M88.4826 75.5L90.0735 75.8182L88.0735 79.8182L86.4826 79.5L88.4826 75.5Z"></path>
<path fill="#535454" d="M88.0735 79.8182L87.9823 80L87.9826 83.8L86.4826 83.5V79.5L88.0735 79.8182Z"></path>
<path fill="#ADB39F" d="M77 69L89.4909 71.5L85.5 79.5L73 77L77 69Z"></path>
<path fill="#453F3F" d="M89.4909 71.5V75.7017L88.4826 75.5L86.4826 79.5V83.5L87.4075 83.685L85.5 87.5V79.5L89.4909 71.5Z"></path>
<path fill="#535454" d="M85.5 79.5V87.5L73 85V77L85.5 79.5Z"></path>
<path fill="#141620" d="M80.5 80.5V82.5L78 82V80L80.5 80.5Z"></path>
<path fill="#ADB39F" d="M119 92L123.963 93L121.963 97L117 96L119 92Z"></path>
<path fill="#535454" d="M121.963 97L122 99L116.075 97.815L117 96L121.963 97Z"></path>
<path fill="#ADB39F" d="M123 84L127.982 85L125.982 89L121 88L123 84Z"></path>
<path fill="#535454" d="M125.982 89V91L120.075 89.8157L121 88L125.982 89Z"></path>
<path fill="#453F3F" d="M128 85V87L125.982 91V89L128 85Z"></path>
<path fill="#453F3F" d="M123.981 93V95L121.963 99V97L123.981 93Z"></path>
<path fill="#ADB39F" d="M86.5 96.5L91.5 97.5L87.5 105.5L90 106L89 108L81.5 106.5L86.5 96.5Z"></path>
<path fill="#453F3F" d="M91.5 97.5L92.4091 97.6818L88.4091 105.682L90 106V108L89 110V108L90 106L87.5 105.5L91.5 97.5Z"></path>
<path fill="#535454" d="M89 108V110L81.5 108.5V106.5L89 108Z"></path>
<path fill="#ADB39F" d="M103.5 62.5L111 64L110 66L107.5 65.5L106.044 68.4123L101.044 67.4123L103.5 62.5Z"></path>
<path fill="#453F3F" d="M111 64V66L110 68L107.5 67.5L106.953 68.5941L106.044 68.4123L107.5 65.5L110 66L111 64Z"></path>
<path fill="#535454" d="M110 66V68L107.5 67.5V65.5L110 66Z"></path>
</svg>
