<svg xmlns="http://www.w3.org/2000/svg" fill="none" viewBox="0 0 200 200" height="200" width="200">
<path fill="#5B3C4A" d="M106 114L114 98V90L106 106V114Z"></path>
<path fill="#8F6E80" d="M86 110L106 114V106L86 102V110Z"></path>
<path fill="#D8A3B7" d="M86 102L106 106L114 90L94 86L86 102Z"></path>
<path fill="#5F5A8A" d="M111 124L113 120V100L111 104V124Z"></path>
<path fill="#99A1E0" d="M106 123L111 124V104L108 110V118L106 122V123Z"></path>
<path fill="#5F5A8A" d="M91 127L93 123V111.4L91 111V127Z"></path>
<path fill="#99A1E0" d="M86 126L91 127V111L86 110V126Z"></path>
<path fill="#5F5A8A" d="M97 127L99 123V112.6L97 112.2V127Z"></path>
<path fill="#99A1E0" d="M92 126L97 127V112.2L93 111.4V123L92 125V126Z"></path>
<path fill="#5F5A8A" d="M106 122L108 118V110L106 114V122Z"></path>
<path fill="#99A1E0" d="M101 121L106 122V114L101 113V121Z"></path>
<path fill-opacity="0.1" fill="white" d="M93 99L103 101L107 93L97 91L93 99Z"></path>
<path fill="#8C5E63" d="M86 110L106 114V110L86 106V110Z"></path>
<path fill="#59363D" d="M106 114L114 98V94L106 110V114Z"></path>
</svg>
