<svg xmlns="http://www.w3.org/2000/svg" fill="none" viewBox="0 0 200 200" height="200" width="200">
<path fill="#1B2B44" d="M72 88.0013L87 91.0013V87.0013L102 90.0013V114.001L72 108.001V88.0013Z"></path>
<path fill="#171F32" d="M102 90.0013L106 82.0013V86.0013L104 90.0013V110.001L102 114.001V90.0013Z"></path>
<path fill="#1B2B44" d="M104 90.0013L109 91.0013V111.001L104 110.001V90.0013Z"></path>
<path fill="#171F32" d="M109 91.0013L117 75.0013V95.0013L109 111.001V91.0013Z"></path>
<path fill="#1B2B44" d="M111 95.0013L116 96.0013V108.001L111 107.001V95.0013Z"></path>
<path fill="#171F32" d="M116 96.0013L122 84.0013V96.0013L116 108.001V96.0013Z"></path>
<path fill="#3B5D83" d="M117 83.0013L122 84.0013L116 96.0013L111 95.0013L117 83.0013Z"></path>
<path fill="#3B5D83" d="M107 73.0013L117 75.0013L109 91.0013L104 90.0013L106 86.0013V82.0013L102.818 81.3649L107 73.0013Z"></path>
<path fill="#3B5D83" d="M91 79.0014L101 81.0011L102.818 81.3649L106 82.0013L102 90.0013L87 87.0013L91 79.0014Z"></path>
<path fill="#3B5D83" d="M80 72.0014L85 73.0007V77.0007L86 77.2007V82.0007L89.1818 82.6377L87 87.0013V91.0013L72 88.0013L80 72.0014Z"></path>
<path fill="#1B2B44" d="M86 66.0012L101 69.0012V81.0011L91 79.0014L89.1818 82.6377L86 82.0007V66.0012Z"></path>
<path fill="#171F32" d="M101 69.0012L109 53.0011V73.4013L107 73.0013L102.818 81.3649L101 81.0011V69.0012Z"></path>
<path fill="#3B5D83" d="M89 53.0009L92.1818 53.6371L94 50.0007L109 53.0011L101 69.0012L86 66.0012L88.1819 61.6374L85 61.0007L89 53.0009Z"></path>
<path fill="#1B2B44" d="M85 61.0007L88.1819 61.6374L86 66.0012V77.2007L85 77.0007V61.0007Z"></path>
<path fill="#797A68" d="M92 80.0013L102 82.0013V90.0013L92 88.0013V80.0013Z"></path>
<path fill="#645A4D" d="M102 82.0013L106 74.0013V82.0013L102 90.0013V82.0013Z"></path>
<path fill="#F7FFC6" d="M96 72.0013L106 74.0013L102 82.0013L92 80.0013L96 72.0013Z"></path>
<path fill="#284E25" d="M109 95.0013L114 96.0013V112.001L109 111.001V95.0013Z"></path>
<path fill="#213A1C" d="M114 96.0013L116 92.0013V108.001L114 112.001V96.0013Z"></path>
<path fill="#58AD4F" d="M111 91.0013L116 92.0013L114 96.0013L109 95.0013L111 91.0013Z"></path>
<path fill="#213A1C" d="M117 83.0013L119 79.0013V83.4013L117 83.0013Z"></path>
<path fill="#58AD4F" d="M117 78.6013L119 79.0013L117 83.0013V78.6013Z"></path>
<path fill="#797A68" d="M85 53.0008L95 55.0008V59.0008L90 58.0008L88.1819 61.6374L85 61.0007V53.0008Z"></path>
<path fill="#645A4D" d="M95 55.0008L99 47.0008V51.0008L95 59.0008V55.0008Z"></path>
<path fill="#F7FFC6" d="M89 45.0008L99 47.0008L95 55.0008L85 53.0008L89 45.0008Z"></path>
<path fill="#6E1D3D" d="M108 58.0013L113 59.0013V83.0013L108 82.0013V58.0013Z"></path>
<path fill="#5C162E" d="M113 59.0013L115 55.0013V67.0008L117 63.001V47.0008L119 43.0013V63.0008L115 71.0008V79.0013L113 83.0013V59.0013Z"></path>
<path fill="#EB4075" d="M110 54.0013L115 55.0013L113 59.0013L108 58.0013L110 54.0013Z"></path>
<path fill="#6E1D3D" d="M112 46.0007L117 47.0008V63.001L115 62.601V55.0013L112 54.4013V46.0007Z"></path>
<path fill="#EB4075" d="M114 42.0004L119 43.0013L117 47.0008L112 46.0007L114 42.0004Z"></path>
<path fill="#EB4075" d="M115 62.601L117 63.001L115 67.0008V62.601Z"></path>
<path fill="#6E1D3D" d="M79 61.0007L84 62.0007V86.0007L79 85.0007V61.0007Z"></path>
<path fill="#5C162E" d="M84 62.0007L86 58.0007V70.0002V74.0002V82.0007L84 86.0007V62.0007Z"></path>
<path fill="#EB4075" d="M81 57.0007L86 58.0007L84 62.0007L79 61.0007L81 57.0007Z"></path>
<path fill="#6E1D3D" d="M89 63.0013L94 64.0013V52.0003L92 56.0008V72.0014L94 68.0008V76.0012L92 80.0013V83.6007L89 83.0013V63.0013Z"></path>
<path fill="#5C162E" d="M94 64.0013L96 60.0013V68.0008V72.0013L94 76.0012V68.0008L92 72.0014V56.0008L94 52.0003V64.0013Z"></path>
<path fill="#EB4075" d="M94 59.6013L96 60.0013L94 64.0013V59.6013Z"></path>
<path fill="#EB4075" d="M89 51.0003L94 52.0003L92 56.0008L87 55.0003L89 51.0003Z"></path>
<path fill="#6E1D3D" d="M87 55.0017L92 56.0008V72.0014L87 71.0014V55.0017Z"></path>
<path fill="#6E1D3D" d="M95 43.0011L100 44.0011V60.0011L95 59.0008V43.0011Z"></path>
<path fill="#5C162E" d="M100 44.0011L102 40.0011V32L104 28.0011V40L106 36.0011V32L108 28V36.0011L102 48.0011V56.0011L100 60.0011V44.0011Z"></path>
<path fill="#EB4075" d="M97 39.0011L102 40.0011L100 44.0011L95 43.0011L97 39.0011Z"></path>
<path fill="#EB4075" d="M103 27L108 28L106 32L104 31.6V28L102.636 27.7273L103 27Z"></path>
<path fill="#EB4075" d="M99 27L104 28L102 32L97 31L99 27Z"></path>
<path fill="#6E1D3D" d="M97 31L102 32V39.9988L97 38.9985V31Z"></path>
<path fill="#6E1D3D" d="M104 31.6L106 32V36.0011L104 35.6008V31.6Z"></path>
<path fill="#EB4075" d="M104 35.6008L106 36.0011L104 40V35.6008Z"></path>
<path fill="#6E1D3D" d="M93 31.0008L98 32.0008V52.0008L93 51.0008V31.0008Z"></path>
<path fill="#5C162E" d="M98 32.0008L100 28.0008V36.0003V40.0003V48.0009L98 52.0008V32.0008Z"></path>
<path fill="#EB4075" d="M95 27.0008L100 28.0008L98 32.0008L93 31.0008L95 27.0008Z"></path>
</svg>
