<svg xmlns="http://www.w3.org/2000/svg" fill="none" viewBox="0 0 200 200" height="200" width="200">
<path fill="#2E1E76" d="M91.999 77L111.999 81V101L91.999 97V77Z"></path>
<path fill="#281658" d="M111.999 81L117.999 69V89L111.999 101V81Z"></path>
<path fill="#633FE1" d="M97.999 65L117.999 69L111.999 81L91.999 77L97.999 65Z"></path>
<path fill="#633FE1" d="M114.182 88.6364L116 89L114 93V89L114.182 88.6364Z"></path>
<path fill="#2E1E76" d="M116 85V89L114.182 88.6364L116 85Z"></path>
<path fill="#606EAB" d="M101.999 83L106.999 84V88L101.999 87V83Z"></path>
<path fill="#2E5C93" d="M94.999 94L104.999 96V100L94.999 98V94Z"></path>
<path fill="#234674" d="M104.999 96L106.999 92V96L104.999 100V96Z"></path>
<path fill="#63C3FF" d="M96.999 90L106.999 92L104.999 96L94.999 94L96.999 90Z"></path>
<path fill="#2E5C93" d="M89 64L109 68V76L94 72.9981L91.999 77V92.5998L79 90V86L84 87V83L79 82V78L89 80V64Z"></path>
<path fill="#234674" d="M109 68L111 64V72L109 76V68Z"></path>
<path fill="#63C3FF" d="M91 60L111 64L109 68L89 64L91 60Z"></path>
<path fill="#63C3FF" d="M81 74L89 75.6V80L79 78L81 74Z"></path>
<path fill="#2E1E76" d="M89 84L91.999 84.5998V88.5998L89 88V84Z"></path>
<path fill="#63C3FF" d="M80.8182 82.3636L84 83V87L79 86L80.8182 82.3636Z"></path>
</svg>
