<svg xmlns="http://www.w3.org/2000/svg" fill="none" viewBox="0 0 200 200" height="200" width="200">
<path fill="#CC9F34" d="M83 91L110.5 96.5V110.5L83 105V91Z"></path>
<path fill="#806320" d="M110.5 96.5L118.5 80.5V94.5L110.5 110.5V96.5Z"></path>
<path fill="#FFC641" d="M91 75L118.5 80.5L110.5 96.5L83 91L91 75Z"></path>
<path fill="#FFC741" d="M94 97L98 97.8V100L93 99L94 97Z"></path>
<path fill="#7F6320" d="M94 95.2V97L93 99V95L94 95.2Z"></path>
<path fill="#FFC741" d="M103.909 103.182L105.5 103.5V105.5L103 105L103.909 103.182Z"></path>
<path fill="#7F6320" d="M103.909 103.182L103 105V103L103.909 103.182Z"></path>
<path fill="#FFC741" d="M91.5 102.5L95.5 103.3V105.5L90.5 104.5L91.5 102.5Z"></path>
<path fill="#7F6320" d="M91.5 100.7V102.5L90.5 104.5V100.5L91.5 100.7Z"></path>
<path fill="#FFC741" d="M86.4091 95.6818L88 96V98L85.5 97.5L86.4091 95.6818Z"></path>
<path fill="#7F6320" d="M86.4091 95.6818L85.5 97.5V95.5L86.4091 95.6818Z"></path>
<path fill="#FFC641" d="M115.682 94.1364L117.5 94.5L115.5 98.5V94.5L115.682 94.1364Z"></path>
<path fill="#CC9F34" d="M115.682 94.1364L117.5 90.5V94.5L115.682 94.1364Z"></path>
<path fill="#FFC641" d="M112.682 94.1364L114.5 94.5L112.5 98.5V94.5L112.682 94.1364Z"></path>
<path fill="#CC9F34" d="M112.682 94.1364L114.5 90.5V94.5L112.682 94.1364Z"></path>
<path fill="#FFC641" d="M111.591 102.318L112.5 102.5L111.5 104.5V102.5L111.591 102.318Z"></path>
<path fill="#CC9F34" d="M111.591 102.318L112.5 100.5V102.5L111.591 102.318Z"></path>
<path fill="#CC9F34" d="M97.0038 85L102.004 86L101.087 87.8167L97.0038 87V85Z"></path>
<path fill="#806320" d="M97.0038 85L95.0038 88.9818L95.9167 89.1644L97.0038 87V85Z"></path>
<path fill="#CC9F34" d="M107.5 80.5L112.5 81.5L111.583 83.3167L107.5 82.5V80.5Z"></path>
<path fill="#806320" d="M107.5 80.5L105.5 84.4818L106.413 84.6644L107.5 82.5V80.5Z"></path>
<path fill="#CC9F34" d="M94 80L96.5 80.5L95.5833 82.3167L94 82V80Z"></path>
<path fill="#806320" d="M94 80L93 81.9818L93.9129 82.1644L94 82V80Z"></path>
<path fill="#FFC741" d="M104 99L108 99.8V102L103 101L104 99Z"></path>
<path fill="#7F6320" d="M104 97.2V99L103 101V97L104 97.2Z"></path>
<path fill="#FFC641" d="M115.591 90.3182L116.5 90.5L115.5 92.5V90.5L115.591 90.3182Z"></path>
<path fill="#CC9F34" d="M115.591 90.3182L116.5 88.5V90.5L115.591 90.3182Z"></path>
<path fill="#CC9F34" d="M107.504 91.5189L110.004 92.0189L109.087 93.8356L107.504 93.5189V91.5189Z"></path>
<path fill="#806320" d="M107.504 91.5189L106.504 93.5008L107.417 93.6833L107.504 93.5189V91.5189Z"></path>
<path fill="#CC9F34" d="M88.5024 85.5L93.5024 86.5L92.5858 88.3167L88.5024 87.5V85.5Z"></path>
<path fill="#806320" d="M88.5024 85.5L86.5024 89.4818L87.4153 89.6644L88.5024 87.5V85.5Z"></path>
</svg>
