<svg xmlns="http://www.w3.org/2000/svg" fill="none" viewBox="0 0 200 200" height="200" width="200">
<path fill="#444563" d="M71.9978 76.9994L116.997 85.9991V89.999L109.497 88.499V90.499L104.497 89.499V91.499L109.497 92.4989V94.4989L71.9978 86.9991V76.9994Z"></path>
<path fill="#4F5682" d="M71.9978 84.9991L101.997 90.999V84.9991L116.997 87.9991V89.999L109.497 88.499L104.497 87.4991V89.499V91.499L109.497 92.4989V94.4989L71.9978 86.9991V84.9991Z"></path>
<path fill="#5D69A3" d="M104.497 87.4991L109.497 88.499V90.499L104.497 89.499V87.4991Z"></path>
<path fill="#8E93BB" d="M76.9977 67.0008L121.996 76.0005L125.996 68.0008L131 69.0006L117.996 95L112.997 94.0001L116.997 85.9991L71.9978 76.9994L76.9977 67.0008Z"></path>
<path fill="#444563" d="M112.997 94.0001L117.996 95V97L112.997 96V94.0001Z"></path>
<path fill="#363650" d="M117.996 95L131 69.0006V71.0005L117.996 97V95Z"></path>
<path fill="#4F5682" d="M112.997 96L117.996 97L118 98.9997L112.997 98V96Z"></path>
<path fill="#44415E" d="M117.996 97L131 71.0005V73.0004L118 98.9997L117.996 97Z"></path>
<path fill="#5D69A0" d="M115.497 96.5L117.996 97L118 98.9997L115.497 98.4999V96.5Z"></path>
<path fill="#4E5177" d="M117.996 97L119.996 93.0001V95L118 98.9997L117.996 97Z"></path>
<path fill="#4E5177" d="M128.996 75.0006L131 71.0005V73.0004L128.996 77.0005V75.0006Z"></path>
<path fill="#A3B7F6" d="M105.406 89.6808L109.497 90.499V88.499L111.315 88.8627L109.497 92.4989L104.497 91.499L105.406 89.6808Z"></path>
<path fill="#44415E" d="M109.497 92.4989L111.315 88.8627L112.224 89.0445L109.497 94.4989V92.4989Z"></path>
<path fill="#44415E" d="M104.497 89.499L105.406 89.6808L104.497 91.499V89.499Z"></path>
<path fill="#475184" d="M109.497 88.499L110.406 88.6809L109.497 90.499V88.499Z"></path>
<path fill="#444563" d="M86.4974 67.5008L93.9972 69.0008V77.0005L86.4974 75.5006V67.5008Z"></path>
<path fill="#37344F" d="M93.9972 69.0008L94.9971 67.0008V75.0006L93.9972 77.0005V69.0008Z"></path>
<path fill="#242331" d="M83.9975 65.0009L93.9972 67.0009V69.0008L86.4974 67.5008L83.9975 67.0009V65.0009Z"></path>
<path fill="#1B1B25" d="M93.9972 67.0009L94.9971 65.0009V67.0008L93.9972 69.0008V67.0009Z"></path>
<path fill="#484B5E" d="M84.9974 63.001L94.9971 65.0009L93.9972 67.0009L86.4974 65.5009L83.9975 65.0009L84.9974 63.001Z"></path>
<path fill="#444563" d="M85.4974 96.5001L95.4971 98.5001V100.5L85.4974 98.5001V96.5001Z"></path>
<path fill="#363650" d="M95.4971 98.5001L99.497 90.5003V92.5002L95.4971 100.5V98.5001Z"></path>
<path fill="#8C91BB" d="M86.4974 94.5002L88.9973 95.0001L91.9972 88.999L99.497 90.5003L95.4971 98.5001L85.4974 96.5001L86.4974 94.5002Z"></path>
<path fill="#444563" d="M98.1325 71.2278L108.132 73.2265V73.2277L98.1325 71.2278Z"></path>
<path fill="#363650" d="M108.132 73.2265L108.497 72.4995V73.3006L108.132 73.2277V73.2265Z"></path>
<path fill="#8C91BB" d="M98.1325 71.2278L98.497 70.4982L108.497 72.4995L108.132 73.2265L98.1325 71.2278Z"></path>
<path fill="#444563" d="M57.9981 74.0008L72.0881 76.8188L71.9977 77.0007L71.9978 82.8005L62.998 81.0005V78.9992L57.9981 78.0007V74.0008Z"></path>
<path fill="#363650" d="M72.0881 76.8188L75.088 70.8189L71.9977 77.0007L72.0881 76.8188Z"></path>
<path fill="#8C91BB" d="M57.9981 74.0008L60.998 67.9996L75.088 70.8189L72.0881 76.8188L57.9981 74.0008Z"></path>
<path fill="#4F5682" d="M62.998 79.0006L71.9978 80.8006V82.8005L62.998 81.0005V79.0006Z"></path>
<path fill="#242331" d="M63.9979 71.0009L68.9978 72.0009V74.0008L63.9979 73.0008V71.0009Z"></path>
<path fill="#1B1B25" d="M68.9978 72.0009L69.9978 70.0009V72.0008L68.9978 74.0008V72.0009Z"></path>
<path fill="#484B5E" d="M64.9979 69.001L69.9978 70.0009L68.9978 72.0009L63.9979 71.0009L64.9979 69.001Z"></path>
<path fill="#242331" d="M49.002 54.0012L54.0016 55.0012V79.0005L51.5019 78.5005V56.5009L49.002 56.0012V54.0012Z"></path>
<path fill="#484B5E" d="M49.002 54.0012L50.0017 52L55.0016 53.0013L54.0016 55.0012L49.002 54.0012Z"></path>
<path fill="#444563" d="M54.0016 55.0012L59.0015 56.0012V71.9936L57.9981 74.0008V78.0007L59.0015 78.201V80.0005L54.0016 79.0005V55.0012Z"></path>
<path fill="#363650" d="M59.0015 56.0012L60.0014 54.0013L59.9976 70.0009L59.0015 71.9936L57.9981 74.0008V78.0007L59.0015 78.201L59.8195 78.3644L59.0015 80.0005V78.201L57.9981 78.0007V74.0008L59.0015 71.9936V56.0012Z"></path>
<path fill="#8C91BB" d="M54.0016 55.0012L55.0016 53L60.0014 54.0013L59.0015 56.0012L54.0016 55.0012Z"></path>
</svg>
