<svg xmlns="http://www.w3.org/2000/svg" fill="none" viewBox="0 0 400 300" height="300" width="400">
<path fill="#2C3671" d="M141.001 123L201.001 135V143L186.001 140V144L141.001 135V123Z"></path>
<path fill="#6483EE" d="M149.001 107L209.001 119L201.001 135L141.001 123L149.001 107Z"></path>
<path fill="#1E2657" d="M209.001 119V127L201.001 143L187.819 140.364L186.001 144V140L201.001 143V135L209.001 119Z"></path>
<path fill="#6B81CA" d="M196.001 142V146L191.001 145V141L196.001 142Z"></path>
<path fill="#5E5C9B" d="M197.819 142.364L196.001 146V142L197.819 142.364Z"></path>
<path fill="#667AD1" d="M181.001 135V139L176.001 138V134L181.001 135Z"></path>
<path fill="#3B3E6B" d="M187.819 140.364L189.638 140.727L186.002 148L186.001 144L187.819 140.364Z"></path>
<path fill="#485894" d="M186.001 144L186.002 148L141.002 139L141.001 135L186.001 144Z"></path>
<path fill="#243061" d="M172.001 146V150L162.001 148V144L172.001 146Z"></path>
<path fill="#5065B8" d="M176.001 138L172.001 146L162.001 144L166.001 136L176.001 138Z"></path>
<path fill="#1C2550" d="M176.001 138V142L172.001 150V146L176.001 138Z"></path>
<path fill="#2C3671" d="M141.183 122.637L141.001 123V130.6L113 125V117L141.183 122.637Z"></path>
<path fill="#6483EE" d="M145.183 114.637L141.183 122.637L113 117L117 109L145.183 114.637Z"></path>
<path fill="#243061" d="M173 117V125L163 123V119L158 118V114L173 117Z"></path>
<path fill="#5065B8" d="M177 109L173 117L158 114L162 106L177 109Z"></path>
<path fill="#1C2550" d="M177 109V117L173 125V117L177 109Z"></path>
<path fill="#243061" d="M123 111V119L113 117V113L108 112V108L123 111Z"></path>
<path fill="#5065B8" d="M127 103L123 111L108 108L112 100L127 103Z"></path>
<path fill="#1C2550" d="M127 103V111L123 119V111L127 103Z"></path>
<path fill="#243061" d="M123.03 127V135L108.03 132V128L113.03 129L113.03 125L123.03 127Z"></path>
<path fill="#1C2550" d="M123.03 127L126.664 127.733L123.03 135V127Z"></path>
<path fill="#5065B8" d="M113.03 120.2L113.03 125L113.03 129L108.029 128L112.029 120L113.03 120.2Z"></path>
<path fill="#26335D" d="M75.0012 79.9999L135.001 91.9999V100L120.001 97V101L75.0012 91.9999V79.9999Z"></path>
<path fill="#5576BB" d="M83.0012 63.9999L143.001 75.9999L135.001 91.9999L75.0012 79.9999L83.0012 63.9999Z"></path>
<path fill="#182955" d="M143.001 75.9999V83.9999L135.001 100L121.819 97.3636L120.001 101V97L135.001 100V91.9999L143.001 75.9999Z"></path>
<path fill="#6B81CA" d="M130.001 99V103L125.001 102V98L130.001 99Z"></path>
<path fill="#5E5C9B" d="M131.819 99.3636L130.001 103V99L131.819 99.3636Z"></path>
<path fill="#667AD1" d="M115.001 92V96L110.001 95V91L115.001 92Z"></path>
<path fill="#3B3E6B" d="M121.819 97.3636L123.638 97.7274L120.002 105L120.001 101L121.819 97.3636Z"></path>
<path fill="#485894" d="M120.001 101L120.002 105L75.0022 95.9999L75.0012 91.9999L120.001 101Z"></path>
<path fill="#1F284F" d="M106.001 103V107L96.0012 105V101L106.001 103Z"></path>
<path fill="#435995" d="M110.001 95L106.001 103L96.0012 101L100.001 93L110.001 95Z"></path>
<path fill="#122045" d="M110.001 95V99L106.001 107V103L110.001 95Z"></path>
<path fill="#26335D" d="M75.1829 79.6366L75.0012 79.9999V87.6002L47 81.9999V73.9999L75.1829 79.6366Z"></path>
<path fill="#5576BB" d="M79.1829 71.6366L75.1829 79.6366L47 73.9999L51 66L79.1829 71.6366Z"></path>
<path fill="#1F284F" d="M107 73.9999V81.9999L97 79.9999V75.9999L92 75V70.9999L107 73.9999Z"></path>
<path fill="#435995" d="M111 65.9999L107 73.9999L92 70.9999L96 63L111 65.9999Z"></path>
<path fill="#122045" d="M111 65.9999V73.9999L107 81.9999V73.9999L111 65.9999Z"></path>
<path fill="#1F284F" d="M57 67.9999V75.9999L47 73.9999V69.9999L42 69V64.9999L57 67.9999Z"></path>
<path fill="#435995" d="M61 59.9999L57 67.9999L42 64.9999L46 57L61 59.9999Z"></path>
<path fill="#122045" d="M61 59.9999V67.9999L57 75.9999V67.9999L61 59.9999Z"></path>
<path fill="#1F284F" d="M57.0302 83.9999V91.9999L42.0302 88.9999V85L47.0302 85.9999L47.03 81.9999L57.0302 83.9999Z"></path>
<path fill="#122045" d="M57.0302 83.9999L60.6638 84.7327L57.0302 91.9999V83.9999Z"></path>
<path fill="#435995" d="M47.0302 77.2003L47.03 81.9999L47.0302 85.9999L42.0287 85L46.0287 77.0001L47.0302 77.2003Z"></path>
</svg>
