<svg xmlns="http://www.w3.org/2000/svg" fill="none" viewBox="0 0 200 200" height="200" width="200">
<path fill="#FFB88C" d="M90 57.6667L91.6666 58V56.6667L94.9999 57.3333V56L105 58V74L90 71V57.6667Z"></path>
<path fill="#AA6F5A" d="M105 58L111 46V62L105 74V58Z"></path>
<path fill="#FF1B1B" d="M95.9999 45.6667L97.0602 45.8788L97.6663 44.6667L100.394 45.2121L101 44L111 46L105 58L94.9999 56V57.3333L91.6666 56.6667V58L90 57.6667L95.9999 45.6667Z"></path>
<path fill="#CC1515" d="M90 57.6667L91.6666 58V56.6667L94.9999 57.3333V56L105 58V62L108.333 62.6667V64L105 63.3333V64.6667L94.9999 62.6667V64L91.6666 63.3333V64.6667L90 64.3333V57.6667Z"></path>
<path fill="#800D0D" d="M111 46V50L105 62V58L111 46Z"></path>
<path fill="#800D0D" d="M114.333 50.6667V52L108.333 64V62.6667L114.333 50.6667Z"></path>
<path fill="#FF1B1B" d="M111 50L114.333 50.6667L108.333 62.6667L105 62L111 50Z"></path>
<path fill="#800D0D" d="M107.272 63.7879L105.606 63.4545L105 64.6667V63.3333L107.272 63.7879Z"></path>
<path fill="#808080" d="M109 51.3333V54L107 58V55.3333L109 51.3333Z"></path>
<path fill="#AA6F5A" d="M112.333 60V62.6667L110.333 66.6667V64L112.333 60Z"></path>
<path fill="#FFB88C" d="M110.333 64V66.6667L107 66V63.7333L108.333 64L108.515 63.6364L110.333 64Z"></path>
<path fill="#FFD9B1" d="M112.333 60L110.333 64L108.515 63.6364L110.515 59.6364L112.333 60Z"></path>
<path fill="#04040A" d="M108 66.3333V67.6667L108.666 66.3333L109.878 66.5758L108 70.3333V69L107.333 70.3333V67.6667L108 66.3333Z"></path>
<path fill="#261F24" d="M107.333 67.6667V70.3333L105.666 70V67.3333L107.333 67.6667Z"></path>
<path fill="#533A41" d="M108 66.3333L107.333 67.6667L105.666 67.3333L106.333 66L108 66.3333Z"></path>
<path fill="#533A41" d="M108.666 66.3333L108 67.6667V66.3333L106.939 66.1212L107 66L108.666 66.3333Z"></path>
<path fill="#261F24" d="M108 69V70.3333L107.394 70.2121L108 69Z"></path>
<path fill="#04040A" d="M112 59.9333L111.333 59.8V59.6667L112 58.3333V59.9333Z"></path>
<path fill="#533A41" d="M112 58.3333L111.333 59.6667L110.575 59.5152L111.242 58.1818L112 58.3333Z"></path>
<path fill="#261F24" d="M111.333 59.6667V59.8L110.515 59.6364L110.575 59.5152L111.333 59.6667Z"></path>
<path fill="#7F7F7F" d="M107 63.7333V64.6667L106.333 66V63.6L107 63.7333Z"></path>
<path fill="#AA6F5A" d="M98.3332 66V70L96.9999 72.6667V68.6667L98.3332 66Z"></path>
<path fill="#FFB88C" d="M96.9999 68.6667V72.6667L93.6666 72V68L96.9999 68.6667Z"></path>
<path fill="#FFD9B1" d="M98.3332 66L96.9999 68.6667L93.6666 68L94.9999 65.3333L98.3332 66Z"></path>
<path fill="#714A3C" d="M98.3332 67.3333V68.6667L97.6665 70V68.6667L98.3332 67.3333Z"></path>
<path fill="#501D16" d="M94.9999 65.3333L93.6666 68V71.7333L90 71V64.3333L91.6666 64.6667V63.3333L94.9999 64V62.6667L99.9998 63.6667V67.6667L98.3332 67.3333V66L94.9999 65.3333Z"></path>
<path fill="#CC1515" d="M91.6663 72.6667L101.666 74.6667V92L98.3328 91.3333V102L91.6663 100.667V72.6667Z"></path>
<path fill="#7F0D0D" d="M101.666 74.6667L102.272 73.4545L105 74L106.879 70.2424L107.333 70.3333L107.394 70.2121L107.666 70.2666V80L101.666 92V74.6667Z"></path>
<path fill="#FF1B1B" d="M92.2723 71.4545L93.6666 71.7333V72L96.9999 72.6667L97.1211 72.4242L98.7878 72.7576L102.272 73.4545L101.666 74.6667L91.6663 72.6667L92.2723 71.4545Z"></path>
<path fill="#1E56D4" d="M91.6663 75.3333L93.3329 75.6667V77L101.666 78.6667V92L98.3328 91.3333V102L91.6663 100.667V75.3333Z"></path>
<path fill="#12349E" d="M101.666 78.6667L102.333 77.3333V73.4666L103.666 73.7333V74.6667L104.09 73.8181L105 74L106.879 70.2424L107.333 70.3333L107.394 70.2121L107.666 70.2666V80L101.666 92V78.6667Z"></path>
<path fill="#12349E" d="M98.3328 91.3333L101.666 92L100.999 91.8667V96.6667L98.3328 102V91.3333Z"></path>
<path fill="#12349E" d="M101.666 92L104.333 86.6667V90L101.666 95.3333V92Z"></path>
<path fill="#1E56D4" d="M100.999 91.8667L101.666 92V95.3333L100.999 95.2V91.8667Z"></path>
<path fill="#502D2C" d="M100.999 96.6667V98L104.333 98.6667V101.333L101.666 106.667V104L98.3328 103.333V102L100.999 96.6667Z"></path>
<path fill="#874633" d="M98.3328 102V103.333L101.666 104V106.667L91.6663 104.667V100.667L98.3328 102Z"></path>
<path fill="#D37753" d="M98.3328 103.333L100.999 98L104.333 98.6667L101.666 104L98.3328 103.333Z"></path>
<path fill="#502D2C" d="M104.333 90L104.333 91.3333L107.666 92V94.6667L105 100V97.3333L101.666 96.6667L101.666 95.3333L104.333 90Z"></path>
<path fill="#874633" d="M101.666 95.3333L101.666 96.6667L105 97.3333V100L104.333 99.8666V98.6667L100.999 98V95.2L101.666 95.3333Z"></path>
<path fill="#D37753" d="M101.666 96.6667L104.333 91.3333L107.666 92L105 97.3333L101.666 96.6667Z"></path>
<path fill="#7F0D0D" d="M98.3328 74V78L97.9995 78.6667V86.6667L95.9995 90.6667V78.6667L98.3328 74Z"></path>
<path fill="#CC1515" d="M95.9995 78.6667V90.6667L90.9996 89.6667V77.6667L95.9995 78.6667Z"></path>
<path fill="#FF1B1B" d="M98.3328 74L95.9995 78.6667L90.9996 77.6667L93.3329 73L98.3328 74Z"></path>
<path fill="#7F7F7F" d="M97.9995 86.6667V90.6667L95.9995 94.6667V90.6667L97.9995 86.6667Z"></path>
<path fill="#CBCBCB" d="M95.9995 90.6667V94.6667L90.9996 93.6667V89.6667L95.9995 90.6667Z"></path>
<path fill="#E2C530" d="M103.666 74.6667V77.3333L102.333 80V77.3333L103.666 74.6667Z"></path>
</svg>
