<svg xmlns="http://www.w3.org/2000/svg" fill="none" viewBox="0 0 200 200" height="200" width="200">
<path fill="#9498C8" d="M87 74L102 77V103L92.2219 101.044L87 100V74Z"></path>
<path fill="white" d="M94 60L109 63L102 77L87 74L94 60Z"></path>
<path fill="#56598C" d="M109 63V79L113 71V81L102 103V77L109 63Z"></path>
<path fill="white" d="M109 68L111.5 68.5L110.5 70.5L113 71L109 79V68Z"></path>
<path fill="#56598C" d="M111.5 70.7L110.5 70.5L111.5 68.5V70.7Z"></path>
<path fill="#803647" d="M98 70.0051V74L93.0028 73.0006V69.0027L98 70.0051Z"></path>
<path fill="#4E1F31" d="M102 62.0102V66.0051L98 74V70.0051L102 62.0102Z"></path>
<path fill="#EC6373" d="M97.0028 61.0078L102 62.0102L98 70.0051L93.0028 69.0027L97.0028 61.0078Z"></path>
<path fill="#0A0A26" d="M104.003 76.9898V78.9949L103 81V78.9949L104.003 76.9898Z"></path>
<path fill="#F27257" d="M92.0056 79.0027L97.0028 80.0051L94.0028 86L89.0056 84.9976L92.0056 79.0027Z"></path>
<path fill="#4C2425" d="M97.0028 80.0051V84L94.0028 89.9949V86L97.0028 80.0051Z"></path>
<path fill="#823E35" d="M94.0028 86V89.9949L89.0056 88.9924V84.9976L94.0028 86Z"></path>
<path fill="#4E1F31" d="M97.0028 84V87.9949L95.0028 92V87.9949L97.0028 84Z"></path>
<path fill="#803647" d="M95.0028 87.9949V92L90.0056 90.9903V89.193L94.0028 89.9949L95.0028 87.9949Z"></path>
<path fill="#9498C8" d="M104 91L109 92V98L104 97V91Z"></path>
<path fill="white" d="M110 78.9997L114.999 79.9997L109 92L104 91L110 78.9997Z"></path>
<path fill="#56598C" d="M114.999 79.9997V85.9997L109 98V92L114.999 79.9997Z"></path>
<path fill="#9498C8" d="M84 87L89 88V94L84 93V87Z"></path>
<path fill="white" d="M87.0001 80.9999L87 87.6L89 88L84 87L87.0001 80.9999Z"></path>
<path fill="#823E35" d="M106 97.4V100.995L103.501 100.494V99.9972L104.909 97.1818L106 97.4Z"></path>
<path fill="#4C2425" d="M107 97.6V99L106 100.995V97.4L107 97.6Z"></path>
<path fill="#F27257" d="M103.501 100.494L106 100.995L107 99V97.6L109 98L109.364 97.2709L110.499 97.4961L105.499 107.491L103 106.99L105 103L102.5 102.5L100.5 106.5L98 106L99.7273 102.545L102 103L103.501 99.9972V100.494Z"></path>
<path fill="#823E35" d="M105.499 107.491V109.5L103 108.999V106.99L105.499 107.491Z"></path>
<path fill="#823E35" d="M104.999 103.001L104.084 104.827L102.5 104.509V102.5L104.999 103.001Z"></path>
<path fill="#823E35" d="M100.5 106.5V108.509L98.0014 108.008V105.999L100.5 106.5Z"></path>
<path fill="#4C2425" d="M102.5 102.5V104.509L100.5 108.509V106.5L102.5 102.5Z"></path>
<path fill="#4C2425" d="M110.499 97.4961V99.5051L105.499 109.5V107.491L110.499 97.4961Z"></path>
<path fill="#823E35" d="M93.0014 104.994V107.003L90.5028 106.502V104.493L93.0014 104.994Z"></path>
<path fill="#823E35" d="M88.0028 104.003V106.012L85.5042 105.511V103.502L88.0028 104.003Z"></path>
<path fill="#4C2425" d="M89.7313 100.546L90.0028 100.601V102.012L88.0028 106.012V104.003L89.7313 100.546Z"></path>
<path fill="#4C2425" d="M95.6384 101.728L93.0014 107.003V104.994L94.7268 101.545L95.6384 101.728Z"></path>
<path fill="#F27257" d="M87.2285 100.043L89.7313 100.546L88.0028 104.003L85.5 103.5L87.2285 100.043Z"></path>
<path fill="#F27257" d="M92.2219 101.044L94.7299 101.537L93.0014 104.994L90.4986 104.491L92.2219 101.044Z"></path>
<path fill="#823E35" d="M92.2219 101.044L91.587 102.33L90.0028 102.012V100.601L92.2219 101.044Z"></path>
</svg>
