<svg xmlns="http://www.w3.org/2000/svg" fill="none" viewBox="0 0 200 200" height="200" width="200">
<path fill="#534C78" d="M93.001 112.997L101.001 96.9969V112.997L93.001 128.997V112.997Z"></path>
<path fill="#8D80AB" d="M78.001 109.997L93.001 112.997V128.997L78.001 125.997V109.997Z"></path>
<path fill="#FDE5FF" d="M86.001 93.997L101.001 96.9969L93.001 112.997L78.001 109.997L86.001 93.997Z"></path>
<path fill="#603143" d="M106.001 53.996L121.001 56.9959L101.001 96.9969L86.001 93.9959L106.001 53.996Z"></path>
<path fill="#231121" d="M101.001 96.9969L121.001 56.9959L121 72.9918L101.001 112.997V96.9969Z"></path>
<path fill="#341C2A" d="M105.001 84.9959L150.001 93.9961V89.9961L155.001 90.9959V98.9958L110.001 89.9961V93.9961L105.001 92.9959V84.9959Z"></path>
<path fill="#341C2A" d="M40 67.9961L45 68.9961V72.9961L85 80.9963L90 81.9961V85.9979L88.1826 89.6326L85 88.9961V84.9961L45 76.9963L40 75.9961V67.9961Z"></path>
<path fill="#231121" d="M90 81.9961L98 65.9935L98 69.9951L90 85.9979V81.9961Z"></path>
<path fill="#603143" d="M45 72.9961L53 56.9935L98 65.9935L90 81.9961L45 72.9961Z"></path>
<path fill="#603143" d="M40 67.9961L47.9996 51.9937L53.0001 52.9927L45 68.9961L40 67.9961Z"></path>
<path fill="#231121" d="M45 68.9961L52.9997 52.9936L53 56.9935L45 72.9961V68.9961Z"></path>
<path fill="#231121" d="M155.001 90.9959L163.001 74.9935L163.001 82.9932L155.001 98.9958V90.9959Z"></path>
<path fill="#603143" d="M105.001 84.9959L113.001 68.9934L156.183 77.6298L150.001 89.9961V93.9961L105.001 84.9959Z"></path>
<path fill="#603143" d="M150.001 89.9961L158.001 73.9935L163.001 74.9935L155.001 90.9959L150.001 89.9961Z"></path>
<path fill="#130E25" d="M95 112.999L97.0019 108.995L97.0019 112.997L95 117.001V112.999Z"></path>
<path fill="#63410B" d="M84.001 127.994L88.0029 119.99L88.0019 127.99L86.0009 131.992V135.994L84 140L84.001 127.994Z"></path>
<path fill="#F7C556" d="M83 118.99L88.0029 119.99L84.001 127.994L78.9981 126.994L83 118.99Z"></path>
<path fill="#A67F29" d="M78.9981 126.994L84.001 127.994L84 140L78.9971 138.994L78.9981 126.994Z"></path>
<path fill="#FDE5FF" d="M112 45.996L127 48.9959L121 60.9958L121 56.9932L107.818 54.3594L112 45.996Z"></path>
<path fill="#FDE5FF" d="M114 38L129 40.9999L127 44.9998L112 41.9998L114 38Z"></path>
<path fill="#8D80AB" d="M112 41.9998L127 44.9998L127 48.9959L112 45.996V41.9998Z"></path>
<path fill="#534C78" d="M121 60.9958L127 48.9959L127 44.9998L129 40.9999V48.9958L121 64.9958V60.9958Z"></path>
<path fill="#63410B" d="M121 68.9935L125.002 60.9893L125.001 64.9891L122.089 70.811L121.001 70.5934L121 68.9935Z"></path>
<path fill="#F7C556" d="M123.185 60.6259L125.002 60.9893L121 68.9935L121 64.9958L123.185 60.6259Z"></path>
</svg>
