<svg xmlns="http://www.w3.org/2000/svg" fill="none" viewBox="0 0 200 200" height="200" width="200">
<path fill="black" d="M93.001 112.997L101.001 96.9969V112.997L93.001 128.997V112.997Z"></path>
<path fill="black" d="M78.001 109.997L93.001 112.997V128.997L78.001 125.997V109.997Z"></path>
<path fill="black" d="M86.001 93.997L101.001 96.9969L93.001 112.997L78.001 109.997L86.001 93.997Z"></path>
<path fill="black" d="M106.001 53.996L121.001 56.9959L101.001 96.9969L86.001 93.9959L106.001 53.996Z"></path>
<path fill="black" d="M101.001 96.9969L121.001 56.9959L121 72.9918L101.001 112.997V96.9969Z"></path>
<path fill="black" d="M105.001 84.9959L150.001 93.9961V89.9961L155.001 90.9959V98.9958L110.001 89.9961V93.9961L105.001 92.9959V84.9959Z"></path>
<path fill="black" d="M40 67.9961L45 68.9961V72.9961L85 80.9963L90 81.9961V85.9979L88.1826 89.6326L85 88.9961V84.9961L45 76.9963L40 75.9961V67.9961Z"></path>
<path fill="black" d="M90 81.9961L98 65.9935L98 69.9951L90 85.9979V81.9961Z"></path>
<path fill="black" d="M45 72.9961L53 56.9935L98 65.9935L90 81.9961L45 72.9961Z"></path>
<path fill="black" d="M40 67.9961L47.9996 51.9937L53.0001 52.9927L45 68.9961L40 67.9961Z"></path>
<path fill="black" d="M45 68.9961L52.9997 52.9936L53 56.9935L45 72.9961V68.9961Z"></path>
<path fill="black" d="M155.001 90.9959L163.001 74.9935L163.001 82.9932L155.001 98.9958V90.9959Z"></path>
<path fill="black" d="M105.001 84.9959L113.001 68.9934L156.183 77.6298L150.001 89.9961V93.9961L105.001 84.9959Z"></path>
<path fill="black" d="M150.001 89.9961L158.001 73.9935L163.001 74.9935L155.001 90.9959L150.001 89.9961Z"></path>
<path fill="black" d="M95 112.999L97.0019 108.995L97.0019 112.997L95 117.001V112.999Z"></path>
<path fill="black" d="M84.001 127.994L88.0029 119.99L88.0019 127.99L86.0009 131.992V135.994L84 140L84.001 127.994Z"></path>
<path fill="black" d="M83 118.99L88.0029 119.99L84.001 127.994L78.9981 126.994L83 118.99Z"></path>
<path fill="black" d="M78.9981 126.994L84.001 127.994L84 140L78.9971 138.994L78.9981 126.994Z"></path>
<path fill="black" d="M112 45.996L127 48.9959L121 60.9958L121 56.9932L107.818 54.3594L112 45.996Z"></path>
<path fill="black" d="M114 38L129 40.9999L127 44.9998L112 41.9998L114 38Z"></path>
<path fill="black" d="M112 41.9998L127 44.9998L127 48.9959L112 45.996V41.9998Z"></path>
<path fill="black" d="M121 60.9958L127 48.9959L127 44.9998L129 40.9999V48.9958L121 64.9958V60.9958Z"></path>
<path fill="black" d="M121 68.9935L125.002 60.9893L125.001 64.9891L122.089 70.811L121.001 70.5934L121 68.9935Z"></path>
<path fill="black" d="M123.185 60.6259L125.002 60.9893L121 68.9935L121 64.9958L123.185 60.6259Z"></path>
<path fill="#CC0000" d="M40 68.0035L45 69.0035V73.0035L87.5 81.5035L90 82.0035V86.0035L88.1818 89.6398L85 89.0035V85.0035L40 76.0035V68.0035Z"></path>
<path fill="#CC0000" d="M105 85.0035L150 94.0035V90.0035L155 91.0035V99.0035L110 90.0035V94.0035L105 93.0035V85.0035Z"></path>
<path fill="#CC0000" d="M78 110.003L93 113.003V129.003L88 128.003V126.003L90.5 126.503V114.503L80.5 112.503V124.003L79.3636 126.276L78 126.003V110.003Z"></path>
<path fill="#CC0000" d="M112 42.0035L127 45.0035V49.0035L124.5 48.5035V46.5035L114.5 44.5035V46.5035L112 46.0035V42.0035Z"></path>
<path fill="#FF0000" d="M114 38.0037L129 41.0037L127 45.0035L124.5 44.5037L114.5 42.5037L112 42.0035L114 38.0037Z"></path>
<path fill="#FF0000" d="M106 54.0038L121 57.0038L114.818 69.3673L156.182 77.64L155.182 79.64L114.5 71.5037L108.5 83.5037L150 91.8037V94.0035L105 85.0035V89.0035L93 113.003L90.5 112.504L117.5 58.5038L107.5 56.5037L81.5 108.504L91.5 110.504L90.5 112.504L78 110.003L106 54.0038Z"></path>
<path fill="#FF0000" d="M53 57.0037L98 66.0037L90 82.0035L87.5 81.5035L94.5 67.5037L52 59.0035L46 71.0035L88.4999 79.5037L87.5 81.5035L45 73.0035L53 57.0037Z"></path>
<path fill="#FF0000" d="M158 74.0037L163 75.0037L155 91.0035L152.5 90.5037L150 90.0035L158 74.0037Z"></path>
<path fill="#FF0000" d="M48 52.0037L53 53.0037L45 69.0035L42.5 68.5037L40 68.0035L48 52.0037Z"></path>
<path fill="#7E0000" d="M53 57.0037V53L45 68.9998V73.0035L46 70.9998V68.9998L52 57.0038V58.9998L53 57.0037Z"></path>
<path fill="#7E0000" d="M98 70.0073V66.0037L90 82.0035V86.0071L91 84.0035V82.0035L97 70.0075V72.0035L98 70.0073Z"></path>
<path fill="#7E0000" d="M163 83.0073V75.0037L155 91.0035V99.0071L162 85.0035V83L156 95V91.0035L162 79.0075V83V85.0035L163 83.0073Z"></path>
<path fill="#FF0000" d="M112 46.0035L114.5 46.5035L127 49.0035L121 61V57.0038L120.316 56.8671L124.5 48.5035L114.5 46.507L110.318 54.8674L107.818 54.3674L112 46.0035Z"></path>
<path fill="#7E0000" d="M129 48.9982V41.0037L127 45.0035V49.0035L121 61.0033V65.0051L129 48.9982Z"></path>
<path fill="#7E0000" d="M105 91.0111V89.0035L93 113.003V129.003L112.273 90.458L111.364 90.2762L110 90.0035V93V94L109.544 93.9123L94 125V113.003L100 101.007L105 91.0111Z"></path>
<path fill="#7E0000" d="M125 65V61L121 69.0053V70.6037L122.092 70.822L125 65Z"></path>
<path fill="#FF0000" d="M123.184 60.6367L125 61L121 69.0053V65.0051L123.184 60.6367Z"></path>
<path fill="#FF0000" d="M83 119L88 120L84 128L79 127L83 119Z"></path>
<path fill="#7E0000" d="M88 128.003V120L84 128.005V140L86 136V132L88 128.003Z"></path>
<path fill="#CC0000" d="M79 127.005L84 128.005V140L79 139V127.005Z"></path>
<path fill="#7E0000" d="M97 113.001V109.001L95 113.003V117L97 113.001Z"></path>
</svg>
