<svg xmlns="http://www.w3.org/2000/svg" fill="none" viewBox="0 0 200 200" height="200" width="200">
<path fill="#CC1515" d="M86.3333 54L96.3333 56.0008V57.3342L99.6667 58V59.3333L101.333 59.6666V66.3333L99.6667 66V64.6667L96.3333 64V62.6667L86.3333 60.6666V59.3333L83 58.6667V57.3333L86.3333 58V54Z"></path>
<path fill="#7F0D0D" d="M101.333 59.6666L107.333 47.6666V54.3333L101.333 66.3333V59.6666Z"></path>
<path fill="#FF1B1B" d="M92.3333 42L102.333 44.0008V45.3341L105.667 46.0008V47.3342L107.333 47.6666L101.333 59.6666L99.6667 59.3333V58L96.3333 57.3342V56.0008L86.3333 54L92.3333 42Z"></path>
<path fill="#FF1B1B" d="M89 45.3342L90.5149 45.6368L86.3333 54V58L83 57.3342L89 45.3342Z"></path>
<path fill="#7F0D0D" d="M99.6667 58L105.667 46.0001V47.3342L99.6667 59.3341V58Z"></path>
<path fill="#7F0D0D" d="M96.3333 56L102.333 44V45.3341L96.3333 57.3342V56Z"></path>
<path fill="#32120E" d="M101.333 66.3333L107.333 54.3333V61L101.333 73V66.3333Z"></path>
<path fill="#501D16" d="M96.3333 64L99.6667 64.6667V66L101.333 66.3333V73L96.3333 72.0008V65.3342L93 64.6675L92.3939 65.8796L91.3333 65.6675V61.6667L96.3333 62.6667V64Z"></path>
<path fill="#AA6F5A" d="M95 68.0008L96.3333 65.3342V69.3342L95 72.0008V68.0008Z"></path>
<path fill="#FFD9B1" d="M91.6667 67.3342L93 64.6675L96.3333 65.3342L95 68.0008L91.6667 67.3342Z"></path>
<path fill="#FFB88C" d="M91.6667 71.3342V67.3342L95 68.0008V72.0008L91.6667 71.3342Z"></path>
<path fill="#FFB88C" d="M86.3333 70V60.6666L91.3333 61.6667V65.6667L92.3939 65.8796L91.6667 67.3342V71.0674L86.3333 70Z"></path>
<path fill="#FFB88C" d="M95.1212 71.7584L96.3333 69.3342V72.0008L95.1212 71.7584Z"></path>
<path fill="#533A41" d="M85.3333 63L86 61.6667L86.3333 61.7333V63.2L85.3333 63Z"></path>
<path fill="#261F24" d="M85.3333 65.6667V63L86.3333 63.2V65.8667L85.3333 65.6667Z"></path>
<path fill="#7F0D0D" d="M99.6667 74L100.273 72.788L101.333 73L105.667 64.3333V64.6666L99.6667 76.6666V74Z"></path>
<path fill="#CC1515" d="M89.6667 76V72L99.6667 74V76.6666L98 76.3342V77.6675L89.6667 76Z"></path>
<path fill="#FF1B1B" d="M89.6667 72L90.2727 70.788L91.6667 71.0674V71.3342L95 72.0008L95.1212 71.7584L100.273 72.788L99.6667 74L89.6667 72Z"></path>
<path fill="#1E56D4" d="M89.6667 89.3342V76L98 77.6675V76.3342L99.6667 76.6666V102L93 100.668V90.0008L89.6667 89.3342Z"></path>
<path fill="#12349E" d="M99.6667 102V76.6666L105.667 64.6666V79.3333V90.0008L103 95.3342V84.6675L102.333 86.0008V96.6675L99.6667 102.001V102Z"></path>
<path fill="#1E56D4" d="M102.333 95.2009V86.0008L103 84.6675V95.3342L102.333 95.2009Z"></path>
<path fill="#502D2C" d="M103 95.3342L105.667 90.0008V94.0008L103 99.3342V95.3342Z"></path>
<path fill="#874633" d="M102.333 99.2009V95.2009L103 95.3342V99.3342L102.333 99.2009Z"></path>
<path fill="#502D2C" d="M99.6667 102L102.333 96.6667V100.667L99.6667 106V102Z"></path>
<path fill="#874633" d="M89.6667 104.001V101.334L93 102.001V100.668L99.6667 102V106L89.6667 104.001Z"></path>
<path fill="#D37753" d="M93 102.001V96.1342L92.3333 96.0008L89.6667 101.334L93 102.001Z"></path>
<path fill="#7F0D0D" d="M98 73.6666V77.6666L97.6667 78.3333V86.3333L95.6667 90.3333V78.3333L98 73.6666Z"></path>
<path fill="#CC1515" d="M95.6667 78.3333V90.3333L90.6668 89.3333V77.3333L95.6667 78.3333Z"></path>
<path fill="#FF1B1B" d="M98 73.6666L95.6667 78.3333L90.6668 77.3333L93.0001 72.6666L98 73.6666Z"></path>
<path fill="#7F7F7F" d="M97.6667 86.3333V90.3333L95.6667 94.3333V90.3333L97.6667 86.3333Z"></path>
<path fill="#CBCBCB" d="M95.6667 90.3333V94.3333L90.6668 93.3333V89.3333L95.6667 90.3333Z"></path>
<path fill="#7F0D0D" d="M105.667 70.3331V64.3333L106.333 63.0002V69L105.667 70.3331Z"></path>
<path fill="#7F7F7F" d="M106.333 69V73L105.667 74.3331V70.3331L106.333 69Z"></path>
</svg>
