<svg xmlns="http://www.w3.org/2000/svg" fill="none" viewBox="0 0 54 54" height="54" width="54">
<path fill="#B3BFBF" d="M53.9996 9L26.9998 18V34L53.9996 25V9Z"></path>
<path fill="#5D94B3" d="M53.9996 25L26.9998 34L26.9999 38L53.9997 29L53.9996 25Z"></path>
<path fill="#6FA9BF" d="M53.9997 29L26.9999 38L27.0002 54L54 45L53.9997 29Z"></path>
<path fill="#ADFDFA" d="M26.9999 38L6.48499e-05 29L0.000400543 45L27.0002 54L26.9999 38Z"></path>
<path fill="#FDFDFB" d="M26.9998 18L0 9V25L9.00033 28.0001V24L17.9999 27V31L26.9998 34V18Z"></path>
<path fill="#96E9FB" d="M26.9998 34L17.9999 31V27L9.00033 24V28.0001L0 25L6.48499e-05 29L26.9999 38L26.9998 34Z"></path>
<path fill="#FDFDFB" d="M26.9998 0L0 9L26.9998 18L53.9996 9L26.9998 0Z"></path>
</svg>
