<svg xmlns="http://www.w3.org/2000/svg" fill="none" viewBox="0 0 960 60" height="60" width="960">
<rect fill="#D32222" height="60" width="960"></rect>
<path stroke-width="2" stroke="white" fill="#56C6F8" d="M294 17H295V16V15H359V16V17H360H361V47H360H359V48V49H295V48V47H294H293V17H294Z"></path>
<path fill="white" d="M314 25L304 25L304 27L302 27L302 37L304 37L304 39L314 39L314 37L316 37L316 27L314 27L314 25Z"></path>
<path fill="#56C6F8" d="M312 28.999L306 28.999L306 34.999L312 34.999L312 32.999L308 32.999L308 30.999L312 30.999L312 28.999Z"></path>
<path fill="white" d="M334 35H336V24H341V22H345V24H350V35H352V40H350V42H336V40H334V35Z"></path>
<path fill="#56C6F8" d="M338 28V26H340V28H338Z"></path>
<path fill="#56C6F8" d="M346 28V26H348V28H346Z"></path>
<path fill="#56C6F8" d="M341 31V29H345V31H341Z"></path>
<path fill="#56C6F8" d="M341 37V33H345V37H341Z"></path>
<path fill="white" d="M323 27L328 32L323 37V27Z"></path>
<path fill="white" d="M260 24H262V22H272V26H264V28H268V32H264V34H272V38H262V36H260V24Z"></path>
<path fill="white" d="M218 22H228V24H230V30H228V32H230V38H226V34H224V32H222V28H226V26H222V28V32V38H218V22Z"></path>
<path fill="white" d="M204 22H214V24H216V30H214V32H208V28H212V26H208V28V32V38H204V22Z"></path>
<path fill="white" d="M176 24H178V22H186V24H188V38H184V26H180V28H184V32H180V34V38H178H176V36V24Z"></path>
<path fill="white" d="M148 22H152V24H154V26H156V22H160V38H156V32H154V30H152V38H148V22Z"></path>
<path fill="white" d="M134 24V22H136H146V26H142V34H146V38H134V34H138V26H134V24Z"></path>
<path fill="white" d="M232 24V22H234H244V26H240V34H244V38H232V34H236V26H232V24Z"></path>
<path fill="white" d="M246 24V22H248H258V28H256V30H254V32H252V34H258V38H246V32H248V30H250V28H252V26H246V24Z"></path>
<path fill="white" d="M132 38L128 38L128 36L126 36L126 34L124 34L124 36L122 36L122 38L118 38L118 22L122 22L122 30L124 30L124 28L126 28L126 30L128 30L128 22L132 22L132 38Z"></path>
</svg>
