<svg xmlns="http://www.w3.org/2000/svg" fill="none" viewBox="0 0 200 200" height="200" width="200">
<path fill="#721523" d="M99 97L104 98V99L99 98V97Z"></path>
<path fill="#410C18" d="M104 98L106 93.9985V95L104 99V98Z"></path>
<path fill="#8787B7" d="M99 95.9985L104 97V98L99 97V95.9985Z"></path>
<path fill="#4F507E" d="M104 97L106 92.9986V93.9985L104 98V97Z"></path>
<path fill="#204F31" d="M99 94.9985L104 95.9985V97L99 95.9985V94.9985Z"></path>
<path fill="#122E22" d="M104 95.9985L106 91.9986V92.9986L104 97V95.9985Z"></path>
<path fill="#8787B7" d="M99 94.0006L104 94.9979V95.9985L99 94.9985V94.0006Z"></path>
<path fill="#4F507E" d="M104 94.9979L106 90.998V91.9986L104 95.9985V94.9979Z"></path>
<path fill="#721523" d="M99 93.0006L104 93.9989V94.9979L99 94.0006V93.0006Z"></path>
<path fill="#410C18" d="M104 93.9989L106 89.9974V90.998L104 94.9979V93.9989Z"></path>
<path fill="#8787B7" d="M99 91.9974L104 92.9989V93.9989L99 93.0006V91.9974Z"></path>
<path fill="#4F507E" d="M104 92.9989L106 88.9975V89.9974L104 93.9989V92.9989Z"></path>
<path fill="#204F31" d="M99 90.9974L104 91.9974V92.9989L99 91.9974V90.9974Z"></path>
<path fill="#122E22" d="M104 91.9974L106 87.9975V88.9975L104 92.9989V91.9974Z"></path>
<path fill="#8787B7" d="M99 89.9992L104 90.9996V91.9974L99 90.9974V89.9992Z"></path>
<path fill="#4F507E" d="M104 90.9996L106 86.9997V87.9975L104 91.9974V90.9996Z"></path>
<path fill="#F7F3FF" d="M99 89.9992L101 86.0001L106 86.9997L104 90.9996L99 89.9992Z"></path>
<path fill="#721523" d="M94 88.9964L99 89.9964V90.9974L94 89.9964V88.9964Z"></path>
<path fill="#CD2738" d="M94 88.9964L96 84.9969L101 85.9965L99 89.9964L94 88.9964Z"></path>
<path fill="#F7F3FF" d="M89 87.9952L91 83.9957L96 84.9953L94 88.9952L89 87.9952Z"></path>
<path fill="#8787B7" d="M89 87.998L94 88.9964V89.9964L89 88.9962V87.998Z"></path>
<path fill="#204F31" d="M84 86.9976L89 87.998V88.9976L84 87.9976V86.9976Z"></path>
<path fill="#3A8D4E" d="M84 86.9976L86 82.9981L91 83.9977L89 87.998L84 86.9976Z"></path>
<path fill="#8787B7" d="M84 87.9957L89 88.9962V89.9941L84 88.9939V87.9957Z"></path>
<path fill="#721523" d="M84 88.9939L89 89.9941V90.9948L84 89.9938V88.9939Z"></path>
<path fill="#410C18" d="M89 89.9941L89.4534 89.0869L89.9083 89.1779L89 90.9948V89.9941Z"></path>
<path fill="#4F507E" d="M89 88.9976L89.4534 89.0869L89 89.9953V88.9976Z"></path>
</svg>
