<svg xmlns="http://www.w3.org/2000/svg" fill="none" viewBox="0 0 200 200" height="200" width="200">
<path fill="#20BE73" d="M86 106L92 94L97 95L99 91L114 94L106 110L86 106Z"></path>
<path fill="#18955D" d="M86 110V106L106 110V114L86 110Z"></path>
<path fill="#0B533B" d="M106 114V110L114 94V98L106 114Z"></path>
<path fill="#18955D" d="M88 102L90 98L100 100L104 92L109 93L103 105L88 102Z"></path>
<path fill="black" d="M86 106L106 110V114L86 110V106Z"></path>
<path fill="black" d="M106 110L114 93.9998V97.9998L106 114V110Z"></path>
<path fill="black" d="M94.0001 89.9999L114 93.9998L106 110L86 106L94.0001 89.9999Z"></path>
<path fill="#CC0000" d="M86 106L106 110V114L103.5 113.5L88.5 110.5L86 110V106Z"></path>
<path fill="#800000" d="M114 93.9998L106 110V114L107 112L113 99.9999L114 97.9998V93.9998Z"></path>
<path fill="#FF0000" d="M94.0001 89.9999L114 93.9998L106 110L104.5 107.5L110.5 95.4999L95.5 92.4999L89.5 104.5L104.5 107.5L106 110L86 106L94.0001 89.9999Z"></path>
</svg>
