<svg xmlns="http://www.w3.org/2000/svg" fill="none" viewBox="0 0 200 200" height="200" width="200">
<path fill="#8D4052" d="M69 86.9995L73.9998 87.9995V75.9995L99 80.9995V108.999L69 102.999V86.9995Z"></path>
<path fill="#8F6536" d="M69 98.9995L99 104.999V108.999L69 102.999V98.9995Z"></path>
<path fill="#832630" d="M69 94.9995L99 100.999V104.999L69 98.9995V94.9995Z"></path>
<path fill="#512539" d="M111 56.9997V84.9997L99 108.999V80.9995L111 56.9997Z"></path>
<path fill="#4C1621" d="M99 100.999L111 76.9997V80.9997L99 104.999V100.999Z"></path>
<path fill="#533B25" d="M99 104.999L111 80.9997V84.9997L99 108.999V104.999Z"></path>
<path fill="#FF7483" d="M73.9998 75.9995L85.9998 51.9997L111 56.9997L99 80.9995L73.9998 75.9995Z"></path>
<path fill="#FF7483" d="M69 86.9995L73.9998 77V87.9995L69 86.9995Z"></path>
<path fill="#8F7223" d="M74 79.9995L84 81.9995V89.9995L73.9998 87.9995L74 79.9995Z"></path>
<path fill="#391D20" d="M84 81.9995L98.9998 84.9995L98.9997 92.9994L84 89.9995V81.9995Z"></path>
<path fill="#391D20" d="M79 96.9995L93.9998 99.9994L93.9997 111.999L78.9998 108.999L79 96.9995Z"></path>
<path fill="#832630" d="M83.9998 101.996L86.9997 102.596L88.9997 102.999V106.996L83.9998 105.996V101.996Z"></path>
<path fill="#201116" d="M93.9997 107.996L95.8193 108.36L93.9997 111.999V107.996Z"></path>
<path fill="#8995CB" d="M81 68.9978L85.9998 69.9995V65.9995L101 68.9978L101 76.9978L80.9999 72.9978L81 68.9978Z"></path>
<path fill="#4F588B" d="M109 52.998L109 60.9998L101 76.9997L101 68.9978L109 52.998Z"></path>
<path fill="#F9FFFF" d="M89 52.9988L92.1817 53.6356L85.9998 65.9995L93.9998 49.9995L109 52.998L101 68.9978L85.9998 65.9995V69.9995L81 68.9978L89 52.9988Z"></path>
<path fill="#FFB356" d="M100.999 93L109 77L119 79L110.999 94.9969L100.999 93Z"></path>
<path fill="#8F6536" d="M100.999 93L110.999 94.9969L110.998 98.9968L101 97L100.999 93Z"></path>
<path fill="#747EB3" d="M102 97.9971L162 109.997V114L102 101.997V97.9971Z"></path>
<path fill="#434A7C" d="M162 109.997L177.999 77.997V81.9987L162 114V109.997Z"></path>
<path fill="#D1E1FF" d="M118 65.9973L177.999 77.997L162 109.997L102 97.9971L118 65.9973Z"></path>
<path fill="#AFBFF7" d="M121 70.997L171 80.997L159 104.997L109 94.9969L121 70.997Z"></path>
<path fill="#534C5E" d="M91.9997 75.9994L93.9995 71.9962L93.9997 95.9994L91.9997 99.9994V75.9994Z"></path>
<path fill="#8F8187" d="M86.9997 75.0009L91.9997 75.9994V99.9994L86.9997 99.0025V79.0009V75.0009Z"></path>
<path fill="#FFE9D7" d="M88.9996 70.9978L93.9995 71.9962L91.9997 75.9994L86.9997 75.0009L88.9996 70.9978Z"></path>
<path fill="#E1144A" d="M88.9996 70.9994L93.9995 71.9962L91.9997 75.9994L86.9998 75.0025L88.9996 70.9994Z"></path>
<path fill="#7D0B2E" d="M86.9998 75.0025L91.9997 75.9994L91.9997 79.9994L86.9998 79.0025V75.0025Z"></path>
<path fill="#48061F" d="M91.9997 75.9994L93.9995 71.9962L93.9996 75.9963L91.9997 79.9994L91.9997 75.9994Z"></path>
<path fill="#7D0B2E" d="M86.9997 83.0026L91.9997 83.9994V87.9994L86.9997 87.0025V83.0026Z"></path>
<path fill="#48061F" d="M91.9997 83.9994L93.9995 79.9963L93.9995 83.9963L91.9997 87.9994V83.9994Z"></path>
<path fill="#7D0B2E" d="M86.9999 91.0058L91.9998 92.0027L91.9998 96.0027L86.9999 95.0058V91.0058Z"></path>
<path fill="#48061F" d="M91.9998 92.0027L93.9997 87.9996L93.9997 91.9995L91.9998 96.0027L91.9998 92.0027Z"></path>
<path fill="#E1144A" d="M98.9998 73.0025L104 73.9994L102 78.0025L97 77.0056L98.9998 73.0025Z"></path>
<path fill="#7D0B2E" d="M97 77.0056L102 78.0025V82.0025L97 81.0056V77.0056Z"></path>
<path fill="#FFE9D7" d="M93.9999 72.0056L98.9998 73.0025L97 77.0056L92 76.0088L93.9999 72.0056Z"></path>
<path fill="#8F8187" d="M92 76.0088L97 77.0056V81.0056L92 80.0088V76.0088Z"></path>
<path fill="#48061F" d="M102 78.0025L104 73.9994L104 77.9994L102 82.0025V78.0025Z"></path>
<path fill="#534C5E" d="M106 47.9995L108 43.9964V52.798L106 52.3983L106 47.9995Z"></path>
<path fill="#8F8187" d="M101 47.0011L106 47.9995L106 52.3983L101 51.4014V51.0011V47.0011Z"></path>
<path fill="#FFE9D7" d="M103 42.9979L108 43.9964L106 47.9995L101 47.0011L103 42.9979Z"></path>
<path fill="#E1144A" d="M103 42.9995L108 43.9964L106 47.9995L101 47.0026L103 42.9995Z"></path>
<path fill="#7D0B2E" d="M101 47.0026L106 47.9995L106 51.9995L101 51.0027V47.0026Z"></path>
<path fill="#48061F" d="M106 47.9995L108 43.9964L108 47.9964L106 51.9995L106 47.9995Z"></path>
<path fill="#E1144A" d="M113 45.0026L118 45.9995L116 50.0027L111 49.0058L113 45.0026Z"></path>
<path fill="#7D0B2E" d="M111 49.0058L116 50.0027V54.0027L111 53.0058V49.0058Z"></path>
<path fill="#FFE9D7" d="M108 44.0057L113 45.0026L111 49.0058L106 48.0089L108 44.0057Z"></path>
<path fill="#8F8187" d="M106 48.0089L111 49.0058V53.0058L106 52.0089V48.0089Z"></path>
<path fill="#48061F" d="M116 50.0027L118 45.9995L118 49.9995L116 54.0027V50.0027Z"></path>
<path fill-opacity="0.5" fill="#CD0000" d="M109 42.9999L154 51.9999L154 63.9999L109 54.9999L109 42.9999Z"></path>
<path fill-opacity="0.5" fill="#800000" d="M154 51.9999L166 28.0001L166 40.0001L154 63.9999L154 51.9999Z"></path>
<path fill-opacity="0.5" fill="#CD6700" d="M109 54.9999L154 63.9999V71.9999L109 62.9999V54.9999Z"></path>
<path fill-opacity="0.5" fill="#804000" d="M154 63.9999L166 40.0001V48.0001L154 71.9999V63.9999Z"></path>
<path fill-opacity="0.5" fill="#CDCD00" d="M109 62.9999L154 71.9999V79.9999L109 70.9999V62.9999Z"></path>
<path fill-opacity="0.5" fill="#808000" d="M154 71.9999L166 48.0001V56.0001L154 79.9999V71.9999Z"></path>
<path fill-opacity="0.5" fill="#00CD00" d="M109 70.9999L154 79.9999V87.9999L109 78.9999V70.9999Z"></path>
<path fill-opacity="0.5" fill="#008000" d="M154 79.9999L166 56.0001V64.0001L154 87.9999V79.9999Z"></path>
<path fill-opacity="0.5" fill="#0067CD" d="M109 78.9999L154 87.9999V95.9999L109 86.9999V78.9999Z"></path>
<path fill-opacity="0.5" fill="#004080" d="M154 87.9999L166 64.0001V72.0001L154 95.9999V87.9999Z"></path>
<path fill-opacity="0.5" fill="#4400CD" d="M109 86.9999L154 95.9999V104L109 94.9999V86.9999Z"></path>
<path fill-opacity="0.5" fill="#2A0080" d="M154 95.9999L166 72.0001V80.0001L154 104V95.9999Z"></path>
<path fill-opacity="0.5" fill="#FF0000" d="M121 19.003L166 28.0001L154 51.9999L109 42.9999L121 19.003Z"></path>
<path fill-opacity="0.1" fill="white" d="M109 42.9999L154 51.9999L154 56.0001L119.001 49.0029V97.0029L114.001 96.0029V48.0029L109 47.0001L109 42.9999Z"></path>
<path fill-opacity="0.1" fill="white" d="M111 38.9997L156 47.9997L154 51.9999L109 42.9999L111 38.9997Z"></path>
<path fill-opacity="0.1" fill="white" d="M121 19L166 28.0001L164 32.0002L119 23.0002L121 19Z"></path>
<path fill-opacity="0.1" fill="white" d="M119 23.0002L124 24.0003L116 39.9997L111 38.9997L119 23.0002Z"></path>
<path fill-opacity="0.1" fill="white" d="M159 31.0002L164 32.0002L156 47.9997L151 46.9997L159 31.0002Z"></path>
<path fill-opacity="0.1" fill="white" d="M166 28.0001L166 32.0003L154 56.0001L154 51.9999L166 28.0001Z"></path>
<path fill="#857470" d="M139 109.397L159 113.397L159 125L139 121L139 109.397Z"></path>
<path fill="#857470" d="M109 103.397L129 107.397L129 119L109 115L109 103.397Z"></path>
<path fill="#4D434E" d="M113.999 104.396L117.497 105.096L113.999 111.999V104.396Z"></path>
<path fill="#EDC39B" d="M113.999 111.999L124 113.999V106.397L117.497 105.096L113.999 111.999Z"></path>
<path fill="#4D434E" d="M144.003 110.397L147.5 111.097L144.003 118V110.397Z"></path>
<path fill="#EDC39B" d="M144.003 118L154.003 120V112.397L147.5 111.097L144.003 118Z"></path>
<path fill="#4D434E" d="M159 113.397L162 114L170.999 95.9982L171 100.999L159 125L159 113.397Z"></path>
<path fill="#4D434E" d="M129 107.397L134.274 108.451L129 119L129 107.397Z"></path>
</svg>
