<svg xmlns="http://www.w3.org/2000/svg" fill="none" viewBox="0 0 200 200" height="200" width="200">
<path fill="#141520" d="M77.5 106L107.5 112V113L77.5 107V106Z"></path>
<path fill="#101018" d="M107.5 112L119.5 88V89L107.5 113V112Z"></path>
<path fill="#2A2E3D" d="M89.5 82L119.5 88L107.5 112L77.5 106L89.5 82Z"></path>
<path fill="#22263C" d="M83.5 104L103.5 108V109L83.5 105V104Z"></path>
<path fill="#1D1D2C" d="M103.5 108L113.5 88V89L103.5 109V108Z"></path>
<path fill="#485374" d="M93.5 84L113.5 88L103.5 108L83.5 104L93.5 84Z"></path>
<path fill="#444B68" d="M87.5 96L107.5 100L105.5 104L85.5 100L87.5 96Z"></path>
<path fill="#444B68" d="M91.5 88L111.5 92L109.5 96L89.5 92L91.5 88Z"></path>
<path fill="#1B1A28" d="M107.5 100V101L105.5 105V104L107.5 100Z"></path>
<path fill="#1B1A28" d="M111.5 92V93L109.5 97V96L111.5 92Z"></path>
<path fill="#535454" d="M93 114.5L98 115.5V116.5L93 115.5V114.5Z"></path>
<path fill="#453F3F" d="M98 115.5L100 111.5L100.455 111.591L98 116.5V115.5Z"></path>
<path fill="#ADB39F" d="M95 110.5L100 111.5L98 115.5L93 114.5L95 110.5Z"></path>
<path fill="#535454" d="M83 112.5L88 113.5V114.5L83 113.5V112.5Z"></path>
<path fill="#453F3F" d="M88 113.5L90 109.5L90.4545 109.591L88 114.5V113.5Z"></path>
<path fill="#ADB39F" d="M85 108.5L90 109.5L88 113.5L83 112.5L85 108.5Z"></path>
<path fill="#535454" d="M116.5 95L126.5 97L125.5 99L128 99.5V100.5L125.5 100V99L126.5 98L116.045 95.9091L116.5 95Z"></path>
<path fill="#453F3F" d="M128 99.5L131 93.5V94.5L128 100.5V99.5Z"></path>
<path fill="#ADB39F" d="M118.5 91L131 93.5L128 99.5L125.5 99L126.5 97L116.5 95L118.5 91Z"></path>
<path fill="#535454" d="M73 88.5L75.5 89L76.5 87L86.0455 88.9091L85.5909 89.8182L76.5 88L75.5 90L73 89.5V88.5Z"></path>
<path fill="#ADB39F" d="M76 82.5L88.0455 84.9091L86.0455 88.9091L76.5 87L75.5 89L73 88.5L76 82.5Z"></path>
<path fill="#453F3F" d="M75.5 89L76.5 87V88L75.5 90V89Z"></path>
<path fill="#ADB39F" d="M104.5 73L114.5 75L109.5 85L99.5 83L104.5 73Z"></path>
<path fill="#453F3F" d="M114.5 75V76L109.5 86V85L114.5 75Z"></path>
<path fill="#535454" d="M109.5 85V86L99.5 84V83L109.5 85Z"></path>
<path fill="#1B1A28" d="M112.5 79V80L111.5 82V81L112.5 79Z"></path>
</svg>
