<svg xmlns="http://www.w3.org/2000/svg" fill="none" viewBox="0 0 200 200" height="200" width="200">
<path fill="#641F66" d="M76 90.0002L111 97.0002V113L76 106V90.0002Z"></path>
<path fill="#391246" d="M111 97.0002L125 69.0002V85.0002L111 113V97.0002Z"></path>
<path fill="#B3389F" d="M90 62.0002L125 69.0002L111 97.0002L76 90.0002L90 62.0002Z"></path>
<path fill-opacity="0.2" fill="black" d="M76 94.0002L111 101V113L76 106V94.0002Z"></path>
<path fill-opacity="0.2" fill="black" d="M111 101L125 73.0002V85.0002L111 113V101Z"></path>
<path fill-opacity="0.25" fill="black" d="M76 90.0002L81 91.0002V107L76 106V90.0002Z"></path>
<path fill-opacity="0.25" fill="black" d="M86 92.0002L91 93.0002V109L86 108V92.0002Z"></path>
<path fill-opacity="0.25" fill="black" d="M96 94.0002L101 95.0002V111L96 110V94.0002Z"></path>
<path fill-opacity="0.25" fill="black" d="M106 96.0002L111 97.0002V113L106 112V96.0002Z"></path>
<path fill-opacity="0.25" fill="black" d="M111 97.0002L113 93.0002V109L111 113V97.0002Z"></path>
<path fill-opacity="0.25" fill="black" d="M115 89.0002L117 85.0002V101L115 105V89.0002Z"></path>
<path fill-opacity="0.25" fill="black" d="M119 81.0002L121 77.0002V93.0002L119 97.0002V81.0002Z"></path>
<path fill-opacity="0.25" fill="black" d="M123 73.0002L125 69.0002V85.0002L123 89.0002V73.0002Z"></path>
<path fill-opacity="0.2" fill="black" d="M78 86.0002L83 87.0002L81 91.0002L76 90.0002L78 86.0002Z"></path>
<path fill-opacity="0.2" fill="black" d="M88 88.0002L93 89.0002L91 93.0002L86 92.0002L88 88.0002Z"></path>
<path fill-opacity="0.2" fill="black" d="M98 90.0002L103 91.0002L101 95.0002L96 94.0002L98 90.0002Z"></path>
<path fill-opacity="0.2" fill="black" d="M108 92.0002L113 93.0002L111 97.0002L106 96.0002L108 92.0002Z"></path>
<path fill-opacity="0.2" fill="black" d="M112 84.0002L117 85.0002L115 89.0002L110 88.0002L112 84.0002Z"></path>
<path fill-opacity="0.2" fill="black" d="M116 76.0002L121 77.0002L119 81.0002L114 80.0002L116 76.0002Z"></path>
<path fill-opacity="0.2" fill="black" d="M120 68.0002L125 69.0002L123 73.0002L118 72.0002L120 68.0002Z"></path>
<path fill-opacity="0.2" fill="black" d="M82 78.0002L87 79.0002L85 83.0002L80 82.0002L82 78.0002Z"></path>
<path fill="#190E16" d="M83 83.0002L108 88.0002V92.0002L88 88.0002L83 87.0002V83.0002Z"></path>
<path fill="#0E080F" d="M108 88.0002L118 68.0002V72.0002L108 92.0002V88.0002Z"></path>
<path fill="#3B7FA3" d="M83 75.0002L108 80.0002V88.0002L88 84.0002L83 83.0002V75.0002Z"></path>
<path fill="#224B72" d="M108 80.0002L118 60.0002V68.0002L108 88.0002V80.0002Z"></path>
<path fill="#6BE5FF" d="M93 55.0002L118 60.0002L108 80.0002L88 76.0002L83 75.0002L93 55.0002Z"></path>
<path fill="#3B7FA3" d="M90 68L105 71V75L90 72V68Z"></path>
<path fill="#224B72" d="M105 71L111 59V63L105 75V71Z"></path>
<path fill="#ED5B76" d="M94 60L99 61L97 65L92 64L94 60Z"></path>
<path fill="#91BF5E" d="M97 65L102 66L100 70L95 69L97 65Z"></path>
<path fill="#815ACF" d="M106 58L111 59L109 63L104 62L106 58Z"></path>
<path fill="#291D5A" d="M111 59V63L109 67V63L111 59Z"></path>
<path fill="#516B3B" d="M100 70V74L95 73V69L100 70Z"></path>
<path fill="#4BA5FF" d="M109 67L114 68L112 72L107 71L109 67Z"></path>
<path fill="#18367C" d="M114 68V72L112 76V72L114 68Z"></path>
<path fill="#8B6EC3" d="M101 102.999L116 105.999V117.999L101 114.999V102.999Z"></path>
<path fill="#75449F" d="M106 107.999L111 108.999V112.999L106 111.999V107.999Z"></path>
<path fill="#504087" d="M116 105.999L120 97.9993V109.999L116 117.999V105.999Z"></path>
<path fill="#FBC5FF" d="M111 104.999L115 96.9991L120 97.9993L116 105.999L111 104.999Z"></path>
<path fill="#517F8F" d="M121 85.0018L126 86.0019V98.0019L119.181 96.638L121 93.0018V85.0018Z"></path>
<path fill="#2E4B64" d="M126 86.0019L130 78.002V90.0019L126 98.0019V86.0019Z"></path>
<path fill="#91E5E3" d="M121 85.0018L125 77.0018L130 78.002L126 86.0019L121 85.0018Z"></path>
<path fill="#517F8F" d="M71 97.0019L86 100.002V112.002L71 109.002V97.0019Z"></path>
<path fill="#75449F" d="M76 102.002L81 103.002V107.002L76 106.002V102.002Z"></path>
<path fill="#2E4B64" d="M86 100.002V108.002L87.8182 108.365L86 112.002V100.002Z"></path>
<path fill="#91E5E3" d="M71 97.0019L75 89.002L76.3636 89.2746L76 90.0018V98.0019L86 100.002L71 97.0019Z"></path>
<path fill="#FBC5FF" d="M81 77L85 69L85.9088 69.1826L83 74.9995V75.9995L82.3634 77.2727L81 77Z"></path>
<path fill="#8B6EC3" d="M81 77L82.3634 77.2727L81 79.9993V77Z"></path>
</svg>
