<svg xmlns="http://www.w3.org/2000/svg" fill="none" viewBox="0 0 200 200" height="200" width="200">
<path fill="#8C702F" d="M93 79L103 81V83L108 84V86L110.5 86.5V88.5L108 88V90L100.5 88.5V90.5L95.5 89.5V93.5L100.5 94.5V96.5L108 98V100L110.5 100.5V102.5L108 102V104L103 103V105L93 103V101L88 100V98L85.5 97.5V93.5L83 93V85L85.5 85.5V81.5L88 82V80L93 81V79Z"></path>
<path fill="#FDC94F" d="M97 71L107 73L103 81L93 79L97 71Z"></path>
<path fill="#FDC94F" d="M107 75L112 76L108 84L103 83L107 75Z"></path>
<path fill="#FDC94F" d="M92 72L96.0909 72.8182L93 79V81L88 80L92 72Z"></path>
<path fill="#FDC94F" d="M89.5 73.5L91.0909 73.8182L88 80V82L85.5 81.5L89.5 73.5Z"></path>
<path fill="#FDC94F" d="M112 78L114.5 78.5L110.5 86.5L108 86L112 78Z"></path>
<path fill="#514221" d="M114.5 78.5L114.5 80.5L110.5 88.5V86.5L114.5 78.5Z"></path>
<path fill="#514221" d="M112 76V78L108 86V84L112 76Z"></path>
<path fill="#514221" d="M107 73V75L103 83V81L107 73Z"></path>
<path fill="#514221" d="M110.5 100.5L114.5 92.5V94.5L110.5 102.5V100.5Z"></path>
<path fill="#514221" d="M108 102L108.909 102.182L108 104V102Z"></path>
<path fill="#514221" d="M103 103L103.909 103.182L103 105V103Z"></path>
<path fill="#FDC94F" d="M87 77L87.6818 77.1364L85.5 81.5V85.5L83 85L87 77Z"></path>
<path fill="#514221" d="M108 98L112 90V92L108 100V98Z"></path>
<path fill="#514221" d="M100.5 94.5L103.227 89.0455L104.136 89.2273L100.5 96.5V94.5Z"></path>
<path fill="#514221" d="M100.5 88.5L101.409 88.6818L100.5 90.5V88.5Z"></path>
<path fill="#FDC94F" d="M112 92L114.5 92.5L110.5 100.5L108 100L112 92Z"></path>
<path fill="#FDC94F" d="M108 89.2L112 90L108 98L100.5 96.5L104.136 89.2273L108 90V89.2Z"></path>
<path fill="#FDC94F" d="M101.409 88.6818L103.227 89.0455L100.5 94.5L95.5 93.5V89.5L100.5 90.5L101.409 88.6818Z"></path>
<path fill="#514221" d="M95.5 89.5L97.3182 89.8636L95.5 93.5V89.5Z"></path>
</svg>
