<svg xmlns="http://www.w3.org/2000/svg" fill="none" viewBox="0 0 200 200" height="200" width="200">
<path fill="#CC1515" d="M88.1673 56.3332L103.167 59.3331L103.167 63.3331L101.834 65.9998V67.3335L103.167 64.6669V65.9998V75.3331L88.1673 72.3331V56.3332Z"></path>
<path fill="#7F0D0D" d="M103.167 59.3331L107.167 51.3332L107.167 52.6665L108.501 50.0003V51.3332L109.167 49.9999V63.3331L103.167 75.3331V65.9998V64.6669L101.834 67.3335V65.9998L103.167 63.3331L103.167 59.3331Z"></path>
<path fill="#FF1B1B" d="M94.1672 47L109.167 49.9999L108.501 51.3332V50.0003L107.167 52.6665L107.167 51.3332L103.167 59.3331L88.1673 56.3332L92.1672 48.3333L92.7732 48.4548L93.5004 47.0003L94.1065 47.1215L94.1672 47Z"></path>
<path fill="#FFB88C" d="M88.1673 62.9999V64.6003L101.834 67.3335L102.561 65.8786L103.167 65.9998V75.3331L88.1673 72.3331V62.9999Z"></path>
<path fill="#AA6F5A" d="M103.167 65.9998L107.167 57.9999V59.3331L108.501 56.6666V58.0003L109.167 56.6666V63.3331L103.167 75.3331V65.9998Z"></path>
<path fill="#CCCCCC" d="M93.1672 58.667L98.1672 59.667V62.3336L93.1672 61.3336V58.667Z"></path>
<path fill="#FF1B1B" d="M88.1671 60.3333L103.167 63.3331L101.834 65.9998L86.8338 62.9998L88.1671 60.3333Z"></path>
<path fill="#CC1515" d="M86.8338 62.9998L101.834 65.9998V67.3335L86.8338 64.3336V62.9998Z"></path>
<path fill="#AA6F5A" d="M110.5 61.3336V65.3336L109.167 68.0002V64.0002L110.5 61.3336Z"></path>
<path fill="#FFB88C" d="M109.167 64.0002V68.0002L105.834 67.3335V63.3336L109.167 64.0002Z"></path>
<path fill="#FFD9B1" d="M110.5 61.3336L109.167 64.0002L105.834 63.3336L107.167 60.6669L110.5 61.3336Z"></path>
<path fill="#B17762" d="M107.501 65.0002V66.3336L105.834 66.0002V64.6669L107.501 65.0002Z"></path>
<path fill="#32120E" d="M107.167 57.9999V59.3331L108.501 56.6666V58.0003L109.167 56.6666V61.067L107.167 60.6669L105.834 63.3336V64.6669L105.167 65.9998V61.9999L107.167 57.9999Z"></path>
<path fill="#AA6F5A" d="M98.1671 68.9998V71.6664L96.8338 74.3331V71.6664L98.1671 68.9998Z"></path>
<path fill="#FFB88C" d="M96.8338 71.6664V74.3331L91.8338 73.3331V70.6664L96.8338 71.6664Z"></path>
<path fill="#FFD9B1" d="M98.1671 68.9998L96.8338 71.6664L91.8338 70.6664L93.1671 67.9998L98.1671 68.9998Z"></path>
<path fill="#CCCCCC" d="M99.8342 66.9336V70.6669L98.1671 70.3334V68.9998L96.5009 68.6669V66.267L99.8342 66.9336Z"></path>
<path fill="#CCCCCC" d="M94.8342 65.9337V68.3335L93.1671 68.0001V67.9998L92.5609 69.2123L91.501 69.0002V65.267L94.8342 65.9337Z"></path>
<path fill="#2766D1" d="M93.1671 65.9998L94.8342 66.3336V68.3335L93.1671 67.9998V65.9998Z"></path>
<path fill="#2766D1" d="M96.5009 66.6669L98.168 67.0007V69.0006L96.5009 68.6669V66.6669Z"></path>
<path fill="#CC1515" d="M89.5002 74.0663L91.1672 74.3997L91.8338 73.3331L96.8338 74.3331L97.5002 73L99.1676 73.3335V74.6668V76.0002L99.7736 74.788L100.834 75.0002L100.895 74.8786L103.167 75.3331L103.894 73.879L104.5 74.0001V91.3334L89.5002 88.3334V74.0663Z"></path>
<path fill="#7F0D0D" d="M104.5 74.0001L106.985 69.0305L109.167 68.0002L108.5 94L105.833 99.3334V88.6668L104.5 91.3334V74.0001Z"></path>
<path fill="#FF1B1B" d="M109.167 68.0002L106.985 69.0305L104.5 74.0001L103.894 73.879L103.167 75.3331L107.046 67.576L109.167 68.0002Z"></path>
<path fill="#1E56D4" d="M104.5 78.0001V91.3334L89.5002 88.3334V75.0001L91.1676 75.3335L91.1672 74.3997L94.5009 75.0668V75.3332V76.0002L99.5009 77.0002V76.0665L99.5011 75.3331L99.7736 74.788L100.834 75.0002L100.895 74.8786L103.167 75.3331L102.834 75.2665V75.999V77.6668L104.5 78.0001Z"></path>
<path fill="#FEDD34" d="M94.5009 76.0002V78.6668L91.1676 78.0002V75.3335L94.5009 76.0002Z"></path>
<path fill="#FEDD34" d="M102.834 77.6668V80.3335L99.5009 79.6668V77.0002L102.834 77.6668Z"></path>
<path fill="#12349E" d="M109.167 68.0002L108.5 94L105.833 99.3334V88.6668L104.5 91.3338V78.0006L107.834 71.3335V70.0002L108.198 69.273L109.167 68.0002Z"></path>
<path fill="#1E56D4" d="M99.1663 90.2666L104.5 91.3338L105.833 88.6668V99.3334L99.1663 97.9996V90.2666Z"></path>
<path fill="#1E56D4" d="M90.8333 88.6L97.5004 89.9338V97.6663L90.8333 96.3325V88.6Z"></path>
<path fill="#12349E" d="M97.5004 89.9338L99.1663 90.2666L99.1676 94.3334L97.5004 97.6663V89.9338Z"></path>
<path fill="#502D2C" d="M108.5 94V98L104.5 106V103.333L105.833 100.667V99.3334L108.5 94Z"></path>
<path fill="#874633" d="M105.833 99.3334V100.667L104.5 103.333V106L97.833 104.666V102L99.1663 99.3334V97.9996L105.833 99.3334Z"></path>
<path fill="#D37753" d="M105.833 100.667L104.5 103.333L97.833 102L99.1663 99.3334L105.833 100.667Z"></path>
<path fill="#502D2C" d="M99.1676 94.3334L99.1663 98.335L96.1673 104.333V101.667L97.5006 99V97.6667L99.1676 94.3334Z"></path>
<path fill="#874633" d="M97.5006 97.6667V99L96.1673 101.667V104.333L89.5002 103V100.333L90.8335 97.6667V96.3329L97.5006 97.6667Z"></path>
<path fill="#D37753" d="M97.5006 99L96.1673 101.667L89.5002 100.333L90.8335 97.6667L97.5006 99Z"></path>
<path fill="#7F0D0D" d="M113.668 68.5002V80.5001L111.668 84.5001V72.5002L113.668 68.5002Z"></path>
<path fill="#CC1515" d="M111.668 72.5002V84.5001L106.668 83.4996V75.4996L105.834 75.3341V71.3341L111.668 72.5002Z"></path>
<path fill="#FF1B1B" d="M113.668 68.5002L111.668 72.5002L105.834 71.3341L106.985 69.0305L109.167 68.0002L109.348 67.6371L113.668 68.5002Z"></path>
<path fill="#7F7F7F" d="M113.668 80.5001V84.5001L111.668 88.5001V84.5001L113.668 80.5001Z"></path>
<path fill="#CBCBCB" d="M111.668 84.5001V88.5001L106.668 87.4995V83.4996L111.668 84.5001Z"></path>
<path fill="#261F24" d="M89.1676 70.0002L90.8343 70.3335V71.6669L91.8338 71.8668V73.3331L96.8338 74.3331L97.5002 73L99.1676 73.3335V72.0002L100.834 72.3335V75.0002L99.1676 74.6668V76.0002L90.8343 74.3335V73.0002L89.1676 72.6669V70.0002Z"></path>
<path fill="#533A41" d="M89.8343 68.6669L91.501 69.0002L90.8343 70.3335L89.1676 70.0002L89.8343 68.6669Z"></path>
<path fill="#533A41" d="M91.5009 70.3335L91.9549 70.4243L91.8338 70.6664V73.3331L96.8338 74.3331L98.1671 71.6664L99.2282 71.879L99.1676 72.0002V73.3335L97.5002 73L96.8338 74.3331L91.8338 73.3331V71.8668L90.8343 71.6669L91.5009 70.3335Z"></path>
<path fill="#533A41" d="M99.8342 70.6669L101.501 71.0002L100.834 72.3335L99.1676 72.0002L99.8342 70.6669Z"></path>
<path fill="#04040A" d="M101.501 71.0002V73.6668L100.834 75.0002V72.3335L101.501 71.0002Z"></path>
<path fill="#04040A" d="M91.501 69.0002L91.5009 70.3335L90.8343 71.6669V70.3335L91.501 69.0002Z"></path>
<path fill="#04040A" d="M99.7736 74.788L99.1676 76.0002V74.6668L99.7736 74.788Z"></path>
<path fill="#FFB88C" d="M88.1673 59.8003L88.1671 60.3333L87.5005 61.6665V59.6669L88.1673 59.8003Z"></path>
<path fill="#FFD9B1" d="M88.1673 58.3333V59.8003L87.5005 59.6669L88.1673 58.3333Z"></path>
<path fill="#7F0D0D" d="M89.5002 74.0663V80.0683V80.0673V74.0663Z"></path>
<path fill="#CC1515" d="M88.1673 67.8V72.3331L89.1676 72.5331V72.6669L90.8343 73.0002V74.3335L89.5002 74.0663V80.0673L85 79.1668V67.1669L88.1673 67.8Z"></path>
<path fill="#FF1B1B" d="M86.8338 62.9998V64.3336L88.1673 64.6003V67.8L85 67.1669L86.8338 63.5002L86.8339 63.0002L86.8338 62.9998Z"></path>
<path fill="#7F7F7F" d="M89.5002 80.0683V84.0673V80.0673V80.0683Z"></path>
<path fill="#CBCBCB" d="M89.5002 80.0673V84.0673L85 83.1668V79.1668L89.5002 80.0673Z"></path>
</svg>
