<svg xmlns="http://www.w3.org/2000/svg" fill="none" viewBox="0 0 400 300" height="300" width="400">
<path fill="#2C3671" d="M108 116L168 128V140L123 131V127L108 124V116Z"></path>
<path fill="#6483EE" d="M116 100L176 112L168 128L108 116L116 100Z"></path>
<path fill="#1E2657" d="M176 112V124L168 140V128L176 112Z"></path>
<path fill="#3B3E6B" d="M176 124V128L168 144V140L176 124Z"></path>
<path fill="#485894" d="M168 140V144L123 135V131L168 140Z"></path>
<path fill="#667AD1" d="M133 125V129L128 128V124L133 125Z"></path>
<path fill="#6B81CA" d="M118 126V130L113 129V125L118 126Z"></path>
<path fill="#5E5C9B" d="M119.818 126.364L118 130V126L119.818 126.364Z"></path>
<path fill="#243061" d="M139 139V143L129 141V137L139 139Z"></path>
<path fill="#5065B8" d="M143 131L139 139L129 137L133 129L143 131Z"></path>
<path fill="#1C2550" d="M143 131V135L139 143V139L143 131Z"></path>
<path fill="#243061" d="M155 113V117L150 116V120L140 118V110L155 113Z"></path>
<path fill="#5065B8" d="M159 105L155 113L140 110L144 102L159 105Z"></path>
<path fill="#1C2550" d="M159 105V109L155 117L151.818 116.364L150 120V116L155 117V113L159 105Z"></path>
<path fill="#2C3671" d="M200 134V142L170 136V128L200 134Z"></path>
<path fill="#6483EE" d="M204 126L200 134L170 128L174 120L204 126Z"></path>
<path fill="#1E2657" d="M204 126V134L200 142V134L204 126Z"></path>
<path fill="#243061" d="M205 127V131L200 130V134L190 132V124L205 127Z"></path>
<path fill="#5065B8" d="M209 119L205 127L190 124L194 116L209 119Z"></path>
<path fill="#1C2550" d="M209 119V123L205 131L201.818 130.364L200 134V130L205 131V127L209 119Z"></path>
<path fill="#243061" d="M200 142V146L205 147V151L190 148V140L200 142Z"></path>
<path fill="#1C2550" d="M204 134V138L209 139V143L205 151V147L200 146V142L204 134Z"></path>
<path fill="#5065B8" d="M209 139L205 147L200 146L204 138L209 139Z"></path>
<path fill="#26335D" d="M42 73.0001L102 85.0001V97.0001L57 88.0001V84.0001L42 81.0001V73.0001Z"></path>
<path fill="#5576BB" d="M50 57L110 69L102 85.0001L42 73.0001L50 57Z"></path>
<path fill="#182955" d="M110 69V81L102 97.0001V85.0001L110 69Z"></path>
<path fill="#3B3E6B" d="M110 81V85L102 101V97.0001L110 81Z"></path>
<path fill="#485894" d="M102 97.0001V101L57 92.0001V88.0001L102 97.0001Z"></path>
<path fill="#667AD1" d="M67 82.0001V86.0001L62 85.0001V81.0001L67 82.0001Z"></path>
<path fill="#6B81CA" d="M52 83.0001V87.0001L47 86.0001V82.0001L52 83.0001Z"></path>
<path fill="#5E5C9B" d="M53.8182 83.3637L52 87.0001V83.0001L53.8182 83.3637Z"></path>
<path fill="#1F284F" d="M73 96V100L63 98V94L73 96Z"></path>
<path fill="#435995" d="M77 88.0001L73 96L63 94L67 86.0001L77 88.0001Z"></path>
<path fill="#122045" d="M77 88.0001V92.0001L73 100V96L77 88.0001Z"></path>
<path fill="#1F284F" d="M89 69.9999V74L84 72.9999V76.9999L74 74.9999V66.9999L89 69.9999Z"></path>
<path fill="#435995" d="M93 62L89 69.9999L74 66.9999L78 59L93 62Z"></path>
<path fill="#122045" d="M93 62V66L89 74L85.8182 73.3636L84 76.9999V72.9999L89 74V69.9999L93 62Z"></path>
<path fill="#26335D" d="M134 90.9999V98.9999L104 92.9999V84.9999L134 90.9999Z"></path>
<path fill="#5576BB" d="M138 82.9999L134 90.9999L104 84.9999L108 76.9999L138 82.9999Z"></path>
<path fill="#182955" d="M138 82.9999V90.9999L134 98.9999V90.9999L138 82.9999Z"></path>
<path fill="#1F284F" d="M139 83.9999V87.9999L134 86.9999V90.9999L124 88.9999V80.9999L139 83.9999Z"></path>
<path fill="#435995" d="M143 75.9999L139 83.9999L124 80.9999L128 72.9999L143 75.9999Z"></path>
<path fill="#122045" d="M143 75.9999V79.9999L139 87.9999L135.818 87.3635L134 90.9999V86.9999L139 87.9999V83.9999L143 75.9999Z"></path>
<path fill="#1F284F" d="M134 98.9999V103L139 104V108L124 105V96.9998L134 98.9999Z"></path>
<path fill="#122045" d="M138 90.9999V94.9998L143 95.9998V99.9999L139 108V104L134 103V98.9999L138 90.9999Z"></path>
<path fill="#435995" d="M143 95.9998L139 104L134 103L138 94.9998L143 95.9998Z"></path>
</svg>
