<svg xmlns="http://www.w3.org/2000/svg" fill="none" viewBox="0 0 480 360" height="360" width="480">
<path stroke-width="2" stroke="white" fill="#56C6F8" d="M12.0667 193.1H13.0667V192.1V191H466.933V192.1V193.1H467.933H469V346.9H467.933H466.933V347.9V349H13.0667V347.9V346.9H12.0667H11V193.1H12.0667Z"></path>
<path fill="white" d="M305 240H306V239H311V241H307V242V244V245H311V247H306V246H305V240Z"></path>
<path fill="white" d="M326 239H328V240H329V241H330V239H332V247H330V244H329V243H328V247H326V239Z"></path>
<path fill="white" d="M333 240H334V239H339V241H335V242H338V243H339V246H338V247H333V245H337V244H334V243H333V240Z"></path>
<path fill="white" d="M340 245H342V247H340V245Z"></path>
<path fill="white" d="M340 241H342V243H340V241Z"></path>
<path fill="white" d="M312 240H313V239H317V240H318V241H316H314V245H316V241H318V246H317V247H313V246H312V240Z"></path>
<path fill="white" d="M319 240V239H320H325V241H323V245H325V247H319V245H321V241H319V240Z"></path>
<path fill="white" d="M236 239H241V240H242V243H241V244H238V242H240V241H238V242V244V247H236V239Z"></path>
<path fill="white" d="M243 245H245V247H243V245Z"></path>
<path fill="white" d="M243 241H245V243H243V241Z"></path>
<path fill="white" d="M229 240H230V239H234V240H235V241H233H231V245H233V241H235V246H234V247H230V246H229V240Z"></path>
<path fill="white" d="M222 240V239H223H228V241H226V245V247H224V245V241H222V240Z"></path>
<path fill="white" d="M159 240H160V239H165V241H161V242H163V244H161V245H165V247H160V246H159V240Z"></path>
<path fill="white" d="M122 239L123 239L123 240L123 247L121 247L121 244L119 244L119 247L117 247L117 239L119 239L119 242L121 242L121 239L122 239Z"></path>
<path fill="white" d="M110 240H111V239H116V241H112V242V244V245H116V247H111V246H110V240Z"></path>
<path fill="white" d="M145 240H146V239H151V241H147V242V244V245H151V247H146V246H145V240Z"></path>
<path fill="white" d="M124 240H125V239H129V240H130V247H128V241H126V242H128V244H126V245V247H125H124V246V240Z"></path>
<path fill="white" d="M138 240H139V239H143V240H144V247H142V241H140V242H142V244H140V245V247H139H138V246V240Z"></path>
<path fill="white" d="M131 239H136V240H137V243H136V244H137V247H135V245H134V244H133V242H135V241H133V242V244V247H131V239Z"></path>
<path fill="white" d="M166 239H171V240H172V243H171V244H172V247H170V245H169V244H168V242H170V241H168V242V244V247H166V239Z"></path>
<path fill="white" d="M152 240V239H153H158V241H156V245V247H154V245V241H152V240Z"></path>
<path fill="white" d="M173 240H174V239H179V241H175V242H178V243H179V246H178V247H173V245H177V244H174V243H173V240Z"></path>
<path fill="white" d="M180 245H182V247H180V245Z"></path>
<path fill="white" d="M180 241H182V243H180V241Z"></path>
<path fill="white" d="M241 217H243V215H251V217H253V219H249H245V227H249V219H253V229H251V231H243V229H241V217Z"></path>
<path fill="white" d="M227 217V215H229H239V219H235V227V231H231V227V219H227V217Z"></path>
<path fill="white" d="M185 215H195V217H197V223H195V225H197V231H193V227H191V225H189V221H193V219H189V221V225V231H185V215Z"></path>
<path fill="white" d="M255 215H265V217H267V223H265V225H267V231H263V227H261V225H259V221H263V219H259V221V225V231H255V215Z"></path>
<path fill="white" d="M213 217H215V215H225V219H217V221H223V223H225V229H223V231H213V227H221V225H215V223H213V217Z"></path>
<path fill="white" d="M199 217H201V215H211V219H203V221H207V225H203V227H211V231H201V229H199V217Z"></path>
<path fill="white" d="M269 217H271V215H281V219H273V221H277V225H273V227H281V231H271V229H269V217Z"></path>
<path fill="white" d="M283 219V215H293V217H295V223H293V225H287V221H291V219H283Z"></path>
<path fill="white" d="M287 231V227H291V231H287Z"></path>
<path fill="white" d="M206 255H211V256H212V259H211V260H208V258H210V257H208V258V260V263H206V255Z"></path>
<path fill="white" d="M185 255H190V256H191V259H190V260H191V263H189V261H188V260H187V258H189V257H187V258V260V263H185V255Z"></path>
<path fill="white" d="M283 255H288V256H289V259H288V260H289V263H287V261H286V260H285V258H287V257H285V258V260V263H283V255Z"></path>
<path fill="white" d="M192 256H193V255H198V257H194V258H196V260H194V261H198V263H193V262H192V256Z"></path>
<path fill="white" d="M255 256H256V255H261V257H257V258H259V260H257V261H261V263H256V262H255V256Z"></path>
<path fill="white" d="M199 256H200V255H205V257H201V258H204V259H205V262H204V263H199V261H203V260H200V259H199V256Z"></path>
<path fill="white" d="M227 256H228V255H233V257H229V258H232V259H233V262H232V263H227V261H231V260H228V259H227V256Z"></path>
<path fill="white" d="M297 256V255H298H302V256H303V257H301H299V261H301V257H303V262H302V263H298H297V262V256Z"></path>
<path fill="white" d="M304 256H305V255H309V256H310V263H308V257H306V258H308V260H306V261V263H305H304V262V256Z"></path>
<path fill="white" d="M318 256H319V255H323V256H324V263H322V257H320V258H322V260H320V261V263H319H318V262V256Z"></path>
<path fill="white" d="M311 256V255H312H317V257H315V261V263H313V261V257H311V256Z"></path>
<path fill="white" d="M269 256H270V255H275V257H271V258H273V260H271V261V263H270H269V262V256Z"></path>
<path fill="white" d="M135 256H136V255H140V256H141V263H139V257H137V258H139V260H137V261V263H136H135V262V256Z"></path>
<path fill="white" d="M142 255H144V256H145V257H146V256H147V255H149V263H147V259H146V260H145V259H144V263H142V255Z"></path>
<path fill="white" d="M157 255H159V256H160V257H161V255H163V263H161V260H160V259H159V263H157V255Z"></path>
<path fill="white" d="M220 255H222V256H223V257H224V255H226V263H224V260H223V259H222V263H220V255Z"></path>
<path fill="white" d="M164 256H165V255H169V256H170V257H168H166V261H168V257H170V262H169V263H165V262H164V256Z"></path>
<path fill="white" d="M276 256H277V255H281V256H282V257H280H278V261H280V257H282V262H281V263H277V262H276V256Z"></path>
<path fill="white" d="M213 256H214V255H218V256H219V257H217H215V261H217V257H219V262H218V263H214V262H213V256Z"></path>
<path fill="white" d="M121 256V255H122H127V257H125V261H127V263H121V261H123V257H121V256Z"></path>
<path fill="white" d="M234 256V255H235H240V257H238V261H240V263H234V261H236V257H234V256Z"></path>
<path fill="white" d="M171 256V255H172H177V257H175V261V263H173V261V257H171V256Z"></path>
<path fill="white" d="M248 256V255H249H250V257V261H254V263H249V262H248V257V256Z"></path>
<path fill="white" d="M346 256H347V255H352V257H348V258H351V259H352V262H351V263H346V261H350V260H347V259H346V256Z"></path>
<path fill="white" d="M353 256H354V255H359V257H355V258H358V259H359V262H358V263H353V261H357V260H354V259H353V256Z"></path>
<path fill="white" d="M339 256H340V255H344V256H345V257H343H341V261H343V257H345V262H344V263H340V262H339V256Z"></path>
<path fill="white" d="M332 256V255H333H334V257V261H338V263H333V262H332V257V256Z"></path>
<path fill="white" d="M241 255H246V256H247V258H246V260H247V262H246V263H243V261H245V260H244H243V258H245V257H243V258V260V263H241V255Z"></path>
<path stroke-width="2" stroke="white" fill="#56C6F8" d="M182 294H183V293V292H227V293V294H228H229V328H228H227V329V330H183V329V328H182H181V294H182Z"></path>
<path fill="white" d="M201 304.5H202.5V303H210V306H204V307.5H207V310.5H204V312H210V315H202.5V313.5H201V304.5Z"></path>
<path fill="white" d="M190 304.5V303H191.5H193V307.5H196V303H199V309H197.5V310.5H196V315H193V310.5H191.5V309H190V304.5Z"></path>
<path fill="white" d="M212 304.5H213.5V303H221V306H215V307.5H219.5V309H221V313.5H219.5V315H212V312H218V310.5H213.5V309H212V304.5Z"></path>
<path fill="#2CACE8" d="M182 323H184V325H226V323H228V327H226V329H184V327H182V323Z"></path>
<path stroke-width="2" stroke="white" fill="#56C6F8" d="M252 298H253V297V296H297V297V298H298H299V328H298H297V329V330H253V329V328H252H251V298H252Z"></path>
<path fill="white" d="M265 307H268V308.5H269.5V310H271V307H274V319H271V314.5H269.5V313H268V319H265V307Z"></path>
<path fill="white" d="M276 308.5H277.5V307H283.5V308.5H285V310H282H279V316H282V310H285V317.5H283.5V319H277.5V317.5H276V308.5Z"></path>
</svg>
