<svg xmlns="http://www.w3.org/2000/svg" fill="none" viewBox="0 0 200 200" height="200" width="200">
<path fill="#4F5065" d="M68.9978 55L113.998 64V100L68.9978 91.0001V55Z"></path>
<path fill="#26263E" d="M113.998 64L131.998 28V64L113.998 100V64Z"></path>
<path fill="#7D8093" d="M86.9978 19L131.998 28L113.998 64L68.9978 55L86.9978 19Z"></path>
<path fill="#4F5065" d="M75.9978 48.0006L110.998 55.0006V59.0006L75.9978 52.0006V48.0006Z"></path>
<path fill="#26263E" d="M110.998 55.0006L124.998 27.0006V31.0006L110.998 59.0006V55.0006Z"></path>
<path fill="#7D8093" d="M89.9978 20.0006L124.998 27.0006L110.998 55.0006L75.9978 48.0006L89.9978 20.0006Z"></path>
<path fill="#4F5065" d="M71.9972 64.001L106.997 71.001V99.001L71.9972 92.001V64.001Z"></path>
<path fill="#26263E" d="M106.997 71.001L108.997 67.001V95.001L106.997 99.001V71.001Z"></path>
<path fill="#7D8093" d="M73.9972 60.001L108.997 67.001L106.997 71.001L71.9972 64.001L73.9972 60.001Z"></path>
<path fill="#4F5065" d="M115.997 64.001L120.997 65.001V93.001L115.997 92.001V64.001Z"></path>
<path fill="#26263E" d="M120.997 65.001L134.997 37.001V65.001L120.997 93.001V65.001Z"></path>
<path fill="#7D8093" d="M129.997 36.001L134.997 37.001L120.997 65.001L115.997 64.001L129.997 36.001Z"></path>
<path fill="#4F5065" d="M66 54L69.1798 54.636L68.9978 55V82.5996L66 82.0001V54Z"></path>
<path fill="#7D8093" d="M80 26L83.1798 26.636L69.1798 54.636L66 54L80 26Z"></path>
<path fill="#26263E" d="M128.814 27.3632L128.997 26.9967V27.3999L128.814 27.3632Z"></path>
<path fill="#7D8093" d="M93.9973 19.9967L128.997 26.9967L128.814 27.3632L93.814 20.3632L93.9973 19.9967Z"></path>
<path fill="#4F5065" d="M92 38.0014L101.995 40.0004L100.181 43.6376L92 42.0014V38.0014Z"></path>
<path fill="#26263E" d="M88 46.0043L92 38.0037V42.0037L89.8186 46.3666L88 46.0043Z"></path>
<path fill="#4E505D" d="M92 42.0037L100.181 43.6376L98 48.002L89.8186 46.3666L92 42.0037Z"></path>
<path fill="#4F5065" d="M111.005 33.002L116 34.001L114.186 37.6381L111.005 37.002V33.002Z"></path>
<path fill="#26263E" d="M109.005 37.0049L111.005 33.0043V37.0043L110.823 37.3672L109.005 37.0049Z"></path>
<path fill="#4E505D" d="M111.005 37.0043L114.186 37.6381L114.005 38.0025L110.823 37.3672L111.005 37.0043Z"></path>
<path fill="#7D8093" d="M129.364 60.2747L133 61.0019L129 69.002V61.0019L129.364 60.2747Z"></path>
<path fill="#4F5065" d="M129.364 60.2747L129 61.0019L133 53.0039V61.0019L129.364 60.2747Z"></path>
<path fill="#7D8093" d="M123.182 64.6374L125 65.001L123 69.001V65.001L123.182 64.6374Z"></path>
<path fill="#4F5065" d="M123.182 64.6374L123 65.001L125 61.0029V65.001L123.182 64.6374Z"></path>
<path fill="#26263E" d="M87 87L92 88.002V88.0001L88.8179 87.3643L87 91.0001V87Z"></path>
<path fill="#7D8093" d="M87 91.0001L88.8179 87.3643L92 88.0001V92.0001L87 91.0001Z"></path>
<path fill="#26263E" d="M87 71L88.8179 71.3643L89 71.4007V75.002L87 79.0001V71Z"></path>
<path fill="#7D8093" d="M87 79.0001L89 75.002V71.4007L88.8179 71.3643L97 73.002V81.0001L87 79.0001Z"></path>
<path fill="#333240" d="M89 71.4007L97 73.002V76.602L89 75.002V71.4007Z"></path>
</svg>
