<svg xmlns="http://www.w3.org/2000/svg" fill="none" viewBox="0 0 400 300" height="300" width="400">
<path fill="white" d="M202.126 150.404L215.607 153.123V164L202.126 161.281V150.404Z"></path>
<path fill="#CACAFC" d="M215.607 153.123L221 142.246V153.123L215.607 164V153.123Z"></path>
<path fill="#FFFFFD" d="M207.518 139.526L221 142.246L215.607 153.123L202.126 150.404L207.518 139.526Z"></path>
<path fill="url(#paint0_linear_214_175)" d="M95.8114 128.043C94.6794 127.602 95.1646 125.904 96.3587 126.128L109 128.5L187.026 137.351L206.44 141.702L202.126 150.404V159.105L193.571 155.713C183.289 151.635 172.73 148.291 161.975 145.706L107.652 132.653L95.8114 128.043Z"></path>
<rect fill="url(#paint1_radial_214_175)" transform="rotate(12.4708 135.957 106)" rx="30" height="60" width="117.06" y="106" x="135.957" opacity="0.5"></rect>
<defs>
<linearGradient gradientUnits="userSpaceOnUse" y2="96.494" x2="115.573" y1="152.76" x1="192.272" id="paint0_linear_214_175">
<stop stop-color="#E77282"></stop>
<stop stop-color="#FDDEA3" offset="0.505208"></stop>
<stop stop-color="#A3EDFA" offset="1"></stop>
</linearGradient>
<radialGradient gradientTransform="translate(194.486 136) rotate(90) scale(30 58.5299)" gradientUnits="userSpaceOnUse" r="1" cy="0" cx="0" id="paint1_radial_214_175">
<stop stop-color="white"></stop>
<stop stop-opacity="0.5" stop-color="white" offset="0.0260417"></stop>
<stop stop-opacity="0" stop-color="white" offset="1"></stop>
</radialGradient>
</defs>
</svg>
