<svg xmlns="http://www.w3.org/2000/svg" fill="none" viewBox="0 0 200 200" height="200" width="200">
<path fill="#3446A8" d="M105 91.9999V108L85 104V87.9999L105 91.9999Z"></path>
<path fill="#2B337D" d="M105 91.9999L111 79.9999V87.9999L115 79.9999V87.9999L105 108V91.9999Z"></path>
<path fill="#7198FF" d="M102 86.9999L106 79L111 79.9999L105 91.9999L85 87.9999L87 83.9999L102 86.9999Z"></path>
<path fill="#7198FF" d="M115 79.9999L111 87.9999V79.9999L106 79L108 79.4V78.6003L115 79.9999Z"></path>
<path fill="#3446A8" d="M102 66.9999V86.9999L87 83.9999V63.9999L102 66.9999Z"></path>
<path fill="#2B337D" d="M108 55V79.4L106 79L102 86.9999V66.9999L108 55Z"></path>
<path fill="#7198FF" d="M108 55L102 66.9999L87 63.9999L93 52.0003L108 55Z"></path>
<path fill="#3446A8" d="M87 83.9999L85 87.9999V99.5997L82 98.9997V78.9998L87 80.0002V83.9999Z"></path>
<path fill="#7198FF" d="M87 83.9999V80.0002L82 78.9998L87 69.0001V83.9999Z"></path>
<path fill="#346A50" d="M98.001 103V107L93.001 106V102L98.001 103Z"></path>
<path fill="#1A5639" d="M100.001 98.9997V103L98.001 107V103L100.001 98.9997Z"></path>
<path fill="#73DBA1" d="M100.001 98.9997L98.001 103L93.001 102L95.001 98L100.001 98.9997Z"></path>
<path fill="#346A50" d="M93.001 97.9998V102L88.001 101V96.9998L93.001 97.9998Z"></path>
<path fill="#1A5639" d="M95.001 94V98L93.001 102V97.9998L95.001 94Z"></path>
<path fill="#73DBA1" d="M95.001 94L93.001 97.9998L88.001 96.9998L90.001 93.0002L95.001 94Z"></path>
<path fill="#3446A8" d="M82.3636 78.2726L82 78.9998V90.1998L81 89.9997V77.9998L82.3636 78.2726Z"></path>
<path fill="#7198FF" d="M82.3636 78.2726L81 77.9998L86 68.0001L87 68.2001V69.0001L82.3636 78.2726Z"></path>
<path fill="#346A50" d="M82 91.0002V95.0002L77 94.0002V90.0002L82 91.0002Z"></path>
<path fill="#73DBA1" d="M82 86.6005V91.0002L77 90.0002L79 86.0006L82 86.6005Z"></path>
<path fill="#346A50" d="M82 78.9998V82.9997L77 81.9997V77.9998L82 78.9998Z"></path>
<path fill="#73DBA1" d="M83.9999 75.0002L82 78.9998L77 77.9998L79 74.0001L83.9999 75.0002Z"></path>
<path fill="#69665D" d="M108 92.9999V96.9999L88 92.9999V88.9999L108 92.9999Z"></path>
<path fill="#4C493F" d="M116 77.0001V81.0002L108 96.9999V92.9999L116 77.0001Z"></path>
<path fill="#E0D495" d="M116 77.0001L108 92.9999L88 88.9999L92 81.0003L102 83.0002L106.001 75.0002L116 77.0001Z"></path>
<path fill="#D5CF71" d="M102 83.0002L104 79.0002L109.001 79.9999L105 88L95 86L97 82.0004L102 83.0002Z"></path>
<path fill="#346A50" d="M109 76.0002L109.001 79.9999L104 79.0002V75.0002L109 76.0002Z"></path>
<path fill="#1A5639" d="M111 72.0004V76.0006L109.001 79.9999L109 76.0002L111 72.0004Z"></path>
<path fill="#73DBA1" d="M111 72.0004L109 76.0002L104 75.0002L106 71.0006L111 72.0004Z"></path>
<path fill="#346A50" d="M100 75L100 78.9996L95 78V74L100 75Z"></path>
<path fill="#1A5639" d="M102 71.0001V75.0003L100 78.9996L100 75L102 71.0001Z"></path>
<path fill="#73DBA1" d="M102 71.0001L100 75L95 74L97 70.0004L102 71.0001Z"></path>
<path fill="#69665D" d="M90 72.9997L90.0005 76.9994L75 73.9997V69.9998L90 72.9997Z"></path>
<path fill="#4C493F" d="M92 68.9999V73.0001L90.0005 76.9994L90 72.9997L92 68.9999Z"></path>
<path fill="#E0D495" d="M92 68.9999L90 72.9997L75 69.9998L81 58.0001L89.1818 59.6365L87 63.9999V68.0001L92 68.9999Z"></path>
<path fill="#D5CF71" d="M87.1816 63.6367L87 63.9999V68.0001L82 67.0001L84 63.0005L87.1816 63.6367Z"></path>
<path fill="#69665D" d="M97 61.9996L97.0005 65.9993L82 62.9996V58.9996L97 61.9996Z"></path>
<path fill="#4C493F" d="M103 49.9998V54L97.0005 65.9993L97 61.9996L103 49.9998Z"></path>
<path fill="#E0D495" d="M103 49.9998L97 61.9996L82 58.9996L88 47L103 49.9998Z"></path>
<path fill="#D5CF71" d="M96.001 53L94.001 56.9999L89.001 55.9999L91.001 52.0003L96.001 53Z"></path>
<path fill="#69665D" d="M112 69.0007L112 73.0003L102 71.0001V66.9999L112 69.0007Z"></path>
<path fill="#4C493F" d="M120 53.0008V57.001L112 73.0003L112 69.0007L120 53.0008Z"></path>
<path fill="#E0D495" d="M120 53.0008L112 69.0007L102 66.9999L108.001 55.0013L103 54L105 50.0011L120 53.0008Z"></path>
<path fill="#D5CF71" d="M113.001 56.0011L109.001 64.0009L104.001 63.0009L108.001 55.0013L113.001 56.0011Z"></path>
</svg>
