<svg xmlns="http://www.w3.org/2000/svg" fill="none" viewBox="0 0 200 200" height="200" width="200">
<path fill="#4A4F65" d="M79 92.9998L109 98.9998L109 111L79 105L79 92.9998Z"></path>
<path fill="#2C2E47" d="M109 98.9998L111 94.9998V90.9998L121 70.9998L121 87.0002L109 111L109 98.9998Z"></path>
<path fill="#878DA3" d="M91.0001 64.9998L121 70.9998L111 90.9998V94.9998L109 98.9998L79 92.9998L81 88.9998V84.9998L91.0001 64.9998Z"></path>
<path fill="#4A4F65" d="M81 84.9998L111 90.9998V94.9998L81 88.9998V84.9998Z"></path>
<path fill="#922777" d="M84.0002 81.9998L104 85.9998L104 102L84.0001 98.0002L84.0002 81.9998Z"></path>
<path fill="#541750" d="M104 85.9998L112 69.9998L112 78.0002L106 89.9998V93.9998L104 97.9999L104 102L104 85.9998Z"></path>
<path fill="#FF59FF" d="M92 65.9998L112 69.9998L104 85.9998L84.0002 81.9998L92 65.9998Z"></path>
<path fill="#922777" d="M86 65.9993L101 68.9994L101 80.9997L85.9999 77.9997L86 65.9993Z"></path>
<path fill="#541750" d="M101 68.9994L107 56.9998L107 69.0001L101 80.9997L101 68.9994Z"></path>
<path fill="#FF59FF" d="M92 54L107 56.9998L101 68.9994L86 65.9993L92 54Z"></path>
<path fill="#9032A2" d="M84.0002 81.9998L104 85.9998L104 89.9998L84.0002 85.9998L84.0002 81.9998Z"></path>
<path fill="#9032A2" d="M84.0002 89.9999L104 93.9999L104 97.9999L84.0002 93.9999L84.0002 89.9999Z"></path>
<path fill="#541D71" d="M104 85.9998L112 69.9998L112 73.9998L104 89.9998L104 85.9998Z"></path>
<path fill="#541D71" d="M104 93.9999L106 89.9998V93.9998L104 97.9999L104 93.9999Z"></path>
</svg>
