<svg xmlns="http://www.w3.org/2000/svg" fill="none" viewBox="0 0 200 200" height="200" width="200">
<path fill="#D9D9D9" d="M79 77.0049L109 83.0049V107.005L79 101.005V77.0049Z"></path>
<path fill="#999999" d="M109 83.0049L121 59.0049V83.0049L109 107.005V83.0049Z"></path>
<path fill="white" d="M91.0001 53L121 59L109 83.0049L79 77.0049L91.0001 53Z"></path>
<path fill="#440000" d="M112 89.0049L118 77.0049V83.0005L117 85.0049V87.0005L113 95.0005V93.0005L112 95.0005V89.0049Z"></path>
<path fill="black" d="M116 74.0005L118 70.0093V73.0049L116 77.0005V74.0005Z"></path>
<path fill="black" d="M112 82.0005L114 77.9961V80.9961L112 85.0049V82.0005Z"></path>
<path fill="#FF7373" d="M112 90.7008V89.0049L114.228 84.5496L121.5 86.0005L118.5 92.0005L112 90.7008Z"></path>
<path fill="#922323" d="M118.5 92.0005L121.5 86.0005V94.0005L118.5 100V92.0005Z"></path>
<path fill="#922323" d="M112 90.7008L118.5 92.0005V99.9961L115.999 99.5049V93.5005L112 92.7006V90.7008Z"></path>
<path fill="#999999" d="M96 100.996L97 98.9961V103L99 98.9961V100.992L96 106.992V100.996Z"></path>
<path fill="#D9D9D9" d="M86 99.0005L96 100.996V106.992L86 105V99.0005Z"></path>
<path fill="white" d="M89 97.0005L99 98.9961L97 103V98.9961L96 100.996L86 99.0005L87 97.0005L97 98.9961L88.8182 97.3633L89 97.0005Z"></path>
<path fill="white" d="M113 87.0049L114 85.0049L114 87.0049L113 89.0093L113 87.0049Z"></path>
<path fill="white" d="M116 81.0005L117 79.0005L117 81.0005L116 83.0049L116 81.0005Z"></path>
<path fill="#A37F00" d="M107 69.9961L113 57.9917V63.9917L107 76.0005V69.9961Z"></path>
<path fill="#DBB803" d="M92 66.9961L107 69.9961V75.9961L92 72.9961V66.9961Z"></path>
<path fill="#FFE600" d="M110.5 57.5005L113 57.9917L107 69.9961L92 66.9961L98 55.0005L110.5 57.5005L109.5 59.5005L99.5 57.5005L95.5 65.5005L105.5 67.5005L110.5 57.5005Z"></path>
<path fill="#A37F00" d="M95.5 65.5005L99.5 57.5005V63.5005L98.2274 66.046L95.5 65.5005Z"></path>
<path fill="#DBB803" d="M99.5 57.5005L109.5 59.5005L106.772 64.9561L99.5 63.5049V57.5005Z"></path>
<path fill="#DBB803" d="M92 65.0005L94.5 65.5005V67.4961L92 66.9961V65.0005Z"></path>
<path fill="#A37F00" d="M94.5 65.5005L95.5 63.5049V65.5005L94.5 67.4961V65.5005Z"></path>
<path fill="#FFE500" d="M93 63.0005L95.5 63.5005L94.5 65.5005L92 65.0005L93 63.0005Z"></path>
<path fill="#DBB803" d="M97 55.0049L99.5 55.5049V57.5005L97 57.0005V55.0049Z"></path>
<path fill="#A37F00" d="M99.5 55.5049L100.5 53.5093V55.5049L99.5 57.5005V55.5049Z"></path>
<path fill="#FFE500" d="M98 53.0049L100.5 53.5049L99.5 55.5049L97 55.0049L98 53.0049Z"></path>
<path fill="#DBB803" d="M109.5 57.5049L112 58.0049V60.0005L109.5 59.5005V57.5049Z"></path>
<path fill="#A37F00" d="M112 58.0049L113 56.0093V58.0049L112 60.0005V58.0049Z"></path>
<path fill="#FFE500" d="M110.5 55.5049L113 56.0049L112 58.0049L109.5 57.5049L110.5 55.5049Z"></path>
<path fill="#DBB803" d="M104.5 67.5005L107 68.0005V69.9961L104.5 69.4961V67.5005Z"></path>
<path fill="#A37F00" d="M107 68.0005L108 66.0049V68.0005L107 69.9961V68.0005Z"></path>
<path fill="#FFE500" d="M105.5 65.5005L108 66.0005L107 68.0005L104.5 67.5005L105.5 65.5005Z"></path>
<path fill="#DBB803" d="M98.2274 66.246L100.727 66.746V68.7416L98.2274 68.2416V66.246Z"></path>
<path fill="#A37F00" d="M100.727 66.746L101.727 64.7504V66.746L100.727 68.7416V66.746Z"></path>
<path fill="#FFE500" d="M99.2274 64.246L101.727 64.746L100.727 66.746L98.2274 66.246L99.2274 64.246Z"></path>
<path fill="#DBB803" d="M107 62.5049L109.5 63.0049V65.0005L107 64.5005V62.5049Z"></path>
<path fill="#A37F00" d="M109.5 63.0049L110.5 61.0093V63.0049L109.5 65.0005V63.0049Z"></path>
<path fill="#FFE500" d="M108 60.5049L110.5 61.0049L109.5 63.0049L107 62.5049L108 60.5049Z"></path>
<path fill="#DBB803" d="M94.4978 60.0049L96.9978 60.5049V62.5005L94.4978 62.0005V60.0049Z"></path>
<path fill="#A37F00" d="M96.9978 60.5049L97.9978 58.5093V60.5049L96.9978 62.5005V60.5049Z"></path>
<path fill="#FFE500" d="M95.4978 58.0049L97.9978 58.5049L96.9978 60.5049L94.4978 60.0049L95.4978 58.0049Z"></path>
<path fill="#DBB803" d="M103.272 56.2549L105.772 56.7549V58.7505L103.272 58.2505V56.2549Z"></path>
<path fill="#A37F00" d="M105.772 56.7549L106.772 54.7593V56.7549L105.772 58.7505V56.7549Z"></path>
<path fill="#FFE500" d="M104.272 54.2549L106.772 54.7549L105.772 56.7549L103.272 56.2549L104.272 54.2549Z"></path>
<path fill="white" d="M73.0005 83.0026L77.0016 75.0024L79.7282 75.5483L79 77.0049V84.2034L73.0005 83.0026Z"></path>
<path fill="#D9D9D9" d="M73.0005 83.0026L79 84.2034V92.2005L73 91.0048L73.0005 83.0026Z"></path>
</svg>
