<svg xmlns="http://www.w3.org/2000/svg" fill="none" viewBox="0 0 200 200" height="200" width="200">
<path fill="#CC1515" d="M88.8339 57.6665L103.834 60.6664L103.834 67.3331L103.834 73.9997L88.8343 70.9997L88.8341 63.5331L88.8338 64.3332L88.8339 57.6665Z"></path>
<path fill="#7F0D0D" d="M103.834 60.6664L104.501 59.3336V58.0002L105.834 55.3336V54.0003L109.834 46.0003L109.834 52.6665L109.834 61.9998L103.834 73.9997L103.834 67.3331L103.834 60.6664Z"></path>
<path fill="#FF1B1B" d="M94.8339 43L109.834 46.0003L105.834 54.0003V55.3336L104.501 58.0002V59.3336L103.834 60.6664L88.8339 57.6665L89.5011 56.3336V55.0003L90.8344 52.3336V51.0003L94.8339 43Z"></path>
<path fill="#501D16" d="M88.8341 63.5331L88.8338 64.3332L103.834 67.3331L103.834 73.9997L88.8343 70.9997L88.8341 63.5331Z"></path>
<path fill="#AA6F5A" d="M103.834 67.3331L104.501 65.9999V64.6665L105.834 61.9998V60.6669L109.834 52.6665L109.834 61.9998L103.834 73.9997L103.834 67.3331Z"></path>
<path fill="#AA6F5A" d="M110.5 61.3335V65.3335L109.348 67.6371L109.168 67.9999L109.167 64.0002L110.5 61.3335Z"></path>
<path fill="#FFB88C" d="M109.167 64.0002L109.168 67.9999L107.046 67.5759L105.834 67.3335V63.3335L109.167 64.0002Z"></path>
<path fill="#FFD9B1" d="M110.5 61.3335L109.167 64.0002L105.834 63.3335L107.167 60.6669L110.5 61.3335Z"></path>
<path fill="#CC1515" d="M90.0011 71.2331L88.8343 70.9997L103.834 73.9997L104.561 72.5456L105.167 72.6668V90V90.0005L98.4999 88.6663L96.834 88.3335L90.1669 87.0001V79.8331L90.1676 73.6668V71.2664L90.0011 71.2331Z"></path>
<path fill="#7F0D0D" d="M105.167 72.6668L105.834 71.3341V75.334L106.668 75.4996V87.4995L107.833 87.7327L107.833 95.3333L105.167 100.667L105.167 90V72.6668Z"></path>
<path fill="#FF1B1B" d="M109.168 67.9999L105.834 71.3341L105.167 72.6668L104.561 72.5456L103.834 73.9997L107.046 67.5759L109.168 67.9999Z"></path>
<path fill="#1E56D4" d="M105.167 76.6668V90V90.0005L98.4999 88.6663L96.834 88.3335L90.1669 87.0001V79.8331L90.1676 73.6668L105.167 76.6668Z"></path>
<path fill="#12349E" d="M105.834 75.334L106.668 75.4996V87.4995L107.833 87.7327L107.833 95.3333L105.167 100.667L105.167 90V90.0005V76.6672L105.834 75.334Z"></path>
<path fill="#1E56D4" d="M98.4999 88.6663L105.167 90.0005V90L105.167 100.667L98.4996 99.3329L98.4999 88.6663Z"></path>
<path fill="#1E56D4" d="M90.1669 87.0001L96.834 88.3335L96.8337 98.9996L90.1666 97.6658L90.1669 87.0001Z"></path>
<path fill="#12349E" d="M96.834 88.3335L98.4999 88.6663L98.5009 95.6667L96.8337 98.9996L96.834 88.3335Z"></path>
<path fill="#502D2C" d="M107.833 95.3333V96.6667L109.166 94V96.6667L105.167 104.667V104.666V100.667L107.833 95.3333Z"></path>
<path fill="#874633" d="M105.167 100.667V104.666L98.4996 103.333V99.3329L105.167 100.667Z"></path>
<path fill="#502D2C" d="M98.5009 95.6667L98.4996 99.6683L96.834 103V103V99L98.5009 95.6667Z"></path>
<path fill="#874633" d="M96.834 99V103L90.1669 101.666V97.6663L96.834 99Z"></path>
<path fill="#7F0D0D" d="M113.668 68.5002V80.5001L111.668 84.5001V72.5001L113.668 68.5002Z"></path>
<path fill="#CC1515" d="M111.668 72.5001V84.5001L106.668 83.4995V75.4996L105.834 75.334V71.3341L111.668 72.5001Z"></path>
<path fill="#FF1B1B" d="M113.668 68.5002L111.668 72.5001L105.834 71.3341L109.168 67.9999L109.348 67.6371L113.668 68.5002Z"></path>
<path fill="#7F7F7F" d="M113.668 80.5001V84.5001L111.668 88.5001V84.5001L113.668 80.5001Z"></path>
<path fill="#CBCBCB" d="M111.668 84.5001V88.5001L106.668 87.4995V83.4995L111.668 84.5001Z"></path>
<path fill="#7F0D0D" d="M90.0011 71.2331L90.1676 71.2664V73.6668L90.1669 79.8331L90.0011 80.1664V71.2331Z"></path>
<path fill="#CC1515" d="M88.8341 63.5331L88.8343 70.9997L90.0011 71.2331V80.1664L85 79.1668V67.1668L87.0011 63.1665L88.8341 63.5331Z"></path>
<path fill="#7F7F7F" d="M90.1669 79.8331V83.8331L90.0011 84.1665V80.1664L90.1669 79.8331Z"></path>
<path fill="#CBCBCB" d="M90.0011 80.1664V84.1665L85 83.1668V79.1668L90.0011 80.1664Z"></path>
<path fill="#FFB88C" d="M88.8339 59.9336L88.8341 63.9332L87.5005 63.6665V59.6669L88.8339 59.9336Z"></path>
<path fill="#FFD9B1" d="M88.8338 57.0002L89.1231 57.0887L88.8339 57.6665L88.8339 59.9336L87.5005 59.6669L88.8338 57.0002Z"></path>
<path fill="#FF1B1B" d="M87.0011 63.1665L87.5005 63.2664V63.6665L88.8341 63.9332L88.8342 67.9335L85 67.1668L87.0011 63.1665Z"></path>
<path fill="#CC1515" d="M90.8344 51.0003L105.834 54.0003L105.834 55.3336L90.8344 52.3336V51.0003Z"></path>
<path fill="#CC1515" d="M89.5018 55.0003L104.502 58.0003L104.501 59.3336L89.5018 56.3336V55.0003Z"></path>
<path fill="#D37753" d="M109.166 94L107.833 96.6667L107.833 93.7334L109.166 94Z"></path>
<path fill="#32120E" d="M103.834 67.3331L104.501 65.9999V64.6665L105.834 61.9998V60.6669L107.834 56.6669V60.8002L107.167 60.6669L105.834 63.3335L105.834 70.0002L103.834 73.9996L103.834 67.3331Z"></path>
</svg>
