<svg xmlns="http://www.w3.org/2000/svg" fill="none" viewBox="0 0 200 200" height="200" width="200">
<path fill="#49282F" d="M85.9999 94.4L109 99L106 98.4V106L85.9999 102V94.4Z"></path>
<path fill="#28151B" d="M109 99L114 89V90L106 106V98.4L109 99Z"></path>
<path fill="#65761A" d="M78.9999 65L109 71V99L78.9999 93V65Z"></path>
<path fill="#3A4410" d="M109 71L121 46.9999V74.9999L109 99V71Z"></path>
<path fill="#A3C121" d="M91 41L121 46.9999L109 71L78.9999 65L91 41Z"></path>
<path fill="#5D6D15" d="M78.9999 88.9999L109 94.9999L109 99L78.9999 93L78.9999 88.9999Z"></path>
<path fill="#333D0B" d="M121 70.9999L109 94.9999L109 99L121 74.9999L121 70.9999Z"></path>
<path fill="#5D6D15" d="M78.9999 76.9999L109 83L109 87L78.9999 81L78.9999 76.9999Z"></path>
<path fill="#333D0B" d="M121 58.9999L109 83L109 87L121 62.9999L121 58.9999Z"></path>
<path fill="#5D6D15" d="M78.9999 65L109 71L109 75L78.9999 69L78.9999 65Z"></path>
<path fill="#333D0B" d="M121 46.9999L109 71L109 75L121 50.9999L121 46.9999Z"></path>
</svg>
