<svg xmlns="http://www.w3.org/2000/svg" fill="none" viewBox="0 0 200 200" height="200" width="200">
<path fill="#946A52" d="M80.5 82.4999L108 87.9999V111L80.5 105.5V82.4999Z"></path>
<path fill="#553D38" d="M108 87.9999L123 58V81L108 111V87.9999Z"></path>
<path fill="#FFBF81" d="M95.5 52.5L123 58L108 87.9999L80.5 82.4999L95.5 52.5Z"></path>
<path fill="#D46841" d="M91.7499 88.7499L96.7499 89.7499L94.7499 93.7498L89.7499 92.7498L91.7499 88.7499Z"></path>
<path fill="#763927" d="M89.7499 92.7498L94.7499 93.7498V97.7498L89.7499 96.7498V92.7498Z"></path>
<path fill="#43221B" d="M94.7499 93.7498L96.7499 89.7499V93.7499L94.7499 97.7498V93.7498Z"></path>
<path fill="#D46841" d="M121.5 65.0002L125.25 65.7502L122.25 71.7501L118.5 71.0001L121.5 65.0002Z"></path>
<path fill="#763927" d="M118.5 71.0001L122.25 71.7501V79.7501L118.5 79.0001V71.0001Z"></path>
<path fill="#43221B" d="M122.25 71.7501L125.25 65.7502V73.7502L122.25 79.7501V71.7501Z"></path>
<path fill="#D46841" d="M90.75 57.7502L92.6817 58.1366L89.6817 64.1365L87.75 63.7501L90.75 57.7502Z"></path>
<path fill="#763927" d="M87.75 63.7501L89.6817 64.1365L87.75 67.9999V63.7501Z"></path>
<path fill="#763927" d="M84 106.2L89 107.2V109L84 108V106.2Z"></path>
<path fill="#43221B" d="M89 107.2L89.8183 107.364L89 109V107.2Z"></path>
<path fill="#763927" d="M101.5 109.7L106.5 110.7V112.5L101.5 111.5V109.7Z"></path>
<path fill="#43221B" d="M106.5 110.7L107.318 110.864L106.5 112.5V110.7Z"></path>
<path fill="#D46841" d="M106.5 53.5005L114 55.0005L113.455 56.091L105.955 54.5909L106.5 53.5005Z"></path>
<path fill="#43221B" d="M113.455 56.091L114 55.0005V56.2L113.455 56.091Z"></path>
<path fill="#832B21" d="M109 54.0005L111.5 54.5005L110.955 55.591L108.455 55.0909L109 54.0005Z"></path>
</svg>
