<svg xmlns="http://www.w3.org/2000/svg" fill="none" viewBox="0 0 80 116" height="116" width="80">
<path stroke-width="2" stroke="white" fill="#56C6F8" d="M2 113H1V3H2H3V2V1H77V2V3H78H79V113H78H77V114V115H3V114V113H2Z"></path>
<path fill="white" d="M52 97H53V96H58V98H54V99H56V101H54V102H58V104H53V103H52V97Z"></path>
<path fill="white" d="M31 97H32V96H37V98H33V99H35V101H33V102V104H32H31V103V97Z"></path>
<path fill="white" d="M38 97H39V96H44V98H40V99H42V101H40V102V104H39H38V103V97Z"></path>
<path fill="white" d="M59 97H60V96H65V98H61V99H64V100H65V103H64V104H59V102H63V101H60V100H59V97Z"></path>
<path fill="white" d="M45 97V96H46H47V98V102H51V104H46V103H45V98V97Z"></path>
<path fill="white" d="M23 104L21 104L21 103L20 103L20 102L19 102L19 103L18 103L18 104L16 104L16 96L18 96L18 100L19 100L19 99L20 99L20 100L21 100L21 96L23 96L23 104Z"></path>
<path fill="white" d="M24 97H25V96H29V97H30V104H28V98H26V99H28V101H26V102V104H25H24V103V97Z"></path>
<path fill="#946A52" d="M19.25 49.9998L46.75 55.4999V78.4999L19.25 72.9999V49.9998Z"></path>
<path fill="#553D38" d="M46.75 55.4999L61.75 25.5V48.5L46.75 78.4999V55.4999Z"></path>
<path fill="#FFBF81" d="M34.25 20L61.75 25.5L46.75 55.4999L19.25 49.9998L34.25 20Z"></path>
<path fill="#D46841" d="M52.25 48.5002L56 49.2502L53 55.2501L49.25 54.5001L52.25 48.5002Z"></path>
<path fill="#763927" d="M49.25 54.5001L53 55.2501V63.2501L49.25 62.5001V54.5001Z"></path>
<path fill="#43221B" d="M53 55.2501L56 49.2502V57.2502L53 63.2501V55.2501Z"></path>
<path fill="#763927" d="M22.75 73.6999L27.75 74.6999V76.5L22.75 75.5V73.6999Z"></path>
<path fill="#43221B" d="M27.75 74.6999L28.5683 74.8635L27.75 76.5V74.6999Z"></path>
<path fill="#763927" d="M40.25 77.1999L45.25 78.1999V80L40.25 79V77.1999Z"></path>
<path fill="#43221B" d="M45.25 78.1999L46.0682 78.3635L45.25 80V78.1999Z"></path>
<path fill="#D46841" d="M47.5 22.2505L52.5 23.2505L52.3184 23.6137L47.3184 22.6137L47.5 22.2505Z"></path>
<path fill="#43221B" d="M52.3184 23.6137L52.5 23.2505V23.65L52.3184 23.6137Z"></path>
<path fill="#D46841" d="M21 42.2504L22.9316 42.6367L19.9316 48.6366L18 48.2502L21 42.2504Z"></path>
<path fill="#763927" d="M18 48.2502L19.9316 48.6366L19.25 49.9998V56.5002L18 56.2502V48.2502Z"></path>
<path fill="#D46841" d="M29.25 53L36.75 54.5L35.75 56.5L28.25 55L29.25 53Z"></path>
<path fill="#43221B" d="M35.75 56.5L36.75 54.5V58.5001L35.75 60.25V56.5Z"></path>
<path fill="#832B21" d="M31.25 54.5506L33.75 55.0506L33.25 56L30.75 55.5L31.25 54.5506Z"></path>
<path fill="#763927" d="M28.25 55L35.75 56.5V60.25L28.25 58.75V55Z"></path>
<path fill="#450E25" d="M30.75 55.5L33.25 56V58L30.75 57.5V55.5Z"></path>
<path fill="#481818" d="M41.75 56.5002L44.25 57.0002V59.0002L41.75 58.5002V56.5002Z"></path>
<path fill="#481818" d="M21.75 52.5L24.25 53V55L21.75 54.5V52.5Z"></path>
<path fill="#FFFFFE" d="M21.75 57.5505L44.25 62.0505L43.25 63.9999L20.75 59.4998L21.75 57.5505Z"></path>
<path fill="#5A577A" d="M43.25 63.9999L44.25 62.0505V74L43.25 75.7498V63.9999Z"></path>
<path fill="#9794A9" d="M20.75 59.4998L43.25 63.9999V75.7498L36.25 74.3498L20.75 71.2498V59.4998Z"></path>
<path fill="#481818" d="M23.25 64L25.75 64.5V66.5L23.25 66V64Z"></path>
<path fill="#481818" d="M38.25 66.9999L40.75 67.5V69.5L38.25 69V66.9999Z"></path>
<path fill="#F8B775" d="M28.25 64L35.75 65.5L34.75 67.5L27.25 66L28.25 64Z"></path>
<path fill="#503937" d="M34.75 67.5L35.75 65.5V68.7501L34.75 70.5V67.5Z"></path>
<path fill="#832B21" d="M30.25 65.5506L32.75 66.0506L32.25 67L29.75 66.5L30.25 65.5506Z"></path>
<path fill="#9A6B37" d="M27.25 66L34.75 67.5V70.5L27.25 69V66Z"></path>
<path fill="#450E25" d="M29.75 66.5L32.25 67V69L29.75 68.5V66.5Z"></path>
<path fill="#8F8579" d="M20.75 63.5L23.25 64V66L25.75 66.5V64.5L20.75 63.5V61.5L28.25 63V64L27.25 66V68.8L20.75 67.5V63.5Z"></path>
<path fill="#9A6B37" d="M29 69.35L34 70.35V72.25L29 71.25V69.35Z"></path>
<path fill="#503937" d="M34 70.35L34.5 70.45V71.5001L34 72.25V70.35Z"></path>
<path fill="#9C374F" d="M30.25 69.6L32.75 70.1V71L30.25 70.5V69.6Z"></path>
<path fill="#5D5D75" d="M30.75 73.25L33.25 73.75V75.75L30.75 75.25V73.25Z"></path>
<path fill="#40405A" d="M33.25 73.75L33.75 73.8498V74.75L33.25 75.75V73.75Z"></path>
<path fill="#717092" d="M28.75 72.8498L30.75 73.25V75.25L33.25 75.75L33.75 74.75V73.8498L36.25 74.3498V80.25L35 80V77L30 76V78L35 79V80L28.75 78.75V72.8498Z"></path>
<path fill="#40405A" d="M36.25 74.3498L36.75 74.4497V79.25L36.25 80.25V74.3498Z"></path>
<path fill="#40405A" d="M30 76L30.5 76.0998V77L30 78V76Z"></path>
<path fill="#CFC6E3" d="M30.5 77L35 77.8999V79L30 78L30.5 77Z"></path>
</svg>
