<svg xmlns="http://www.w3.org/2000/svg" fill="none" viewBox="0 0 200 200" height="200" width="200">
<path fill="#CC9F34" d="M85 95L105 99V113L85 109V95Z"></path>
<path fill="#806320" d="M105 99L116 77V91L105 113V99Z"></path>
<path fill="#FFC641" d="M96 73L116 77L105 99L85 95L96 73Z"></path>
<path fill="#FFC741" d="M91 100L95 100.8V103L90 102L91 100Z"></path>
<path fill="#7F6320" d="M91 98.2V100L90 102V98L91 98.2Z"></path>
<path fill="#FFC741" d="M98.4091 101.682L100 102V104L97.5 103.5L98.4091 101.682Z"></path>
<path fill="#7F6320" d="M98.4091 101.682L97.5 103.5V101.5L98.4091 101.682Z"></path>
<path fill="#FFC741" d="M98.5 107.5L102.5 108.3V110.5L97.5 109.5L98.5 107.5Z"></path>
<path fill="#7F6320" d="M98.5 105.7V107.5L97.5 109.5V105.5L98.5 105.7Z"></path>
<path fill="#FFC741" d="M88.4091 103.682L90 104V106L87.5 105.5L88.4091 103.682Z"></path>
<path fill="#7F6320" d="M88.4091 103.682L87.5 105.5V103.5L88.4091 103.682Z"></path>
<path fill="#FFC641" d="M106.182 102.636L108 103L106 107V103L106.182 102.636Z"></path>
<path fill="#CC9F34" d="M106.182 102.636L108 99V103L106.182 102.636Z"></path>
<path fill="#FFC641" d="M110.182 96.6364L112 97L110 101V97L110.182 96.6364Z"></path>
<path fill="#CC9F34" d="M110.182 96.6364L112 93V97L110.182 96.6364Z"></path>
<path fill="#FFC641" d="M111.182 88.6364L113 89L111 93V89L111.182 88.6364Z"></path>
<path fill="#CC9F34" d="M111.182 88.6364L113 85V89L111.182 88.6364Z"></path>
<path fill="#FFC641" d="M107.091 96.8182L108 97L107 99V97L107.091 96.8182Z"></path>
<path fill="#CC9F34" d="M107.091 96.8182L108 95V97L107.091 96.8182Z"></path>
<path fill="#FFC641" d="M114.091 88.8182L115 89L114 91V89L114.091 88.8182Z"></path>
<path fill="#CC9F34" d="M114.091 88.8182L115 87V89L114.091 88.8182Z"></path>
<path fill="#CC9F34" d="M97.5 75.5182L102.5 76.5182L101.583 78.3348L97.5 77.5182V75.5182Z"></path>
<path fill="#806320" d="M97.5 75.5182L95.5 79.5L96.4129 79.6826L97.5 77.5182V75.5182Z"></path>
<path fill="#CC9F34" d="M97 82.0182L102 83.0182L101.083 84.8348L97 84.0182V82.0182Z"></path>
<path fill="#806320" d="M97 82.0182L95 86L95.9129 86.1826L97 84.0182V82.0182Z"></path>
<path fill="#CC9F34" d="M101.5 89.5L106.5 90.5L105.583 92.3167L101.5 91.5V89.5Z"></path>
<path fill="#806320" d="M101.5 89.5L99.5 93.4818L100.413 93.6644L101.5 91.5V89.5Z"></path>
<path fill="#CC9F34" d="M89.5 91.5182L92 92.0182L91.0833 93.8348L89.5 93.5182V91.5182Z"></path>
<path fill="#806320" d="M89.5 91.5182L88.5 93.5L89.4129 93.6826L89.5 93.5182V91.5182Z"></path>
<path fill="#CC9F34" d="M106.5 79.5303L109 80.0303L108.083 81.847L106.5 81.5303V79.5303Z"></path>
<path fill="#806320" d="M106.5 79.5303L105.5 81.5121L106.413 81.6947L106.5 81.5303V79.5303Z"></path>
</svg>
