<svg xmlns="http://www.w3.org/2000/svg" fill="none" viewBox="0 0 480 360" height="360" width="480">
<rect fill-opacity="0.9" fill="#6ACDEC" height="360" width="480"></rect>
<path stroke-width="2" stroke="white" fill="#56C6F8" d="M12 17H13V16V15H57V16V17H58H59V47H58H57V48V49H13V48V47H12H11V17H12Z"></path>
<path fill="white" d="M38 42L38 22L37 22L36 22L36 23L36 24L35 24L34 24L34 25L34 26L33 26L32 26L32 27L32 28L31 28L30 28L30 29L30 30L29 30L28 30L28 31L28 32L28 33L28 34L29 34L30 34L30 35L30 36L31 36L32 36L32 37L32 38L33 38L34 38L34 39L34 40L35 40L36 40L36 41L36 42L37 42L38 42Z"></path>
<path fill="white" d="M216 326L216 324H220L220 328V336L220 340H216V336V328V326Z"></path>
<path fill="white" d="M236 326H238V324H246V326H248V328H244H240V336H244V328H248V338H246V340H238V338H236V326Z"></path>
<path fill="white" d="M222 326H224V324H232V326H234V328H230H226V336H230V328H234V338H232V340H224V338H222V326Z"></path>
<path fill="white" d="M262 325L252 325L252 327L250 327L250 337L252 337L252 339L262 339L262 337L264 337L264 327L262 327L262 325Z"></path>
<path fill="#56C6F8" d="M260 328.999L254 328.999L254 334.999L260 334.999L260 332.999L256 332.999L256 330.999L260 330.999L260 328.999Z"></path>
</svg>
