<svg xmlns="http://www.w3.org/2000/svg" fill="none" viewBox="0 0 480 360" height="360" width="480">
<path stroke-width="2" stroke="white" fill="#56C6F8" d="M12.0667 252.313H13.0667V251.313V251H466.933V251.313V252.313H467.933H469V347.688H467.933H466.933V348.688V349H13.0667V348.688V347.688H12.0667H11V252.313H12.0667Z"></path>
<path fill="white" d="M234 277H236V275H246V279H238V281H242V285H238V287H246V291H236V289H234V277Z"></path>
<path fill="white" d="M276 277H278V275H288V279H280V281H284V285H280V287H288V291H278V289H276V277Z"></path>
<path fill="white" d="M290 277V275H292H300V277H302V279H298H294V287H298V279H302V289H300V291H292H290V289V277Z"></path>
<path fill="white" d="M248 277V275H250H252V279V287H260V291H250V289H248V279V277Z"></path>
<path fill="white" d="M262 277V275H264H266V279V287H274V291H264V289H262V279V277Z"></path>
<path fill="white" d="M178 277H180V275H190V279H182V281V285V287H190V291H180V289H178V277Z"></path>
<path fill="white" d="M220 277H222V275H232V279H224V281V285V287H232V291H222V289H220V277Z"></path>
<path fill="white" d="M192 277H194V275H202V277H204V291H200V279H196V281H200V285H196V287V291H194H192V289V277Z"></path>
<path fill="white" d="M206 275H210V277H212V279H214V275H218V291H214V285H212V283H210V291H206V275Z"></path>
<path fill="white" d="M232 323L230 323L230 322L229 322L229 321L228 321L228 322L227 322L227 323L225 323L225 315L227 315L227 319L228 319L228 318L229 318L229 319L230 319L230 315L232 315L232 323Z"></path>
<path fill="white" d="M196 315L196 317L195 317L195 318L194 318L194 320L195 320L195 321L196 321L196 323L194 323L194 322L193 322L193 321L192 321L192 323L190 323L190 315L192 315L192 317L193 317L193 316L194 316L194 315L196 315Z"></path>
<path fill="white" d="M162 316H163V315H168V317H164V318V320V321H168V323H163V322H162V316Z"></path>
<path fill="white" d="M290 316H291V315H296V317H292V318V320V321H296V323H291V322H290V316Z"></path>
<path fill="white" d="M183 316H184V315H189V317H185V318V320V321H189V323H184V322H183V316Z"></path>
<path fill="white" d="M211 315H213V316H214V317H215V315H217V323H215V320H214V319H213V323H211V315Z"></path>
<path fill="white" d="M269 316V315H270H275V317H273V321V323H271V321V317H269V316Z"></path>
<path fill="white" d="M169 316V315H170H171V317V321H175V323H170V322H169V317V316Z"></path>
<path fill="white" d="M238.833 315L240 315L240 316L240 323L237.667 323L237.667 320L235.333 320L235.333 323L233 323L233 315L235.333 315L235.333 318L237.667 318L237.667 315L238.833 315Z"></path>
<path fill="white" d="M248 315H253V316H254V319H253V320H254V323H252V321H251V320H250V318H252V317H250V318V320V323H248V315Z"></path>
<path fill="white" d="M311 316H312V315H317V317H313V318H316V319H317V322H316V323H311V321H315V320H312V319H311V316Z"></path>
<path fill="white" d="M204 316H205V315H209V316H210V323H208V317H206V318H208V320H206V321V323H205H204V322V316Z"></path>
<path fill="white" d="M241 316H242V315H247V317H243V318H245V320H243V321H247V323H242V322H241V316Z"></path>
<path fill="white" d="M255 316H256V315H261V317H257V318H259V320H257V321H261V323H256V322H255V316Z"></path>
<path fill="white" d="M318 316H319V315H324V317H320V318H322V320H320V321H324V323H319V322H318V316Z"></path>
<path fill="white" d="M276 316H277V315H281V316H282V317H280H278V321H280V317H282V322H281V323H277V322H276V316Z"></path>
<path fill="white" d="M304 316H305V315H309V316H310V317H308H306V321H308V317H310V322H309V323H305V322H304V316Z"></path>
<path fill="white" d="M297 316V315H298H299V317V321H303V323H298V322H297V317V316Z"></path>
<path fill="white" d="M218 316V315H219H220V318H222V315H224V319H223V320H222V323H220V320H219V319H218V316Z"></path>
<path fill="white" d="M176 316V315H177H182V317H180V321H182V323H176V321H178V317H176V316Z"></path>
<path fill="#FF4040" d="M293 300V299H294H298V300H299V301H297H295V305H297V301H299V306H298V307H294H293V306V300Z"></path>
<path fill="#FF4040" d="M305 300V299H306H310V300H311V301H309H307V305H309V301H311V306H310V307H306H305V306V300Z"></path>
<path fill="#FF4040" d="M258 300V299H259H263V300H264V301H262H260V305H262V301H264V306H263V307H259H258V306V300Z"></path>
<path fill="#FF4040" d="M162 300H163V299H168V301H164V302V304V305H168V307H163V306H162V300Z"></path>
<path fill="#FF4040" d="M169 300H170V299H174V300H175V301H173H171V305H173V301H175V306H174V307H170V306H169V300Z"></path>
<path fill="#FF4040" d="M251 300H252V299H256V300H257V301H255H253V305H255V301H257V306H256V307H252V306H251V300Z"></path>
<path fill="#FF4040" d="M224 300H225V299H229V300H230V301H228H226V305H228V301H230V306H229V307H225V306H224V300Z"></path>
<path fill="#FF4040" d="M265 300V299H266H271V301H269V305H271V307H265V305H267V301H265V300Z"></path>
<path fill="#FF4040" d="M326 300H327V299H331V300H332V307H330V301H328V302H330V304H328V305V307H327H326V306V300Z"></path>
<path fill="#FF4040" d="M312 300H313V299H317V300H318V307H316V301H314V302H316V304H314V305V307H313H312V306V300Z"></path>
<path fill="#FF4040" d="M184 299H189V300H190V303H189V304H186V302H188V301H186V302V304V307H184V299Z"></path>
<path fill="#FF4040" d="M231 299H236V300H237V303H236V304H237V307H235V305H234V304H233V302H235V301H233V302V304V307H231V299Z"></path>
<path fill="#FF4040" d="M198 300H199V299H204V301H200V302H202V304H200V305H204V307H199V306H198V300Z"></path>
<path fill="#FF4040" d="M212 300H213V299H218V301H214V302H216V304H214V305H218V307H213V306H212V300Z"></path>
<path fill="#FF4040" d="M286 300H287V299H292V301H288V302H290V304H288V305H292V307H287V306H286V300Z"></path>
<path fill="#FF4040" d="M272 300H273V299H278V301H274V302H276V304H274V305V307H273H272V306V300Z"></path>
<path fill="#FF4040" d="M176 299H178V300H179V301H180V300H181V299H183V307H181V303H180V304H179V303H178V307H176V299Z"></path>
<path fill="#FF4040" d="M243 299H245V300H246V301H247V300H248V299H250V307H248V303H247V304H246V303H245V307H243V299Z"></path>
<path fill="#FF4040" d="M205 300V299H206H211V301H209V305V307H207V305V301H205V300Z"></path>
<path fill="#FF4040" d="M319 300V299H320H325V301H323V305V307H321V305V301H319V300Z"></path>
<path fill="#FF4040" d="M191 300V299H192H193V301V305H197V307H192V306H191V301V300Z"></path>
<path fill="#FF4040" d="M148 300V299H149H154V301H152V305H154V307H148V305H150V301H148V300Z"></path>
<path fill="#FF4040" d="M279 300V299H280H285V301H283V305H285V307H279V305H281V301H279V300Z"></path>
<path fill="#FF4040" d="M155 299H157V300H158V301H159V299H161V307H159V304H158V303H157V307H155V299Z"></path>
</svg>
