<svg xmlns="http://www.w3.org/2000/svg" fill="none" viewBox="0 0 480 360" height="360" width="480">
<path fill="white" d="M82 85.5V84H83.5H91V87H88V93V96H85V93V87H82V85.5Z"></path>
<path fill="white" d="M61 85.5H62.5V84H70V87H64V88.5H67V91.5H64V93H70V96H62.5V94.5H61V85.5Z"></path>
<path fill="white" d="M92.5 85.5H94V84H101.5V87H95.5V88.5H98.5V91.5H95.5V93H101.5V96H94V94.5H92.5V85.5Z"></path>
<path fill="white" d="M145 96L142 96L142 94.5L140.5 94.5L140.5 93L139 93L139 94.5L137.5 94.5L137.5 96L134.5 96L134.5 84L137.5 84L137.5 90L139 90L139 88.5L140.5 88.5L140.5 90L142 90L142 84L145 84L145 96Z"></path>
<path fill="white" d="M71.5 85.5H73V84H79V85.5H80.5V96H77.5V87H74.5V88.5H77.5V91.5H74.5V93V96H73H71.5V94.5V85.5Z"></path>
<path fill="white" d="M113.5 85.5H115V84H121V85.5H122.5V96H119.5V87H116.5V88.5H119.5V91.5H116.5V93V96H115H113.5V94.5V85.5Z"></path>
<path fill="white" d="M146.5 85.5H148V84H154V85.5H155.5V96H152.5V87H149.5V88.5H152.5V91.5H149.5V93V96H148H146.5V94.5V85.5Z"></path>
<path fill="white" d="M50.5 84H58V85.5H59.5V90H58V91.5H59.5V96H56.5V93H55V91.5H53.5V88.5H56.5V87H53.5V88.5V91.5V96H50.5V84Z"></path>
<path fill="white" d="M157 85.5V84H158.5H160V88.5H163V84H166V90H164.5V91.5H163V96H160V91.5H158.5V90H157V85.5Z"></path>
<path fill="white" d="M40 85.5H41.5V84H49V87H43V88.5V91.5V93H49V96H41.5V94.5H40V85.5Z"></path>
<path stroke-width="2" stroke="white" fill="#56C6F8" d="M42 227H41V113H42H43V112V111H197V112V113H198H199V227H198H197V228V229H43V228V227H42Z"></path>
<path stroke-width="2" stroke="white" fill="#56C6F8" d="M51 202H52V201H74V202H75V218H74V219H52V218H51V202Z"></path>
<path fill="white" d="M68 209L58 209L58 211L68 211L68 209Z"></path>
<path fill="white" d="M64 215L64 205L62 205L62 215L64 215Z"></path>
<path stroke="white" fill="#56C6F8" d="M165 201.5H165.5V201V200.5H188.5V201V201.5H189H189.5V218.5H189H188.5V219V219.5H165.5V219V218.5H165H164.5V201.5H165Z"></path>
<path stroke="white" fill="#56C6F8" d="M165 171.5H165.5V171V170.5H188.5V171V171.5H189H189.5V188.5H189H188.5V189V189.5H165.5V189V188.5H165H164.5V171.5H165Z"></path>
<path stroke="white" fill="#56C6F8" d="M165 121.5H165.5V121V120.5H188.5V121V121.5H189H189.5V138.5H189H188.5V139V139.5H165.5V139V138.5H165H164.5V121.5H165Z"></path>
<path stroke="white" fill="#56C6F8" d="M129 121.5H129.5V121V120.5H152.5V121V121.5H153H153.5V138.5H153H152.5V139V139.5H129.5V139V138.5H129H128.5V121.5H129Z"></path>
<path stroke-width="2" stroke="white" fill="#56C6F8" d="M282 227H281V113H282H283V112V111H437V112V113H438H439V227H438H437V228V229H283V228V227H282Z"></path>
<path stroke="white" fill="#56C6F8" d="M291 201.5H291.5V201V200.5H314.5V201V201.5H315H315.5V218.5H315H314.5V219V219.5H291.5V219V218.5H291H290.5V201.5H291Z"></path>
<path fill="white" d="M308 209L298 209L298 211L308 211L308 209Z"></path>
<path fill="white" d="M304 215L304 205L302 205L302 215L304 215Z"></path>
<path stroke="white" fill="#56C6F8" d="M405 201.5H405.5V201V200.5H428.5V201V201.5H429H429.5V218.5H429H428.5V219V219.5H405.5V219V218.5H405H404.5V201.5H405Z"></path>
<path stroke="white" fill="#56C6F8" d="M405 171.5H405.5V171V170.5H428.5V171V171.5H429H429.5V188.5H429H428.5V189V189.5H405.5V189V188.5H405H404.5V171.5H405Z"></path>
<path stroke="white" fill="#56C6F8" d="M405 121.5H405.5V121V120.5H428.5V121V121.5H429H429.5V138.5H429H428.5V139V139.5H405.5V139V138.5H405H404.5V121.5H405Z"></path>
<path stroke="white" fill="#56C6F8" d="M369 121.5H369.5V121V120.5H392.5V121V121.5H393H393.5V138.5H393H392.5V139V139.5H369.5V139V138.5H369H368.5V121.5H369Z"></path>
<path stroke-width="2" stroke="white" fill="#56C6F8" d="M302 207H301V133H302H303V132V131H417V132V133H418H419V207H418H417V208V209H303V208V207H302Z"></path>
<path fill="white" d="M357 167H358V166H362V167H363V168H361H359V172H361V168H363V173H362V174H358V173H357V167Z"></path>
<path fill="white" d="M322 167V166H323H328V168H326V172V174H324V172V168H322V167Z"></path>
<path fill="white" d="M343 167H344V166H349V168H345V169H347V171H345V172H349V174H344V173H343V167Z"></path>
<path fill="white" d="M385 174L383 174L383 173L382 173L382 172L381 172L381 173L380 173L380 174L378 174L378 166L380 166L380 170L381 170L381 169L382 169L382 170L383 170L383 166L385 166L385 174Z"></path>
<path fill="white" d="M386 167H387V166H391V167H392V174H390V168H388V169H390V171H388V172V174H387H386V173V167Z"></path>
<path fill="white" d="M329 167V166H330H331V169H333V166H335V170H334V171H333V174H331V171H330V170H329V167Z"></path>
<path fill="white" d="M393 167V166H394H395V169H397V166H399V170H398V171H397V174H395V171H394V170H393V167Z"></path>
<path fill="white" d="M336 166H341V167H342V170H341V171H338V169H340V168H338V169V171V174H336V166Z"></path>
<path fill="white" d="M364 167H365V166H370V168H366V169H368V171H366V172V174H365H364V173V167Z"></path>
<path fill="white" d="M96 240H98V241H99V242H100V240H102V248H100V245H99V244H98V248H96V240Z"></path>
<path fill="white" d="M187 240H189V241H190V242H191V240H193V248H191V245H190V244H189V248H187V240Z"></path>
<path fill="white" d="M89 241H90V240H94V241H95V242H93H91V246H93V242H95V247H94V248H90V247H89V241Z"></path>
<path fill="white" d="M180 241H181V240H185V241H186V242H184H182V246H184V242H186V247H185V248H181V247H180V241Z"></path>
<path fill="white" d="M47 241H48V240H53V242H49V243V245V246H53V248H48V247H47V241Z"></path>
<path fill="white" d="M68 241H69V240H74V242H70V243V245V246H74V248H69V247H68V241Z"></path>
<path fill="white" d="M110 241V240H111H116V242H114V246V248H112V246V242H110V241Z"></path>
<path fill="white" d="M165 241V240H164H163V242V246H161V240H159V247H160V248H164V247H165V242V241Z"></path>
<path fill="white" d="M124 241H125V240H130V242H126V243H128V245H126V246H130V248H125V247H124V241Z"></path>
<path fill="white" d="M61 241V240H62H67V242H65V246H67V248H61V246H63V242H61V241Z"></path>
<path fill="white" d="M122 240L123 240L123 241L123 248L121 248L121 245L119 245L119 248L117 248L117 240L119 240L119 243L121 243L121 240L122 240Z"></path>
<path fill="white" d="M166 241V240H167H172V242H170V246V248H168V246V242H166V241Z"></path>
<path fill="white" d="M138 244V243H140V241H142V243H144V245H142V247H140V245H138V244Z"></path>
<path fill="white" d="M173 241V240H174H179V242H177V246V248H175V246V242H173V241Z"></path>
<path fill="white" d="M54 241V240H55H56V242V246H60V248H55V247H54V242V241Z"></path>
<path fill="white" d="M152 240H157V241H158V243H157V245H158V247H157V248H154V246H156V245H155H154V243H156V242H154V243V245V248H152V240Z"></path>
<path fill="white" d="M81 240L81 242L80 242L80 243L79 243L79 245L80 245L80 246L81 246L81 248L79 248L79 247L78 247L78 246L77 246L77 248L75 248L75 240L77 240L77 242L78 242L78 241L79 241L79 240L81 240Z"></path>
<path fill="white" d="M364 261H365V260H369V261H370V262H368H366V266H368V262H370V267H369V268H365V267H364V261Z"></path>
<path fill="white" d="M329 261V260H330H335V262H333V266V268H331V266V262H329V261Z"></path>
<path fill="white" d="M350 261H351V260H356V262H352V263H354V265H352V266H356V268H351V267H350V261Z"></path>
<path fill="white" d="M392 268L390 268L390 267L389 267L389 266L388 266L388 267L387 267L387 268L385 268L385 260L387 260L387 264L388 264L388 263L389 263L389 264L390 264L390 260L392 260L392 268Z"></path>
<path fill="white" d="M393 261H394V260H398V261H399V268H397V262H395V263H397V265H395V266V268H394H393V267V261Z"></path>
<path fill="white" d="M336 261V260H337H338V263H340V260H342V264H341V265H340V268H338V265H337V264H336V261Z"></path>
<path fill="white" d="M400 261V260H401H402V263H404V260H406V264H405V265H404V268H402V265H401V264H400V261Z"></path>
<path fill="white" d="M343 260H348V261H349V264H348V265H345V263H347V262H345V263V265V268H343V260Z"></path>
<path fill="white" d="M371 261H372V260H377V262H373V263H375V265H373V266V268H372H371V267V261Z"></path>
<path fill="white" d="M337 240H339V241H340V242H341V240H343V248H341V245H340V244H339V248H337V240Z"></path>
<path fill="white" d="M365 241H366V240H370V241H371V242H369H367V246H369V242H371V247H370V248H366V247H365V241Z"></path>
<path fill="white" d="M379 241H380V240H385V242H381V243H384V244H385V247H384V248H379V246H383V245H380V244H379V241Z"></path>
<path fill="white" d="M372 241H373V240H377V241H378V242H376H374V246H376V242H378V247H377V248H373V247H372V241Z"></path>
<path fill="white" d="M351 241H352V240H357V242H353V243V245V246H357V248H352V247H351V241Z"></path>
<path fill="white" d="M316 241V240H317H322V242H320V246V248H318V246V242H316V241Z"></path>
<path fill="white" d="M400 241V240H401H406V242H404V246V248H402V246V242H400V241Z"></path>
<path fill="white" d="M330 241H331V240H336V242H332V243H334V245H332V246H336V248H331V247H330V241Z"></path>
<path fill="white" d="M414 241H415V240H420V242H416V243H418V245H416V246H420V248H415V247H414V241Z"></path>
<path fill="white" d="M386 241H387V240H392V242H388V243H390V245H388V246H392V248H387V247H386V241Z"></path>
<path fill="white" d="M328 240L329 240L329 241L329 248L327 248L327 245L325 245L325 248L323 248L323 240L325 240L325 243L327 243L327 240L328 240Z"></path>
<path fill="white" d="M412 240L413 240L413 241L413 248L411 248L411 245L409 245L409 248L407 248L407 240L409 240L409 243L411 243L411 240L412 240Z"></path>
<path fill="white" d="M363 240L364 240L364 241L364 248L362 248L362 245L360 245L360 248L358 248L358 240L360 240L360 243L362 243L362 240L363 240Z"></path>
</svg>
