<svg xmlns="http://www.w3.org/2000/svg" fill="none" viewBox="0 0 200 200" height="200" width="200">
<path fill="#721523" d="M95.5 95.4998L100.5 96.4998V100.5L95.5 99.4998V95.4998Z"></path>
<path fill="#410C18" d="M100.5 96.4998L102.5 92.4983V96.4998L100.5 100.5V96.4998Z"></path>
<path fill="#8787B7" d="M95.5 91.4983L100.5 92.4999V96.4998L95.5 95.4998V91.4983Z"></path>
<path fill="#4F507E" d="M100.5 92.4999L102.5 88.4984V92.4983L100.5 96.4998V92.4999Z"></path>
<path fill="#204F31" d="M95.5 87.4983L100.5 88.4983V92.4999L95.5 91.4983V87.4983Z"></path>
<path fill="#122E22" d="M100.5 88.4983L102.5 84.4984V88.4984L100.5 92.4999V88.4983Z"></path>
<path fill="#8787B7" d="M95.5 83.5005L100.5 84.4977V88.4983L95.5 87.4983V83.5005Z"></path>
<path fill="#4F507E" d="M100.5 84.4977L102.5 80.4978V84.4984L100.5 88.4983V84.4977Z"></path>
<path fill="#721523" d="M95.5 79.5005L100.5 80.4988V84.4977L95.5 83.5005V79.5005Z"></path>
<path fill="#410C18" d="M100.5 80.4988L102.5 76.4972V80.4978L100.5 84.4977V80.4988Z"></path>
<path fill="#8787B7" d="M95.5 75.4972L100.5 76.4988V80.4988L95.5 79.5005V75.4972Z"></path>
<path fill="#4F507E" d="M100.5 76.4988L102.5 72.4973V76.4972L100.5 80.4988V76.4988Z"></path>
<path fill="#204F31" d="M95.5 71.4972L100.5 72.4972V76.4988L95.5 75.4972V71.4972Z"></path>
<path fill="#122E22" d="M100.5 72.4972L102.5 68.4973V72.4973L100.5 76.4988V72.4972Z"></path>
<path fill="#8787B7" d="M95.5 67.4991L100.5 68.4994V72.4972L95.5 71.4972V67.4991Z"></path>
<path fill="#4F507E" d="M100.5 68.4994L102.5 64.4995V68.4973L100.5 72.4972V68.4994Z"></path>
<path fill="#F7F3FF" d="M95.5 67.4991L97.5 63.4999L102.5 64.4995L100.5 68.4994L95.5 67.4991Z"></path>
<path fill="#410C18" d="M102.5 64.4964L104.5 60.4965V64.4942L102.5 68.4941V64.4964Z"></path>
<path fill="#CD2738" d="M97.5 63.4963L99.5 59.4969L104.5 60.4965L102.5 64.4964L97.5 63.4963Z"></path>
<path fill="#4F507E" d="M104.5 60.4965L106.5 56.4966V60.4944L104.5 64.4942V60.4965Z"></path>
<path fill="#F7F3FF" d="M99.5 59.4969L101.5 55.497L106.5 56.4966L104.5 60.4965L99.5 59.4969Z"></path>
<path fill="#122E22" d="M106.5 56.4966L108.5 52.4962V56.4939L106.5 60.4944V56.4966Z"></path>
<path fill="#3A8D4E" d="M101.5 55.497L103.5 51.4966L108.5 52.4962L106.5 56.4966L101.5 55.497Z"></path>
<path fill="#4F507E" d="M106.5 60.4944L108.5 56.4939V60.492L106.5 64.4919V60.4944Z"></path>
<path fill="#410C18" d="M106.5 64.4919L108.5 60.492V64.4898L106.5 68.4897V64.4919Z"></path>
<path fill="#721523" d="M104.683 64.1285L106.5 64.4919V68.4897L102.866 67.7651L104.683 64.1285Z"></path>
<path fill="#8787B7" d="M95.5 67.4991L100.5 68.4994V72.4972L95.5 71.4972V67.4991Z"></path>
<path fill="#8787B7" d="M106.5 60.4944H106.498V64.4944L104.683 64.1285L106.5 60.4944Z"></path>
</svg>
