<svg xmlns="http://www.w3.org/2000/svg" fill="none" viewBox="0 0 200 200" height="200" width="200">
<path fill="black" d="M86 94.4L109 99L106 98.4V106L86 102V94.4Z"></path>
<path fill="black" d="M109 99L114 89V90L106 106V98.4L109 99Z"></path>
<path fill="black" d="M79 65L109 71V99L79 93V65Z"></path>
<path fill="black" d="M109 71L121 46.9999V74.9999L109 99V71Z"></path>
<path fill="black" d="M91.0001 41L121 46.9999L109 71L79 65L91.0001 41Z"></path>
<path fill="#CC0000" d="M79 89L79.0001 69.0001L81.5 67.5V91.5001L106.5 96.5V72.5L109 75.0001L109 95L109 99L79 93L79 89Z"></path>
<path fill="#CC0000" d="M79 65L109 71L109 75.0001L106.5 72.5L81.5 67.5L79.0001 69.0001L79 65Z"></path>
<path fill="#800000" d="M121 70.9999L121 51L120 51V75L110 95V71L109 75.0001L109 95L109 99L121 74.9999L121 70.9999Z"></path>
<path fill="#800000" d="M121 46.9999L109 71L109 75.0001L110 71L120 51L121 51L121 46.9999Z"></path>
<path fill="#FF0000" d="M91.0001 41L121 46.9999L109 71L107.5 68.5L117.5 48.5L92.5 43.5L82.5 63.5L107.5 68.5L109 71L79 65L91.0001 41Z"></path>
<path fill="#800000" d="M107 104V98.6L106 98.4V106L107 104Z"></path>
<path fill="#CD0000" d="M106 106V98.4L103.5 97.9V105.5L106 106Z"></path>
<path fill="#CD0000" d="M88.5001 102.5V94.9L86 94.4V102L88.5001 102.5Z"></path>
<path fill="#800000" d="M114 90V89L113 91V92L114 90Z"></path>
</svg>
