<svg xmlns="http://www.w3.org/2000/svg" fill="none" viewBox="0 0 200 200" height="200" width="200">
<path fill="#893217" d="M79 81L109 87V111L79 105V81Z"></path>
<path fill="#672600" d="M109 87L121 63V87L109 111V87Z"></path>
<path fill="#994312" d="M91 57L121 63L109 87L79 81L91 57Z"></path>
<path fill="#281205" d="M81.5 83.5L84 84V86L81.5 85.5V83.5Z"></path>
<path fill="#281205" d="M81.5 101.5L84 102V104L81.5 103.5V101.5Z"></path>
<path fill="#281205" d="M104 88L106.5 88.5V90.5L104 90V88Z"></path>
<path fill="#281205" d="M104 106L106.5 106.5V108.5L104 108V106Z"></path>
<path fill="#170A03" d="M110 87L111 85V87L110 89V87Z"></path>
<path fill="#170A03" d="M110 105L111 103V105L110 107V105Z"></path>
<path fill="#170A03" d="M119 69L120 66.9999V68.9999L119 71V69Z"></path>
<path fill="#170A03" d="M119 87L120 84.9999V86.9999L119 89V87Z"></path>
<path fill="#441F09" d="M92.5 59.5L95 60L94 62L91.5 61.5L92.5 59.5Z"></path>
<path fill="#441F09" d="M115 64L117.5 64.5L116.5 66.5L114 66L115 64Z"></path>
<path fill="#441F09" d="M83.5 77.5L86 78L85 80L82.5 79.5L83.5 77.5Z"></path>
<path fill="#441F09" d="M106 82L108.5 82.5L107.5 84.5L105 84L106 82Z"></path>
</svg>
