<svg xmlns="http://www.w3.org/2000/svg" fill="none" viewBox="0 0 200 200" height="200" width="200">
<path fill="#2C2E47" d="M109 103.002L111 99.0002V95.0002L119 79.002V91.0018L109 111.002V103.002Z"></path>
<path fill="#4A4F65" d="M79 97.0017L109 103.002V111.002L79 105.002V97.0017Z"></path>
<path fill="#878DA3" d="M89 73.0003L119 79.002L111 95.0002V99.0002L109 103.002L79 97.0017L89 73.0003Z"></path>
<path fill="#4A4F65" d="M106 94.0002L111 95.0002V99.0002L106 98.0002V94.0002Z"></path>
<path fill="#955726" d="M101 73.0002L106 74.0003V94.0002V98.0002L101 97.0002V73.0002Z"></path>
<path fill="#955726" d="M79 81.0018L84 82.0003V70.0003L99 73.0018V101.002L79 97.0017V81.0018Z"></path>
<path fill="#955726" d="M91 63.0001L101 65.0001V69.0001L91 67.0001V63.0001Z"></path>
<path fill="#563119" d="M106 74.0003L112 62.0001V82.0001L106 94.0002V74.0003Z"></path>
<path fill="#563119" d="M99 73.0018L101 69.0001V65.0001L105 56.9999V65.0001L101 73.0002V97.0002L99 101.002V73.0018Z"></path>
<path fill="#FF9B3D" d="M90 57.9999L93.1819 58.6363L91 63.0001V67.0001L101 69.0001L99 73.0018L84 70.0003L90 57.9999Z"></path>
<path fill="#FF9B3D" d="M95 55L105 56.9999L101 65.0001L91 63.0001L95 55Z"></path>
<path fill="#FF9B3D" d="M105 65.0001V60.6L112 62.0001L106 74.0003L101 73.0002L105 65.0001Z"></path>
<path fill="#FF9B3D" d="M83.9998 71L84 82.0003L79 81.0018L83.9998 71Z"></path>
<path fill="#927040" d="M84 78.0003L99 81.0018V85.0018L84 82.0003V78.0003Z"></path>
<path fill="#927040" d="M79 89.0018L99 93.0002V97.0002L79 93.0018V89.0018Z"></path>
<path fill="#927040" d="M101 77.0018L106 78.0022V82.0022L101 81.0018V77.0018Z"></path>
<path fill="#927040" d="M101 88.9998L106 90.0002V94.0002L101 92.9998V88.9998Z"></path>
<path fill="#56422A" d="M99 81.0018L101 77.0018V81.0018L99 85.0018V81.0018Z"></path>
<path fill="#56422A" d="M99 93.0002L101 88.9998V92.9998L99 97.0002V93.0002Z"></path>
<path fill="#56422A" d="M106 90.0002L112 78.0001V82.0001L106 94.0002V90.0002Z"></path>
<path fill="#56422A" d="M106 78.0022L112 66.0021V70.0021L106 82.0022V78.0022Z"></path>
</svg>
