<svg xmlns="http://www.w3.org/2000/svg" fill="none" viewBox="0 0 400 300" height="300" width="400">
<path fill="#7879A7" d="M24.9999 117L62.5001 124.5V130.5L24.9999 123V117Z"></path>
<path fill="#D9D7FF" d="M61.0001 122L74.0001 96.0003V93.8002L77.5001 94.5003L62.5001 124.5L24.9999 117L28.5 110V115.5L61.0001 122Z"></path>
<path fill="#454674" d="M62.5001 124.5L77.5001 94.5003V100.5L62.5001 130.5V124.5Z"></path>
<path fill="#615A83" d="M28.5 97.5003L61.0001 104V122L28.5 115.5V97.5003Z"></path>
<path fill="#37355C" d="M61.0001 104L74.0001 78.0005V96.0003L61.0001 122V104Z"></path>
<path fill="#7879A7" d="M24.9999 92.9998L62.5001 100.5V106.5L24.9999 98.9998V92.9998Z"></path>
<path fill="#D9D7FF" d="M40 63L77.5001 70.5001L62.5001 100.5L24.9999 92.9998L28.5 86.0002L40 63Z"></path>
<path fill="#454674" d="M62.5001 100.5L77.5001 70.5001V76.5001L62.5001 106.5V100.5Z"></path>
<path fill="#534D71" d="M31 104L38.5 105.5V111.5L31 110V104Z"></path>
<path fill="#534D71" d="M51 114L56 115V119L51 118V114Z"></path>
<path fill="#534D71" d="M46 103.2L51 104.2V108L46 107V103.2Z"></path>
<path fill="#302C4D" d="M63.0001 106L65.0001 102V106L63.0001 110V106Z"></path>
<path fill="#302C4D" d="M66.0001 106L68.0001 102V106L66.0001 110V106Z"></path>
<path fill="#302C4D" d="M69.0001 93.5L72.0001 87.5V92.0003L69.0001 98.0003V93.5Z"></path>
<path fill="#615A83" d="M27.5 119.5L30 120V122L27.5 121.5V119.5Z"></path>
<path fill="#615A83" d="M35 121L37.5 121.5V123.5L35 123V121Z"></path>
<path fill="#615A83" d="M42.5 122.5L45 123V125L42.5 124.5V122.5Z"></path>
<path fill="#615A83" d="M50 124L52.5 124.5V126.5L50 126V124Z"></path>
<path fill="#615A83" d="M57.5 125.5L60.0001 126V128L57.5 127.5V125.5Z"></path>
<path fill="#615A83" d="M27.5 95.5001L30 96.0001V98.0001L27.5 97.5001V95.5001Z"></path>
<path fill="#615A83" d="M35 97.0001L37.5 97.5001V99.5001L35 99.0001V97.0001Z"></path>
<path fill="#615A83" d="M42.5 98.5001L45 99.0001V101L42.5 100.5V98.5001Z"></path>
<path fill="#615A83" d="M50 100L52.5 100.5V102.5L50 102V100Z"></path>
<path fill="#615A83" d="M57.5 101.5L60.0001 102V104L57.5 103.5V101.5Z"></path>
<path fill="#36355D" d="M63.5001 124.5L64.5001 122.5V124.5L63.5001 126.5V124.5Z"></path>
<path fill="#36355D" d="M66.5001 118.5L67.5001 116.5V118.5L66.5001 120.5V118.5Z"></path>
<path fill="#36355D" d="M69.5001 112.5L70.5001 110.5V112.5L69.5001 114.5V112.5Z"></path>
<path fill="#36355D" d="M72.5001 106.5L73.5001 104.5V106.5L72.5001 108.5V106.5Z"></path>
<path fill="#36355D" d="M75.5001 100.5L76.5001 98.5001V100.5L75.5001 102.5V100.5Z"></path>
<path fill="#36355D" d="M63.5001 100.5L64.5001 98.5003V100.5L63.5001 102.5V100.5Z"></path>
<path fill="#36355D" d="M66.5001 94.5003L67.5001 92.5003V94.5003L66.5001 96.5003V94.5003Z"></path>
<path fill="#36355D" d="M69.5001 88.5004L70.5001 86.5005V88.5004L69.5001 90.5004V88.5004Z"></path>
<path fill="#36355D" d="M72.5001 82.5004L73.5001 80.5004V82.5004L72.5001 84.5004V82.5004Z"></path>
<path fill="#36355D" d="M75.5001 76.5004L76.5001 74.5004V76.5004L75.5001 78.5004V76.5004Z"></path>
<path fill="#7879A7" d="M75 103L82.5 104.5V134.5L75 133V103Z"></path>
<path fill="#D9D7FF" d="M90 73L97.5 74.5L82.5 104.5L75 103L90 73Z"></path>
<path fill="#454674" d="M82.5 104.5L97.5 74.5V78.7L96.5 78.5L83.5 104.5V130.5L84.4091 130.682L82.5 134.5V104.5Z"></path>
<path fill="#AFA3D3" d="M96.5 78.5L121.5 83.5L108.5 109.5L83.5 104.5L96.5 78.5Z"></path>
<path fill="#615A83" d="M83.5 104.5L108.5 109.5L108.5 135.5L83.5 130.5V104.5Z"></path>
<path fill="#7879A7" d="M107.5 109.5L115 111V141L107.5 139.5V109.5Z"></path>
<path fill="#D9D7FF" d="M122.5 79.5001L130 81.0001L115 111L107.5 109.5L122.5 79.5001Z"></path>
<path fill="#454674" d="M115 111L130 81.0001V111L115 141V111Z"></path>
<path fill="#534D71" d="M86 113L91 114V118L86 117V113Z"></path>
<path fill="#534D71" d="M98.5 111.5L103.5 112.5V116.5L98.5 115.5V111.5Z"></path>
<path fill="#534D71" d="M91 122L98.5 123.5V129.5L91 128V122Z"></path>
<path fill="#9889B4" d="M95 98L100 99L98 103L93 102L95 98Z"></path>
<path fill="#9889B4" d="M105.5 93.5L110.5 94.5L108.5 98.5L103.5 97.5L105.5 93.5Z"></path>
<path fill="#9889B4" d="M99.5 83.5L107 85L104 91L96.5 89.5L99.5 83.5Z"></path>
<path fill="#615A83" d="M77.5 105.5L80 106V108L77.5 107.5V105.5Z"></path>
<path fill="#615A83" d="M77.5 111.5L80 112V114L77.5 113.5V111.5Z"></path>
<path fill="#615A83" d="M77.5 117.5L80 118V120L77.5 119.5V117.5Z"></path>
<path fill="#615A83" d="M77.5 123.5L80 124V126L77.5 125.5V123.5Z"></path>
<path fill="#615A83" d="M77.5 129.5L80 130V132L77.5 131.5V129.5Z"></path>
<path fill="#615A83" d="M110 112L112.5 112.5V114.5L110 114V112Z"></path>
<path fill="#615A83" d="M110 118L112.5 118.5V120.5L110 120V118Z"></path>
<path fill="#615A83" d="M110 124L112.5 124.5V126.5L110 126V124Z"></path>
<path fill="#615A83" d="M110 130L112.5 130.5V132.5L110 132V130Z"></path>
<path fill="#615A83" d="M110 136L112.5 136.5V138.5L110 138V136Z"></path>
<path fill="#AEA3D3" d="M79.5 99.5L82 100L81 102L78.5 101.5L79.5 99.5Z"></path>
<path fill="#AEA3D3" d="M82.5 93.5L85 94L84 96L81.5 95.5L82.5 93.5Z"></path>
<path fill="#AEA3D3" d="M85.5 87.5L88 88L87 90L84.5 89.5L85.5 87.5Z"></path>
<path fill="#AEA3D3" d="M88.5 81.5L91 82L90 84L87.5 83.5L88.5 81.5Z"></path>
<path fill="#AEA3D3" d="M91.5 75.5L94 76L93 78L90.5 77.5L91.5 75.5Z"></path>
<path fill="#AEA3D3" d="M112 106L114.5 106.5L113.5 108.5L111 108L112 106Z"></path>
<path fill="#AEA3D3" d="M115 100L117.5 100.5L116.5 102.5L114 102L115 100Z"></path>
<path fill="#AEA3D3" d="M118 94L120.5 94.5L119.5 96.5L117 96L118 94Z"></path>
<path fill="#AEA3D3" d="M121 88L123.5 88.5L122.5 90.5L120 90L121 88Z"></path>
<path fill="#AEA3D3" d="M124 82L126.5 82.5L125.5 84.5L123 84L124 82Z"></path>
<path fill="#7879A7" d="M125 137L162.5 144.5V150.5L125 143V137Z"></path>
<path fill="#D9D7FF" d="M161 142L174 116V113.8L177.5 114.5L162.5 144.5L125 137L128.5 130V135.5L161 142Z"></path>
<path fill="#454674" d="M162.5 144.5L177.5 114.5V120.5L162.5 150.5V144.5Z"></path>
<path fill="#615A83" d="M128.5 117.5L161 124V142L128.5 135.5V117.5Z"></path>
<path fill="#37355C" d="M161 124L174 98.0005V116L161 142V124Z"></path>
<path fill="#7879A7" d="M125 113L162.5 120.5V126.5L125 119V113Z"></path>
<path fill="#D9D7FF" d="M140 83L177.5 90.5001L162.5 120.5L125 113L128.5 106L140 83Z"></path>
<path fill="#454674" d="M162.5 120.5L177.5 90.5001V96.5001L162.5 126.5V120.5Z"></path>
<path fill="#534D71" d="M131 124L138.5 125.5V131.5L131 130V124Z"></path>
<path fill="#534D71" d="M151 134L156 135V139L151 138V134Z"></path>
<path fill="#534D71" d="M146 123.2L151 124.2V128L146 127V123.2Z"></path>
<path fill="#302C4D" d="M163 126L165 122V126L163 130V126Z"></path>
<path fill="#302C4D" d="M166 126L168 122V126L166 130V126Z"></path>
<path fill="#302C4D" d="M169 113.5L172 107.5V112L169 118V113.5Z"></path>
<path fill="#615A83" d="M127.5 139.5L130 140V142L127.5 141.5V139.5Z"></path>
<path fill="#615A83" d="M135 141L137.5 141.5V143.5L135 143V141Z"></path>
<path fill="#615A83" d="M142.5 142.5L145 143V145L142.5 144.5V142.5Z"></path>
<path fill="#615A83" d="M150 144L152.5 144.5V146.5L150 146V144Z"></path>
<path fill="#615A83" d="M157.5 145.5L160 146V148L157.5 147.5V145.5Z"></path>
<path fill="#615A83" d="M127.5 115.5L130 116V118L127.5 117.5V115.5Z"></path>
<path fill="#615A83" d="M135 117L137.5 117.5V119.5L135 119V117Z"></path>
<path fill="#615A83" d="M142.5 118.5L145 119V121L142.5 120.5V118.5Z"></path>
<path fill="#615A83" d="M150 120L152.5 120.5V122.5L150 122V120Z"></path>
<path fill="#615A83" d="M157.5 121.5L160 122V124L157.5 123.5V121.5Z"></path>
<path fill="#36355D" d="M163.5 144.5L164.5 142.5V144.5L163.5 146.5V144.5Z"></path>
<path fill="#36355D" d="M166.5 138.5L167.5 136.5V138.5L166.5 140.5V138.5Z"></path>
<path fill="#36355D" d="M169.5 132.5L170.5 130.5V132.5L169.5 134.5V132.5Z"></path>
<path fill="#36355D" d="M172.5 126.5L173.5 124.5V126.5L172.5 128.5V126.5Z"></path>
<path fill="#36355D" d="M175.5 120.5L176.5 118.5V120.5L175.5 122.5V120.5Z"></path>
<path fill="#36355D" d="M163.5 120.5L164.5 118.5V120.5L163.5 122.5V120.5Z"></path>
<path fill="#36355D" d="M166.5 114.5L167.5 112.5V114.5L166.5 116.5V114.5Z"></path>
<path fill="#36355D" d="M169.5 108.5L170.5 106.5V108.5L169.5 110.5V108.5Z"></path>
<path fill="#36355D" d="M172.5 102.5L173.5 100.5V102.5L172.5 104.5V102.5Z"></path>
<path fill="#36355D" d="M175.5 96.5004L176.5 94.5004V96.5004L175.5 98.5004V96.5004Z"></path>
<path fill="#7879A7" d="M175 123L182.5 124.5V154.5L175 153V123Z"></path>
<path fill="#D9D7FF" d="M190 93L197.5 94.5L182.5 124.5L175 123L190 93Z"></path>
<path fill="#454674" d="M182.5 124.5L197.5 94.5V98.7L196.5 98.5L183.5 124.5V150.5L184.409 150.682L182.5 154.5V124.5Z"></path>
<path fill="#AFA3D3" d="M196.5 98.5L221.5 103.5L208.5 129.5L183.5 124.5L196.5 98.5Z"></path>
<path fill="#615A83" d="M183.5 124.5L208.5 129.5L208.5 155.5L183.5 150.5V124.5Z"></path>
<path fill="#7879A7" d="M207.5 129.5L215 131V161L207.5 159.5V129.5Z"></path>
<path fill="#D9D7FF" d="M222.5 99.5001L230 101L215 131L207.5 129.5L222.5 99.5001Z"></path>
<path fill="#454674" d="M215 131L230 101V131L215 161V131Z"></path>
<path fill="#534D71" d="M186 133L191 134V138L186 137V133Z"></path>
<path fill="#534D71" d="M198.5 131.5L203.5 132.5V136.5L198.5 135.5V131.5Z"></path>
<path fill="#534D71" d="M191 142L198.5 143.5V149.5L191 148V142Z"></path>
<path fill="#9889B4" d="M195 118L200 119L198 123L193 122L195 118Z"></path>
<path fill="#9889B4" d="M205.5 113.5L210.5 114.5L208.5 118.5L203.5 117.5L205.5 113.5Z"></path>
<path fill="#9889B4" d="M199.5 103.5L207 105L204 111L196.5 109.5L199.5 103.5Z"></path>
<path fill="#615A83" d="M177.5 125.5L180 126V128L177.5 127.5V125.5Z"></path>
<path fill="#615A83" d="M177.5 131.5L180 132V134L177.5 133.5V131.5Z"></path>
<path fill="#615A83" d="M177.5 137.5L180 138V140L177.5 139.5V137.5Z"></path>
<path fill="#615A83" d="M177.5 143.5L180 144V146L177.5 145.5V143.5Z"></path>
<path fill="#615A83" d="M177.5 149.5L180 150V152L177.5 151.5V149.5Z"></path>
<path fill="#615A83" d="M210 132L212.5 132.5V134.5L210 134V132Z"></path>
<path fill="#615A83" d="M210 138L212.5 138.5V140.5L210 140V138Z"></path>
<path fill="#615A83" d="M210 144L212.5 144.5V146.5L210 146V144Z"></path>
<path fill="#615A83" d="M210 150L212.5 150.5V152.5L210 152V150Z"></path>
<path fill="#615A83" d="M210 156L212.5 156.5V158.5L210 158V156Z"></path>
<path fill="#AEA3D3" d="M179.5 119.5L182 120L181 122L178.5 121.5L179.5 119.5Z"></path>
<path fill="#AEA3D3" d="M182.5 113.5L185 114L184 116L181.5 115.5L182.5 113.5Z"></path>
<path fill="#AEA3D3" d="M185.5 107.5L188 108L187 110L184.5 109.5L185.5 107.5Z"></path>
<path fill="#AEA3D3" d="M188.5 101.5L191 102L190 104L187.5 103.5L188.5 101.5Z"></path>
<path fill="#AEA3D3" d="M191.5 95.5L194 96L193 98L190.5 97.5L191.5 95.5Z"></path>
<path fill="#AEA3D3" d="M212 126L214.5 126.5L213.5 128.5L211 128L212 126Z"></path>
<path fill="#AEA3D3" d="M215 120L217.5 120.5L216.5 122.5L214 122L215 120Z"></path>
<path fill="#AEA3D3" d="M218 114L220.5 114.5L219.5 116.5L217 116L218 114Z"></path>
<path fill="#AEA3D3" d="M221 108L223.5 108.5L222.5 110.5L220 110L221 108Z"></path>
<path fill="#AEA3D3" d="M224 102L226.5 102.5L225.5 104.5L223 104L224 102Z"></path>
</svg>
