<svg xmlns="http://www.w3.org/2000/svg" fill="none" viewBox="0 0 200 200" height="200" width="200">
<path fill="#673F62" d="M85 72L115 78L135 82V110L115 106L85 100L75 98V94L80 95V83L85 84V72Z"></path>
<path fill="#42245A" d="M85 84V100L75 98V94L80 95V83L85 84Z"></path>
<path fill="#462E65" d="M135 82V110L115 106V78L135 82Z"></path>
<path fill="#8B60BA" d="M145 62L135 82L115 78L125 58L145 62Z"></path>
<path fill="#D989BC" d="M125 58L115 78L85 72L95 52L125 58Z"></path>
<path fill="#934FB2" d="M85 73V84L80 83L85 73Z"></path>
<path fill="#934FB2" d="M80 84V95L75 94L80 84Z"></path>
<path fill="#3F2552" d="M145 90L135 110V82L145 62V90Z"></path>
<path fill="#D989BC" d="M100 83L98 87L88 85L90 81L100 83Z"></path>
<path fill="#673F62" d="M98 87V99.0001L88 97.0001V85L98 87Z"></path>
<path fill="#552E49" d="M100 83V95.0001L98 99.0001V87L100 83Z"></path>
<path fill="#7787D5" d="M98 91V95L88 93V89L98 91Z"></path>
<path fill="#666398" d="M100 87V91L98 95V91L100 87Z"></path>
<path fill="#FBCFFF" d="M110 97.0001L106 105L96 103L98 99.0001L100 95.0001L110 97.0001Z"></path>
<path fill="#79619B" d="M106 105V109L96 107V103L106 105Z"></path>
<path fill="#6F5280" d="M110 97.0001V101L106 109V105L110 97.0001Z"></path>
<path fill="#FBCFFF" d="M146 63L144 67L104 59L106 55L146 63Z"></path>
<path fill="#79619B" d="M144 67V83L139 81.9997V74L104 67V59L144 67Z"></path>
<path fill="#6F5280" d="M146 63V79L144 83V67L146 63Z"></path>
<path fill="#462E65" d="M142 87V107L137 106V86L142 87Z"></path>
<path fill="#8B60BA" d="M148 75L142 87L137 86L139 81.9997L144 83L146 79V74.6L148 75Z"></path>
<path fill="#3F2552" d="M148 95L142 107V87L148 75V95Z"></path>
<path fill="#462E65" d="M147 92V104L142 103V91L147 92Z"></path>
<path fill="#8B60BA" d="M153 80L147 92L142 91L148 79L153 80Z"></path>
<path fill="#3F2552" d="M153 92L147 104V92L153 80V92Z"></path>
<path fill="#79619B" d="M169 88V108L149 104V84L169 88Z"></path>
<path fill="#FBCFFF" d="M171 84L169 88L149 84L151 80L171 84Z"></path>
<path fill="#6F5280" d="M171 104L169 108V88L171 84V104Z"></path>
</svg>
