<svg xmlns="http://www.w3.org/2000/svg" fill="none" viewBox="0 0 200 200" height="200" width="200">
<path fill="#CC1515" d="M87.8339 100.666L102.834 103.666L102.833 105L102.834 106.333L87.8342 103.333L87.8337 102L87.8339 100.666Z"></path>
<path fill="#7F0D0D" d="M102.834 103.666L103.501 102.333V102L104.833 99.3335L104.833 99.0005L108.834 91.0003L108.834 95.3331L102.834 106.333L102.833 105L102.834 103.666Z"></path>
<path fill="#FF1B1B" d="M93.8338 88L108.834 91.0003L104.833 99.0005L104.833 99.3335L103.501 102V102.333L102.834 103.666L87.8339 100.666L88.501 99.3335V99.0001L89.8343 96.3335V96.0002L93.8338 88Z"></path>
<path fill="#501D16" d="M87.8337 102L102.833 105L102.834 106.333L87.8342 103.333L87.8337 102Z"></path>
<path fill="#AA6F5A" d="M102.833 105L103.501 101.333V101L104.833 98.333L104.833 99.0005L108.834 91.0003L108.834 95.3331L102.834 106.333L102.833 105Z"></path>
<path fill="#AA6F5A" d="M109.5 100.333V101L109.334 101.333L108.167 103.666L108.167 103L109.5 100.333Z"></path>
<path fill="#FFB88C" d="M108.167 103L108.167 103.666L105 103H104.833V102.333L108.167 103Z"></path>
<path fill="#FFD9B1" d="M109.5 100.333L108.167 103L104.833 102.333L106.167 99.6668L109.5 100.333Z"></path>
<path fill="#CC1515" d="M89.001 103.566L87.8342 103.333L102.834 106.333L103.561 105.879L104.166 106V107L97.4997 105.666L95.8338 105.333L89.1668 104V101.833L89.1675 103.667L89.1668 103.599L89.001 103.566Z"></path>
<path fill="#7F0D0D" d="M104.166 106L104.833 104.667V105.334L105.668 105.499V104.499L105.667 104.333L104.166 107.333L104.166 107V106Z"></path>
<path fill="#FF1B1B" d="M108.167 103.666L104.833 104.667L104.166 106L103.561 105.879L102.834 106.333L105 103L108.167 103.666Z"></path>
<path fill="#1E56D4" d="M104.166 106.667V107L97.4997 105.666L95.8338 105.333L89.1668 104V101.833L89.1675 103.667L104.166 106.667Z"></path>
<path fill="#12349E" d="M104.833 105.334L105.668 105.499V104.499L105.667 104.333L104.166 107.333L104.166 107V106.667L104.833 105.334Z"></path>
<path fill="#1E56D4" d="M97.4997 105.666L104.166 107L104.166 107.333L97.4995 106L97.4997 105.666Z"></path>
<path fill="#1E56D4" d="M89.1668 104L95.8338 105.333L95.8336 105.666L89.1666 104.333L89.1668 104Z"></path>
<path fill="#12349E" d="M95.8338 105.333L97.4997 105.666L95.9854 105.364L95.8336 105.666L95.8338 105.333Z"></path>
<path fill="#502D2C" d="M105.667 104.333L105.668 104.33V104.499L105.894 104.545L104.166 108V107.333L105.667 104.333Z"></path>
<path fill="#874633" d="M104.166 107.333V108L97.4995 106.666V106L104.166 107.333Z"></path>
<path fill="#502D2C" d="M95.9854 105.364L96.2883 105.424L95.8338 106.333L95.8336 105.666L95.9854 105.364Z"></path>
<path fill="#874633" d="M95.8336 105.666L95.8338 106.333L89.1668 105L89.1666 104.333L95.8336 105.666Z"></path>
<path fill="#7F0D0D" d="M112.667 101.833V102.5L110.667 106.5V105.833L112.667 101.833Z"></path>
<path fill="#CC1515" d="M110.667 105.833V106.5L105.668 105.499L104.833 105.334V104.667L110.667 105.833Z"></path>
<path fill="#FF1B1B" d="M112.667 101.833L110.667 105.833L104.833 104.667L108.167 103.666L109.334 101.333L112.667 101.833Z"></path>
<path fill="#7F7F7F" d="M112.667 102.5V102.833L110.667 106.833V106.5L112.667 102.5Z"></path>
<path fill="#CBCBCB" d="M110.667 106.5V106.833L105.667 105.833L105.668 104.499V105.499L110.667 106.5Z"></path>
<path fill="#7F0D0D" d="M89.001 103.566L89.1668 103.599L89.1675 103.667L89.1668 101.833L89.001 102.166V103.566Z"></path>
<path fill="#CC1515" d="M88.5845 98.8331L88.501 99.0001V99.3335L87.8339 100.666L87.8342 101.267L87.8337 102L87.8342 103.333L89.001 103.566V102.166L84 101.167V100.5L86.0011 96.4998L86.3794 96.5755L85.8338 97.6668V98.3331L88.5845 98.8331Z"></path>
<path fill="#7F7F7F" d="M89.1668 101.833V102.166L89.001 102.5V102.166L89.1668 101.833Z"></path>
<path fill="#CBCBCB" d="M89.001 102.166V102.5L84 101.5V101.167L89.001 102.166Z"></path>
<path fill="#FFB88C" d="M89.8343 96.3335L88.5845 98.8331L85.8338 98.3331V97.6668L88.8761 98.25L89.8343 96.3335Z"></path>
<path fill="#FFD9B1" d="M87.2104 94.9134L90.0843 95.4999L89.8343 96.0002V96.3335L88.8761 98.25L85.8338 97.6668L87.2104 94.9134Z"></path>
<path fill="#FF1B1B" d="M86.0011 96.4998L86.3794 96.5755L85.8338 97.6668V98.3331L88.5845 98.8331L88.501 99.0001V99.3335L87.8339 100.666L87.8342 101.267L84 100.5L86.0011 96.4998Z"></path>
<path fill="#CC1515" d="M89.8343 96.0002L104.834 99.0002L104.833 99.3335L89.8343 96.3335V96.0002Z"></path>
<path fill="#CC1515" d="M88.5017 99.0001L103.501 102V102.333L88.5017 99.3335V99.0001Z"></path>
<path fill="#32120E" d="M102.833 105L103.501 101.333V101L104.833 98.333L104.833 99.0005L106.833 95.0002V98.333L106.167 99.6668L104.833 102.333L104.834 103.333L102.834 107.333L102.833 105Z"></path>
</svg>
