<svg version="1.1" xmlns="http://www.w3.org/2000/svg" xmlns:xlink="http://www.w3.org/1999/xlink" width="13" height="13" viewBox="0,0,13,13"><g transform="translate(-240,-174)"><g data-paper-data="{&quot;isPaintingLayer&quot;:true}" fill="#f7e84d" fill-rule="nonzero" stroke="#000000" stroke-width="1" stroke-linecap="butt" stroke-linejoin="miter" stroke-miterlimit="10" stroke-dasharray="" stroke-dashoffset="0" style="mix-blend-mode: normal"><path d="M246.00002,186.5h-0.00004l-4,-0.0002h-0.49998v-0.5v-0.5h-0.5h-0.5v-0.5v-2.99999v-0.50009l0.50009,0.00009l0.49991,0.0001v-0.99991h-0.5h-0.5v-0.5v-3v-0.5h0.5h0.5v-1.5v-0.5h0.5h9h0.5v0.5v0.5h0.5h0.5v0.5v2v2v0.5h-0.5h-0.5v0.99991l0.4999,-0.0001l0.5001,-0.00009v0.50009v2.99999v0.5h-0.5h-0.5v0.5v0.5h-0.5zM247.5,178.49986l-1,-0.00003v1.00003l1,0.00009zM246.5,182.49981v1.00019l1,-0.0001v-1.00009z"/><path d="M245.00002,185.5h-0.00005l-3,-0.0002h-0.49997v-0.5v-0.5h-0.5h-0.5v-0.5v-2.99999v-0.50009l0.50009,0.00009l0.49991,0.0001v-0.99991h-0.5h-0.5v-0.5v-3v-0.5h0.5h0.5v-0.5v-0.5h0.5h8h0.5v0.5v0.5h0.5h0.5v0.5v1v2v0.5h-0.5h-0.5v0.99991l0.4999,-0.0001l0.5001,-0.00009v0.50009v2.99999v0.5h-0.5h-0.5v0.5v0.5h-0.5zM246.5,177.49986l-1,-0.00003v1.00003l1,0.00009zM245.5,181.49981v1.00014l1,-0.00009v-1.00005z"/></g></g></svg>