<svg xmlns="http://www.w3.org/2000/svg" fill="none" viewBox="0 0 200 200" height="200" width="200">
<path fill="#BE1C1C" d="M79 81.0001L109 87.0001V111L79 105V81.0001Z"></path>
<path fill="#920000" d="M109 87.0001L121 63.0001V87.0001L109 111V87.0001Z"></path>
<path fill="#DB0A0A" d="M79 81.0001L91 57L121 63.0001L109 87.0001L79 81.0001Z"></path>
<path fill="#C2C1BD" d="M75.5 94.4999L88 96.9999V92.9999L110.5 97.4999V101.5L93 97.9999V102L75.5 98.4999V94.4999Z"></path>
<path fill="white" d="M88 92.9999L89 90.9999L109 95L116 81L118.5 81.5L110.5 97.4999L88 92.9999Z"></path>
<path fill="white" d="M75.5 94.4999L79 87.4999V93L88 94.8V92.9999V96.9999L75.5 94.4999Z"></path>
<path fill="#8D8D88" d="M93 97.9999L94 98.1999V100L93 102V97.9999Z"></path>
<path fill="#8D8D88" d="M110.5 97.4999L118.5 81.5V85.4999L124.5 73.5V77.5L116.502 93.5V89.5L110.5 101.5V97.4999Z"></path>
<path fill="#C2C1BD" d="M114.682 93.136L116.502 89.5V93.5L114.682 93.136Z"></path>
<path fill="white" d="M118.5 85.4999V81.5L117.82 81.364L121 75.0001V72.7996L124.5 73.5L118.5 85.4999Z"></path>
<path fill="#D5C081" d="M79 99.1999L93 102L94 100V98.1999L109 101.2V111L79 105V99.1999Z"></path>
<path fill="#83713F" d="M109 101.2L110.5 101.5L114.682 93.136L116.502 93.5L121 84.502V87.0001L109 111V101.2Z"></path>
<path fill="#181818" d="M96.502 100.5L101.502 101.5V105.5L96.502 104.5V100.5Z"></path>
<path fill="#181818" d="M111.002 101L113 97V101L111.002 105V101Z"></path>
<path stroke-linejoin="round" stroke-linecap="round" stroke-width="2.5" stroke-opacity="0.5" stroke="black" d="M103 66L108.5 70M103 66L95 67M103 66L106 60M108.5 70L105 77M108.5 70L118.5 68V79M105 77L97 78M105 77L111.5 82V89M97 78L91.5 74M97 78L94 84V91.5M91.5 74L95 67M91.5 74L81.5 76M95 67L88.5 62"></path>
</svg>
