<svg xmlns="http://www.w3.org/2000/svg" fill="none" viewBox="0 0 480 360" height="360" width="480">
<rect fill-opacity="0.9" fill="#6ACDEC" height="360" width="480"></rect>
<path stroke-width="2" stroke="white" fill="#56C6F8" d="M12 17H13V16V15H57V16V17H58H59V47H58H57V48V49H13V48V47H12H11V17H12Z"></path>
<path fill="white" d="M38 42L38 22L37 22L36 22L36 23L36 24L35 24L34 24L34 25L34 26L33 26L32 26L32 27L32 28L31 28L30 28L30 29L30 30L29 30L28 30L28 31L28 32L28 33L28 34L29 34L30 34L30 35L30 36L31 36L32 36L32 37L32 38L33 38L34 38L34 39L34 40L35 40L36 40L36 41L36 42L37 42L38 42Z"></path>
<path fill="white" d="M269 24H271V22H281V26H273V28H277V32H273V34H281V38H271V36H269V24Z"></path>
<path fill="white" d="M195 22L197 22L197 24L197 38L193 38L193 32L189 32L189 38L185 38L185 22L189 22L189 28L193 28L193 22L195 22Z"></path>
<path fill="white" d="M171 24H173V22H183V26H175V28V32V34H183V38H173V36H171V24Z"></path>
<path fill="white" d="M241 24H243V22H253V26H245V28V32V34H253V38H243V36H241V24Z"></path>
<path fill="white" d="M199 24H201V22H209V24H211V38H207V26H203V28H207V32H203V34V38H201H199V36V24Z"></path>
<path fill="white" d="M227 24H229V22H237V24H239V38H235V26H231V28H235V32H231V34V38H229H227V36V24Z"></path>
<path fill="white" d="M213 22H223V24H225V30H223V32H225V38H221V34H219V32H217V28H221V26H217V28V32V38H213V22Z"></path>
<path fill="white" d="M283 22H293V24H295V30H293V32H295V38H291V34H289V32H287V28H291V26H287V28V32V38H283V22Z"></path>
<path fill="white" d="M255 24V22H257H267V26H263V34V38H259V34V26H255V24Z"></path>
<path fill="white" d="M297 24H299V22H309V26H301V28H307V30H309V36H307V38H297V34H305V32H299V30H297V24Z"></path>
</svg>
