<svg xmlns="http://www.w3.org/2000/svg" fill="none" viewBox="0 0 200 200" height="200" width="200">
<path fill="#635D81" d="M72 92L107 99V115L72 108V92Z"></path>
<path fill="#635D81" d="M79 85L114 92V112L109 111V95L79 89V85Z"></path>
<path fill="#635D81" d="M83 73.0001L113 79.0001V83.0001L83 77.0001V73.0001Z"></path>
<path fill="#B5A6CD" d="M88 60L91.1818 60.6364L93 57L128 64L116 88L113 83.0001L119 71V67L113 79.0001L83 73.0001V77.0001L113 83.0001L116 88L114 92L79 85V89L109 95L107 99L72 92L88 60Z"></path>
<path fill="#3A3659" d="M113 79.0001L119 67V71L113 83.0001V79.0001Z"></path>
<path fill="#3A3659" d="M114 92L128 64V84L114 112V92Z"></path>
<path fill="#3A3659" d="M107 99L109 95V111L107 115V99Z"></path>
</svg>
