<svg xmlns="http://www.w3.org/2000/svg" fill="none" viewBox="0 0 200 200" height="200" width="200">
<path fill="#641F66" d="M75 90.0002L110 97.0002V113L75 106V90.0002Z"></path>
<path fill="#391246" d="M110 97.0002L124 69.0002V85.0002L110 113V97.0002Z"></path>
<path fill="#B3389F" d="M89 62.0002L124 69.0002L110 97.0002L75 90.0002L89 62.0002Z"></path>
<path fill-opacity="0.2" fill="black" d="M75 94.0002L110 101V113L75 106V94.0002Z"></path>
<path fill-opacity="0.2" fill="black" d="M110 101L124 73.0002V85.0002L110 113V101Z"></path>
<path fill-opacity="0.25" fill="black" d="M75 90.0002L80 91.0002V107L75 106V90.0002Z"></path>
<path fill-opacity="0.25" fill="black" d="M85 92.0002L90 93.0002V109L85 108V92.0002Z"></path>
<path fill-opacity="0.25" fill="black" d="M95 94.0002L100 95.0002V111L95 110V94.0002Z"></path>
<path fill-opacity="0.25" fill="black" d="M105 96.0002L110 97.0002V113L105 112V96.0002Z"></path>
<path fill-opacity="0.25" fill="black" d="M110 97.0002L112 93.0002V109L110 113V97.0002Z"></path>
<path fill-opacity="0.25" fill="black" d="M114 89.0002L116 85.0002V101L114 105V89.0002Z"></path>
<path fill-opacity="0.25" fill="black" d="M118 81.0002L120 77.0002V93.0002L118 97.0002V81.0002Z"></path>
<path fill-opacity="0.25" fill="black" d="M122 73.0002L124 69.0002V85.0002L122 89.0002V73.0002Z"></path>
<path fill-opacity="0.2" fill="black" d="M77 86.0002L82 87.0002L80 91.0002L75 90.0002L77 86.0002Z"></path>
<path fill-opacity="0.2" fill="black" d="M87 88.0002L92 89.0002L90 93.0002L85 92.0002L87 88.0002Z"></path>
<path fill-opacity="0.2" fill="black" d="M97 90.0002L102 91.0002L100 95.0002L95 94.0002L97 90.0002Z"></path>
<path fill-opacity="0.2" fill="black" d="M107 92.0002L112 93.0002L110 97.0002L105 96.0002L107 92.0002Z"></path>
<path fill-opacity="0.2" fill="black" d="M111 84.0002L116 85.0002L114 89.0002L109 88.0002L111 84.0002Z"></path>
<path fill-opacity="0.2" fill="black" d="M115 76.0002L120 77.0002L118 81.0002L113 80.0002L115 76.0002Z"></path>
<path fill-opacity="0.2" fill="black" d="M119 68.0002L124 69.0002L122 73.0002L117 72.0002L119 68.0002Z"></path>
<path fill-opacity="0.2" fill="black" d="M81 78.0002L86 79.0002L84 83.0002L79 82.0002L81 78.0002Z"></path>
<path fill="#190E16" d="M82 83.0002L107 88.0002V92.0002L87 88.0002L82 87.0002V83.0002Z"></path>
<path fill="#0E080F" d="M107 88.0002L117 68.0002V72.0002L107 92.0002V88.0002Z"></path>
<path fill="#3B7FA3" d="M82 75.0002L107 80.0002V88.0002L87 84.0002L82 83.0002V75.0002Z"></path>
<path fill="#224B72" d="M107 80.0002L117 60.0002V68.0002L107 88.0002V80.0002Z"></path>
<path fill="#6BE5FF" d="M92 55.0002L117 60.0002L107 80.0002L87 76.0002L82 75.0002L92 55.0002Z"></path>
<path fill="#3B7FA3" d="M89 68L104 71V75L89 72V68Z"></path>
<path fill="#224B72" d="M104 71L110 59V63L104 75V71Z"></path>
<path fill="#ED5B76" d="M93 60L98 61L96 65L91 64L93 60Z"></path>
<path fill="#91BF5E" d="M96 65L101 66L99 70L94 69L96 65Z"></path>
<path fill="#815ACF" d="M105 58L110 59L108 63L103 62L105 58Z"></path>
<path fill="#291D5A" d="M110 59V63L108 67V63L110 59Z"></path>
<path fill="#516B3B" d="M99 70V74L94 73V69L99 70Z"></path>
<path fill="#4BA5FF" d="M108 67L113 68L111 72L106 71L108 67Z"></path>
<path fill="#18367C" d="M113 68V72L111 76V72L113 68Z"></path>
<path fill="#8B6EC3" d="M100 102.999L115 105.999V117.999L100 114.999V102.999Z"></path>
<path fill="#75449F" d="M105 107.999L110 108.999V112.999L105 111.999V107.999Z"></path>
<path fill="#504087" d="M115 105.999L119 97.9993V109.999L115 117.999V105.999Z"></path>
<path fill="#FBC5FF" d="M110 104.999L114 96.9991L119 97.9993L115 105.999L110 104.999Z"></path>
<path fill="#517F8F" d="M120 85.0018L125 86.0019V98.0019L118.181 96.638L120 93.0018V85.0018Z"></path>
<path fill="#2E4B64" d="M125 86.0019L129 78.002V90.0019L125 98.0019V86.0019Z"></path>
<path fill="#91E5E3" d="M120 85.0018L124 77.0018L129 78.002L125 86.0019L120 85.0018Z"></path>
<path fill="#517F8F" d="M70 97.0019L85 100.002V112.002L70 109.002V97.0019Z"></path>
<path fill="#75449F" d="M75 102.002L80 103.002V107.002L75 106.002V102.002Z"></path>
<path fill="#2E4B64" d="M85 100.002V108.002L86.8182 108.365L85 112.002V100.002Z"></path>
<path fill="#91E5E3" d="M70 97.0019L74 89.002L75.3636 89.2746L75 90.0018V98.0019L85 100.002L70 97.0019Z"></path>
<path fill="#FBC5FF" d="M80 77L84 69L84.9088 69.1826L82 74.9995V75.9995L81.3634 77.2727L80 77Z"></path>
<path fill="#8B6EC3" d="M80 77L81.3634 77.2727L80 79.9993V77Z"></path>
</svg>
