<svg xmlns="http://www.w3.org/2000/svg" fill="none" viewBox="0 0 300 300" height="300" width="300">
<path fill="#BE6EC6" d="M166 158L174 142L74.0003 122L66.0003 138L166 158Z"></path>
<path fill="#4D2A6E" d="M166 166L174 150V142L166 158V166Z"></path>
<path fill="#5A3262" d="M66.0003 146L166 166V158L66.0003 138V146Z"></path>
<path fill="#5C4094" d="M66.0003 146L86.0003 150V142L66.0003 138V146Z"></path>
<path fill="#5C4094" d="M106 154L126 158V150L106 146V154Z"></path>
<path fill="#5C4094" d="M146 162L166 166V158L146 154V162Z"></path>
<path fill="#C086FE" d="M146 154L166 158L174 142L154 138L146 154Z"></path>
<path fill="#C086FE" d="M106 146L126 150L134 134L114 130L106 146Z"></path>
<path fill="#C086FE" d="M66.0003 138L86.0003 142L94.0003 126L74.0003 122L66.0003 138Z"></path>
<path fill-opacity="0.1" fill="white" d="M73.0003 135L83.0003 137L87.0003 129L77.0003 127L73.0003 135Z"></path>
<path fill-opacity="0.1" fill="white" d="M93.0003 139L103 141L107 133L97.0003 131L93.0003 139Z"></path>
<path fill-opacity="0.1" fill="white" d="M113 143L123 145L127 137L117 135L113 143Z"></path>
<path fill-opacity="0.1" fill="white" d="M133 147L143 149L147 141L137 139L133 147Z"></path>
<path fill-opacity="0.1" fill="white" d="M153 151L163 153L167 145L157 143L153 151Z"></path>
<path fill="#493C82" d="M171 168L173 164V152L171 156V168Z"></path>
<path fill="#5D52A2" d="M168 167.4L171 168V156L168 162V167.4Z"></path>
<path fill="#493C82" d="M151 183L153 179V163.4L151 163V183Z"></path>
<path fill="#5D52A2" d="M146 182L151 183V163L146 162V182Z"></path>
<path fill="#493C82" d="M157 171L159 167V164.6L157 164.2V171Z"></path>
<path fill="#5D52A2" d="M153 170.2L157 171V164.2L153 163.4V170.2Z"></path>
<path fill="#493C82" d="M166 178L168 174V162L166 166V178Z"></path>
<path fill="#5D52A2" d="M161 177L166 178V166L161 165V177Z"></path>
<path fill="#493C82" d="M131 160L131.455 159.091L131 159V160Z"></path>
<path fill="#5D52A2" d="M128 159.4L131 160V159L128 158.4V159.4Z"></path>
<path fill="#493C82" d="M111 175L113 171V155.4L111 155V175Z"></path>
<path fill="#5D52A2" d="M106 174L111 175V155L106 154V174Z"></path>
<path fill="#493C82" d="M117 163L119 159V156.6L117 156.2V163Z"></path>
<path fill="#5D52A2" d="M113 162.2L117 163V156.2L113 155.4V162.2Z"></path>
<path fill="#493C82" d="M126 170L128 166V158.4L126 158V170Z"></path>
<path fill="#5D52A2" d="M121 169L126 170V158L121 157V169Z"></path>
<path fill="#493C82" d="M91 152L91.4545 151.091L91 151V152Z"></path>
<path fill="#5D52A2" d="M88 151.4L91 152V151L88 150.4V151.4Z"></path>
<path fill="#493C82" d="M71 167L73 163V147.4L71 147V167Z"></path>
<path fill="#5D52A2" d="M66 166L71 167V147L66.0003 146L66 166Z"></path>
<path fill="#493C82" d="M77 155L79 151V148.6L77 148.2V155Z"></path>
<path fill="#5D52A2" d="M73 154.2L77 155V148.2L73 147.4V154.2Z"></path>
<path fill="#493C82" d="M86 162L88 158V150.4L86.0003 150L86 162Z"></path>
<path fill="#5D52A2" d="M81 161L86 162L86.0003 150L81 149V161Z"></path>
<path fill="#61497D" d="M141.001 173L146.001 174L146 162L141.001 161V173Z"></path>
<path fill="#513765" d="M153 172L154 170L153 170.2V172Z"></path>
<path fill="#513765" d="M131 175L133 171V159.4L131 159V175Z"></path>
<path fill="#61497D" d="M126 174L131 175V159L126 158V174Z"></path>
<path fill="#513765" d="M134.001 165L136.001 161V160L134.001 159.6V165Z"></path>
<path fill="#61497D" d="M133 164.8L134.001 165V159.6L133 159.4V164.8Z"></path>
<path fill="#61497D" d="M101.001 165L106.001 166L106 154L101.001 153V165Z"></path>
<path fill="#513765" d="M91.0003 167L93.0003 163V151.4L91 151L91.0003 167Z"></path>
<path fill="#61497D" d="M86.0003 166L91.0003 167L91 151L86.0003 150V166Z"></path>
<path fill="#513765" d="M94.0007 157L96.0007 153V152L94.0007 151.6V157Z"></path>
<path fill="#61497D" d="M93.0003 156.8L94.0007 157V151.6L93.0003 151.4V156.8Z"></path>
<path fill="#5C4094" d="M26.0003 138L46.0003 142V134L26.0003 130V138Z"></path>
<path fill="#C086FE" d="M26.0003 130L46.0003 134L54.0003 118L34.0003 114L26.0003 130Z"></path>
<path fill-opacity="0.1" fill="white" d="M33.0003 127L43.0003 129L47.0003 121L37.0003 119L33.0003 127Z"></path>
<path fill="#493C82" d="M31 159L33 155V139.4L31 139V159Z"></path>
<path fill="#5D52A2" d="M26 158L31 159V139L26.0003 138L26 158Z"></path>
<path fill="#493C82" d="M37 147L39 143V140.6L37 140.2V147Z"></path>
<path fill="#5D52A2" d="M33 146.2L37 147V140.2L33 139.4V146.2Z"></path>
<path fill="#5D52A2" d="M41 153L46 154L46.0003 142L41 141V153Z"></path>
<path fill="#61497D" d="M61.0007 157L66.0007 158L66.0003 146L61.0007 145V157Z"></path>
<path fill="#513765" d="M51.0003 159L53.0003 155V143.4L51 143L51.0003 159Z"></path>
<path fill="#61497D" d="M46.0003 158L51.0003 159L51 143L46.0003 142V158Z"></path>
<path fill="#513765" d="M54.0007 149L56.0007 145V144L54.0007 143.6V149Z"></path>
<path fill="#61497D" d="M53.0003 148.8L54.0007 149V143.6L53.0003 143.4V148.8Z"></path>
<path fill="#5A3262" d="M46.0003 142L66.0003 146V138L46.0003 134V142Z"></path>
<path fill="#BE6EC6" d="M46.0003 134L66.0003 138L74.0003 122L54.0003 118L46.0003 134Z"></path>
<path fill-opacity="0.1" fill="white" d="M53.0003 131L63.0003 133L67.0003 125L57.0003 123L53.0003 131Z"></path>
</svg>
