<svg xmlns="http://www.w3.org/2000/svg" fill="none" viewBox="0 0 480 360" height="360" width="480">
<path stroke-width="2" stroke="white" fill="#56C6F8" d="M87.0667 78.1H88.0667V77.1V76H391.933V77.1V78.1H392.933H394V281.9H392.933H391.933V282.9V284H88.0667V282.9V281.9H87.0667H86V78.1H87.0667Z"></path>
<path stroke-width="2" stroke="white" fill="#56C6F8" d="M141 242H142V241V240H338V241V242H339H340V248H339H338V249V250H142V249V248H141H140V242H141Z"></path>
<path fill="white" d="M262 99V97H264H266V103H270V97H274V105H272V107H270V113H266V107H264V105H262V99Z"></path>
<path fill="white" d="M248 99H250V97H258V99H260V113H256V101H252V103H256V107H252V109V113H250H248V111V99Z"></path>
<path fill="white" d="M220 99H222V97H232V101H224V103H228V107H224V109H232V113H222V111H220V99Z"></path>
<path fill="white" d="M206 99V97H208H216V99H218V101H214H210V109H214V101H218V111H216V113H208H206V111V99Z"></path>
<path fill="white" d="M234 99V97H236H238V101V109H246V113H236V111H234V101V99Z"></path>
<path fill="white" d="M152 175.5H153.5V174H161V177H155V178.5H158V181.5H155V183H161V186H153.5V184.5H152V175.5Z"></path>
<path fill="white" d="M183.5 175.5H185V174H192.5V177H186.5V178.5H189.5V181.5H186.5V183H192.5V186H185V184.5H183.5V175.5Z"></path>
<path fill="white" d="M258.5 175.5H260V174H267.5V177H261.5V178.5H264.5V181.5H261.5V183H267.5V186H260V184.5H258.5V175.5Z"></path>
<path fill="white" d="M216.5 175.5H218V174H225.5V177H219.5V178.5H222.5V181.5H219.5V183H225.5V186H218V184.5H216.5V175.5Z"></path>
<path fill="white" d="M227 175.5H228.5V174H236V177H230V178.5H233V181.5H230V183H236V186H228.5V184.5H227V175.5Z"></path>
<path fill="white" d="M269 175.5H270.5V174H276.5V175.5H278V186H275V177H272V178.5H275V181.5H272V183V186H270.5H269V184.5V175.5Z"></path>
<path fill="white" d="M140 174H143V175.5H144.5V177H146V175.5H147.5V174H150.5V186H147.5V180H146V181.5H144.5V180H143V186H140V174Z"></path>
<path fill="white" d="M237.5 174H240.5V175.5H242V177H243.5V174H246.5V186H243.5V181.5H242V180H240.5V186H237.5V174Z"></path>
<path fill="white" d="M279.5 175.5H281V174H288.5V177H282.5V178.5V181.5V183H288.5V186H281V184.5H279.5V175.5Z"></path>
<path fill="white" d="M129.5 175.5V174H131H138.5V177H135.5V183H138.5V186H129.5V183H132.5V177H129.5V175.5Z"></path>
<path fill="white" d="M119 175.5V174H120.5H128V177H125V183V186H122V183V177H119V175.5Z"></path>
<path fill="white" d="M194 175.5V174H195.5H203V177H200V183V186H197V183V177H194V175.5Z"></path>
<path fill="white" d="M215 186L212 186L212 184.5L210.5 184.5L210.5 183L209 183L209 184.5L207.5 184.5L207.5 186L204.5 186L204.5 174L207.5 174L207.5 180L209 180L209 178.5L210.5 178.5L210.5 180L212 180L212 174L215 174L215 186Z"></path>
<path fill="white" d="M173 174H180.5V175.5H182V178.5H180.5V181.5H182V184.5H180.5V186H176V183H179V181.5H177.5H176V178.5H179V177H176V178.5V181.5V186H173V174Z"></path>
<path fill="white" d="M297.5 174L299 174L299 175.5L299 186L296 186L296 181.5L293 181.5L293 186L290 186L290 174L293 174L293 178.5L296 178.5L296 174L297.5 174Z"></path>
<path fill="white" d="M321.5 174H329V175.5H330.5V180H329V181.5H330.5V186H327.5V183H326V181.5H324.5V178.5H327.5V177H324.5V178.5V181.5V186H321.5V174Z"></path>
<path fill="white" d="M332 175.5H333.5V174H339.5V175.5H341V186H338V177H335V178.5H338V181.5H335V183V186H333.5H332V184.5V175.5Z"></path>
<path fill="white" d="M353 174H356V175.5H357.5V177H359V174H362V186H359V181.5H357.5V180H356V186H353V174Z"></path>
<path fill="white" d="M342.5 175.5V174H344H351.5V177H348.5V183H351.5V186H342.5V183H345.5V177H342.5V175.5Z"></path>
<path fill="white" d="M311 175.5V174H312.5H320V177H317V183V186H314V183V177H311V175.5Z"></path>
<path fill="white" d="M123 242H122V241H117V243H121V244H119V246H121V247H117V249H122V248H123V246H122V244H123V242Z"></path>
<path fill="white" d="M357 241H359V249H357V241Z"></path>
<path fill="white" d="M360 246V241H365V243H362V244H364V245H365L365 248H364V249H360V247H363V246H360Z"></path>
<path fill="white" d="M105 101H107V97H111V95H114V106H120V104H116V97H114V95H116H119V97H123V101H125V109H123V113H119V115H111V113H107V109H105V101Z"></path>
</svg>
