<svg xmlns="http://www.w3.org/2000/svg" fill="none" viewBox="0 0 14 14" height="14" width="14">
<path stroke="black" fill="white" d="M9 4.50098L9.5 4.50098L9.5 5.00098L9.5 5.50098L10 5.50098L10.5 5.50098L10.5 6.00098L10.5 12.001L10.5 12.501L10 12.501L9.5 12.501L9.5 13.001L9.5 13.501L9 13.501L3 13.501L2.5 13.501L2.5 13.001L2.5 12.501L2 12.501L1.5 12.501L1.5 12.001L1.5 7.00098L1.5 6.50098L2 6.50098L3.5 6.50098L3.5 5.00098L3.5 4.50098L4 4.50098L9 4.50098Z"></path>
<path stroke="black" fill="white" d="M8 4.50098L8.5 4.50098L8.5 5.00098L8.5 5.50098L9 5.50098L9.5 5.50098L9.5 6.00098L9.5 11.001L9.5 11.501L9 11.501L8.5 11.501L8.5 12.001L8.5 12.501L8 12.501L3 12.501L2.5 12.501L2.5 12.001L2.5 11.501L2 11.501L1.5 11.501L1.5 11.001L1.5 6.00098L1.5 5.50098L2 5.50098L2.5 5.50098L2.5 5.00098L2.5 4.50098L3 4.50098L8 4.50098Z"></path>
<path fill="#EE0407" d="M7 7.00049L4 7.00049L4 10.0005L7 10.0005L7 9.00049L5 9.00049L5 8.00049L7 8.00049L7 7.00049Z"></path>
</svg>
