<svg xmlns="http://www.w3.org/2000/svg" fill="none" viewBox="0 0 200 200" height="200" width="200">
<path fill="#697293" d="M78 85L103 90V110L78 105V85Z"></path>
<path fill="#3D4367" d="M103 90L113 69.9999V89.9999L103 110V90Z"></path>
<path fill="#BCCBEA" d="M88.0001 65L113 69.9999L103 90L78 85L88.0001 65Z"></path>
<path fill="#697293" d="M91 69.9999L106 72.9999L104.182 76.6363L91 74L91 69.9999Z"></path>
<path fill="#3D4367" d="M85 81.9999L91 69.9999L91 74L86.8182 82.3636L85 81.9999Z"></path>
<path fill="#A5B1CB" d="M91 74L104.182 76.6363L100 85L86.8182 82.3636L91 74Z"></path>
<path fill="#BCCBEA" d="M113 82L123 83.9999L117 96L107 94L109 90L114 91L116 87L111 86L113 82Z"></path>
<path fill="#697293" d="M111 86L116 87L114.182 90.6364L111 90.0001L111 86Z"></path>
<path fill="#A5B1CB" d="M111 90.0001L114.182 90.6364L114 91L110.818 90.3636L111 90.0001Z"></path>
<path fill="#697293" d="M107 94L117 96V104L107 102L107 94Z"></path>
<path fill="#3D4367" d="M117 96L123 83.9999V91.9999L117 104V96Z"></path>
</svg>
