<svg xmlns="http://www.w3.org/2000/svg" fill="none" viewBox="0 0 200 200" height="200" width="200">
<path fill="#9395AA" d="M82.75 76L106.5 80.75V100.75L82.75 96V76Z"></path>
<path fill="white" d="M94.75 52L118.5 56.7502L106.5 80.75L82.75 76L94.75 52Z"></path>
<path fill="#575876" d="M118.5 56.7502V76.7502L106.5 100.75V80.75L118.5 56.7502Z"></path>
<path fill="#9395AA" d="M90.75 70.5L94.5 71.25V77.25L90.75 76.5V70.5Z"></path>
<path fill="white" d="M94.75 62.5002L98.5 63.2502L94.5 71.25L90.75 70.5L94.75 62.5002Z"></path>
<path fill="#575876" d="M98.5 63.2502V69.2502L94.5 77.25V71.25L98.5 63.2502Z"></path>
<path fill="#9395AA" d="M97.7499 56.4998L101.5 57.2498V63.2498L97.7499 62.4998V56.4998Z"></path>
<path fill="white" d="M101.75 48.5L105.5 49.25L101.5 57.2498L97.7499 56.4998L101.75 48.5Z"></path>
<path fill="#575876" d="M105.5 49.25V55.25L101.5 63.2498V57.2498L105.5 49.25Z"></path>
<path fill="#9395AA" d="M90.25 64.5002L93.4318 65.1366L92.5227 66.9548L90.25 66.5002V64.5002Z"></path>
<path fill="white" d="M92.25 60.5005L96 61.2505L95.3738 62.625L94.75 62.5002L93.4318 65.1366L90.25 64.5002L92.25 60.5005Z"></path>
<path fill="#575876" d="M96 61.2505V62.7502L94.75 62.5002L95.3738 62.625L96 61.2505Z"></path>
<path fill="#9395AA" d="M89.5 97.35L102 99.85V103.25L89.5 100.75V97.35Z"></path>
<path fill="#575876" d="M102 99.85L103.545 100.159L102 103.25V99.85Z"></path>
<path fill="#9395AA" d="M93.0025 101.45V102.75L95.5 103.25L96.0909 102.068L96.2525 102.1V104L92.5025 103.25V102.25L93.0025 102.35V101.45Z"></path>
<path fill="#575876" d="M96.2525 102.1L97.1161 102.273L96.2525 104V102.1Z"></path>
<path fill="#957B63" d="M93.0025 98.7502L95.5 99.2498V103.25L93.0025 102.75V98.7502Z"></path>
<path fill="#564845" d="M95.5 99.2498L95.8181 98.6136L96.4998 98.75V101.25L95.5 103.25V99.2498Z"></path>
<path fill="white" d="M92.9115 101.432L93.0025 101.45V102.35L92.5025 102.25L92.9115 101.432Z"></path>
<path fill="#FFDB9F" d="M94.75 52L99.5226 52.9546L97.7499 56.4998V62.4998L96 62.1499V61.2505L92.25 60.5005L91.841 61.3184L90.2499 60.9997L94.75 52Z"></path>
<path fill="#FFDB9F" d="M105.5 54.1501L108.5 54.7502L104 63.75L101.5 63.2498L105.5 55.25V54.1501Z"></path>
<path fill="#957B63" d="M109.503 95.2505L112 95.75V101.75L107.003 100.75V99.7447L107.46 98.8419L109.503 99.2505V95.2505Z"></path>
<path fill="#564845" d="M112 95.75L113 93.7391V99.7505L112 101.75V95.75Z"></path>
<path fill="#FFDB9F" d="M110.502 93.2396L113 93.7391L112 95.75L109.503 95.2505L110.502 93.2396Z"></path>
<path fill="#FFDB9F" d="M108.46 96.831L109.503 97.0397V99.2505L107.46 98.8419L108.46 96.831Z"></path>
<path fill="#9395AA" d="M107.003 99.7447V100.75L106.545 100.659L107.003 99.7447Z"></path>
<path fill="#9395AA" d="M83.25 88.5002L87 89.2502V94.2502L83.25 93.5002V88.5002Z"></path>
<path fill="white" d="M85.25 84.5005L89 85.2505L87 89.2502L83.25 88.5002L85.25 84.5005Z"></path>
<path fill="#575876" d="M89 85.2505V90.2505L87 94.2502V89.2502L89 85.2505Z"></path>
<path fill="#9395AA" d="M83.75 93.6002L87 94.2502L87.0456 94.1591L87.5 94.25V97.25L83.75 96.5V93.6002Z"></path>
<path fill="white" d="M87 94.2502L88.5455 91.1593L89 91.2502L87.5 94.25L87.0456 94.1591L87 94.2502Z"></path>
<path fill="#575876" d="M89 91.2502V94.2502L87.5 97.25V94.25L89 91.2502Z"></path>
</svg>
