<svg xmlns="http://www.w3.org/2000/svg" fill="none" viewBox="0 0 200 200" height="200" width="200">
<path fill="#514221" d="M99 96.9999L100 95V91L101 89V87L103 83V81L107 73V75L109 71V73L110 71V73L109 75V77L106 83V85L104 89V93L106 89V91L109 85V87L110 85V87L109 89V91L107 95V96.9999L103 105V103L101 107V105L100 107V103L99 105V96.9999Z"></path>
<path fill="#8C702F" d="M89 94.9999L99 96.9999V105L100 103V107L89.9998 105V103.2L89 103V94.9999Z"></path>
<path fill="#8C702F" d="M89.9996 89L100 91V95L89.9996 93V89Z"></path>
<path fill="#8C702F" d="M90.9996 85L101 87V89L90.9996 87V85Z"></path>
<path fill="#8C702F" d="M92.9996 79L103 81V83L92.9996 81V79Z"></path>
<path fill="#8C702F" d="M101 105V107L100.091 106.818L101 105Z"></path>
<path fill="#FDC94F" d="M92.9996 81L103 83L101 87L90.9996 85L92.9996 81Z"></path>
<path fill="#FDC94F" d="M96.9996 71L107 73L103 81L92.9996 79L96.9996 71Z"></path>
<path fill="#FDC94F" d="M90.9996 87L101 89L100 91L89.9996 89L90.9996 87Z"></path>
<path fill="#FDC94F" d="M89.9996 93L100 95L99 96.9999L89 94.9999L89.9996 93Z"></path>
<path fill="#FDC94F" d="M98.9996 69.0001L109 71L107 75V73L97.9087 71.1818L98.9996 69.0001Z"></path>
<path fill="#FDC94F" d="M99.9996 69L110 71L109 73V71L99.9086 69.1819L99.9996 69Z"></path>
<path fill="#8C702F" d="M103 103V105L102.091 104.818L103 103Z"></path>
<path fill="#FDC94F" d="M106 84.4001L109 85L106 91V89L104.182 88.6365L106 85V84.4001Z"></path>
<path fill="#FDC94F" d="M106 84.2L110 85L109 87V85L106 84.4001V84.2Z"></path>
<path fill="#FDC94F" d="M104.182 88.6365L106 89L104 93L104 89L104.182 88.6365Z"></path>
</svg>
