<svg xmlns="http://www.w3.org/2000/svg" fill="none" viewBox="0 0 14 14" height="14" width="14">
<path stroke="black" fill="#F7E84D" d="M8.99998 1.5L9.00003 1.5L12 1.50019L12.5 1.50022L12.5 2.00019L12.5 2.50019L13 2.50019L13.5 2.50019L13.5 3.00019L13.5 12L13.5 12.5L13 12.5L12.5 12.5L12.5 13L12.5 13.5L12 13.5L2.00001 13.5002L1.5 13.5002L1.5 13.0002L1.5 11.0002L1.5 10.5002L2 10.5002L8.5 10.5002L8.5 9.50019L3 9.50019L2.5 9.50019L2.5 9.00019L2.5 8.50019L2 8.50019L1.5 8.50019L1.5 8.00019L1.5 4.00019L1.5 3.50019L2 3.50019L2.5 3.50019L2.5 2.00019L2.5 1.5002L2.99998 1.50019L8.99998 1.5ZM8.5 6.50019L8.5 5.50005L7.5 5.50014L7.5 6.50019L8.5 6.50019Z"></path>
<path stroke="black" fill="#F7E84D" d="M7.99998 1.5L8.00003 1.5L11 1.50019L11.5 1.50022L11.5 2.00019L11.5 2.50019L12 2.50019L12.5 2.50019L12.5 3.00019L12.5 11L12.5 11.5L12 11.5L11.5 11.5L11.5 12L11.5 12.5L11 12.5L2.00001 12.5002L1.5 12.5002L1.5 12.0002L1.5 10.0002L1.5 9.50019L2 9.50019L7.5 9.50019L7.5 8.50019L3 8.50019L2.5 8.50019L2.5 8.00019L2.5 7.50019L2 7.50019L1.5 7.50019L1.5 7.00019L1.5 3.00019L1.5 2.50019L2 2.50019L2.5 2.50019L2.5 2.00019L2.5 1.5002L2.99998 1.50019L7.99998 1.5ZM7.5 5.50019L7.5 4.50005L6.5 4.50014L6.5 5.50019L7.5 5.50019Z"></path>
</svg>
