<svg xmlns="http://www.w3.org/2000/svg" fill="none" viewBox="0 0 200 200" height="200" width="200">
<path fill="#BE6EC6" d="M171 119L179 103L79.0003 83L71.0003 99L171 119Z"></path>
<path fill="#4D2A6E" d="M171 127L179 111V103L171 119V127Z"></path>
<path fill="#5A3262" d="M71.0003 107L171 127V119L71.0003 99V107Z"></path>
<path fill="#5C4094" d="M71.0003 107L91.0003 111V103L71.0003 99V107Z"></path>
<path fill="#5C4094" d="M111 115L131 119V111L111 107V115Z"></path>
<path fill="#5C4094" d="M151 123L171 127V119L151 115V123Z"></path>
<path fill="#C086FE" d="M151 115L171 119L179 103L159 99L151 115Z"></path>
<path fill="#C086FE" d="M111 107L131 111L139 95L119 91L111 107Z"></path>
<path fill="#C086FE" d="M71.0003 99L91.0003 103L99.0003 87L79.0003 83L71.0003 99Z"></path>
<path fill-opacity="0.1" fill="white" d="M78.0003 96L88.0003 98L92.0003 90L82.0003 88L78.0003 96Z"></path>
<path fill-opacity="0.1" fill="white" d="M98.0003 100L108 102L112 94L102 92L98.0003 100Z"></path>
<path fill-opacity="0.1" fill="white" d="M118 104L128 106L132 98L122 96L118 104Z"></path>
<path fill-opacity="0.1" fill="white" d="M138 108L148 110L152 102L142 100L138 108Z"></path>
<path fill-opacity="0.1" fill="white" d="M158 112L168 114L172 106L162 104L158 112Z"></path>
<path fill="#493C82" d="M176 129L178 125V113L176 117V129Z"></path>
<path fill="#5D52A2" d="M173 128.4L176 129V117L173 123V128.4Z"></path>
<path fill="#493C82" d="M156 144L158 140V124.4L156 124V144Z"></path>
<path fill="#5D52A2" d="M151 143L156 144V124L151 123V143Z"></path>
<path fill="#493C82" d="M162 132L164 128V125.6L162 125.2V132Z"></path>
<path fill="#5D52A2" d="M158 131.2L162 132V125.2L158 124.4V131.2Z"></path>
<path fill="#493C82" d="M171 139L173 135V123L171 127V139Z"></path>
<path fill="#5D52A2" d="M166 138L171 139V127L166 126V138Z"></path>
<path fill="#493C82" d="M136 121L136.455 120.091L136 120V121Z"></path>
<path fill="#5D52A2" d="M133 120.4L136 121V120L133 119.4V120.4Z"></path>
<path fill="#493C82" d="M116 136L118 132V116.4L116 116V136Z"></path>
<path fill="#5D52A2" d="M111 135L116 136V116L111 115V135Z"></path>
<path fill="#493C82" d="M122 124L124 120V117.6L122 117.2V124Z"></path>
<path fill="#5D52A2" d="M118 123.2L122 124V117.2L118 116.4V123.2Z"></path>
<path fill="#493C82" d="M131 131L133 127V119.4L131 119V131Z"></path>
<path fill="#5D52A2" d="M126 130L131 131V119L126 118V130Z"></path>
<path fill="#493C82" d="M96 113L96.4545 112.091L96 112V113Z"></path>
<path fill="#5D52A2" d="M93 112.4L96 113V112L93 111.4V112.4Z"></path>
<path fill="#493C82" d="M76 128L78 124V108.4L76 108V128Z"></path>
<path fill="#5D52A2" d="M71 127L76 128V108L71.0003 107L71 127Z"></path>
<path fill="#493C82" d="M82 116L84 112V109.6L82 109.2V116Z"></path>
<path fill="#5D52A2" d="M78 115.2L82 116V109.2L78 108.4V115.2Z"></path>
<path fill="#493C82" d="M91 123L93 119V111.4L91.0003 111L91 123Z"></path>
<path fill="#5D52A2" d="M86 122L91 123L91.0003 111L86 110V122Z"></path>
<path fill="#61497D" d="M146.001 134L151.001 135L151 123L146.001 122V134Z"></path>
<path fill="#513765" d="M158 133L159 131L158 131.2V133Z"></path>
<path fill="#513765" d="M136 136L138 132V120.4L136 120V136Z"></path>
<path fill="#61497D" d="M131 135L136 136V120L131 119V135Z"></path>
<path fill="#513765" d="M139.001 126L141.001 122V121L139.001 120.6V126Z"></path>
<path fill="#61497D" d="M138 125.8L139.001 126V120.6L138 120.4V125.8Z"></path>
<path fill="#61497D" d="M106.001 126L111.001 127L111 115L106.001 114V126Z"></path>
<path fill="#513765" d="M96.0003 128L98.0003 124V112.4L96 112L96.0003 128Z"></path>
<path fill="#61497D" d="M91.0003 127L96.0003 128L96 112L91.0003 111V127Z"></path>
<path fill="#513765" d="M99.0007 118L101.001 114V113L99.0007 112.6V118Z"></path>
<path fill="#61497D" d="M98.0003 117.8L99.0007 118V112.6L98.0003 112.4V117.8Z"></path>
</svg>
