<svg version="1.1" xmlns="http://www.w3.org/2000/svg" xmlns:xlink="http://www.w3.org/1999/xlink" width="13" height="13" viewBox="0,0,13,13"><g transform="translate(-240,-174)"><g data-paper-data="{&quot;isPaintingLayer&quot;:true}" fill="#f7e84d" fill-rule="nonzero" stroke="#000000" stroke-width="1" stroke-linecap="butt" stroke-linejoin="miter" stroke-miterlimit="10" stroke-dasharray="" stroke-dashoffset="0" style="mix-blend-mode: normal"><path d="M242.5,176.5v-1.5v-0.5h0.5h8h0.5v0.5v0.5h0.5h0.5v0.5v9v0.5h-0.5h-0.5v0.5v0.5h-0.5h-9h-0.5v-0.5v-0.5h-0.5h-0.5v-0.5v-7v-0.20711l0.14645,-0.14644l1,-1l0.14644,-0.14645h0.20711zM246.5,183.5h1v-5h-1z"/><path d="M241.5,175.5v-0.5v-0.5h0.5h8h0.5v0.5v0.5h0.5h0.5v0.5v8v0.5h-0.5h-0.5v0.5v0.5h-0.5h-8h-0.5v-0.5v-0.5h-0.5h-0.5v-0.5v-7v-1v-0.5h0.5zM245.5,182.5h1v-5h-1z"/></g></g></svg>