<svg xmlns="http://www.w3.org/2000/svg" fill="none" viewBox="0 0 200 200" height="200" width="200">
<path fill="#49282F" d="M93 95.8L103 97.8V101L93 99V95.8Z"></path>
<path fill="#28151B" d="M109 99L104.5 98.1L103 101V97.8L109 99Z"></path>
<path fill="#3B7344" d="M79 57L109 63L109 79.0001L109 99L79 93V57Z"></path>
<path fill="#22432E" d="M109 63L121 38.9999V74.9999L109 99L109 79.0001L109 63Z"></path>
<path fill="#9DD572" d="M91.0001 33L92.3637 33.2728L94 30L114 34.0002L114 37.6L121 38.9999L109 63L79 57L91.0001 33Z"></path>
<path fill="#587545" d="M79 57L109 63L109 79.0001L79 73L79 57Z"></path>
<path fill="#314330" d="M121 38.9999L109 63L109 79.0001L121 55L121 38.9999Z"></path>
<path fill="#587545" d="M86 46L106 50L106 58.0001L86 54.0001L86 46Z"></path>
<path fill="#314330" d="M114 34.0002L106 50L106 58.0001L114 41.9999L114 34.0002Z"></path>
</svg>
