<svg xmlns="http://www.w3.org/2000/svg" fill="none" viewBox="0 0 400 300" height="300" width="400">
<path fill="#6F7D30" d="M115.667 132L122.333 133.333V137.333L115.667 136V132Z"></path>
<path fill="#E3FC6A" d="M117.667 128L124.333 129.333L122.333 133.333L115.667 132L117.667 128Z"></path>
<path fill="#6D6D6D" d="M124.333 129.333V133.333L122.333 137.333V133.333L124.333 129.333Z"></path>
<path fill="#365D2E" d="M117.333 135L120.667 135.667V137L115.667 136L117.333 136.333V135Z"></path>
<path fill="#365D2E" d="M113 130L114.667 130.333V131.667L115.727 131.879L115.667 132L115.667 133.2L114.667 133V134.333L113 134V130Z"></path>
<path fill="#88D27F" d="M113.667 128.667L115.333 129L114.667 130.333L113 130L113.667 128.667Z"></path>
<path fill="#064228" d="M115.333 129V130.333L116.394 130.545L115.727 131.879L115.667 132L115.667 133.2L115.273 133.121L114.667 134.333V133L115.667 133.2L115.667 132L115.727 131.879L114.667 131.667V130.333L115.333 129Z"></path>
<path fill="#88D27F" d="M115.333 130.333L116.394 130.545L115.727 131.879L114.667 131.667L115.333 130.333Z"></path>
<path fill="#6877B2" d="M120.667 133L122.333 133.333V137.333L120.667 137V133Z"></path>
<path fill="#DAF1EB" d="M122.667 129L124.333 129.333L122.333 133.333L120.667 133L122.667 129Z"></path>
<path fill="#6C1A63" d="M157.667 96L164.333 97.3333V101.333L157.667 100V96Z"></path>
<path fill="#E238CE" d="M159.667 92L166.333 93.3333L164.333 97.3333L157.667 96L159.667 92Z"></path>
<path fill="#364729" d="M166.333 93.3333V97.3333L164.333 101.333V97.3333L166.333 93.3333Z"></path>
<path fill="#342381" d="M159.333 99L162.667 99.6667V101L157.667 100L159.333 100.333V99Z"></path>
<path fill="#342381" d="M155 94L156.667 94.3333V95.6667L157.727 95.8788L157.667 96L157.667 97.2L156.667 97V98.3333L155 98V94Z"></path>
<path fill="#604DE7" d="M155.667 92.6667L157.333 93L156.667 94.3333L155 94L155.667 92.6667Z"></path>
<path fill="#0E215B" d="M157.333 93V94.3333L158.394 94.5455L157.727 95.8788L157.667 96L157.667 97.2L157.273 97.1212L156.667 98.3333V97L157.667 97.2L157.667 96L157.727 95.8788L156.667 95.6667V94.3333L157.333 93Z"></path>
<path fill="#604DE7" d="M157.333 94.3333L158.394 94.5455L157.727 95.8788L156.667 95.6667L157.333 94.3333Z"></path>
<path fill="#537246" d="M162.667 97L164.333 97.3333V101.333L162.667 101V97Z"></path>
<path fill="#C0FF90" d="M164.667 93L166.333 93.3333L164.333 97.3333L162.667 97L164.667 93Z"></path>
<path fill="#1C213E" d="M209.667 128L216.333 129.333V133.333L209.667 132V128Z"></path>
<path fill="#3E4B7D" d="M211.667 124L218.333 125.333L216.333 129.333L209.667 128L211.667 124Z"></path>
<path fill="#5A3723" d="M218.333 125.333V129.333L216.333 133.333V129.333L218.333 125.333Z"></path>
<path fill="#1B58B5" d="M211.333 131L214.667 131.667V133L209.667 132L211.333 132.333V131Z"></path>
<path fill="#1B58B5" d="M207 126L208.667 126.333V127.667L209.727 127.879L209.667 128L209.667 129.2L208.667 129V130.333L207 130V126Z"></path>
<path fill="#53A6EC" d="M207.667 124.667L209.333 125L208.667 126.333L207 126L207.667 124.667Z"></path>
<path fill="#112D69" d="M209.333 125V126.333L210.394 126.545L209.727 127.879L209.667 128L209.667 129.2L209.273 129.121L208.667 130.333V129L209.667 129.2L209.667 128L209.727 127.879L208.667 127.667V126.333L209.333 125Z"></path>
<path fill="#53A6EC" d="M209.333 126.333L210.394 126.545L209.727 127.879L208.667 127.667L209.333 126.333Z"></path>
<path fill="#7C4D33" d="M214.667 129L216.333 129.333V133.333L214.667 133V129Z"></path>
<path fill="#FD9F6C" d="M216.667 125L218.333 125.333L216.333 129.333L214.667 129L216.667 125Z"></path>
<path fill="#3873EB" d="M59.6667 110L66.3333 111.333V115.333L59.6667 114V110Z"></path>
<path fill="#79F8FF" d="M61.6667 106L68.3333 107.333L66.3333 111.333L59.6667 110L61.6667 106Z"></path>
<path fill="#2C4BA1" d="M68.3333 107.333V111.333L66.3333 115.333V111.333L68.3333 107.333Z"></path>
<path fill="#0943AF" d="M61.3333 113L64.6667 113.667V115L59.6667 114L61.3333 114.333V113Z"></path>
<path fill="#0943AF" d="M57 108L58.6667 108.333V109.667L59.7273 109.879L59.6667 110V111.2L58.6667 111V112.333L57 112V108Z"></path>
<path fill="#57ACFF" d="M57.6667 106.667L59.3333 107L58.6667 108.333L57 108L57.6667 106.667Z"></path>
<path fill="#1A2C74" d="M59.3333 107V108.333L60.3939 108.545L59.7273 109.879L59.6667 110V111.2L59.2727 111.121L58.6667 112.333V111L59.6667 111.2V110L59.7273 109.879L58.6667 109.667V108.333L59.3333 107Z"></path>
<path fill="#57ACFF" d="M59.3333 108.333L60.3939 108.545L59.7273 109.879L58.6667 109.667L59.3333 108.333Z"></path>
<path fill="#3A89F1" d="M64.6667 111L66.3333 111.333V115.333L64.6667 115L64.6667 111Z"></path>
<path fill="#7AFCFE" d="M66.6667 107L68.3333 107.333L66.3333 111.333L64.6667 111L66.6667 107Z"></path>
</svg>
