<svg xmlns="http://www.w3.org/2000/svg" fill="none" viewBox="0 0 200 200" height="200" width="200">
<path fill="#9395AA" d="M79 98.75L109 104.75V108.75L79 102.75V98.75Z"></path>
<path fill="white" d="M88.5 79.75L118.5 85.7502L109 104.75L79 98.75L88.5 79.75Z"></path>
<path fill="#575876" d="M118.5 85.7502V89.7502L109 108.75V104.75L118.5 85.7502Z"></path>
<path fill="#9395AA" d="M102.75 91.4976L112.75 93.4976V94.4976L102.75 92.4976V91.4976Z"></path>
<path fill="white" d="M104.25 88.4978L114.25 90.4978L112.75 93.4976L102.75 91.4976L104.25 88.4978Z"></path>
<path fill="#575876" d="M114.25 90.4978V91.4978L112.75 94.4976V93.4976L114.25 90.4978Z"></path>
<path fill="#9395AA" d="M85.25 87.9976L95.25 89.9976V90.9976L85.25 88.9976V87.9976Z"></path>
<path fill="white" d="M86.75 84.9978L96.75 86.9978L95.25 89.9976L85.25 87.9976L86.75 84.9978Z"></path>
<path fill="#575876" d="M96.75 86.9978V87.9978L95.25 90.9976V89.9976L96.75 86.9978Z"></path>
<path fill="#9395AA" d="M98.5 86.2475L102.932 87.1338L102.889 88.1526L98.5 87.2475V86.2475Z"></path>
<path fill="white" d="M100 82.2477L105 83.2477L102.889 88.1526L105 84L105 83.2477L102.932 87.1338L98.5 86.2475L100 82.2477Z"></path>
<path fill="#575876" d="M102.889 88.1526L102.932 87.1338L105 83.2477L105 84L102.889 88.1526Z"></path>
<path fill="#FFDB9F" d="M102.75 92.4976L112.75 94.4976L114.25 91.4978V90.4978L104.706 88.5889L107.25 83.5L118.5 85.7502L113.5 95.7473L102.25 93.4973L102.75 92.4976Z"></path>
<path fill="#564845" d="M118.5 85.7502L113.5 95.7607V95.7473L118.5 85.7502Z"></path>
<path fill="#9395AA" d="M116 91.7498L121 92.7498V93.7498L116 92.7498V91.7498Z"></path>
<path fill="white" d="M117.5 88.75L122.5 89.75L121 92.7498L116 91.7498L117.5 88.75Z"></path>
<path fill="#575876" d="M122.5 89.75V90.75L121 93.7498V92.7498L122.5 89.75Z"></path>
<path fill="#9395AA" d="M116 93.7498L119.75 94.4998V95.4998L116 94.7498V93.7498Z"></path>
<path fill="white" d="M116.455 92.8407L120.205 93.5907L119.75 94.4998L116 93.7498L116.455 92.8407Z"></path>
<path fill="#575876" d="M121.25 93.2498V92.5L119.75 95.4998V94.4998L120.205 93.5907L121 93.7498L121.25 93.2498Z"></path>
<path fill="#9395AA" d="M83 87.7498L84.3577 88.0213L83.7751 89.1998L82.9933 89L83 87.7498Z"></path>
<path fill="white" d="M84.5 84.75L85.8576 85.0215L84.3577 88.0213L83 87.7498L84.5 84.75Z"></path>
<path fill="#9395AA" d="M94.25 106.5L96.75 107V109L94.25 108.5V106.5Z"></path>
<path fill="white" d="M94.5682 105.864L97.0682 106.364L96.75 107L94.25 106.5L94.5682 105.864Z"></path>
<path fill="#575876" d="M97.0682 106.364L97.9774 106.545L96.75 109V107L97.0682 106.364Z"></path>
<path fill="#957B64" d="M92.25 109.5L94.75 110V113L92.25 112.5V109.5Z"></path>
<path fill="#FFDB9F" d="M95.75 108L93.6542 107.581L94.25 106.5L95.75 106.8L96.75 107L95.75 109V108L94.75 110L92.25 109.5L93.25 107.5L95.75 108Z"></path>
<path fill="#58483F" d="M96.75 107V109L94.75 113V110L95.75 108V109L96.75 107Z"></path>
</svg>
