<svg xmlns="http://www.w3.org/2000/svg" fill="none" viewBox="0 0 200 200" height="200" width="200">
<path fill="#6373B1" d="M92.0062 93.0007L124.5 99.5V103.5L92.0062 97.0007V93.0007Z"></path>
<path fill="#2C3C81" d="M92.0062 83.0007L124.5 89.5V99.5L92.0062 93.0007V83.0007Z"></path>
<path fill="#212D61" d="M124.5 89.5L130.5 77.5V87.5L124.5 99.5V89.5Z"></path>
<path fill="#4F5380" d="M124.5 99.5L130.5 87.5V91.5L124.5 103.5V99.5Z"></path>
<path fill="#5E83F8" d="M98.0062 71.0007L130.5 77.5L124.5 89.5L92.0062 83.0007L98.0062 71.0007Z"></path>
<path fill="#6373B1" d="M125.5 95.5L133 97V101L125.5 99.5V95.5Z"></path>
<path fill="#2C3C81" d="M125.5 89.5L138 92V102L133 101V97L125.5 95.5V89.5Z"></path>
<path fill="#212D61" d="M138 92L143 82V92L138 102V92Z"></path>
<path fill="#5E83F8" d="M130.5 79.5L143 82L138 92L125.5 89.5L130.5 79.5Z"></path>
<path fill="#2C3C81" d="M139 92L154 95V101L139 98V92Z"></path>
<path fill="#212D61" d="M154 95L157 89V95L154 101V95Z"></path>
<path fill="#5E83F8" d="M142 86L157 89L154 95L139 92L142 86Z"></path>
<path fill="#1F3173" d="M111.5 78.5L121.5 80.5V84.5L111.5 82.5V78.5Z"></path>
<path fill="#192354" d="M121.5 80.5L123.5 76.5V80.5L121.5 84.5V80.5Z"></path>
<path fill="#4169DB" d="M113.5 74.5L123.5 76.5L121.5 80.5L111.5 78.5L113.5 74.5Z"></path>
<path fill="#1F3173" d="M152.5 84.5L165 87V91L160 90V104L165 105V109L152.5 106.5V100.7L154 101L155 99V93L152.5 92.5V84.5Z"></path>
<path fill="#192354" d="M165 87L166 85V89L165 91L161 90.2V102L166 103V107L165 109V105L160 104V90L165 91V87Z"></path>
<path fill="#4169DB" d="M153.5 82.5L166 85L165 87L152.5 84.5L153.5 82.5Z"></path>
<path fill="#4169DB" d="M161 102L166 103L165 105L160 104L161 102Z"></path>
<path fill="#2C3C81" d="M80.5 82.5L92.0062 84.8013V90.8012L80.5 88.5V82.5Z"></path>
<path fill="#5E83F8" d="M84.5 74.5L95.1878 76.6376L92.0062 83.0007V84.8013L80.5 82.5L84.5 74.5Z"></path>
<path fill="#1F3173" d="M80.5 86.5L92.0062 88.8012V90.8012L80.5 88.5V86.5Z"></path>
<path fill="#6776B6" d="M97 90L99.5 90.5V92.5L97 92V90Z"></path>
<path fill="#1F3173" d="M101.5 99.4995L111.5 101.499V105.499L101.5 103.499V99.4995Z"></path>
<path fill="#192354" d="M111.5 101.499L112.494 99.4995V101.499L114.5 97.4995V99.4995L111.5 105.499V101.499Z"></path>
<path fill="#4169DB" d="M104.5 95.4995L114.5 97.4995L112.494 101.499V99.4995L111.5 101.499L101.5 99.4995L102.494 97.4995L103.405 97.6818L104.5 95.4995Z"></path>
</svg>
