<svg version="1.1" xmlns="http://www.w3.org/2000/svg" xmlns:xlink="http://www.w3.org/1999/xlink" width="13" height="13" viewBox="0,0,13,13"><g transform="translate(-240,-174)"><g data-paper-data="{&quot;isPaintingLayer&quot;:true}" fill="#f7e84d" fill-rule="nonzero" stroke="#000000" stroke-width="1" stroke-linecap="butt" stroke-linejoin="miter" stroke-miterlimit="10" stroke-dasharray="" stroke-dashoffset="0" style="mix-blend-mode: normal"><path d="M251,174.5h0.5v0.5v0.5h0.5h0.5v0.5v4v0.5h-0.5h-0.5v1h0.5h0.5v0.5v3v0.5h-0.5h-0.5v0.5v0.5h-0.5h-10h-0.5v-0.5v-2v-0.5h0.5h6.5v-1h-3.5h-0.5v-0.5v-2v-0.5h0.5h3.5v-1h-6.5h-0.5v-0.5v-3v-0.5h0.5z"/><path d="M250,174.5h0.5v0.5v0.5h0.5h0.5v0.5v3v0.5h-0.5h-0.5v1h0.5h0.5v0.5v3v0.5h-0.5h-0.5v0.5v0.5h-0.5h-9h-0.5v-0.5v-2v-0.5h0.5h5.5v-1h-2.5h-0.5v-0.5v-2v-0.5h0.5h2.5v-1h-5.5h-0.5v-0.5v-2v-0.5h0.5z"/></g></g></svg>